<?xml version="1.0" encoding="UTF-8"?>
<svg width="53px" height="45px" viewBox="0 0 53 45" version="1.1" xmlns="http://www.w3.org/2000/svg" xmlns:xlink="http://www.w3.org/1999/xlink">
    <!-- Generator: Sketch 52.6 (67491) - http://www.bohemiancoding.com/sketch -->
    <desc>Created with Sketch.</desc>
    <g id="Page-1" stroke="none" stroke-width="1" fill="none" fill-rule="evenodd">
        <g id="smile" transform="translate(1.000000, 1.000000)" fill="#FDC448" stroke="#FDC448" stroke-width="0.3">
            <path d="M10.7550234,24.9933041 C10.5696504,24.8089194 10.3135547,24.7028065 10.0504863,24.7028065 C9.78841406,24.7028065 9.53122266,24.8089194 9.34594922,24.9933041 C9.16057617,25.1775899 9.05399414,25.4333111 9.05399414,25.6939862 C9.05399414,25.9557512 9.16067578,26.2104816 9.34594922,26.3957581 C9.53132227,26.5801429 9.78841406,26.6851659 10.0504863,26.6851659 C10.3125586,26.6851659 10.56975,26.5801429 10.7550234,26.3957581 C10.9403965,26.2103825 11.0469785,25.9557512 11.0469785,25.6939862 C11.0469785,25.4333111 10.9403965,25.1775899 10.7550234,24.9933041 Z" id="Path"></path>
            <path d="M20.1526699,24.9933041 C19.9673965,24.8089194 19.7103047,24.7028065 19.4481328,24.7028065 C19.1860605,24.7028065 18.9288691,24.8089194 18.7435957,24.9933041 C18.5582227,25.1775899 18.4516406,25.4333111 18.4516406,25.6939862 C18.4516406,25.9557512 18.5582227,26.2104816 18.7435957,26.3957581 C18.9289687,26.5801429 19.1860605,26.6851659 19.4481328,26.6851659 C19.7102051,26.6851659 19.9673965,26.5801429 20.1526699,26.3957581 C20.338043,26.2103825 20.444625,25.9546613 20.444625,25.6939862 C20.444625,25.4333111 20.338043,25.1775899 20.1526699,24.9933041 Z" id="Path"></path>
            <path d="M18.3247383,30.436371 C17.7930234,30.2946889 17.2468652,30.6093618 17.1047227,31.1381429 C16.8199395,32.1984793 15.8514375,32.9391889 14.7493594,32.9391889 C13.6473809,32.9391889 12.6788789,32.1984793 12.3939961,31.1381429 C12.2519531,30.6091636 11.7057949,30.2944908 11.1739805,30.436371 C10.6422656,30.5777558 10.3264043,31.1209032 10.4684473,31.6498825 C10.9858184,33.5762627 12.7462148,34.9217465 14.749459,34.9217465 C16.7526035,34.9217465 18.513,33.5762627 19.0303711,31.6498825 C19.1723145,31.1210023 18.8563535,30.5776567 18.3247383,30.436371 Z" id="Path"></path>
            <path d="M25.5120527,0.0985829493 C24.9616113,0.0985829493 24.5154609,0.542354839 24.5154609,1.08986175 L24.5154609,7.3827235 C24.5154609,7.93023041 24.9616113,8.3740023 25.5120527,8.3740023 C26.0624941,8.3740023 26.5086445,7.93023041 26.5086445,7.3827235 L26.5086445,1.08986175 C26.5086445,0.542354839 26.0624941,0.0985829493 25.5120527,0.0985829493 Z" id="Path"></path>
            <path d="M26.2169883,10.1847581 C26.0315156,9.99938249 25.7744238,9.89435945 25.5124512,9.89435945 C25.2493828,9.89435945 24.9931875,9.99948157 24.806918,10.1847581 C24.6215449,10.3691429 24.515959,10.6248641 24.515959,10.8855392 C24.515959,11.1462143 24.6216445,11.4020346 24.806918,11.5863203 C24.9932871,11.7707051 25.2493828,11.8767189 25.5124512,11.8767189 C25.7745234,11.8767189 26.0317148,11.7707051 26.2169883,11.5863203 C26.4022617,11.4019355 26.5089434,11.1462143 26.5089434,10.8855392 C26.5089434,10.6248641 26.4022617,10.3691429 26.2169883,10.1847581 Z" id="Path"></path>
            <path d="M19.4389688,9.11025346 L16.8947461,6.58177419 C16.5054727,6.19487327 15.8743477,6.19507143 15.485373,6.58236866 C15.0963984,6.9696659 15.0965977,7.59722811 15.4859707,7.98422811 L18.0301934,10.5128065 C18.2247305,10.7062074 18.4796309,10.8028088 18.7345313,10.8028088 C18.9897305,10.8028088 19.2450293,10.7058111 19.4395664,10.512212 C19.828541,10.1248157 19.8283418,9.49725346 19.4389688,9.11025346 Z" id="Path"></path>
            <path d="M35.5407246,6.58435023 C35.1513516,6.19735023 34.5203262,6.19764747 34.1313516,6.58484562 L31.426459,9.2774977 C31.0373848,9.66479493 31.0376836,10.2924562 31.426957,10.6793571 C31.6214941,10.8728571 31.8763945,10.9694585 32.1312949,10.9694585 C32.3864941,10.9694585 32.6416934,10.8725599 32.8362305,10.6788618 L35.541123,7.98620968 C35.9302969,7.59891244 35.929998,6.97125115 35.5407246,6.58435023 Z" id="Path"></path>
            <path d="M50.4957773,24.4267742 C48.390832,16.6127627 40.2872109,11.9591521 32.4315176,14.0530737 C29.735291,14.7716889 27.353332,16.2004977 25.4928281,18.1789931 C22.7091445,15.2300253 18.8566523,13.5598618 14.7493594,13.5598618 C6.61655273,13.5598618 0,20.1412396 0,28.2306889 C0,36.3201382 6.61655273,42.9014171 14.7493594,42.9014171 C18.8605371,42.9014171 22.7192051,41.2261014 25.5038848,38.27 C28.2612715,41.1780484 32.1499219,42.8963641 36.252334,42.8963641 C37.512293,42.8963641 38.7928711,42.7341728 40.066377,42.3948295 C47.9220703,40.3010069 52.6007227,32.2404885 50.4957773,24.4267742 Z M14.7493594,40.9188594 C7.71544336,40.9188594 1.99308398,35.2269078 1.99308398,28.2305899 C1.99308398,21.2342719 7.71544336,15.5423203 14.7493594,15.5423203 C18.3905801,15.5423203 21.8008066,17.0601014 24.2210156,19.7315507 C23.9566523,20.1034908 23.7074297,20.4890046 23.4755391,20.8883894 C21.5056641,24.2821198 20.982416,28.2357419 22.0021172,32.0208318 C22.4699824,33.7579724 23.2343848,35.3386682 24.2265938,36.7239816 C21.8058867,39.3988986 18.391875,40.9188594 14.7493594,40.9188594 Z M39.5505,40.4798433 C32.7564434,42.2901037 25.7478281,38.2657396 23.9273672,31.5079032 C23.0455254,28.2342558 23.4980508,24.8148641 25.2016699,21.8798664 C25.5160371,21.3383041 25.8661641,20.8254747 26.2485645,20.3432604 C26.2650996,20.3243364 26.2804395,20.3047189 26.2953809,20.2848041 C27.9817676,18.1840461 30.2879238,16.6768664 32.9472949,15.9680599 C34.0490742,15.6744908 35.1559336,15.5342949 36.245959,15.5342949 C41.8774746,15.5342949 47.0451094,19.27797 48.5703281,24.9399009 C50.3909883,31.6978364 46.3445566,38.6689885 39.5505,40.4798433 Z" id="Shape" fill-rule="nonzero"></path>
            <path d="M33.3297949,26.2804309 C33.0214043,25.1352834 31.8342598,24.45303 30.6824766,24.7600737 C29.5311914,25.0670184 28.8455801,26.2481313 29.1540703,27.3932788 C29.2734023,27.836159 29.6760234,28.128341 30.1160977,28.128341 C30.2013633,28.128341 30.2883223,28.1173433 30.374584,28.0942581 C30.9062988,27.952477 31.2217617,27.4091313 31.0792207,26.8802512 C31.0552148,26.7910806 31.1086055,26.6989378 31.1982539,26.6750599 C31.2538359,26.6603963 31.2984609,26.6760507 31.3260527,26.6918041 C31.3535449,26.7076567 31.3896035,26.7381728 31.4045449,26.7934585 C31.5469863,27.3222396 32.0932441,27.6362189 32.6250586,27.4943387 C33.156873,27.3527558 33.4722363,26.8093111 33.3297949,26.2804309 Z" id="Path"></path>
            <path d="M42.3508184,23.8760968 C42.2013047,23.3213571 41.843707,22.8577696 41.343668,22.5705415 C40.8436289,22.2835115 40.2611133,22.2071221 39.7035,22.3558387 C39.1457871,22.5044562 38.6796152,22.8601475 38.3910469,23.3575207 C38.1023789,23.854894 38.0255801,24.4342051 38.1750938,24.9890438 C38.2944258,25.431924 38.6970469,25.7240069 39.1371211,25.7240069 C39.2223867,25.7239078 39.3093457,25.7130092 39.395707,25.689924 C39.9273223,25.5481429 40.2427852,25.0046982 40.1003438,24.475818 C40.085502,24.4205323 40.1012402,24.3762442 40.1171777,24.3487995 C40.1331152,24.3213548 40.1636953,24.2855876 40.219377,24.2708249 C40.274959,24.2560622 40.3196836,24.2718157 40.3471758,24.2875691 C40.374668,24.3033226 40.410627,24.3338387 40.4255684,24.3892235 C40.5680098,24.9180046 41.1142676,25.2318848 41.646082,25.0901037 C42.1777969,24.9484217 42.4932598,24.404977 42.3508184,23.8760968 Z" id="Path"></path>
            <path d="M41.4777422,30.0960369 C41.3352012,29.5672558 40.7887441,29.2532765 40.2571289,29.3950576 C39.7254141,29.5368387 39.4100508,30.0801843 39.5524922,30.6090645 C39.8915625,31.8678548 39.1378184,33.1664747 37.8722813,33.5037373 C37.2590859,33.6672166 36.6187969,33.5831982 36.069252,33.2676336 C35.5195078,32.951871 35.1263496,32.4423111 34.9621934,31.8324839 C34.8196523,31.3037028 34.2732949,30.9895253 33.7415801,31.1316037 C33.2099648,31.2733848 32.894502,31.8168295 33.0369434,32.3456106 C33.3390586,33.4669793 34.0620234,34.4041613 35.0727598,34.9845622 C35.7459199,35.3711659 36.4931895,35.5687281 37.2503203,35.5687281 C37.6299316,35.5687281 38.0119336,35.5191889 38.3883574,35.4187235 C40.715332,34.7984931 42.1011973,32.410606 41.4777422,30.0960369 Z" id="Path"></path>
        </g>
    </g>
</svg>