<svg width="1193" height="494" viewBox="0 0 1193 494" fill="none" xmlns="http://www.w3.org/2000/svg">
<path fill-rule="evenodd" clip-rule="evenodd" d="M-1 0L-1 493.868C33.0798 493.129 64.3139 489.268 91.1385 481.569C112.167 475.534 130.426 470.24 146.568 465.56L146.607 465.549C200.035 450.059 230.262 441.296 260.944 434.626C300.913 425.938 341.655 420.803 435.472 408.978L435.473 408.978L444.474 407.843C534.325 396.515 607.036 399.757 678.057 402.923C763.09 406.714 845.7 410.397 952.404 388.835C1014.91 376.204 1102.59 363.526 1193 352.117V0H-1Z" fill="url(#paint0_linear)"/>
<path fill-rule="evenodd" clip-rule="evenodd" d="M-1 0L-1 493.868C33.0798 493.129 64.3139 489.268 91.1385 481.569C112.167 475.534 130.426 470.24 146.568 465.56L146.607 465.549C200.035 450.059 230.262 441.296 260.944 434.626C300.913 425.938 341.655 420.803 435.472 408.978L435.473 408.978L444.474 407.843C534.325 396.515 607.036 399.757 678.057 402.923C763.09 406.714 845.7 410.397 952.404 388.835C1014.91 376.204 1102.59 363.526 1193 352.117V0H-1Z" fill="#4E4B6B"/>
<path fill-rule="evenodd" clip-rule="evenodd" d="M-1 0L-1 493.868C33.0798 493.129 64.3139 489.268 91.1385 481.569C112.167 475.534 130.426 470.24 146.568 465.56L146.607 465.549C200.035 450.059 230.262 441.296 260.944 434.626C300.913 425.938 341.655 420.803 435.472 408.978L435.473 408.978L444.474 407.843C534.325 396.515 607.036 399.757 678.057 402.923C763.09 406.714 845.7 410.397 952.404 388.835C1014.91 376.204 1102.59 363.526 1193 352.117V0H-1Z" fill="url(#paint1_linear)"/>
<mask id="mask0" mask-type="alpha" maskUnits="userSpaceOnUse" x="22" y="221" width="12" height="12">
<path fill-rule="evenodd" clip-rule="evenodd" d="M22.2119 226.821C22.2119 223.882 24.6624 221.499 27.686 221.499C30.7096 221.499 33.1611 223.882 33.1611 226.821C33.1611 229.759 30.7096 232.142 27.686 232.142C24.6624 232.142 22.2119 229.759 22.2119 226.821Z" fill="white"/>
</mask>
<g mask="url(#mask0)">
<path fill-rule="evenodd" clip-rule="evenodd" d="M22.2119 226.821C22.2119 223.882 24.6624 221.499 27.686 221.499C30.7096 221.499 33.1611 223.882 33.1611 226.821C33.1611 229.759 30.7096 232.142 27.686 232.142C24.6624 232.142 22.2119 229.759 22.2119 226.821Z" fill="url(#paint2_linear)"/>
</g>
<mask id="mask1" mask-type="alpha" maskUnits="userSpaceOnUse" x="351" y="396" width="12" height="12">
<path fill-rule="evenodd" clip-rule="evenodd" d="M351.092 402.099C351.092 399.161 353.542 396.778 356.566 396.778C359.589 396.778 362.041 399.161 362.041 402.099C362.041 405.038 359.589 407.421 356.566 407.421C353.542 407.421 351.092 405.038 351.092 402.099Z" fill="white"/>
</mask>
<g mask="url(#mask1)">
<path fill-rule="evenodd" clip-rule="evenodd" d="M351.092 402.099C351.092 399.161 353.542 396.778 356.566 396.778C359.589 396.778 362.041 399.161 362.041 402.099C362.041 405.038 359.589 407.421 356.566 407.421C353.542 407.421 351.092 405.038 351.092 402.099Z" fill="url(#paint3_linear)"/>
</g>
<path fill-rule="evenodd" clip-rule="evenodd" d="M520.016 341.667C520.015 342.102 520.183 342.537 520.519 342.869L525.236 347.524L520.519 352.18C519.847 352.844 519.847 353.919 520.519 354.583C521.192 355.247 522.281 355.247 522.954 354.583L528.888 348.725C529.211 348.407 529.392 347.974 529.392 347.524C529.392 347.074 529.211 346.641 528.888 346.323L522.954 340.466C522.281 339.802 521.192 339.802 520.519 340.466C520.183 340.797 520.016 341.232 520.016 341.667Z" fill="#BD4D9C"/>
<path fill-rule="evenodd" clip-rule="evenodd" d="M507.754 341.667C507.753 342.102 507.921 342.537 508.257 342.869L512.974 347.524L508.257 352.18C507.585 352.844 507.585 353.919 508.257 354.583C508.93 355.247 510.019 355.247 510.692 354.583L516.626 348.725C516.949 348.407 517.13 347.974 517.13 347.524C517.13 347.074 516.949 346.641 516.626 346.323L510.692 340.466C510.019 339.802 508.93 339.802 508.257 340.466C507.921 340.797 507.754 341.232 507.754 341.667Z" fill="#BD4D9C"/>
<path fill-rule="evenodd" clip-rule="evenodd" d="M495.491 341.667C495.49 342.102 495.658 342.537 495.994 342.869L500.711 347.524L495.994 352.18C495.322 352.844 495.322 353.919 495.994 354.583C496.667 355.247 497.756 355.247 498.429 354.583L504.364 348.725C504.687 348.407 504.867 347.974 504.867 347.524C504.867 347.074 504.687 346.641 504.364 346.323L498.429 340.466C497.756 339.802 496.667 339.802 495.994 340.466C495.658 340.797 495.491 341.232 495.491 341.667Z" fill="#BD4D9C"/>
<path fill-rule="evenodd" clip-rule="evenodd" d="M1007.92 135.344C1007.47 135.344 1007.05 135.158 1006.73 134.824L1001.22 129C1000.56 128.306 1000.56 127.182 1001.22 126.488C1001.87 125.794 1002.94 125.794 1003.59 126.488L1007.92 131.057L1012.25 126.488C1012.9 125.794 1013.97 125.794 1014.62 126.488C1015.28 127.182 1015.28 128.306 1014.62 129L1009.11 134.824C1008.79 135.158 1008.37 135.344 1007.92 135.344Z" fill="#403669"/>
<path fill-rule="evenodd" clip-rule="evenodd" d="M1007.92 119.475C1007.49 119.475 1007.06 119.303 1006.73 118.957L1001.22 113.131C1000.56 112.437 1000.56 111.313 1001.22 110.618C1001.87 109.925 1002.94 109.925 1003.59 110.618L1007.92 115.188L1012.25 110.618C1012.9 109.925 1013.97 109.925 1014.62 110.618C1015.28 111.313 1015.28 112.437 1014.62 113.131L1009.11 118.957C1008.78 119.303 1008.35 119.475 1007.92 119.475Z" fill="#403669"/>
<mask id="mask2" mask-type="alpha" maskUnits="userSpaceOnUse" x="1081" y="122" width="12" height="12">
<path fill-rule="evenodd" clip-rule="evenodd" d="M1081.54 128.001C1081.54 125.062 1083.99 122.68 1087.01 122.68C1090.03 122.68 1092.49 125.062 1092.49 128.001C1092.49 130.94 1090.03 133.323 1087.01 133.323C1083.99 133.323 1081.54 130.94 1081.54 128.001Z" fill="white"/>
</mask>
<g mask="url(#mask2)">
<path fill-rule="evenodd" clip-rule="evenodd" d="M1081.54 128.001C1081.54 125.062 1083.99 122.68 1087.01 122.68C1090.03 122.68 1092.49 125.062 1092.49 128.001C1092.49 130.94 1090.03 133.323 1087.01 133.323C1083.99 133.323 1081.54 130.94 1081.54 128.001Z" fill="url(#paint4_linear)"/>
</g>
<path d="M98.0337 115.541C97.04 115.541 96.234 114.753 96.234 113.78V105.76C96.234 104.788 97.04 104 98.0337 104C99.0274 104 99.8323 104.788 99.8323 105.76V113.78C99.8323 114.753 99.0274 115.541 98.0337 115.541Z" fill="#13C6B9"/>
<path d="M98.0337 132.852C97.04 132.852 96.234 132.064 96.234 131.091V123.073C96.234 122.101 97.04 121.311 98.0337 121.311C99.0274 121.311 99.8323 122.101 99.8323 123.073V131.091C99.8323 132.064 99.0274 132.852 98.0337 132.852Z" fill="#13C6B9"/>
<path d="M110.308 120.59H102.309C101.338 120.59 100.552 119.782 100.552 118.787C100.552 117.791 101.338 116.984 102.309 116.984H110.308C111.279 116.984 112.066 117.791 112.066 118.787C112.066 119.782 111.279 120.59 110.308 120.59Z" fill="#13C6B9"/>
<path d="M93.7564 120.59H85.758C84.7873 120.59 84 119.782 84 118.787C84 117.791 84.7873 116.984 85.758 116.984H93.7564C94.7271 116.984 95.5144 117.791 95.5144 118.787C95.5144 119.782 94.7271 120.59 93.7564 120.59Z" fill="#13C6B9"/>
<path d="M1118.03 156.541C1117.04 156.541 1116.23 155.753 1116.23 154.78V146.76C1116.23 145.788 1117.04 145 1118.03 145C1119.03 145 1119.83 145.788 1119.83 146.76V154.78C1119.83 155.753 1119.03 156.541 1118.03 156.541Z" fill="#13C6B9"/>
<path d="M1118.03 173.852C1117.04 173.852 1116.23 173.064 1116.23 172.091V164.073C1116.23 163.101 1117.04 162.311 1118.03 162.311C1119.03 162.311 1119.83 163.101 1119.83 164.073V172.091C1119.83 173.064 1119.03 173.852 1118.03 173.852Z" fill="#13C6B9"/>
<path d="M1130.31 161.59H1122.31C1121.34 161.59 1120.55 160.782 1120.55 159.787C1120.55 158.791 1121.34 157.984 1122.31 157.984H1130.31C1131.28 157.984 1132.07 158.791 1132.07 159.787C1132.07 160.782 1131.28 161.59 1130.31 161.59Z" fill="#13C6B9"/>
<path d="M1113.76 161.59H1105.76C1104.79 161.59 1104 160.782 1104 159.787C1104 158.791 1104.79 157.984 1105.76 157.984H1113.76C1114.73 157.984 1115.51 158.791 1115.51 159.787C1115.51 160.782 1114.73 161.59 1113.76 161.59Z" fill="#13C6B9"/>
<path d="M177.164 396.084C176.462 395.381 176.449 394.254 177.137 393.566L182.808 387.895C183.495 387.208 184.622 387.221 185.325 387.923C186.028 388.626 186.04 389.752 185.352 390.44L179.682 396.11C178.994 396.798 177.867 396.787 177.164 396.084Z" fill="#13C6B9"/>
<path d="M164.923 408.325C164.221 407.622 164.208 406.495 164.896 405.807L170.566 400.137C171.253 399.45 172.381 399.462 173.084 400.164C173.787 400.867 173.798 401.994 173.111 402.682L167.44 408.352C166.752 409.04 165.626 409.028 164.923 408.325Z" fill="#13C6B9"/>
<path d="M182.274 408.334L176.617 402.677C175.931 401.991 175.946 400.864 176.65 400.16C177.354 399.455 178.481 399.441 179.167 400.127L184.824 405.784C185.51 406.47 185.496 407.597 184.792 408.302C184.088 409.005 182.96 409.02 182.274 408.334Z" fill="#13C6B9"/>
<path d="M170.57 396.63L164.914 390.974C164.227 390.288 164.242 389.16 164.946 388.456C165.65 387.751 166.778 387.738 167.464 388.424L173.12 394.08C173.806 394.766 173.792 395.893 173.088 396.598C172.384 397.302 171.256 397.316 170.57 396.63Z" fill="#13C6B9"/>
<path d="M510.627 114.874C510.076 114.323 510.073 113.432 510.622 112.884L515.142 108.363C515.69 107.815 516.581 107.818 517.132 108.369C517.683 108.919 517.685 109.81 517.137 110.358L512.616 114.878C512.068 115.427 511.177 115.425 510.627 114.874Z" fill="#13C6B9"/>
<path d="M500.869 124.632C500.318 124.081 500.315 123.19 500.864 122.642L505.384 118.122C505.932 117.574 506.823 117.576 507.374 118.127C507.925 118.677 507.926 119.568 507.378 120.116L502.858 124.636C502.31 125.185 501.419 125.183 500.869 124.632Z" fill="#13C6B9"/>
<path d="M514.584 124.523L510.15 120.09C509.612 119.552 509.632 118.66 510.193 118.099C510.754 117.538 511.645 117.519 512.183 118.057L516.617 122.491C517.155 123.029 517.136 123.92 516.575 124.481C516.014 125.042 515.122 125.062 514.584 124.523Z" fill="#13C6B9"/>
<path d="M505.41 115.349L500.976 110.916C500.438 110.378 500.458 109.486 501.019 108.925C501.58 108.364 502.471 108.345 503.009 108.883L507.443 113.316C507.981 113.854 507.962 114.746 507.401 115.307C506.84 115.868 505.948 115.887 505.41 115.349Z" fill="#13C6B9"/>
<path d="M652.773 215.41C651.78 215.41 650.974 214.622 650.974 213.649V205.629C650.974 204.657 651.78 203.869 652.773 203.869C653.767 203.869 654.572 204.657 654.572 205.629V213.649C654.572 214.622 653.767 215.41 652.773 215.41Z" fill="#13C6B9"/>
<path d="M652.773 232.721C651.78 232.721 650.974 231.933 650.974 230.96V222.941C650.974 221.97 651.78 221.18 652.773 221.18C653.767 221.18 654.572 221.97 654.572 222.941V230.96C654.572 231.933 653.767 232.721 652.773 232.721Z" fill="#13C6B9"/>
<path d="M665.048 220.459H657.049C656.078 220.459 655.292 219.651 655.292 218.656C655.292 217.659 656.078 216.852 657.049 216.852H665.048C666.019 216.852 666.806 217.659 666.806 218.656C666.806 219.651 666.019 220.459 665.048 220.459Z" fill="#13C6B9"/>
<path d="M648.496 220.459H640.498C639.527 220.459 638.74 219.651 638.74 218.656C638.74 217.659 639.527 216.852 640.498 216.852H648.496C649.467 216.852 650.254 217.659 650.254 218.656C650.254 219.651 649.467 220.459 648.496 220.459Z" fill="#13C6B9"/>
<path d="M1047.65 313.632C1046.94 312.93 1046.93 311.802 1047.62 311.114L1053.29 305.444C1053.98 304.756 1055.11 304.769 1055.81 305.472C1056.51 306.174 1056.52 307.301 1055.83 307.988L1050.16 313.659C1049.48 314.347 1048.35 314.335 1047.65 313.632Z" fill="#13C6B9"/>
<path d="M1035.41 325.873C1034.7 325.171 1034.69 324.044 1035.38 323.356L1041.05 317.685C1041.74 316.998 1042.86 317.01 1043.57 317.713C1044.27 318.415 1044.28 319.543 1043.59 320.23L1037.92 325.9C1037.24 326.588 1036.11 326.576 1035.41 325.873Z" fill="#13C6B9"/>
<path d="M1052.76 325.882L1047.1 320.226C1046.41 319.539 1046.43 318.412 1047.13 317.708C1047.84 317.004 1048.96 316.989 1049.65 317.675L1055.31 323.332C1055.99 324.018 1055.98 325.146 1055.27 325.85C1054.57 326.554 1053.44 326.568 1052.76 325.882Z" fill="#13C6B9"/>
<path d="M1041.05 314.178L1035.4 308.522C1034.71 307.836 1034.72 306.708 1035.43 306.004C1036.13 305.3 1037.26 305.286 1037.95 305.972L1043.6 311.628C1044.29 312.314 1044.27 313.442 1043.57 314.146C1042.87 314.85 1041.74 314.864 1041.05 314.178Z" fill="#13C6B9"/>
<path fill-rule="evenodd" clip-rule="evenodd" d="M296.424 103.607H295.74C294.794 103.607 294.028 102.798 294.028 101.803C294.028 100.807 294.794 100 295.74 100H296.424C297.37 100 298.137 100.807 298.137 101.803C298.137 102.798 297.37 103.607 296.424 103.607ZM322.796 103.607H322.111C321.165 103.607 320.399 102.798 320.399 101.803C320.399 100.807 321.165 100 322.111 100H322.796C323.742 100 324.508 100.807 324.508 101.803C324.508 102.798 323.742 103.607 322.796 103.607ZM349.167 103.607H348.482C347.537 103.607 346.769 102.798 346.769 101.803C346.769 100.807 347.537 100 348.482 100H349.167C350.113 100 350.88 100.807 350.88 101.803C350.88 102.798 350.113 103.607 349.167 103.607Z" fill="#BD4D9C"/>
<path fill-rule="evenodd" clip-rule="evenodd" d="M1117.54 271.672H1116.86C1115.91 271.672 1115.15 270.864 1115.15 269.869C1115.15 268.873 1115.91 268.066 1116.86 268.066H1117.54C1118.49 268.066 1119.26 268.873 1119.26 269.869C1119.26 270.864 1118.49 271.672 1117.54 271.672ZM1143.92 271.672H1143.23C1142.28 271.672 1141.52 270.864 1141.52 269.869C1141.52 268.873 1142.28 268.066 1143.23 268.066H1143.92C1144.86 268.066 1145.63 268.873 1145.63 269.869C1145.63 270.864 1144.86 271.672 1143.92 271.672ZM1170.29 271.672H1169.6C1168.66 271.672 1167.89 270.864 1167.89 269.869C1167.89 268.873 1168.66 268.066 1169.6 268.066H1170.29C1171.23 268.066 1172 268.873 1172 269.869C1172 270.864 1171.23 271.672 1170.29 271.672Z" fill="#BD4D9C"/>
<path fill-rule="evenodd" clip-rule="evenodd" d="M67.5752 398.623H66.891C65.9451 398.623 65.179 397.815 65.179 396.82C65.179 395.823 65.9451 395.016 66.891 395.016H67.5752C68.5211 395.016 69.2883 395.823 69.2883 396.82C69.2883 397.815 68.5211 398.623 67.5752 398.623ZM93.9472 398.623H93.262C92.3161 398.623 91.55 397.815 91.55 396.82C91.55 395.823 92.3161 395.016 93.262 395.016H93.9472C94.8931 395.016 95.6593 395.823 95.6593 396.82C95.6593 397.815 94.8931 398.623 93.9472 398.623ZM120.318 398.623H119.633C118.688 398.623 117.921 397.815 117.921 396.82C117.921 395.823 118.688 395.016 119.633 395.016H120.318C121.264 395.016 122.031 395.823 122.031 396.82C122.031 397.815 121.264 398.623 120.318 398.623Z" fill="#BD4D9C"/>
<defs>
<linearGradient id="paint0_linear" x1="1129.69" y1="1368.54" x2="1752.04" y2="-1171.89" gradientUnits="userSpaceOnUse">
<stop stop-color="#B24592"/>
<stop offset="1" stop-color="#F15F79"/>
</linearGradient>
<linearGradient id="paint1_linear" x1="-122.525" y1="82.7537" x2="-122.525" y2="447.195" gradientUnits="userSpaceOnUse">
<stop stop-color="#4E4B6B"/>
<stop offset="1" stop-color="#6A668F"/>
</linearGradient>
<linearGradient id="paint2_linear" x1="19.4747" y1="226.821" x2="30.2974" y2="232.388" gradientUnits="userSpaceOnUse">
<stop stop-color="#B24592"/>
<stop offset="1" stop-color="#F15F79"/>
</linearGradient>
<linearGradient id="paint3_linear" x1="348.355" y1="402.099" x2="359.177" y2="407.666" gradientUnits="userSpaceOnUse">
<stop stop-color="#B24592"/>
<stop offset="1" stop-color="#F15F79"/>
</linearGradient>
<linearGradient id="paint4_linear" x1="1078.8" y1="128.001" x2="1089.62" y2="133.568" gradientUnits="userSpaceOnUse">
<stop stop-color="#B24592"/>
<stop offset="1" stop-color="#F15F79"/>
</linearGradient>
</defs>
</svg>
