<?xml version="1.0" encoding="UTF-8"?>
<svg width="184px" height="184px" viewBox="0 0 184 184" version="1.1" xmlns="http://www.w3.org/2000/svg" xmlns:xlink="http://www.w3.org/1999/xlink">
    <!-- Generator: Sketch 52.6 (67491) - http://www.bohemiancoding.com/sketch -->
    <desc>Created with Sketch.</desc>
    <defs>
        <circle id="path-1" cx="61" cy="61" r="61"></circle>
        <filter x="-44.7%" y="-34.0%" width="189.3%" height="189.3%" filterUnits="objectBoundingBox" id="filter-2">
            <feOffset dx="0" dy="13" in="SourceAlpha" result="shadowOffsetOuter1"></feOffset>
            <feGaussianBlur stdDeviation="16" in="shadowOffsetOuter1" result="shadowBlurOuter1"></feGaussianBlur>
            <feColorMatrix values="0 0 0 0 0   0 0 0 0 0   0 0 0 0 0  0 0 0 0.07 0" type="matrix" in="shadowBlurOuter1"></feColorMatrix>
        </filter>
        <linearGradient x1="10.9906944%" y1="17.7734393%" x2="82.0081345%" y2="90.9801566%" id="linearGradient-3">
            <stop stop-color="#13C6B9" offset="0%"></stop>
            <stop stop-color="#26B1C9" offset="100%"></stop>
        </linearGradient>
        <path d="M11.25,14.6856142 L11.25,14.8965517 C11.25,16.2676456 10.1306153,17.3793103 8.75,17.3793103 C7.36938469,17.3793103 6.25,16.2676456 6.25,14.8965517 L6.25,14.6856142 L6.09985344,14.8347251 C5.48278812,15.4402613 4.59289547,15.6845366 3.75,15.4802667 L3.75,32.2758621 L8.75,27.3103448 L13.75,32.2758621 L13.75,15.4802667 C12.9174805,15.7002964 12.0300294,15.4802667 11.4001466,14.8965517 L11.25,14.6856142 Z" id="path-4"></path>
        <filter x="-210.0%" y="-135.6%" width="540.0%" height="349.3%" filterUnits="objectBoundingBox" id="filter-5">
            <feOffset dx="0" dy="2" in="SourceAlpha" result="shadowOffsetOuter1"></feOffset>
            <feGaussianBlur stdDeviation="2.5" in="shadowOffsetOuter1" result="shadowBlurOuter1"></feGaussianBlur>
            <feColorMatrix values="0 0 0 0 0   0 0 0 0 0   0 0 0 0 0  0 0 0 0.07 0" type="matrix" in="shadowBlurOuter1" result="shadowMatrixOuter1"></feColorMatrix>
            <feOffset dx="1" dy="-2" in="SourceAlpha" result="shadowOffsetOuter2"></feOffset>
            <feGaussianBlur stdDeviation="7" in="shadowOffsetOuter2" result="shadowBlurOuter2"></feGaussianBlur>
            <feColorMatrix values="0 0 0 0 0   0 0 0 0 0   0 0 0 0 0  0 0 0 0.105355525 0" type="matrix" in="shadowBlurOuter2" result="shadowMatrixOuter2"></feColorMatrix>
            <feMerge>
                <feMergeNode in="shadowMatrixOuter1"></feMergeNode>
                <feMergeNode in="shadowMatrixOuter2"></feMergeNode>
            </feMerge>
        </filter>
        <path d="M17.5,8.68965517 C17.5,7.31856134 16.3806153,6.20689655 15,6.20689655 L14.7875977,6.20689655 L14.9377441,6.05778548 C15.9143066,5.0879579 15.9143066,3.5150189 14.9377441,2.54458521 C13.9605713,1.57475762 12.3767091,1.57475762 11.4001466,2.54458521 L11.25,2.69369612 L11.25,2.48275862 C11.25,1.11166479 10.1306153,0 8.75,0 C7.36938469,0 6.25,1.11166479 6.25,2.48275862 L6.25,2.69369612 L6.09985344,2.54458521 C5.12329094,1.57475762 3.53942875,1.57475762 2.56225594,2.54458521 C1.58569344,3.5150189 1.58569344,5.0879579 2.56225594,6.05778548 L2.71240234,6.20689655 L2.5,6.20689655 C1.11938469,6.20689655 0,7.31856134 0,8.68965517 C0,10.060749 1.11938469,11.1724138 2.5,11.1724138 L2.71240234,11.1724138 L2.56225594,11.3215249 C1.56860344,12.2913524 1.55456547,13.8782328 2.53112797,14.8656384 C3.50830078,15.8530441 5.10559078,15.8663793 6.09985344,14.8965517 L6.25,14.7474407 L6.25,14.8965517 C6.25,16.2676456 7.36938469,17.3793103 8.75,17.3793103 C10.1306153,17.3793103 11.25,16.2676456 11.25,14.8965517 L11.25,14.6856142 L11.4001466,14.8347251 C12.3767091,15.8215249 13.9746094,15.835466 14.968872,14.8656384 C15.9631347,13.8952047 15.9765625,12.3089305 15,11.3215249 L14.7875977,11.1724138 L15,11.1724138 C16.3806153,11.1724138 17.5,10.060749 17.5,8.68965517 Z" id="path-6"></path>
        <filter x="-48.6%" y="-37.4%" width="197.1%" height="197.8%" filterUnits="objectBoundingBox" id="filter-7">
            <feOffset dx="0" dy="2" in="SourceAlpha" result="shadowOffsetOuter1"></feOffset>
            <feGaussianBlur stdDeviation="2.5" in="shadowOffsetOuter1" result="shadowBlurOuter1"></feGaussianBlur>
            <feColorMatrix values="0 0 0 0 0   0 0 0 0 0   0 0 0 0 0  0 0 0 0.07 0" type="matrix" in="shadowBlurOuter1"></feColorMatrix>
        </filter>
    </defs>
    <g id="Page-1" stroke="none" stroke-width="1" fill="none" fill-rule="evenodd">
        <g id="Terms-contract" transform="translate(31.000000, 18.000000)">
            <g id="Oval" fill-rule="nonzero">
                <use fill="black" fill-opacity="1" filter="url(#filter-2)" xlink:href="#path-1"></use>
                <use fill="#FFFFFF" xlink:href="#path-1"></use>
            </g>
            <g id="contract" transform="translate(36.000000, 28.000000)">
                <path d="M38.75,62.0689655 L47.5,62.0689655 C48.8806153,62.0689655 50,60.9573007 50,59.5862069 L50,2.48275862 C50,1.11166479 48.8806153,0 47.5,0 L2.5,0 C1.11938469,0 0,1.11166479 0,2.48275862 L0,59.5862069 C0,60.9573007 1.11938469,62.0689655 2.5,62.0689655 L28.75,62.0689655" id="Path" fill="url(#linearGradient-3)" fill-rule="nonzero"></path>
                <path d="M11.2327586,10.6551724 L38.7672414,10.6551724 C40.1384311,10.6551724 41.25,11.7667413 41.25,13.137931 L41.25,13.137931 C41.25,14.5091208 40.1384311,15.6206897 38.7672414,15.6206897 L11.2327586,15.6206897 C9.8615689,15.6206897 8.75,14.5091208 8.75,13.137931 L8.75,13.137931 C8.75,11.7667413 9.8615689,10.6551724 11.2327586,10.6551724 Z" id="Path" fill="#FFFFFF"></path>
                <g id="Group" transform="translate(6.250000, 24.827586)" fill="#FFFFFF">
                    <path d="M35,2.48275862 L7.5,2.48275862 C6.80969234,2.48275862 6.25,1.92692622 6.25,1.24137931 C6.25,0.555832397 6.80969234,0 7.5,0 L35,0 C35.6903077,0 36.25,0.555832397 36.25,1.24137931 C36.25,1.92692622 35.6903077,2.48275862 35,2.48275862 Z" id="Path"></path>
                    <path d="M21.25,8.68965517 L1.25,8.68965517 C0.559692344,8.68965517 0,8.13382278 0,7.44827586 C0,6.76272895 0.559692344,6.20689655 1.25,6.20689655 L21.25,6.20689655 C21.9403077,6.20689655 22.5,6.76272895 22.5,7.44827586 C22.5,8.13382278 21.9403077,8.68965517 21.25,8.68965517 Z" id="Path"></path>
                    <path d="M33.75,8.68965517 L28.75,8.68965517 C28.0596923,8.68965517 27.5,8.13382278 27.5,7.44827586 C27.5,6.76272895 28.0596923,6.20689655 28.75,6.20689655 L33.75,6.20689655 C34.4403077,6.20689655 35,6.76272895 35,7.44827586 C35,8.13382278 34.4403077,8.68965517 33.75,8.68965517 Z" id="Path"></path>
                    <path d="M16.25,14.8965517 L1.25,14.8965517 C0.559692344,14.8965517 0,14.3407193 0,13.6551724 C0,12.9696255 0.559692344,12.4137931 1.25,12.4137931 L16.25,12.4137931 C16.9403077,12.4137931 17.5,12.9696255 17.5,13.6551724 C17.5,14.3407193 16.9403077,14.8965517 16.25,14.8965517 Z" id="Path"></path>
                    <path d="M15,21.1034483 L1.25,21.1034483 C0.559692344,21.1034483 0,20.5476159 0,19.862069 C0,19.1765221 0.559692344,18.6206897 1.25,18.6206897 L15,18.6206897 C15.6903077,18.6206897 16.25,19.1765221 16.25,19.862069 C16.25,20.5476159 15.6903077,21.1034483 15,21.1034483 Z" id="Path"></path>
                    <path d="M10,27.3103448 L1.25,27.3103448 C0.559692344,27.3103448 0,26.7545124 0,26.0689655 C0,25.3834186 0.559692344,24.8275862 1.25,24.8275862 L10,24.8275862 C10.6903077,24.8275862 11.25,25.3834186 11.25,26.0689655 C11.25,26.7545124 10.6903077,27.3103448 10,27.3103448 Z" id="Path"></path>
                </g>
                <g id="Group-28" transform="translate(25.000000, 39.724138)">
                    <g id="Path" fill-rule="nonzero">
                        <use fill="black" fill-opacity="1" filter="url(#filter-5)" xlink:href="#path-4"></use>
                        <use fill="#FFFFFF" xlink:href="#path-4"></use>
                    </g>
                    <path d="M13.75,15.4802667 C12.9174805,15.7002964 12.0300294,15.4802667 11.4001466,14.8965517 L11.25,14.6856142 L11.25,14.8965517 C11.25,16.2676456 10.1306153,17.3793103 8.75,17.3793103 C7.36938469,17.3793103 6.25,16.2676456 6.25,14.8965517 L6.25,14.6856142 L6.09985344,14.8347251 C5.48278812,15.4402613 4.59289547,15.6845366 3.75,15.4802667 L3.75,17.9630254 C3.94165031,17.9751482 4.13330078,17.9751482 4.32495125,17.9630254 C4.50378422,17.9757543 4.68383781,17.9757543 4.86267094,17.9630254 C5.8117675,19.1280307 7.24060062,19.8056978 8.75,19.8056978 C10.2593994,19.8056978 11.6882325,19.1280307 12.6373291,17.9630254 C12.8161622,17.9757543 12.9962158,17.9757543 13.1750488,17.9630254 C13.3666992,17.9751482 13.5583497,17.9751482 13.75,17.9630254 L13.75,15.4802667 Z" id="Path" fill-opacity="0.0931838768" fill="#000000"></path>
                    <g id="Path" fill-rule="nonzero">
                        <use fill="black" fill-opacity="1" filter="url(#filter-7)" xlink:href="#path-6"></use>
                        <use fill="#FFFFFF" xlink:href="#path-6"></use>
                    </g>
                </g>
            </g>
        </g>
    </g>
</svg>