<?xml version="1.0" encoding="UTF-8"?>
<svg width="43px" height="36px" viewBox="0 0 43 36" version="1.1" xmlns="http://www.w3.org/2000/svg" xmlns:xlink="http://www.w3.org/1999/xlink">
    <!-- Generator: Sketch 52.6 (67491) - http://www.bohemiancoding.com/sketch -->
    <desc>Created with Sketch.</desc>
    <g id="Page-1" stroke="none" stroke-width="1" fill="none" fill-rule="evenodd">
        <g id="respect" transform="translate(1.000000, 1.000000)" fill="#FF7979" stroke="#FF7876" stroke-width="0.4">
            <path d="M37.4573437,3.59953052 C37.3075977,3.45028169 37.1017969,3.36560094 36.8911113,3.36560094 C36.6797051,3.36560094 36.4739043,3.45028169 36.3240781,3.59953052 C36.1752129,3.74790141 36.09025,3.95309859 36.09025,4.16380282 C36.09025,4.37370892 36.1752129,4.57970423 36.3240781,4.72815493 C36.4738242,4.87660563 36.679625,4.96200469 36.8911113,4.96200469 C37.1017168,4.96200469 37.3075977,4.87668545 37.4573437,4.72815493 C37.6062891,4.57970423 37.6911719,4.37378873 37.6911719,4.16380282 C37.6911719,3.95309859 37.6062891,3.74790141 37.4573437,3.59953052 Z" id="Path"></path>
            <path d="M19.0642793,22.3973803 C18.9146133,22.2481315 18.7087324,22.1634507 18.4980469,22.1634507 C18.2866406,22.1634507 18.0807598,22.2481315 17.9310137,22.3973803 C17.7821484,22.5457512 17.6971855,22.7509484 17.6971855,22.9616526 C17.6971855,23.1715587 17.7821484,23.3774742 17.9310137,23.5260047 C18.0807598,23.6744554 18.2865605,23.7598545 18.4980469,23.7598545 C18.7086523,23.7598545 18.9145332,23.6745352 19.0642793,23.5260047 C19.2132246,23.377554 19.2981074,23.1716385 19.2981074,22.9616526 C19.2981875,22.7509484 19.2133047,22.5457512 19.0642793,22.3973803 Z" id="Path"></path>
            <path d="M39.3970762,6.25033333 C39.1784629,5.86707512 38.6893457,5.73315023 38.3050508,5.95103756 C37.9205957,6.16892488 37.7861445,6.65625822 38.0048379,7.03943662 C40.3836387,11.2086667 39.665498,16.4922347 36.258334,19.8880047 L35.6511016,20.4932207 C35.5043984,20.1095634 35.2771367,19.7496901 34.9674746,19.4411362 L26.7389668,11.2400329 C27.2770918,10.9761737 27.7742969,10.6241221 28.2108027,10.1890657 L29.7889824,8.61604695 C30.1016875,8.30438028 30.1016875,7.79892958 29.7889824,7.48726291 C29.4761973,7.17559624 28.9692227,7.17559624 28.6563574,7.48726291 L27.0781777,9.06028169 C26.3367344,9.7991831 25.3510527,10.2061455 24.3025898,10.2061455 L21.147752,10.2061455 C20.9353848,10.2061455 20.7317461,10.2902676 20.5814395,10.4399155 L18.1662832,12.8470516 C17.4491035,13.5619296 16.282125,13.5619296 15.5649453,12.8470516 C14.8476855,12.1322535 14.8476855,10.9691502 15.5649453,10.2543521 L21.0788047,4.75888263 C24.4484121,1.40038498 29.7089844,0.661802817 33.8710449,2.96278873 C34.2578223,3.17644601 34.7453379,3.03749296 34.9598672,2.65192019 C35.1743965,2.26642723 35.0347402,1.78053052 34.6479629,1.56671362 C32.3522832,0.297779343 29.6475645,-0.210065728 27.0315723,0.137197183 C24.5834238,0.462112676 22.3425977,1.48378873 20.5057656,3.10493427 C18.2492441,1.11114554 15.3766016,0.0208309859 12.3352344,0.0208309859 C9.04033984,0.0208309859 5.94275781,1.29966197 3.61288477,3.62171831 C1.28301172,5.94377465 0,9.03130986 0,12.3151831 C0,15.5991362 1.2830918,18.6864319 3.61288477,21.0085681 L3.91469922,21.3093803 C3.96723047,21.3616573 4.02552734,21.4044366 4.08710742,21.4391549 C4.14067969,22.1296901 4.43096289,22.8052207 4.95971875,23.3321408 C5.54821289,23.9186009 6.32080664,24.2116714 7.09364063,24.2116714 C7.13375977,24.2116714 7.17395898,24.2103944 7.21407813,24.2087981 C7.21247656,24.2491831 7.21111523,24.2895681 7.21111523,24.3301925 C7.21111523,25.1335822 7.52502148,25.8889249 8.09501758,26.4570282 C8.68351172,27.0434883 9.45610547,27.3366385 10.2289395,27.3365587 C10.2690586,27.3365587 10.3092578,27.3352817 10.349377,27.3336854 C10.3477754,27.3740704 10.3464141,27.4144554 10.3464141,27.4550798 C10.3464141,28.2584695 10.6603203,29.0138122 11.2303965,29.5819155 C11.8188105,30.1682958 12.5915645,30.461446 13.3643184,30.461446 C13.404918,30.461446 13.4455176,30.460169 13.4861172,30.4585728 C13.4536055,31.2687465 13.7464512,32.0896948 14.3656953,32.7069624 C14.9357715,33.2750657 15.6936309,33.5879296 16.4996172,33.5879296 C17.3057637,33.5879296 18.063623,33.2750657 18.6335391,32.7069624 L19.752791,31.5913474 L21.2645859,33.0979624 C21.834582,33.6661455 22.5924414,33.9790094 23.3985078,33.9790094 C24.2045742,33.9790094 24.9624336,33.6661455 25.5324297,33.0980423 C26.1591211,32.4734319 26.4518867,31.6401127 26.4110469,30.8204413 C26.4613359,30.8229155 26.5117852,30.8243521 26.5621543,30.8243521 C27.3349883,30.8243521 28.1079023,30.5312019 28.6962363,29.9447418 C29.3151602,29.3278732 29.6080059,28.5075634 29.5758145,27.6977887 C29.616334,27.699385 29.6568535,27.7007418 29.6976133,27.7007418 C30.5036797,27.7007418 31.2615391,27.3878779 31.8315352,26.8197746 C32.450459,26.2029061 32.7433047,25.3825962 32.7111133,24.5728216 C32.7516328,24.5744178 32.7921523,24.5757746 32.8329121,24.5757746 C33.6389785,24.5757746 34.3968379,24.2629108 34.966834,23.6948075 C35.2563164,23.4062864 35.4742891,23.0729906 35.6213125,22.7172676 C35.6992285,22.6794366 35.7725,22.6290751 35.8372832,22.5645869 L37.3903184,21.0167089 C41.3062188,17.1146103 42.1311836,11.042338 39.3970762,6.25033333 Z M7.0937207,22.6167042 C6.71543164,22.6167042 6.35980469,22.4699296 6.09226367,22.203277 C5.82480273,21.9367042 5.67745898,21.5822582 5.67745898,21.2052254 C5.67745898,20.8282723 5.82472266,20.4737465 6.09226367,20.2071737 L7.47233008,18.8316901 C7.73979102,18.5650376 8.09549805,18.4182629 8.47378711,18.4182629 C8.85199609,18.4182629 9.20770313,18.5650376 9.47516406,18.8316901 C10.0273828,19.3820751 10.0273828,20.2774883 9.47516406,20.8277934 L8.09509766,22.2033568 C7.82763672,22.4698498 7.47208984,22.6167042 7.0937207,22.6167042 Z M9.22780273,25.3283239 C8.96026172,25.0617512 8.81299805,24.7072254 8.81299805,24.3302723 C8.81299805,23.9532394 8.96026172,23.5987934 9.22780273,23.3322207 L10.6079492,21.9566573 C10.6079492,21.9566573 10.6079492,21.9566573 10.6079492,21.9565775 C10.8754102,21.6900047 11.2310371,21.5431502 11.6093262,21.5431502 C11.9875352,21.5431502 12.3432422,21.6899249 12.6107031,21.9565775 C13.1629219,22.5069624 13.1629219,23.4023756 12.6107031,23.9526808 L11.2306367,25.3282441 C10.6783379,25.8785493 9.77970117,25.8785493 9.22780273,25.3283239 Z M12.3631016,28.4532113 C12.0955605,28.1866385 11.9482969,27.8321127 11.9482969,27.4551596 C11.9482969,27.0781268 12.0955605,26.7236808 12.3631016,26.457108 L13.743248,25.0815446 C13.743248,25.0815446 13.743248,25.0815446 13.743248,25.0814648 C14.010709,24.814892 14.3663359,24.6680376 14.744625,24.6680376 C15.1229141,24.6680376 15.478541,24.8148122 15.746002,25.0814648 C16.2982207,25.6319296 16.2982207,26.5273427 15.746002,27.0776479 L14.3658555,28.4532113 C13.8137168,29.0035962 12.9153203,29.0035962 12.3631016,28.4532113 Z M18.8813809,30.2026948 L17.5012344,31.578338 C17.2337734,31.8449108 16.8781465,31.9917653 16.4998574,31.9917653 C16.1216484,31.9917653 15.7659414,31.8449906 15.4984805,31.578338 C14.9462617,31.0278732 14.9462617,30.1324601 15.4984805,29.5821549 L16.878627,28.2065915 C16.878627,28.2065915 16.878627,28.2065915 16.878627,28.2065117 C17.1460879,27.939939 17.5017148,27.7930845 17.8800039,27.7930845 C18.2582129,27.7930845 18.6139199,27.9398592 18.8813809,28.2065117 C19.1489219,28.4730845 19.2961855,28.8276103 19.2961855,29.2045634 C19.2962656,29.5817559 19.1489219,29.9361221 18.8813809,30.2026948 Z M33.8348496,22.5660235 C33.5673887,22.8326761 33.2116816,22.9794507 32.8334727,22.9794507 C32.4551836,22.9794507 32.0995566,22.8326761 31.8320957,22.5660235 L28.4986836,19.2436808 C28.4985234,19.2435211 28.4984434,19.2434413 28.4982832,19.2432817 L25.3632246,16.1186338 C25.0504395,15.8069671 24.5434648,15.8069671 24.2305996,16.1186338 C23.9178945,16.4303005 23.9178945,16.9357512 24.2305996,17.2474178 L30.6994707,23.6946479 C31.2516895,24.2451127 31.2516895,25.1405258 30.6994707,25.690831 C30.4320098,25.9574836 30.0763027,26.1042582 29.6980937,26.1042582 C29.3198047,26.1042582 28.9641777,25.9574836 28.6967168,25.690831 L22.2278457,19.2435211 C21.9150605,18.9319343 21.4080859,18.9319343 21.0952207,19.2435211 C20.7825156,19.5551878 20.7825156,20.0606385 21.0952207,20.372385 L24.229959,23.4966338 C24.2301992,23.4968732 24.2304395,23.4971925 24.2306797,23.4974319 L27.5641719,26.8196948 C28.1163906,27.3701596 28.1163906,28.2656526 27.564252,28.8159577 C27.0119531,29.3663427 26.1133965,29.3663427 25.561418,28.8159577 L22.2279258,25.4935352 C22.1662656,25.4321596 22.096998,25.3833146 22.0232461,25.3461221 L21.0724785,24.3985117 C20.7596934,24.0869249 20.2527187,24.0869249 19.9398535,24.3985117 C19.6271484,24.7101784 19.6271484,25.2156291 19.9398535,25.5273756 L24.4003652,29.9729155 C24.952584,30.5233803 24.952584,31.4187934 24.4003652,31.9690986 C24.1329043,32.2357512 23.7771973,32.3825258 23.3989883,32.3825258 C23.0206992,32.3825258 22.6650723,32.2357512 22.3976113,31.9690986 L20.7002754,30.2774789 C20.8296016,29.9393146 20.8979883,29.5772066 20.8979883,29.2044836 C20.8979883,28.4010939 20.584082,27.6457512 20.0140859,27.0776479 C19.4440098,26.5095446 18.6861504,26.1966808 17.8801641,26.1966808 C17.8394043,26.1966808 17.7988848,26.1980376 17.7583652,26.1996338 C17.7904766,25.3898592 17.4977109,24.5695493 16.8787871,23.9526808 C16.3087109,23.3845775 15.5508516,23.0717136 14.7448652,23.0717136 C14.7041055,23.0717136 14.6635859,23.0730704 14.6230664,23.0746667 C14.6552578,22.264892 14.3624121,21.4445822 13.7434883,20.8277136 C13.1734121,20.2596103 12.4155527,19.9467465 11.6095664,19.9467465 C11.5688066,19.9467465 11.5282871,19.9481033 11.4877676,19.9496995 C11.519959,19.1399249 11.2271133,18.319615 10.6081895,17.7027465 C9.43152148,16.5299859 7.51677344,16.5300657 6.34010547,17.7027465 L4.96003906,19.07823 C4.78594922,19.2517418 4.63836523,19.441615 4.51568555,19.6425822 C2.63457031,17.6511878 1.60204297,15.0623192 1.60204297,12.3150235 C1.60204297,9.45750704 2.71849219,6.77094836 4.74591016,4.75042254 C6.77316797,2.72989671 9.46875781,1.61707512 12.3357148,1.61707512 C14.9411367,1.61707512 17.4048203,2.53619249 19.354082,4.22038967 L14.4327207,9.12540845 C13.7828066,9.77324413 13.4248574,10.6344977 13.4248574,11.5505822 C13.4248574,12.4667465 13.7828066,13.328 14.4327207,13.9758357 C15.1036152,14.6444225 15.984875,14.9787559 16.8660547,14.9787559 C17.7472344,14.9787559 18.6284941,14.6445023 19.2993887,13.9758357 L21.4800762,11.8023897 L24.3030703,11.8023897 C24.5361777,11.8023897 24.7667227,11.786507 24.9944648,11.7583333 L33.8353301,20.5696808 C34.3869883,21.1203052 34.3869883,22.0157981 33.8348496,22.5660235 Z" id="Shape" fill-rule="nonzero"></path>
        </g>
    </g>
</svg>