<?xml version="1.0" encoding="UTF-8"?>
<svg width="195px" height="203px" viewBox="0 0 195 203" version="1.1" xmlns="http://www.w3.org/2000/svg" xmlns:xlink="http://www.w3.org/1999/xlink">
    <!-- Generator: Sketch 57.1 (83088) - https://sketch.com -->
    <title>fund-card/globetrotter</title>
    <desc>Created with Sketch.</desc>
    <defs>
        <rect id="path-1" x="0" y="0" width="174.98631" height="182.736" rx="3.888"></rect>
        <filter x="-9.4%" y="-7.4%" width="118.9%" height="118.1%" filterUnits="objectBoundingBox" id="filter-3">
            <feOffset dx="0" dy="3" in="SourceAlpha" result="shadowOffsetOuter1"></feOffset>
            <feGaussianBlur stdDeviation="5" in="shadowOffsetOuter1" result="shadowBlurOuter1"></feGaussianBlur>
            <feColorMatrix values="0 0 0 0 0   0 0 0 0 0   0 0 0 0 0  0 0 0 0.1 0" type="matrix" in="shadowBlurOuter1"></feColorMatrix>
        </filter>
        <linearGradient x1="50%" y1="0%" x2="50%" y2="100%" id="linearGradient-4">
            <stop stop-color="#039775" offset="0%"></stop>
            <stop stop-color="#50B848" offset="100%"></stop>
        </linearGradient>
    </defs>
    <g id="Page-1" stroke="none" stroke-width="1" fill="none" fill-rule="evenodd">
        <g id="invest-in-your-goals" transform="translate(-584.000000, -4259.000000)">
            <g id="Funds" transform="translate(218.000000, 4115.000000)">
                <g transform="translate(0.000000, 151.000000)" id="fund-card/globetrotter">
                    <g transform="translate(375.982456, 0.000000)">
                        <g>
                            <g id="Header-bg">
                                <mask id="mask-2" fill="white">
                                    <use xlink:href="#path-1"></use>
                                </mask>
                                <g id="Mask" fill-rule="nonzero">
                                    <use fill="black" fill-opacity="1" filter="url(#filter-3)" xlink:href="#path-1"></use>
                                    <use fill="#FFFFFF" xlink:href="#path-1"></use>
                                </g>
                                <rect fill="#FFD9C8" fill-rule="nonzero" mask="url(#mask-2)" x="0" y="0" width="174.98631" height="70.632"></rect>
                                <g id="logo-OM-mark" mask="url(#mask-2)">
                                    <g transform="translate(146.470022, 0.000000)">
                                        <g>
                                            <rect id="Rectangle" fill="url(#linearGradient-4)" fill-rule="nonzero" x="-1.13686838e-13" y="0" width="18.7948259" height="34.992"></rect>
                                            <path d="M6.01308785,27.1330878 C5.89475071,26.9235652 5.96475709,26.6653829 6.17389748,26.5460237 C6.38274496,26.429813 6.64109486,26.5005126 6.76177531,26.7051693 C6.88099119,26.9078223 6.8086415,27.1705843 6.60389482,27.2842189 C6.53447426,27.3237191 6.46241749,27.345759 6.38889615,27.345759 C6.24038889,27.345759 6.09715409,27.2656137 6.01308785,27.1330878 M7.50226119,25.8622127 C7.31948303,25.5333308 6.6185405,25.6409545 6.84613446,26.1098044 C6.56757351,25.9555247 6.21724871,25.9469377 5.9222846,26.1158153 C5.47881323,26.3714214 5.3244477,26.9390217 5.57869681,27.3786758 C5.83997584,27.8229096 6.40940011,27.9680298 6.8534573,27.7184346 C7.14842142,27.549557 7.31831137,27.2421426 7.31948303,26.9275724 C7.61884084,27.3583533 8.06494843,26.8070683 7.8698679,26.4884908 C8.05030275,26.3508127 8.40765748,26.1295545 8.73220588,25.9340572 C8.74890196,25.6950526 8.75973977,25.4514682 8.76530513,25.2070251 C8.37221492,25.4271384 7.78697332,25.7411361 7.50226119,25.8622127 M10.1036279,20.4655733 C10.4896882,20.6367407 10.9038682,20.9132419 11.2925647,21.3008016 C11.6572423,21.6614553 11.9419544,22.0407142 12.1156522,22.3979332 C11.9753466,22.9572327 11.0348006,23.758113 9.98206871,24.4605291 C9.97943249,24.5976347 9.97943249,24.7267259 9.97943249,24.8297698 C9.97943249,24.9651581 9.97943249,25.097684 9.98206871,25.2359346 C11.2313457,24.5976347 12.5854858,24.092147 13.2014834,24.2667493 C13.4270269,24.5976347 13.6194712,25.0295605 13.7524541,25.5210228 C13.891881,26.0494092 13.9323031,26.5408715 13.888366,26.9544783 C14.1370498,27.2753457 14.4094595,27.5220786 14.6640016,27.6838003 C14.8160238,26.896373 14.9062412,26.0637208 14.9062412,25.2035903 C14.9062412,24.1625604 14.7890757,23.1641792 14.5693904,22.2427948 C13.8696196,21.5896108 13.056784,20.9885212 12.1446507,20.471298 C11.3918624,20.0402309 10.6162269,19.7044794 9.85640873,19.44 C9.86607488,19.740831 9.95101986,20.0943289 10.1036279,20.4655733 M12.160468,27.2842189 C11.9522064,27.1705843 11.8807354,26.9078223 12.0020017,26.7051693 C12.116531,26.5005126 12.3819108,26.429813 12.5872433,26.5460237 C12.7975554,26.6653829 12.866683,26.9235652 12.7483459,27.1330878 C12.6666229,27.2656137 12.5239739,27.345759 12.3751738,27.345759 C12.2978446,27.345759 12.2269594,27.3237191 12.160468,27.2842189 M10.015168,25.9254702 C10.3482109,26.1232573 10.7058585,26.3502402 10.8939091,26.4884908 C10.6982427,26.8070683 11.1434716,27.3583533 11.4396074,26.9275724 C11.4463444,27.2421426 11.6109619,27.549557 11.9047543,27.7184346 C12.0186978,27.7796884 12.1426003,27.8229096 12.2612303,27.833214 L12.4817944,27.833214 C12.7618199,27.7991523 13.0257351,27.6411516 13.1815652,27.3786758 C13.4422584,26.9390217 13.2870142,26.3754287 12.8403208,26.1158153 C12.5424275,25.9469377 12.1964964,25.9555247 11.9199859,26.1098044 C12.1446507,25.6409545 11.4434152,25.5333308 11.2618087,25.8622127 C10.9697738,25.7371288 10.3769164,25.4259934 9.98206871,25.2035903 C9.9882199,25.4440261 10.0005223,25.6853206 10.015168,25.9254702 M6.6185405,20.471298 C5.70845758,20.9885212 4.89357162,21.5896108 4.19643698,22.2427948 C4.04412185,22.8793773 3.9407233,23.5583223 3.88858466,24.2575898 L3.88858466,26.1140979 C3.92754219,26.6550785 3.99989187,27.1780264 4.09801797,27.6838003 C4.36076157,27.5220786 4.6261414,27.2753457 4.87277475,26.9544783 C4.82854478,26.5408715 4.87013853,26.0494092 5.01132294,25.5210228 C5.14371994,25.0295605 5.33059889,24.5976347 5.5593645,24.2667493 C6.17389748,24.092147 7.52159349,24.5976347 8.76530513,25.2279201 C8.76530513,25.0908144 8.77057758,24.9651581 8.77057758,24.8297698 C8.77057758,24.7221462 8.77057758,24.593055 8.76530513,24.4525146 C7.71725985,23.7535333 6.78872337,22.9572327 6.65017518,22.3979332 C6.82533759,22.0407142 7.10858515,21.658593 7.47209107,21.3008016 C7.8613734,20.9132419 8.27233135,20.6367407 8.65839163,20.4655733 C8.81070676,20.0943289 8.89770213,19.740831 8.90795411,19.44 C8.14257057,19.7044794 7.37103584,20.0402309 6.6185405,20.471298 M8.94544707,21.7802421 C8.94544707,21.5429548 9.1340835,21.3514648 9.37280818,21.3514648 C9.61329034,21.3514648 9.80368426,21.5429548 9.80368426,21.7802421 C9.80368426,22.0163844 9.61329034,22.2073019 9.37280818,22.2073019 C9.1361339,22.2073019 8.94544707,22.0163844 8.94544707,21.7802421 M8.44602918,21.7802421 C8.44602918,22.1197146 8.62529238,22.4093825 8.89770213,22.5731078 C8.37514406,22.6134667 8.62734277,23.2689406 9.01076683,23.2626434 C9.04738104,23.6066957 9.067885,24.3964129 9.067885,24.8297698 C9.067885,26.4435522 8.84439184,28.4105463 8.28756286,28.9446573 C7.8848065,28.9778603 7.41057919,28.9214724 6.91409044,28.7918088 C6.38274496,28.6501234 5.92784996,28.4363072 5.59334249,28.1938678 C5.18794991,28.245676 4.83645345,28.3498648 4.56316495,28.4898328 C5.17886958,29.0142119 5.86018689,29.5085365 6.61502554,29.9367413 C7.4940596,30.4402254 8.40121338,30.832651 9.29108525,31.104 L9.45599568,31.104 C10.3502613,30.832651 11.2518497,30.4402254 12.1343987,29.9367413 C12.8892373,29.5085365 13.5711405,29.0142119 14.180401,28.4898328 C13.9135566,28.3532996 13.5620602,28.245676 13.1581321,28.1938678 C12.8154231,28.4363072 12.3681438,28.6501234 11.8324047,28.7918088 C11.3379663,28.9214724 10.8605169,28.9778603 10.463033,28.9446573 C9.90356783,28.4105463 9.6786101,26.4435522 9.6786101,24.8297698 C9.6786101,24.3964129 9.69794241,23.6066957 9.73924324,23.2626434 C10.1159303,23.2689406 10.3742802,22.6134667 9.84908588,22.5731078 C10.1241319,22.4093825 10.3089604,22.1197146 10.3089604,21.7802421 C10.3089604,21.2698884 9.89038672,20.8554228 9.37280818,20.8554228 C8.85815878,20.8554228 8.44602918,21.2698884 8.44602918,21.7802421" id="Fill-14" fill="#FFFFFF"></path>
                                        </g>
                                    </g>
                                </g>
                                <g id="Time" mask="url(#mask-2)">
                                    <g transform="translate(68.698329, 46.656000)">
                                        <rect id="Rectangle-2" fill="#5C5C5C" fill-rule="nonzero" x="0" y="0" width="88.7893498" height="12.96" rx="6.48"></rect>
                                        <text id="Best-for-5+-year-goa" fill="none" font-family="ProximaNova-Regular, Proxima Nova" font-size="7.776" font-weight="normal">
                                            <tspan x="7.31093089" y="8.648" fill="#FFFFFF">Best for 5+ year goals</tspan>
                                        </text>
                                    </g>
                                </g>
                                <g id="Risk" mask="url(#mask-2)">
                                    <g transform="translate(17.498631, 46.656000)">
                                        <rect id="Rectangle-2" fill="#F8966C" fill-rule="nonzero" x="0" y="0" width="44.7187236" height="12.96" rx="6.48"></rect>
                                        <text id="High-Risk" fill="none" font-family="ProximaNova-Regular, Proxima Nova" font-size="7.776" font-weight="normal">
                                            <tspan x="6.2785938" y="8.648" fill="#FFFFFF">High Risk</tspan>
                                        </text>
                                    </g>
                                </g>
                                <text id="Fund-Actual" mask="url(#mask-2)" font-family="ProximaNova-Regular, Proxima Nova" font-size="7.128" font-weight="normal" fill="#333333">
                                    <tspan x="40.8301389" y="29.032">Old Mutual FTSE RAFI All </tspan>
                                    <tspan x="40.8301389" y="37.032">world Index Feeder Fund</tspan>
                                </text>
                                <text id="Fund-name" mask="url(#mask-2)" font-family="ProximaNova-Bold, Proxima Nova" font-size="9.72" font-weight="bold" fill="#333333">
                                    <tspan x="40.8301389" y="19.72">Globetrotter</tspan>
                                </text>
                                <g id="icon/fund/globetrotter" mask="url(#mask-2)">
                                    <g transform="translate(8.425267, 8.424000)">
                                        <g>
                                            <path d="M12.959791,0 C5.80245486,0 0,5.80203693 0,12.960209 C0,20.1175451 5.80245486,25.92 12.959791,25.92 C20.1175451,25.92 25.92,20.1175451 25.92,12.960209 C25.92,5.80203693 20.1175451,0 12.959791,0 Z" id="Shape" fill="#F8966C" fill-rule="nonzero"></path>
                                            <g id="earth-globe" transform="translate(5.184000, 4.536000)" fill-rule="nonzero">
                                                <path d="M12.4279616,13.5494452 C12.3183321,13.3576024 12.057984,13.289097 11.8661412,13.3987264 C8.34456999,15.4267142 3.83636875,14.234603 1.80838099,10.754121 C-0.205898738,7.27363909 1.01362856,2.79285391 4.53519979,0.764866148 C4.72704258,0.655236725 4.79554792,0.394888591 4.6859185,0.203045799 C4.57628907,0.0112030067 4.31594094,-0.0573023356 4.12409815,0.0523270872 C0.205168107,2.31324693 -1.15140467,7.30102035 1.09584193,11.1651879 C2.493504,13.5768612 4.94630142,14.9882313 7.54981756,15.1800741 L7.54981756,16.30368 L5.97402072,16.30368 C5.63145922,16.30368 5.35740306,16.5777362 5.35740306,16.9202977 C5.35740306,17.2628592 5.63145922,17.5369153 5.97402072,17.5369153 L9.94778287,17.5369153 C10.2903444,17.5369153 10.5644005,17.2628592 10.5644005,16.9202977 C10.5644005,16.5777362 10.2903444,16.30368 9.94778287,16.30368 L8.26235662,16.30368 L8.37198604,16.30368 L8.37198604,15.2074554 C9.70114277,15.1800393 11.0440075,14.8237698 12.2772428,14.1112307 C12.4690508,13.9879281 12.537591,13.7412879 12.4279616,13.5494452 Z" id="Shape" fill="#333333"></path>
                                                <path d="M8.23494056,0.545607302 C11.8661412,0.545607302 14.8122188,3.49168494 14.8122188,7.12288558 C14.8122188,10.7540862 11.8661412,13.7001639 8.23494056,13.7001639 C4.60373992,13.7001639 1.65766228,10.754121 1.65766228,7.12288558 C1.65766228,3.49165015 4.60373992,0.545607302 8.23494056,0.545607302 Z" id="Shape" fill="#46B7CD"></path>
                                                <path d="M13.1405006,11.5077494 C13.5926915,9.75381777 14.0037584,7.21880698 12.7020177,7.50657117 C11.4550744,7.78062733 9.90665879,8.08209954 9.16673847,8.19169417 C8.42681815,8.30128881 7.53610953,7.56136848 6.53584107,7.02696419 C6.39883039,6.46514384 6.38512236,6.16370642 7.16616677,5.58817804 C7.96091919,4.99897643 8.33089675,6.14999839 8.6460422,5.80743689 C9.16673847,5.17711119 8.81046894,4.58790958 9.48191871,3.21762878 C10.1533337,1.87476403 10.2218738,2.08031485 10.701446,1.02521428 C9.94778287,0.723742067 9.11194115,0.545607302 8.23497536,0.545607302 C5.68629133,0.545607302 3.48013401,1.99810148 2.38394416,4.1083026 C2.56207893,4.47828016 2.80871903,4.86196574 3.15128054,5.28674062 C4.2063811,6.56110003 5.31631377,7.0817963 7.05653734,8.15060489 C8.79676091,9.20570545 8.53641278,9.68531243 8.11163791,10.1648846 C7.68686303,10.6444916 7.02912129,12.6998954 8.27606464,13.3438943 L8.83788499,13.6864558 C10.5369845,13.5220291 12.057984,12.7136034 13.1405006,11.5077494 Z" id="Shape" fill="#B1D266"></path>
                                                <path d="M9.19411973,12.7409847 C5.56291909,12.7409847 2.61684145,9.79490706 2.61684145,6.16370642 C2.61684145,4.58790958 3.16495377,3.14912344 4.08304365,2.0118095 C2.60316821,3.23133681 1.65766228,5.06751656 1.65766228,7.12292038 C1.65766228,10.754121 4.60373992,13.7001987 8.23494056,13.7001987 C10.2903444,13.7001987 12.1401974,12.7547275 13.3460514,11.2748173 C12.2087027,12.1928724 10.7699166,12.7409847 9.19411973,12.7409847 Z" id="Shape" fill="#2D99AD"></path>
                                                <path d="M13.1542086,11.411828 C12.057984,12.2477045 10.687738,12.7409847 9.19411973,12.7409847 C8.65971544,12.7409847 8.13901917,12.6724794 7.64570416,12.5491419 C7.74162556,12.8779954 7.94717638,13.1520515 8.27602985,13.3301863 C8.4952887,13.467197 8.67342346,13.5768264 8.8378502,13.6727478 L8.87897428,13.6727478 L9.11190636,13.6453318 L9.20782776,13.6316237 L9.44075984,13.5904997 L9.52297321,13.5767916 C9.78332134,13.5219943 10.0436695,13.4534542 10.2903096,13.3712408 L10.372523,13.3438248 C10.4410283,13.3164087 10.5095336,13.3027007 10.5643657,13.2753194 L10.6877032,13.2341953 L10.865838,13.151982 C10.906962,13.1382739 10.9480513,13.1108579 11.0028486,13.0971846 L11.1672754,13.0149713 L11.3042861,12.9464659 L11.4550048,12.8642526 L11.6194315,12.7683312 C11.6742288,12.7409151 11.7153529,12.7135339 11.7701502,12.6724098 C11.8523636,12.6176125 11.9208689,12.5627803 12.0030823,12.5216911 L12.1127117,12.4394777 L12.2771385,12.3161402 L12.3867679,12.2339269 C12.4415652,12.1928028 12.4963973,12.1517135 12.5374866,12.1105894 C12.5649027,12.0831734 12.6059919,12.0557921 12.633408,12.014668 L12.7841267,11.8776573 C12.8115428,11.8502413 12.838924,11.82286 12.8800481,11.795444 L13.0444748,11.6310172 L13.1129802,11.5625119 L13.1266882,11.5488039 C13.1405006,11.4803333 13.1542086,11.439244 13.1542086,11.411828 L13.1542086,11.411828 Z M2.76756016,4.76604435 C2.98681901,3.75203307 3.45268317,2.82026996 4.08300886,2.02551753 L4.06930083,2.03922556 C3.98708746,2.1077309 3.91858212,2.16256301 3.85004199,2.23106835 L3.78153664,2.29957369 C3.72673933,2.35437101 3.65819919,2.40920311 3.60340188,2.47770846 L3.52118851,2.55992183 L3.35676177,2.72434856 C3.32934572,2.75176462 3.30196446,2.77914588 3.2745484,2.82026996 L3.11012166,3.02582078 C3.08270561,3.05323683 3.05532435,3.09432612 3.0279083,3.1354502 L2.91827887,3.27246089 L2.80864945,3.4231796 L2.69902003,3.58760634 C2.67160397,3.62873042 2.64422271,3.6698197 2.61680666,3.72461702 L2.53459329,3.84795447 L2.41125584,4.06721332 L2.37013176,4.13571866 C2.493504,4.32756145 2.61684145,4.53307748 2.76756016,4.76604435 Z" id="Shape" fill="#9CAE21"></path>
                                            </g>
                                        </g>
                                    </g>
                                </g>
                            </g>
                            <g id="Fund-info" transform="translate(12.961949, 82.944000)">
                                <text id="Low-fees" font-family="ProximaNova-Regular, Proxima Nova" font-size="7.776" font-weight="normal" fill="#32B1C9">
                                    <tspan x="11.0176565" y="39.4">Low fees</tspan>
                                </text>
                                <text id="Access-money-in-3-10" font-family="ProximaNova-Regular, Proxima Nova" font-size="7.776" font-weight="normal" fill="#333333">
                                    <tspan x="11.0176565" y="56.6">Access money in 3-10 working days</tspan>
                                </text>
                                <text id="Global-shares" font-family="ProximaNova-Regular, Proxima Nova" font-size="7.776" font-weight="normal" fill="#333333">
                                    <tspan x="11.0176565" y="8">Global shares</tspan>
                                </text>
                                <text id="More-ups-and-downs" font-family="ProximaNova-Regular, Proxima Nova" font-size="7.776" font-weight="normal" fill="#333333">
                                    <tspan x="11.0176565" y="24.2">More ups and downs</tspan>
                                </text>
                                <g id="list-bullet/dark" transform="translate(0.000000, 1.944000)" fill="#5C5C5C" fill-rule="nonzero">
                                    <path d="M2.268,4.536 C1.01541819,4.536 0,3.52058181 0,2.268 C0,1.01541819 1.01541819,0 2.268,0 C3.52058181,0 4.536,1.01541819 4.536,2.268 C4.536,3.52058181 3.52058181,4.536 2.268,4.536 Z M2.268,3.24 C2.80482078,3.24 3.24,2.80482078 3.24,2.268 C3.24,1.73117922 2.80482078,1.296 2.268,1.296 C1.73117922,1.296 1.296,1.73117922 1.296,2.268 C1.296,2.80482078 1.73117922,3.24 2.268,3.24 Z"></path>
                                </g>
                                <g id="list-bullet/dark" transform="translate(0.000000, 18.144000)" fill="#5C5C5C" fill-rule="nonzero">
                                    <path d="M2.268,4.536 C1.01541819,4.536 0,3.52058181 0,2.268 C0,1.01541819 1.01541819,0 2.268,0 C3.52058181,0 4.536,1.01541819 4.536,2.268 C4.536,3.52058181 3.52058181,4.536 2.268,4.536 Z M2.268,3.24 C2.80482078,3.24 3.24,2.80482078 3.24,2.268 C3.24,1.73117922 2.80482078,1.296 2.268,1.296 C1.73117922,1.296 1.296,1.73117922 1.296,2.268 C1.296,2.80482078 1.73117922,3.24 2.268,3.24 Z"></path>
                                </g>
                                <g id="list-bullet/dark" transform="translate(0.000000, 34.344000)" fill="#5C5C5C" fill-rule="nonzero">
                                    <path d="M2.268,4.536 C1.01541819,4.536 0,3.52058181 0,2.268 C0,1.01541819 1.01541819,0 2.268,0 C3.52058181,0 4.536,1.01541819 4.536,2.268 C4.536,3.52058181 3.52058181,4.536 2.268,4.536 Z M2.268,3.24 C2.80482078,3.24 3.24,2.80482078 3.24,2.268 C3.24,1.73117922 2.80482078,1.296 2.268,1.296 C1.73117922,1.296 1.296,1.73117922 1.296,2.268 C1.296,2.80482078 1.73117922,3.24 2.268,3.24 Z"></path>
                                </g>
                                <g id="list-bullet/dark" transform="translate(0.000000, 50.544000)" fill="#5C5C5C" fill-rule="nonzero">
                                    <path d="M2.268,4.536 C1.01541819,4.536 0,3.52058181 0,2.268 C0,1.01541819 1.01541819,0 2.268,0 C3.52058181,0 4.536,1.01541819 4.536,2.268 C4.536,3.52058181 3.52058181,4.536 2.268,4.536 Z M2.268,3.24 C2.80482078,3.24 3.24,2.80482078 3.24,2.268 C3.24,1.73117922 2.80482078,1.296 2.268,1.296 C1.73117922,1.296 1.296,1.73117922 1.296,2.268 C1.296,2.80482078 1.73117922,3.24 2.268,3.24 Z"></path>
                                </g>
                            </g>
                            <g id="Btn---Learn-more" transform="translate(7.129072, 153.576000)">
                                <path d="M1.944,0 L158.784166,0 C159.857808,2.48198511e-17 160.728166,0.870358446 160.728166,1.944 L160.728166,17.496 C160.728166,18.5696416 159.857808,19.44 158.784166,19.44 L1.944,19.44 C0.870358446,19.44 2.57397382e-15,18.5696416 0,17.496 L0,1.944 C9.05614357e-17,0.870358446 0.870358446,4.19269359e-16 1.944,0 Z" id="Path-Copy" stroke="#F8966C" stroke-width="0.648" fill-rule="nonzero"></path>
                                <text id="Fund-Fact-Sheet" font-family="ProximaNova-Semibold, Proxima Nova" font-size="8.424" font-weight="500" fill="#F8966C">
                                    <tspan x="49.586999" y="12.888">Fund Fact Sheet</tspan>
                                </text>
                            </g>
                        </g>
                    </g>
                </g>
            </g>
        </g>
    </g>
</svg>