<?xml version="1.0" encoding="UTF-8"?>
<svg width="195px" height="203px" viewBox="0 0 195 203" version="1.1" xmlns="http://www.w3.org/2000/svg" xmlns:xlink="http://www.w3.org/1999/xlink">
    <!-- Generator: Sketch 57.1 (83088) - https://sketch.com -->
    <title>fund-card/local-giants</title>
    <desc>Created with Sketch.</desc>
    <defs>
        <rect id="path-1" x="0" y="0" width="174.98631" height="182.736" rx="3.888"></rect>
        <filter x="-9.4%" y="-7.4%" width="118.9%" height="118.1%" filterUnits="objectBoundingBox" id="filter-3">
            <feOffset dx="0" dy="3" in="SourceAlpha" result="shadowOffsetOuter1"></feOffset>
            <feGaussianBlur stdDeviation="5" in="shadowOffsetOuter1" result="shadowBlurOuter1"></feGaussianBlur>
            <feColorMatrix values="0 0 0 0 0   0 0 0 0 0   0 0 0 0 0  0 0 0 0.1 0" type="matrix" in="shadowBlurOuter1"></feColorMatrix>
        </filter>
        <linearGradient x1="50%" y1="0%" x2="50%" y2="100%" id="linearGradient-4">
            <stop stop-color="#039775" offset="0%"></stop>
            <stop stop-color="#50B848" offset="100%"></stop>
        </linearGradient>
    </defs>
    <g id="Page-1" stroke="none" stroke-width="1" fill="none" fill-rule="evenodd">
        <g id="invest-in-your-goals" transform="translate(-772.000000, -4259.000000)">
            <g id="Funds" transform="translate(218.000000, 4115.000000)">
                <g transform="translate(0.000000, 151.000000)" id="fund-card/local-giants">
                    <g transform="translate(563.973684, 0.000000)">
                        <g>
                            <g id="Header-bg">
                                <mask id="mask-2" fill="white">
                                    <use xlink:href="#path-1"></use>
                                </mask>
                                <g id="Mask" fill-rule="nonzero">
                                    <use fill="black" fill-opacity="1" filter="url(#filter-3)" xlink:href="#path-1"></use>
                                    <use fill="#FFFFFF" xlink:href="#path-1"></use>
                                </g>
                                <rect fill="#FFD9C8" fill-rule="nonzero" mask="url(#mask-2)" x="0" y="0" width="174.98631" height="70.632"></rect>
                            </g>
                            <g id="logo-OM-mark" transform="translate(146.470022, 0.000000)">
                                <g>
                                    <rect id="Rectangle" fill="url(#linearGradient-4)" fill-rule="nonzero" x="-1.13686838e-13" y="0" width="18.7948259" height="34.992"></rect>
                                    <path d="M6.01308785,27.1330878 C5.89475071,26.9235652 5.96475709,26.6653829 6.17389748,26.5460237 C6.38274496,26.429813 6.64109486,26.5005126 6.76177531,26.7051693 C6.88099119,26.9078223 6.8086415,27.1705843 6.60389482,27.2842189 C6.53447426,27.3237191 6.46241749,27.345759 6.38889615,27.345759 C6.24038889,27.345759 6.09715409,27.2656137 6.01308785,27.1330878 M7.50226119,25.8622127 C7.31948303,25.5333308 6.6185405,25.6409545 6.84613446,26.1098044 C6.56757351,25.9555247 6.21724871,25.9469377 5.9222846,26.1158153 C5.47881323,26.3714214 5.3244477,26.9390217 5.57869681,27.3786758 C5.83997584,27.8229096 6.40940011,27.9680298 6.8534573,27.7184346 C7.14842142,27.549557 7.31831137,27.2421426 7.31948303,26.9275724 C7.61884084,27.3583533 8.06494843,26.8070683 7.8698679,26.4884908 C8.05030275,26.3508127 8.40765748,26.1295545 8.73220588,25.9340572 C8.74890196,25.6950526 8.75973977,25.4514682 8.76530513,25.2070251 C8.37221492,25.4271384 7.78697332,25.7411361 7.50226119,25.8622127 M10.1036279,20.4655733 C10.4896882,20.6367407 10.9038682,20.9132419 11.2925647,21.3008016 C11.6572423,21.6614553 11.9419544,22.0407142 12.1156522,22.3979332 C11.9753466,22.9572327 11.0348006,23.758113 9.98206871,24.4605291 C9.97943249,24.5976347 9.97943249,24.7267259 9.97943249,24.8297698 C9.97943249,24.9651581 9.97943249,25.097684 9.98206871,25.2359346 C11.2313457,24.5976347 12.5854858,24.092147 13.2014834,24.2667493 C13.4270269,24.5976347 13.6194712,25.0295605 13.7524541,25.5210228 C13.891881,26.0494092 13.9323031,26.5408715 13.888366,26.9544783 C14.1370498,27.2753457 14.4094595,27.5220786 14.6640016,27.6838003 C14.8160238,26.896373 14.9062412,26.0637208 14.9062412,25.2035903 C14.9062412,24.1625604 14.7890757,23.1641792 14.5693904,22.2427948 C13.8696196,21.5896108 13.056784,20.9885212 12.1446507,20.471298 C11.3918624,20.0402309 10.6162269,19.7044794 9.85640873,19.44 C9.86607488,19.740831 9.95101986,20.0943289 10.1036279,20.4655733 M12.160468,27.2842189 C11.9522064,27.1705843 11.8807354,26.9078223 12.0020017,26.7051693 C12.116531,26.5005126 12.3819108,26.429813 12.5872433,26.5460237 C12.7975554,26.6653829 12.866683,26.9235652 12.7483459,27.1330878 C12.6666229,27.2656137 12.5239739,27.345759 12.3751738,27.345759 C12.2978446,27.345759 12.2269594,27.3237191 12.160468,27.2842189 M10.015168,25.9254702 C10.3482109,26.1232573 10.7058585,26.3502402 10.8939091,26.4884908 C10.6982427,26.8070683 11.1434716,27.3583533 11.4396074,26.9275724 C11.4463444,27.2421426 11.6109619,27.549557 11.9047543,27.7184346 C12.0186978,27.7796884 12.1426003,27.8229096 12.2612303,27.833214 L12.4817944,27.833214 C12.7618199,27.7991523 13.0257351,27.6411516 13.1815652,27.3786758 C13.4422584,26.9390217 13.2870142,26.3754287 12.8403208,26.1158153 C12.5424275,25.9469377 12.1964964,25.9555247 11.9199859,26.1098044 C12.1446507,25.6409545 11.4434152,25.5333308 11.2618087,25.8622127 C10.9697738,25.7371288 10.3769164,25.4259934 9.98206871,25.2035903 C9.9882199,25.4440261 10.0005223,25.6853206 10.015168,25.9254702 M6.6185405,20.471298 C5.70845758,20.9885212 4.89357162,21.5896108 4.19643698,22.2427948 C4.04412185,22.8793773 3.9407233,23.5583223 3.88858466,24.2575898 L3.88858466,26.1140979 C3.92754219,26.6550785 3.99989187,27.1780264 4.09801797,27.6838003 C4.36076157,27.5220786 4.6261414,27.2753457 4.87277475,26.9544783 C4.82854478,26.5408715 4.87013853,26.0494092 5.01132294,25.5210228 C5.14371994,25.0295605 5.33059889,24.5976347 5.5593645,24.2667493 C6.17389748,24.092147 7.52159349,24.5976347 8.76530513,25.2279201 C8.76530513,25.0908144 8.77057758,24.9651581 8.77057758,24.8297698 C8.77057758,24.7221462 8.77057758,24.593055 8.76530513,24.4525146 C7.71725985,23.7535333 6.78872337,22.9572327 6.65017518,22.3979332 C6.82533759,22.0407142 7.10858515,21.658593 7.47209107,21.3008016 C7.8613734,20.9132419 8.27233135,20.6367407 8.65839163,20.4655733 C8.81070676,20.0943289 8.89770213,19.740831 8.90795411,19.44 C8.14257057,19.7044794 7.37103584,20.0402309 6.6185405,20.471298 M8.94544707,21.7802421 C8.94544707,21.5429548 9.1340835,21.3514648 9.37280818,21.3514648 C9.61329034,21.3514648 9.80368426,21.5429548 9.80368426,21.7802421 C9.80368426,22.0163844 9.61329034,22.2073019 9.37280818,22.2073019 C9.1361339,22.2073019 8.94544707,22.0163844 8.94544707,21.7802421 M8.44602918,21.7802421 C8.44602918,22.1197146 8.62529238,22.4093825 8.89770213,22.5731078 C8.37514406,22.6134667 8.62734277,23.2689406 9.01076683,23.2626434 C9.04738104,23.6066957 9.067885,24.3964129 9.067885,24.8297698 C9.067885,26.4435522 8.84439184,28.4105463 8.28756286,28.9446573 C7.8848065,28.9778603 7.41057919,28.9214724 6.91409044,28.7918088 C6.38274496,28.6501234 5.92784996,28.4363072 5.59334249,28.1938678 C5.18794991,28.245676 4.83645345,28.3498648 4.56316495,28.4898328 C5.17886958,29.0142119 5.86018689,29.5085365 6.61502554,29.9367413 C7.4940596,30.4402254 8.40121338,30.832651 9.29108525,31.104 L9.45599568,31.104 C10.3502613,30.832651 11.2518497,30.4402254 12.1343987,29.9367413 C12.8892373,29.5085365 13.5711405,29.0142119 14.180401,28.4898328 C13.9135566,28.3532996 13.5620602,28.245676 13.1581321,28.1938678 C12.8154231,28.4363072 12.3681438,28.6501234 11.8324047,28.7918088 C11.3379663,28.9214724 10.8605169,28.9778603 10.463033,28.9446573 C9.90356783,28.4105463 9.6786101,26.4435522 9.6786101,24.8297698 C9.6786101,24.3964129 9.69794241,23.6066957 9.73924324,23.2626434 C10.1159303,23.2689406 10.3742802,22.6134667 9.84908588,22.5731078 C10.1241319,22.4093825 10.3089604,22.1197146 10.3089604,21.7802421 C10.3089604,21.2698884 9.89038672,20.8554228 9.37280818,20.8554228 C8.85815878,20.8554228 8.44602918,21.2698884 8.44602918,21.7802421" id="Fill-14" fill="#FFFFFF"></path>
                                </g>
                            </g>
                            <g id="icon/fund/local-giants" transform="translate(8.425267, 8.424000)">
                                <g>
                                    <path d="M12.959791,0 C5.80245486,0 0,5.80203693 0,12.960209 C0,20.1175451 5.80245486,25.92 12.959791,25.92 C20.1175451,25.92 25.92,20.1175451 25.92,12.960209 C25.92,5.80203693 20.1175451,0 12.959791,0 Z" id="Shape-Copy" fill="#F8966C" fill-rule="nonzero"></path>
                                    <g id="factory" transform="translate(7.128000, 6.480000)" fill-rule="nonzero">
                                        <rect id="Rectangle-path" fill="#D0DCE7" x="10.0067906" y="3.39764625" width="1.48852688" height="4.91315625"></rect>
                                        <g id="Group" transform="translate(9.998438, 3.391875)" fill="#91ADC1">
                                            <polygon id="Rectangle-path" points="0.008353125 0.00577125 1.49688 0.00577125 1.49688 0.832021875 0.008353125 0.832021875"></polygon>
                                            <polygon id="Rectangle-path" points="0.008353125 4.07019938 1.49682937 4.07019938 1.49682937 4.91877563 0.008353125 4.91877563"></polygon>
                                        </g>
                                        <path d="M12.3151641,12.6551109 L8.83780875,12.6551109 L8.83780875,8.41435594 L12.5237897,8.41435594 L12.5237897,12.4465106 C12.5237897,12.5617331 12.4303866,12.6551109 12.3151641,12.6551109 Z" id="Shape" fill="#D0DCE7"></path>
                                        <g id="Group" transform="translate(8.834063, 8.403750)" fill="#91ADC1">
                                            <path d="M3.68972719,1.50237281 L0.195842812,1.50237281 C0.087834375,1.50237281 0.0002784375,1.41481688 0.0002784375,1.30680844 C0.0002784375,1.1988 0.087834375,1.11124406 0.195842812,1.11124406 L3.68972719,1.11124406 C3.79773562,1.11124406 3.88529156,1.1988 3.88529156,1.30680844 C3.88529156,1.41481688 3.79773563,1.50237281 3.68972719,1.50237281 Z" id="Shape"></path>
                                            <path d="M3.68972719,2.33672344 L0.195842812,2.33672344 C0.087834375,2.33672344 0.0002784375,2.2491675 0.0002784375,2.14115906 C0.0002784375,2.03315063 0.087834375,1.94559469 0.195842812,1.94559469 L3.68972719,1.94559469 C3.79773562,1.94559469 3.88529156,2.03315063 3.88529156,2.14115906 C3.88529156,2.2491675 3.79773563,2.33672344 3.68972719,2.33672344 Z" id="Shape"></path>
                                            <path d="M3.68972719,3.17109938 L0.195842812,3.17109938 C0.087834375,3.17109938 0.0002784375,3.08354344 0.0002784375,2.975535 C0.0002784375,2.86752656 0.087834375,2.77997063 0.195842812,2.77997063 L3.68972719,2.77997063 C3.79773562,2.77997063 3.88529156,2.86752656 3.88529156,2.975535 C3.88529156,3.08354344 3.79773563,3.17109938 3.68972719,3.17109938 Z" id="Shape"></path>
                                            <polygon id="Rectangle-path" points="0.003796875 0.010580625 0.69406875 0.010580625 0.69406875 4.25143688 0.003796875 4.25143688"></polygon>
                                        </g>
                                        <path d="M12.7513997,8.89668562 L8.83780875,8.89668562 L8.83780875,7.88788125 L12.7513997,7.88788125 C12.8666222,7.88788125 12.96,7.98128438 12.96,8.09648156 L12.96,8.68806 C12.96,8.8032825 12.8665969,8.89668562 12.7513997,8.89668562 Z" id="Shape" fill="#4A4A4A"></path>
                                        <polygon id="Rectangle-path" fill="#000000" points="8.83785938 7.88783063 9.5266125 7.88783063 9.5266125 8.896635 8.83785938 8.896635"></polygon>
                                        <path d="M9.02988,5.34880969 L9.02988,12.6551363 L0.208600313,12.6551363 C0.0933778125,12.6551363 0,12.5617331 0,12.4465359 L0,7.85312719 L2.65201594,5.20111125 C2.78333719,5.06979 3.00790969,5.16263625 3.0081375,5.34837937 L3.01114969,7.8531525 L5.66255813,5.20174406 C5.79398063,5.07032156 6.01867969,5.16339562 6.01867969,5.34926531 L6.01867969,7.85317781 L8.67383438,5.2012125 C8.80528219,5.06991656 9.02988,5.16301594 9.02988,5.34880969 Z" id="Shape" fill="#4A4A4A"></path>
                                        <g id="Group" transform="translate(0.000000, 5.138438)" fill="#D0DCE7">
                                            <path d="M3.0081375,0.209941875 L3.01114969,2.714715 L0,2.714715 L2.65201594,0.0626990625 C2.7833625,-0.0686475 3.007935,0.02419875 3.0081375,0.209941875 Z" id="Shape"></path>
                                            <path d="M6.018705,0.2108025 L6.018705,2.714715 L3.011175,2.714715 L5.66258344,0.0633065625 C5.79400594,-0.06814125 6.018705,0.0249328125 6.018705,0.2108025 Z" id="Shape"></path>
                                            <path d="M9.02988,0.210372187 L9.02988,2.714715 L6.018705,2.714715 L8.67383438,0.062775 C8.80528219,-0.0685209375 9.02988,0.0245784375 9.02988,0.210372187 Z" id="Shape"></path>
                                        </g>
                                        <g id="Group" transform="translate(0.911250, 9.188438)" fill="#FFFFFF">
                                            <path d="M0.780764063,0.404949375 L0.199665,0.404949375 C0.0916565625,0.404949375 0.004100625,0.317393437 0.004100625,0.209385 C0.004100625,0.101376562 0.0916565625,0.013820625 0.199665,0.013820625 L0.780764063,0.013820625 C0.8887725,0.013820625 0.976328438,0.101376562 0.976328438,0.209385 C0.976328438,0.317393437 0.8887725,0.404949375 0.780764063,0.404949375 Z" id="Shape"></path>
                                            <path d="M0.780764063,0.935499375 L0.199665,0.935499375 C0.0916565625,0.935499375 0.004100625,0.847943438 0.004100625,0.739935 C0.004100625,0.631926563 0.0916565625,0.544370625 0.199665,0.544370625 L0.780764063,0.544370625 C0.8887725,0.544370625 0.976328438,0.631926563 0.976328438,0.739935 C0.976328438,0.847943438 0.8887725,0.935499375 0.780764063,0.935499375 Z" id="Shape"></path>
                                            <path d="M0.780764063,1.46604938 L0.199665,1.46604938 C0.0916565625,1.46604938 0.004100625,1.37849344 0.004100625,1.270485 C0.004100625,1.16245125 0.0916565625,1.07492063 0.199665,1.07492063 L0.780764063,1.07492063 C0.8887725,1.07492063 0.976328438,1.16247656 0.976328438,1.270485 C0.976328438,1.37849344 0.8887725,1.46604938 0.780764063,1.46604938 Z" id="Shape"></path>
                                            <path d="M3.8942775,0.404949375 L3.31317844,0.404949375 C3.20517,0.404949375 3.11761406,0.317393437 3.11761406,0.209385 C3.11761406,0.101376562 3.20517,0.013820625 3.31317844,0.013820625 L3.8942775,0.013820625 C4.00228594,0.013820625 4.08984187,0.101376562 4.08984187,0.209385 C4.08984187,0.317393437 4.00228594,0.404949375 3.8942775,0.404949375 Z" id="Shape"></path>
                                            <path d="M3.8942775,0.935499375 L3.31317844,0.935499375 C3.20517,0.935499375 3.11761406,0.847943438 3.11761406,0.739935 C3.11761406,0.631926563 3.20517,0.544370625 3.31317844,0.544370625 L3.8942775,0.544370625 C4.00228594,0.544370625 4.08984187,0.631926563 4.08984187,0.739935 C4.08984187,0.847943438 4.00228594,0.935499375 3.8942775,0.935499375 Z" id="Shape"></path>
                                            <path d="M3.8942775,1.46604938 L3.31317844,1.46604938 C3.20517,1.46604938 3.11761406,1.37849344 3.11761406,1.270485 C3.11761406,1.16245125 3.20517,1.07492063 3.31317844,1.07492063 L3.8942775,1.07492063 C4.00228594,1.07492063 4.08984187,1.16247656 4.08984187,1.270485 C4.08984187,1.37849344 4.00228594,1.46604938 3.8942775,1.46604938 Z" id="Shape"></path>
                                            <path d="M7.00781625,0.404949375 L6.42671719,0.404949375 C6.31870875,0.404949375 6.23115281,0.317393437 6.23115281,0.209385 C6.23115281,0.101376562 6.31870875,0.013820625 6.42671719,0.013820625 L7.00781625,0.013820625 C7.11582469,0.013820625 7.20338063,0.101376562 7.20338063,0.209385 C7.20338063,0.317393437 7.11582469,0.404949375 7.00781625,0.404949375 Z" id="Shape"></path>
                                            <path d="M7.00781625,0.935499375 L6.42671719,0.935499375 C6.31870875,0.935499375 6.23115281,0.847943438 6.23115281,0.739935 C6.23115281,0.631926563 6.31870875,0.544370625 6.42671719,0.544370625 L7.00781625,0.544370625 C7.11582469,0.544370625 7.20338063,0.631926563 7.20338063,0.739935 C7.20338063,0.847943438 7.11582469,0.935499375 7.00781625,0.935499375 Z" id="Shape"></path>
                                            <path d="M7.00781625,1.46604938 L6.42671719,1.46604938 C6.31870875,1.46604938 6.23115281,1.37849344 6.23115281,1.270485 C6.23115281,1.16245125 6.31870875,1.07492063 6.42671719,1.07492063 L7.00781625,1.07492063 C7.11582469,1.07492063 7.20338063,1.16247656 7.20338063,1.270485 C7.20338063,1.37849344 7.11582469,1.46604938 7.00781625,1.46604938 Z" id="Shape"></path>
                                        </g>
                                        <path d="M7.92501469,11.8088381 L1.10496656,11.8088381 C0.996958125,11.8088381 0.909402188,11.7212822 0.909402188,11.6132738 C0.909402188,11.5052653 0.996958125,11.4177094 1.10496656,11.4177094 L7.92501469,11.4177094 C8.03302313,11.4177094 8.12057906,11.5052653 8.12057906,11.6132738 C8.12057906,11.7212822 8.03302312,11.8088381 7.92501469,11.8088381 Z" id="Shape" fill="#F2692E"></path>
                                        <path d="M10.9342659,12.270285 L10.6597519,12.270285 C10.5517434,12.270285 10.4641875,12.1827291 10.4641875,12.0747206 C10.4641875,11.9667122 10.5517434,11.8791563 10.6597519,11.8791563 L10.9342659,11.8791563 C11.0422744,11.8791563 11.1298303,11.9667122 11.1298303,12.0747206 C11.1298303,12.1827291 11.0422744,12.270285 10.9342659,12.270285 Z" id="Shape" fill="#91ADC1"></path>
                                        <path d="M11.5476131,3.76885406 L9.95439375,3.76885406 C9.83917125,3.76885406 9.74579344,3.67545094 9.74579344,3.56025375 L9.74579344,3.10422375 C9.74579344,2.98900125 9.83919656,2.89562344 9.95439375,2.89562344 L11.5475878,2.89562344 C11.6628103,2.89562344 11.7561881,2.98902656 11.7561881,3.10422375 L11.7561881,3.56025375 C11.7562134,3.67545094 11.6628103,3.76885406 11.5476131,3.76885406 Z" id="Shape" fill="#D0DCE7"></path>
                                        <g id="Group" transform="translate(0.607500, 0.000000)" fill="#FFFFFF">
                                            <path d="M9.86094,2.40600375 C9.75293156,2.40600375 9.66537563,2.31844781 9.66537563,2.21043938 L9.66537563,1.99141031 C9.66537563,1.50953625 9.27333563,1.11749625 8.79146156,1.11749625 L0.212397188,1.11749625 C0.10438875,1.11749625 0.0168328125,1.02994031 0.0168328125,0.921931875 C0.0168328125,0.813923438 0.10438875,0.7263675 0.212397188,0.7263675 L8.79143625,0.7263675 C9.48899813,0.7263675 10.0565044,1.29387375 10.0565044,1.99143563 L10.0565044,2.21046469 C10.0565044,2.31844781 9.96894844,2.40600375 9.86094,2.40600375 Z" id="Shape"></path>
                                            <path d="M10.5862444,2.40600375 C10.4782359,2.40600375 10.39068,2.31844781 10.39068,2.21043938 L10.39068,1.95842813 C10.39068,1.09479094 9.68805563,0.392191875 8.82444375,0.392191875 C8.71643531,0.392191875 8.62887938,0.304635938 8.62887938,0.1966275 C8.62887938,0.0886190625 8.71643531,0.001063125 8.82444375,0.001063125 C9.90374344,0.001063125 10.7818341,0.87915375 10.7818341,1.95845344 L10.7818341,2.21046469 C10.7818341,2.31844781 10.6942528,2.40600375 10.5862444,2.40600375 Z" id="Shape"></path>
                                            <path d="M1.52350875,0.392166563 L0.212397188,0.392166563 C0.10438875,0.392166563 0.0168328125,0.304610625 0.0168328125,0.196602188 C0.0168328125,0.08859375 0.10438875,0.0010378125 0.212397188,0.0010378125 L1.52350875,0.0010378125 C1.63151719,0.0010378125 1.71907313,0.08859375 1.71907313,0.196602188 C1.71907313,0.304610625 1.63151719,0.392166563 1.52350875,0.392166563 Z" id="Shape"></path>
                                            <path d="M2.10068438,1.98948656 L1.52350875,1.98948656 C1.41550031,1.98948656 1.32794438,1.90193063 1.32794438,1.79392219 C1.32794438,1.68588844 1.41550031,1.59835781 1.52350875,1.59835781 L2.10068438,1.59835781 C2.20869281,1.59835781 2.29624875,1.68591375 2.29624875,1.79392219 C2.29624875,1.90193063 2.20869281,1.98948656 2.10068438,1.98948656 Z" id="Shape"></path>
                                            <path d="M8.59151813,1.98948656 L4.38564375,1.98948656 C4.27763531,1.98948656 4.19007938,1.90193063 4.19007938,1.79392219 C4.19007938,1.68588844 4.27763531,1.59835781 4.38564375,1.59835781 L8.59151813,1.59835781 C8.69952656,1.59835781 8.7870825,1.68591375 8.7870825,1.79392219 C8.7870825,1.90193063 8.69952656,1.98948656 8.59151813,1.98948656 Z" id="Shape"></path>
                                        </g>
                                    </g>
                                </g>
                            </g>
                            <g id="Time-Copy-2" transform="translate(68.698329, 46.656000)">
                                <rect id="Rectangle-2" fill="#5C5C5C" fill-rule="nonzero" x="0" y="0" width="88.7893498" height="12.96" rx="6.48"></rect>
                                <text id="Best-for-5+-year-goa" font-family="ProximaNova-Regular, Proxima Nova" font-size="7.776" font-weight="normal" fill="#FFFFFF">
                                    <tspan x="7.31093089" y="8.648">Best for 5+ year goals</tspan>
                                </text>
                            </g>
                            <g id="Time-Copy-3" transform="translate(17.498631, 46.656000)">
                                <rect id="Rectangle-2" fill="#F8966C" fill-rule="nonzero" x="0" y="0" width="44.7187236" height="12.96" rx="6.48"></rect>
                                <text id="High-Risk" font-family="ProximaNova-Regular, Proxima Nova" font-size="7.776" font-weight="normal" fill="#FFFFFF">
                                    <tspan x="6.2785938" y="8.648">High Risk</tspan>
                                </text>
                            </g>
                            <text id="Goal-target-date-Copy" font-family="ProximaNova-Regular, Proxima Nova" font-size="7.128" font-weight="normal" fill="#333333">
                                <tspan x="40.8301389" y="29.032">Old Mutual Top 40 Index Fund</tspan>
                            </text>
                            <text id="Goal-Name-Copy" font-family="ProximaNova-Bold, Proxima Nova" font-size="9.72" font-weight="bold" fill="#333333">
                                <tspan x="40.8301389" y="19.72">Local giants</tspan>
                            </text>
                            <g id="Group-6" transform="translate(12.961949, 82.944000)">
                                <text id="Low-fees" font-family="ProximaNova-Regular, Proxima Nova" font-size="7.776" font-weight="normal" fill="#32B1C9">
                                    <tspan x="11.0176565" y="39.4">Low fees</tspan>
                                </text>
                                <text id="Access-money-in-3-10" font-family="ProximaNova-Regular, Proxima Nova" font-size="7.776" font-weight="normal" fill="#333333">
                                    <tspan x="11.0176565" y="56.6">Access money in 3-10 working days</tspan>
                                </text>
                                <text id="Forty-biggest-local" font-family="ProximaNova-Regular, Proxima Nova" font-size="7.776" font-weight="normal" fill="#333333">
                                    <tspan x="11.0176565" y="8">Forty biggest local shares</tspan>
                                </text>
                                <text id="More-ups-and-downs" font-family="ProximaNova-Regular, Proxima Nova" font-size="7.776" font-weight="normal" fill="#333333">
                                    <tspan x="11.0176565" y="24.2">More ups and downs</tspan>
                                </text>
                                <g id="list-bullet/dark" transform="translate(0.000000, 1.944000)" fill="#5C5C5C" fill-rule="nonzero">
                                    <path d="M2.268,4.536 C1.01541819,4.536 0,3.52058181 0,2.268 C0,1.01541819 1.01541819,0 2.268,0 C3.52058181,0 4.536,1.01541819 4.536,2.268 C4.536,3.52058181 3.52058181,4.536 2.268,4.536 Z M2.268,3.24 C2.80482078,3.24 3.24,2.80482078 3.24,2.268 C3.24,1.73117922 2.80482078,1.296 2.268,1.296 C1.73117922,1.296 1.296,1.73117922 1.296,2.268 C1.296,2.80482078 1.73117922,3.24 2.268,3.24 Z"></path>
                                </g>
                                <g id="list-bullet/dark" transform="translate(0.000000, 18.144000)" fill="#5C5C5C" fill-rule="nonzero">
                                    <path d="M2.268,4.536 C1.01541819,4.536 0,3.52058181 0,2.268 C0,1.01541819 1.01541819,0 2.268,0 C3.52058181,0 4.536,1.01541819 4.536,2.268 C4.536,3.52058181 3.52058181,4.536 2.268,4.536 Z M2.268,3.24 C2.80482078,3.24 3.24,2.80482078 3.24,2.268 C3.24,1.73117922 2.80482078,1.296 2.268,1.296 C1.73117922,1.296 1.296,1.73117922 1.296,2.268 C1.296,2.80482078 1.73117922,3.24 2.268,3.24 Z"></path>
                                </g>
                                <g id="list-bullet/dark" transform="translate(0.000000, 34.344000)" fill="#5C5C5C" fill-rule="nonzero">
                                    <path d="M2.268,4.536 C1.01541819,4.536 0,3.52058181 0,2.268 C0,1.01541819 1.01541819,0 2.268,0 C3.52058181,0 4.536,1.01541819 4.536,2.268 C4.536,3.52058181 3.52058181,4.536 2.268,4.536 Z M2.268,3.24 C2.80482078,3.24 3.24,2.80482078 3.24,2.268 C3.24,1.73117922 2.80482078,1.296 2.268,1.296 C1.73117922,1.296 1.296,1.73117922 1.296,2.268 C1.296,2.80482078 1.73117922,3.24 2.268,3.24 Z"></path>
                                </g>
                                <g id="list-bullet/dark" transform="translate(0.000000, 50.544000)" fill="#5C5C5C" fill-rule="nonzero">
                                    <path d="M2.268,4.536 C1.01541819,4.536 0,3.52058181 0,2.268 C0,1.01541819 1.01541819,0 2.268,0 C3.52058181,0 4.536,1.01541819 4.536,2.268 C4.536,3.52058181 3.52058181,4.536 2.268,4.536 Z M2.268,3.24 C2.80482078,3.24 3.24,2.80482078 3.24,2.268 C3.24,1.73117922 2.80482078,1.296 2.268,1.296 C1.73117922,1.296 1.296,1.73117922 1.296,2.268 C1.296,2.80482078 1.73117922,3.24 2.268,3.24 Z"></path>
                                </g>
                            </g>
                            <g id="Learn-more" transform="translate(7.129072, 153.576000)">
                                <path d="M1.944,0 L158.784166,0 C159.857808,2.48198511e-17 160.728166,0.870358446 160.728166,1.944 L160.728166,17.496 C160.728166,18.5696416 159.857808,19.44 158.784166,19.44 L1.944,19.44 C0.870358446,19.44 2.57397382e-15,18.5696416 0,17.496 L0,1.944 C9.05614357e-17,0.870358446 0.870358446,4.19269359e-16 1.944,0 Z" id="Path-Copy" stroke="#F8966C" stroke-width="0.648" fill-rule="nonzero"></path>
                                <text id="Fund-Fact-Sheet" font-family="ProximaNova-Semibold, Proxima Nova" font-size="8.424" font-weight="500" fill="#F8966C">
                                    <tspan x="49.586999" y="12.888">Fund Fact Sheet</tspan>
                                </text>
                            </g>
                        </g>
                    </g>
                </g>
            </g>
        </g>
    </g>
</svg>