<?xml version="1.0" encoding="UTF-8"?>
<svg width="195px" height="203px" viewBox="0 0 195 203" version="1.1" xmlns="http://www.w3.org/2000/svg" xmlns:xlink="http://www.w3.org/1999/xlink">
    <!-- Generator: Sketch 57.1 (83088) - https://sketch.com -->
    <title>fund-card/slow-steady</title>
    <desc>Created with Sketch.</desc>
    <defs>
        <rect id="path-1" x="0" y="0" width="174.98631" height="182.736" rx="3.888"></rect>
        <filter x="-9.4%" y="-7.4%" width="118.9%" height="118.1%" filterUnits="objectBoundingBox" id="filter-3">
            <feOffset dx="0" dy="3" in="SourceAlpha" result="shadowOffsetOuter1"></feOffset>
            <feGaussianBlur stdDeviation="5" in="shadowOffsetOuter1" result="shadowBlurOuter1"></feGaussianBlur>
            <feColorMatrix values="0 0 0 0 0   0 0 0 0 0   0 0 0 0 0  0 0 0 0.1 0" type="matrix" in="shadowBlurOuter1"></feColorMatrix>
        </filter>
        <linearGradient x1="50%" y1="0%" x2="50%" y2="100%" id="linearGradient-4">
            <stop stop-color="#039775" offset="0%"></stop>
            <stop stop-color="#50B848" offset="100%"></stop>
        </linearGradient>
    </defs>
    <g id="Page-1" stroke="none" stroke-width="1" fill="none" fill-rule="evenodd">
        <g id="invest-in-your-goals" transform="translate(-208.000000, -4259.000000)">
            <g id="Funds" transform="translate(218.000000, 4115.000000)">
                <g transform="translate(0.000000, 151.000000)" id="fund-card/slow-steady">
                    <g>
                        <g>
                            <g id="Header-bg">
                                <mask id="mask-2" fill="white">
                                    <use xlink:href="#path-1"></use>
                                </mask>
                                <g id="Mask" fill-rule="nonzero">
                                    <use fill="black" fill-opacity="1" filter="url(#filter-3)" xlink:href="#path-1"></use>
                                    <use fill="#FFFFFF" xlink:href="#path-1"></use>
                                </g>
                                <rect fill="#E1ECC5" fill-rule="nonzero" mask="url(#mask-2)" x="0" y="0" width="174.98631" height="70.632"></rect>
                                <g id="logo-OM-mark" mask="url(#mask-2)">
                                    <g transform="translate(146.470022, 0.000000)">
                                        <g>
                                            <rect id="Rectangle" fill="url(#linearGradient-4)" fill-rule="nonzero" x="-1.13686838e-13" y="0" width="18.7948259" height="34.992"></rect>
                                            <path d="M6.01308785,27.1330878 C5.89475071,26.9235652 5.96475709,26.6653829 6.17389748,26.5460237 C6.38274496,26.429813 6.64109486,26.5005126 6.76177531,26.7051693 C6.88099119,26.9078223 6.8086415,27.1705843 6.60389482,27.2842189 C6.53447426,27.3237191 6.46241749,27.345759 6.38889615,27.345759 C6.24038889,27.345759 6.09715409,27.2656137 6.01308785,27.1330878 M7.50226119,25.8622127 C7.31948303,25.5333308 6.6185405,25.6409545 6.84613446,26.1098044 C6.56757351,25.9555247 6.21724871,25.9469377 5.9222846,26.1158153 C5.47881323,26.3714214 5.3244477,26.9390217 5.57869681,27.3786758 C5.83997584,27.8229096 6.40940011,27.9680298 6.8534573,27.7184346 C7.14842142,27.549557 7.31831137,27.2421426 7.31948303,26.9275724 C7.61884084,27.3583533 8.06494843,26.8070683 7.8698679,26.4884908 C8.05030275,26.3508127 8.40765748,26.1295545 8.73220588,25.9340572 C8.74890196,25.6950526 8.75973977,25.4514682 8.76530513,25.2070251 C8.37221492,25.4271384 7.78697332,25.7411361 7.50226119,25.8622127 M10.1036279,20.4655733 C10.4896882,20.6367407 10.9038682,20.9132419 11.2925647,21.3008016 C11.6572423,21.6614553 11.9419544,22.0407142 12.1156522,22.3979332 C11.9753466,22.9572327 11.0348006,23.758113 9.98206871,24.4605291 C9.97943249,24.5976347 9.97943249,24.7267259 9.97943249,24.8297698 C9.97943249,24.9651581 9.97943249,25.097684 9.98206871,25.2359346 C11.2313457,24.5976347 12.5854858,24.092147 13.2014834,24.2667493 C13.4270269,24.5976347 13.6194712,25.0295605 13.7524541,25.5210228 C13.891881,26.0494092 13.9323031,26.5408715 13.888366,26.9544783 C14.1370498,27.2753457 14.4094595,27.5220786 14.6640016,27.6838003 C14.8160238,26.896373 14.9062412,26.0637208 14.9062412,25.2035903 C14.9062412,24.1625604 14.7890757,23.1641792 14.5693904,22.2427948 C13.8696196,21.5896108 13.056784,20.9885212 12.1446507,20.471298 C11.3918624,20.0402309 10.6162269,19.7044794 9.85640873,19.44 C9.86607488,19.740831 9.95101986,20.0943289 10.1036279,20.4655733 M12.160468,27.2842189 C11.9522064,27.1705843 11.8807354,26.9078223 12.0020017,26.7051693 C12.116531,26.5005126 12.3819108,26.429813 12.5872433,26.5460237 C12.7975554,26.6653829 12.866683,26.9235652 12.7483459,27.1330878 C12.6666229,27.2656137 12.5239739,27.345759 12.3751738,27.345759 C12.2978446,27.345759 12.2269594,27.3237191 12.160468,27.2842189 M10.015168,25.9254702 C10.3482109,26.1232573 10.7058585,26.3502402 10.8939091,26.4884908 C10.6982427,26.8070683 11.1434716,27.3583533 11.4396074,26.9275724 C11.4463444,27.2421426 11.6109619,27.549557 11.9047543,27.7184346 C12.0186978,27.7796884 12.1426003,27.8229096 12.2612303,27.833214 L12.4817944,27.833214 C12.7618199,27.7991523 13.0257351,27.6411516 13.1815652,27.3786758 C13.4422584,26.9390217 13.2870142,26.3754287 12.8403208,26.1158153 C12.5424275,25.9469377 12.1964964,25.9555247 11.9199859,26.1098044 C12.1446507,25.6409545 11.4434152,25.5333308 11.2618087,25.8622127 C10.9697738,25.7371288 10.3769164,25.4259934 9.98206871,25.2035903 C9.9882199,25.4440261 10.0005223,25.6853206 10.015168,25.9254702 M6.6185405,20.471298 C5.70845758,20.9885212 4.89357162,21.5896108 4.19643698,22.2427948 C4.04412185,22.8793773 3.9407233,23.5583223 3.88858466,24.2575898 L3.88858466,26.1140979 C3.92754219,26.6550785 3.99989187,27.1780264 4.09801797,27.6838003 C4.36076157,27.5220786 4.6261414,27.2753457 4.87277475,26.9544783 C4.82854478,26.5408715 4.87013853,26.0494092 5.01132294,25.5210228 C5.14371994,25.0295605 5.33059889,24.5976347 5.5593645,24.2667493 C6.17389748,24.092147 7.52159349,24.5976347 8.76530513,25.2279201 C8.76530513,25.0908144 8.77057758,24.9651581 8.77057758,24.8297698 C8.77057758,24.7221462 8.77057758,24.593055 8.76530513,24.4525146 C7.71725985,23.7535333 6.78872337,22.9572327 6.65017518,22.3979332 C6.82533759,22.0407142 7.10858515,21.658593 7.47209107,21.3008016 C7.8613734,20.9132419 8.27233135,20.6367407 8.65839163,20.4655733 C8.81070676,20.0943289 8.89770213,19.740831 8.90795411,19.44 C8.14257057,19.7044794 7.37103584,20.0402309 6.6185405,20.471298 M8.94544707,21.7802421 C8.94544707,21.5429548 9.1340835,21.3514648 9.37280818,21.3514648 C9.61329034,21.3514648 9.80368426,21.5429548 9.80368426,21.7802421 C9.80368426,22.0163844 9.61329034,22.2073019 9.37280818,22.2073019 C9.1361339,22.2073019 8.94544707,22.0163844 8.94544707,21.7802421 M8.44602918,21.7802421 C8.44602918,22.1197146 8.62529238,22.4093825 8.89770213,22.5731078 C8.37514406,22.6134667 8.62734277,23.2689406 9.01076683,23.2626434 C9.04738104,23.6066957 9.067885,24.3964129 9.067885,24.8297698 C9.067885,26.4435522 8.84439184,28.4105463 8.28756286,28.9446573 C7.8848065,28.9778603 7.41057919,28.9214724 6.91409044,28.7918088 C6.38274496,28.6501234 5.92784996,28.4363072 5.59334249,28.1938678 C5.18794991,28.245676 4.83645345,28.3498648 4.56316495,28.4898328 C5.17886958,29.0142119 5.86018689,29.5085365 6.61502554,29.9367413 C7.4940596,30.4402254 8.40121338,30.832651 9.29108525,31.104 L9.45599568,31.104 C10.3502613,30.832651 11.2518497,30.4402254 12.1343987,29.9367413 C12.8892373,29.5085365 13.5711405,29.0142119 14.180401,28.4898328 C13.9135566,28.3532996 13.5620602,28.245676 13.1581321,28.1938678 C12.8154231,28.4363072 12.3681438,28.6501234 11.8324047,28.7918088 C11.3379663,28.9214724 10.8605169,28.9778603 10.463033,28.9446573 C9.90356783,28.4105463 9.6786101,26.4435522 9.6786101,24.8297698 C9.6786101,24.3964129 9.69794241,23.6066957 9.73924324,23.2626434 C10.1159303,23.2689406 10.3742802,22.6134667 9.84908588,22.5731078 C10.1241319,22.4093825 10.3089604,22.1197146 10.3089604,21.7802421 C10.3089604,21.2698884 9.89038672,20.8554228 9.37280818,20.8554228 C8.85815878,20.8554228 8.44602918,21.2698884 8.44602918,21.7802421" id="Fill-14" fill="#FFFFFF"></path>
                                        </g>
                                    </g>
                                </g>
                                <g id="Time" mask="url(#mask-2)">
                                    <g transform="translate(68.698329, 46.656000)">
                                        <rect id="Rectangle-2" fill="#5C5C5C" fill-rule="nonzero" x="0" y="0" width="89.4374472" height="12.96" rx="6.48"></rect>
                                        <text id="Best-for-0-3-year-go" fill="none" font-family="ProximaNova-Regular, Proxima Nova" font-size="7.776" font-weight="normal">
                                            <tspan x="6.48158833" y="8.648" fill="#FFFFFF">Best for 0-3 year goals</tspan>
                                        </text>
                                    </g>
                                </g>
                                <g id="Risk" mask="url(#mask-2)">
                                    <g transform="translate(17.498631, 46.656000)">
                                        <rect id="Rectangle-2" fill="#B6D274" fill-rule="nonzero" x="0" y="0" width="44.7187236" height="12.96" rx="6.48"></rect>
                                        <text id="Low-Risk" fill="none" font-family="ProximaNova-Regular, Proxima Nova" font-size="7.776" font-weight="normal">
                                            <tspan x="7.3089138" y="8.648" fill="#FFFFFF">Low Risk</tspan>
                                        </text>
                                    </g>
                                </g>
                                <text id="Fund-actual" mask="url(#mask-2)" font-family="ProximaNova-Regular, Proxima Nova" font-size="7.128" font-weight="normal" fill="#333333">
                                    <tspan x="40.8301389" y="29.032">Old Mutual Money Market </tspan>
                                    <tspan x="40.8301389" y="37.032">Fund</tspan>
                                </text>
                                <text id="Fund-name" mask="url(#mask-2)" font-family="ProximaNova-Bold, Proxima Nova" font-size="9.72" font-weight="bold" fill="#333333">
                                    <tspan x="40.8301389" y="19.72">Slow and steady</tspan>
                                </text>
                                <g id="icon/fund/slow-steady" mask="url(#mask-2)">
                                    <g transform="translate(8.425267, 8.424000)">
                                        <g>
                                            <circle id="Oval-3" fill="#B6D274" cx="12.96" cy="12.96" r="12.96"></circle>
                                            <g id="snails" transform="translate(5.832000, 6.480000)" fill-rule="nonzero">
                                                <circle id="Oval" fill="#95B93F" cx="5.37061974" cy="5.66705895" r="3.89633714"></circle>
                                                <path d="M6.1108473,8.63284917 C4.89296167,8.63284917 3.75286562,7.91493765 3.24695641,6.76070284 C2.97452143,6.13920396 2.96043543,5.44880499 3.20728346,4.81667566 C3.45410512,4.18457271 3.9323435,3.68641871 4.55386876,3.41398374 C5.60026913,2.9553708 6.82467019,3.43347729 7.28336226,4.47987766 C7.65901548,5.33696104 7.2674034,6.33988998 6.41029364,6.71559596 C6.22838895,6.79531115 6.03833338,6.83308486 5.85136406,6.83308486 C5.31308869,6.83313762 4.79916047,6.52050213 4.56959022,5.99678757 C4.52572313,5.89673472 4.57127843,5.78003717 4.67135766,5.73617007 C4.77148965,5.6922766 4.88813444,5.73788466 4.93197516,5.83793751 C5.15371106,6.34374121 5.74558712,6.57494692 6.25144358,6.35318464 C6.90868504,6.06508096 7.20905462,5.29596918 6.92095094,4.63870134 C6.54991392,3.79211652 5.55930364,3.40533166 4.71269244,3.77636868 C3.62952074,4.25117789 3.13453214,5.51868108 3.60934135,6.60185278 C4.13339883,7.7975015 5.43643357,8.45722252 6.70778799,8.17054327 C6.8143299,8.14659179 6.92026511,8.21346075 6.94429573,8.32002904 C6.96832635,8.42659733 6.90140463,8.53250616 6.79480996,8.55653678 C6.56655863,8.6080272 6.33730491,8.63284917 6.1108473,8.63284917 Z" id="Shape" fill="#000000" opacity="0.1"></path>
                                                <path d="M4.5029059,1.86792581 C2.76882353,2.26241313 1.47449363,3.81350931 1.47449363,5.66703258 C1.47449363,7.81886792 3.21888991,9.5632642 5.37072525,9.5632642 C6.26339294,9.5632642 7.0857625,9.26284186 7.74274017,8.75790864 C2.71910046,8.00647031 3.49715448,2.94843331 4.5029059,1.86792581 Z" id="Shape" fill="#000000" opacity="0.1"></path>
                                                <path d="M9.35469107,2.47900527 C9.28431379,2.47900527 9.21620505,2.44138983 9.18043609,2.37512756 L8.78510466,1.642919 C8.73319219,1.54677014 8.76906666,1.42674892 8.86518915,1.37483645 C8.96133801,1.32292397 9.08133285,1.35879845 9.1332717,1.45492093 L9.52860313,2.18712949 C9.5805156,2.28327836 9.54464113,2.40329958 9.44851864,2.45521205 C9.41863204,2.47135556 9.38642415,2.47900527 9.35469107,2.47900527 Z" id="Shape" fill="#F9CB8E"></path>
                                                <path d="M8.41470072,4.07737134 L8.41470072,6.14342448 C8.41470072,7.25587609 7.51287976,8.15767067 6.40045454,8.15767067 L3.28771087,8.15767067 C1.76164768,8.15767067 0.424031003,9.17819393 0.0209179836,10.6500761 L0.0209179836,10.6500761 C-0.0799789737,11.0185017 0.197283227,11.3819154 0.579293615,11.3819154 L8.29272751,11.3819154 C10.7751356,11.3819154 12.7875089,9.36954204 12.7875089,6.88713398 L12.7875089,4.07737134 C12.7875089,2.86987876 11.808637,1.89098044 10.6011444,1.89098044 L10.6011444,1.89098044 C9.39357266,1.89098044 8.41470072,2.86987876 8.41470072,4.07737134 Z" id="Shape" fill="#FFDAB5"></path>
                                                <path d="M11.8474922,2.47900527 C11.8157591,2.47900527 11.7835776,2.47135556 11.7536646,2.45523843 C11.6575157,2.40332595 11.6216676,2.28327836 11.6735801,2.18715587 L12.0689115,1.45494731 C12.1208504,1.35879845 12.2407925,1.32297673 12.3369941,1.37486283 C12.433143,1.4267753 12.4689911,1.54682289 12.4170786,1.64294538 L12.0217472,2.37515394 C11.9859782,2.4414162 11.9178431,2.47900527 11.8474922,2.47900527 Z" id="Shape" fill="#F9CB8E"></path>
                                                <circle id="Oval" fill="#EAEAEA" cx="12.6766146" cy="0.842390674" r="1"></circle>
                                                <path d="M12.6766673,1.13803854 C12.5673821,1.13803854 12.4788302,1.04948663 12.4788302,0.940201372 L12.4788302,0.744606355 C12.4788302,0.635321102 12.5673821,0.546769184 12.6766673,0.546769184 C12.7859526,0.546769184 12.8745045,0.635321102 12.8745045,0.744606355 L12.8745045,0.940201372 C12.8745045,1.04946025 12.7859526,1.13803854 12.6766673,1.13803854 Z" id="Shape" fill="#414B58"></path>
                                                <path d="M8.41470072,4.07737134 L8.41470072,6.14342448 C8.41470072,7.25587609 7.51287976,8.15767067 6.40045454,8.15767067 L3.28771087,8.15767067 C1.76164768,8.15767067 0.424031003,9.17819393 0.0209179836,10.6500761 L0.0209179836,10.6500761 C-0.0799789737,11.0185017 0.197283227,11.3819154 0.579293615,11.3819154 L8.29272751,11.3819154 C10.7751356,11.3819154 12.7875089,9.36954204 12.7875089,6.88713398 L12.7875089,4.07737134 C12.7875089,2.86987876 11.808637,1.89098044 10.6011444,1.89098044 L10.6011444,1.89098044 C9.39357266,1.89098044 8.41470072,2.86987876 8.41470072,4.07737134 Z" id="Shape" fill="#F9CB8E"></path>
                                                <g id="Group" transform="translate(8.704836, 3.534691)" fill="#FF6E6E">
                                                    <ellipse id="Oval" cx="0.562121349" cy="0.454972737" rx="1" ry="1"></ellipse>
                                                    <ellipse id="Oval" cx="3.23028533" cy="0.454972737" rx="1" ry="1"></ellipse>
                                                </g>
                                                <path d="M10.6010916,4.09296091 C10.4248055,4.09296091 10.2572242,4.01664852 10.1412653,3.88357005 C10.0694636,3.80119065 10.0780629,3.67623669 10.1604687,3.60446137 C10.2428217,3.53268604 10.367802,3.54125898 10.4395774,3.62366476 C10.4803846,3.67045985 10.5392345,3.69731294 10.6010916,3.69731294 C10.6629487,3.69731294 10.7218251,3.67045985 10.7626586,3.62363838 C10.834434,3.54125898 10.9594143,3.53268604 11.0417673,3.60451412 C11.1241467,3.67628945 11.1326933,3.80126978 11.060918,3.8836228 C10.9449326,4.01664852 10.777325,4.09296091 10.6010916,4.09296091 Z" id="Shape" fill="#414B58"></path>
                                                <path d="M9.53274452,7.37679416 L9.53274452,8.01615114 C9.53274452,9.28499963 8.50412312,10.313621 7.23527464,10.313621 L4.15334081,10.313621 C3.32245107,10.313621 2.54154819,10.7106143 2.05196714,11.3819417 L2.05196714,11.3819417 L8.29267475,11.3819417 C9.30462507,11.3819417 10.2383901,11.0474387 10.9896174,10.4831279 C11.4197682,9.81530876 11.6694123,9.02024073 11.6694123,8.16685031 L11.6694123,7.37679416 C11.6694123,6.78676459 11.1910948,6.30844706 10.6010652,6.30844706 L10.6010652,6.30844706 C10.011062,6.30844706 9.53274452,6.78676459 9.53274452,7.37679416 Z" id="Shape" fill="#E0B47A"></path>
                                                <circle id="Oval" fill="#EAEAEA" cx="8.52546316" cy="0.842390674" r="1"></circle>
                                                <path d="M8.52548954,1.13803854 C8.41620428,1.13803854 8.32765237,1.04948663 8.32765237,0.940201372 L8.32765237,0.744606355 C8.32765237,0.635321102 8.41620428,0.546769184 8.52548954,0.546769184 C8.63477479,0.546769184 8.72332671,0.635321102 8.72332671,0.744606355 L8.72332671,0.940201372 C8.72332671,1.04946025 8.63477479,1.13803854 8.52548954,1.13803854 Z" id="Shape" fill="#414B58"></path>
                                                <path d="M4.7685089,8.15769705 L3.28771087,8.15769705 C1.76164768,8.15769705 0.424031003,9.17822031 0.0208916053,10.6501025 L0.0208916053,10.6501025 C-0.080005352,11.0185281 0.197283227,11.3819681 0.579267237,11.3819681 L5.95919851,11.3819681 C4.2578516,10.8875598 3.84642941,9.06463539 4.7685089,8.15769705 Z" id="Shape" fill="#000000" opacity="0.1"></path>
                                            </g>
                                        </g>
                                    </g>
                                </g>
                            </g>
                            <g id="Fund-info" transform="translate(12.961949, 82.944000)">
                                <text id="Low-fees" font-family="ProximaNova-Regular, Proxima Nova" font-size="7.776" font-weight="normal" fill="#32B1C9">
                                    <tspan x="11.0176565" y="39.4">Low fees</tspan>
                                </text>
                                <g id="list-bullet/dark" transform="translate(0.000000, 1.944000)" fill="#5C5C5C" fill-rule="nonzero">
                                    <path d="M2.268,4.536 C1.01541819,4.536 0,3.52058181 0,2.268 C0,1.01541819 1.01541819,0 2.268,0 C3.52058181,0 4.536,1.01541819 4.536,2.268 C4.536,3.52058181 3.52058181,4.536 2.268,4.536 Z M2.268,3.24 C2.80482078,3.24 3.24,2.80482078 3.24,2.268 C3.24,1.73117922 2.80482078,1.296 2.268,1.296 C1.73117922,1.296 1.296,1.73117922 1.296,2.268 C1.296,2.80482078 1.73117922,3.24 2.268,3.24 Z"></path>
                                </g>
                                <g id="list-bullet/dark" transform="translate(0.000000, 18.144000)" fill="#5C5C5C" fill-rule="nonzero">
                                    <path d="M2.268,4.536 C1.01541819,4.536 0,3.52058181 0,2.268 C0,1.01541819 1.01541819,0 2.268,0 C3.52058181,0 4.536,1.01541819 4.536,2.268 C4.536,3.52058181 3.52058181,4.536 2.268,4.536 Z M2.268,3.24 C2.80482078,3.24 3.24,2.80482078 3.24,2.268 C3.24,1.73117922 2.80482078,1.296 2.268,1.296 C1.73117922,1.296 1.296,1.73117922 1.296,2.268 C1.296,2.80482078 1.73117922,3.24 2.268,3.24 Z"></path>
                                </g>
                                <g id="list-bullet/dark" transform="translate(0.000000, 34.344000)" fill="#5C5C5C" fill-rule="nonzero">
                                    <path d="M2.268,4.536 C1.01541819,4.536 0,3.52058181 0,2.268 C0,1.01541819 1.01541819,0 2.268,0 C3.52058181,0 4.536,1.01541819 4.536,2.268 C4.536,3.52058181 3.52058181,4.536 2.268,4.536 Z M2.268,3.24 C2.80482078,3.24 3.24,2.80482078 3.24,2.268 C3.24,1.73117922 2.80482078,1.296 2.268,1.296 C1.73117922,1.296 1.296,1.73117922 1.296,2.268 C1.296,2.80482078 1.73117922,3.24 2.268,3.24 Z"></path>
                                </g>
                                <g id="list-bullet/dark" transform="translate(0.000000, 50.544000)" fill="#5C5C5C" fill-rule="nonzero">
                                    <path d="M2.268,4.536 C1.01541819,4.536 0,3.52058181 0,2.268 C0,1.01541819 1.01541819,0 2.268,0 C3.52058181,0 4.536,1.01541819 4.536,2.268 C4.536,3.52058181 3.52058181,4.536 2.268,4.536 Z M2.268,3.24 C2.80482078,3.24 3.24,2.80482078 3.24,2.268 C3.24,1.73117922 2.80482078,1.296 2.268,1.296 C1.73117922,1.296 1.296,1.73117922 1.296,2.268 C1.296,2.80482078 1.73117922,3.24 2.268,3.24 Z"></path>
                                </g>
                                <text id="Access-money-in-3-10" font-family="ProximaNova-Regular, Proxima Nova" font-size="7.776" font-weight="normal" fill="#333333">
                                    <tspan x="11.0176565" y="56.6">Access money in 3-10 working days</tspan>
                                </text>
                                <text id="Loans-to-banks-and-g" font-family="ProximaNova-Regular, Proxima Nova" font-size="7.776" font-weight="normal" fill="#333333">
                                    <tspan x="11.0176565" y="8">Loans to banks and government</tspan>
                                </text>
                                <text id="Fever-ups-and-downs" font-family="ProximaNova-Regular, Proxima Nova" font-size="7.776" font-weight="normal" fill="#333333">
                                    <tspan x="11.0176565" y="24.2">Fever ups and downs</tspan>
                                </text>
                            </g>
                            <g id="Btn---Fund-fact-sheet" transform="translate(7.129072, 153.576000)">
                                <path d="M1.944,0 L158.784166,0 C159.857808,1.5282184e-14 160.728166,0.870358446 160.728166,1.944 L160.728166,17.496 C160.728166,18.5696416 159.857808,19.44 158.784166,19.44 L1.944,19.44 C0.870358446,19.44 2.79601843e-15,18.5696416 0,17.496 L0,1.944 C-1.31483169e-16,0.870358446 0.870358446,4.19269359e-16 1.944,0 Z" id="Path-Copy" stroke="#B6D274" stroke-width="0.648" fill-rule="nonzero"></path>
                                <text id="Fund-fact-sheet" font-family="ProximaNova-Semibold, Proxima Nova" font-size="8.424" font-weight="500" fill="#B6D274">
                                    <tspan x="51.4934583" y="12.888">Fund fact sheet</tspan>
                                </text>
                            </g>
                        </g>
                    </g>
                </g>
            </g>
        </g>
    </g>
</svg>