<?xml version="1.0" encoding="UTF-8"?>
<svg width="227px" height="19px" viewBox="0 0 227 19" version="1.1" xmlns="http://www.w3.org/2000/svg" xmlns:xlink="http://www.w3.org/1999/xlink">
    <!-- Generator: Sketch 52.6 (67491) - http://www.bohemiancoding.com/sketch -->
    <desc>Created with Sketch.</desc>
    <g id="Page-1" stroke="none" stroke-width="1" fill="none" fill-rule="evenodd">
        <g id="22seven-horizontal-logo-colour" fill="#FFFFFF">
            <path d="M124.305275,7.5184112 L120.378407,7.5184112 L120.378407,9.84748737 L123.889064,9.84748737 L123.889064,10.5170097 L120.378407,10.5170097 L120.378407,13.3569371 L119.646209,13.3569371 L119.646209,6.83875421 L124.305275,6.83875421 L124.305275,7.5184112 L124.305275,7.5184112 Z M131.082735,13.3569371 L129.091054,10.6937332 C130.110514,10.5081418 130.85133,9.87504104 130.85133,8.7849295 C130.85133,7.61215699 129.934007,6.83875421 128.508232,6.83875421 L125.719879,6.83875421 L125.719879,13.3569371 L126.452077,13.3569371 L126.452077,10.8242172 L128.304595,10.8242172 L130.184244,13.3569371 L131.082735,13.3569371 L131.082735,13.3569371 Z M130.110514,8.81311658 C130.110514,9.65967908 129.41566,10.1638794 128.4428,10.1638794 L126.452077,10.1638794 L126.452077,7.5184112 L128.452695,7.5184112 C129.498966,7.5184112 130.110514,8.0032923 130.110514,8.81311658 L130.110514,8.81311658 L130.110514,8.81311658 Z M135.424855,13.469052 C133.452005,13.469052 132.127729,11.9136953 132.127729,10.1071886 C132.127729,8.30226536 133.470199,6.72727273 135.443686,6.72727273 C137.416216,6.72727273 138.741769,8.281996 138.741769,10.0897696 C138.741769,11.8959596 137.397385,13.469052 135.424855,13.469052 L135.424855,13.469052 L135.424855,13.469052 Z M135.424855,7.40724642 C133.943542,7.40724642 132.886419,8.59933817 132.886419,10.0897696 C132.886419,11.5789341 133.961416,12.7903451 135.443686,12.7903451 C136.924999,12.7903451 137.981164,11.5976199 137.981164,10.1071886 C137.981164,8.61739057 136.907125,7.40724642 135.424855,7.40724642 L135.424855,7.40724642 L135.424855,7.40724642 Z M145.758615,8.07740215 L145.758615,13.3569371 L146.490493,13.3569371 L146.490493,6.83875421 L145.750635,6.83875421 L143.38711,10.3960269 L141.025181,6.83875421 L140.285322,6.83875421 L140.285322,13.3569371 L140.99805,13.3569371 L140.99805,8.08690341 L143.35998,11.5694329 L143.396685,11.5694329 L145.758615,8.07740215 L145.758615,8.07740215 Z" id="From"></path>
            <path d="M173.075016,10.1388594 L173.075016,10.1211237 C173.075016,8.63195918 171.990763,7.41231376 170.49764,7.41231376 C169.004837,7.41231376 167.943246,8.60978956 167.943246,10.1021212 L167.943246,10.1211237 C167.943246,11.6147222 169.02718,12.8286669 170.515195,12.8286669 C172.008956,12.8286669 173.075016,11.6299242 173.075016,10.1388594 L173.075016,10.1388594 L173.075016,10.1388594 Z M167.176895,10.1388594 L167.176895,10.1211237 C167.176895,8.31271675 168.527664,6.72727273 170.515195,6.72727273 C172.50528,6.72727273 173.839451,8.2927641 173.839451,10.1021212 C173.846792,10.1135227 173.846792,10.1135227 173.839451,10.1211237 C173.839451,11.9301641 172.489002,13.5156082 170.49764,13.5156082 C168.512024,13.5156082 167.176895,11.9507502 167.176895,10.1388594 L167.176895,10.1388594 L167.176895,10.1388594 Z M175.021373,13.4060269 L179.437223,13.4060269 L179.437223,12.7187689 L175.76187,12.7187689 L175.76187,6.84065446 L175.021373,6.84065446 L175.021373,13.4060269 L175.021373,13.4060269 Z M182.92841,12.7187689 C184.577292,12.7187689 185.632819,11.5957197 185.632819,10.1388594 L185.632819,10.1211237 C185.632819,8.66964752 184.577292,7.52284512 182.92841,7.52284512 L181.397944,7.52284512 L181.397944,12.7187689 L182.92841,12.7187689 L182.92841,12.7187689 Z M180.658405,6.84065446 L182.92841,6.84065446 C184.98297,6.84065446 186.397893,8.25507576 186.397893,10.1021212 L186.397893,10.1211237 C186.397893,11.9710196 184.98297,13.4060269 182.92841,13.4060269 L180.658405,13.4060269 L180.658405,6.84065446 L180.658405,6.84065446 Z M187.815689,13.4060269 L189.229336,13.4060269 L189.229336,9.14692761 L191.045468,11.9225631 L191.079939,11.9225631 L192.91969,9.11905724 L192.91969,13.4060269 L194.345785,13.4060269 L194.345785,6.84065446 L192.796487,6.84065446 L191.079939,9.61882365 L189.366583,6.84065446 L187.815689,6.84065446 L187.815689,13.4060269 L187.815689,13.4060269 L187.815689,13.4060269 Z M195.393652,10.589536 L195.393652,6.84065446 L196.831875,6.84065446 L196.831875,10.5527978 C196.831875,11.6235901 197.360118,12.1787805 198.237862,12.1787805 C199.114329,12.1787805 199.64704,11.6429093 199.64704,10.602521 L199.64704,6.84065446 L201.084306,6.84065446 L201.084306,10.5423464 C201.084306,12.5334943 199.974518,13.5086406 198.221583,13.5086406 C196.46801,13.5086406 195.393652,12.5243098 195.393652,10.589536 L195.393652,10.589536 L195.393652,10.589536 Z M203.974796,13.4060269 L205.412062,13.4060269 L205.412062,8.16798085 L207.405339,8.16798085 L207.405339,6.84065446 L201.986946,6.84065446 L201.986946,8.16798085 L203.974796,8.16798085 L203.974796,13.4060269 L203.974796,13.4060269 Z M208.35426,10.589536 L208.35426,6.84065446 L209.786738,6.84065446 L209.786738,10.5527978 C209.786738,11.6235901 210.323918,12.1787805 211.200066,12.1787805 C212.079086,12.1787805 212.606371,11.6429093 212.606371,10.602521 L212.606371,6.84065446 L214.04651,6.84065446 L214.04651,10.5423464 C214.04651,12.5334943 212.934169,13.5086406 211.180596,13.5086406 C209.42415,13.5086406 208.35426,12.5243098 208.35426,10.589536 L208.35426,10.589536 L208.35426,10.589536 Z M216.730491,10.6604787 L217.599937,8.5280787 L218.467148,10.6604787 L216.730491,10.6604787 L216.730491,10.6604787 Z M214.156946,13.4060269 L215.621661,13.4060269 L216.21725,11.9301641 L218.97975,11.9301641 L219.576297,13.4060269 L221.079952,13.4060269 L218.281066,6.7915646 L216.954555,6.7915646 L214.156946,13.4060269 L214.156946,13.4060269 Z M221.903755,6.84065446 L223.334956,6.84065446 L223.334956,12.0916856 L226.592823,12.0916856 L226.592823,13.4060269 L221.903755,13.4060269 L221.903755,6.84065446 L221.903755,6.84065446 Z" id="OM"></path>
            <path d="M155.75312,6.04395623 C155.75312,6.41957281 155.948457,6.74008207 156.244975,6.92123948 C155.675878,6.96589541 155.950692,7.69115846 156.368498,7.68419087 C156.408076,8.06487479 156.430738,8.93867424 156.430738,9.4181713 C156.430738,11.2037753 156.187204,13.3801978 155.580124,13.9711763 C155.141252,14.0079146 154.62482,13.9455229 154.08381,13.8020539 C153.504818,13.645283 153.008813,13.4087016 152.644629,13.1404493 C152.202884,13.1977736 151.819869,13.3130556 151.522074,13.4676094 C152.19299,14.0481366 152.935402,14.5950926 153.757928,15.0688889 C154.715786,15.6259796 155.704285,16.0601873 156.673953,16.3604272 L156.853651,16.3604272 C157.828106,16.0601873 158.810541,15.6259796 159.77223,15.0688889 C160.594755,14.5950926 161.337806,14.0481366 162.001699,13.4676094 C161.710927,13.3165394 161.327911,13.1977736 160.887762,13.1404493 C160.514322,13.4087016 160.026935,13.645283 159.443155,13.8020539 C158.90438,13.9455229 158.383798,14.0079146 157.950991,13.9711763 C157.341357,13.3801978 157.096227,11.2037753 157.096227,9.4181713 C157.096227,8.93867424 157.117293,8.06487479 157.162298,7.68419087 C157.572443,7.69115846 157.854279,6.96589541 157.281671,6.92123948 C157.5817,6.74008207 157.782783,6.41957281 157.782783,6.04395623 C157.782783,5.47926452 157.326994,5.02035354 156.762685,5.02035354 C156.202205,5.02035354 155.75312,5.47926452 155.75312,6.04395623 L155.75312,6.04395623 Z M156.297002,6.04395623 C156.297002,5.78140467 156.502873,5.56920981 156.762685,5.56920981 C157.024731,5.56920981 157.232198,5.78140467 157.232198,6.04395623 C157.232198,6.30524095 157.024731,6.51648569 156.762685,6.51648569 C156.504788,6.51648569 156.297002,6.30524095 156.297002,6.04395623 L156.297002,6.04395623 Z M153.761758,4.5956471 C152.770067,5.16762311 151.882109,5.8330282 151.122461,6.55575758 C150.956488,7.25980114 150.843818,8.01135101 150.787004,8.7850705 L150.787004,10.8392435 C150.829455,11.437823 150.908292,12.0164499 151.014898,12.5757576 C151.301521,12.3971338 151.590698,12.1238142 151.859447,11.7691004 C151.811251,11.3114562 151.856255,10.7676673 152.010419,10.1830229 C152.154688,9.6389173 152.358006,9.1613205 152.607604,8.79488847 C153.277243,8.60169613 154.745789,9.1613205 156.100706,9.85871317 C156.100706,9.70700968 156.106771,9.56797454 156.106771,9.4181713 C156.106771,9.2990888 156.106771,9.15625316 156.100706,9.00074916 C154.959001,8.22734638 153.946882,7.34626263 153.796229,6.72741372 C153.987099,6.3321612 154.295745,5.9090383 154.691528,5.51315236 C155.116037,5.08464541 155.563846,4.77870476 155.984525,4.58931292 C156.150498,4.17822496 156.244975,3.78740636 156.256466,3.45454545 C155.422449,3.74718434 154.58173,4.11868371 153.761758,4.5956471 L153.761758,4.5956471 Z M157.462646,10.6305324 C157.825872,10.8493782 158.21559,11.1005282 158.420504,11.2534985 C158.207292,11.6059954 158.692445,12.2159764 159.014816,11.7393298 C159.022477,12.0873927 159.201856,12.4272212 159.521993,12.614396 C159.645834,12.6821717 159.781167,12.7299947 159.910434,12.7413963 L160.150777,12.7413963 C160.455593,12.7037079 160.743493,12.528568 160.913297,12.2384628 C161.197367,11.7519981 161.028201,11.1280819 160.541452,10.8411437 C160.216847,10.6542856 159.839576,10.6637868 159.53859,10.8341761 C159.783401,10.3157239 159.019285,10.1966414 158.821074,10.5605398 C158.503171,10.422138 157.857152,10.0778756 157.426578,9.83179293 C157.4336,10.0978283 157.447006,10.3648138 157.462646,10.6305324 L157.462646,10.6305324 Z M159.800637,12.1339489 C159.5737,12.0082155 159.49582,11.7174769 159.62796,11.4932471 C159.75276,11.2668003 160.041936,11.1885732 160.265681,11.317157 C160.494852,11.4492245 160.569859,11.7348958 160.44123,11.9667266 C160.352179,12.1133628 160.196419,12.2020412 160.034276,12.2020412 C159.950332,12.2020412 159.872771,12.177338 159.800637,12.1339489 L159.800637,12.1339489 Z M157.559038,4.58931292 C157.979717,4.77870476 158.431037,5.08464541 158.854907,5.51315236 C159.252286,5.91220539 159.562529,6.3321612 159.751802,6.72741372 C159.598596,7.34626263 158.574029,8.23241372 157.426578,9.009617 C157.424025,9.1613205 157.424025,9.30415614 157.424025,9.4181713 C157.424025,9.56797454 157.424025,9.71461069 157.426578,9.86758102 C158.78788,9.1613205 160.263447,8.60169613 160.935001,8.79488847 C161.180769,9.1613205 161.39047,9.6389173 161.535378,10.1830229 C161.686988,10.7676673 161.731354,11.3114562 161.683158,11.7691004 C161.954461,12.1238142 162.250979,12.3971338 162.528346,12.5757576 C162.694319,11.7048085 162.792626,10.783186 162.792626,9.83179293 C162.792626,8.67992319 162.664955,7.57524306 162.42557,6.55575758 C161.66305,5.8330282 160.777007,5.16762311 159.783401,4.5956471 C158.96279,4.11868371 158.117921,3.74718434 157.28997,3.45454545 C157.300502,3.78740636 157.392745,4.17822496 157.559038,4.58931292 L157.559038,4.58931292 Z M154.724404,10.5605398 C154.525555,10.1966414 153.761758,10.3157239 154.009441,10.8341761 C153.705901,10.6637868 153.324482,10.6542856 153.003068,10.8411437 C152.519511,11.1239646 152.351622,11.7519981 152.62867,12.2384628 C152.913378,12.7299947 153.533864,12.8905661 154.01774,12.614396 C154.339154,12.4272212 154.524278,12.0873927 154.525555,11.7393298 C154.851437,12.2159764 155.337548,11.6059954 155.124974,11.2534985 C155.321589,11.1011616 155.710988,10.8563457 156.064639,10.639717 C156.082832,10.3755819 156.094961,10.1060627 156.100706,9.83527673 C155.672686,10.0791425 155.034965,10.426572 154.724404,10.5605398 L154.724404,10.5605398 Z M153.101694,11.9667266 C152.973065,11.7348958 153.049349,11.4492245 153.277243,11.317157 C153.504818,11.1885732 153.786335,11.2668003 153.917837,11.4932471 C154.047743,11.7174769 153.968905,12.0082155 153.745799,12.1339489 C153.669834,12.177338 153.591635,12.2020412 153.511202,12.2020412 C153.349697,12.2020412 153.193618,12.1133628 153.101694,11.9667266 L153.101694,11.9667266 Z" id="OM---icon"></path>
            <g id="Logo-22seven" transform="translate(3.000000, 0.000000)">
                <path d="M14.7720033,4.05766267 C15.8646516,2.22751507 17.501062,0.741362165 20.005864,0.580591797 C20.3404404,0.559634766 20.6777297,0.565023717 21.014416,0.595860491 C23.1496769,0.791958426 24.9358931,2.12901702 25.4151512,4.10795954 C25.5830423,4.70733064 25.6327766,5.36747712 25.5281838,6.04858064 C25.3120655,7.2628909 24.6591893,8.37690681 23.4851576,9.64211272 C22.9079378,10.37501 22.1619228,11.0366535 21.4825216,11.6740466 L18.9231626,14.1167383 L24.8722934,14.1167383 C26.6226406,14.1167383 26.6226406,16.7166077 24.8722934,16.7166077 L15.6696327,16.7166077 C14.1908652,16.7166077 13.6941246,15.4966091 14.7584394,14.4807919 L19.6721918,9.79090765 C20.2608655,9.23854018 20.9869868,8.63437891 21.464135,7.98351339 C22.4793183,6.89793917 22.8371041,6.16923326 22.9368742,5.62824247 C22.9805801,5.32616183 22.9477253,5.02138672 22.8723703,4.7579269 C22.7005607,4.02562835 21.9804678,3.29572489 20.7717728,3.18465262 C20.5719312,3.16609068 20.3729938,3.16279743 20.1740565,3.17507227 C18.8221868,3.26189425 17.8534222,4.00616825 17.032655,5.38065011 C16.1422596,6.87249135 13.8810052,5.54950391 14.7720033,4.05766267" id="Fill-1"></path>
                <path d="M3.65170727,5.38065011 C4.4721731,4.00646763 5.44093768,3.26189425 6.79280735,3.17537165 C6.9917447,3.16279743 7.19038062,3.16639007 7.39022222,3.18465262 C8.59921871,3.29572489 9.31931161,4.02592773 9.49081972,4.75822628 C9.56677761,5.0216861 9.59933099,5.3267606 9.55562506,5.62824247 C9.45555355,6.16953265 9.09776775,6.89823856 8.08258446,7.98351339 C7.60543626,8.63437891 6.87931495,9.23854018 6.29064127,9.79120703 L1.37688889,14.4807919 C0.312574102,15.4966091 0.80991746,16.7166077 2.28838363,16.7166077 L11.4907429,16.7166077 C13.2416929,16.7166077 13.2416929,14.1167383 11.4907429,14.1167383 L5.54191345,14.1167383 L8.10127251,11.6740466 C8.78037226,11.0366535 9.52668872,10.37501 10.103607,9.64241211 C11.2776388,8.37690681 11.9308164,7.2628909 12.1472361,6.04888002 C12.2518289,5.36717773 12.2011903,4.70703125 12.0336007,4.10825893 C11.5543425,2.12901702 9.76812632,0.792257812 7.63316692,0.596159877 C7.29648053,0.565023717 6.95949273,0.559634766 6.62461487,0.580891183 C4.11981287,0.741362165 2.48340251,2.22781445 1.39075422,4.05766267 C0.500057477,5.54980329 2.76101053,6.87279074 3.65170727,5.38065011" id="Fill-3"></path>
                <path d="M53.250404,7.46497656 L43.7604899,7.46497656 C44.2225671,4.89714146 46.1860184,3.198125 48.6248094,3.198125 C51.1636718,3.198125 52.8049049,5.06449833 53.250404,7.46497656 M56.0147288,8.65952734 L56.0147288,8.49546373 C55.9354553,4.72349749 53.5424802,0.602446987 48.6248094,0.602446987 C44.2888795,0.602446987 41.2035422,4.01006027 41.0229915,8.23679408 C41.0187716,8.3337952 41.0127432,8.58527958 41.0103318,8.80802288 C41.0091261,8.92418471 41.0091261,9.10561272 41.0091261,9.10561272 C41.1082934,13.8942944 44.6695733,17.0617999 48.9120628,17.0617999 C51.2679632,17.0617999 53.1877086,16.1148415 54.5844899,14.7789805 C55.8471392,13.5715561 54.0030503,11.7117693 52.740401,12.9191936 C51.7740478,13.8433987 50.4957246,14.4658225 48.9120628,14.4658225 C46.4048495,14.4658225 44.2144287,12.845844 43.7436104,10.060954 L54.6930012,10.060954 C55.596659,10.060954 56.0370339,9.37835352 56.0138246,8.71341685 L56.0147288,8.65952734" id="Fill-5"></path>
                <path d="M83.4108124,7.46497656 L73.9208982,7.46497656 C74.382674,4.89714146 76.3464267,3.198125 78.7852177,3.198125 C81.3240802,3.198125 82.9653133,5.06449833 83.4108124,7.46497656 M86.1751372,8.65952734 L86.1751372,8.49546373 C86.0958637,4.72349749 83.7028886,0.602446987 78.7852177,0.602446987 C74.4492879,0.602446987 71.3639505,4.01006027 71.1833998,8.23679408 C71.1791799,8.3337952 71.1743572,8.58527958 71.1716444,8.80802288 C71.1704388,8.92418471 71.1692331,9.10561272 71.1692331,9.10561272 C71.2687018,13.8942944 74.8299816,17.0617999 79.0724712,17.0617999 C81.4283716,17.0617999 83.348117,16.1148415 84.7448982,14.7789805 C86.0075475,13.5715561 84.1634586,11.7117693 82.9008094,12.9191936 C81.9344561,13.8433987 80.656133,14.4658225 79.0724712,14.4658225 C76.5652578,14.4658225 74.3748371,12.845844 73.9040187,10.060954 L84.8534095,10.060954 C85.7570673,10.060954 86.1974423,9.37835352 86.1742329,8.71341685 L86.1751372,8.65952734" id="Fill-6"></path>
                <path d="M90.4884605,1.89130441 L90.4884605,2.5664202 C91.6661093,1.37486328 93.1795402,0.605440848 94.9090894,0.602446987 C99.2564732,0.602446987 101.836027,3.63313309 101.836027,7.70538365 L101.836027,15.7307291 C101.836027,17.4611811 99.1925721,17.4611811 99.1925721,15.7307291 L99.1925721,7.70538365 C99.1925721,4.87289118 97.6092117,3.19842439 94.9111993,3.19842439 C92.3542516,3.20261579 90.5321664,4.98426283 90.4878576,7.68771987 L90.4878576,7.77304492 L90.4872548,15.7310285 C90.4869534,17.4614805 87.8437995,17.4611811 87.8437995,15.7307291 L87.8450052,1.89100502 C87.8453066,0.160553013 90.4884605,0.1608524 90.4884605,1.89130441" id="Fill-8"></path>
                <path d="M36.7316718,4.68517606 C35.8849825,3.64959933 34.6545851,3.21369308 33.3816876,3.21369308 C31.1243515,3.21369308 30.2987616,4.33579241 30.2987616,5.16359515 C30.2987616,6.60693583 32.9961711,7.14732785 34.0011061,7.42994838 C36.534543,8.11224944 39.6195789,9.08525446 39.6195789,12.2758128 C39.6195789,15.3651786 36.6297918,17.0459325 33.7087285,17.0459325 C31.7663766,17.0459325 29.7450526,16.3375848 28.3096896,14.8729877 C27.087732,13.6260444 28.9924063,11.8261348 30.2143639,13.0730781 C31.0854683,13.9619556 32.3842881,14.4499551 33.7087285,14.4499551 C35.9594332,14.4499551 36.9761236,13.2631883 36.9761236,12.2758128 C36.9761236,10.7390636 34.3814984,10.22382 33.2810132,9.92742773 C30.8096688,9.23285184 27.6553063,8.31972405 27.6553063,5.16359515 C27.6553063,2.30864872 30.3530172,0.617715681 33.3816876,0.617715681 C35.2628511,0.617715681 37.3348137,1.27696401 38.7927833,3.06010798 C39.8962827,4.40944141 37.8348698,6.03450949 36.7316718,4.68517606" id="Fill-9"></path>
                <path d="M71.0344982,2.43798354 L65.0139308,16.0355042 C64.9647993,16.2612414 64.8496568,16.4591356 64.6932197,16.6193072 C64.4273671,16.9339621 64.0632515,17.0638956 63.70215,17.0522196 C63.3407472,17.0638956 62.9766316,16.9339621 62.7107789,16.6193072 C62.5543419,16.459435 62.4388979,16.2612414 62.3897664,16.0355042 L56.3673905,2.43798354 C55.6644785,0.851236886 58.0884999,-0.184339844 58.7914119,1.40270619 L63.7018486,12.4892751 L68.6104769,1.40300558 C69.3130874,-0.184040458 71.7371088,0.8509375 71.0344982,2.43798354" id="Fill-10"></path>
            </g>
        </g>
    </g>
</svg>