<?xml version="1.0" encoding="UTF-8"?>
<svg width="50px" height="50px" viewBox="0 0 50 50" version="1.1" xmlns="http://www.w3.org/2000/svg" xmlns:xlink="http://www.w3.org/1999/xlink">
    <!-- Generator: Sketch 52.6 (67491) - http://www.bohemiancoding.com/sketch -->
    <desc>Created with Sketch.</desc>
    <g id="Page-1" stroke="none" stroke-width="1" fill="none" fill-rule="evenodd">
        <g id="Test-pilot">
            <g id="test-pilot" transform="translate(6.000000, 3.000000)">
                <g id="Group-9">
                    <g id="Group-3" transform="translate(0.000000, 8.000000)" fill="#32B1C9" fill-rule="nonzero">
                        <path d="M20.4771732,33.8752801 C20.0656474,33.9320968 19.6865478,33.6403911 19.6304306,33.2237381 C19.5743135,32.8070852 19.8624291,32.4232623 20.273955,32.366446 C22.6491945,32.0385141 24.6805206,31.175235 26.0062624,29.8329755 C27.8340514,27.9824139 29.2327997,24.766515 29.2327997,22.2286252 L29.2327997,12.1823864 C29.2327997,9.57553972 27.9733922,6.7811747 26.0062624,4.78953589 C24.1037598,2.86332928 21.235018,1.5227983 18.7043875,1.5227983 L17.2421081,1.5227983 C14.6673411,1.5227983 11.907363,2.79789707 9.94023322,4.78953589 C8.0377306,6.71574196 6.71369593,9.62022645 6.71369593,12.1823864 L6.71369593,22.2286252 C6.71369593,22.6491343 6.37700086,22.9900244 5.96166649,22.9900244 C5.54633212,22.9900244 5.20963705,22.6491343 5.20963705,22.2286252 L5.20963705,12.1823864 C5.20963705,9.19267756 6.70571277,5.91079395 8.87670295,3.71275463 C11.1136266,1.4479607 14.2477682,0 17.2421081,0 L18.7043875,0 C21.6573051,0 24.8988024,1.51471584 27.0697927,3.71275463 C29.3067163,5.97754857 30.7368586,9.15073928 30.7368586,12.1823864 L30.7368586,22.2286252 C30.7368586,25.1831199 29.1716657,28.7816958 27.0697927,30.9097567 C25.4843094,32.514994 23.1526924,33.505891 20.4771732,33.8752801 Z" id="Shape"></path>
                        <path d="M5.66479655,21.6239881 C6.07499788,21.6566403 6.3819522,22.0272176 6.35039828,22.4516964 C6.31884432,22.8761748 5.96073088,23.1938129 5.55052956,23.1611607 C2.426352,22.9124752 0,20.0693604 0,16.6111461 C0,13.1529318 2.426352,10.309817 5.55052956,10.0611315 C5.96073088,10.0284793 6.31884432,10.3461174 6.35039828,10.7705958 C6.3819522,11.1950747 6.07499788,11.5656519 5.66479655,11.5983041 C3.33252366,11.7839543 1.48985882,13.9431246 1.48985882,16.6111461 C1.48985882,19.2791677 3.33252366,21.4383379 5.66479655,21.6239881 Z M30.7169927,23.1611607 C30.3067914,23.1938129 29.948678,22.8761748 29.917124,22.4516964 C29.8855701,22.0272176 30.1925244,21.6566403 30.6027257,21.6239881 C32.9349986,21.4383379 34.7776635,19.2791677 34.7776635,16.6111461 C34.7776635,13.9431246 32.9349986,11.7839543 30.6027257,11.5983041 C30.1925244,11.5656519 29.8855701,11.1950747 29.917124,10.7705958 C29.948678,10.3461174 30.3067914,10.0284793 30.7169927,10.0611315 C33.8411703,10.309817 36.2675223,13.1529318 36.2675223,16.6111461 C36.2675223,20.0693604 33.8411703,22.9124752 30.7169927,23.1611607 Z M12.4493993,21.8730574 C12.3266851,21.4667043 12.5455401,21.0343477 12.9382257,20.9073624 C13.3309114,20.7803771 13.7487255,21.0068495 13.8714398,21.4132026 C14.3037338,22.8446912 15.8148126,23.8700505 17.712766,23.8700505 C19.5453063,23.8700505 21.1320611,22.8107071 21.5540921,21.4132026 C21.6768064,21.0068495 22.0946206,20.7803771 22.4873062,20.9073624 C22.8799918,21.0343477 23.0988468,21.4667043 22.9761326,21.8730574 C22.3478633,23.9534942 20.1635697,25.4117647 17.712766,25.4117647 C15.1928741,25.4117647 13.0863948,23.9823901 12.4493993,21.8730574 Z" id="Shape"></path>
                        <path d="M17.712766,31.1616673 C16.778804,31.1616673 16.0774229,31.8744221 16.0774229,32.8235294 C16.0774229,33.7726367 16.778804,34.4853915 17.712766,34.4853915 C18.646728,34.4853915 19.348109,33.7726367 19.348109,32.8235294 C19.348109,31.8744221 18.646728,31.1616673 17.712766,31.1616673 Z M17.712766,29.6470588 C19.4698748,29.6470588 20.8385482,31.037927 20.8385482,32.8235294 C20.8385482,34.6091319 19.4698748,36 17.712766,36 C15.9556572,36 14.5869837,34.6091319 14.5869837,32.8235294 C14.5869837,31.037927 15.9556572,29.6470588 17.712766,29.6470588 Z" id="Shape"></path>
                    </g>
                    <g id="Group-8" transform="translate(2.361702, 0.000000)" fill="#FFFFFF" stroke="#32B1C9" stroke-width="1.584">
                        <path d="M24.0705004,3.04700036 L29.7122196,7.52837427 C31.2613078,8.75885415 31.7018312,10.9247178 30.7564797,12.6625513 C30.0507352,13.959917 29.6199347,14.7329128 29.4640783,14.981539 C29.353085,15.1585982 29.2054357,15.3802042 29.0211302,15.646357 C28.6895292,16.0942595 28.4437448,16.4191416 28.2837768,16.6210032 C27.3674824,17.777264 26.5362393,18.6114102 25.7900476,19.1234417 C24.2740314,20.1637213 21.3759191,20.8809576 17.0957107,21.2751507 L17.095711,21.2751532 C16.0221152,21.3740278 14.9410893,21.3595032 13.8705375,21.2318198 C9.83952265,20.7510459 6.90978657,19.8609993 5.08132927,18.56168 C4.30904333,18.0128862 3.5492893,17.292152 2.80206715,16.3994774 C2.60218816,16.1606905 2.40320588,15.9096005 2.20512031,15.6462074 C2.01644004,15.3953205 1.80407188,15.0853864 1.56801584,14.7164051 C1.46552123,14.5561948 1.20983551,14.1159884 0.800958686,13.3957858 L0.800961466,13.3957842 C-0.167645815,11.6896629 0.218070114,9.5354221 1.7184843,8.27137804 L7.63860523,3.28389271 C12.3616941,-0.695136844 19.23467,-0.794221911 24.0705004,3.04700036 Z" id="Rectangle-4"></path>
                        <ellipse id="Oval-6" cx="15.8212565" cy="17.4327687" rx="12.6269223" ry="4.78687911"></ellipse>
                    </g>
                </g>
                <g id="Group" transform="translate(13.214286, 4.400000)" fill="#32B1C9">
                    <path d="M0.48716581,1.44170213 L10.0292372,1.44170213 C10.3014032,1.44170213 10.5220372,1.6623362 10.5220372,1.93450213 C10.5220372,1.96028139 10.5200144,1.98602091 10.5159873,2.01148369 L10.4817309,2.22808511 C10.4101063,2.68096376 10.0197117,3.01446809 9.56120415,3.01446809 L0.95519889,3.01446809 C0.496691344,3.01446809 0.106296757,2.68096376 0.0346721078,2.22808511 L0.000415690326,2.01148369 C-0.0421000521,1.74265902 0.14135958,1.49026775 0.410184249,1.44775201 C0.43564703,1.44372496 0.461386549,1.44170213 0.48716581,1.44170213 Z" id="Rectangle"></path>
                    <path d="M1.85687167,2.75234043 L8.59289267,2.75234043 C8.8650586,2.75234043 9.08569267,2.9729745 9.08569267,3.24514043 C9.08569267,3.26411 9.08459737,3.28306376 9.08241222,3.30190706 L9.05495006,3.5387234 C9.00297062,3.98696123 8.62334678,4.32510638 8.17210515,4.32510638 L2.2776592,4.32510638 C1.82641757,4.32510638 1.44679373,3.98696123 1.39481429,3.5387234 L1.36735212,3.30190706 C1.33600078,3.03155287 1.52975086,2.78697222 1.80010504,2.75562088 C1.81894834,2.75343573 1.8379021,2.75234043 1.85687167,2.75234043 Z" id="Rectangle-Copy"></path>
                    <ellipse id="Oval" cx="5.28571429" cy="3.08" rx="1.05714286" ry="3.08"></ellipse>
                    <path d="M3.01007994,3.80085106 L7.68841033,3.80085106 C7.96057625,3.80085106 8.18121033,4.02148514 8.18121033,4.29365106 C8.18121033,4.3075892 8.180619,4.32152106 8.17943793,4.33540907 L8.15802221,4.58723404 C8.12020497,5.03192266 7.74821884,5.37361702 7.30192509,5.37361702 L3.39656518,5.37361702 C2.95027143,5.37361702 2.5782853,5.03192266 2.54046806,4.58723404 L2.51905234,4.33540907 C2.49599003,4.06422202 2.69713488,3.82568577 2.96832193,3.80262346 C2.98220994,3.80144239 2.9961418,3.80085106 3.01007994,3.80085106 Z" id="Rectangle-Copy-2"></path>
                </g>
            </g>
        </g>
    </g>
</svg>