<?xml version="1.0" encoding="UTF-8"?>
<svg width="144px" height="145px" viewBox="0 0 144 145" version="1.1" xmlns="http://www.w3.org/2000/svg" xmlns:xlink="http://www.w3.org/1999/xlink">
    <!-- Generator: Sketch 52.6 (67491) - http://www.bohemiancoding.com/sketch -->
    <desc>Created with Sketch.</desc>
    <defs>
        <circle id="path-1" cx="41.4" cy="41.4" r="41.4"></circle>
        <filter x="-65.8%" y="-50.1%" width="231.6%" height="231.6%" filterUnits="objectBoundingBox" id="filter-2">
            <feOffset dx="0" dy="13" in="SourceAlpha" result="shadowOffsetOuter1"></feOffset>
            <feGaussianBlur stdDeviation="16" in="shadowOffsetOuter1" result="shadowBlurOuter1"></feGaussianBlur>
            <feColorMatrix values="0 0 0 0 0   0 0 0 0 0   0 0 0 0 0  0 0 0 0.07 0" type="matrix" in="shadowBlurOuter1"></feColorMatrix>
        </filter>
    </defs>
    <g id="Page-1" stroke="none" stroke-width="1" fill="none" fill-rule="evenodd">
        <g id="icon/read-only" transform="translate(30.000000, 18.000000)">
            <g id="Oval-Copy-9" fill-rule="nonzero">
                <use fill="black" fill-opacity="1" filter="url(#filter-2)" xlink:href="#path-1"></use>
                <use fill="#FFFFFF" xlink:href="#path-1"></use>
            </g>
            <g id="Phone" transform="translate(27.000000, 29.000000)" fill="#BD4D9C" stroke="#BD4D9C" stroke-width="1.24146">
                <g id="icon---phone-number">
                    <path d="M20.93553,15.3415732 C20.3927115,14.8005298 19.7379716,14.5112592 19.0440593,14.5112592 C18.355743,14.5112592 17.6954071,14.795173 17.1302043,15.3362163 L15.3618471,17.0236286 C15.2163494,16.9486325 15.0708516,16.8789933 14.9309499,16.8093541 C14.7294915,16.7129305 14.5392252,16.6218638 14.3769393,16.5254402 C12.7205034,15.5183497 11.2151613,14.2059179 9.771376,12.5077918 C9.0718676,11.6614072 8.60179796,10.9489442 8.26043786,10.2257675 C8.71931537,9.82400265 9.14461647,9.40616721 9.55872544,9.00440237 C9.71541532,8.85441016 9.87210521,8.69906109 10.0287951,8.54906888 C11.2039692,7.42412732 11.2039692,5.96706015 10.0287951,4.84211859 L8.50106875,3.37969456 C8.32759067,3.21363176 8.14851652,3.04221209 7.9806345,2.87079243 C7.64487047,2.53866682 7.29231824,2.19582749 6.92857387,1.87441561 C6.38575536,1.36015662 5.73661157,1.08695652 5.05389137,1.08695652 C4.37117118,1.08695652 3.71083525,1.36015662 3.15122854,1.87441561 C3.14563247,1.87977248 3.14563247,1.87977248 3.1400364,1.88512934 L1.23737356,3.72253389 C0.521076967,4.40821256 0.112564063,5.24388343 0.0230269886,6.21347592 C-0.111278623,7.77768038 0.369983153,9.23474755 0.739323586,10.1882694 C1.64588647,12.5292193 3.00013472,14.6987494 5.02031497,17.0236286 C7.47139239,19.8252688 10.4205198,22.0376539 13.7893522,23.5965015 C15.0764477,24.1803997 16.7944403,24.8714353 18.7138913,24.9892863 C18.8314087,24.9946431 18.9545222,25 19.0664436,25 C20.3591351,25 21.4447721,24.5553802 22.2953743,23.6714976 C22.3009704,23.6607839 22.3121625,23.655427 22.3177586,23.6447133 C22.6087541,23.3072308 22.9445181,23.0018895 23.2970703,22.6751208 C23.5377012,22.4554893 23.7839282,22.2251441 24.0245591,21.9840852 C24.5785697,21.4323282 24.8695652,20.7895044 24.8695652,20.1306101 C24.8695652,19.4663589 24.5729737,18.828892 24.0077709,18.2932055 L20.93553,15.3415732 Z M22.938922,20.9823516 C22.933326,20.9823516 22.933326,20.9877084 22.938922,20.9823516 C22.7206754,21.2073399 22.4968327,21.4109007 22.2562018,21.635889 C21.8924575,21.9680146 21.5231171,22.3162108 21.1761609,22.707262 C20.6109581,23.2858033 19.9450261,23.5590034 19.0720396,23.5590034 C18.9880986,23.5590034 18.8985615,23.5590034 18.8146205,23.5536466 C17.1525886,23.4518661 15.6080741,22.8304698 14.4496881,22.3001403 C11.2823141,20.8323594 8.50106875,18.748539 6.18989301,16.1076048 C4.2816341,13.9059335 3.00573079,11.8703249 2.16072465,9.68472417 C1.6402904,8.35086489 1.45002412,7.31163316 1.53396512,6.33132694 C1.5899258,5.70457379 1.84174882,5.18495792 2.30622239,4.74033816 L4.2144813,2.91364734 C4.48868859,2.66723157 4.77968408,2.53330996 5.06508351,2.53330996 C5.41763574,2.53330996 5.70303516,2.73687081 5.88210931,2.90829048 C5.88770538,2.91364734 5.89330145,2.91900421 5.89889752,2.92436107 C6.24025761,3.22970235 6.56482951,3.54575736 6.90618961,3.88323983 C7.07966769,4.0546595 7.25874184,4.22607916 7.43781599,4.4028557 L8.96554232,5.86527973 C9.55872544,6.43310737 9.55872544,6.9580801 8.96554232,7.52590775 C8.80325638,7.68125682 8.6465665,7.83660589 8.48428055,7.9865981 C8.01421091,8.44728845 7.56652553,8.87583762 7.07966769,9.29367306 C7.06847555,9.30438679 7.05728342,9.30974365 7.05168735,9.32045738 C6.57042558,9.78114773 6.65996265,10.2311244 6.76069186,10.5364656 C6.76628793,10.5525362 6.77188399,10.5686068 6.77748006,10.5846774 C7.17480083,11.5060581 7.73440755,12.3738702 8.58500976,13.4077451 L8.59060582,13.4131019 C10.1351204,15.2344359 11.7635759,16.654005 13.5599135,17.7414485 C13.7893522,17.880727 14.024387,17.9932211 14.2482297,18.1003584 C14.4496881,18.196782 14.6399544,18.2878487 14.8022404,18.3842722 C14.8246246,18.394986 14.8470089,18.4110566 14.8693932,18.4217703 C15.0596595,18.512837 15.2387336,18.5556919 15.4234038,18.5556919 C15.8878774,18.5556919 16.1788729,18.277135 16.274006,18.1860683 L18.187861,16.3540206 C18.3781273,16.1718872 18.6803149,15.9522557 19.0328672,15.9522557 C19.3798233,15.9522557 19.6652228,16.1611734 19.8387008,16.3433068 C19.8442969,16.3486637 19.8442969,16.3486637 19.849893,16.3540206 L22.933326,19.305653 C23.5097209,19.8520531 23.5097209,20.4145239 22.938922,20.9823516 Z" id="Shape"></path>
                    <path d="M14.1810153,5.77495475 C15.6329208,6.00942798 16.9518273,6.67021618 18.0047359,7.68271422 C19.0576444,8.69521226 19.7392642,9.96349928 19.9886372,11.3596808 C20.0495951,11.7113906 20.3654677,11.9565217 20.7256732,11.9565217 C20.7700062,11.9565217 20.8087976,11.9511928 20.8531306,11.9458639 C21.2632108,11.8819166 21.5347503,11.508891 21.4682508,11.1145497 C21.1690031,9.42527664 20.3377596,7.88521383 19.0687277,6.66488724 C17.7996958,5.44456065 16.1981664,4.64522009 14.4414716,4.35745749 C14.0313915,4.29351025 13.6490194,4.55462816 13.5769783,4.94364057 C13.5049372,5.33265297 13.7709351,5.71100751 14.1810153,5.77495475 Z" id="Path"></path>
                    <path d="M25.9886096,11.1260814 C25.4960585,8.34730007 24.134625,5.81871557 22.0426663,3.80649464 C19.9507075,1.79427371 17.3219234,0.484733099 14.4330279,0.0109562135 C14.0290253,-0.0582471519 13.6471598,0.207919638 13.5752142,0.596523151 C13.5088028,0.99045 13.7799826,1.35776017 14.1895195,1.42696354 C16.7684951,1.84750706 19.1205651,3.02396427 20.9911526,4.81792844 C22.8617401,6.61721594 24.0792822,8.87963365 24.5164905,11.3603081 C24.5773676,11.7116483 24.8928217,11.9565217 25.2525501,11.9565217 C25.2968243,11.9565217 25.3355643,11.9511984 25.3798386,11.9458751 C25.7838412,11.8873184 26.0605553,11.5146849 25.9886096,11.1260814 Z" id="Path"></path>
                </g>
            </g>
        </g>
    </g>
</svg>