<?xml version="1.0" encoding="UTF-8"?>
<svg width="25px" height="20px" viewBox="0 0 25 20" version="1.1" xmlns="http://www.w3.org/2000/svg" xmlns:xlink="http://www.w3.org/1999/xlink">
    <!-- Generator: Sketch 57.1 (83088) - https://sketch.com -->
    <title>icon - email@1x</title>
    <desc>Created with Sketch.</desc>
    <g id="Page-1" stroke="none" stroke-width="1" fill="none" fill-rule="evenodd">
        <g id="contact" transform="translate(-293.000000, -622.000000)" fill="#93B83F" stroke="#93B83F" stroke-width="1.45935">
            <g id="Group" transform="translate(232.000000, 590.000000)">
                <g id="Group-8" transform="translate(32.000000, 0.000000)">
                    <g id="Insured">
                        <g id="icon/insured">
                            <g id="Email" transform="translate(28.900000, 33.000000)">
                                <g id="icon---email" transform="translate(0.925926, 0.000000)">
                                    <path d="M21.9907407,0.0334873096 L1.15740741,0.0334873096 C0.518211082,0.0334873096 0,0.557086294 0,1.20303046 L0,16.7969239 C0,17.4428223 0.518165871,17.966467 1.15740741,17.966467 L21.9907407,17.966467 C22.6299371,17.966467 23.1481481,17.442868 23.1481481,16.7969239 L23.1481481,1.20303046 C23.1481481,0.55713198 22.6299823,0.0334873096 21.9907407,0.0334873096 Z M22.3765281,16.7969695 C22.3765281,17.0122843 22.2038213,17.186802 21.9907407,17.186802 L1.15740741,17.186802 C0.944326895,17.186802 0.771620009,17.0122843 0.771620009,16.7969695 L0.771620009,1.20303046 C0.771620009,0.987715736 0.944326895,0.81319797 1.15740741,0.81319797 L21.9907407,0.81319797 C22.2038213,0.81319797 22.3765281,0.987715736 22.3765281,1.20303046 L22.3765281,16.7969695 Z" id="Shape" fill-rule="nonzero"></path>
                                    <path d="M21.2527127,1.59432487 C21.1507614,1.58532487 21.049443,1.61762437 20.9710919,1.68414213 L12.0705838,9.23934518 C11.7835377,9.48316751 11.3645652,9.48316751 11.0775192,9.23934518 L2.17710142,1.68409645 C2.0715332,1.5945533 1.92667643,1.56869543 1.79714627,1.61629949 C1.6676161,1.66390355 1.57303422,1.77775127 1.54907227,1.91494416 C1.52511032,2.05213706 1.5753852,2.19179695 1.68095341,2.2813401 L10.5814164,9.83617766 C11.1550564,10.3242335 11.9930917,10.3242335 12.566777,9.83617766 L21.4671947,2.28138579 C21.545591,2.21491371 21.5946,2.11970558 21.6035066,2.01668528 C21.6124132,1.91366497 21.5804489,1.81128426 21.5146213,1.73211168 C21.4488842,1.65284772 21.354664,1.60332487 21.2527127,1.59432487 Z" id="Path"></path>
                                    <path d="M7.4202474,9.78258883 C7.28366428,9.75179695 7.14133934,9.79812183 7.04820421,9.90365482 L1.64695457,15.7513706 C1.5492079,15.8525178 1.51331019,15.9992589 1.55318649,16.1347614 C1.59306279,16.2703096 1.70242875,16.3733756 1.83896665,16.4041675 C1.97554977,16.4349594 2.11787471,16.3886345 2.21100984,16.2831015 L7.61225948,10.4353858 C7.71000615,10.3342386 7.74590386,10.1874975 7.70602756,10.0519949 C7.66615126,9.91649239 7.55683051,9.81338071 7.4202474,9.78258883 Z" id="Path"></path>
                                    <path d="M16.0999439,9.90365482 C16.006854,9.79812183 15.8644839,9.75179695 15.7279008,9.78258883 C15.5913176,9.81338071 15.4819969,9.91649239 15.4421206,10.0519949 C15.4022443,10.1875431 15.438142,10.3342386 15.5358887,10.4353858 L20.9371383,16.2831015 C21.0836227,16.4346853 21.3230613,16.4403503 21.4763726,16.295802 C21.6296839,16.1512538 21.6407154,15.9094873 21.5011936,15.7513249 L16.0999439,9.90365482 Z" id="Path"></path>
                                </g>
                            </g>
                        </g>
                    </g>
                </g>
            </g>
        </g>
    </g>
</svg>