<?xml version="1.0" encoding="UTF-8"?>
<svg width="76px" height="100px" viewBox="0 0 76 100" version="1.1" xmlns="http://www.w3.org/2000/svg" xmlns:xlink="http://www.w3.org/1999/xlink">
    <!-- Generator: Sketch 52.6 (67491) - http://www.bohemiancoding.com/sketch -->
    <desc>Created with Sketch.</desc>
    <g id="Page-1" stroke="none" stroke-width="1" fill="none" fill-rule="evenodd">
        <g id="illustration/goals/taxfree">
            <g id="cookies" fill-rule="nonzero">
                <path d="M39.9116327,0 L36.0883673,0 C34.5086531,0 33.2280918,1.29023437 33.2280918,2.88144531 L33.2280918,10.3402344 L42.7719082,10.3402344 L42.7719082,2.88144531 C42.772102,1.29023437 41.4913469,0 39.9116327,0 Z" id="Shape" fill="#9A9B9D"></path>
                <path d="M58.5318265,6.06914062 L17.4683673,6.06914062 C15.0842551,6.06914062 13.1514898,8.01621094 13.1514898,10.4179687 L13.1514898,13.3162109 L38.0001939,17.3796875 L62.848898,13.3162109 L62.848898,10.4181641 C62.8487041,8.01621094 60.9159388,6.06914062 58.5318265,6.06914062 Z" id="Shape" fill="#B3B5B7"></path>
                <path d="M21.140602,13.3162109 L21.140602,10.4181641 C21.140602,8.01640625 23.0733673,6.06933594 25.4574796,6.06933594 L17.4683673,6.06933594 C15.0842551,6.06933594 13.1514898,8.01640625 13.1514898,10.4181641 L13.1514898,13.3164062 L38.0001939,17.3798828 L41.9948469,16.7265625 L21.140602,13.3162109 Z" id="Shape" fill="#9A9B9D"></path>
                <path d="M62.8487041,13.3162109 L13.1514898,13.3162109 C11.0442347,13.3162109 9.33578571,15.0371094 9.33578571,17.1601562 L9.33578571,21.4427734 L38,26.5402344 L66.6642143,21.4427734 L66.6642143,17.1601562 C66.6644082,15.0373047 64.9561531,13.3162109 62.8487041,13.3162109 Z" id="Shape" fill="#E3E6E8"></path>
                <path d="M17.324898,21.4427734 L17.324898,17.1601562 C17.324898,15.0373047 19.0331531,13.3162109 21.140602,13.3162109 L13.1514898,13.3162109 C11.0442347,13.3162109 9.33578571,15.0371094 9.33578571,17.1601562 L9.33578571,21.4427734 L38,26.5402344 L41.9946531,25.8298828 L17.324898,21.4427734 Z" id="Shape" fill="#B3B5B7"></path>
                <path d="M66.6644082,21.4427734 L9.33578571,21.4427734 C3.49347959,25.9992188 0.0736734694,33.0232422 0.0736734694,40.4664063 L0.0736734694,89.2474609 C0.0736734694,95.1859375 4.85236735,100 10.7472143,100 L65.2525918,100 C71.1474388,100 75.9261327,95.1859375 75.9261327,89.2474609 L75.9261327,40.4666016 C75.9265204,33.0232422 72.5067143,25.9994141 66.6644082,21.4427734 Z" id="Shape" fill="#FFD57A"></path>
                <path d="M8.06297959,89.2474609 L8.06297959,40.4666016 C8.06297959,33.0236328 11.4827857,25.9994141 17.3250918,21.4429687 L9.33597959,21.4429687 C3.49367347,25.9994141 0.0738673469,33.0234375 0.0738673469,40.4666016 L0.0738673469,89.2474609 C0.0738673469,95.1859375 4.85256122,100 10.7474082,100 L18.7365204,100 C12.8416735,100 8.06297959,95.1859375 8.06297959,89.2474609 Z" id="Shape" fill="#ECC369"></path>
                <g id="Group" transform="translate(20.744898, 32.226562)" fill="#3B484A">
                    <path d="M1.51903061,5.90996094 C0.691755102,5.90996094 0.0211326531,5.234375 0.0211326531,4.40097656 L0.0211326531,1.53203125 C0.0211326531,0.698632812 0.691755102,0.023046875 1.51903061,0.023046875 C2.34630612,0.023046875 3.01692857,0.698632812 3.01692857,1.53203125 L3.01692857,4.40097656 C3.01692857,5.234375 2.34630612,5.90996094 1.51903061,5.90996094 Z" id="Shape"></path>
                    <path d="M32.9913673,5.90996094 C32.1640918,5.90996094 31.4934694,5.234375 31.4934694,4.40097656 L31.4934694,1.53203125 C31.4934694,0.698632812 32.1640918,0.023046875 32.9913673,0.023046875 C33.8186429,0.023046875 34.4892653,0.698632812 34.4892653,1.53203125 L34.4892653,4.40097656 C34.4894592,5.234375 33.8186429,5.90996094 32.9913673,5.90996094 Z" id="Shape"></path>
                    <path d="M17.2552959,8.03046875 C14.9632755,8.03046875 12.8127857,7.0671875 11.3552143,5.38769531 C10.8108061,4.76015625 10.8742041,3.80683594 11.4971327,3.25839844 C12.1200612,2.70996094 13.0663776,2.77402344 13.6107857,3.40136719 C14.4991327,4.42519531 15.8273878,5.0125 17.255102,5.0125 C18.6826224,5.0125 20.0106837,4.42539063 20.8992245,3.40136719 C21.4438265,2.77402344 22.3901429,2.70976563 23.0128776,3.25839844 C23.6358061,3.80683594 23.699398,4.76015625 23.1547959,5.38769531 C21.6978061,7.0671875 19.5473163,8.03046875 17.2552959,8.03046875 Z" id="Shape"></path>
                </g>
                <path d="M64.6178367,54.7740234 C64.1827755,54.184375 63.8169286,53.5460938 63.5274694,52.8716797 C62.3436531,50.1130859 59.9372449,48.0791016 57.0350918,47.3835938 C56.3256939,47.2136719 55.6380102,46.9615234 54.986,46.6322266 C52.3190204,45.2857422 49.1776224,45.2857422 46.5106429,46.6322266 C45.8586327,46.9613281 45.1711429,47.2134766 44.461551,47.3835938 C41.5592041,48.0789063 39.1529898,50.1130859 37.9691735,52.8716797 C37.6797143,53.5458984 37.3138673,54.184375 36.8788061,54.7740234 C35.099398,57.1861328 34.5538265,60.3025391 35.4070816,63.1822266 C35.6156939,63.8863281 35.7426837,64.6123047 35.7857245,65.3457031 C35.9617653,68.3457031 37.5323673,71.0863281 40.0233061,72.7398437 C40.6322755,73.1441406 41.1927755,73.6179687 41.6935612,74.1519531 C43.7426531,76.3363281 46.6944388,77.4185547 49.6576633,77.0720703 C50.3819898,76.9873047 51.1136837,76.9873047 51.8380102,77.0720703 C54.8014286,77.4185547 57.7532143,76.3363281 59.8021122,74.1519531 C60.3030918,73.6179688 60.863398,73.1441406 61.4723673,72.7398437 C63.9633061,71.0863281 65.534102,68.3458984 65.709949,65.3457031 C65.7527959,64.6123047 65.8799796,63.8863281 66.0885918,63.1822266 C66.9426224,60.3025391 66.3972449,57.1861328 64.6178367,54.7740234 Z" id="Shape" fill="#CE9964"></path>
                <path d="M11.3823571,54.7740234 C11.8174184,54.184375 12.1832653,53.5460938 12.4727245,52.8716797 C13.6565408,50.1130859 16.062949,48.0791016 18.965102,47.3835938 C19.6745,47.2136719 20.3621837,46.9615234 21.0141939,46.6322266 C23.6811735,45.2857422 26.8225714,45.2857422 29.489551,46.6322266 C30.1415612,46.9613281 30.829051,47.2134766 31.5386429,47.3835938 C34.4409898,48.0789063 36.8472041,50.1130859 38.0310204,52.8716797 C38.3204796,53.5458984 38.6863265,54.184375 39.1213878,54.7740234 C40.9007959,57.1861328 41.4463673,60.3025391 40.5931122,63.1822266 C40.3845,63.8863281 40.2575102,64.6123047 40.2144694,65.3457031 C40.0384286,68.3457031 38.4678265,71.0863281 35.9768878,72.7398437 C35.3679184,73.1441406 34.8074184,73.6179687 34.3066327,74.1519531 C32.2575408,76.3363281 29.3057551,77.4185547 26.3425306,77.0720703 C25.6182041,76.9873047 24.8865102,76.9873047 24.1621837,77.0720703 C21.1987653,77.4185547 18.2469796,76.3363281 16.1980816,74.1519531 C15.697102,73.6179687 15.1367959,73.1441406 14.5278265,72.7398437 C12.0368878,71.0863281 10.4660918,68.3458984 10.2902449,65.3457031 C10.247398,64.6123047 10.1202143,63.8863281 9.91160204,63.1822266 C9.05757143,60.3025391 9.60294898,57.1861328 11.3823571,54.7740234 Z" id="Shape" fill="#DDA46C"></path>
                <path d="M33.941949,72.2320312 C33.5068878,71.6423828 33.1410408,71.0041016 32.8515816,70.3296875 C31.6677653,67.5710937 29.2613571,65.5371094 26.3592041,64.8416016 C25.6498061,64.6716797 24.9621224,64.4195312 24.3101122,64.0902344 C21.6431327,62.74375 18.5017347,62.74375 15.8347551,64.0902344 C15.1827449,64.4193359 14.4952551,64.6714844 13.7856633,64.8416016 C10.8833163,65.5369141 8.47710204,67.5710937 7.29328571,70.3296875 C7.00382653,71.0039062 6.63797959,71.6423828 6.20291837,72.2320312 C4.4235102,74.6441406 3.87793878,77.7605469 4.73119388,80.6402344 C4.93980612,81.3443359 5.0669898,82.0703125 5.10983673,82.8037109 C5.28587755,85.8037109 6.85647959,88.5443359 9.34741837,90.1978516 C9.95638776,90.6021484 10.5168878,91.0759766 11.0176735,91.6099609 C13.0667653,93.7943359 16.018551,94.8765625 18.9817755,94.5300781 C19.706102,94.4453125 20.4377959,94.4453125 21.1621224,94.5300781 C24.1255408,94.8765625 27.0773265,93.7943359 29.1262245,91.6099609 C29.6272041,91.0759766 30.1875102,90.6021484 30.7964796,90.1978516 C33.2874184,88.5443359 34.8582143,85.8039062 35.0340612,82.8037109 C35.0769082,82.0703125 35.2040918,81.3443359 35.4127041,80.6402344 C36.2671224,77.7605469 35.721551,74.6441406 33.941949,72.2320312 Z" id="Shape" fill="#CE9964"></path>
                <ellipse id="Oval" fill="#8B6C52" cx="13.8847347" cy="74.7162109" rx="2.6125" ry="2.09960938"></ellipse>
                <path d="M42.0582449,72.2320312 C42.4933061,71.6423828 42.8591531,71.0041016 43.1486122,70.3296875 C44.3324286,67.5710937 46.7388367,65.5371094 49.6409898,64.8416016 C50.3503878,64.6716797 51.0380714,64.4195312 51.6900816,64.0902344 C54.3570612,62.74375 57.4984592,62.74375 60.1654388,64.0902344 C60.817449,64.4193359 61.5049388,64.6714844 62.2145306,64.8416016 C65.1168776,65.5369141 67.5230918,67.5710937 68.7069082,70.3296875 C68.9963673,71.0039062 69.3622143,71.6423828 69.7972755,72.2320312 C71.5766837,74.6441406 72.1222551,77.7605469 71.269,80.6402344 C71.0603878,81.3443359 70.933398,82.0703125 70.8903571,82.8037109 C70.7143163,85.8037109 69.1437143,88.5443359 66.6527755,90.1978516 C66.0438061,90.6021484 65.4833061,91.0759766 64.9825204,91.6099609 C62.9334286,93.7943359 59.9816429,94.8765625 57.0184184,94.5300781 C56.2940918,94.4453125 55.562398,94.4453125 54.8380714,94.5300781 C51.8746531,94.8765625 48.9228673,93.7943359 46.8739694,91.6099609 C46.3729898,91.0759766 45.8126837,90.6021484 45.2037143,90.1978516 C42.7127755,88.5443359 41.1419796,85.8039062 40.9661327,82.8037109 C40.9232857,82.0703125 40.796102,81.3443359 40.5874898,80.6402344 C39.7330714,77.7605469 40.2786429,74.6441406 42.0582449,72.2320312 Z" id="Shape" fill="#DDA46C"></path>
                <path d="M51.8694184,72.2320312 C51.4343571,71.6423828 51.0685102,71.0041016 50.779051,70.3296875 C49.5952347,67.5710937 47.1890204,65.5371094 44.2866735,64.8416016 C43.5772755,64.6716797 42.8895918,64.4195312 42.2375816,64.0902344 C39.570602,62.74375 36.4292041,62.74375 33.7622245,64.0902344 C33.1102143,64.4193359 32.4227245,64.6714844 31.7131327,64.8416016 C28.8107857,65.5369141 26.4045714,67.5710937 25.2207551,70.3296875 C24.9312959,71.0039062 24.565449,71.6423828 24.1303878,72.2320312 C22.3509796,74.6441406 21.8054082,77.7605469 22.6586633,80.6402344 C22.8672755,81.3443359 22.9942653,82.0703125 23.0373061,82.8037109 C23.2133469,85.8037109 24.783949,88.5443359 27.2748878,90.1978516 C27.8838571,90.6021484 28.4443571,91.0759766 28.9451429,91.6099609 C30.9942347,93.7943359 33.9460204,94.8765625 36.9092449,94.5300781 C37.6335714,94.4453125 38.3652653,94.4453125 39.0895918,94.5300781 C42.0530102,94.8765625 45.0047959,93.7943359 47.0536939,91.6099609 C47.5546735,91.0759766 48.1149796,90.6021484 48.723949,90.1978516 C51.2148878,88.5443359 52.7856837,85.8039062 52.9615306,82.8037109 C53.0043776,82.0703125 53.1315612,81.3443359 53.3401735,80.6402344 C54.194398,77.7605469 53.6488265,74.6441406 51.8694184,72.2320312 Z" id="Shape" fill="#F6B778"></path>
                <g id="Group" transform="translate(28.306122, 74.609375)" fill="#654D3B">
                    <ellipse id="Oval" cx="3.32054082" cy="2.66835937" rx="3.18715306" ry="2.56210937"></ellipse>
                    <ellipse id="Oval" cx="12.8816122" cy="11.3564453" rx="3.18715306" ry="2.56210937"></ellipse>
                    <ellipse id="Oval" cx="32.5568878" cy="8.79511719" rx="3.18715306" ry="2.56210937"></ellipse>
                </g>
                <g id="Group" transform="translate(17.448980, 51.953125)" fill="#8B6C52">
                    <ellipse id="Oval" cx="25.6381735" cy="21.3888672" rx="2.6125" ry="2.09960937"></ellipse>
                    <ellipse id="Oval" cx="2.62335714" cy="2.29433594" rx="2.6125" ry="2.09960938"></ellipse>
                </g>
                <ellipse id="Oval" fill="#654D3B" cx="31.6266633" cy="57.3783203" rx="2.6125" ry="2.09960937"></ellipse>
                <ellipse id="Oval" fill="#8B6C52" cx="50.7488061" cy="56.3480469" rx="2.6125" ry="2.09960937"></ellipse>
            </g>
            <rect id="Rectangle-14" fill="#FFFFFF" fill-rule="nonzero" x="14" y="67" width="51" height="18" rx="1"></rect>
            <path d="M25.682,77.816 L27.23,77.468 C27.266,78.188 27.818,78.776 28.646,78.776 C29.39,78.776 29.99,78.284 29.99,77.504 C29.99,76.616 29.33,76.196 28.61,76.196 C28.082,76.196 27.662,76.436 27.41,76.724 C27.254,76.664 26.066,76.256 25.898,76.208 L26.822,72.212 L31.214,72.212 L31.214,73.64 L27.95,73.64 L27.566,75.356 C27.902,75.044 28.454,74.876 28.97,74.876 C30.53,74.876 31.634,75.812 31.634,77.48 C31.634,78.932 30.518,80.192 28.646,80.192 C26.954,80.192 25.778,79.04 25.682,77.816 Z M34.13,76.112 C34.13,76.928 34.25,77.624 34.55,78.092 C34.79,78.476 35.162,78.728 35.726,78.728 C36.302,78.728 36.65,78.476 36.89,78.092 C37.202,77.624 37.322,76.928 37.322,76.112 C37.322,75.296 37.202,74.6 36.89,74.132 C36.65,73.748 36.302,73.496 35.726,73.496 C35.162,73.496 34.79,73.748 34.55,74.132 C34.25,74.6 34.13,75.296 34.13,76.112 Z M32.474,76.112 C32.474,75.116 32.63,74.144 33.158,73.34 C33.674,72.572 34.514,72.032 35.726,72.032 C36.938,72.032 37.778,72.572 38.282,73.34 C38.81,74.144 38.978,75.116 38.978,76.112 C38.978,77.108 38.81,78.08 38.282,78.884 C37.778,79.652 36.938,80.192 35.726,80.192 C34.514,80.192 33.674,79.652 33.158,78.884 C32.63,78.08 32.474,77.108 32.474,76.112 Z M41.618,76.112 C41.618,76.928 41.738,77.624 42.038,78.092 C42.278,78.476 42.65,78.728 43.214,78.728 C43.79,78.728 44.138,78.476 44.378,78.092 C44.69,77.624 44.81,76.928 44.81,76.112 C44.81,75.296 44.69,74.6 44.378,74.132 C44.138,73.748 43.79,73.496 43.214,73.496 C42.65,73.496 42.278,73.748 42.038,74.132 C41.738,74.6 41.618,75.296 41.618,76.112 Z M39.962,76.112 C39.962,75.116 40.118,74.144 40.646,73.34 C41.162,72.572 42.002,72.032 43.214,72.032 C44.426,72.032 45.266,72.572 45.77,73.34 C46.298,74.144 46.466,75.116 46.466,76.112 C46.466,77.108 46.298,78.08 45.77,78.884 C45.266,79.652 44.426,80.192 43.214,80.192 C42.002,80.192 41.162,79.652 40.646,78.884 C40.118,78.08 39.962,77.108 39.962,76.112 Z M53.534,74.096 L51.17,76.58 L53.582,80 L51.626,80 L50.066,77.744 L49.406,78.44 L49.406,80 L47.81,80 L47.81,71.312 L49.406,71.312 L49.406,76.292 L51.446,74.096 L53.534,74.096 Z" id="500k" fill="#333333"></path>
        </g>
    </g>
</svg>