<?xml version="1.0" encoding="UTF-8"?>
<svg width="11.1537px" height="6.561px" viewBox="0 0 11.1537 6.561" version="1.1" xmlns="http://www.w3.org/2000/svg" xmlns:xlink="http://www.w3.org/1999/xlink">
    <!-- Generator: Sketch 52.6 (67491) - http://www.bohemiancoding.com/sketch -->
    <desc>Created with Sketch.</desc>
    <g id="Page-1" stroke="none" stroke-width="1" fill="none" fill-rule="evenodd">
        <path d="M7.4358,6.37875 C7.4358,6.47557031 7.34866172,6.561 7.249905,6.561 L1.673055,6.561 C1.45811391,6.561 1.48716,6.33888281 1.48716,6.1965 L1.48716,2.916 L0.37179,2.916 C0.168467344,2.916 0,2.75083594 0,2.5515 C0,2.46607031 0.0290460938,2.38064062 0.0871382813,2.31799219 L1.94608828,0.130992187 C2.01579891,0.0512578125 2.12036484,0.0056953125 2.23074,0.0056953125 C2.34111516,0.0056953125 2.44568109,0.0512578125 2.51539172,0.130992187 L4.37434172,2.31799219 C4.43243391,2.38064062 4.46148,2.46607031 4.46148,2.5515 C4.46148,2.75083594 4.29301266,2.916 4.08969,2.916 L2.97432,2.916 L2.97432,5.103 L6.32043,5.103 C6.37271297,5.103 6.43080516,5.12578125 6.46566047,5.16564844 L7.39513547,6.25914844 C7.41837234,6.29332031 7.4358,6.33888281 7.4358,6.37875 Z M11.1537,4.0095 C11.1537,4.09492969 11.1246539,4.18035938 11.0665617,4.24300781 L9.20761172,6.43000781 C9.13790109,6.50974219 9.03333516,6.561 8.92296,6.561 C8.81258484,6.561 8.70801891,6.50974219 8.63830828,6.43000781 L6.77935828,4.24300781 C6.72126609,4.18035938 6.69222,4.09492969 6.69222,4.0095 C6.69222,3.81016406 6.86068734,3.645 7.06401,3.645 L8.17938,3.645 L8.17938,1.458 L4.83327,1.458 C4.78098703,1.458 4.72289484,1.43521875 4.68803953,1.38965625 L3.75856453,0.29615625 C3.73532766,0.267679687 3.7179,0.222117187 3.7179,0.18225 C3.7179,0.0854296875 3.80503828,0 3.903795,0 L9.480645,0 C9.69558609,0 9.66654,0.222117187 9.66654,0.3645 L9.66654,3.645 L10.78191,3.645 C10.9852327,3.645 11.1537,3.81016406 11.1537,4.0095 Z" id="retweet---FontAwesome" fill="#6A7783"></path>
    </g>
</svg>