<?xml version="1.0" encoding="UTF-8"?>
<svg width="106px" height="29px" viewBox="0 0 106 29" version="1.1" xmlns="http://www.w3.org/2000/svg" xmlns:xlink="http://www.w3.org/1999/xlink">
    <!-- Generator: Sketch 52.6 (67491) - http://www.bohemiancoding.com/sketch -->
    <desc>Created with Sketch.</desc>
    <g id="Page-1" stroke="none" stroke-width="1" fill="none" fill-rule="evenodd">
        <g id="22seven-horizontal-logo-colour" fill="#FFFFFF">
            <path d="M8.33897318,21.094059 L4.68189385,21.094059 L4.68189385,23.431733 L7.95135784,23.431733 L7.95135784,24.1037268 L4.68189385,24.1037268 L4.68189385,26.9541379 L4,26.9541379 L4,20.411893 L8.33897318,20.411893 L8.33897318,21.094059 L8.33897318,21.094059 Z M14.6508014,26.9541379 L12.795955,24.2811027 C13.7453748,24.0948263 14.4352944,23.4593884 14.4352944,22.3652527 C14.4352944,21.1881508 13.580995,20.411893 12.2531746,20.411893 L9.65638971,20.411893 L9.65638971,26.9541379 L10.3382836,26.9541379 L10.3382836,24.4120684 L12.0635285,24.4120684 L13.8140398,26.9541379 L14.6508014,26.9541379 L14.6508014,26.9541379 Z M13.7453748,22.3935438 C13.7453748,23.2432314 13.0982593,23.749293 12.1922382,23.749293 L10.3382836,23.749293 L10.3382836,21.094059 L12.201453,21.094059 C13.1758418,21.094059 13.7453748,21.58073 13.7453748,22.3935438 L13.7453748,22.3935438 L13.7453748,22.3935438 Z M18.6946043,27.0666667 C16.8572957,27.0666667 15.6240012,25.5055683 15.6240012,23.6923929 C15.6240012,21.8808068 16.874239,20.3 18.7121421,20.3 C20.5491534,20.3 21.7836369,21.8604626 21.7836369,23.6749096 C21.7836369,25.4877672 20.5316156,27.0666667 18.6946043,27.0666667 L18.6946043,27.0666667 L18.6946043,27.0666667 Z M18.6946043,20.9824838 C17.3150623,20.9824838 16.3305669,22.1789762 16.3305669,23.6749096 C16.3305669,25.1695714 17.3317084,26.3854543 18.7121421,26.3854543 C20.0916841,26.3854543 21.0752877,25.1883262 21.0752877,23.6923929 C21.0752877,22.1970953 20.075038,20.9824838 18.6946043,20.9824838 L18.6946043,20.9824838 L18.6946043,20.9824838 Z M28.3184034,21.6551134 L28.3184034,26.9541379 L29,26.9541379 L29,20.411893 L28.3109721,20.411893 L26.1098283,23.9822975 L23.9101707,20.411893 L23.2211429,20.411893 L23.2211429,26.9541379 L23.8849044,26.9541379 L23.8849044,21.6646498 L26.084562,25.1600351 L26.1187458,25.1600351 L28.3184034,21.6551134 L28.3184034,21.6551134 Z" id="From"></path>
            <path d="M54.6582954,23.7006967 L54.6582954,23.6830176 C54.6582954,22.1986066 53.6181293,20.9828543 52.1857192,20.9828543 C50.7536153,20.9828543 49.7351895,22.1765077 49.7351895,23.6640758 L49.7351895,23.6830176 C49.7351895,25.1718485 50.7750494,26.3819181 52.2025603,26.3819181 C53.6355827,26.3819181 54.6582954,25.187002 54.6582954,23.7006967 L54.6582954,23.7006967 L54.6582954,23.7006967 Z M49,23.7006967 L49,23.6830176 C49,21.8803832 50.2958443,20.3 52.2025603,20.3 C54.1117259,20.3 55.3916477,21.8604942 55.3916477,23.6640758 C55.3986903,23.6754409 55.3986903,23.6754409 55.3916477,23.6830176 C55.3916477,25.4862835 54.0961096,27.0666667 52.1857192,27.0666667 C50.2808404,27.0666667 49,25.5068038 49,23.7006967 L49,23.7006967 L49,23.7006967 Z M56.5255114,26.9574352 L60.7618076,26.9574352 L60.7618076,26.272371 L57.2358986,26.272371 L57.2358986,20.4130198 L56.5255114,20.4130198 L56.5255114,26.9574352 L56.5255114,26.9574352 Z M64.1110383,26.272371 C65.6928746,26.272371 66.7054826,25.1529066 66.7054826,23.7006967 L66.7054826,23.6830176 C66.7054826,22.2361746 65.6928746,21.0930329 64.1110383,21.0930329 L62.6428027,21.0930329 L62.6428027,26.272371 L64.1110383,26.272371 L64.1110383,26.272371 Z M61.933334,20.4130198 L64.1110383,20.4130198 C66.0820566,20.4130198 67.4394473,21.8229262 67.4394473,23.6640758 L67.4394473,23.6830176 C67.4394473,25.5270085 66.0820566,26.9574352 64.1110383,26.9574352 L61.933334,26.9574352 L61.933334,20.4130198 L61.933334,20.4130198 Z M68.7995939,26.9574352 L70.1557598,26.9574352 L70.1557598,22.7119312 L71.8980457,25.4787067 L71.9311154,25.4787067 L73.6960602,22.6841498 L73.6960602,26.9574352 L75.064168,26.9574352 L75.064168,20.4130198 L73.5778665,20.4130198 L71.9311154,23.1823209 L70.2874264,20.4130198 L68.7995939,20.4130198 L68.7995939,26.9574352 L68.7995939,26.9574352 L68.7995939,26.9574352 Z M76.0694271,24.1499347 L76.0694271,20.4130198 L77.4491706,20.4130198 L77.4491706,24.1133137 C77.4491706,25.180688 77.9559339,25.7341062 78.7979877,25.7341062 C79.6388167,25.7341062 80.1498668,25.1999456 80.1498668,24.1628783 L80.1498668,20.4130198 L81.5286916,20.4130198 L81.5286916,24.1028957 C81.5286916,26.0876878 80.4640294,27.0597213 78.7823714,27.0597213 C77.100101,27.0597213 76.0694271,26.0785325 76.0694271,24.1499347 L76.0694271,24.1499347 L76.0694271,24.1499347 Z M84.3016513,26.9574352 L85.6804762,26.9574352 L85.6804762,21.7361093 L87.5927038,21.7361093 L87.5927038,20.4130198 L82.3946291,20.4130198 L82.3946291,21.7361093 L84.3016513,21.7361093 L84.3016513,26.9574352 L84.3016513,26.9574352 Z M88.5030405,24.1499347 L88.5030405,20.4130198 L89.8772723,20.4130198 L89.8772723,24.1133137 C89.8772723,25.180688 90.3926093,25.7341062 91.2331321,25.7341062 C92.0764107,25.7341062 92.5822554,25.1999456 92.5822554,24.1628783 L92.5822554,20.4130198 L93.963836,20.4130198 L93.963836,24.1028957 C93.963836,26.0876878 92.8967242,27.0597213 91.2144538,27.0597213 C89.5294276,27.0597213 88.5030405,26.0785325 88.5030405,24.1499347 L88.5030405,24.1499347 L88.5030405,24.1499347 Z M96.5386834,24.220651 L97.372776,22.0950577 L98.2047252,24.220651 L96.5386834,24.220651 L96.5386834,24.220651 Z M94.0697817,26.9574352 L95.4749398,26.9574352 L96.0463116,25.4862835 L98.6964846,25.4862835 L99.268775,26.9574352 L100.71129,26.9574352 L98.0262098,20.3640867 L96.7536368,20.3640867 L94.0697817,26.9574352 L94.0697817,26.9574352 Z M101.501595,20.4130198 L102.874602,20.4130198 L102.874602,25.6472894 L106,25.6472894 L106,26.9574352 L101.501595,26.9574352 L101.501595,20.4130198 L101.501595,20.4130198 Z" id="OM"></path>
            <path d="M38.1364917,20.5001178 C38.1364917,20.8095935 38.2991971,21.0736654 38.5461796,21.2229235 C38.072154,21.2597162 38.3010581,21.8572703 38.6490668,21.8515297 C38.6820333,22.1651804 38.7009092,22.8851157 38.7009092,23.28018 C38.7009092,24.7513636 38.4980592,26.5445481 37.9923964,27.0314634 C37.6268411,27.0617325 37.1966821,27.0103272 36.746052,26.8921211 C36.2637848,26.7629554 35.8506407,26.5680327 35.5472962,26.347016 C35.1793481,26.3942462 34.860318,26.4892286 34.612272,26.6165677 C35.1711065,27.094872 35.7894933,27.5455166 36.4746105,27.9358838 C37.2724517,28.3948785 38.0958154,28.7526282 38.9034934,29 L39.0531717,29 C39.8648376,28.7526282 40.6831499,28.3948785 41.4841814,27.9358838 C42.1692987,27.5455166 42.7882172,27.094872 43.3412027,26.6165677 C43.0990057,26.492099 42.7799755,26.3942462 42.4133567,26.347016 C42.1023023,26.5680327 41.6963365,26.7629554 41.2100814,26.8921211 C40.7613123,27.0103272 40.3276971,27.0617325 39.9671931,27.0314634 C39.4594034,26.5445481 39.2552241,24.7513636 39.2552241,23.28018 C39.2552241,22.8851157 39.2727708,22.1651804 39.3102568,21.8515297 C39.6518849,21.8572703 39.886638,21.2597162 39.4096879,21.2229235 C39.6595948,21.0736654 39.8270857,20.8095935 39.8270857,20.5001178 C39.8270857,20.0348605 39.4474398,19.6567575 38.977402,19.6567575 C38.5105546,19.6567575 38.1364917,20.0348605 38.1364917,20.5001178 L38.1364917,20.5001178 Z M38.5895145,20.5001178 C38.5895145,20.283798 38.7609932,20.1089677 38.977402,20.1089677 C39.1956718,20.1089677 39.3684798,20.283798 39.3684798,20.5001178 C39.3684798,20.7153939 39.1956718,20.8894413 38.977402,20.8894413 C38.7625884,20.8894413 38.5895145,20.7153939 38.5895145,20.5001178 L38.5895145,20.5001178 Z M36.4778008,19.306836 C35.6517786,19.7780949 34.9121604,20.3263313 34.2794172,20.921798 C34.1411708,21.5018691 34.0473228,22.1210814 34,22.7585595 L34,24.4510209 C34.0353592,24.9441988 34.1010262,25.4209374 34.1898229,25.8817587 C34.4285638,25.7345881 34.6694316,25.5093963 34.8932844,25.2171427 C34.8531398,24.8400834 34.8906258,24.3920483 35.0190355,23.9103517 C35.1392035,23.4620556 35.3085553,23.0685571 35.5164566,22.7666487 C36.0742277,22.6074748 37.2974424,23.0685571 38.4260116,23.6431485 C38.4260116,23.5181579 38.4310629,23.4036049 38.4310629,23.28018 C38.4310629,23.1820663 38.4310629,23.064382 38.4260116,22.9362601 C37.4750359,22.2990429 36.6319987,21.5731059 36.5065135,21.0632278 C36.6654969,20.7375738 36.922582,20.3889571 37.2522465,20.0627812 C37.6058383,19.7097284 37.9788377,19.4576597 38.3292391,19.3016172 C38.4674855,18.9629162 38.5461796,18.6409153 38.5557505,18.3666667 C37.8610624,18.6077759 37.1607912,18.9138593 36.4778008,19.306836 L36.4778008,19.306836 Z M39.5604296,24.2790609 C39.8629766,24.459371 40.1875897,24.6662969 40.3582709,24.7923313 C40.1806774,25.0827583 40.5847823,25.5853301 40.8532993,25.1926143 C40.8596799,25.4793881 41.0090924,25.7593775 41.2757484,25.9135935 C41.3789015,25.9694348 41.4916255,26.0088368 41.5992981,26.0182307 L41.7994896,26.0182307 C42.0533844,25.9871787 42.2931887,25.8428785 42.4346254,25.6038569 C42.6712394,25.2030519 42.5303344,24.6889988 42.1249003,24.4525865 C41.8545223,24.2986315 41.5402776,24.3064597 41.289573,24.4468458 C41.4934865,24.0196859 40.8570213,23.9215722 40.6919232,24.221393 C40.4271282,24.107362 39.8890307,23.8237194 39.5303876,23.6209685 C39.5362365,23.8401587 39.5474026,24.0601317 39.5604296,24.2790609 L39.5604296,24.2790609 Z M41.5078428,25.5177464 C41.3188175,25.414153 41.253948,25.1746094 41.3640134,24.9898634 C41.4679641,24.8032908 41.7088318,24.7388384 41.8951986,24.8447804 C42.086085,24.9535926 42.1485617,25.1889611 42.0414207,25.3799697 C41.9672462,25.5007853 41.8375073,25.5738487 41.7024512,25.5738487 C41.6325304,25.5738487 41.5679268,25.5534953 41.5078428,25.5177464 L41.5078428,25.5177464 Z M39.6407189,19.3016172 C39.9911203,19.4576597 40.3670442,19.7097284 40.7201042,20.0627812 C41.051098,20.3915665 41.3095124,20.7375738 41.4671665,21.0632278 C41.3395544,21.5731059 40.4861488,22.303218 39.5303876,22.9435665 C39.5282608,23.0685571 39.5282608,23.1862413 39.5282608,23.28018 C39.5282608,23.4036049 39.5282608,23.5244204 39.5303876,23.6504548 C40.6642739,23.0685571 41.8933376,22.6074748 42.4527038,22.7666487 C42.6574148,23.0685571 42.8320838,23.4620556 42.9527835,23.9103517 C43.0790663,24.3920483 43.1160206,24.8400834 43.075876,25.2171427 C43.3018557,25.5093963 43.5488382,25.7345881 43.7798692,25.8817587 C43.9181156,25.1641718 44,24.4048344 44,23.6209685 C44,22.6719272 43.8936566,21.7617661 43.6942628,20.921798 C43.0591269,20.3263313 42.3211038,19.7780949 41.4934865,19.306836 C40.8099644,18.9138593 40.106237,18.6077759 39.4166002,18.3666667 C39.4253735,18.6409153 39.5022066,18.9629162 39.6407189,19.3016172 L39.6407189,19.3016172 Z M37.2796299,24.221393 C37.1140001,23.9215722 36.4778008,24.0196859 36.684107,24.4468458 C36.4312756,24.3064597 36.1135747,24.2986315 35.8458553,24.4525865 C35.4430797,24.6856065 35.3032382,25.2030519 35.5340033,25.6038569 C35.771149,26.0088368 36.2879779,26.1411337 36.6910193,25.9135935 C36.9587388,25.7593775 37.1129367,25.4793881 37.1140001,25.1926143 C37.3854416,25.5853301 37.790344,25.0827583 37.6132823,24.7923313 C37.7770511,24.6668188 38.1013984,24.4651117 38.3959696,24.2866282 C38.4111235,24.0690037 38.4212261,23.8469431 38.4260116,23.6238389 C38.0694954,23.8247632 37.5383102,24.1110151 37.2796299,24.221393 L37.2796299,24.221393 Z M35.9280055,25.3799697 C35.8208646,25.1889611 35.8844047,24.9535926 36.0742277,24.8447804 C36.2637848,24.7388384 36.4982719,24.8032908 36.6078056,24.9898634 C36.71601,25.1746094 36.650343,25.414153 36.4645079,25.5177464 C36.4012336,25.5534953 36.3360983,25.5738487 36.2691019,25.5738487 C36.1345776,25.5738487 36.0045728,25.5007853 35.9280055,25.3799697 L35.9280055,25.3799697 Z" id="OM---icon"></path>
            <g id="Logo-22seven" transform="translate(3.000000, 0.000000)">
                <path d="M14.7720033,3.92240725 C15.8646516,2.15326456 17.501062,0.716650093 20.005864,0.561238737 C20.3404404,0.540980273 20.6777297,0.546189593 21.014416,0.575998475 C23.1496769,0.765559812 24.9358931,2.05804979 25.4151512,3.97102756 C25.5830423,4.55041961 25.6327766,5.18856122 25.5281838,5.84696128 C25.3120655,7.02079454 24.6591893,8.09767658 23.4851576,9.32070897 C22.9079378,10.0291764 22.1619228,10.668765 21.4825216,11.2849117 L18.9231626,13.6461803 L24.8722934,13.6461803 C26.6226406,13.6461803 26.6226406,16.1593874 24.8722934,16.1593874 L15.6696327,16.1593874 C14.1908652,16.1593874 13.6941246,14.9800555 14.7584394,13.9980988 L19.6721918,9.46454406 C20.2608655,8.93058884 20.9869868,8.34656628 21.464135,7.71739628 C22.4793183,6.66800787 22.8371041,5.96359215 22.9368742,5.44063438 C22.9805801,5.1486231 22.9477253,4.85400716 22.8723703,4.59932933 C22.7005607,3.89144074 21.9804678,3.18586739 20.7717728,3.07849754 C20.5719312,3.06055432 20.3729938,3.05737085 20.1740565,3.06923652 C18.8221868,3.15316444 17.8534222,3.87262931 17.032655,5.20129511 C16.1422596,6.64340831 13.8810052,5.36452044 14.7720033,3.92240725" id="Fill-1"></path>
                <path d="M3.65170727,5.20129511 C4.4721731,3.87291871 5.44093768,3.15316444 6.79280735,3.06952593 C6.9917447,3.05737085 7.19038062,3.06084373 7.39022222,3.07849754 C8.59921871,3.18586739 9.31931161,3.89173014 9.49081972,4.59961874 C9.56677761,4.85429657 9.59933099,5.14920192 9.55562506,5.44063438 C9.45555355,5.96388156 9.09776775,6.66829727 8.08258446,7.71739628 C7.60543626,8.34656628 6.87931495,8.93058884 6.29064127,9.46483346 L1.37688889,13.9980988 C0.312574102,14.9800555 0.80991746,16.1593874 2.28838363,16.1593874 L11.4907429,16.1593874 C13.2416929,16.1593874 13.2416929,13.6461803 11.4907429,13.6461803 L5.54191345,13.6461803 L8.10127251,11.2849117 C8.78037226,10.668765 9.52668872,10.0291764 10.103607,9.32099837 C11.2776388,8.09767658 11.9308164,7.02079454 12.1472361,5.84725069 C12.2518289,5.18827181 12.2011903,4.55013021 12.0336007,3.97131696 C11.5543425,2.05804979 9.76812632,0.765849219 7.63316692,0.576287881 C7.29648053,0.546189593 6.95949273,0.540980273 6.62461487,0.561528144 C4.11981287,0.716650093 2.48340251,2.15355397 1.39075422,3.92240725 C0.500057477,5.36480985 2.76101053,6.64369771 3.65170727,5.20129511" id="Fill-3"></path>
                <path d="M53.250404,7.21614401 L43.7604899,7.21614401 C44.2225671,4.73390341 46.1860184,3.09152083 48.6248094,3.09152083 C51.1636718,3.09152083 52.8049049,4.89568172 53.250404,7.21614401 M56.0147288,8.37087643 L56.0147288,8.2122816 C55.9354553,4.56604757 53.5424802,0.58236542 48.6248094,0.58236542 C44.2888795,0.58236542 41.2035422,3.87639159 41.0229915,7.96223428 C41.0187716,8.05600203 41.0127432,8.29910359 41.0103318,8.51442212 C41.0091261,8.62671189 41.0091261,8.8020923 41.0091261,8.8020923 C41.1082934,13.4311512 44.6695733,16.4930733 48.9120628,16.4930733 C51.2679632,16.4930733 53.1877086,15.5776801 54.5844899,14.2863478 C55.8471392,13.1191709 54.0030503,11.3213769 52.740401,12.4885539 C51.7740478,13.3819521 50.4957246,13.9836285 48.9120628,13.9836285 C46.4048495,13.9836285 44.2144287,12.4176492 43.7436104,9.72558883 L54.6930012,9.72558883 C55.596659,9.72558883 56.0370339,9.06574173 56.0138246,8.42296962 L56.0147288,8.37087643" id="Fill-5"></path>
                <path d="M83.4108124,7.21614401 L73.9208982,7.21614401 C74.382674,4.73390341 76.3464267,3.09152083 78.7852177,3.09152083 C81.3240802,3.09152083 82.9653133,4.89568172 83.4108124,7.21614401 M86.1751372,8.37087643 L86.1751372,8.2122816 C86.0958637,4.56604757 83.7028886,0.58236542 78.7852177,0.58236542 C74.4492879,0.58236542 71.3639505,3.87639159 71.1833998,7.96223428 C71.1791799,8.05600203 71.1743572,8.29910359 71.1716444,8.51442212 C71.1704388,8.62671189 71.1692331,8.8020923 71.1692331,8.8020923 C71.2687018,13.4311512 74.8299816,16.4930733 79.0724712,16.4930733 C81.4283716,16.4930733 83.348117,15.5776801 84.7448982,14.2863478 C86.0075475,13.1191709 84.1634586,11.3213769 82.9008094,12.4885539 C81.9344561,13.3819521 80.656133,13.9836285 79.0724712,13.9836285 C76.5652578,13.9836285 74.3748371,12.4176492 73.9040187,9.72558883 L84.8534095,9.72558883 C85.7570673,9.72558883 86.1974423,9.06574173 86.1742329,8.42296962 L86.1751372,8.37087643" id="Fill-6"></path>
                <path d="M90.4884605,1.82826093 L90.4884605,2.48087286 C91.6661093,1.32903451 93.1795402,0.585259487 94.9090894,0.58236542 C99.2564732,0.58236542 101.836027,3.51202866 101.836027,7.44853753 L101.836027,15.2063714 C101.836027,16.8791417 99.1925721,16.8791417 99.1925721,15.2063714 L99.1925721,7.44853753 C99.1925721,4.71046148 97.6092117,3.09181024 94.9111993,3.09181024 C92.3542516,3.09586193 90.5321664,4.81812074 90.4878576,7.43146254 L90.4878576,7.51394342 L90.4872548,15.2066608 C90.4869534,16.8794311 87.8437995,16.8791417 87.8437995,15.2063714 L87.8450052,1.82797152 C87.8453066,0.155201246 90.4884605,0.155490653 90.4884605,1.82826093" id="Fill-8"></path>
                <path d="M36.7316718,4.52900352 C35.8849825,3.52794602 34.6545851,3.10656998 33.3816876,3.10656998 C31.1243515,3.10656998 30.2987616,4.191266 30.2987616,4.99147531 C30.2987616,6.38670463 32.9961711,6.90908358 34.0011061,7.18228344 C36.534543,7.84184113 39.6195789,8.78241265 39.6195789,11.866619 C39.6195789,14.853006 36.6297918,16.4777347 33.7087285,16.4777347 C31.7663766,16.4777347 29.7450526,15.7929987 28.3096896,14.3772215 C27.087732,13.1718429 28.9924063,11.4319303 30.2143639,12.6373089 C31.0854683,13.4965571 32.3842881,13.9682899 33.7087285,13.9682899 C35.9594332,13.9682899 36.9761236,12.8210821 36.9761236,11.866619 C36.9761236,10.3810948 34.3814984,9.88302603 33.2810132,9.59651348 C30.8096688,8.92509011 27.6553063,8.04239992 27.6553063,4.99147531 C27.6553063,2.23169376 30.3530172,0.597125158 33.3816876,0.597125158 C35.2628511,0.597125158 37.3348137,1.23439854 38.7927833,2.95810438 C39.8962827,4.26246003 37.8348698,5.83335917 36.7316718,4.52900352" id="Fill-9"></path>
                <path d="M71.0344982,2.35671742 L65.0139308,15.5009874 C64.9647993,15.7192 64.8496568,15.9104977 64.6932197,16.0653303 C64.4273671,16.3694967 64.0632515,16.4950991 63.70215,16.4838123 C63.3407472,16.4950991 62.9766316,16.3694967 62.7107789,16.0653303 C62.5543419,15.9107872 62.4388979,15.7192 62.3897664,15.5009874 L56.3673905,2.35671742 C55.6644785,0.822862323 58.0884999,-0.178195182 58.7914119,1.35594932 L63.7018486,12.0729659 L68.6104769,1.35623873 C69.3130874,-0.177905776 71.7371088,0.822572917 71.0344982,2.35671742" id="Fill-10"></path>
            </g>
        </g>
    </g>
</svg>