<?xml version="1.0" encoding="UTF-8"?>
<svg width="144px" height="144px" viewBox="0 0 144 144" version="1.1" xmlns="http://www.w3.org/2000/svg" xmlns:xlink="http://www.w3.org/1999/xlink">
    <!-- Generator: Sketch 52.6 (67491) - http://www.bohemiancoding.com/sketch -->
    <desc>Created with Sketch.</desc>
    <defs>
        <ellipse id="path-1" cx="41.4" cy="41.25179" rx="41.4" ry="41.25179"></ellipse>
        <filter x="-65.8%" y="-50.3%" width="231.6%" height="232.1%" filterUnits="objectBoundingBox" id="filter-2">
            <feOffset dx="0" dy="13" in="SourceAlpha" result="shadowOffsetOuter1"></feOffset>
            <feGaussianBlur stdDeviation="16" in="shadowOffsetOuter1" result="shadowBlurOuter1"></feGaussianBlur>
            <feColorMatrix values="0 0 0 0 0   0 0 0 0 0   0 0 0 0 0  0 0 0 0.07 0" type="matrix" in="shadowBlurOuter1"></feColorMatrix>
        </filter>
    </defs>
    <g id="Page-1" stroke="none" stroke-width="1" fill="none" fill-rule="evenodd">
        <g id="icon/read-only" transform="translate(30.000000, 18.000000)" fill-rule="nonzero">
            <g transform="translate(0.300000, 0.000000)" id="Oval-Copy-9">
                <g>
                    <use fill="black" fill-opacity="1" filter="url(#filter-2)" xlink:href="#path-1"></use>
                    <use fill="#FFFFFF" xlink:href="#path-1"></use>
                </g>
            </g>
            <g id="location" transform="translate(23.000000, 21.921241)" fill="#BD4D9C" stroke="#BF4A9D" stroke-width="0.6">
                <path d="M37.892298,17.4935941 C37.9142086,17.4344316 37.9268614,17.372496 37.9296388,17.3093278 C37.9296388,17.24277 37.9188377,17.1765204 37.8981614,17.1133521 L37.8494023,16.9756146 C37.33342,11.9961092 34.8578157,7.42519438 30.9666547,4.26863168 C30.6886045,4.04245864 30.3979015,3.83816332 30.1071985,3.62862967 C30.0926942,3.61661228 30.0849792,3.59966469 30.0692405,3.58826361 C30.0535018,3.57686254 30.0408491,3.57809509 30.0275793,3.56977535 C26.8104047,1.26706226 22.9534986,0.0255754497 18.9950624,0.0181801446 C18.8321206,0.0181801446 18.668253,0.0181801446 18.5463552,0.030813771 C16.4349012,0.0717960667 14.3462838,0.472991405 12.370306,1.21714399 C10.6572571,-0.11709233 8.33194194,-0.358980413 6.38003504,0.594089505 C4.42812823,1.54715942 3.19156059,3.52848494 3.19464657,5.69777442 C3.23260462,6.41943289 3.40048404,7.12814963 3.69087838,7.78972131 C3.04590051,8.67007073 2.47807306,9.60403615 1.99387667,10.5817571 C1.98431007,10.5968559 1.9787552,10.6131872 1.97042293,10.6289022 C-2.51047624,19.8801206 1.2180516,31.0115954 10.3714917,35.7094629 C19.5246232,40.4076386 30.7602001,36.9568044 35.6867204,27.9342241 C37.0359278,25.4521749 37.8028034,22.6964993 37.9290215,19.8754986 C37.948772,19.5710585 37.9555613,19.2607639 37.9555613,18.9501611 C37.9555613,18.4611465 37.930256,17.9764459 37.892298,17.4935941 Z M36.0558082,14.2550668 C35.9755717,14.183887 35.9015073,14.1016142 35.8175676,14.0359809 C34.991749,13.409845 34.0557595,12.9430164 33.0580496,12.6598378 C32.1495257,12.432124 31.1999578,12.4222636 30.2868049,12.6308729 C29.5100539,12.8065113 28.7046031,12.8105172 27.9260005,12.6425821 C26.4150858,12.3131829 25.2211051,12.0534228 24.5878541,11.0436555 C23.6808732,9.59201876 24.1061265,7.551839 25.063101,6.83387809 C25.3784921,6.61664103 25.767639,6.533752 26.1444419,6.60339117 C26.8147252,6.65823964 27.488403,6.54484496 28.1037552,6.2739919 C28.7586084,5.96770305 29.3403229,5.52552542 29.8103236,4.97642406 C29.9297524,5.06855717 30.0559706,5.15144628 30.1729307,5.24666081 C33.0250293,7.56508894 35.0812435,10.7142563 36.0558082,14.2550668 Z M8.88279626,1.28031221 C11.3247628,1.28431798 13.3032095,3.25978885 13.3069127,5.69777442 C13.3069127,7.58542599 10.4674669,11.9070574 8.88279626,14.0979165 C7.38021377,12.0703704 6.07451923,9.90416232 4.98392026,7.62887347 C4.68673664,7.02461536 4.50836472,6.36920651 4.45867983,5.69777442 C4.46145723,3.25917254 6.44052109,1.28308542 8.88279626,1.28031221 Z M1.29859667,18.9501611 C1.30106549,17.7743075 1.41987719,16.6012273 1.6531802,15.4484841 C1.72076403,16.3257522 1.83525535,17.106265 1.93771117,17.7832435 C2.32932692,20.3706759 2.69934059,22.809894 4.60927755,25.0405029 C5.40793919,25.9803228 6.74541966,27.5515171 8.81336086,27.7838529 C10.881302,28.0161887 13.4707803,26.8283178 14.2188312,26.4585526 L14.5058309,26.314036 C14.9033101,26.0641363 15.3575721,25.9190035 15.8263384,25.8918874 C16.6259258,25.9642998 17.3665703,26.3420766 17.8942795,26.9463346 C18.972843,28.1385194 19.2465729,30.129089 18.4800059,31.2060303 C18.2343588,31.5258773 17.8952053,31.7612945 17.5091443,31.8796194 C16.8484278,32.100246 16.2867723,32.5473537 15.9241651,33.1417514 C15.3899754,34.107455 15.2906055,35.2540354 15.6510525,36.2970816 C7.32744283,34.6867539 1.31155791,27.4159365 1.29859667,18.9501611 Z M18.9950624,36.6200099 C18.3843392,36.6200099 17.7742334,36.5885798 17.1665963,36.5260278 C17.1147512,36.4597783 17.0666093,36.3907554 17.0224792,36.3189593 C16.5953742,35.5301268 16.5907452,34.5801383 17.0104437,33.7872999 C17.2385005,33.4255462 17.5918496,33.1602397 18.0029073,33.0419148 C18.6056068,32.8345381 19.1314644,32.4490579 19.5101189,31.9369329 C20.6093588,30.3934712 20.2982881,27.7194522 18.8339722,26.1020373 C18.0723427,25.2324727 16.9947051,24.7024758 15.8402254,24.6297553 L15.8121427,24.6297553 C15.1464884,24.6497843 14.4978073,24.8426785 13.9293626,25.1896415 L13.6596446,25.3258384 C12.2786512,26.0055902 10.3137831,26.6776385 8.95377473,26.5248022 C7.38422557,26.3494719 6.29424376,25.0670028 5.57118956,24.2177751 C3.8948642,22.2614088 3.56682047,20.0967415 3.18785729,17.5915818 C2.78112006,15.4484841 2.76507277,13.2499215 3.13971548,11.1009691 C3.47825171,10.4165953 3.86060945,9.75471547 4.28493696,9.11933555 C4.30592189,9.16124228 4.32906705,9.20407344 4.34820032,9.24567197 C4.38862719,9.32578778 4.43028846,9.40528734 4.47441855,9.48540315 C4.53768191,9.60465238 4.60094528,9.7239017 4.66420864,9.84407544 C4.70772156,9.92480748 4.75185165,10.0055396 4.79690748,10.086888 C4.86387407,10.2067535 4.9314579,10.3266191 4.99965889,10.4464847 C5.04533197,10.5259842 5.09069647,10.6057919 5.13698679,10.6852914 C5.20734793,10.8051569 5.27770924,10.9244062 5.34868763,11.0436555 C5.39528653,11.1219225 5.44157677,11.1995732 5.48879284,11.277224 C5.56347453,11.4032523 5.63877339,11.521269 5.71407225,11.6429834 C5.75696793,11.7120062 5.79924636,11.7819535 5.84029039,11.8500519 C5.93379678,11.9998069 6.02668592,12.1449397 6.11957514,12.2919214 C6.14426329,12.3298224 6.16895144,12.3695721 6.19302235,12.4068568 C6.30874807,12.5858847 6.42354797,12.7605988 6.53618763,12.930999 C6.57908331,12.9941672 6.62074458,13.0573355 6.66271444,13.1205037 C6.73214984,13.2246543 6.80158524,13.3288048 6.86916907,13.4283333 L7.01914954,13.6474191 C7.07346347,13.727535 7.12839464,13.8076507 7.18147416,13.8840689 L7.33299762,14.1016142 C7.37990511,14.1694045 7.42681259,14.2356541 7.47155992,14.2991304 C7.51630717,14.3629149 7.56691788,14.4350192 7.61382536,14.5000362 C7.66042427,14.5650533 7.69221028,14.6103495 7.72955109,14.6627329 L7.85576923,14.8368308 L7.9588423,14.9794985 L8.05944647,15.1178524 L8.1415346,15.2287819 L8.21868503,15.3335487 L8.26466669,15.396717 C8.32114085,15.4731351 8.36403653,15.5304487 8.37607202,15.5461637 C8.49519231,15.7051628 8.68251366,15.7988367 8.88156185,15.7988367 C9.08061004,15.7988367 9.26793139,15.7051628 9.38705168,15.5461637 C9.91753831,14.8439179 14.5709459,8.61460594 14.5709459,5.69777442 C14.5709459,5.51350803 14.5595277,5.33047427 14.5419373,5.14867298 C14.5363825,5.09259195 14.5274331,5.03651085 14.5203352,4.98042983 C14.5039794,4.85409333 14.4845374,4.72775691 14.4573805,4.6017286 C14.445345,4.53856031 14.4320751,4.47939787 14.418188,4.41869476 C14.3888708,4.29235826 14.3549246,4.16632996 14.3163494,4.03999354 C14.3006107,3.98945895 14.2873408,3.93830805 14.2706763,3.8886979 C14.2138936,3.71953032 14.150013,3.55221152 14.0774915,3.38951481 C14.0636045,3.35839292 14.04694,3.3263466 14.0324357,3.29799793 C13.9691723,3.16673123 13.9062176,3.03669715 13.8333874,2.90974442 C13.8019101,2.85304708 13.7670381,2.79819853 13.7330918,2.74242562 C13.6722973,2.64289712 13.6090339,2.54490937 13.5433018,2.4484622 C13.5041093,2.39238118 13.4642997,2.33630016 13.4232556,2.28114349 C13.4016535,2.25341105 13.3834459,2.22382983 13.3599922,2.19671372 C14.6749448,1.75453616 16.0386564,1.47228194 17.4215014,1.35611404 C16.4361357,3.21326004 16.1142639,4.93112779 16.4821173,6.46781057 C16.7564644,7.49699045 17.2770757,8.44451392 17.9992041,9.22872446 C18.5938799,9.96394099 19.0216022,10.4939379 18.9950624,11.3591885 C18.9407484,13.1892184 16.8709557,14.7126513 16.0877242,15.2882525 C15.0603885,16.0268586 13.9120809,16.580582 12.6940294,16.92508 C11.5460304,17.2994674 10.555727,17.6223957 10.1770725,18.7507959 C9.80273842,20.2409499 10.4174733,21.8044406 11.7074292,22.6419589 C12.4804768,23.0588692 13.3914696,23.1392932 14.225929,22.8641262 C15.1400078,22.6521275 16.0849467,22.6068313 17.0150728,22.7310107 C18.2158427,22.9007946 19.251202,23.0465437 19.7421875,23.7330745 C20.0335076,24.1432059 20.0183862,24.5672033 19.9616034,25.3449429 C19.8319906,26.4459189 19.9440131,27.5619938 20.2893386,28.6155165 C20.5775728,29.4789184 21.01301,30.7826491 22.0591703,30.9330203 C22.1270627,30.9438052 22.195881,30.9493516 22.2643906,30.9493516 C23.0047265,30.9493516 23.457754,30.2967159 23.9342353,29.6101852 C24.1447018,29.3066694 24.3767704,28.9791191 24.6548207,28.6503362 C25.9555776,30.7487539 27.2770108,32.4999006 27.3384226,32.5830978 C27.4578515,32.7420968 27.6451729,32.8354625 27.8439124,32.8354625 C28.0429606,32.8354625 28.230282,32.7420968 28.3497109,32.5830978 C29.720829,30.7496784 30.9706666,28.8281316 32.0905828,26.8317074 C32.8670251,27.0563398 33.6064352,27.3928261 34.2853593,27.8306899 C31.1231159,33.2736344 25.2970212,36.6227831 18.9950624,36.6200099 Z M30.7916775,19.446879 C31.730753,20.2831647 32.2677202,21.4799716 32.2674116,22.7365572 C32.2674116,23.1904441 32.0828677,24.0902062 31.2064384,25.799138 C30.2059511,27.6507374 29.0826403,29.4330059 27.8432952,31.1342342 C27.2486194,30.3068845 26.2252956,28.8383001 25.3096739,27.2948384 C24.7992464,26.4486922 24.3434414,25.5714242 23.9444192,24.6676563 C23.6472356,24.0633982 23.4688637,23.4079893 23.4191788,22.7365572 C23.4219562,20.2979554 25.40102,18.3218682 27.8432952,18.319095 C27.9800059,18.319095 28.115482,18.3252578 28.2503411,18.3375833 C29.19528,18.4229374 30.0871394,18.8124235 30.7916775,19.446879 Z M36.6693087,19.8104815 C36.5603723,22.2108743 35.9545868,24.5625813 34.8896017,26.7173883 C34.1970991,26.2801409 33.4508998,25.9331778 32.6701371,25.6848188 C33.1583453,24.772423 33.4518257,23.7682023 33.5314449,22.7365572 C33.5261987,20.5709654 32.2930256,18.5951864 30.347908,17.6362619 L30.3080984,17.6186979 C30.1667587,17.5505995 30.0232588,17.4868151 29.8766729,17.4295014 C29.7760688,17.3903679 29.6717613,17.3598623 29.5686883,17.3271997 C29.5054249,17.3080951 29.4486421,17.2843686 29.3872304,17.2640315 C29.2242886,17.2178108 29.0585693,17.180218 28.8919244,17.1490962 L28.8835921,17.1490962 C28.7826793,17.1302997 28.6802235,17.1201312 28.5777677,17.1068812 C26.9526702,16.8822489 25.3099825,17.3743448 24.077118,18.4549837 C22.8439449,19.5359308 22.1424929,21.0984972 22.1551455,22.7365572 C22.2042132,23.5777731 22.4168399,24.4017334 22.7809901,25.1619091 C23.1352651,25.9673811 23.5349045,26.7522079 23.9780568,27.5123836 C23.5830464,27.9440845 23.221365,28.4047504 22.89579,28.8906836 C22.7220471,29.1880364 22.5026313,29.4561162 22.2455659,29.6853707 C22.1190391,29.6662662 21.8848103,29.3969538 21.4870225,28.2161701 C21.1969367,27.3197975 21.1058992,26.3707333 21.2210076,25.4358436 C21.3851838,24.5961683 21.2237851,23.7256792 20.7698318,23.0003231 C19.9628378,21.8734634 18.5540703,21.6750228 17.1832608,21.480896 C16.1176585,21.335455 15.034466,21.3841408 13.986454,21.6241801 C13.1779171,21.7785571 12.8026573,21.8361788 12.373392,21.5690235 C11.5892346,21.0322475 11.1973103,20.0828753 11.3747564,19.1501424 C11.5435616,18.6454129 12.04936,18.4629954 13.0813247,18.1246601 C14.4289891,17.7385636 15.6991944,17.1222882 16.8360837,16.30295 C17.7569517,15.6284365 20.185957,13.8384646 20.2590956,11.3964732 C20.2995225,10.0603881 19.630165,9.23611976 18.9830269,8.4392756 C18.3849565,7.79958172 17.9498278,7.02584791 17.714056,6.18309125 C17.3782971,4.77705894 17.7942925,3.12821403 18.9225409,1.28031221 L18.9950624,1.28031221 C22.4745485,1.28524241 25.8759583,2.31195726 28.7755815,4.23257959 C28.4407484,4.60511806 28.0355542,4.90770933 27.5828352,5.12309753 C27.1421518,5.31352667 26.6604243,5.38871227 26.1823999,5.34187534 C25.5176715,5.25991075 24.846771,5.43215967 24.3039404,5.82411084 C22.8707933,6.90136027 22.2285928,9.64840798 23.516697,11.71139 C24.4335532,13.1735034 25.9997076,13.5143036 27.7099792,13.886534 C28.6305386,14.0806608 29.5819581,14.076655 30.5009745,13.8745167 C31.238533,13.6988782 32.0075689,13.7010351 32.7438929,13.8816038 C33.5724889,14.1201024 34.3501657,14.5089723 35.0383479,15.0281843 C35.7530698,15.6201168 36.2949747,16.3929262 36.6075884,17.2658803 C36.6594335,17.8233014 36.6915281,18.3822632 36.6915281,18.9501611 C36.6915281,19.2324152 36.6859733,19.5180589 36.6668399,19.8104815 L36.6693087,19.8104815 Z" id="Shape"></path>
                <path d="M8.88279626,7.59097251 C10.2789111,7.59097251 11.4108628,6.4610315 11.4108628,5.06670839 C11.4108628,3.67269339 10.2789111,2.54244427 8.88279626,2.54244427 C7.48668139,2.54244427 6.35472973,3.67269339 6.35472973,5.06670839 C6.35472973,6.4610315 7.48668139,7.59097251 8.88279626,7.59097251 Z M8.88279626,3.80457633 C9.58085373,3.80457633 10.1468295,4.36970085 10.1468295,5.06670839 C10.1468295,5.76371585 9.58085373,6.32884045 8.88279626,6.32884045 C8.18473879,6.32884045 7.61876299,5.76371585 7.61876299,5.06670839 C7.61876299,4.36970085 8.18473879,3.80457633 8.88279626,3.80457633 Z" id="Shape"></path>
                <path d="M25.3152287,22.1054912 C25.3152287,23.4998143 26.4471804,24.6297553 27.8432952,24.6297553 C29.2394101,24.6297553 30.3713617,23.4998143 30.3713617,22.1054912 C30.3713617,20.7114762 29.2394101,19.5812271 27.8432952,19.5812271 C26.4471804,19.5812271 25.3152287,20.7114762 25.3152287,22.1054912 Z M29.1073285,22.1054912 C29.1073285,22.8024987 28.5413527,23.3676233 27.8432952,23.3676233 C27.1452377,23.3676233 26.579262,22.8024987 26.579262,22.1054912 C26.579262,21.4084837 27.1452377,20.8433591 27.8432952,20.8433591 C28.5413527,20.8433591 29.1073285,21.4084837 29.1073285,22.1054912 Z" id="Shape"></path>
            </g>
        </g>
    </g>
</svg>