<?xml version="1.0" encoding="UTF-8"?>
<svg width="2642px" height="476px" viewBox="0 0 2642 476" version="1.1" xmlns="http://www.w3.org/2000/svg" xmlns:xlink="http://www.w3.org/1999/xlink">
    <!-- Generator: Sketch 52.6 (67491) - http://www.bohemiancoding.com/sketch -->
    <desc>Created with Sketch.</desc>
    <defs>
        <linearGradient x1="-12.8756137%" y1="120.291385%" x2="106.274377%" y2="-33.055133%" id="linearGradient-1">
            <stop stop-color="#B24592" offset="0%"></stop>
            <stop stop-color="#F15F79" offset="100%"></stop>
        </linearGradient>
        <linearGradient x1="55.6782586%" y1="105.669099%" x2="55.6782586%" y2="26.2383409%" id="linearGradient-2">
            <stop stop-color="#13C6B9" offset="0%"></stop>
            <stop stop-color="#26B1C9" offset="100%"></stop>
        </linearGradient>
        <path d="M0,0 L2642,0 C2255.87477,248.833803 2001.87866,386.541501 1880.01167,413.123093 C1821.10292,425.972252 1739.90695,443.710212 1641.12197,458.165924 C1576.26487,467.656797 1507.12414,475.524138 1421.81138,475.283122 C1392.28346,475.199702 1363.14815,475.125084 1331.7198,473.983537 C1321.83207,473.624393 1311.74811,473.369904 1301.31395,472.705322 C1252.04511,469.567245 1196.59747,462.839391 1141.27111,453.652128 C1081.4114,443.712076 1017.79902,430.324399 950.211384,412.762033 C865.390968,390.721802 699.5624,428.058546 579.974916,409 C429.92148,385.086123 327.602994,302.608354 264.696782,246 C219.948051,205.73129 131.71579,123.73129 0,0 Z" id="path-3"></path>
        <filter x="-1.5%" y="-8.2%" width="103.0%" height="116.4%" filterUnits="objectBoundingBox" id="filter-4">
            <feGaussianBlur stdDeviation="38.5" in="SourceAlpha" result="shadowBlurInner1"></feGaussianBlur>
            <feOffset dx="0" dy="1" in="shadowBlurInner1" result="shadowOffsetInner1"></feOffset>
            <feComposite in="shadowOffsetInner1" in2="SourceAlpha" operator="arithmetic" k2="-1" k3="1" result="shadowInnerInner1"></feComposite>
            <feColorMatrix values="0 0 0 0 0   0 0 0 0 0   0 0 0 0 0  0 0 0 0.1 0" type="matrix" in="shadowInnerInner1"></feColorMatrix>
        </filter>
        <linearGradient x1="50%" y1="0%" x2="50%" y2="100%" id="linearGradient-5">
            <stop stop-color="#F8F5F3" offset="0%"></stop>
            <stop stop-color="#EFE7E4" offset="100%"></stop>
        </linearGradient>
    </defs>
    <g id="Page-1" stroke="none" stroke-width="1" fill="none" fill-rule="evenodd">
        <g id="Header-image">
            <g id="Header---background" fill-rule="nonzero" transform="translate(1321.000000, 237.644258) scale(-1, 1) translate(-1321.000000, -237.644258) ">
                <use fill="url(#linearGradient-1)" xlink:href="#path-3"></use>
                <use fill="url(#linearGradient-2)" xlink:href="#path-3"></use>
                <use fill-opacity="0.366734601" fill="#FFFFFF" xlink:href="#path-3"></use>
                <use fill="black" fill-opacity="1" filter="url(#filter-4)" xlink:href="#path-3"></use>
            </g>
            <ellipse id="sun" fill="#FFEA95" cx="1167" cy="114.5" rx="38" ry="38.5"></ellipse>
            <path d="M1170.63208,163.570362 C1169.17539,148.506913 1156.68644,137 1141.49222,137 C1129.83628,137 1119.84513,143.903901 1115.05826,153.73744 C1113.80967,153.109925 1112.56047,152.691581 1111.10378,152.691581 C1106.7325,152.691581 1102.98612,156.248118 1102.98612,160.851129 C1102.98612,161.896988 1103.19422,162.734292 1103.61042,163.780151 C1094.86846,163.989322 1088,171.103012 1088,179.890075 C1088,188.88631 1095.28527,196 1104.02723,196 L1168.96791,196 C1177.91796,196 1184.99513,188.677139 1184.99513,179.890075 C1185.20262,171.311567 1178.74974,164.407049 1170.63208,163.570362 Z" id="cloud1" fill="#FFFFFF" fill-rule="nonzero"></path>
            <path d="M1226.18635,123.609663 C1225.49555,116.460908 1219.57295,111 1212.36745,111 C1206.83989,111 1202.10181,114.276428 1199.83175,118.943192 C1199.23964,118.645388 1198.64723,118.446852 1197.95643,118.446852 C1195.88345,118.446852 1194.10682,120.1347 1194.10682,122.31918 C1194.10682,122.81552 1194.20551,123.212884 1194.40288,123.709224 C1190.25721,123.808492 1187,127.18448 1187,131.354612 C1187,135.624012 1190.45487,139 1194.60054,139 L1225.39715,139 C1229.64151,139 1232.99769,135.524744 1232.99769,131.354612 C1233.09609,127.283455 1230.03596,124.006735 1226.18635,123.609663 Z" id="cloud2" fill="#FFFFFF" fill-rule="nonzero"></path>
            <g id="Patterns" transform="translate(749.000000, 64.000000)" fill="#FFFFFF" fill-rule="nonzero">
                <g id="Group-6" transform="translate(0.000000, 281.000000)">
                    <path d="M15.0337185,11.5409836 C14.0400324,11.5409836 13.2340426,10.7527714 13.2340426,9.77966992 L13.2340426,1.76023246 C13.2340426,0.788212202 14.0400324,0 15.0337185,0 C16.0274046,0 16.8322904,0.788212202 16.8322904,1.76023246 L16.8322904,9.77966992 C16.8322904,10.7527714 16.0274046,11.5409836 15.0337185,11.5409836" id="Fill-265-Copy"></path>
                    <path d="M15.0337185,28.852459 C14.0400324,28.852459 13.2340426,28.0643207 13.2340426,27.0913103 L13.2340426,19.0726241 C13.2340426,18.1006949 14.0400324,17.3114754 15.0337185,17.3114754 C16.0274046,17.3114754 16.8322904,18.1006949 16.8322904,19.0726241 L16.8322904,27.0913103 C16.8322904,28.0643207 16.0274046,28.852459 15.0337185,28.852459" id="Fill-266-Copy"></path>
                    <path d="M27.7563881,16.6065574 L19.7569264,16.6065574 C18.7862488,16.6065574 18,15.7984583 18,14.8032787 C18,13.8069921 18.7862488,13 19.7569264,13 L27.7563881,13 C28.7270656,13 29.514393,13.8069921 29.514393,14.8032787 C29.514393,15.7984583 28.7270656,16.6065574 27.7563881,16.6065574" id="Fill-267-Copy"></path>
                    <path d="M9.75638807,16.6065574 L1.75692639,16.6065574 C0.786248828,16.6065574 0,15.7984583 0,14.8032787 C0,13.8069921 0.786248828,13 1.75692639,13 L9.75638807,13 C10.7270656,13 11.514393,13.8069921 11.514393,14.8032787 C11.514393,15.7984583 10.7270656,16.6065574 9.75638807,16.6065574" id="Fill-267-Copy-2"></path>
                </g>
                <g id="Group-6-Copy" transform="translate(1113.000000, 311.000000)">
                    <path d="M14.0337185,11.5409836 C13.0400324,11.5409836 12.2340426,10.7527714 12.2340426,9.77966992 L12.2340426,1.76023246 C12.2340426,0.788212202 13.0400324,0 14.0337185,0 C15.0274046,0 15.8322904,0.788212202 15.8322904,1.76023246 L15.8322904,9.77966992 C15.8322904,10.7527714 15.0274046,11.5409836 14.0337185,11.5409836" id="Fill-265-Copy"></path>
                    <path d="M14.0337185,28.852459 C13.0400324,28.852459 12.2340426,28.0643207 12.2340426,27.0913103 L12.2340426,19.0726241 C12.2340426,18.1006949 13.0400324,17.3114754 14.0337185,17.3114754 C15.0274046,17.3114754 15.8322904,18.1006949 15.8322904,19.0726241 L15.8322904,27.0913103 C15.8322904,28.0643207 15.0274046,28.852459 14.0337185,28.852459" id="Fill-266-Copy"></path>
                    <path d="M26.308328,16.5901639 L18.3088663,16.5901639 C17.3381888,16.5901639 16.5519399,15.7820648 16.5519399,14.7868852 C16.5519399,13.7905987 17.3381888,12.9836066 18.3088663,12.9836066 L26.308328,12.9836066 C27.2790056,12.9836066 28.0663329,13.7905987 28.0663329,14.7868852 C28.0663329,15.7820648 27.2790056,16.5901639 26.308328,16.5901639" id="Fill-267-Copy"></path>
                    <path d="M9.75638807,16.5901639 L1.75800492,16.5901639 C0.787327359,16.5901639 0,15.7820648 0,14.7868852 C0,13.7905987 0.787327359,12.9836066 1.75800492,12.9836066 L9.75638807,12.9836066 C10.7270656,12.9836066 11.514393,13.7905987 11.514393,14.7868852 C11.514393,15.7820648 10.7270656,16.5901639 9.75638807,16.5901639" id="Fill-268-Copy"></path>
                </g>
                <g id="Group-6-Copy-5" transform="translate(636.909903, 15.909903) rotate(45.000000) translate(-636.909903, -15.909903) translate(625.909903, 4.409903)">
                    <path d="M11.0004327,9.2 C10.2215246,9.2 9.58974359,8.57166948 9.58974359,7.79595278 L9.58974359,1.40318531 C9.58974359,0.628330523 10.2215246,0 11.0004327,0 C11.7793408,0 12.4102564,0.628330523 12.4102564,1.40318531 L12.4102564,7.79595278 C12.4102564,8.57166948 11.7793408,9.2 11.0004327,9.2" id="Fill-265-Copy"></path>
                    <path d="M11.0004327,23 C10.2215246,23 9.58974359,22.3717283 9.58974359,21.5960843 L9.58974359,15.2039157 C9.58974359,14.4291335 10.2215246,13.8 11.0004327,13.8 C11.7793408,13.8 12.4102564,14.4291335 12.4102564,15.2039157 L12.4102564,21.5960843 C12.4102564,22.3717283 11.7793408,23 11.0004327,23" id="Fill-266-Copy"></path>
                    <path d="M20.621975,13.225 L14.3515386,13.225 C13.5906659,13.225 12.974359,12.5808165 12.974359,11.7875 C12.974359,10.9933011 13.5906659,10.35 14.3515386,10.35 L20.621975,10.35 C21.3828477,10.35 22,10.9933011 22,11.7875 C22,12.5808165 21.3828477,13.225 20.621975,13.225" id="Fill-267-Copy"></path>
                    <path d="M7.64761603,13.225 L1.378025,13.225 C0.617152299,13.225 0,12.5808165 0,11.7875 C0,10.9933011 0.617152299,10.35 1.378025,10.35 L7.64761603,10.35 C8.40848873,10.35 9.02564103,10.9933011 9.02564103,11.7875 C9.02564103,12.5808165 8.40848873,13.225 7.64761603,13.225" id="Fill-268-Copy"></path>
                </g>
                <g id="Group-6-Copy-2" transform="translate(690.000000, 252.000000)">
                    <path d="M14.0337185,11.5409836 C13.0400324,11.5409836 12.2340426,10.7527714 12.2340426,9.77966992 L12.2340426,1.76023246 C12.2340426,0.788212202 13.0400324,0 14.0337185,0 C15.0274046,0 15.8322904,0.788212202 15.8322904,1.76023246 L15.8322904,9.77966992 C15.8322904,10.7527714 15.0274046,11.5409836 14.0337185,11.5409836" id="Fill-265-Copy"></path>
                    <path d="M14.0337185,28.852459 C13.0400324,28.852459 12.2340426,28.0643207 12.2340426,27.0913103 L12.2340426,19.0726241 C12.2340426,18.1006949 13.0400324,17.3114754 14.0337185,17.3114754 C15.0274046,17.3114754 15.8322904,18.1006949 15.8322904,19.0726241 L15.8322904,27.0913103 C15.8322904,28.0643207 15.0274046,28.852459 14.0337185,28.852459" id="Fill-266-Copy"></path>
                    <path d="M26.308328,16.5901639 L18.3088663,16.5901639 C17.3381888,16.5901639 16.5519399,15.7820648 16.5519399,14.7868852 C16.5519399,13.7905987 17.3381888,12.9836066 18.3088663,12.9836066 L26.308328,12.9836066 C27.2790056,12.9836066 28.0663329,13.7905987 28.0663329,14.7868852 C28.0663329,15.7820648 27.2790056,16.5901639 26.308328,16.5901639" id="Fill-267-Copy"></path>
                    <path d="M9.75638807,16.5901639 L1.75800492,16.5901639 C0.787327359,16.5901639 0,15.7820648 0,14.7868852 C0,13.7905987 0.787327359,12.9836066 1.75800492,12.9836066 L9.75638807,12.9836066 C10.7270656,12.9836066 11.514393,13.7905987 11.514393,14.7868852 C11.514393,15.7820648 10.7270656,16.5901639 9.75638807,16.5901639" id="Fill-268-Copy"></path>
                </g>
            </g>
            <g id="mountain" transform="translate(1056.000000, 218.000000)">
                <g id="Shape">
                    <path d="M283.89429,254.75823 L197.198559,113.386657 C196.350032,112.002663 194.844179,111.159691 193.222106,111.159691 C191.600033,111.159691 190.093555,112.002663 189.245653,113.386657 L157.212837,165.616714 C156.293704,167.11464 156.293704,169.003546 157.212837,170.501472 L210.294635,257.074324 C215.219192,257.053361 218.830868,257.023181 221.129663,256.983784 C231.448665,256.806939 240.456218,256.546374 248.152322,256.202091 C253.2318,255.974861 260.634593,255.838116 266.513995,255.588305 C270.51761,255.418194 276.311042,255.141503 283.89429,254.75823 Z" fill="#546F7A" fill-rule="nonzero"></path>
                    <path d="M283.893341,254.755911 L196.858529,113.69735 C196.010002,112.313356 194.504149,111.470383 192.882076,111.470383 C191.260003,111.470383 189.753525,112.313356 188.905623,113.69735 L183.92381,121.820144 L266.02283,255.618377 L283.893341,254.755911 Z" fill="#465A65" fill-rule="nonzero"></path>
                    <path d="M232.2687,170.568711 L197.198559,113.386657 C196.350032,112.002663 194.844179,111.159691 193.222106,111.159691 C191.600033,111.159691 190.093555,112.002663 189.245653,113.386657 L157.212837,165.616714 C156.293704,167.11464 156.293704,169.003546 157.212837,170.501472 L158.851781,173.174206 C160.083956,175.183892 162.618289,175.959004 164.761475,174.981554 L178.958361,168.513576 L189.449349,181.332487 C190.335366,182.415153 191.660642,183.043335 193.059024,183.043335 C194.457405,183.043335 195.782682,182.415153 196.668698,181.332487 L207.160311,168.513576 L226.359631,177.260195 C228.226014,178.109393 230.430434,177.639968 231.788826,176.10282 C233.146593,174.564426 233.342167,172.318159 232.2687,170.568711 Z" fill="#EFE7E4" fill-rule="nonzero"></path>
                    <path d="M215.391893,172.264617 L226.359006,177.260817 C228.225389,178.110016 230.429809,177.640591 231.788201,176.103442 C233.147218,174.564426 233.342167,172.318782 232.2687,170.568711 L197.198559,113.386657 C196.350032,112.002663 194.844179,111.159691 193.222106,111.159691 C191.600033,111.159691 190.093555,112.002663 189.245653,113.386657 L184.263839,121.509451 L215.391893,172.264617 Z" fill="#D8D1D0" fill-rule="nonzero"></path>
                    <path d="M221.187584,256.97773 L112.066599,79.0395725 C111.218073,77.6555784 109.712219,76.8126058 108.090146,76.8126058 C106.468073,76.8126058 104.96222,77.6555784 104.113693,79.0395725 L0.141735593,248.564072 C39.9339982,252.61791 73.2519065,255.163916 100.09546,256.202091 C126.939014,257.240265 167.303055,257.498812 221.187584,256.97773 Z" fill="#546F7A" fill-rule="nonzero"></path>
                    <path d="M221.115662,256.968846 L112.066599,79.0395725 C111.218073,77.6555784 109.712219,76.8126058 108.090146,76.8126058 C106.468073,76.8126058 104.96222,77.6555784 104.113693,79.0395725 L99.13188,87.1623664 L203.357397,257.125696 L221.115662,256.968846 Z" fill="#465A65" fill-rule="nonzero"></path>
                    <path d="M167.659461,22.9159039 L109.752209,0.814956483 C108.318211,0.267709158 106.706761,0.461331363 105.442094,1.33232 C104.178051,2.20393121 103.42325,3.64208971 103.42325,5.17799318 L103.42325,49.3798881 C103.42325,50.9157915 104.178051,52.3533275 105.442094,53.2255612 C106.231886,53.7696957 107.156642,54.0492338 108.089521,54.0492338 C108.649999,54.0492338 109.2136,53.948376 109.752209,53.7429248 L167.659461,31.6419773 C169.467735,30.9521593 170.662421,29.2164078 170.662421,27.2789406 C170.663046,25.3414734 169.46836,23.6057219 167.659461,22.9159039 Z" fill="#FF773C" fill-rule="nonzero"></path>
                    <path d="M105.442718,53.2249387 C106.23251,53.7690731 107.157267,54.0486113 108.090146,54.0486113 C108.650624,54.0486113 109.214225,53.9477534 109.752833,53.7423022 L167.660086,31.6413547 C169.46836,30.9515367 170.663046,29.2157853 170.663046,27.278318 C170.663046,25.3414734 169.46836,23.6057219 167.660086,22.9152813 L156.231845,18.5534898 L103.423875,38.7082539 L103.423875,49.3786429 C103.423875,50.915169 104.178676,52.3533275 105.442718,53.2249387 Z" fill-opacity="0.100741621" fill="#000000" fill-rule="nonzero"></path>
                    <path d="M108.089521,86.1512974 C105.5127,86.1512974 103.423875,84.0612982 103.423875,81.4819516 L103.423875,5.1773706 C103.423875,2.59864657 105.5127,0.508024821 108.089521,0.508024821 C110.666343,0.508024821 112.755793,2.59864657 112.755793,5.1773706 L112.755793,81.4819516 C112.755793,84.0612982 110.666968,86.1512974 108.089521,86.1512974 Z" fill="#546F7A" fill-rule="nonzero"></path>
                    <path d="M164.325985,164.506032 L111.909161,79.040195 C111.060635,77.6562009 109.554781,76.8132284 107.932708,76.8132284 C106.310635,76.8132284 104.804782,77.6562009 103.956255,79.040195 L51.538807,164.506032 C50.4653396,166.255481 50.6609131,168.501747 52.0193054,170.040764 C53.3776978,171.57978 55.5814925,172.048582 57.4491258,171.198139 L89.6793894,156.514603 L104.323659,174.408158 C105.209675,175.490824 106.534951,176.119007 107.933333,176.119007 C109.331715,176.119007 110.656991,175.490824 111.543008,174.408158 L126.187277,156.515225 L158.41754,171.198139 C160.283924,172.047337 162.488344,171.577912 163.847361,170.040764 C165.204503,168.501125 165.399452,166.255481 164.325985,164.506032 Z" fill="url(#linearGradient-5)" fill-rule="nonzero"></path>
                    <path d="M147.606616,166.201939 L158.573104,171.198139 C160.439488,172.047337 162.643907,171.577912 164.002924,170.040764 C165.361317,168.501747 165.556265,166.256103 164.483423,164.506032 L112.066599,79.040195 C111.218073,77.6562009 109.712219,76.8132284 108.090146,76.8132284 C106.468073,76.8132284 104.96222,77.6562009 104.113693,79.040195 L99.13188,87.162989 L147.606616,166.201939 Z" fill="#D8D1D0" fill-rule="nonzero"></path>
                </g>
            </g>
        </g>
    </g>
</svg>