<?xml version="1.0" encoding="UTF-8"?>
<svg width="2365.64922px" height="937.091379px" viewBox="0 0 2365.64922 937.091379" version="1.1" xmlns="http://www.w3.org/2000/svg" xmlns:xlink="http://www.w3.org/1999/xlink">
    <!-- Generator: Sketch 52.6 (67491) - http://www.bohemiancoding.com/sketch -->
    <desc>Created with Sketch.</desc>
    <g id="Page-1" stroke="none" stroke-width="1" fill="none" fill-rule="evenodd" fill-opacity="0.132302989">
        <path d="M215.190552,365.949469 C421.753974,282.143389 819.101925,301.642785 1132.10977,284.00803 C1534.74883,261.323483 1911.84838,-76.3288565 2162.09147,15.9274464 C2606.87122,179.902937 2236.64415,732.510662 1871.41152,891.278988 C1729.32709,953.04375 1533.96151,944.225126 1202.88993,912.415395 C1063.54502,899.026978 666.669564,864.296579 650.215587,862.681841 C645.929576,862.261227 641.973064,862.558955 637.481815,862.237168 C624.60173,861.314343 610.850199,861.564928 597.292732,860.833734 C584.263163,860.131012 502.02662,858.627343 489.636812,857.074307 C441.849097,851.084219 381.016712,839.487327 307.139656,822.283632 C-69.0112233,645.801131 -99.6609244,493.689744 215.190552,365.949469 Z" id="Rectangle" fill="#98B4E6" fill-rule="nonzero"></path>
    </g>
</svg>