<?xml version="1.0" encoding="UTF-8"?>
<svg width="62px" height="82px" viewBox="0 0 62 82" version="1.1" xmlns="http://www.w3.org/2000/svg" xmlns:xlink="http://www.w3.org/1999/xlink">
    <!-- Generator: Sketch 52.6 (67491) - http://www.bohemiancoding.com/sketch -->
    <desc>Created with Sketch.</desc>
    <g id="Page-1" stroke="none" stroke-width="1" fill="none" fill-rule="evenodd">
        <g id="illustration/goals/taxfree">
            <g id="cookies" fill-rule="nonzero">
                <path d="M32.3692769,0 L29.2685184,0 C27.9873328,0 26.9487674,1.04525316 26.9487674,2.33433544 L26.9487674,8.37689873 L34.6890279,8.37689873 L34.6890279,2.33433544 C34.6891851,1.04525316 33.6504625,0 32.3692769,0 Z" id="Shape" fill="#9A9B9D"></path>
                <path d="M47.470694,4.91677215 L14.1672586,4.91677215 C12.2336872,4.91677215 10.6661689,6.49414557 10.6661689,8.43987342 L10.6661689,10.7878165 L30.8190549,14.0797468 L50.9719409,10.7878165 L50.9719409,8.44003165 C50.9717836,6.49414557 49.4042653,4.91677215 47.470694,4.91677215 Z" id="Shape" fill="#B3B5B7"></path>
                <path d="M17.1455276,10.7878165 L17.1455276,8.44003165 C17.1455276,6.4943038 18.713046,4.91693038 20.6466173,4.91693038 L14.1672586,4.91693038 C12.2336872,4.91693038 10.6661689,6.4943038 10.6661689,8.44003165 L10.6661689,10.7879747 L30.8190549,14.0799051 L34.0588129,13.5506329 L17.1455276,10.7878165 Z" id="Shape" fill="#9A9B9D"></path>
                <path d="M50.9717836,10.7878165 L10.6661689,10.7878165 C8.95713522,10.7878165 7.57154274,12.181962 7.57154274,13.9018987 L7.57154274,17.3713608 L30.8188976,21.5009494 L54.0662525,17.3713608 L54.0662525,13.9018987 C54.0664098,12.1821203 52.6809745,10.7878165 50.9717836,10.7878165 Z" id="Shape" fill="#E3E6E8"></path>
                <path d="M14.0509015,17.3713608 L14.0509015,13.9018987 C14.0509015,12.1821203 15.4363367,10.7878165 17.1455276,10.7878165 L10.6661689,10.7878165 C8.95713522,10.7878165 7.57154274,12.181962 7.57154274,13.9018987 L7.57154274,17.3713608 L30.8188976,21.5009494 L34.0586556,20.9254747 L14.0509015,17.3713608 Z" id="Shape" fill="#B3B5B7"></path>
                <path d="M54.0664098,17.3713608 L7.57154274,17.3713608 C2.83329447,21.0626582 0.059750924,26.7530063 0.059750924,32.7829114 L0.059750924,72.3017405 C0.059750924,77.1126582 3.93538454,81.0126582 8.71624466,81.0126582 L52.9213934,81.0126582 C57.7022535,81.0126582 61.5778871,77.1126582 61.5778871,72.3017405 L61.5778871,32.7830696 C61.5782016,26.7530063 58.804658,21.0628165 54.0664098,17.3713608 Z" id="Shape" fill="#FFD57A"></path>
                <path d="M6.53926691,72.3017405 L6.53926691,32.7830696 C6.53926691,26.7533228 9.31281046,21.0628165 14.0510587,17.371519 L7.57169998,17.371519 C2.83345171,21.0628165 0.0599081633,26.7531646 0.0599081633,32.7830696 L0.0599081633,72.3017405 C0.0599081633,77.1126582 3.93554178,81.0126582 8.7164019,81.0126582 L15.1957606,81.0126582 C10.4149005,81.0126582 6.53926691,77.1126582 6.53926691,72.3017405 Z" id="Shape" fill="#ECC369"></path>
                <g id="Group" transform="translate(16.824602, 26.107595)" fill="#3B484A">
                    <path d="M1.23196971,4.78781646 C0.561029728,4.78781646 0.0171390808,4.24050633 0.0171390808,3.5653481 L0.0171390808,1.24113924 C0.0171390808,0.565981013 0.561029728,0.0186708861 1.23196971,0.0186708861 C1.90290969,0.0186708861 2.44680034,0.565981013 2.44680034,1.24113924 L2.44680034,3.5653481 C2.44680034,4.24050633 1.90290969,4.78781646 1.23196971,4.78781646 Z" id="Shape"></path>
                    <path d="M26.7567782,4.78781646 C26.0858383,4.78781646 25.5419476,4.24050633 25.5419476,3.5653481 L25.5419476,1.24113924 C25.5419476,0.565981013 26.0858383,0.0186708861 26.7567782,0.0186708861 C27.4277182,0.0186708861 27.9716089,0.565981013 27.9716089,1.24113924 L27.9716089,3.5653481 C27.9717661,4.24050633 27.4277182,4.78781646 26.7567782,4.78781646 Z" id="Shape"></path>
                    <path d="M13.9944526,6.5056962 C12.1355699,6.5056962 10.3914719,5.72531646 9.20934702,4.36471519 C8.76781914,3.85632911 8.81923638,3.08401899 9.32444617,2.63971519 C9.82965595,2.19541139 10.5971408,2.24731013 11.0386687,2.75553797 C11.7591391,3.58496835 12.8363853,4.06075949 13.9942954,4.06075949 C15.1520481,4.06075949 16.2291372,3.58512658 16.9497647,2.75553797 C17.3914499,2.24731013 18.1589348,2.19525316 18.6639873,2.63971519 C19.1691971,3.08401899 19.2207716,3.85632911 18.7790865,4.36471519 C17.5974333,5.72531646 15.8533353,6.5056962 13.9944526,6.5056962 Z" id="Shape"></path>
                </g>
                <path d="M52.406592,44.3738924 C52.0537471,43.8962025 51.7570366,43.3791139 51.5222783,42.8327532 C50.5621753,40.597943 48.6105215,38.9501582 46.2568068,38.3867089 C45.6814683,38.2490506 45.1237406,38.0447785 44.5949449,37.7780063 C42.4319614,36.6871835 39.8842135,36.6871835 37.72123,37.7780063 C37.1924344,38.0446203 36.6348639,38.2488924 36.0593682,38.3867089 C33.7054962,38.95 31.7539996,40.597943 30.7938966,42.8327532 C30.5591384,43.3789557 30.2624278,43.8962025 29.9095829,44.3738924 C28.4664409,46.3280063 28.0239695,48.8526899 28.7159796,51.1856013 C28.8851691,51.7560127 28.9881608,52.3441456 29.0230679,52.9382911 C29.1658412,55.3686709 30.4396365,57.5889241 32.4598467,58.928481 C32.9537353,59.2560127 33.408314,59.6398734 33.814463,60.0724684 C35.4763249,61.8420886 37.8702929,62.7188291 40.2735379,62.4381329 C40.8609839,62.369462 41.4544049,62.369462 42.0418508,62.4381329 C44.4452531,62.7188291 46.839221,61.8420886 48.5009257,60.0724684 C48.907232,59.6398734 49.3616535,59.2560127 49.855542,58.928481 C51.8757522,57.5889241 53.1497048,55.3688291 53.2923208,52.9382911 C53.3270707,52.3441456 53.4302197,51.7560127 53.5994091,51.1856013 C54.2920481,48.8526899 53.8497341,46.3280063 52.406592,44.3738924 Z" id="Shape" fill="#CE9964"></path>
                <path d="M9.23136052,44.3738924 C9.58420545,43.8962025 9.88091596,43.3791139 10.1156742,42.8327532 C11.0757772,40.597943 13.0274311,38.9501582 15.3811457,38.3867089 C15.9564843,38.2490506 16.514212,38.0447785 17.0430076,37.7780063 C19.2059911,36.6871835 21.753739,36.6871835 23.9167225,37.7780063 C24.4455182,38.0446203 25.0030886,38.2488924 25.5785844,38.3867089 C27.9324563,38.95 29.8839529,40.597943 30.8440559,42.8327532 C31.0788142,43.3789557 31.3755247,43.8962025 31.7283696,44.3738924 C33.1715117,46.3280063 33.613983,48.8526899 32.9219729,51.1856013 C32.7527835,51.7560127 32.6497917,52.3441456 32.6148846,52.9382911 C32.4721114,55.3686709 31.198316,57.5889241 29.1781058,58.928481 C28.6842173,59.2560127 28.2296385,59.6398734 27.8234895,60.0724684 C26.1616276,61.8420886 23.7676596,62.7188291 21.3644146,62.4381329 C20.7769687,62.369462 20.1835476,62.369462 19.5961017,62.4381329 C17.1926994,62.7188291 14.7987315,61.8420886 13.1370268,60.0724684 C12.7307206,59.6398734 12.2762991,59.2560127 11.7824105,58.928481 C9.76220031,57.5889241 8.48824771,55.3688291 8.34563169,52.9382911 C8.31088181,52.3441456 8.20773285,51.7560127 8.03854339,51.1856013 C7.34590439,48.8526899 7.78821846,46.3280063 9.23136052,44.3738924 Z" id="Shape" fill="#DDA46C"></path>
                <path d="M27.5277224,58.5170886 C27.1748775,58.0393987 26.878167,57.5223101 26.6434087,56.9759494 C25.6833057,54.7411392 23.7316519,53.0933544 21.3779372,52.5299051 C20.8025987,52.3922468 20.244871,52.1879747 19.7160753,51.9212025 C17.5530918,50.8303797 15.0053439,50.8303797 12.8423604,51.9212025 C12.3135648,52.1878165 11.7559943,52.3920886 11.1804986,52.5299051 C8.82662663,53.0931962 6.87513,54.7411392 5.915027,56.9759494 C5.68026876,57.5221519 5.38355825,58.0393987 5.03071332,58.5170886 C3.58757127,60.4712025 3.14509995,62.9958861 3.83711,65.3287975 C4.00629945,65.8992089 4.10944842,66.4873418 4.1441983,67.0814873 C4.28697156,69.5118671 5.56076691,71.7321203 7.5809771,73.0716772 C8.07486566,73.3992089 8.5294444,73.7830696 8.93559344,74.2156646 C10.5974553,75.9852848 12.9914233,76.8620253 15.3946683,76.5813291 C15.9821143,76.5126582 16.5755353,76.5126582 17.1629812,76.5813291 C19.5663835,76.8620253 21.9603514,75.9852848 23.6220561,74.2156646 C24.0283624,73.7830696 24.4827839,73.3992089 24.9766724,73.0716772 C26.9968826,71.7321203 28.2708352,69.5120253 28.4134512,67.0814873 C28.4482011,66.4873418 28.5513501,65.8992089 28.7205395,65.3287975 C29.413493,62.9958861 28.9710217,60.4712025 27.5277224,58.5170886 Z" id="Shape" fill="#CE9964"></path>
                <ellipse id="Oval" fill="#8B6C52" cx="11.2608478" cy="60.5295886" rx="2.11879921" ry="1.70094937"></ellipse>
                <path d="M34.1102301,58.5170886 C34.463075,58.0393987 34.7597856,57.5223101 34.9945438,56.9759494 C35.9546468,54.7411392 37.9063007,53.0933544 40.2600153,52.5299051 C40.8353538,52.3922468 41.3930816,52.1879747 41.9218772,51.9212025 C44.0848607,50.8303797 46.6326086,50.8303797 48.7955921,51.9212025 C49.3243878,52.1878165 49.8819582,52.3920886 50.457454,52.5299051 C52.8113259,53.0931962 54.7628225,54.7411392 55.7229255,56.9759494 C55.9576838,57.5221519 56.2543943,58.0393987 56.6072392,58.5170886 C58.0503812,60.4712025 58.4928526,62.9958861 57.8008425,65.3287975 C57.6316531,65.8992089 57.5286613,66.4873418 57.4937542,67.0814873 C57.350981,69.5118671 56.0771856,71.7321203 54.0569754,73.0716772 C53.5630869,73.3992089 53.1085081,73.7830696 52.7023591,74.2156646 C51.0404972,75.9852848 48.6465292,76.8620253 46.2432842,76.5813291 C45.6558383,76.5126582 45.0624172,76.5126582 44.4749713,76.5813291 C42.071569,76.8620253 39.6776011,75.9852848 38.0158964,74.2156646 C37.6095901,73.7830696 37.1551686,73.3992089 36.6612801,73.0716772 C34.6410699,71.7321203 33.3671173,69.5120253 33.2245013,67.0814873 C33.1897514,66.4873418 33.0866024,65.8992089 32.917413,65.3287975 C32.2244595,62.9958861 32.6669308,60.4712025 34.1102301,58.5170886 Z" id="Shape" fill="#DDA46C"></path>
                <path d="M42.0673236,58.5170886 C41.7144786,58.0393987 41.4177681,57.5223101 41.1830099,56.9759494 C40.2229069,54.7411392 38.2714103,53.0933544 35.9175383,52.5299051 C35.3421998,52.3922468 34.7844721,52.1879747 34.2556764,51.9212025 C32.092693,50.8303797 29.544945,50.8303797 27.3819616,51.9212025 C26.8531659,52.1878165 26.2955955,52.3920886 25.7200997,52.5299051 C23.3662278,53.0931962 21.4147312,54.7411392 20.4546282,56.9759494 C20.2198699,57.5221519 19.9231594,58.0393987 19.5703145,58.5170886 C18.1271724,60.4712025 17.6847011,62.9958861 18.3767112,65.3287975 C18.5459006,65.8992089 18.6488923,66.4873418 18.6837995,67.0814873 C18.8265727,69.5118671 20.1003681,71.7321203 22.1205783,73.0716772 C22.6144668,73.3992089 23.0690456,73.7830696 23.4751946,74.2156646 C25.1370565,75.9852848 27.5310244,76.8620253 29.9342695,76.5813291 C30.5217154,76.5126582 31.1151364,76.5126582 31.7025824,76.5813291 C34.1059847,76.8620253 36.4999526,75.9852848 38.1616572,74.2156646 C38.5679635,73.7830696 39.022385,73.3992089 39.5162736,73.0716772 C41.5364838,71.7321203 42.8104364,69.5120253 42.9530524,67.0814873 C42.9878023,66.4873418 43.0909512,65.8992089 43.2601407,65.3287975 C43.9529369,62.9958861 43.5104656,60.4712025 42.0673236,58.5170886 Z" id="Shape" fill="#F6B778"></path>
                <g id="Group" transform="translate(22.956934, 60.443038)" fill="#654D3B">
                    <ellipse id="Oval" cx="2.69303704" cy="2.16170886" rx="2.58485642" ry="2.07563291"></ellipse>
                    <ellipse id="Oval" cx="10.4472918" cy="9.20015823" rx="2.58485642" ry="2.07563291"></ellipse>
                    <ellipse id="Oval" cx="26.404405" cy="7.12515823" rx="2.58485642" ry="2.07563291"></ellipse>
                </g>
                <g id="Group" transform="translate(14.151535, 42.088608)" fill="#8B6C52">
                    <ellipse id="Oval" cx="20.7931643" cy="17.3276899" rx="2.11879921" ry="1.70094937"></ellipse>
                    <ellipse id="Oval" cx="2.12760461" cy="1.85870253" rx="2.11879921" ry="1.70094937"></ellipse>
                </g>
                <ellipse id="Oval" fill="#654D3B" cx="25.649971" cy="46.4837025" rx="2.11879921" ry="1.70094937"></ellipse>
                <ellipse id="Oval" fill="#8B6C52" cx="41.1584806" cy="45.6490506" rx="2.11879921" ry="1.70094937"></ellipse>
            </g>
            <rect id="Rectangle-14" fill="#FFFFFF" fill-rule="nonzero" x="11.3543307" y="54.278481" width="41.3622047" height="14.5822785" rx="0.81"></rect>
            <path d="M20.8287087,63.0408101 L22.0841732,62.7588861 C22.1133701,63.3421772 22.5610551,63.8185316 23.2325827,63.8185316 C23.8359843,63.8185316 24.3225984,63.4199494 24.3225984,62.7880506 C24.3225984,62.0686582 23.7873228,61.7284051 23.2033858,61.7284051 C22.7751654,61.7284051 22.4345354,61.9228354 22.2301575,62.1561519 C22.1036378,62.1075443 21.1401417,61.7770127 21.0038898,61.7381266 L21.7532756,58.5008608 L25.3152913,58.5008608 L25.3152913,59.6577215 L22.6681102,59.6577215 L22.3566772,61.0478987 C22.6291811,60.7951392 23.0768661,60.659038 23.4953543,60.659038 C24.7605512,60.659038 25.6559213,61.4173165 25.6559213,62.7686076 C25.6559213,63.9449114 24.7508189,64.9656709 23.2325827,64.9656709 C21.8603307,64.9656709 20.9065669,64.0324051 20.8287087,63.0408101 Z M27.6802362,61.6603544 C27.6802362,62.3214177 27.7775591,62.8852658 28.0208661,63.2644051 C28.2155118,63.5754937 28.5172126,63.7796456 28.9746299,63.7796456 C29.4417795,63.7796456 29.7240157,63.5754937 29.9186614,63.2644051 C30.1717008,62.8852658 30.2690236,62.3214177 30.2690236,61.6603544 C30.2690236,60.9992911 30.1717008,60.435443 29.9186614,60.0563038 C29.7240157,59.7452152 29.4417795,59.5410633 28.9746299,59.5410633 C28.5172126,59.5410633 28.2155118,59.7452152 28.0208661,60.0563038 C27.7775591,60.435443 27.6802362,60.9992911 27.6802362,61.6603544 Z M26.3371811,61.6603544 C26.3371811,60.8534684 26.4637008,60.0660253 26.8919213,59.4146835 C27.3104094,58.7925063 27.9916693,58.355038 28.9746299,58.355038 C29.9575906,58.355038 30.6388504,58.7925063 31.0476063,59.4146835 C31.4758268,60.0660253 31.6120787,60.8534684 31.6120787,61.6603544 C31.6120787,62.4672405 31.4758268,63.2546835 31.0476063,63.9060253 C30.6388504,64.5282025 29.9575906,64.9656709 28.9746299,64.9656709 C27.9916693,64.9656709 27.3104094,64.5282025 26.8919213,63.9060253 C26.4637008,63.2546835 26.3371811,62.4672405 26.3371811,61.6603544 Z M33.7531811,61.6603544 C33.7531811,62.3214177 33.8505039,62.8852658 34.093811,63.2644051 C34.2884567,63.5754937 34.5901575,63.7796456 35.0475748,63.7796456 C35.5147244,63.7796456 35.7969606,63.5754937 35.9916063,63.2644051 C36.2446457,62.8852658 36.3419685,62.3214177 36.3419685,61.6603544 C36.3419685,60.9992911 36.2446457,60.435443 35.9916063,60.0563038 C35.7969606,59.7452152 35.5147244,59.5410633 35.0475748,59.5410633 C34.5901575,59.5410633 34.2884567,59.7452152 34.093811,60.0563038 C33.8505039,60.435443 33.7531811,60.9992911 33.7531811,61.6603544 Z M32.410126,61.6603544 C32.410126,60.8534684 32.5366457,60.0660253 32.9648661,59.4146835 C33.3833543,58.7925063 34.0646142,58.355038 35.0475748,58.355038 C36.0305354,58.355038 36.7117953,58.7925063 37.1205512,59.4146835 C37.5487717,60.0660253 37.6850236,60.8534684 37.6850236,61.6603544 C37.6850236,62.4672405 37.5487717,63.2546835 37.1205512,63.9060253 C36.7117953,64.5282025 36.0305354,64.9656709 35.0475748,64.9656709 C34.0646142,64.9656709 33.3833543,64.5282025 32.9648661,63.9060253 C32.5366457,63.2546835 32.410126,62.4672405 32.410126,61.6603544 Z M43.4173386,60.0271392 L41.5000787,62.0394937 L43.4562677,64.8101266 L41.8699055,64.8101266 L40.6047087,62.982481 L40.0694331,63.5463291 L40.0694331,64.8101266 L38.7750394,64.8101266 L38.7750394,57.7717468 L40.0694331,57.7717468 L40.0694331,61.8061772 L41.7239213,60.0271392 L43.4173386,60.0271392 Z" id="500k" fill="#333333"></path>
        </g>
    </g>
</svg>