<?xml version="1.0" encoding="UTF-8"?>
<svg width="22px" height="23px" viewBox="0 0 22 23" version="1.1" xmlns="http://www.w3.org/2000/svg" xmlns:xlink="http://www.w3.org/1999/xlink">
    <!-- Generator: Sketch 52.6 (67491) - http://www.bohemiancoding.com/sketch -->
    <desc>Created with Sketch.</desc>
    <g id="Page-1" stroke="none" stroke-width="1" fill="none" fill-rule="evenodd">
        <g id="Group-6-Copy-5" fill="#FFFFFF" fill-rule="nonzero">
            <path d="M11.0004327,9.2 C10.2215246,9.2 9.58974359,8.57166948 9.58974359,7.79595278 L9.58974359,1.40318531 C9.58974359,0.628330523 10.2215246,0 11.0004327,0 C11.7793408,0 12.4102564,0.628330523 12.4102564,1.40318531 L12.4102564,7.79595278 C12.4102564,8.57166948 11.7793408,9.2 11.0004327,9.2" id="Fill-265-Copy"></path>
            <path d="M11.0004327,23 C10.2215246,23 9.58974359,22.3717283 9.58974359,21.5960843 L9.58974359,15.2039157 C9.58974359,14.4291335 10.2215246,13.8 11.0004327,13.8 C11.7793408,13.8 12.4102564,14.4291335 12.4102564,15.2039157 L12.4102564,21.5960843 C12.4102564,22.3717283 11.7793408,23 11.0004327,23" id="Fill-266-Copy"></path>
            <path d="M20.621975,13.225 L14.3515386,13.225 C13.5906659,13.225 12.974359,12.5808165 12.974359,11.7875 C12.974359,10.9933011 13.5906659,10.35 14.3515386,10.35 L20.621975,10.35 C21.3828477,10.35 22,10.9933011 22,11.7875 C22,12.5808165 21.3828477,13.225 20.621975,13.225" id="Fill-267-Copy"></path>
            <path d="M7.64761603,13.225 L1.378025,13.225 C0.617152299,13.225 0,12.5808165 0,11.7875 C0,10.9933011 0.617152299,10.35 1.378025,10.35 L7.64761603,10.35 C8.40848873,10.35 9.02564103,10.9933011 9.02564103,11.7875 C9.02564103,12.5808165 8.40848873,13.225 7.64761603,13.225" id="Fill-268-Copy"></path>
        </g>
    </g>
</svg>