<?xml version="1.0" encoding="UTF-8"?>
<svg width="28.0663329px" height="28.852459px" viewBox="0 0 28.0663329 28.852459" version="1.1" xmlns="http://www.w3.org/2000/svg" xmlns:xlink="http://www.w3.org/1999/xlink">
    <!-- Generator: Sketch 52.6 (67491) - http://www.bohemiancoding.com/sketch -->
    <desc>Created with Sketch.</desc>
    <g id="Page-1" stroke="none" stroke-width="1" fill="none" fill-rule="evenodd">
        <g id="Group-6-Copy" fill="#FFFFFF" fill-rule="nonzero">
            <path d="M14.0337185,11.5409836 C13.0400324,11.5409836 12.2340426,10.7527714 12.2340426,9.77966992 L12.2340426,1.76023246 C12.2340426,0.788212202 13.0400324,0 14.0337185,0 C15.0274046,0 15.8322904,0.788212202 15.8322904,1.76023246 L15.8322904,9.77966992 C15.8322904,10.7527714 15.0274046,11.5409836 14.0337185,11.5409836" id="Fill-265-Copy"></path>
            <path d="M14.0337185,28.852459 C13.0400324,28.852459 12.2340426,28.0643207 12.2340426,27.0913103 L12.2340426,19.0726241 C12.2340426,18.1006949 13.0400324,17.3114754 14.0337185,17.3114754 C15.0274046,17.3114754 15.8322904,18.1006949 15.8322904,19.0726241 L15.8322904,27.0913103 C15.8322904,28.0643207 15.0274046,28.852459 14.0337185,28.852459" id="Fill-266-Copy"></path>
            <path d="M26.308328,16.5901639 L18.3088663,16.5901639 C17.3381888,16.5901639 16.5519399,15.7820648 16.5519399,14.7868852 C16.5519399,13.7905987 17.3381888,12.9836066 18.3088663,12.9836066 L26.308328,12.9836066 C27.2790056,12.9836066 28.0663329,13.7905987 28.0663329,14.7868852 C28.0663329,15.7820648 27.2790056,16.5901639 26.308328,16.5901639" id="Fill-267-Copy"></path>
            <path d="M9.75638807,16.5901639 L1.75800492,16.5901639 C0.787327359,16.5901639 0,15.7820648 0,14.7868852 C0,13.7905987 0.787327359,12.9836066 1.75800492,12.9836066 L9.75638807,12.9836066 C10.7270656,12.9836066 11.514393,13.7905987 11.514393,14.7868852 C11.514393,15.7820648 10.7270656,16.5901639 9.75638807,16.5901639" id="Fill-268-Copy"></path>
        </g>
    </g>
</svg>