<?xml version="1.0" encoding="UTF-8"?>
<svg width="144px" height="144px" viewBox="0 0 144 144" version="1.1" xmlns="http://www.w3.org/2000/svg" xmlns:xlink="http://www.w3.org/1999/xlink">
    <!-- Generator: Sketch 52.6 (67491) - http://www.bohemiancoding.com/sketch -->
    <desc>Created with Sketch.</desc>
    <defs>
        <ellipse id="path-1" cx="41.4" cy="41.25179" rx="41.4" ry="41.25179"></ellipse>
        <filter x="-65.8%" y="-50.3%" width="231.6%" height="232.1%" filterUnits="objectBoundingBox" id="filter-2">
            <feOffset dx="0" dy="13" in="SourceAlpha" result="shadowOffsetOuter1"></feOffset>
            <feGaussianBlur stdDeviation="16" in="shadowOffsetOuter1" result="shadowBlurOuter1"></feGaussianBlur>
            <feColorMatrix values="0 0 0 0 0   0 0 0 0 0   0 0 0 0 0  0 0 0 0.07 0" type="matrix" in="shadowBlurOuter1"></feColorMatrix>
        </filter>
    </defs>
    <g id="Page-1" stroke="none" stroke-width="1" fill="none" fill-rule="evenodd">
        <g id="icon/read-only" transform="translate(30.000000, 18.000000)">
            <g transform="translate(0.300000, 0.000000)" fill-rule="nonzero" id="Oval-Copy-9">
                <g>
                    <use fill="black" fill-opacity="1" filter="url(#filter-2)" xlink:href="#path-1"></use>
                    <use fill="#FFFFFF" xlink:href="#path-1"></use>
                </g>
            </g>
            <g id="Group-6" transform="translate(19.000000, 18.931981)">
                <ellipse id="Oval" stroke="#F1692E" stroke-width="1.8" fill-rule="nonzero" cx="22.85" cy="22.4194511" rx="22.85" ry="22.4194511"></ellipse>
                <path d="M24.8874,16.3547957 C25.0026,16.3907957 25.0962,16.4771957 25.1394,16.5995957 C25.2114,16.8083957 25.0962,17.0315957 24.8874,17.1035957 C24.8586,17.1107957 24.801,17.1251957 24.729,17.1251957 L24.7218,17.1251957 C24.6498,17.1251957 24.5418,17.1107957 24.441,17.0459957 C24.3474,16.9883957 24.2682,16.8947957 24.2106,16.7939957 C24.1098,16.5851957 24.0594,16.3259957 24.0594,15.9299957 C24.0522,15.7931957 24.0234,15.6995957 23.973,15.6203957 C23.9298,15.5411957 23.8434,15.4691957 23.757,15.4115957 C23.6058,15.3107957 23.4186,15.2531957 23.3538,15.2387957 L22.5042,15.2387957 L22.5042,16.8011957 C22.5042,17.0171957 22.3242,17.1971957 22.101,17.1971957 C21.8778,17.1971957 21.705,17.0171957 21.705,16.8011957 L21.705,12.5531957 C21.705,12.3299957 21.8778,12.1571957 22.101,12.1571957 L23.3898,12.1571957 C24.2466,12.1571957 24.9306,12.8483957 24.9306,13.7051957 C24.9306,14.1803957 24.7146,14.5979957 24.369,14.8859957 C24.4626,14.9579957 24.549,15.0443957 24.621,15.1523957 C24.765,15.3611957 24.8586,15.6275957 24.8586,15.9299957 C24.8514,16.1459957 24.873,16.2827957 24.8874,16.3547957 Z M23.3898,14.4395957 C23.8002,14.4395957 24.1314,14.1083957 24.1314,13.7051957 C24.1314,13.2875957 23.8002,12.9563957 23.3898,12.9563957 L22.5042,12.9563957 L22.5042,14.4395957 L23.3898,14.4395957 Z" id="R" stroke="#F1692E" stroke-width="0.5" fill="#F1692E"></path>
                <path d="M32.4729153,15.787893 L36.8236665,15.787893 C37.3207228,15.787893 37.7236665,15.3849492 37.7236665,14.887893 L37.7236665,11.593156 C37.7236665,10.1432011 36.5482459,8.96778043 35.0982909,8.96778043 L35.0982909,8.96778043 C33.648336,8.96778043 32.4729153,10.1432011 32.4729153,11.593156 L32.4729153,33.3955803 C32.4729153,34.7909044 31.3417817,35.922038 29.9464577,35.922038 L29.150858,35.922038 C28.1949315,35.922038 27.42,35.1471064 27.42,34.19118 L27.42,33.3603219 C27.42,32.8632657 27.0170563,32.4603219 26.52,32.4603219 L10.6770445,32.460322 C10.1799882,32.460322 9.7770445,32.8632657 9.77704449,33.3603219 L9.77704447,34.19118 C9.77704446,35.1471065 10.551976,35.9220381 11.5079025,35.9220381 C11.5079025,35.9220381 11.5079025,35.9220381 11.5079025,35.9220381 L30.0757389,35.922038" id="Path-18" stroke="#F1692E" stroke-width="1.8" fill-rule="nonzero"></path>
                <path d="M35.1204855,8.96778043 L16.1341463,8.96778043 C14.6429775,8.96778043 13.4341463,10.1766116 13.4341463,11.6677804 L13.4341463,32.2840095" id="Path-19" stroke="#F1692E" stroke-width="1.8" fill-rule="nonzero"></path>
                <path d="M17.366,21.9710621 L29.1515167,21.9710621" id="Path-20" stroke="#F1692E" stroke-width="1.8" stroke-linecap="round" fill-rule="nonzero"></path>
                <path d="M17.366,24.6613962 L29.1515167,24.6613962" id="Path-20-Copy" stroke="#F1692E" stroke-width="1.8" stroke-linecap="round" fill-rule="nonzero"></path>
                <path d="M17.366,27.3517303 L24.2773159,27.3517303" id="Path-20-Copy-2" stroke="#F1692E" stroke-width="1.8" stroke-linecap="round" fill-rule="nonzero"></path>
                <path d="M6.398,6.2774463 L38.7243481,37.9946883" id="Path-21" stroke="#F1692E" stroke-width="1.8" fill-rule="nonzero"></path>
                <path d="M8.36907945,6.2774463 L38.8094672,36.1836094" id="Path-21-Copy" stroke="#FFFFFF" stroke-width="1.35" fill-rule="nonzero"></path>
            </g>
        </g>
    </g>
</svg>