<?xml version="1.0" encoding="UTF-8"?>
<svg width="10.4976px" height="8.5293px" viewBox="0 0 10.4976 8.5293" version="1.1" xmlns="http://www.w3.org/2000/svg" xmlns:xlink="http://www.w3.org/1999/xlink">
    <!-- Generator: Sketch 52.6 (67491) - http://www.bohemiancoding.com/sketch -->
    <desc>Created with Sketch.</desc>
    <g id="Page-1" stroke="none" stroke-width="1" fill="none" fill-rule="evenodd">
        <path d="M10.4976,1.01285438 C10.111267,1.17944227 9.69162944,1.29938555 9.25867005,1.34603016 C9.70495127,1.07948953 10.0446579,0.659688047 10.2045198,0.159924375 C9.79154315,0.406474453 9.32527919,0.586389375 8.83903249,0.679678594 C8.44603858,0.259877109 7.88652183,0 7.26705685,0 C6.0747533,0 5.11558173,0.966209766 5.11558173,2.15231555 C5.11558173,2.31890344 5.13556447,2.48549133 5.16886904,2.6454157 C3.38374416,2.55212648 1.79178579,1.69919648 0.732700508,0.393147422 C0.546194924,0.712996172 0.439620305,1.07948953 0.439620305,1.47930047 C0.439620305,2.22561422 0.819292386,2.88530227 1.39879188,3.27178617 C1.04576345,3.25845914 0.712717766,3.15850641 0.426298477,2.99858203 L0.426298477,3.02523609 C0.426298477,4.07140805 1.1656599,4.93766508 2.15147513,5.13757055 C1.97163046,5.18421516 1.77846396,5.21086922 1.58529746,5.21086922 C1.44541827,5.21086922 1.3122,5.19754219 1.17898173,5.17755164 C1.45207919,6.03048164 2.24472792,6.65018859 3.19057766,6.67017914 C2.45121624,7.249905 1.52534924,7.5897443 0.519551269,7.5897443 C0.339706599,7.5897443 0.173183756,7.58308078 0,7.56309023 C0.95251066,8.17613367 2.08486599,8.5293 3.3038132,8.5293 C7.26039594,8.5293 9.42519289,5.25085031 9.42519289,2.40552914 C9.42519289,2.31223992 9.42519289,2.2189507 9.41853198,2.12566148 C9.83816954,1.81913977 10.2045198,1.43931938 10.4976,1.01285438 Z" id="twitter---FontAwesome" fill="#5BABF4"></path>
    </g>
</svg>