<?xml version="1.0" encoding="UTF-8"?>
<svg width="32px" height="32px" viewBox="0 0 32 32" version="1.1" xmlns="http://www.w3.org/2000/svg" xmlns:xlink="http://www.w3.org/1999/xlink">
    <!-- Generator: Sketch 52.6 (67491) - http://www.bohemiancoding.com/sketch -->
    <desc>Created with Sketch.</desc>
    <g id="Page-1" stroke="none" stroke-width="1" fill="none" fill-rule="evenodd">
        <g id="icon/instagram">
            <g>
                <circle id="Oval-Copy-18" fill="#F1F5FB" fill-rule="nonzero" cx="16" cy="16" r="16"></circle>
                <g id="instagram-(1)" transform="translate(9.000000, 9.000000)" fill="#4E4B6B" stroke="#4E4B6B" stroke-width="0.5">
                    <path d="M9.625,0 L4.375,0 C1.959125,0 0,1.959125 0,4.375 L0,9.625 C0,12.040875 1.959125,14 4.375,14 L9.625,14 C12.040875,14 14,12.040875 14,9.625 L14,4.375 C14,1.959125 12.040875,0 9.625,0 Z M12.6875,9.625 C12.6875,11.31375 11.31375,12.6875 9.625,12.6875 L4.375,12.6875 C2.68625,12.6875 1.3125,11.31375 1.3125,9.625 L1.3125,4.375 C1.3125,2.68625 2.68625,1.3125 4.375,1.3125 L9.625,1.3125 C11.31375,1.3125 12.6875,2.68625 12.6875,4.375 L12.6875,9.625 Z" id="Shape" fill-rule="nonzero"></path>
                    <path d="M7,3.5 C5.067125,3.5 3.5,5.067125 3.5,7 C3.5,8.932875 5.067125,10.5 7,10.5 C8.932875,10.5 10.5,8.932875 10.5,7 C10.5,5.067125 8.932875,3.5 7,3.5 Z M7,9.1875 C5.79425,9.1875 4.8125,8.20575 4.8125,7 C4.8125,5.793375 5.79425,4.8125 7,4.8125 C8.20575,4.8125 9.1875,5.793375 9.1875,7 C9.1875,8.20575 8.20575,9.1875 7,9.1875 Z" id="Shape" fill-rule="nonzero"></path>
                    <circle id="Oval" cx="10.7625" cy="3.2375" r="1"></circle>
                </g>
            </g>
        </g>
    </g>
</svg>