<?xml version="1.0" encoding="UTF-8"?>
<svg width="315px" height="287px" viewBox="0 0 315 287" version="1.1" xmlns="http://www.w3.org/2000/svg" xmlns:xlink="http://www.w3.org/1999/xlink">
    <!-- Generator: Sketch 52.6 (67491) - http://www.bohemiancoding.com/sketch -->
    <desc>Created with Sketch.</desc>
    <defs>
        <linearGradient x1="50%" y1="0%" x2="50%" y2="100%" id="linearGradient-1">
            <stop stop-color="#F8F5F3" offset="0%"></stop>
            <stop stop-color="#EFE7E4" offset="100%"></stop>
        </linearGradient>
    </defs>
    <g id="Page-1" stroke="none" stroke-width="1" fill="none" fill-rule="evenodd">
        <g id="mountain">
            <g id="Shape">
                <path d="M314.882751,283.393845 L218.723754,126.131669 C217.782606,124.59211 216.112381,123.654385 214.313251,123.654385 C212.514121,123.654385 210.843203,124.59211 209.902749,126.131669 L174.373393,184.232546 C173.353932,185.898844 173.353932,188.000069 174.373393,189.666367 L233.249332,285.970276 C238.711428,285.946956 242.717336,285.913383 245.267056,285.869558 C256.712428,285.672835 266.7032,285.382982 275.239371,285 C280.873299,284.747229 289.084143,284.595113 295.605311,284.317223 C300.04594,284.127991 306.471754,283.820199 314.882751,283.393845 Z" fill="#546F7A" fill-rule="nonzero"></path>
                <path d="M314.881699,283.391266 L218.346608,126.477285 C217.40546,124.937725 215.735235,124 213.936105,124 C212.136975,124 210.466057,124.937725 209.525603,126.477285 L204,135.513106 L295.060533,284.350675 L314.881699,283.391266 Z" fill="#465A65" fill-rule="nonzero"></path>
                <path d="M257.621973,189.741163 L218.723754,126.131669 C217.782606,124.59211 216.112381,123.654385 214.313251,123.654385 C212.514121,123.654385 210.843203,124.59211 209.902749,126.131669 L174.373393,184.232546 C173.353932,185.898844 173.353932,188.000069 174.373393,189.666367 L176.191235,192.639524 C177.557909,194.875105 180.368877,195.737341 182.746002,194.650023 L198.492549,187.455025 L210.128679,201.714821 C211.111409,202.919181 212.581346,203.617974 214.132368,203.617974 C215.68339,203.617974 217.153326,202.919181 218.136056,201.714821 L229.77288,187.455025 L251.0679,197.18479 C253.138009,198.129441 255.583051,197.607252 257.089719,195.897323 C258.595693,194.186009 258.812615,191.687255 257.621973,189.741163 Z" fill="#EFE7E4" fill-rule="nonzero"></path>
                <path d="M238.90298,191.627695 L251.067207,197.185483 C253.137316,198.130134 255.582358,197.607944 257.089026,195.898015 C258.596387,194.186009 258.812615,191.687947 257.621973,189.741163 L218.723754,126.131669 C217.782606,124.59211 216.112381,123.654385 214.313251,123.654385 C212.514121,123.654385 210.843203,124.59211 209.902749,126.131669 L204.377146,135.16749 L238.90298,191.627695 Z" fill="#D8D1D0" fill-rule="nonzero"></path>
                <path d="M245.331299,285.862823 L124.299221,87.9238655 C123.358074,86.3843062 121.687849,85.4465809 119.888719,85.4465809 C118.089588,85.4465809 116.419364,86.3843062 115.478216,87.9238655 L0.157206732,276.503445 C44.292991,281.012946 81.2477132,283.845131 111.021373,285 C140.795033,286.154869 185.565008,286.442477 245.331299,285.862823 Z" fill="#546F7A" fill-rule="nonzero"></path>
                <path d="M245.251527,285.852941 L124.299221,87.9238655 C123.358074,86.3843062 121.687849,85.4465809 119.888719,85.4465809 C118.089588,85.4465809 116.419364,86.3843062 115.478216,87.9238655 L109.952613,96.9596866 L225.55486,286.027421 L245.251527,285.852941 Z" fill="#465A65" fill-rule="nonzero"></path>
                <path d="M185.960318,25.4917226 L121.732203,0.906560119 C120.141678,0.297800497 118.354329,0.513186439 116.951618,1.48207689 C115.549599,2.45165991 114.712408,4.05147188 114.712408,5.76001567 L114.712408,54.9303406 C114.712408,56.6388844 115.549599,58.2380038 116.951618,59.2082794 C117.82762,59.8135762 118.853318,60.1245353 119.888026,60.1245353 C120.509682,60.1245353 121.134803,60.0123407 121.732203,59.7837961 L185.960318,35.1986337 C187.965974,34.431278 189.291065,32.5004227 189.291065,30.3451781 C189.291758,28.1899336 187.966667,26.2590783 185.960318,25.4917226 Z" fill="#FF773C" fill-rule="nonzero"></path>
                <path d="M116.952311,59.2075868 C117.828313,59.8128836 118.854011,60.1238428 119.888719,60.1238428 C120.510375,60.1238428 121.135496,60.0116482 121.732896,59.7831036 L185.961011,35.1979411 C187.966667,34.4305854 189.291758,32.4997301 189.291758,30.3444856 C189.291758,28.1899336 187.966667,26.2590783 185.961011,25.49103 L173.285321,20.6389596 L114.713101,43.0591817 L114.713101,54.9289555 C114.713101,56.6381918 115.550292,58.2380038 116.952311,59.2075868 Z" fill-opacity="0.100741621" fill="#000000" fill-rule="nonzero"></path>
                <path d="M119.888026,95.8349703 C117.029931,95.8349703 114.713101,93.5100488 114.713101,90.6407756 L114.713101,5.75932311 C114.713101,2.8907425 117.029931,0.565128386 119.888026,0.565128386 C122.74612,0.565128386 125.063643,2.8907425 125.063643,5.75932311 L125.063643,90.6407756 C125.063643,93.5100488 122.746813,95.8349703 119.888026,95.8349703 Z" fill="#546F7A" fill-rule="nonzero"></path>
                <path d="M182.262976,182.997021 L124.124598,87.924558 C123.18345,86.3849987 121.513226,85.4472734 119.714095,85.4472734 C117.914965,85.4472734 116.24474,86.3849987 115.303593,87.924558 L57.1645218,182.997021 C55.9738802,184.943112 56.1908015,187.441866 57.6974691,189.153873 C59.2041366,190.865879 61.6484864,191.387376 63.719981,190.44134 L99.4683369,174.107329 L115.7111,194.012176 C116.69383,195.216537 118.163766,195.915329 119.714788,195.915329 C121.265811,195.915329 122.735747,195.216537 123.718477,194.012176 L139.96124,174.108022 L175.709596,190.44134 C177.779704,191.385991 180.224747,190.863802 181.732108,189.153873 C183.237389,187.441174 183.453618,184.943112 182.262976,182.997021 Z" fill="url(#linearGradient-1)" fill-rule="nonzero"></path>
                <path d="M163.718606,184.883552 L175.88214,190.44134 C177.952248,191.385991 180.397291,190.863802 181.904652,189.153873 C183.411319,187.441866 183.627548,184.943805 182.437599,182.997021 L124.299221,87.924558 C123.358074,86.3849987 121.687849,85.4472734 119.888719,85.4472734 C118.089588,85.4472734 116.419364,86.3849987 115.478216,87.924558 L109.952613,96.9603792 L163.718606,184.883552 Z" fill="#D8D1D0" fill-rule="nonzero"></path>
            </g>
        </g>
    </g>
</svg>