<?xml version="1.0" encoding="UTF-8"?>
<svg width="144px" height="144px" viewBox="0 0 144 144" version="1.1" xmlns="http://www.w3.org/2000/svg" xmlns:xlink="http://www.w3.org/1999/xlink">
    <!-- Generator: Sketch 52.6 (67491) - http://www.bohemiancoding.com/sketch -->
    <desc>Created with Sketch.</desc>
    <defs>
        <ellipse id="path-1" cx="41.4" cy="41.25179" rx="41.4" ry="41.25179"></ellipse>
        <filter x="-65.8%" y="-50.3%" width="231.6%" height="232.1%" filterUnits="objectBoundingBox" id="filter-2">
            <feOffset dx="0" dy="13" in="SourceAlpha" result="shadowOffsetOuter1"></feOffset>
            <feGaussianBlur stdDeviation="16" in="shadowOffsetOuter1" result="shadowBlurOuter1"></feGaussianBlur>
            <feColorMatrix values="0 0 0 0 0   0 0 0 0 0   0 0 0 0 0  0 0 0 0.07 0" type="matrix" in="shadowBlurOuter1"></feColorMatrix>
        </filter>
    </defs>
    <g id="Page-1" stroke="none" stroke-width="1" fill="none" fill-rule="evenodd">
        <g id="icon/read-only" transform="translate(30.000000, 18.000000)">
            <g transform="translate(0.300000, 0.000000)" fill-rule="nonzero" id="Oval-Copy-9">
                <g>
                    <use fill="black" fill-opacity="1" filter="url(#filter-2)" xlink:href="#path-1"></use>
                    <use fill="#FFFFFF" xlink:href="#path-1"></use>
                </g>
            </g>
            <g id="rush" transform="translate(13.200000, 19.230907)" fill="#51BC6D">
                <path d="M38.6385599,10.7267758 L39.7866175,8.81835265 L41.3217444,9.75470172 C41.7456359,10.0131571 42.2970893,9.87731367 42.554405,9.45125936 L44.4174233,6.36126346 C44.6738622,5.93476813 44.5384099,5.37948622 44.1149567,5.121031 L39.5082606,2.31463014 C39.3053012,2.18893093 39.0602595,2.15144171 38.8288068,2.20966019 C38.598231,2.26699674 38.3992169,2.41386635 38.2756001,2.61807251 L36.4138969,5.70806851 C36.1570196,6.13456373 36.2920336,6.68940462 36.7154866,6.94830086 L38.2514904,7.88509107 L37.1599809,9.69692415 C34.8844685,8.28732862 32.2942157,7.47315036 29.6259352,7.32848597 L29.6259352,5.47607618 L30.5236908,5.47607618 C32.0110368,5.47607618 33.2169576,4.26274774 33.2169576,2.76626529 C33.2169576,1.26978284 32.0110368,0.0564543936 30.5236908,0.0564543936 L26.9326683,0.0564543936 C25.4453223,0.0564543936 24.2394015,1.26978284 24.2394015,2.76626529 C24.2394015,4.26274774 25.4453223,5.47607618 26.9326683,5.47607618 L27.8304239,5.47607618 L27.8304239,7.32848597 C20.0206515,7.75983277 13.6368551,13.7528196 12.6694008,21.56205 C11.7019463,29.3712803 16.4278756,36.7575439 23.8930992,39.1048118 C31.3587613,41.4520796 39.4236577,38.0868685 43.0475568,31.1129867 C46.6710178,24.1391049 44.8145749,15.5553907 38.6385599,10.7267758 Z M42.4163224,6.2011623 L41.4852518,7.74704235 L38.4149976,5.87346216 L39.3451917,4.32802313 L42.4163224,6.2011623 Z M26.0349127,2.76626529 C26.0349127,2.26743777 26.4368863,1.86299499 26.9326683,1.86299499 L30.5236908,1.86299499 C31.0194728,1.86299499 31.4214464,2.26743777 31.4214464,2.76626529 C31.4214464,3.26509281 31.0194728,3.66953559 30.5236908,3.66953559 L26.9326683,3.66953559 C26.4368863,3.66953559 26.0349127,3.26509281 26.0349127,2.76626529 Z M28.7281796,37.9938069 C20.7952288,37.9938069 14.3640898,31.5231631 14.3640898,23.5414821 C14.3640898,15.5598012 20.7952288,9.08915738 28.7281796,9.08915738 C36.6611303,9.08915738 43.0922693,15.5598012 43.0922693,23.5414821 C43.0830639,31.5191936 36.6571852,37.9845449 28.7281796,37.9938069 Z" id="Shape" fill-rule="nonzero"></path>
                <path d="M28.7281796,10.895698 C21.7867928,10.895698 16.159601,16.5574562 16.159601,23.5414821 C16.159601,30.5255081 21.7867928,36.1872663 28.7281796,36.1872663 C35.6695663,36.1872663 41.2967581,30.5255081 41.2967581,23.5414821 C41.2893061,16.5605435 35.6664978,10.9031958 28.7281796,10.895698 Z M21.7784639,31.8107276 L22.3803285,31.2056071 C22.6135346,30.9789075 22.7069046,30.6432685 22.6249318,30.3274766 C22.542959,30.0112438 22.2974789,29.764697 21.9836152,29.6822206 C21.6697513,29.5993032 21.3361615,29.6936879 21.110846,29.9283264 L20.5094198,30.5338881 C19.0619642,28.8168806 18.1852497,26.6879325 18.0007014,24.4447524 L20.6483791,24.4447524 C21.1441611,24.4447524 21.5461347,24.0403097 21.5461347,23.5414821 C21.5461347,23.0426546 21.1441611,22.6382118 20.6483791,22.6382118 L18.0007014,22.6382118 C18.1852497,20.3950317 19.0619642,18.2656427 20.5094198,16.5490762 L21.110846,17.1546378 C21.3361615,17.3892764 21.6697513,17.48322 21.9836152,17.4007437 C22.2974789,17.3182673 22.542959,17.0712793 22.6249318,16.7554877 C22.7069046,16.4396958 22.6135346,16.1040568 22.3803285,15.8773572 L21.7784639,15.2722367 C23.4845504,13.8158897 25.600939,12.9337898 27.8304239,12.7481078 L27.8304239,15.4120495 C27.8304239,15.910877 28.2323975,16.3153198 28.7281796,16.3153198 C29.2239616,16.3153198 29.6259352,15.910877 29.6259352,15.4120495 L29.6259352,12.7481078 C31.8554201,12.9337898 33.9718087,13.8158897 35.6778952,15.2722367 L35.0760306,15.8773572 C34.8428246,16.1040568 34.7494545,16.4396958 34.8314273,16.7554877 C34.9134001,17.0712793 35.1588802,17.3182673 35.4727439,17.4007437 C35.7866078,17.48322 36.1201976,17.3892764 36.3455131,17.1546378 L36.9469393,16.5490762 C38.3943949,18.2656427 39.2711094,20.3950317 39.4556577,22.6382118 L36.80798,22.6382118 C36.312198,22.6382118 35.9102244,23.0426546 35.9102244,23.5414821 C35.9102244,24.0403097 36.312198,24.4447524 36.80798,24.4447524 L39.4556577,24.4447524 C39.2711094,26.6879325 38.3943949,28.8168806 36.9469393,30.5338881 L36.3455131,29.9283264 C35.9935124,29.5860717 35.4332918,29.5909233 35.0869895,29.9393527 C34.7406873,30.2877822 34.7358654,30.8514441 35.0760306,31.2056071 L35.6778952,31.8107276 C33.9718087,33.2670746 31.8554201,34.1491745 29.6259352,34.3348565 L29.6259352,31.6709148 C29.6259352,31.1720873 29.2239616,30.7676445 28.7281796,30.7676445 C28.2323975,30.7676445 27.8304239,31.1720873 27.8304239,31.6709148 L27.8304239,34.3348565 C25.600939,34.1491745 23.4845504,33.2670746 21.7784639,31.8107276 Z" id="Shape" fill-rule="nonzero"></path>
                <path d="M9.87531172,23.5414821 C9.87531172,23.0426546 9.47333817,22.6382118 8.97755611,22.6382118 L0.897755611,22.6382118 C0.401973554,22.6382118 0,23.0426546 0,23.5414821 C0,24.0403097 0.401973554,24.4447524 0.897755611,24.4447524 L8.97755611,24.4447524 C9.47333817,24.4447524 9.87531172,24.0403097 9.87531172,23.5414821 Z" id="Path"></path>
                <path d="M6.28428928,15.4120495 L11.6708229,15.4120495 C12.166605,15.4120495 12.5685786,15.0076067 12.5685786,14.5087792 C12.5685786,14.0099516 12.166605,13.6055089 11.6708229,13.6055089 L6.28428928,13.6055089 C5.78850722,13.6055089 5.38653367,14.0099516 5.38653367,14.5087792 C5.38653367,15.0076067 5.78850722,15.4120495 6.28428928,15.4120495 Z" id="Path"></path>
                <path d="M11.6708229,31.6709148 L6.28428928,31.6709148 C5.78850722,31.6709148 5.38653367,32.0753576 5.38653367,32.5741851 C5.38653367,33.0730127 5.78850722,33.4774554 6.28428928,33.4774554 L11.6708229,33.4774554 C12.166605,33.4774554 12.5685786,33.0730127 12.5685786,32.5741851 C12.5685786,32.0753576 12.166605,31.6709148 11.6708229,31.6709148 Z" id="Path"></path>
                <path d="M3.59102244,19.928401 L9.87531172,19.928401 C10.3710938,19.928401 10.7730673,19.5239582 10.7730673,19.0251307 C10.7730673,18.5263031 10.3710938,18.1218604 9.87531172,18.1218604 L3.59102244,18.1218604 C3.09524039,18.1218604 2.69326683,18.5263031 2.69326683,19.0251307 C2.69326683,19.5239582 3.09524039,19.928401 3.59102244,19.928401 Z" id="Path"></path>
                <path d="M10.7730673,28.0578336 C10.7730673,27.5590061 10.3710938,27.1545633 9.87531172,27.1545633 L3.59102244,27.1545633 C3.09524039,27.1545633 2.69326683,27.5590061 2.69326683,28.0578336 C2.69326683,28.5566612 3.09524039,28.9611039 3.59102244,28.9611039 L9.87531172,28.9611039 C10.3710938,28.9611039 10.7730673,28.5566612 10.7730673,28.0578336 Z" id="Path"></path>
                <path d="M29.6259352,23.5414821 L29.6259352,19.928401 C29.6259352,19.4295734 29.2239616,19.0251307 28.7281796,19.0251307 C28.2323975,19.0251307 27.8304239,19.4295734 27.8304239,19.928401 L27.8304239,22.6382118 L26.9326683,22.6382118 C26.4368863,22.6382118 26.0349127,23.0426546 26.0349127,23.5414821 C26.0349127,24.0403097 26.4368863,24.4447524 26.9326683,24.4447524 L28.7281796,24.4447524 C29.2239616,24.4447524 29.6259352,24.0403097 29.6259352,23.5414821 Z" id="Path"></path>
            </g>
        </g>
    </g>
</svg>