<?xml version="1.0" encoding="UTF-8"?>
<svg width="62px" height="82px" viewBox="0 0 62 82" version="1.1" xmlns="http://www.w3.org/2000/svg" xmlns:xlink="http://www.w3.org/1999/xlink">
    <!-- Generator: Sketch 52.6 (67491) - http://www.bohemiancoding.com/sketch -->
    <desc>Created with Sketch.</desc>
    <g id="Page-1" stroke="none" stroke-width="1" fill="none" fill-rule="evenodd">
        <g id="illustration/goals/taxed">
            <g id="cookies-copy" fill-rule="nonzero">
                <path d="M32.3692769,0 L29.2685184,0 C27.9873328,0 26.9487674,1.04525316 26.9487674,2.33433544 L26.9487674,8.37689873 L34.6890279,8.37689873 L34.6890279,2.33433544 C34.6891851,1.04525316 33.6504625,0 32.3692769,0 Z" id="Shape" fill="#9A9B9D"></path>
                <path d="M47.470694,4.91677215 L14.1672586,4.91677215 C12.2336872,4.91677215 10.6661689,6.49414557 10.6661689,8.43987342 L10.6661689,10.7878165 L30.8190549,14.0797468 L50.9719409,10.7878165 L50.9719409,8.44003165 C50.9717836,6.49414557 49.4042653,4.91677215 47.470694,4.91677215 Z" id="Shape" fill="#B3B5B7"></path>
                <path d="M17.1455276,10.7878165 L17.1455276,8.44003165 C17.1455276,6.4943038 18.713046,4.91693038 20.6466173,4.91693038 L14.1672586,4.91693038 C12.2336872,4.91693038 10.6661689,6.4943038 10.6661689,8.44003165 L10.6661689,10.7879747 L30.8190549,14.0799051 L34.0588129,13.5506329 L17.1455276,10.7878165 Z" id="Shape" fill="#9A9B9D"></path>
                <path d="M50.9717836,10.7878165 L10.6661689,10.7878165 C8.95713522,10.7878165 7.57154274,12.181962 7.57154274,13.9018987 L7.57154274,17.3713608 L30.8188976,21.5009494 L54.0662525,17.3713608 L54.0662525,13.9018987 C54.0664098,12.1821203 52.6809745,10.7878165 50.9717836,10.7878165 Z" id="Shape" fill="#E3E6E8"></path>
                <path d="M14.0509015,17.3713608 L14.0509015,13.9018987 C14.0509015,12.1821203 15.4363367,10.7878165 17.1455276,10.7878165 L10.6661689,10.7878165 C8.95713522,10.7878165 7.57154274,12.181962 7.57154274,13.9018987 L7.57154274,17.3713608 L30.8188976,21.5009494 L34.0586556,20.9254747 L14.0509015,17.3713608 Z" id="Shape" fill="#B3B5B7"></path>
                <path d="M54.0664098,17.3713608 L7.57154274,17.3713608 C2.83329447,21.0626582 0.059750924,26.7530063 0.059750924,32.7829114 L0.059750924,72.3017405 C0.059750924,77.1126582 3.93538454,81.0126582 8.71624466,81.0126582 L52.9213934,81.0126582 C57.7022535,81.0126582 61.5778871,77.1126582 61.5778871,72.3017405 L61.5778871,32.7830696 C61.5782016,26.7530063 58.804658,21.0628165 54.0664098,17.3713608 Z" id="Shape" fill="#96D7E8"></path>
                <path d="M6.53926691,72.3017405 L6.53926691,32.7830696 C6.53926691,26.7533228 9.31281046,21.0628165 14.0510587,17.371519 L7.57169998,17.371519 C2.83345171,21.0628165 0.0599081633,26.7531646 0.0599081633,32.7830696 L0.0599081633,72.3017405 C0.0599081633,77.1126582 3.93554178,81.0126582 8.7164019,81.0126582 L15.1957606,81.0126582 C10.4149005,81.0126582 6.53926691,77.1126582 6.53926691,72.3017405 Z" id="Shape" fill="#68C9E0"></path>
                <g id="Group" transform="translate(16.824602, 26.107595)" fill="#3B484A">
                    <path d="M1.23196971,4.78781646 C0.561029728,4.78781646 0.0171390808,4.24050633 0.0171390808,3.5653481 L0.0171390808,1.24113924 C0.0171390808,0.565981013 0.561029728,0.0186708861 1.23196971,0.0186708861 C1.90290969,0.0186708861 2.44680034,0.565981013 2.44680034,1.24113924 L2.44680034,3.5653481 C2.44680034,4.24050633 1.90290969,4.78781646 1.23196971,4.78781646 Z" id="Shape"></path>
                    <path d="M26.7567782,4.78781646 C26.0858383,4.78781646 25.5419476,4.24050633 25.5419476,3.5653481 L25.5419476,1.24113924 C25.5419476,0.565981013 26.0858383,0.0186708861 26.7567782,0.0186708861 C27.4277182,0.0186708861 27.9716089,0.565981013 27.9716089,1.24113924 L27.9716089,3.5653481 C27.9717661,4.24050633 27.4277182,4.78781646 26.7567782,4.78781646 Z" id="Shape"></path>
                    <path d="M13.9944526,6.5056962 C12.1355699,6.5056962 10.3914719,5.72531646 9.20934702,4.36471519 C8.76781914,3.85632911 8.81923638,3.08401899 9.32444617,2.63971519 C9.82965595,2.19541139 10.5971408,2.24731013 11.0386687,2.75553797 C11.7591391,3.58496835 12.8363853,4.06075949 13.9942954,4.06075949 C15.1520481,4.06075949 16.2291372,3.58512658 16.9497647,2.75553797 C17.3914499,2.24731013 18.1589348,2.19525316 18.6639873,2.63971519 C19.1691971,3.08401899 19.2207716,3.85632911 18.7790865,4.36471519 C17.5974333,5.72531646 15.8533353,6.5056962 13.9944526,6.5056962 Z" id="Shape"></path>
                </g>
                <path d="M52.406592,44.3738924 C52.0537471,43.8962025 51.7570366,43.3791139 51.5222783,42.8327532 C50.5621753,40.597943 48.6105215,38.9501582 46.2568068,38.3867089 C45.6814683,38.2490506 45.1237406,38.0447785 44.5949449,37.7780063 C42.4319614,36.6871835 39.8842135,36.6871835 37.72123,37.7780063 C37.1924344,38.0446203 36.6348639,38.2488924 36.0593682,38.3867089 C33.7054962,38.95 31.7539996,40.597943 30.7938966,42.8327532 C30.5591384,43.3789557 30.2624278,43.8962025 29.9095829,44.3738924 C28.4664409,46.3280063 28.0239695,48.8526899 28.7159796,51.1856013 C28.8851691,51.7560127 28.9881608,52.3441456 29.0230679,52.9382911 C29.1658412,55.3686709 30.4396365,57.5889241 32.4598467,58.928481 C32.9537353,59.2560127 33.408314,59.6398734 33.814463,60.0724684 C35.4763249,61.8420886 37.8702929,62.7188291 40.2735379,62.4381329 C40.8609839,62.369462 41.4544049,62.369462 42.0418508,62.4381329 C44.4452531,62.7188291 46.839221,61.8420886 48.5009257,60.0724684 C48.907232,59.6398734 49.3616535,59.2560127 49.855542,58.928481 C51.8757522,57.5889241 53.1497048,55.3688291 53.2923208,52.9382911 C53.3270707,52.3441456 53.4302197,51.7560127 53.5994091,51.1856013 C54.2920481,48.8526899 53.8497341,46.3280063 52.406592,44.3738924 Z" id="Shape" fill="#CE9964"></path>
                <path d="M9.23136052,44.3738924 C9.58420545,43.8962025 9.88091596,43.3791139 10.1156742,42.8327532 C11.0757772,40.597943 13.0274311,38.9501582 15.3811457,38.3867089 C15.9564843,38.2490506 16.514212,38.0447785 17.0430076,37.7780063 C19.2059911,36.6871835 21.753739,36.6871835 23.9167225,37.7780063 C24.4455182,38.0446203 25.0030886,38.2488924 25.5785844,38.3867089 C27.9324563,38.95 29.8839529,40.597943 30.8440559,42.8327532 C31.0788142,43.3789557 31.3755247,43.8962025 31.7283696,44.3738924 C33.1715117,46.3280063 33.613983,48.8526899 32.9219729,51.1856013 C32.7527835,51.7560127 32.6497917,52.3441456 32.6148846,52.9382911 C32.4721114,55.3686709 31.198316,57.5889241 29.1781058,58.928481 C28.6842173,59.2560127 28.2296385,59.6398734 27.8234895,60.0724684 C26.1616276,61.8420886 23.7676596,62.7188291 21.3644146,62.4381329 C20.7769687,62.369462 20.1835476,62.369462 19.5961017,62.4381329 C17.1926994,62.7188291 14.7987315,61.8420886 13.1370268,60.0724684 C12.7307206,59.6398734 12.2762991,59.2560127 11.7824105,58.928481 C9.76220031,57.5889241 8.48824771,55.3688291 8.34563169,52.9382911 C8.31088181,52.3441456 8.20773285,51.7560127 8.03854339,51.1856013 C7.34590439,48.8526899 7.78821846,46.3280063 9.23136052,44.3738924 Z" id="Shape" fill="#DDA46C"></path>
                <path d="M27.5277224,58.5170886 C27.1748775,58.0393987 26.878167,57.5223101 26.6434087,56.9759494 C25.6833057,54.7411392 23.7316519,53.0933544 21.3779372,52.5299051 C20.8025987,52.3922468 20.244871,52.1879747 19.7160753,51.9212025 C17.5530918,50.8303797 15.0053439,50.8303797 12.8423604,51.9212025 C12.3135648,52.1878165 11.7559943,52.3920886 11.1804986,52.5299051 C8.82662663,53.0931962 6.87513,54.7411392 5.915027,56.9759494 C5.68026876,57.5221519 5.38355825,58.0393987 5.03071332,58.5170886 C3.58757127,60.4712025 3.14509995,62.9958861 3.83711,65.3287975 C4.00629945,65.8992089 4.10944842,66.4873418 4.1441983,67.0814873 C4.28697156,69.5118671 5.56076691,71.7321203 7.5809771,73.0716772 C8.07486566,73.3992089 8.5294444,73.7830696 8.93559344,74.2156646 C10.5974553,75.9852848 12.9914233,76.8620253 15.3946683,76.5813291 C15.9821143,76.5126582 16.5755353,76.5126582 17.1629812,76.5813291 C19.5663835,76.8620253 21.9603514,75.9852848 23.6220561,74.2156646 C24.0283624,73.7830696 24.4827839,73.3992089 24.9766724,73.0716772 C26.9968826,71.7321203 28.2708352,69.5120253 28.4134512,67.0814873 C28.4482011,66.4873418 28.5513501,65.8992089 28.7205395,65.3287975 C29.413493,62.9958861 28.9710217,60.4712025 27.5277224,58.5170886 Z" id="Shape" fill="#CE9964"></path>
                <ellipse id="Oval" fill="#8B6C52" cx="11.2608478" cy="60.5295886" rx="2.11879921" ry="1.70094937"></ellipse>
                <path d="M34.1102301,58.5170886 C34.463075,58.0393987 34.7597856,57.5223101 34.9945438,56.9759494 C35.9546468,54.7411392 37.9063007,53.0933544 40.2600153,52.5299051 C40.8353538,52.3922468 41.3930816,52.1879747 41.9218772,51.9212025 C44.0848607,50.8303797 46.6326086,50.8303797 48.7955921,51.9212025 C49.3243878,52.1878165 49.8819582,52.3920886 50.457454,52.5299051 C52.8113259,53.0931962 54.7628225,54.7411392 55.7229255,56.9759494 C55.9576838,57.5221519 56.2543943,58.0393987 56.6072392,58.5170886 C58.0503812,60.4712025 58.4928526,62.9958861 57.8008425,65.3287975 C57.6316531,65.8992089 57.5286613,66.4873418 57.4937542,67.0814873 C57.350981,69.5118671 56.0771856,71.7321203 54.0569754,73.0716772 C53.5630869,73.3992089 53.1085081,73.7830696 52.7023591,74.2156646 C51.0404972,75.9852848 48.6465292,76.8620253 46.2432842,76.5813291 C45.6558383,76.5126582 45.0624172,76.5126582 44.4749713,76.5813291 C42.071569,76.8620253 39.6776011,75.9852848 38.0158964,74.2156646 C37.6095901,73.7830696 37.1551686,73.3992089 36.6612801,73.0716772 C34.6410699,71.7321203 33.3671173,69.5120253 33.2245013,67.0814873 C33.1897514,66.4873418 33.0866024,65.8992089 32.917413,65.3287975 C32.2244595,62.9958861 32.6669308,60.4712025 34.1102301,58.5170886 Z" id="Shape" fill="#DDA46C"></path>
                <path d="M42.0673236,58.5170886 C41.7144786,58.0393987 41.4177681,57.5223101 41.1830099,56.9759494 C40.2229069,54.7411392 38.2714103,53.0933544 35.9175383,52.5299051 C35.3421998,52.3922468 34.7844721,52.1879747 34.2556764,51.9212025 C32.092693,50.8303797 29.544945,50.8303797 27.3819616,51.9212025 C26.8531659,52.1878165 26.2955955,52.3920886 25.7200997,52.5299051 C23.3662278,53.0931962 21.4147312,54.7411392 20.4546282,56.9759494 C20.2198699,57.5221519 19.9231594,58.0393987 19.5703145,58.5170886 C18.1271724,60.4712025 17.6847011,62.9958861 18.3767112,65.3287975 C18.5459006,65.8992089 18.6488923,66.4873418 18.6837995,67.0814873 C18.8265727,69.5118671 20.1003681,71.7321203 22.1205783,73.0716772 C22.6144668,73.3992089 23.0690456,73.7830696 23.4751946,74.2156646 C25.1370565,75.9852848 27.5310244,76.8620253 29.9342695,76.5813291 C30.5217154,76.5126582 31.1151364,76.5126582 31.7025824,76.5813291 C34.1059847,76.8620253 36.4999526,75.9852848 38.1616572,74.2156646 C38.5679635,73.7830696 39.022385,73.3992089 39.5162736,73.0716772 C41.5364838,71.7321203 42.8104364,69.5120253 42.9530524,67.0814873 C42.9878023,66.4873418 43.0909512,65.8992089 43.2601407,65.3287975 C43.9529369,62.9958861 43.5104656,60.4712025 42.0673236,58.5170886 Z" id="Shape" fill="#F6B778"></path>
                <g id="Group" transform="translate(22.956934, 60.443038)" fill="#654D3B">
                    <ellipse id="Oval" cx="2.69303704" cy="2.16170886" rx="2.58485642" ry="2.07563291"></ellipse>
                    <ellipse id="Oval" cx="10.4472918" cy="9.20015823" rx="2.58485642" ry="2.07563291"></ellipse>
                    <ellipse id="Oval" cx="26.404405" cy="7.12515823" rx="2.58485642" ry="2.07563291"></ellipse>
                </g>
                <g id="Group" transform="translate(14.151535, 42.088608)" fill="#8B6C52">
                    <ellipse id="Oval" cx="20.7931643" cy="17.3276899" rx="2.11879921" ry="1.70094937"></ellipse>
                    <ellipse id="Oval" cx="2.12760461" cy="1.85870253" rx="2.11879921" ry="1.70094937"></ellipse>
                </g>
                <ellipse id="Oval" fill="#654D3B" cx="25.649971" cy="46.4837025" rx="2.11879921" ry="1.70094937"></ellipse>
                <ellipse id="Oval" fill="#8B6C52" cx="41.1584806" cy="45.6490506" rx="2.11879921" ry="1.70094937"></ellipse>
            </g>
            <rect id="Rectangle-14-Copy" fill="#FFFFFF" fill-rule="nonzero" x="9.73228346" y="54.278481" width="44.6062992" height="14.5822785" rx="0.81"></rect>
            <path d="M20.7946457,64.8101266 L19.3834646,64.8101266 L16.2496693,59.9202025 L16.2496693,64.8101266 L14.9066142,64.8101266 L14.9066142,57.9175696 L16.5805669,57.9175696 L19.4515906,62.476962 L19.4515906,57.9175696 L20.7946457,57.9175696 L20.7946457,64.8101266 Z M24.4247874,63.7796456 C25.0573858,63.7796456 25.6413228,63.3227342 25.6413228,62.4186329 C25.6413228,61.5145316 25.0573858,61.0576203 24.4247874,61.0576203 C23.792189,61.0576203 23.208252,61.5145316 23.208252,62.4186329 C23.208252,63.3130127 23.792189,63.7796456 24.4247874,63.7796456 Z M24.4247874,59.8813165 C25.8554331,59.8813165 26.9357165,60.940962 26.9357165,62.4186329 C26.9357165,63.8865823 25.8554331,64.9559494 24.4247874,64.9559494 C22.9941417,64.9559494 21.9138583,63.8865823 21.9138583,62.4186329 C21.9138583,60.940962 22.9941417,59.8813165 24.4247874,59.8813165 Z M31.655874,64.8101266 L30.3614803,64.8101266 L30.3614803,57.7717468 L31.655874,57.7717468 L31.655874,64.8101266 Z M34.332252,64.8101266 L33.0378583,64.8101266 L33.0378583,60.0271392 L34.332252,60.0271392 L34.332252,64.8101266 Z M32.8821417,58.4619747 C32.8821417,58.0147848 33.2422362,57.6550886 33.680189,57.6550886 C34.127874,57.6550886 34.4782362,58.0147848 34.4782362,58.4619747 C34.4782362,58.8897215 34.127874,59.2494177 33.680189,59.2494177 C33.2422362,59.2494177 32.8821417,58.8897215 32.8821417,58.4619747 Z M37.0086299,64.8101266 L35.7142362,64.8101266 L35.7142362,60.0271392 L36.9502362,60.0271392 L36.9502362,60.6104304 C37.2130079,60.1437975 37.8261417,59.891038 38.351685,59.891038 C39.003748,59.891038 39.5292913,60.172962 39.7725984,60.6882025 C40.1521575,60.1049114 40.6582362,59.891038 41.2908346,59.891038 C42.1764724,59.891038 43.0231811,60.4257215 43.0231811,61.708962 L43.0231811,64.8101266 L41.7677165,64.8101266 L41.7677165,61.971443 C41.7677165,61.4562025 41.5146772,61.0673418 40.9210079,61.0673418 C40.3662677,61.0673418 40.0353701,61.4950886 40.0353701,62.0103291 L40.0353701,64.8101266 L38.7507087,64.8101266 L38.7507087,61.971443 C38.7507087,61.4562025 38.487937,61.0673418 37.904,61.0673418 C37.3395276,61.0673418 37.0086299,61.4853671 37.0086299,62.0103291 L37.0086299,64.8101266 Z M45.6314331,64.8101266 L44.3370394,64.8101266 L44.3370394,60.0271392 L45.6314331,60.0271392 L45.6314331,64.8101266 Z M44.1813228,58.4619747 C44.1813228,58.0147848 44.5414173,57.6550886 44.9793701,57.6550886 C45.4270551,57.6550886 45.7774173,58.0147848 45.7774173,58.4619747 C45.7774173,58.8897215 45.4270551,59.2494177 44.9793701,59.2494177 C44.5414173,59.2494177 44.1813228,58.8897215 44.1813228,58.4619747 Z M48.6095118,58.5980759 L48.6095118,60.0271392 L49.5730079,60.0271392 L49.5730079,61.1742785 L48.6095118,61.1742785 L48.6095118,63.1769114 C48.6095118,63.5949367 48.8041575,63.731038 49.1739843,63.731038 C49.3297008,63.731038 49.5048819,63.7115949 49.5730079,63.6921519 L49.5730079,64.761519 C49.4562205,64.8101266 49.2226457,64.8781772 48.8430866,64.8781772 C47.9087874,64.8781772 47.3248504,64.3240506 47.3248504,63.4005063 L47.3248504,61.1742785 L46.4586772,61.1742785 L46.4586772,60.0271392 L46.7019843,60.0271392 C47.208063,60.0271392 47.4416378,59.6966076 47.4416378,59.2688608 L47.4416378,58.5980759 L48.6095118,58.5980759 Z" id="No-limit" fill="#333333"></path>
        </g>
    </g>
</svg>