<?xml version="1.0" encoding="UTF-8"?>
<svg width="91.5536248px" height="56.8688047px" viewBox="0 0 91.5536248 56.8688047" version="1.1" xmlns="http://www.w3.org/2000/svg" xmlns:xlink="http://www.w3.org/1999/xlink">
    <!-- Generator: Sketch 52.6 (67491) - http://www.bohemiancoding.com/sketch -->
    <desc>Created with Sketch.</desc>
    <g id="Page-1" stroke="none" stroke-width="1" fill="none" fill-rule="evenodd">
        <path d="M77.3517633,23.9447599 C77.1702346,10.9262932 65.9975354,0 52.2234504,0 C43.448509,0 35.2086828,4.49712521 30.6594147,10.9786724 C28.6610201,9.71708286 26.2601052,8.97928495 23.6776616,8.97928495 C16.703801,8.97928495 11.0495754,14.3399181 11.0495754,20.9516649 C11.0495754,21.1806366 11.0716746,21.4036222 11.0858812,21.6310974 C11.070096,21.9034691 11.0495754,22.1788338 11.0495754,22.4482124 C4.75447444,25.3096112 0,32.1114195 0,39.1421996 C0,48.8922065 8.41346241,56.8688047 18.6974601,56.8688047 L57.3820236,56.8688047 C57.5998581,56.8688047 57.8113785,56.8448599 58.026056,56.8373772 C58.2423119,56.8448599 58.4538324,56.8688047 58.6716669,56.8688047 L74.145808,56.8688047 C83.7194758,56.8688047 91.5536248,49.4414395 91.5536248,40.3648789 C91.5536248,32.3269224 85.4069038,25.382942 77.3517633,23.9447599 Z" id="cloud3" fill="#FFFFFF" fill-rule="nonzero"></path>
    </g>
</svg>