<?xml version="1.0" encoding="UTF-8"?>
<svg width="2355px" height="982px" viewBox="0 0 2355 982" version="1.1" xmlns="http://www.w3.org/2000/svg" xmlns:xlink="http://www.w3.org/1999/xlink">
    <!-- Generator: Sketch 52.6 (67491) - http://www.bohemiancoding.com/sketch -->
    <desc>Created with Sketch.</desc>
    <g id="Page-1" stroke="none" stroke-width="1" fill="none" fill-rule="evenodd" fill-opacity="0.132302989">
        <path d="M208.52972,444.72556 C304.488032,400.762508 472.914093,397.724607 633.948183,363.707625 C814.499193,325.567871 991.332314,258.217646 1156.37955,242.748243 C1558.04821,205.100997 1888.99714,-69.1158015 2142.34947,16.4525028 C2592.65555,168.540808 2241.88163,747.963266 1882.35284,923.697343 C1742.48735,992.062198 1546.90061,990.016873 1214.86555,969.271237 C1075.11512,960.539595 677.203424,939.155922 660.700382,938.09023 C656.401591,937.812634 652.457226,938.259229 647.956737,938.09023 C635.050153,937.605573 621.313468,938.354316 607.736492,938.09023 C594.688174,937.836428 581.580865,940.222903 569.142343,939.075019 C521.166739,934.64761 436.908129,924.614181 316.366512,908.974731 C-65.7776967,741.616902 -101.723294,586.867179 208.52972,444.72556 Z" id="Rectangle" fill="#98B4E6" fill-rule="nonzero"></path>
    </g>
</svg>