<?xml version="1.0" encoding="UTF-8"?>
<svg width="30px" height="29px" viewBox="0 0 30 29" version="1.1" xmlns="http://www.w3.org/2000/svg" xmlns:xlink="http://www.w3.org/1999/xlink">
    <!-- Generator: Sketch 52.6 (67491) - http://www.bohemiancoding.com/sketch -->
    <desc>Created with Sketch.</desc>
    <g id="Page-1" stroke="none" stroke-width="1" fill="none" fill-rule="evenodd">
        <g id="Group-6" fill="#FFFFFF" fill-rule="nonzero">
            <path d="M15.0337185,11.5409836 C14.0400324,11.5409836 13.2340426,10.7527714 13.2340426,9.77966992 L13.2340426,1.76023246 C13.2340426,0.788212202 14.0400324,0 15.0337185,0 C16.0274046,0 16.8322904,0.788212202 16.8322904,1.76023246 L16.8322904,9.77966992 C16.8322904,10.7527714 16.0274046,11.5409836 15.0337185,11.5409836" id="Fill-265-Copy"></path>
            <path d="M15.0337185,28.852459 C14.0400324,28.852459 13.2340426,28.0643207 13.2340426,27.0913103 L13.2340426,19.0726241 C13.2340426,18.1006949 14.0400324,17.3114754 15.0337185,17.3114754 C16.0274046,17.3114754 16.8322904,18.1006949 16.8322904,19.0726241 L16.8322904,27.0913103 C16.8322904,28.0643207 16.0274046,28.852459 15.0337185,28.852459" id="Fill-266-Copy"></path>
            <path d="M27.7563881,16.6065574 L19.7569264,16.6065574 C18.7862488,16.6065574 18,15.7984583 18,14.8032787 C18,13.8069921 18.7862488,13 19.7569264,13 L27.7563881,13 C28.7270656,13 29.514393,13.8069921 29.514393,14.8032787 C29.514393,15.7984583 28.7270656,16.6065574 27.7563881,16.6065574" id="Fill-267-Copy"></path>
            <path d="M9.75638807,16.6065574 L1.75692639,16.6065574 C0.786248828,16.6065574 0,15.7984583 0,14.8032787 C0,13.8069921 0.786248828,13 1.75692639,13 L9.75638807,13 C10.7270656,13 11.514393,13.8069921 11.514393,14.8032787 C11.514393,15.7984583 10.7270656,16.6065574 9.75638807,16.6065574" id="Fill-267-Copy-2"></path>
        </g>
    </g>
</svg>