<svg width="445" height="301" viewBox="0 0 445 301" fill="none" xmlns="http://www.w3.org/2000/svg">
<g filter="url(#filter0_d)">
<rect x="32" y="19" width="381" height="236.835" rx="10" fill="white"/>
</g>
<path d="M318.912 44H315.089C313.509 44 312.229 45.2902 312.229 46.8814V54.3402H321.772V46.8814C321.773 45.2902 320.492 44 318.912 44Z" fill="#9A9B9D"/>
<path d="M337.532 50.0693H296.468C294.084 50.0693 292.151 52.0164 292.151 54.4182V57.3164L317 61.3799L341.849 57.3164V54.4184C341.849 52.0164 339.916 50.0693 337.532 50.0693Z" fill="#B3B5B7"/>
<path d="M300.14 57.3162V54.4182C300.14 52.0164 302.073 50.0693 304.457 50.0693H296.468C294.084 50.0693 292.151 52.0164 292.151 54.4182V57.3164L317 61.3799L320.995 60.7266L300.14 57.3162Z" fill="#9A9B9D"/>
<path d="M341.849 57.3164H292.152C290.044 57.3164 288.336 59.0373 288.336 61.1604V65.443L317 70.5404L345.664 65.443V61.1604C345.665 59.0375 343.956 57.3164 341.849 57.3164Z" fill="#E3E6E8"/>
<path d="M296.325 65.443V61.1604C296.325 59.0375 298.033 57.3164 300.141 57.3164H292.152C290.044 57.3164 288.336 59.0373 288.336 61.1604V65.443L317 70.5404L320.995 69.8301L296.325 65.443Z" fill="#B3B5B7"/>
<path d="M345.664 65.4429H288.335C282.493 69.9993 279.073 77.0233 279.073 84.4665V133.248C279.073 139.186 283.852 144 289.747 144H344.252C350.147 144 354.926 139.186 354.926 133.248V84.4667C354.926 77.0233 351.506 69.9995 345.664 65.4429Z" fill="#FFD57A"/>
<path d="M287.063 133.247V84.4665C287.063 77.0235 290.483 69.9993 296.325 65.4429H288.336C282.494 69.9993 279.074 77.0233 279.074 84.4665V133.247C279.074 139.186 283.853 144 289.748 144H297.737C291.842 144 287.063 139.186 287.063 133.247Z" fill="#ECC369"/>
<path d="M301.264 82.1364C300.437 82.1364 299.767 81.4608 299.767 80.6274V77.7585C299.767 76.9251 300.437 76.2495 301.264 76.2495C302.092 76.2495 302.762 76.9251 302.762 77.7585V80.6274C302.762 81.4608 302.092 82.1364 301.264 82.1364Z" fill="#3B484A"/>
<path d="M332.736 82.1364C331.909 82.1364 331.238 81.4608 331.238 80.6274V77.7585C331.238 76.9251 331.909 76.2495 332.736 76.2495C333.563 76.2495 334.234 76.9251 334.234 77.7585V80.6274C334.234 81.4608 333.563 82.1364 332.736 82.1364Z" fill="#3B484A"/>
<path d="M317.001 84.2568C314.709 84.2568 312.558 83.2935 311.101 81.614C310.556 80.9865 310.62 80.0332 311.243 79.4847C311.865 78.9363 312.812 79.0004 313.356 79.6277C314.245 80.6515 315.573 81.2388 317.001 81.2388C318.428 81.2388 319.756 80.6517 320.645 79.6277C321.189 79.0004 322.136 78.9361 322.758 79.4847C323.381 80.0332 323.445 80.9865 322.9 81.614C321.443 83.2935 319.293 84.2568 317.001 84.2568Z" fill="#3B484A"/>
<path d="M343.618 98.7742C343.183 98.1846 342.817 97.5463 342.527 96.8719C341.343 94.1133 338.937 92.0793 336.035 91.3838C335.325 91.2139 334.638 90.9617 333.986 90.6324C331.319 89.2859 328.177 89.2859 325.51 90.6324C324.858 90.9615 324.171 91.2137 323.461 91.3838C320.559 92.0791 318.153 94.1133 316.969 96.8719C316.68 97.5461 316.314 98.1846 315.879 98.7742C314.099 101.186 313.554 104.303 314.407 107.182C314.615 107.887 314.742 108.612 314.786 109.346C314.962 112.346 316.532 115.087 319.023 116.74C319.632 117.144 320.193 117.618 320.693 118.152C322.742 120.337 325.694 121.419 328.657 121.072C329.382 120.987 330.113 120.987 330.838 121.072C333.801 121.419 336.753 120.337 338.802 118.152C339.303 117.618 339.863 117.144 340.472 116.74C342.963 115.087 344.534 112.346 344.71 109.346C344.753 108.612 344.88 107.887 345.088 107.182C345.942 104.303 345.397 101.186 343.618 98.7742Z" fill="#CE9964"/>
<path d="M290.382 98.7742C290.817 98.1846 291.183 97.5463 291.472 96.8719C292.656 94.1133 295.063 92.0793 297.965 91.3838C298.674 91.2139 299.362 90.9617 300.014 90.6324C302.681 89.2859 305.822 89.2859 308.489 90.6324C309.141 90.9615 309.829 91.2137 310.538 91.3838C313.441 92.0791 315.847 94.1133 317.031 96.8719C317.32 97.5461 317.686 98.1846 318.121 98.7742C319.901 101.186 320.446 104.303 319.593 107.182C319.384 107.887 319.257 108.612 319.214 109.346C319.038 112.346 317.468 115.087 314.977 116.74C314.368 117.144 313.807 117.618 313.306 118.152C311.257 120.337 308.306 121.419 305.342 121.072C304.618 120.987 303.886 120.987 303.162 121.072C300.199 121.419 297.247 120.337 295.198 118.152C294.697 117.618 294.137 117.144 293.528 116.74C291.037 115.087 289.466 112.346 289.29 109.346C289.247 108.612 289.12 107.887 288.911 107.182C288.057 104.303 288.603 101.186 290.382 98.7742Z" fill="#DDA46C"/>
<path d="M312.942 116.232C312.507 115.643 312.141 115.004 311.851 114.33C310.668 111.571 308.261 109.537 305.359 108.842C304.65 108.672 303.962 108.42 303.31 108.09C300.643 106.744 297.502 106.744 294.835 108.09C294.183 108.42 293.495 108.672 292.786 108.842C289.883 109.537 287.477 111.571 286.293 114.33C286.004 115.004 285.638 115.643 285.203 116.232C283.423 118.644 282.878 121.761 283.731 124.64C283.94 125.345 284.067 126.071 284.11 126.804C284.286 129.804 285.856 132.545 288.347 134.198C288.956 134.602 289.517 135.076 290.018 135.61C292.067 137.795 295.018 138.877 297.982 138.53C298.706 138.446 299.438 138.446 300.162 138.53C303.125 138.877 306.077 137.795 308.126 135.61C308.627 135.076 309.187 134.602 309.796 134.198C312.287 132.545 313.858 129.804 314.034 126.804C314.077 126.071 314.204 125.345 314.413 124.64C315.267 121.761 314.721 118.644 312.942 116.232Z" fill="#CE9964"/>
<path d="M292.885 120.816C294.328 120.816 295.497 119.876 295.497 118.716C295.497 117.557 294.328 116.617 292.885 116.617C291.442 116.617 290.272 117.557 290.272 118.716C290.272 119.876 291.442 120.816 292.885 120.816Z" fill="#8B6C52"/>
<path d="M321.058 116.232C321.493 115.643 321.859 115.004 322.148 114.33C323.332 111.571 325.739 109.537 328.641 108.842C329.35 108.672 330.038 108.42 330.69 108.09C333.357 106.744 336.498 106.744 339.165 108.09C339.817 108.42 340.505 108.672 341.214 108.842C344.117 109.537 346.523 111.571 347.707 114.33C347.996 115.004 348.362 115.643 348.797 116.232C350.577 118.644 351.122 121.761 350.269 124.64C350.06 125.345 349.933 126.071 349.89 126.804C349.714 129.804 348.144 132.545 345.653 134.198C345.044 134.602 344.483 135.076 343.982 135.61C341.933 137.795 338.981 138.877 336.018 138.53C335.294 138.446 334.562 138.446 333.838 138.53C330.875 138.877 327.923 137.795 325.874 135.61C325.373 135.076 324.813 134.602 324.204 134.198C321.713 132.545 320.142 129.804 319.966 126.804C319.923 126.071 319.796 125.345 319.587 124.64C318.733 121.761 319.278 118.644 321.058 116.232Z" fill="#DDA46C"/>
<path d="M330.87 116.232C330.435 115.643 330.069 115.004 329.779 114.33C328.595 111.571 326.189 109.537 323.287 108.842C322.577 108.672 321.89 108.42 321.238 108.09C318.571 106.744 315.429 106.744 312.762 108.09C312.11 108.42 311.423 108.672 310.713 108.842C307.811 109.537 305.405 111.571 304.221 114.33C303.931 115.004 303.566 115.643 303.131 116.232C301.351 118.644 300.806 121.761 301.659 124.64C301.867 125.345 301.994 126.071 302.037 126.804C302.214 129.804 303.784 132.545 306.275 134.198C306.884 134.602 307.445 135.076 307.945 135.61C309.994 137.795 312.946 138.877 315.909 138.53C316.634 138.446 317.365 138.446 318.09 138.53C321.053 138.877 324.005 137.795 326.054 135.61C326.555 135.076 327.115 134.602 327.724 134.198C330.215 132.545 331.786 129.804 331.962 126.804C332.005 126.071 332.132 125.345 332.34 124.64C333.195 121.761 332.649 118.644 330.87 116.232Z" fill="#F6B778"/>
<path d="M310.627 123.84C312.387 123.84 313.814 122.693 313.814 121.278C313.814 119.863 312.387 118.716 310.627 118.716C308.866 118.716 307.439 119.863 307.439 121.278C307.439 122.693 308.866 123.84 310.627 123.84Z" fill="#654D3B"/>
<path d="M320.187 132.528C321.947 132.528 323.374 131.381 323.374 129.966C323.374 128.551 321.947 127.404 320.187 127.404C318.427 127.404 317 128.551 317 129.966C317 131.381 318.427 132.528 320.187 132.528Z" fill="#654D3B"/>
<path d="M339.863 129.967C341.623 129.967 343.05 128.819 343.05 127.404C343.05 125.989 341.623 124.842 339.863 124.842C338.103 124.842 336.676 125.989 336.676 127.404C336.676 128.819 338.103 129.967 339.863 129.967Z" fill="#654D3B"/>
<path d="M322.087 119.441C323.53 119.441 324.7 118.501 324.7 117.342C324.7 116.182 323.53 115.242 322.087 115.242C320.644 115.242 319.475 116.182 319.475 117.342C319.475 118.501 320.644 119.441 322.087 119.441Z" fill="#8B6C52"/>
<path d="M299.072 100.347C300.515 100.347 301.685 99.4071 301.685 98.2476C301.685 97.088 300.515 96.1479 299.072 96.1479C297.63 96.1479 296.46 97.088 296.46 98.2476C296.46 99.4071 297.63 100.347 299.072 100.347Z" fill="#8B6C52"/>
<path d="M310.627 103.478C312.07 103.478 313.24 102.538 313.24 101.378C313.24 100.219 312.07 99.2788 310.627 99.2788C309.184 99.2788 308.015 100.219 308.015 101.378C308.015 102.538 309.184 103.478 310.627 103.478Z" fill="#654D3B"/>
<path d="M329.749 102.448C331.192 102.448 332.362 101.508 332.362 100.348C332.362 99.1886 331.192 98.2485 329.749 98.2485C328.306 98.2485 327.137 99.1886 327.137 100.348C327.137 101.508 328.306 102.448 329.749 102.448Z" fill="#8B6C52"/>
<rect x="293" y="111" width="51" height="18" rx="1" fill="white"/>
<path fill-rule="evenodd" clip-rule="evenodd" d="M304.682 121.816L306.23 121.468C306.266 122.188 306.818 122.776 307.646 122.776C308.39 122.776 308.99 122.284 308.99 121.504C308.99 120.616 308.33 120.196 307.61 120.196C307.082 120.196 306.662 120.436 306.41 120.724C306.254 120.664 305.066 120.256 304.898 120.208L305.822 116.212H310.214V117.64H306.95L306.566 119.356C306.902 119.044 307.454 118.876 307.97 118.876C309.53 118.876 310.634 119.812 310.634 121.48C310.634 122.932 309.518 124.192 307.646 124.192C305.954 124.192 304.778 123.04 304.682 121.816ZM313.13 120.112C313.13 120.928 313.25 121.624 313.55 122.092C313.79 122.476 314.162 122.728 314.726 122.728C315.302 122.728 315.65 122.476 315.89 122.092C316.202 121.624 316.322 120.928 316.322 120.112C316.322 119.296 316.202 118.6 315.89 118.132C315.65 117.748 315.302 117.496 314.726 117.496C314.162 117.496 313.79 117.748 313.55 118.132C313.25 118.6 313.13 119.296 313.13 120.112ZM311.474 120.112C311.474 119.116 311.63 118.144 312.158 117.34C312.674 116.572 313.514 116.032 314.726 116.032C315.938 116.032 316.778 116.572 317.282 117.34C317.81 118.144 317.978 119.116 317.978 120.112C317.978 121.108 317.81 122.08 317.282 122.884C316.778 123.652 315.938 124.192 314.726 124.192C313.514 124.192 312.674 123.652 312.158 122.884C311.63 122.08 311.474 121.108 311.474 120.112ZM320.618 120.112C320.618 120.928 320.738 121.624 321.038 122.092C321.278 122.476 321.65 122.728 322.214 122.728C322.79 122.728 323.138 122.476 323.378 122.092C323.69 121.624 323.81 120.928 323.81 120.112C323.81 119.296 323.69 118.6 323.378 118.132C323.138 117.748 322.79 117.496 322.214 117.496C321.65 117.496 321.278 117.748 321.038 118.132C320.738 118.6 320.618 119.296 320.618 120.112ZM318.962 120.112C318.962 119.116 319.118 118.144 319.646 117.34C320.162 116.572 321.002 116.032 322.214 116.032C323.426 116.032 324.266 116.572 324.77 117.34C325.298 118.144 325.466 119.116 325.466 120.112C325.466 121.108 325.298 122.08 324.77 122.884C324.266 123.652 323.426 124.192 322.214 124.192C321.002 124.192 320.162 123.652 319.646 122.884C319.118 122.08 318.962 121.108 318.962 120.112ZM332.534 118.096L330.17 120.58L332.582 124H330.626L329.066 121.744L328.406 122.44V124H326.81V115.312H328.406V120.292L330.446 118.096H332.534Z" fill="#333333"/>
<path d="M295.471 170V162.412H298.187V160.662H290.739V162.412H293.469V170H295.471ZM304.437 170V165.632C304.437 163.686 303.023 163.07 301.469 163.07C300.405 163.07 299.341 163.392 298.515 164.134L299.215 165.38C299.775 164.862 300.447 164.582 301.161 164.582C302.057 164.582 302.645 165.03 302.645 165.716V166.57C302.197 166.038 301.413 165.744 300.503 165.744C299.425 165.744 298.165 166.332 298.165 167.928C298.165 169.44 299.425 170.168 300.503 170.168C301.385 170.168 302.183 169.846 302.645 169.286V170H304.437ZM301.217 168.964C300.517 168.964 299.943 168.6 299.943 167.956C299.943 167.312 300.517 166.934 301.217 166.934C301.791 166.934 302.351 167.144 302.645 167.536V168.376C302.351 168.768 301.791 168.964 301.217 168.964ZM312.619 170L310.211 166.528L312.465 163.238H310.477L309.091 165.31L307.691 163.238H305.703L307.971 166.528L305.563 170H307.537L309.091 167.718L310.631 170H312.619ZM319.798 170V164.792H321.17V163.238H319.798V162.958C319.798 162.3 320.134 161.978 320.638 161.978C320.96 161.978 321.198 162.076 321.38 162.244L322.052 161.166C321.646 160.704 320.946 160.522 320.288 160.522C318.93 160.522 318.02 161.432 318.02 162.958V163.238H316.9V164.792H318.02V170H319.798ZM324.231 170V165.534C324.525 165.1 325.309 164.764 325.897 164.764C326.107 164.764 326.261 164.778 326.387 164.806V163.07C325.547 163.07 324.721 163.56 324.231 164.148V163.238H322.453V170H324.231ZM330.936 170.168C331.986 170.168 333.05 169.846 333.722 169.23L332.924 168.054C332.49 168.474 331.706 168.712 331.132 168.712C329.984 168.712 329.312 168.026 329.186 167.2H334.212V166.78C334.212 164.582 332.854 163.07 330.824 163.07C328.78 163.07 327.324 164.652 327.324 166.612C327.324 168.782 328.878 170.168 330.936 170.168ZM332.504 165.968H329.172C329.242 165.296 329.718 164.526 330.824 164.526C332 164.526 332.448 165.324 332.504 165.968ZM338.933 170.168C339.983 170.168 341.047 169.846 341.719 169.23L340.921 168.054C340.487 168.474 339.703 168.712 339.129 168.712C337.981 168.712 337.309 168.026 337.183 167.2H342.209V166.78C342.209 164.582 340.851 163.07 338.821 163.07C336.777 163.07 335.321 164.652 335.321 166.612C335.321 168.782 336.875 170.168 338.933 170.168ZM340.501 165.968H337.169C337.239 165.296 337.715 164.526 338.821 164.526C339.997 164.526 340.445 165.324 340.501 165.968Z" fill="#6A668F"/>
<path d="M264.69 189V188.038H260.66V180.329H259.581V189H264.69ZM266.83 181.824C267.194 181.824 267.48 181.538 267.48 181.174C267.48 180.81 267.194 180.511 266.83 180.511C266.466 180.511 266.167 180.81 266.167 181.174C266.167 181.538 266.466 181.824 266.83 181.824ZM267.311 189V182.721H266.336V189H267.311ZM278.051 189V184.463C278.051 183.202 277.44 182.565 276.296 182.565C275.386 182.565 274.541 183.163 274.19 183.735C274.008 183.085 273.462 182.565 272.513 182.565C271.577 182.565 270.745 183.228 270.472 183.631V182.721H269.497V189H270.472V184.411C270.81 183.904 271.486 183.436 272.123 183.436C272.955 183.436 273.28 183.943 273.28 184.736V189H274.255V184.398C274.58 183.891 275.269 183.436 275.919 183.436C276.738 183.436 277.076 183.943 277.076 184.736V189H278.051ZM280.731 181.824C281.095 181.824 281.381 181.538 281.381 181.174C281.381 180.81 281.095 180.511 280.731 180.511C280.367 180.511 280.068 180.81 280.068 181.174C280.068 181.538 280.367 181.824 280.731 181.824ZM281.212 189V182.721H280.237V189H281.212ZM284.996 189.156C285.555 189.156 285.906 188.987 286.153 188.753L285.867 188.012C285.737 188.155 285.49 188.285 285.204 188.285C284.788 188.285 284.58 187.947 284.58 187.479V183.579H285.854V182.721H284.58V181.005H283.592V182.721H282.552V183.579H283.592V187.687C283.592 188.623 284.06 189.156 284.996 189.156ZM290.306 189.156C291.32 189.156 292.165 188.805 292.802 188.181L292.334 187.544C291.827 188.064 291.112 188.35 290.384 188.35C289.032 188.35 288.213 187.362 288.135 186.179H293.205V185.932C293.205 184.047 292.087 182.565 290.189 182.565C288.395 182.565 287.095 184.034 287.095 185.854C287.095 187.817 288.434 189.156 290.306 189.156ZM292.243 185.451H288.122C288.174 184.502 288.837 183.371 290.176 183.371C291.606 183.371 292.23 184.528 292.243 185.451ZM300.55 189V180.329H299.575V183.67C299.068 182.981 298.301 182.565 297.456 182.565C295.818 182.565 294.661 183.852 294.661 185.867C294.661 187.908 295.818 189.156 297.456 189.156C298.34 189.156 299.107 188.701 299.575 188.064V189H300.55ZM297.703 188.285C296.429 188.285 295.675 187.258 295.675 185.867C295.675 184.476 296.429 183.436 297.703 183.436C298.47 183.436 299.237 183.904 299.575 184.45V187.284C299.237 187.83 298.47 188.285 297.703 188.285ZM307.947 189.156C308.506 189.156 308.857 188.987 309.104 188.753L308.818 188.012C308.688 188.155 308.441 188.285 308.155 188.285C307.739 188.285 307.531 187.947 307.531 187.479V183.579H308.805V182.721H307.531V181.005H306.543V182.721H305.503V183.579H306.543V187.687C306.543 188.623 307.011 189.156 307.947 189.156ZM313.153 189.156C315.064 189.156 316.26 187.674 316.26 185.854C316.26 184.034 315.064 182.565 313.153 182.565C311.242 182.565 310.046 184.034 310.046 185.854C310.046 187.674 311.242 189.156 313.153 189.156ZM313.153 188.285C311.814 188.285 311.073 187.141 311.073 185.854C311.073 184.58 311.814 183.436 313.153 183.436C314.492 183.436 315.233 184.58 315.233 185.854C315.233 187.141 314.492 188.285 313.153 188.285ZM328.026 189L325.686 185.464C326.869 185.36 327.948 184.502 327.948 182.942C327.948 181.343 326.804 180.329 325.218 180.329H321.734V189H322.813V185.555H324.555L326.752 189H328.026ZM325.088 184.606H322.813V181.291H325.088C326.115 181.291 326.83 181.954 326.83 182.942C326.83 183.917 326.115 184.606 325.088 184.606ZM332.796 189.156C334.538 189.156 335.89 188.051 335.89 186.296C335.89 184.502 334.577 183.527 333.121 183.527C332.25 183.527 331.522 183.891 331.093 184.307V181.291H335.318V180.329H330.014V184.996L330.807 185.269C331.392 184.71 332.055 184.463 332.809 184.463C333.979 184.463 334.798 185.191 334.798 186.335C334.798 187.388 333.979 188.194 332.796 188.194C331.743 188.194 330.976 187.778 330.404 187.037L329.741 187.765C330.391 188.623 331.34 189.156 332.796 189.156ZM340.77 189.156C343.136 189.156 344.085 186.777 344.085 184.671C344.085 182.552 343.136 180.199 340.77 180.199C338.391 180.199 337.455 182.552 337.455 184.671C337.455 186.777 338.391 189.156 340.77 189.156ZM340.77 188.194C339.119 188.194 338.56 186.4 338.56 184.671C338.56 182.942 339.119 181.161 340.77 181.161C342.421 181.161 342.98 182.942 342.98 184.671C342.98 186.4 342.421 188.194 340.77 188.194ZM348.97 189.156C351.336 189.156 352.285 186.777 352.285 184.671C352.285 182.552 351.336 180.199 348.97 180.199C346.591 180.199 345.655 182.552 345.655 184.671C345.655 186.777 346.591 189.156 348.97 189.156ZM348.97 188.194C347.319 188.194 346.76 186.4 346.76 184.671C346.76 182.942 347.319 181.161 348.97 181.161C350.621 181.161 351.18 182.942 351.18 184.671C351.18 186.4 350.621 188.194 348.97 188.194ZM359.693 189L356.898 185.568L359.68 182.721H358.445L355.143 186.062V180.329H354.168V189H355.143V187.206L356.196 186.179L358.445 189H359.693ZM365.185 181.824C365.549 181.824 365.835 181.538 365.835 181.174C365.835 180.81 365.549 180.511 365.185 180.511C364.821 180.511 364.522 180.81 364.522 181.174C364.522 181.538 364.821 181.824 365.185 181.824ZM365.666 189V182.721H364.691V189H365.666ZM373.065 189V184.593C373.065 183.228 372.376 182.565 371.076 182.565C370.127 182.565 369.269 183.098 368.827 183.631V182.721H367.852V189H368.827V184.411C369.204 183.904 369.919 183.436 370.686 183.436C371.531 183.436 372.103 183.774 372.103 184.892V189H373.065ZM269.682 202V197.684C269.682 196.163 268.59 195.565 267.251 195.565C266.224 195.565 265.418 195.903 264.742 196.605L265.197 197.281C265.756 196.67 266.367 196.41 267.121 196.41C268.031 196.41 268.707 196.891 268.707 197.723V198.854C268.2 198.282 267.485 198.009 266.627 198.009C265.561 198.009 264.443 198.659 264.443 200.076C264.443 201.441 265.574 202.156 266.627 202.156C267.472 202.156 268.2 201.857 268.707 201.285V202H269.682ZM266.991 201.454C266.068 201.454 265.431 200.882 265.431 200.076C265.431 199.283 266.068 198.711 266.991 198.711C267.667 198.711 268.33 198.971 268.707 199.478V200.674C268.33 201.194 267.667 201.454 266.991 201.454ZM276.47 202V193.329H275.495V202H276.47ZM279.15 194.824C279.514 194.824 279.8 194.538 279.8 194.174C279.8 193.81 279.514 193.511 279.15 193.511C278.786 193.511 278.487 193.81 278.487 194.174C278.487 194.538 278.786 194.824 279.15 194.824ZM279.631 202V195.721H278.656V202H279.631ZM283.064 202V196.579H284.338V195.721H283.064V195.24C283.064 194.434 283.415 194.005 284.065 194.005C284.377 194.005 284.624 194.122 284.832 194.304L285.235 193.68C284.845 193.316 284.416 193.199 283.909 193.199C282.804 193.199 282.089 193.953 282.089 195.24V195.721H281.049V196.579H282.089V202H283.064ZM288.599 202.156C289.613 202.156 290.458 201.805 291.095 201.181L290.627 200.544C290.12 201.064 289.405 201.35 288.677 201.35C287.325 201.35 286.506 200.362 286.428 199.179H291.498V198.932C291.498 197.047 290.38 195.565 288.482 195.565C286.688 195.565 285.388 197.034 285.388 198.854C285.388 200.817 286.727 202.156 288.599 202.156ZM290.536 198.451H286.415C286.467 197.502 287.13 196.371 288.469 196.371C289.899 196.371 290.523 197.528 290.536 198.451ZM294.916 202.156C295.475 202.156 295.826 201.987 296.073 201.753L295.787 201.012C295.657 201.155 295.41 201.285 295.124 201.285C294.708 201.285 294.5 200.947 294.5 200.479V196.579H295.774V195.721H294.5V194.005H293.512V195.721H292.472V196.579H293.512V200.687C293.512 201.623 293.98 202.156 294.916 202.156ZM297.873 194.824C298.237 194.824 298.523 194.538 298.523 194.174C298.523 193.81 298.237 193.511 297.873 193.511C297.509 193.511 297.21 193.81 297.21 194.174C297.21 194.538 297.509 194.824 297.873 194.824ZM298.354 202V195.721H297.379V202H298.354ZM309.094 202V197.463C309.094 196.202 308.483 195.565 307.339 195.565C306.429 195.565 305.584 196.163 305.233 196.735C305.051 196.085 304.505 195.565 303.556 195.565C302.62 195.565 301.788 196.228 301.515 196.631V195.721H300.54V202H301.515V197.411C301.853 196.904 302.529 196.436 303.166 196.436C303.998 196.436 304.323 196.943 304.323 197.736V202H305.298V197.398C305.623 196.891 306.312 196.436 306.962 196.436C307.781 196.436 308.119 196.943 308.119 197.736V202H309.094ZM314.127 202.156C315.141 202.156 315.986 201.805 316.623 201.181L316.155 200.544C315.648 201.064 314.933 201.35 314.205 201.35C312.853 201.35 312.034 200.362 311.956 199.179H317.026V198.932C317.026 197.047 315.908 195.565 314.01 195.565C312.216 195.565 310.916 197.034 310.916 198.854C310.916 200.817 312.255 202.156 314.127 202.156ZM316.064 198.451H311.943C311.995 197.502 312.658 196.371 313.997 196.371C315.427 196.371 316.051 197.528 316.064 198.451ZM327.352 202V197.684C327.352 196.163 326.26 195.565 324.921 195.565C323.894 195.565 323.088 195.903 322.412 196.605L322.867 197.281C323.426 196.67 324.037 196.41 324.791 196.41C325.701 196.41 326.377 196.891 326.377 197.723V198.854C325.87 198.282 325.155 198.009 324.297 198.009C323.231 198.009 322.113 198.659 322.113 200.076C322.113 201.441 323.244 202.156 324.297 202.156C325.142 202.156 325.87 201.857 326.377 201.285V202H327.352ZM324.661 201.454C323.738 201.454 323.101 200.882 323.101 200.076C323.101 199.283 323.738 198.711 324.661 198.711C325.337 198.711 326 198.971 326.377 199.478V200.674C326 201.194 325.337 201.454 324.661 201.454ZM334.772 202V197.593C334.772 196.228 334.083 195.565 332.783 195.565C331.834 195.565 330.976 196.098 330.534 196.631V195.721H329.559V202H330.534V197.411C330.911 196.904 331.626 196.436 332.393 196.436C333.238 196.436 333.81 196.774 333.81 197.892V202H334.772ZM342.498 202V193.329H341.523V196.67C341.016 195.981 340.249 195.565 339.404 195.565C337.766 195.565 336.609 196.852 336.609 198.867C336.609 200.908 337.766 202.156 339.404 202.156C340.288 202.156 341.055 201.701 341.523 201.064V202H342.498ZM339.651 201.285C338.377 201.285 337.623 200.258 337.623 198.867C337.623 197.476 338.377 196.436 339.651 196.436C340.418 196.436 341.185 196.904 341.523 197.45V200.284C341.185 200.83 340.418 201.285 339.651 201.285ZM350.779 202.156C352.69 202.156 353.86 201.103 353.86 199.66C353.86 198.256 352.638 197.593 351.858 197.515C352.664 197.385 353.717 196.761 353.717 195.5C353.717 194.044 352.456 193.199 350.792 193.199C349.44 193.199 348.439 193.771 347.815 194.538L348.413 195.214C349.05 194.525 349.752 194.161 350.701 194.161C351.754 194.161 352.638 194.681 352.638 195.643C352.638 196.644 351.715 197.073 350.623 197.073C350.272 197.073 349.869 197.073 349.726 197.06V198.048C349.856 198.035 350.259 198.035 350.623 198.035C351.897 198.035 352.781 198.49 352.781 199.569C352.781 200.557 352.014 201.194 350.753 201.194C349.726 201.194 348.842 200.726 348.335 200.05L347.698 200.726C348.231 201.506 349.31 202.156 350.779 202.156ZM358.256 202.156C360.167 202.156 361.337 201.103 361.337 199.66C361.337 198.256 360.115 197.593 359.335 197.515C360.141 197.385 361.194 196.761 361.194 195.5C361.194 194.044 359.933 193.199 358.269 193.199C356.917 193.199 355.916 193.771 355.292 194.538L355.89 195.214C356.527 194.525 357.229 194.161 358.178 194.161C359.231 194.161 360.115 194.681 360.115 195.643C360.115 196.644 359.192 197.073 358.1 197.073C357.749 197.073 357.346 197.073 357.203 197.06V198.048C357.333 198.035 357.736 198.035 358.1 198.035C359.374 198.035 360.258 198.49 360.258 199.569C360.258 200.557 359.491 201.194 358.23 201.194C357.203 201.194 356.319 200.726 355.812 200.05L355.175 200.726C355.708 201.506 356.787 202.156 358.256 202.156ZM368.775 202L365.98 198.568L368.762 195.721H367.527L364.225 199.062V193.329H363.25V202H364.225V200.206L365.278 199.179L367.527 202H368.775ZM295.003 215.156C296.654 215.156 297.798 213.882 297.798 211.854C297.798 209.813 296.654 208.565 295.003 208.565C294.119 208.565 293.339 209.02 292.884 209.657V208.721H291.909V217.392H292.884V214.051C293.404 214.74 294.145 215.156 295.003 215.156ZM294.756 214.285C293.989 214.285 293.222 213.817 292.884 213.271V210.437C293.222 209.891 293.989 209.436 294.756 209.436C296.017 209.436 296.771 210.463 296.771 211.854C296.771 213.245 296.017 214.285 294.756 214.285ZM302.436 215.156C303.45 215.156 304.295 214.805 304.932 214.181L304.464 213.544C303.957 214.064 303.242 214.35 302.514 214.35C301.162 214.35 300.343 213.362 300.265 212.179H305.335V211.932C305.335 210.047 304.217 208.565 302.319 208.565C300.525 208.565 299.225 210.034 299.225 211.854C299.225 213.817 300.564 215.156 302.436 215.156ZM304.373 211.451H300.252C300.304 210.502 300.967 209.371 302.306 209.371C303.736 209.371 304.36 210.528 304.373 211.451ZM308.13 215V210.554C308.416 210.047 309.235 209.553 309.846 209.553C309.989 209.553 310.106 209.566 310.223 209.579V208.578C309.365 208.578 308.637 209.072 308.13 209.722V208.721H307.155V215H308.13ZM314.953 217.457C315.122 217.509 315.447 217.548 315.655 217.548C316.487 217.535 317.124 217.184 317.501 216.274L320.647 208.721H319.594L317.501 213.869L315.421 208.721H314.355L316.981 215.065L316.565 216.014C316.344 216.534 316.058 216.677 315.629 216.677C315.473 216.677 315.239 216.638 315.096 216.573L314.953 217.457ZM324.752 215.156C325.766 215.156 326.611 214.805 327.248 214.181L326.78 213.544C326.273 214.064 325.558 214.35 324.83 214.35C323.478 214.35 322.659 213.362 322.581 212.179H327.651V211.932C327.651 210.047 326.533 208.565 324.635 208.565C322.841 208.565 321.541 210.034 321.541 211.854C321.541 213.817 322.88 215.156 324.752 215.156ZM326.689 211.451H322.568C322.62 210.502 323.283 209.371 324.622 209.371C326.052 209.371 326.676 210.528 326.689 211.451ZM334.372 215V210.684C334.372 209.163 333.28 208.565 331.941 208.565C330.914 208.565 330.108 208.903 329.432 209.605L329.887 210.281C330.446 209.67 331.057 209.41 331.811 209.41C332.721 209.41 333.397 209.891 333.397 210.723V211.854C332.89 211.282 332.175 211.009 331.317 211.009C330.251 211.009 329.133 211.659 329.133 213.076C329.133 214.441 330.264 215.156 331.317 215.156C332.162 215.156 332.89 214.857 333.397 214.285V215H334.372ZM331.681 214.454C330.758 214.454 330.121 213.882 330.121 213.076C330.121 212.283 330.758 211.711 331.681 211.711C332.357 211.711 333.02 211.971 333.397 212.478V213.674C333.02 214.194 332.357 214.454 331.681 214.454ZM337.555 215V210.554C337.841 210.047 338.66 209.553 339.271 209.553C339.414 209.553 339.531 209.566 339.648 209.579V208.578C338.79 208.578 338.062 209.072 337.555 209.722V208.721H336.58V215H337.555ZM340.552 215.13C340.942 215.13 341.267 214.805 341.267 214.415C341.267 214.025 340.942 213.7 340.552 213.7C340.162 213.7 339.837 214.025 339.837 214.415C339.837 214.805 340.162 215.13 340.552 215.13Z" fill="#6A668F"/>
<path d="M134.912 44H131.089C129.509 44 128.229 45.2902 128.229 46.8814V54.3402H137.772V46.8814C137.773 45.2902 136.492 44 134.912 44Z" fill="#9A9B9D"/>
<path d="M153.532 50.0693H112.468C110.084 50.0693 108.151 52.0164 108.151 54.4182V57.3164L133 61.3799L157.849 57.3164V54.4184C157.849 52.0164 155.916 50.0693 153.532 50.0693Z" fill="#B3B5B7"/>
<path d="M116.14 57.3162V54.4182C116.14 52.0164 118.073 50.0693 120.457 50.0693H112.468C110.084 50.0693 108.151 52.0164 108.151 54.4182V57.3164L133 61.3799L136.995 60.7266L116.14 57.3162Z" fill="#9A9B9D"/>
<path d="M157.849 57.3164H108.152C106.044 57.3164 104.336 59.0373 104.336 61.1604V65.443L133 70.5404L161.664 65.443V61.1604C161.665 59.0375 159.956 57.3164 157.849 57.3164Z" fill="#E3E6E8"/>
<path d="M112.325 65.443V61.1604C112.325 59.0375 114.033 57.3164 116.141 57.3164H108.152C106.044 57.3164 104.336 59.0373 104.336 61.1604V65.443L133 70.5404L136.995 69.8301L112.325 65.443Z" fill="#B3B5B7"/>
<path d="M161.664 65.4429H104.335C98.493 69.9993 95.0732 77.0233 95.0732 84.4665V133.248C95.0732 139.186 99.8519 144 105.747 144H160.252C166.147 144 170.926 139.186 170.926 133.248V84.4667C170.926 77.0233 167.506 69.9995 161.664 65.4429Z" fill="#96D7E8"/>
<path d="M103.063 133.247V84.4665C103.063 77.0235 106.483 69.9993 112.325 65.4429H104.336C98.494 69.9993 95.0742 77.0233 95.0742 84.4665V133.247C95.0742 139.186 99.8529 144 105.748 144H113.737C107.842 144 103.063 139.186 103.063 133.247Z" fill="#68C9E0"/>
<path d="M117.264 82.1364C116.437 82.1364 115.767 81.4608 115.767 80.6274V77.7585C115.767 76.9251 116.437 76.2495 117.264 76.2495C118.092 76.2495 118.762 76.9251 118.762 77.7585V80.6274C118.762 81.4608 118.092 82.1364 117.264 82.1364Z" fill="#3B484A"/>
<path d="M148.736 82.1364C147.909 82.1364 147.238 81.4608 147.238 80.6274V77.7585C147.238 76.9251 147.909 76.2495 148.736 76.2495C149.563 76.2495 150.234 76.9251 150.234 77.7585V80.6274C150.234 81.4608 149.563 82.1364 148.736 82.1364Z" fill="#3B484A"/>
<path d="M133.001 84.2568C130.709 84.2568 128.558 83.2935 127.101 81.614C126.556 80.9865 126.62 80.0332 127.243 79.4847C127.865 78.9363 128.812 79.0004 129.356 79.6277C130.245 80.6515 131.573 81.2388 133.001 81.2388C134.428 81.2388 135.756 80.6517 136.645 79.6277C137.189 79.0004 138.136 78.9361 138.758 79.4847C139.381 80.0332 139.445 80.9865 138.9 81.614C137.443 83.2935 135.293 84.2568 133.001 84.2568Z" fill="#3B484A"/>
<path d="M159.618 98.7742C159.183 98.1846 158.817 97.5463 158.527 96.8719C157.343 94.1133 154.937 92.0793 152.035 91.3838C151.325 91.2139 150.638 90.9617 149.986 90.6324C147.319 89.2859 144.177 89.2859 141.51 90.6324C140.858 90.9615 140.171 91.2137 139.461 91.3838C136.559 92.0791 134.153 94.1133 132.969 96.8719C132.68 97.5461 132.314 98.1846 131.879 98.7742C130.099 101.186 129.554 104.303 130.407 107.182C130.615 107.887 130.742 108.612 130.786 109.346C130.962 112.346 132.532 115.087 135.023 116.74C135.632 117.144 136.193 117.618 136.693 118.152C138.742 120.337 141.694 121.419 144.657 121.072C145.382 120.987 146.113 120.987 146.838 121.072C149.801 121.419 152.753 120.337 154.802 118.152C155.303 117.618 155.863 117.144 156.472 116.74C158.963 115.087 160.534 112.346 160.71 109.346C160.753 108.612 160.88 107.887 161.088 107.182C161.942 104.303 161.397 101.186 159.618 98.7742Z" fill="#CE9964"/>
<path d="M106.382 98.7742C106.817 98.1846 107.183 97.5463 107.472 96.8719C108.656 94.1133 111.063 92.0793 113.965 91.3838C114.674 91.2139 115.362 90.9617 116.014 90.6324C118.681 89.2859 121.822 89.2859 124.489 90.6324C125.141 90.9615 125.829 91.2137 126.538 91.3838C129.441 92.0791 131.847 94.1133 133.031 96.8719C133.32 97.5461 133.686 98.1846 134.121 98.7742C135.901 101.186 136.446 104.303 135.593 107.182C135.384 107.887 135.257 108.612 135.214 109.346C135.038 112.346 133.468 115.087 130.977 116.74C130.368 117.144 129.807 117.618 129.306 118.152C127.257 120.337 124.306 121.419 121.342 121.072C120.618 120.987 119.886 120.987 119.162 121.072C116.199 121.419 113.247 120.337 111.198 118.152C110.697 117.618 110.137 117.144 109.528 116.74C107.037 115.087 105.466 112.346 105.29 109.346C105.247 108.612 105.12 107.887 104.911 107.182C104.057 104.303 104.603 101.186 106.382 98.7742Z" fill="#DDA46C"/>
<path d="M128.942 116.232C128.507 115.643 128.141 115.004 127.851 114.33C126.668 111.571 124.261 109.537 121.359 108.842C120.65 108.672 119.962 108.42 119.31 108.09C116.643 106.744 113.502 106.744 110.835 108.09C110.183 108.42 109.495 108.672 108.786 108.842C105.883 109.537 103.477 111.571 102.293 114.33C102.004 115.004 101.638 115.643 101.203 116.232C99.4234 118.644 98.8778 121.761 99.7311 124.64C99.9397 125.345 100.067 126.071 100.11 126.804C100.286 129.804 101.856 132.545 104.347 134.198C104.956 134.602 105.517 135.076 106.018 135.61C108.067 137.795 111.018 138.877 113.982 138.53C114.706 138.446 115.438 138.446 116.162 138.53C119.125 138.877 122.077 137.795 124.126 135.61C124.627 135.076 125.187 134.602 125.796 134.198C128.287 132.545 129.858 129.804 130.034 126.804C130.077 126.071 130.204 125.345 130.413 124.64C131.267 121.761 130.721 118.644 128.942 116.232Z" fill="#CE9964"/>
<path d="M108.885 120.816C110.328 120.816 111.497 119.876 111.497 118.716C111.497 117.557 110.328 116.617 108.885 116.617C107.442 116.617 106.272 117.557 106.272 118.716C106.272 119.876 107.442 120.816 108.885 120.816Z" fill="#8B6C52"/>
<path d="M137.058 116.232C137.493 115.643 137.859 115.004 138.148 114.33C139.332 111.571 141.739 109.537 144.641 108.842C145.35 108.672 146.038 108.42 146.69 108.09C149.357 106.744 152.498 106.744 155.165 108.09C155.817 108.42 156.505 108.672 157.214 108.842C160.117 109.537 162.523 111.571 163.707 114.33C163.996 115.004 164.362 115.643 164.797 116.232C166.577 118.644 167.122 121.761 166.269 124.64C166.06 125.345 165.933 126.071 165.89 126.804C165.714 129.804 164.144 132.545 161.653 134.198C161.044 134.602 160.483 135.076 159.982 135.61C157.933 137.795 154.981 138.877 152.018 138.53C151.294 138.446 150.562 138.446 149.838 138.53C146.875 138.877 143.923 137.795 141.874 135.61C141.373 135.076 140.813 134.602 140.204 134.198C137.713 132.545 136.142 129.804 135.966 126.804C135.923 126.071 135.796 125.345 135.587 124.64C134.733 121.761 135.278 118.644 137.058 116.232Z" fill="#DDA46C"/>
<path d="M146.87 116.232C146.435 115.643 146.069 115.004 145.779 114.33C144.595 111.571 142.189 109.537 139.287 108.842C138.577 108.672 137.89 108.42 137.238 108.09C134.571 106.744 131.429 106.744 128.762 108.09C128.11 108.42 127.423 108.672 126.713 108.842C123.811 109.537 121.405 111.571 120.221 114.33C119.931 115.004 119.566 115.643 119.131 116.232C117.351 118.644 116.806 121.761 117.659 124.64C117.867 125.345 117.994 126.071 118.037 126.804C118.214 129.804 119.784 132.545 122.275 134.198C122.884 134.602 123.445 135.076 123.945 135.61C125.994 137.795 128.946 138.877 131.909 138.53C132.634 138.446 133.365 138.446 134.09 138.53C137.053 138.877 140.005 137.795 142.054 135.61C142.555 135.076 143.115 134.602 143.724 134.198C146.215 132.545 147.786 129.804 147.962 126.804C148.005 126.071 148.132 125.345 148.34 124.64C149.195 121.761 148.649 118.644 146.87 116.232Z" fill="#F6B778"/>
<path d="M126.627 123.84C128.387 123.84 129.814 122.693 129.814 121.278C129.814 119.863 128.387 118.716 126.627 118.716C124.866 118.716 123.439 119.863 123.439 121.278C123.439 122.693 124.866 123.84 126.627 123.84Z" fill="#654D3B"/>
<path d="M136.187 132.528C137.947 132.528 139.374 131.381 139.374 129.966C139.374 128.551 137.947 127.404 136.187 127.404C134.427 127.404 133 128.551 133 129.966C133 131.381 134.427 132.528 136.187 132.528Z" fill="#654D3B"/>
<path d="M155.863 129.967C157.623 129.967 159.05 128.819 159.05 127.404C159.05 125.989 157.623 124.842 155.863 124.842C154.103 124.842 152.676 125.989 152.676 127.404C152.676 128.819 154.103 129.967 155.863 129.967Z" fill="#654D3B"/>
<path d="M138.087 119.441C139.53 119.441 140.7 118.501 140.7 117.342C140.7 116.182 139.53 115.242 138.087 115.242C136.644 115.242 135.475 116.182 135.475 117.342C135.475 118.501 136.644 119.441 138.087 119.441Z" fill="#8B6C52"/>
<path d="M115.072 100.347C116.515 100.347 117.685 99.4071 117.685 98.2476C117.685 97.088 116.515 96.1479 115.072 96.1479C113.63 96.1479 112.46 97.088 112.46 98.2476C112.46 99.4071 113.63 100.347 115.072 100.347Z" fill="#8B6C52"/>
<path d="M126.627 103.478C128.07 103.478 129.24 102.538 129.24 101.378C129.24 100.219 128.07 99.2788 126.627 99.2788C125.184 99.2788 124.015 100.219 124.015 101.378C124.015 102.538 125.184 103.478 126.627 103.478Z" fill="#654D3B"/>
<path d="M145.749 102.448C147.192 102.448 148.362 101.508 148.362 100.348C148.362 99.1886 147.192 98.2485 145.749 98.2485C144.306 98.2485 143.137 99.1886 143.137 100.348C143.137 101.508 144.306 102.448 145.749 102.448Z" fill="#8B6C52"/>
<rect x="107" y="111" width="55" height="18" rx="1" fill="white"/>
<path fill-rule="evenodd" clip-rule="evenodd" d="M120.64 124H118.9L115.036 117.964V124H113.38V115.492H115.444L118.984 121.12V115.492H120.64V124ZM125.116 122.728C125.896 122.728 126.616 122.164 126.616 121.048C126.616 119.932 125.896 119.368 125.116 119.368C124.336 119.368 123.616 119.932 123.616 121.048C123.616 122.152 124.336 122.728 125.116 122.728ZM125.116 117.916C126.88 117.916 128.212 119.224 128.212 121.048C128.212 122.86 126.88 124.18 125.116 124.18C123.352 124.18 122.02 122.86 122.02 121.048C122.02 119.224 123.352 117.916 125.116 117.916ZM134.032 124H132.436V115.312H134.032V124ZM137.332 124H135.736V118.096H137.332V124ZM135.544 116.164C135.544 115.612 135.988 115.168 136.528 115.168C137.08 115.168 137.512 115.612 137.512 116.164C137.512 116.692 137.08 117.136 136.528 117.136C135.988 117.136 135.544 116.692 135.544 116.164ZM140.632 124H139.036V118.096H140.56V118.816C140.884 118.24 141.64 117.928 142.288 117.928C143.092 117.928 143.74 118.276 144.04 118.912C144.508 118.192 145.132 117.928 145.912 117.928C147.004 117.928 148.048 118.588 148.048 120.172V124H146.5V120.496C146.5 119.86 146.188 119.38 145.456 119.38C144.772 119.38 144.364 119.908 144.364 120.544V124H142.78V120.496C142.78 119.86 142.456 119.38 141.736 119.38C141.04 119.38 140.632 119.896 140.632 120.544V124ZM151.264 124H149.668V118.096H151.264V124ZM149.476 116.164C149.476 115.612 149.92 115.168 150.46 115.168C151.012 115.168 151.444 115.612 151.444 116.164C151.444 116.692 151.012 117.136 150.46 117.136C149.92 117.136 149.476 116.692 149.476 116.164ZM154.936 116.332V118.096H156.124V119.512H154.936V121.984C154.936 122.5 155.176 122.668 155.632 122.668C155.824 122.668 156.04 122.644 156.124 122.62V123.94C155.98 124 155.692 124.084 155.224 124.084C154.072 124.084 153.352 123.4 153.352 122.26V119.512H152.284V118.096H152.584C153.208 118.096 153.496 117.688 153.496 117.16V116.332H154.936Z" fill="#333333"/>
<path d="M118.477 168V160.412H121.193V158.662H113.745V160.412H116.475V168H118.477ZM127.443 168V163.632C127.443 161.686 126.029 161.07 124.475 161.07C123.411 161.07 122.347 161.392 121.521 162.134L122.221 163.38C122.781 162.862 123.453 162.582 124.167 162.582C125.063 162.582 125.651 163.03 125.651 163.716V164.57C125.203 164.038 124.419 163.744 123.509 163.744C122.431 163.744 121.171 164.332 121.171 165.928C121.171 167.44 122.431 168.168 123.509 168.168C124.391 168.168 125.189 167.846 125.651 167.286V168H127.443ZM124.223 166.964C123.523 166.964 122.949 166.6 122.949 165.956C122.949 165.312 123.523 164.934 124.223 164.934C124.797 164.934 125.357 165.144 125.651 165.536V166.376C125.357 166.768 124.797 166.964 124.223 166.964ZM135.625 168L133.217 164.528L135.471 161.238H133.483L132.097 163.31L130.697 161.238H128.709L130.977 164.528L128.569 168H130.543L132.097 165.718L133.637 168H135.625ZM139.465 168.168C140.515 168.168 141.579 167.846 142.251 167.23L141.453 166.054C141.019 166.474 140.235 166.712 139.661 166.712C138.513 166.712 137.841 166.026 137.715 165.2H142.741V164.78C142.741 162.582 141.383 161.07 139.353 161.07C137.309 161.07 135.853 162.652 135.853 164.612C135.853 166.782 137.407 168.168 139.465 168.168ZM141.033 163.968H137.701C137.771 163.296 138.247 162.526 139.353 162.526C140.529 162.526 140.977 163.324 141.033 163.968ZM150.724 168V158.662H148.932V162.106C148.4 161.406 147.644 161.07 146.846 161.07C145.124 161.07 143.85 162.414 143.85 164.612C143.85 166.88 145.152 168.168 146.846 168.168C147.672 168.168 148.4 167.804 148.932 167.132V168H150.724ZM147.406 166.586C146.384 166.586 145.684 165.788 145.684 164.612C145.684 163.45 146.384 162.652 147.406 162.652C147.994 162.652 148.638 162.974 148.932 163.422V165.816C148.638 166.264 147.994 166.586 147.406 166.586Z" fill="#6A668F"/>
<path d="M89.3802 187V178.329H88.3012V185.102L83.3092 178.329H82.2042V187H83.2832V180.084L88.3402 187H89.3802ZM94.353 187.156C96.264 187.156 97.46 185.674 97.46 183.854C97.46 182.034 96.264 180.565 94.353 180.565C92.442 180.565 91.246 182.034 91.246 183.854C91.246 185.674 92.442 187.156 94.353 187.156ZM94.353 186.285C93.014 186.285 92.273 185.141 92.273 183.854C92.273 182.58 93.014 181.436 94.353 181.436C95.692 181.436 96.433 182.58 96.433 183.854C96.433 185.141 95.692 186.285 94.353 186.285ZM103.87 187V178.329H102.895V187H103.87ZM106.55 179.824C106.914 179.824 107.2 179.538 107.2 179.174C107.2 178.81 106.914 178.511 106.55 178.511C106.186 178.511 105.887 178.81 105.887 179.174C105.887 179.538 106.186 179.824 106.55 179.824ZM107.031 187V180.721H106.056V187H107.031ZM117.77 187V182.463C117.77 181.202 117.159 180.565 116.015 180.565C115.105 180.565 114.26 181.163 113.909 181.735C113.727 181.085 113.181 180.565 112.232 180.565C111.296 180.565 110.464 181.228 110.191 181.631V180.721H109.216V187H110.191V182.411C110.529 181.904 111.205 181.436 111.842 181.436C112.674 181.436 112.999 181.943 112.999 182.736V187H113.974V182.398C114.299 181.891 114.988 181.436 115.638 181.436C116.457 181.436 116.795 181.943 116.795 182.736V187H117.77ZM120.45 179.824C120.814 179.824 121.1 179.538 121.1 179.174C121.1 178.81 120.814 178.511 120.45 178.511C120.086 178.511 119.787 178.81 119.787 179.174C119.787 179.538 120.086 179.824 120.45 179.824ZM120.931 187V180.721H119.956V187H120.931ZM124.716 187.156C125.275 187.156 125.626 186.987 125.873 186.753L125.587 186.012C125.457 186.155 125.21 186.285 124.924 186.285C124.508 186.285 124.3 185.947 124.3 185.479V181.579H125.574V180.721H124.3V179.005H123.312V180.721H122.272V181.579H123.312V185.687C123.312 186.623 123.78 187.156 124.716 187.156ZM129.181 187.156C130.793 187.156 131.638 186.311 131.638 185.258C131.638 182.814 127.751 183.711 127.751 182.346C127.751 181.787 128.284 181.358 129.142 181.358C129.961 181.358 130.637 181.696 131.014 182.151L131.469 181.475C130.975 180.968 130.221 180.565 129.142 180.565C127.647 180.565 126.815 181.384 126.815 182.372C126.815 184.699 130.702 183.763 130.702 185.284C130.702 185.908 130.169 186.363 129.207 186.363C128.349 186.363 127.556 185.947 127.14 185.466L126.646 186.168C127.283 186.831 128.141 187.156 129.181 187.156ZM134.775 186.688C134.775 186.064 134.398 185.7 133.956 185.7C133.566 185.7 133.267 186.025 133.267 186.402C133.267 186.779 133.54 187.065 133.891 187.065C133.956 187.065 134.047 187.052 134.073 187.039C134.021 187.468 133.644 187.975 133.228 188.248L133.722 188.651C134.32 188.222 134.775 187.481 134.775 186.688ZM141.279 185.297V182.45C141.617 181.904 142.384 181.436 143.164 181.436C144.425 181.436 145.179 182.476 145.179 183.867C145.179 185.258 144.425 186.285 143.164 186.285C142.384 186.285 141.617 185.843 141.279 185.297ZM141.279 187V186.064C141.747 186.701 142.514 187.156 143.398 187.156C145.036 187.156 146.193 185.908 146.193 183.867C146.193 181.852 145.049 180.565 143.398 180.565C142.553 180.565 141.786 180.981 141.279 181.67V178.329H140.304V187H141.279ZM153.235 187V180.721H152.26V185.336C151.896 185.843 151.168 186.285 150.414 186.285C149.556 186.285 148.997 185.96 148.997 184.855V180.721H148.022V185.154C148.022 186.506 148.711 187.156 150.024 187.156C150.96 187.156 151.779 186.662 152.26 186.116V187H153.235ZM157.022 187.156C157.581 187.156 157.932 186.987 158.179 186.753L157.893 186.012C157.763 186.155 157.516 186.285 157.23 186.285C156.814 186.285 156.606 185.947 156.606 185.479V181.579H157.88V180.721H156.606V179.005H155.618V180.721H154.578V181.579H155.618V185.687C155.618 186.623 156.086 187.156 157.022 187.156ZM162.752 189.457C162.921 189.509 163.246 189.548 163.454 189.548C164.286 189.535 164.923 189.184 165.3 188.274L168.446 180.721H167.393L165.3 185.869L163.22 180.721H162.154L164.78 187.065L164.364 188.014C164.143 188.534 163.857 188.677 163.428 188.677C163.272 188.677 163.038 188.638 162.895 188.573L162.752 189.457ZM172.447 187.156C174.358 187.156 175.554 185.674 175.554 183.854C175.554 182.034 174.358 180.565 172.447 180.565C170.536 180.565 169.34 182.034 169.34 183.854C169.34 185.674 170.536 187.156 172.447 187.156ZM172.447 186.285C171.108 186.285 170.367 185.141 170.367 183.854C170.367 182.58 171.108 181.436 172.447 181.436C173.786 181.436 174.527 182.58 174.527 183.854C174.527 185.141 173.786 186.285 172.447 186.285ZM182.597 187V180.721H181.622V185.336C181.258 185.843 180.53 186.285 179.776 186.285C178.918 186.285 178.359 185.96 178.359 184.855V180.721H177.384V185.154C177.384 186.506 178.073 187.156 179.386 187.156C180.322 187.156 181.141 186.662 181.622 186.116V187H182.597ZM92.6862 200V195.463C92.6862 194.202 92.0752 193.565 90.9312 193.565C90.0212 193.565 89.1762 194.163 88.8252 194.735C88.6432 194.085 88.0972 193.565 87.1482 193.565C86.2122 193.565 85.3802 194.228 85.1072 194.631V193.721H84.1322V200H85.1072V195.411C85.4452 194.904 86.1212 194.436 86.7582 194.436C87.5902 194.436 87.9152 194.943 87.9152 195.736V200H88.8902V195.398C89.2152 194.891 89.9042 194.436 90.5542 194.436C91.3732 194.436 91.7112 194.943 91.7112 195.736V200H92.6862ZM99.773 200V195.684C99.773 194.163 98.681 193.565 97.3419 193.565C96.3149 193.565 95.5089 193.903 94.8329 194.605L95.2879 195.281C95.8469 194.67 96.4579 194.41 97.212 194.41C98.122 194.41 98.7979 194.891 98.7979 195.723V196.854C98.291 196.282 97.576 196.009 96.7179 196.009C95.6519 196.009 94.5339 196.659 94.5339 198.076C94.5339 199.441 95.6649 200.156 96.7179 200.156C97.5629 200.156 98.291 199.857 98.7979 199.285V200H99.773ZM97.0819 199.454C96.1589 199.454 95.5219 198.882 95.5219 198.076C95.5219 197.283 96.1589 196.711 97.0819 196.711C97.758 196.711 98.421 196.971 98.7979 197.478V198.674C98.421 199.194 97.758 199.454 97.0819 199.454ZM101.643 202.457C101.812 202.509 102.137 202.548 102.345 202.548C103.177 202.535 103.814 202.184 104.191 201.274L107.337 193.721H106.284L104.191 198.869L102.111 193.721H101.045L103.671 200.065L103.255 201.014C103.034 201.534 102.748 201.677 102.319 201.677C102.163 201.677 101.929 201.638 101.786 201.573L101.643 202.457ZM117.412 200V195.593C117.412 194.228 116.723 193.565 115.423 193.565C114.474 193.565 113.616 194.098 113.174 194.631V193.721H112.199V200H113.174V195.411C113.551 194.904 114.266 194.436 115.033 194.436C115.878 194.436 116.45 194.774 116.45 195.892V200H117.412ZM122.46 200.156C123.474 200.156 124.319 199.805 124.956 199.181L124.488 198.544C123.981 199.064 123.266 199.35 122.538 199.35C121.186 199.35 120.367 198.362 120.289 197.179H125.359V196.932C125.359 195.047 124.241 193.565 122.343 193.565C120.549 193.565 119.249 195.034 119.249 196.854C119.249 198.817 120.588 200.156 122.46 200.156ZM124.397 196.451H120.276C120.328 195.502 120.991 194.371 122.33 194.371C123.76 194.371 124.384 195.528 124.397 196.451ZM130.026 200.156C131.04 200.156 131.885 199.805 132.522 199.181L132.054 198.544C131.547 199.064 130.832 199.35 130.104 199.35C128.752 199.35 127.933 198.362 127.855 197.179H132.925V196.932C132.925 195.047 131.807 193.565 129.909 193.565C128.115 193.565 126.815 195.034 126.815 196.854C126.815 198.817 128.154 200.156 130.026 200.156ZM131.963 196.451H127.842C127.894 195.502 128.557 194.371 129.896 194.371C131.326 194.371 131.95 195.528 131.963 196.451ZM140.27 200V191.329H139.295V194.67C138.788 193.981 138.021 193.565 137.176 193.565C135.538 193.565 134.381 194.852 134.381 196.867C134.381 198.908 135.538 200.156 137.176 200.156C138.06 200.156 138.827 199.701 139.295 199.064V200H140.27ZM137.423 199.285C136.149 199.285 135.395 198.258 135.395 196.867C135.395 195.476 136.149 194.436 137.423 194.436C138.19 194.436 138.957 194.904 139.295 195.45V198.284C138.957 198.83 138.19 199.285 137.423 199.285ZM147.667 200.156C148.226 200.156 148.577 199.987 148.824 199.753L148.538 199.012C148.408 199.155 148.161 199.285 147.875 199.285C147.459 199.285 147.251 198.947 147.251 198.479V194.579H148.525V193.721H147.251V192.005H146.263V193.721H145.223V194.579H146.263V198.687C146.263 199.623 146.731 200.156 147.667 200.156ZM152.873 200.156C154.784 200.156 155.98 198.674 155.98 196.854C155.98 195.034 154.784 193.565 152.873 193.565C150.962 193.565 149.766 195.034 149.766 196.854C149.766 198.674 150.962 200.156 152.873 200.156ZM152.873 199.285C151.534 199.285 150.793 198.141 150.793 196.854C150.793 195.58 151.534 194.436 152.873 194.436C154.212 194.436 154.953 195.58 154.953 196.854C154.953 198.141 154.212 199.285 152.873 199.285ZM164.509 200.156C166.16 200.156 167.304 198.882 167.304 196.854C167.304 194.813 166.16 193.565 164.509 193.565C163.625 193.565 162.845 194.02 162.39 194.657V193.721H161.415V202.392H162.39V199.051C162.91 199.74 163.651 200.156 164.509 200.156ZM164.262 199.285C163.495 199.285 162.728 198.817 162.39 198.271V195.437C162.728 194.891 163.495 194.436 164.262 194.436C165.523 194.436 166.277 195.463 166.277 196.854C166.277 198.245 165.523 199.285 164.262 199.285ZM173.996 200V195.684C173.996 194.163 172.904 193.565 171.565 193.565C170.538 193.565 169.732 193.903 169.056 194.605L169.511 195.281C170.07 194.67 170.681 194.41 171.435 194.41C172.345 194.41 173.021 194.891 173.021 195.723V196.854C172.514 196.282 171.799 196.009 170.941 196.009C169.875 196.009 168.757 196.659 168.757 198.076C168.757 199.441 169.888 200.156 170.941 200.156C171.786 200.156 172.514 199.857 173.021 199.285V200H173.996ZM171.305 199.454C170.382 199.454 169.745 198.882 169.745 198.076C169.745 197.283 170.382 196.711 171.305 196.711C171.981 196.711 172.644 196.971 173.021 197.478V198.674C172.644 199.194 171.981 199.454 171.305 199.454ZM175.866 202.457C176.035 202.509 176.36 202.548 176.568 202.548C177.4 202.535 178.037 202.184 178.414 201.274L181.56 193.721H180.507L178.414 198.869L176.334 193.721H175.268L177.894 200.065L177.478 201.014C177.257 201.534 176.971 201.677 176.542 201.677C176.386 201.677 176.152 201.638 176.009 201.573L175.866 202.457ZM97.6092 213.156C98.7532 213.156 99.4292 212.688 99.9102 212.064L99.2602 211.466C98.8442 212.025 98.3112 212.285 97.6612 212.285C96.3352 212.285 95.4902 211.245 95.4902 209.854C95.4902 208.463 96.3352 207.436 97.6612 207.436C98.3112 207.436 98.8442 207.67 99.2602 208.242L99.9102 207.657C99.4292 207.033 98.7532 206.565 97.6092 206.565C95.7372 206.565 94.4762 207.995 94.4762 209.854C94.4762 211.713 95.7372 213.156 97.6092 213.156ZM106.431 213V208.684C106.431 207.163 105.339 206.565 104 206.565C102.973 206.565 102.167 206.903 101.491 207.605L101.946 208.281C102.505 207.67 103.116 207.41 103.87 207.41C104.78 207.41 105.456 207.891 105.456 208.723V209.854C104.949 209.282 104.234 209.009 103.376 209.009C102.31 209.009 101.192 209.659 101.192 211.076C101.192 212.441 102.323 213.156 103.376 213.156C104.221 213.156 104.949 212.857 105.456 212.285V213H106.431ZM103.74 212.454C102.817 212.454 102.18 211.882 102.18 211.076C102.18 210.283 102.817 209.711 103.74 209.711C104.416 209.711 105.079 209.971 105.456 210.478V211.674C105.079 212.194 104.416 212.454 103.74 212.454ZM111.733 213.156C113.384 213.156 114.528 211.882 114.528 209.854C114.528 207.813 113.384 206.565 111.733 206.565C110.849 206.565 110.069 207.02 109.614 207.657V206.721H108.639V215.392H109.614V212.051C110.134 212.74 110.875 213.156 111.733 213.156ZM111.486 212.285C110.719 212.285 109.952 211.817 109.614 211.271V208.437C109.952 207.891 110.719 207.436 111.486 207.436C112.747 207.436 113.501 208.463 113.501 209.854C113.501 211.245 112.747 212.285 111.486 212.285ZM116.813 205.824C117.177 205.824 117.463 205.538 117.463 205.174C117.463 204.81 117.177 204.511 116.813 204.511C116.449 204.511 116.15 204.81 116.15 205.174C116.15 205.538 116.449 205.824 116.813 205.824ZM117.294 213V206.721H116.319V213H117.294ZM121.079 213.156C121.638 213.156 121.989 212.987 122.236 212.753L121.95 212.012C121.82 212.155 121.573 212.285 121.287 212.285C120.871 212.285 120.663 211.947 120.663 211.479V207.579H121.937V206.721H120.663V205.005H119.675V206.721H118.635V207.579H119.675V211.687C119.675 212.623 120.143 213.156 121.079 213.156ZM128.443 213V208.684C128.443 207.163 127.351 206.565 126.012 206.565C124.985 206.565 124.179 206.903 123.503 207.605L123.958 208.281C124.517 207.67 125.128 207.41 125.882 207.41C126.792 207.41 127.468 207.891 127.468 208.723V209.854C126.961 209.282 126.246 209.009 125.388 209.009C124.322 209.009 123.204 209.659 123.204 211.076C123.204 212.441 124.335 213.156 125.388 213.156C126.233 213.156 126.961 212.857 127.468 212.285V213H128.443ZM125.752 212.454C124.829 212.454 124.192 211.882 124.192 211.076C124.192 210.283 124.829 209.711 125.752 209.711C126.428 209.711 127.091 209.971 127.468 210.478V211.674C127.091 212.194 126.428 212.454 125.752 212.454ZM131.626 213V204.329H130.651V213H131.626ZM139.938 215.548C141.472 215.548 142.941 214.898 142.941 212.909V206.721H141.966V207.67C141.459 206.981 140.692 206.565 139.847 206.565C138.196 206.565 137.052 207.813 137.052 209.828C137.052 211.856 138.209 213.078 139.847 213.078C140.731 213.078 141.498 212.597 141.966 211.96V212.909C141.966 214.235 140.978 214.742 139.938 214.742C139.041 214.742 138.417 214.508 137.897 213.897L137.403 214.599C138.157 215.34 138.885 215.548 139.938 215.548ZM140.094 212.207C138.82 212.207 138.066 211.206 138.066 209.828C138.066 208.437 138.82 207.436 140.094 207.436C140.861 207.436 141.615 207.904 141.966 208.437V211.193C141.615 211.739 140.861 212.207 140.094 212.207ZM150.035 213V208.684C150.035 207.163 148.943 206.565 147.604 206.565C146.577 206.565 145.771 206.903 145.095 207.605L145.55 208.281C146.109 207.67 146.72 207.41 147.474 207.41C148.384 207.41 149.06 207.891 149.06 208.723V209.854C148.553 209.282 147.838 209.009 146.98 209.009C145.914 209.009 144.796 209.659 144.796 211.076C144.796 212.441 145.927 213.156 146.98 213.156C147.825 213.156 148.553 212.857 149.06 212.285V213H150.035ZM147.344 212.454C146.421 212.454 145.784 211.882 145.784 211.076C145.784 210.283 146.421 209.711 147.344 209.711C148.02 209.711 148.683 209.971 149.06 210.478V211.674C148.683 212.194 148.02 212.454 147.344 212.454ZM152.737 205.824C153.101 205.824 153.387 205.538 153.387 205.174C153.387 204.81 153.101 204.511 152.737 204.511C152.373 204.511 152.074 204.81 152.074 205.174C152.074 205.538 152.373 205.824 152.737 205.824ZM153.218 213V206.721H152.243V213H153.218ZM160.617 213V208.593C160.617 207.228 159.928 206.565 158.628 206.565C157.679 206.565 156.821 207.098 156.379 207.631V206.721H155.404V213H156.379V208.411C156.756 207.904 157.471 207.436 158.238 207.436C159.083 207.436 159.655 207.774 159.655 208.892V213H160.617ZM164.819 213.156C166.431 213.156 167.276 212.311 167.276 211.258C167.276 208.814 163.389 209.711 163.389 208.346C163.389 207.787 163.922 207.358 164.78 207.358C165.599 207.358 166.275 207.696 166.652 208.151L167.107 207.475C166.613 206.968 165.859 206.565 164.78 206.565C163.285 206.565 162.453 207.384 162.453 208.372C162.453 210.699 166.34 209.763 166.34 211.284C166.34 211.908 165.807 212.363 164.845 212.363C163.987 212.363 163.194 211.947 162.778 211.466L162.284 212.168C162.921 212.831 163.779 213.156 164.819 213.156ZM169.621 213.13C170.011 213.13 170.336 212.805 170.336 212.415C170.336 212.025 170.011 211.7 169.621 211.7C169.231 211.7 168.906 212.025 168.906 212.415C168.906 212.805 169.231 213.13 169.621 213.13Z" fill="#6A668F"/>
<path d="M221.422 100L225.02 90.662H222.766L220.176 97.83L217.586 90.662H215.332L218.93 100H221.422ZM229.473 100.168C231.979 100.168 233.211 98.88 233.211 97.172C233.211 93.686 227.849 94.68 227.849 93.21C227.849 92.65 228.325 92.286 229.165 92.286C230.117 92.286 231.125 92.608 231.881 93.308L232.987 91.824C232.063 90.97 230.831 90.522 229.347 90.522C227.149 90.522 225.805 91.81 225.805 93.364C225.805 96.878 231.181 95.744 231.181 97.368C231.181 97.914 230.663 98.404 229.557 98.404C228.269 98.404 227.247 97.816 226.589 97.13L225.497 98.684C226.379 99.566 227.667 100.168 229.473 100.168Z" fill="#6A668F"/>
<defs>
<filter id="filter0_d" x="0" y="0" width="445" height="300.835" filterUnits="userSpaceOnUse" color-interpolation-filters="sRGB">
<feFlood flood-opacity="0" result="BackgroundImageFix"/>
<feColorMatrix in="SourceAlpha" type="matrix" values="0 0 0 0 0 0 0 0 0 0 0 0 0 0 0 0 0 0 127 0"/>
<feOffset dy="13"/>
<feGaussianBlur stdDeviation="16"/>
<feColorMatrix type="matrix" values="0 0 0 0 0 0 0 0 0 0 0 0 0 0 0 0 0 0 0.07 0"/>
<feBlend mode="normal" in2="BackgroundImageFix" result="effect1_dropShadow"/>
<feBlend mode="normal" in="SourceGraphic" in2="effect1_dropShadow" result="shape"/>
</filter>
</defs>
</svg>
