<?xml version="1.0" encoding="UTF-8"?>
<svg width="46px" height="41px" viewBox="0 0 46 41" version="1.1" xmlns="http://www.w3.org/2000/svg" xmlns:xlink="http://www.w3.org/1999/xlink">
    <!-- Generator: Sketch 57.1 (83088) - https://sketch.com -->
    <title>rush</title>
    <desc>Created with Sketch.</desc>
    <g id="Page-1" stroke="none" stroke-width="1" fill="none" fill-rule="evenodd">
        <g id="invest-in-your-goals" transform="translate(-560.000000, -4543.000000)" fill="#51BC6D">
            <g id="Pros" transform="translate(160.000000, 4524.000000)">
                <g id="Content---Time" transform="translate(291.000000, 0.000000)">
                    <g id="Content---Security-1">
                        <g id="icon/read-only" transform="translate(96.000000, 0.000000)">
                            <g id="rush" transform="translate(13.200000, 19.300000)">
                                <path d="M38.6385599,10.7653151 L39.7866175,8.85003535 L41.3217444,9.78974856 C41.7456359,10.0491325 42.2970893,9.91280102 42.554405,9.48521598 L44.4174233,6.3841183 C44.6738622,5.95609065 44.5384099,5.39881371 44.1149567,5.13942992 L39.5082606,2.32294618 C39.3053012,2.19679535 39.0602595,2.15917144 38.8288068,2.21759909 C38.598231,2.27514164 38.3992169,2.42253892 38.2756001,2.62747875 L36.4138969,5.72857654 C36.1570196,6.15660408 36.2920336,6.71343841 36.7154866,6.97326482 L38.2514904,7.91342074 L37.1599809,9.7317634 C34.8844685,8.31710346 32.2942157,7.5 29.6259352,7.35481586 L29.6259352,5.49575071 L30.5236908,5.49575071 C32.0110368,5.49575071 33.2169576,4.278063 33.2169576,2.77620397 C33.2169576,1.27434493 32.0110368,0.0566572238 30.5236908,0.0566572238 L26.9326683,0.0566572238 C25.4453223,0.0566572238 24.2394015,1.27434493 24.2394015,2.77620397 C24.2394015,4.278063 25.4453223,5.49575071 26.9326683,5.49575071 L27.8304239,5.49575071 L27.8304239,7.35481586 C20.0206515,7.78771241 13.6368551,13.8022309 12.6694008,21.6395184 C11.7019463,29.4768059 16.4278756,36.8896069 23.8930992,39.2453081 C31.3587613,41.6010092 39.4236577,38.2237075 43.0475568,31.2247699 C46.6710178,24.2258322 44.8145749,15.6112783 38.6385599,10.7653151 Z M42.4163224,6.22344193 L41.4852518,7.77487603 L38.4149976,5.89456442 L39.3451917,4.34357292 L42.4163224,6.22344193 Z M26.0349127,2.77620397 C26.0349127,2.27558425 26.4368863,1.86968839 26.9326683,1.86968839 L30.5236908,1.86968839 C31.0194728,1.86968839 31.4214464,2.27558425 31.4214464,2.77620397 C31.4214464,3.27682368 31.0194728,3.68271955 30.5236908,3.68271955 L26.9326683,3.68271955 C26.4368863,3.68271955 26.0349127,3.27682368 26.0349127,2.77620397 Z M28.7281796,38.1303116 C20.7952288,38.1303116 14.3640898,31.6364199 14.3640898,23.6260623 C14.3640898,15.6157047 20.7952288,9.12181303 28.7281796,9.12181303 C36.6611303,9.12181303 43.0922693,15.6157047 43.0922693,23.6260623 C43.0830639,31.6324363 36.6571852,38.1210163 28.7281796,38.1303116 Z" id="Shape" fill-rule="nonzero"></path>
                                <path d="M28.7281796,10.9348442 C21.7867928,10.9348442 16.159601,16.616944 16.159601,23.6260623 C16.159601,30.6351806 21.7867928,36.3172805 28.7281796,36.3172805 C35.6695663,36.3172805 41.2967581,30.6351806 41.2967581,23.6260623 C41.2893061,16.6200425 35.6664978,10.942369 28.7281796,10.9348442 Z M21.7784639,31.9250177 L22.3803285,31.3177231 C22.6135346,31.090209 22.7069046,30.7533641 22.6249318,30.4364376 C22.542959,30.1190687 22.2974789,29.871636 21.9836152,29.7888633 C21.6697513,29.705648 21.3361615,29.8003718 21.110846,30.0358534 L20.5094198,30.6435907 C19.0619642,28.9204143 18.1852497,26.7838173 18.0007014,24.5325779 L20.6483791,24.5325779 C21.1441611,24.5325779 21.5461347,24.126682 21.5461347,23.6260623 C21.5461347,23.1254426 21.1441611,22.7195467 20.6483791,22.7195467 L18.0007014,22.7195467 C18.1852497,20.4683073 19.0619642,18.3312678 20.5094198,16.6085339 L21.110846,17.2162713 C21.3361615,17.4517529 21.6697513,17.546034 21.9836152,17.4632613 C22.2974789,17.3804886 22.542959,17.1326133 22.6249318,16.815687 C22.7069046,16.4987606 22.6135346,16.1619157 22.3803285,15.9344016 L21.7784639,15.327107 C23.4845504,13.8655276 25.600939,12.9802585 27.8304239,12.7939093 L27.8304239,15.4674221 C27.8304239,15.9680418 28.2323975,16.3739377 28.7281796,16.3739377 C29.2239616,16.3739377 29.6259352,15.9680418 29.6259352,15.4674221 L29.6259352,12.7939093 C31.8554201,12.9802585 33.9718087,13.8655276 35.6778952,15.327107 L35.0760306,15.9344016 C34.8428246,16.1619157 34.7494545,16.4987606 34.8314273,16.815687 C34.9134001,17.1326133 35.1588802,17.3804886 35.4727439,17.4632613 C35.7866078,17.546034 36.1201976,17.4517529 36.3455131,17.2162713 L36.9469393,16.6085339 C38.3943949,18.3312678 39.2711094,20.4683073 39.4556577,22.7195467 L36.80798,22.7195467 C36.312198,22.7195467 35.9102244,23.1254426 35.9102244,23.6260623 C35.9102244,24.126682 36.312198,24.5325779 36.80798,24.5325779 L39.4556577,24.5325779 C39.2711094,26.7838173 38.3943949,28.9204143 36.9469393,30.6435907 L36.3455131,30.0358534 C35.9935124,29.692369 35.4332918,29.697238 35.0869895,30.0469192 C34.7406873,30.3966006 34.7358654,30.9622876 35.0760306,31.3177231 L35.6778952,31.9250177 C33.9718087,33.3865971 31.8554201,34.2718662 29.6259352,34.4582153 L29.6259352,31.7847025 C29.6259352,31.2840828 29.2239616,30.878187 28.7281796,30.878187 C28.2323975,30.878187 27.8304239,31.2840828 27.8304239,31.7847025 L27.8304239,34.4582153 C25.600939,34.2718662 23.4845504,33.3865971 21.7784639,31.9250177 L21.7784639,31.9250177 Z" id="Shape" fill-rule="nonzero"></path>
                                <path d="M9.87531172,23.6260623 C9.87531172,23.1254426 9.47333817,22.7195467 8.97755611,22.7195467 L0.897755611,22.7195467 C0.401973554,22.7195467 0,23.1254426 0,23.6260623 C0,24.126682 0.401973554,24.5325779 0.897755611,24.5325779 L8.97755611,24.5325779 C9.47333817,24.5325779 9.87531172,24.126682 9.87531172,23.6260623 Z" id="Path"></path>
                                <path d="M6.28428928,15.4674221 L11.6708229,15.4674221 C12.166605,15.4674221 12.5685786,15.0615262 12.5685786,14.5609065 C12.5685786,14.0602868 12.166605,13.6543909 11.6708229,13.6543909 L6.28428928,13.6543909 C5.78850722,13.6543909 5.38653367,14.0602868 5.38653367,14.5609065 C5.38653367,15.0615262 5.78850722,15.4674221 6.28428928,15.4674221 Z" id="Path"></path>
                                <path d="M11.6708229,31.7847025 L6.28428928,31.7847025 C5.78850722,31.7847025 5.38653367,32.1905984 5.38653367,32.6912181 C5.38653367,33.1918378 5.78850722,33.5977337 6.28428928,33.5977337 L11.6708229,33.5977337 C12.166605,33.5977337 12.5685786,33.1918378 12.5685786,32.6912181 C12.5685786,32.1905984 12.166605,31.7847025 11.6708229,31.7847025 Z" id="Path"></path>
                                <path d="M3.59102244,20 L9.87531172,20 C10.3710938,20 10.7730673,19.5941041 10.7730673,19.0934844 C10.7730673,18.5928647 10.3710938,18.1869688 9.87531172,18.1869688 L3.59102244,18.1869688 C3.09524039,18.1869688 2.69326683,18.5928647 2.69326683,19.0934844 C2.69326683,19.5941041 3.09524039,20 3.59102244,20 Z" id="Path"></path>
                                <path d="M10.7730673,28.1586402 C10.7730673,27.6580205 10.3710938,27.2521246 9.87531172,27.2521246 L3.59102244,27.2521246 C3.09524039,27.2521246 2.69326683,27.6580205 2.69326683,28.1586402 C2.69326683,28.6592599 3.09524039,29.0651558 3.59102244,29.0651558 L9.87531172,29.0651558 C10.3710938,29.0651558 10.7730673,28.6592599 10.7730673,28.1586402 Z" id="Path"></path>
                                <path d="M29.6259352,23.6260623 L29.6259352,20 C29.6259352,19.4993803 29.2239616,19.0934844 28.7281796,19.0934844 C28.2323975,19.0934844 27.8304239,19.4993803 27.8304239,20 L27.8304239,22.7195467 L26.9326683,22.7195467 C26.4368863,22.7195467 26.0349127,23.1254426 26.0349127,23.6260623 C26.0349127,24.126682 26.4368863,24.5325779 26.9326683,24.5325779 L28.7281796,24.5325779 C29.2239616,24.5325779 29.6259352,24.126682 29.6259352,23.6260623 Z" id="Path"></path>
                            </g>
                        </g>
                    </g>
                </g>
            </g>
        </g>
    </g>
</svg>