<?xml version="1.0" encoding="UTF-8"?>
<svg width="195px" height="203px" viewBox="0 0 195 203" version="1.1" xmlns="http://www.w3.org/2000/svg" xmlns:xlink="http://www.w3.org/1999/xlink">
    <!-- Generator: Sketch 57.1 (83088) - https://sketch.com -->
    <title>fund-card/the-works</title>
    <desc>Created with Sketch.</desc>
    <defs>
        <rect id="path-1" x="0" y="0" width="174.98631" height="182.736" rx="3.888"></rect>
        <filter x="-9.4%" y="-7.4%" width="118.9%" height="118.1%" filterUnits="objectBoundingBox" id="filter-3">
            <feOffset dx="0" dy="3" in="SourceAlpha" result="shadowOffsetOuter1"></feOffset>
            <feGaussianBlur stdDeviation="5" in="shadowOffsetOuter1" result="shadowBlurOuter1"></feGaussianBlur>
            <feColorMatrix values="0 0 0 0 0   0 0 0 0 0   0 0 0 0 0  0 0 0 0.1 0" type="matrix" in="shadowBlurOuter1"></feColorMatrix>
        </filter>
        <linearGradient x1="50%" y1="0%" x2="50%" y2="100%" id="linearGradient-4">
            <stop stop-color="#039775" offset="0%"></stop>
            <stop stop-color="#50B848" offset="100%"></stop>
        </linearGradient>
    </defs>
    <g id="Page-1" stroke="none" stroke-width="1" fill="none" fill-rule="evenodd">
        <g id="invest-in-your-goals" transform="translate(-396.000000, -4259.000000)">
            <g id="Funds" transform="translate(218.000000, 4115.000000)">
                <g transform="translate(0.000000, 151.000000)" id="fund-card/the-works">
                    <g transform="translate(187.991228, 0.000000)">
                        <g>
                            <g id="Header-bg">
                                <mask id="mask-2" fill="white">
                                    <use xlink:href="#path-1"></use>
                                </mask>
                                <g id="Mask" fill-rule="nonzero">
                                    <use fill="black" fill-opacity="1" filter="url(#filter-3)" xlink:href="#path-1"></use>
                                    <use fill="#FFFFFF" xlink:href="#path-1"></use>
                                </g>
                                <rect fill="#FEE4AA" fill-rule="nonzero" mask="url(#mask-2)" x="0" y="0" width="174.98631" height="70.632"></rect>
                                <g id="logo-OM-mark" mask="url(#mask-2)">
                                    <g transform="translate(146.470022, 0.000000)">
                                        <g>
                                            <rect id="Rectangle" fill="url(#linearGradient-4)" fill-rule="nonzero" x="-1.13686838e-13" y="0" width="18.7948259" height="34.992"></rect>
                                            <path d="M6.01308785,27.1330878 C5.89475071,26.9235652 5.96475709,26.6653829 6.17389748,26.5460237 C6.38274496,26.429813 6.64109486,26.5005126 6.76177531,26.7051693 C6.88099119,26.9078223 6.8086415,27.1705843 6.60389482,27.2842189 C6.53447426,27.3237191 6.46241749,27.345759 6.38889615,27.345759 C6.24038889,27.345759 6.09715409,27.2656137 6.01308785,27.1330878 M7.50226119,25.8622127 C7.31948303,25.5333308 6.6185405,25.6409545 6.84613446,26.1098044 C6.56757351,25.9555247 6.21724871,25.9469377 5.9222846,26.1158153 C5.47881323,26.3714214 5.3244477,26.9390217 5.57869681,27.3786758 C5.83997584,27.8229096 6.40940011,27.9680298 6.8534573,27.7184346 C7.14842142,27.549557 7.31831137,27.2421426 7.31948303,26.9275724 C7.61884084,27.3583533 8.06494843,26.8070683 7.8698679,26.4884908 C8.05030275,26.3508127 8.40765748,26.1295545 8.73220588,25.9340572 C8.74890196,25.6950526 8.75973977,25.4514682 8.76530513,25.2070251 C8.37221492,25.4271384 7.78697332,25.7411361 7.50226119,25.8622127 M10.1036279,20.4655733 C10.4896882,20.6367407 10.9038682,20.9132419 11.2925647,21.3008016 C11.6572423,21.6614553 11.9419544,22.0407142 12.1156522,22.3979332 C11.9753466,22.9572327 11.0348006,23.758113 9.98206871,24.4605291 C9.97943249,24.5976347 9.97943249,24.7267259 9.97943249,24.8297698 C9.97943249,24.9651581 9.97943249,25.097684 9.98206871,25.2359346 C11.2313457,24.5976347 12.5854858,24.092147 13.2014834,24.2667493 C13.4270269,24.5976347 13.6194712,25.0295605 13.7524541,25.5210228 C13.891881,26.0494092 13.9323031,26.5408715 13.888366,26.9544783 C14.1370498,27.2753457 14.4094595,27.5220786 14.6640016,27.6838003 C14.8160238,26.896373 14.9062412,26.0637208 14.9062412,25.2035903 C14.9062412,24.1625604 14.7890757,23.1641792 14.5693904,22.2427948 C13.8696196,21.5896108 13.056784,20.9885212 12.1446507,20.471298 C11.3918624,20.0402309 10.6162269,19.7044794 9.85640873,19.44 C9.86607488,19.740831 9.95101986,20.0943289 10.1036279,20.4655733 M12.160468,27.2842189 C11.9522064,27.1705843 11.8807354,26.9078223 12.0020017,26.7051693 C12.116531,26.5005126 12.3819108,26.429813 12.5872433,26.5460237 C12.7975554,26.6653829 12.866683,26.9235652 12.7483459,27.1330878 C12.6666229,27.2656137 12.5239739,27.345759 12.3751738,27.345759 C12.2978446,27.345759 12.2269594,27.3237191 12.160468,27.2842189 M10.015168,25.9254702 C10.3482109,26.1232573 10.7058585,26.3502402 10.8939091,26.4884908 C10.6982427,26.8070683 11.1434716,27.3583533 11.4396074,26.9275724 C11.4463444,27.2421426 11.6109619,27.549557 11.9047543,27.7184346 C12.0186978,27.7796884 12.1426003,27.8229096 12.2612303,27.833214 L12.4817944,27.833214 C12.7618199,27.7991523 13.0257351,27.6411516 13.1815652,27.3786758 C13.4422584,26.9390217 13.2870142,26.3754287 12.8403208,26.1158153 C12.5424275,25.9469377 12.1964964,25.9555247 11.9199859,26.1098044 C12.1446507,25.6409545 11.4434152,25.5333308 11.2618087,25.8622127 C10.9697738,25.7371288 10.3769164,25.4259934 9.98206871,25.2035903 C9.9882199,25.4440261 10.0005223,25.6853206 10.015168,25.9254702 M6.6185405,20.471298 C5.70845758,20.9885212 4.89357162,21.5896108 4.19643698,22.2427948 C4.04412185,22.8793773 3.9407233,23.5583223 3.88858466,24.2575898 L3.88858466,26.1140979 C3.92754219,26.6550785 3.99989187,27.1780264 4.09801797,27.6838003 C4.36076157,27.5220786 4.6261414,27.2753457 4.87277475,26.9544783 C4.82854478,26.5408715 4.87013853,26.0494092 5.01132294,25.5210228 C5.14371994,25.0295605 5.33059889,24.5976347 5.5593645,24.2667493 C6.17389748,24.092147 7.52159349,24.5976347 8.76530513,25.2279201 C8.76530513,25.0908144 8.77057758,24.9651581 8.77057758,24.8297698 C8.77057758,24.7221462 8.77057758,24.593055 8.76530513,24.4525146 C7.71725985,23.7535333 6.78872337,22.9572327 6.65017518,22.3979332 C6.82533759,22.0407142 7.10858515,21.658593 7.47209107,21.3008016 C7.8613734,20.9132419 8.27233135,20.6367407 8.65839163,20.4655733 C8.81070676,20.0943289 8.89770213,19.740831 8.90795411,19.44 C8.14257057,19.7044794 7.37103584,20.0402309 6.6185405,20.471298 M8.94544707,21.7802421 C8.94544707,21.5429548 9.1340835,21.3514648 9.37280818,21.3514648 C9.61329034,21.3514648 9.80368426,21.5429548 9.80368426,21.7802421 C9.80368426,22.0163844 9.61329034,22.2073019 9.37280818,22.2073019 C9.1361339,22.2073019 8.94544707,22.0163844 8.94544707,21.7802421 M8.44602918,21.7802421 C8.44602918,22.1197146 8.62529238,22.4093825 8.89770213,22.5731078 C8.37514406,22.6134667 8.62734277,23.2689406 9.01076683,23.2626434 C9.04738104,23.6066957 9.067885,24.3964129 9.067885,24.8297698 C9.067885,26.4435522 8.84439184,28.4105463 8.28756286,28.9446573 C7.8848065,28.9778603 7.41057919,28.9214724 6.91409044,28.7918088 C6.38274496,28.6501234 5.92784996,28.4363072 5.59334249,28.1938678 C5.18794991,28.245676 4.83645345,28.3498648 4.56316495,28.4898328 C5.17886958,29.0142119 5.86018689,29.5085365 6.61502554,29.9367413 C7.4940596,30.4402254 8.40121338,30.832651 9.29108525,31.104 L9.45599568,31.104 C10.3502613,30.832651 11.2518497,30.4402254 12.1343987,29.9367413 C12.8892373,29.5085365 13.5711405,29.0142119 14.180401,28.4898328 C13.9135566,28.3532996 13.5620602,28.245676 13.1581321,28.1938678 C12.8154231,28.4363072 12.3681438,28.6501234 11.8324047,28.7918088 C11.3379663,28.9214724 10.8605169,28.9778603 10.463033,28.9446573 C9.90356783,28.4105463 9.6786101,26.4435522 9.6786101,24.8297698 C9.6786101,24.3964129 9.69794241,23.6066957 9.73924324,23.2626434 C10.1159303,23.2689406 10.3742802,22.6134667 9.84908588,22.5731078 C10.1241319,22.4093825 10.3089604,22.1197146 10.3089604,21.7802421 C10.3089604,21.2698884 9.89038672,20.8554228 9.37280818,20.8554228 C8.85815878,20.8554228 8.44602918,21.2698884 8.44602918,21.7802421" id="Fill-14" fill="#FFFFFF"></path>
                                        </g>
                                    </g>
                                </g>
                                <g id="icon/fund/the-works" mask="url(#mask-2)">
                                    <g transform="translate(8.425267, 8.424000)">
                                        <g>
                                            <path d="M12.959791,0 C5.80245486,0 0,5.80203693 0,12.960209 C0,20.1175451 5.80245486,25.92 12.959791,25.92 C20.1175451,25.92 25.92,20.1175451 25.92,12.960209 C25.92,5.80203693 20.1175451,0 12.959791,0 Z" id="Shape" fill="#FFCD5E" fill-rule="nonzero"></path>
                                            <g id="business" transform="translate(4.536000, 5.184000)" fill-rule="nonzero">
                                                <path d="M14.0070993,12.9085376 C12.0384153,12.9085376 10.4366623,11.5532478 10.4366623,9.88739857 C10.4366623,9.73558633 10.559499,9.61274956 10.7113113,9.61274956 L17.3028874,9.61274956 C17.4546997,9.61274956 17.5775364,9.73558633 17.5775364,9.88739857 C17.5775364,11.5532478 15.9757834,12.9085376 14.0070993,12.9085376 Z M11.0044647,10.1620476 C11.1721036,11.3963545 12.4546802,12.3592396 14.0070993,12.3592396 C15.5595185,12.3592396 16.842095,11.3963545 17.0097339,10.1620476 L11.0044647,10.1620476 Z" id="Shape" fill="#646464"></path>
                                                <path d="M0.274408689,10.1620476 C0.234172609,10.1620476 0.193421563,10.1531901 0.154799046,10.134411 C0.0182641589,10.0681519 -0.0385881854,9.90387751 0.0276708874,9.76737695 L3.09628991,3.4504498 C3.16227433,3.31418956 3.32696074,3.25733722 3.46322098,3.32345897 C3.59975587,3.38971804 3.65660821,3.55399248 3.59034914,3.69049303 L0.521730119,10.0074202 C0.474215841,10.1051609 0.376337801,10.1620476 0.274408689,10.1620476 Z" id="Shape" fill="#26B1C9"></path>
                                                <path d="M6.86653415,10.1620476 C6.76460503,10.1620476 6.66672699,10.1051952 6.61924705,10.0074202 L3.55062803,3.69049303 C3.48436895,3.55395815 3.54125563,3.38968371 3.67775619,3.32345897 C3.81429107,3.25747454 3.97870283,3.31418956 4.04468726,3.4504498 L7.11330628,9.76737695 C7.17956535,9.90391184 7.12267868,10.0681863 6.98617812,10.134411 C6.94752127,10.1531901 6.90673589,10.1620476 6.86653415,10.1620476 Z" id="Shape" fill="#26B1C9"></path>
                                                <path d="M10.7110709,10.1620476 C10.6708349,10.1620476 10.6300838,10.1531901 10.5914613,10.134411 C10.4549264,10.0681519 10.3980741,9.90387751 10.4643331,9.76737695 L13.5329522,3.4504498 C13.5992112,3.31418956 13.7633483,3.25733722 13.8998832,3.32345897 C14.0364181,3.38971804 14.0932705,3.55399248 14.0270114,3.69049303 L10.9583924,10.0074202 C10.9108781,10.1051609 10.8130001,10.1620476 10.7110709,10.1620476 Z" id="Shape" fill="#26B1C9"></path>
                                                <path d="M17.3031964,10.1620476 C17.2012673,10.1620476 17.1033892,10.1051952 17.0559093,10.0074202 L13.9872903,3.69049303 C13.9210312,3.55395815 13.9779179,3.38968371 14.1144184,3.32345897 C14.2511936,3.25747454 14.4150904,3.31418956 14.4813495,3.4504498 L17.5499685,9.76737695 C17.6162276,9.90391184 17.5593409,10.0681863 17.4228404,10.134411 C17.3841835,10.1531901 17.3433981,10.1620476 17.3031964,10.1620476 Z" id="Shape" fill="#26B1C9"></path>
                                                <path d="M3.02089875,3.14909118 C2.97853415,3.14909118 2.93534559,3.13930681 2.89510951,3.11850215 C2.66900472,3.00170766 2.46246866,2.85082236 2.28144064,2.66993166 L1.7283662,2.11675423 C1.62108143,2.00946946 1.62108143,1.83565097 1.7283662,1.7283662 C1.83565097,1.62108143 2.00946946,1.62108143 2.11675423,1.7283662 L2.66979433,2.2814063 C2.81062061,2.42223258 2.97125595,2.53957637 3.14720297,2.63034787 C3.28184964,2.69993706 3.33468525,2.86558474 3.26523338,3.00033441 C3.21641452,3.09491666 3.12039036,3.14909118 3.02089875,3.14909118 Z" id="Shape" fill="#26B1C9"></path>
                                                <path d="M4.11949478,3.39194956 C3.9730382,3.39194956 3.8512657,3.27621934 3.84539507,3.12856117 C3.83921547,2.97702358 3.95697123,2.84907147 4.10850882,2.8429262 C4.36733118,2.83231788 4.61757075,2.77052185 4.85198368,2.65932334 L7.84737441,1.24062389 C7.98414962,1.17556641 8.14804641,1.23416964 8.21293224,1.37125383 C8.27809272,1.50830368 8.21938649,1.67220048 8.0823023,1.7370863 L5.08718623,3.15578575 C4.78572461,3.29874056 4.4638703,3.37814845 4.13099571,3.39167491 C4.12725362,3.39184657 4.12323687,3.39194956 4.11949478,3.39194956 Z" id="Shape" fill="#26B1C9"></path>
                                                <path d="M14.5567063,3.14909118 C14.4572147,3.14909118 14.3611906,3.09491666 14.3123717,3.00036874 C14.2429198,2.86558474 14.2957554,2.69997139 14.4304021,2.6303822 C14.6063491,2.53957637 14.7670188,2.42223258 14.9078108,2.28130331 L15.4608509,1.72840053 C15.5681356,1.62111576 15.7419541,1.62111576 15.8492389,1.72840053 C15.9565237,1.8356853 15.9565237,2.00950379 15.8492389,2.11678856 L15.2961988,2.66982866 C15.1151708,2.85085669 14.9086347,3.00174199 14.6825299,3.11853648 C14.6422595,3.13930681 14.5990709,3.14909118 14.5567063,3.14909118 Z" id="Shape" fill="#26B1C9"></path>
                                                <path d="M13.4581103,3.39194956 C13.4543682,3.39194956 13.4503171,3.39181224 13.446575,3.39167491 C13.1137348,3.37811412 12.7918805,3.29874056 12.4901442,3.15578575 L9.49530278,1.7370863 C9.35825293,1.67216615 9.29951237,1.50830368 9.36467285,1.37125383 C9.42983332,1.23420397 9.59400477,1.17587539 9.73023068,1.24062389 L12.7253468,2.65932334 C12.9600343,2.77048752 13.2102739,2.83231788 13.4690963,2.8429262 C13.6206339,2.8491058 13.7383896,2.97702358 13.73221,3.12856117 C13.7263051,3.27621934 13.6045326,3.39194956 13.4581103,3.39194956 Z" id="Shape" fill="#26B1C9"></path>
                                                <polyline id="Shape" fill="#26B1C9" points="8.23950453 14.2817827 8.23950453 1.75662072 9.33810056 1.75662072 9.33810056 14.2817827"></polyline>
                                                <path d="M8.78880254,14.0071337 C7.57729144,14.0071337 6.59161049,14.9928146 6.59161049,16.2043257 C6.59161049,16.3560006 6.71444726,16.4789747 6.8662595,16.4789747 C7.01807174,16.4789747 7.1409085,16.3560006 7.1409085,16.2043257 L10.4366966,16.2043257 C10.4366966,16.3560006 10.5595334,16.4789747 10.7113456,16.4789747 C10.8631578,16.4789747 10.9859946,16.3560006 10.9859946,16.2043257 C10.9859946,14.9928146 10.0003136,14.0071337 8.78880254,14.0071337 Z" id="Shape" fill="#2A9AAD"></path>
                                                <path d="M12.0845906,16.4789747 L5.49301446,16.4789747 C5.34120223,16.4789747 5.21836546,16.3560006 5.21836546,16.2043257 C5.21836546,16.0526508 5.34120223,15.9296767 5.49301446,15.9296767 L12.0845906,15.9296767 C12.2364029,15.9296767 12.3592396,16.0526508 12.3592396,16.2043257 C12.3592396,16.3560006 12.2364029,16.4789747 12.0845906,16.4789747 Z" id="Shape" fill="#26B1C9"></path>
                                                <g id="Group" transform="translate(0.000000, 9.612715)">
                                                    <path d="M6.8662595,3.43311258e-05 L0.274683338,3.43311258e-05 C0.122871099,3.43311258e-05 3.43311258e-05,0.123008424 3.43311258e-05,0.274683338 C3.43311258e-05,1.94053256 1.60178734,3.29582241 3.57047142,3.29582241 C5.5391555,3.29582241 7.1409085,1.94053256 7.1409085,0.274683338 C7.1409085,0.123008424 7.01807174,3.43311258e-05 6.8662595,3.43311258e-05 Z" id="Shape" fill="#4A4A4A"></path>
                                                    <path d="M0.274683338,3.43311258e-05 C0.122871099,3.43311258e-05 3.43311258e-05,0.123008424 3.43311258e-05,0.274683338 C3.43311258e-05,1.94053256 1.60178734,3.29582241 3.57047142,3.29582241 L3.57047142,3.43311258e-05 L0.274683338,3.43311258e-05 Z" id="Shape" fill="#908F8F"></path>
                                                </g>
                                                <g id="Group" transform="translate(10.436662, 9.612715)">
                                                    <path d="M6.8662595,3.43311258e-05 L0.274683338,3.43311258e-05 C0.122871099,3.43311258e-05 3.43311258e-05,0.123008424 3.43311258e-05,0.274683338 C3.43311258e-05,1.94053256 1.60178734,3.29582241 3.57047142,3.29582241 C5.5391555,3.29582241 7.1409085,1.94053256 7.1409085,0.274683338 C7.1409085,0.123008424 7.01807174,3.43311258e-05 6.8662595,3.43311258e-05 Z" id="Shape" fill="#4A4A4A"></path>
                                                    <path d="M0.274683338,3.43311258e-05 C0.122871099,3.43311258e-05 3.43311258e-05,0.123008424 3.43311258e-05,0.274683338 C3.43311258e-05,1.94053256 1.60178734,3.29582241 3.57047142,3.29582241 L3.57047142,3.43311258e-05 L0.274683338,3.43311258e-05 Z" id="Shape" fill="#908F8F"></path>
                                                </g>
                                                <circle id="Oval" fill="#8A8895" cx="3.57047142" cy="3.0211734" r="1"></circle>
                                                <circle id="Oval" fill="#8A8895" cx="14.0071337" cy="3.0211734" r="1"></circle>
                                                <circle id="Oval" fill="#8A8895" cx="8.78880254" cy="1.09863036" r="1.09859603"></circle>
                                                <circle id="Oval" fill="#5C546A" cx="8.78880254" cy="1.09863036" r="1"></circle>
                                            </g>
                                        </g>
                                    </g>
                                </g>
                                <g id="Time" mask="url(#mask-2)">
                                    <g transform="translate(68.698329, 46.656000)">
                                        <rect id="Rectangle-2" fill="#5C5C5C" fill-rule="nonzero" x="0" y="0" width="88.7893498" height="12.96" rx="6.48"></rect>
                                        <text id="Best-for-3+-year-goa" fill="none" font-family="ProximaNova-Regular, Proxima Nova" font-size="7.776" font-weight="normal">
                                            <tspan x="7.43923489" y="8.648" fill="#FFFFFF">Best for 3+ year goals</tspan>
                                        </text>
                                    </g>
                                </g>
                                <g id="Risk" mask="url(#mask-2)">
                                    <g transform="translate(17.498631, 46.656000)">
                                        <rect id="Rectangle-2" fill="#FFCD5E" fill-rule="nonzero" x="0" y="0" width="44.7187236" height="12.96" rx="6.48"></rect>
                                        <text id="Med-Risk" fill="none" font-family="ProximaNova-Regular, Proxima Nova" font-size="7.776" font-weight="normal">
                                            <tspan x="6.7334898" y="8.648" fill="#FFFFFF">Med Risk</tspan>
                                        </text>
                                    </g>
                                </g>
                                <text id="Fund-actual" mask="url(#mask-2)" font-family="ProximaNova-Regular, Proxima Nova" font-size="7.128" font-weight="normal" fill="#333333">
                                    <tspan x="40.8301389" y="28.384">Old Mutual Core Balanced </tspan>
                                    <tspan x="40.8301389" y="36.384">Fund</tspan>
                                </text>
                                <text id="Fund-name" mask="url(#mask-2)" font-family="ProximaNova-Bold, Proxima Nova" font-size="9.72" font-weight="bold" fill="#333333">
                                    <tspan x="40.8301389" y="19.72">The Works</tspan>
                                </text>
                            </g>
                            <g id="Btn---Fund-Fact-Sheet" transform="translate(7.129072, 153.576000)">
                                <path d="M1.944,0 L158.784166,0 C159.857808,2.48198511e-17 160.728166,0.870358446 160.728166,1.944 L160.728166,17.496 C160.728166,18.5696416 159.857808,19.44 158.784166,19.44 L1.944,19.44 C0.870358446,19.44 2.57397382e-15,18.5696416 0,17.496 L0,1.944 C9.05614357e-17,0.870358446 0.870358446,4.19269359e-16 1.944,0 Z" id="Path-Copy" stroke="#FFCD5E" stroke-width="0.648" fill-rule="nonzero"></path>
                                <text id="Fund-Fact-Sheet" font-family="ProximaNova-Semibold, Proxima Nova" font-size="8.424" font-weight="500" fill="#FFCD5E">
                                    <tspan x="49.586999" y="12.888">Fund Fact Sheet</tspan>
                                </text>
                            </g>
                            <g id="Fund-details" transform="translate(12.961949, 82.944000)">
                                <text id="Low-fees" font-family="ProximaNova-Regular, Proxima Nova" font-size="7.776" font-weight="normal" fill="#32B1C9">
                                    <tspan x="11.0176565" y="39.4">Low fees</tspan>
                                </text>
                                <text id="Access-money-in-3-10" font-family="ProximaNova-Regular, Proxima Nova" font-size="7.776" font-weight="normal" fill="#333333">
                                    <tspan x="11.0176565" y="56.6">Access money in 3-10 working days</tspan>
                                </text>
                                <g id="list-bullet/dark" transform="translate(0.000000, 1.944000)" fill="#5C5C5C" fill-rule="nonzero">
                                    <path d="M2.268,4.536 C1.01541819,4.536 0,3.52058181 0,2.268 C0,1.01541819 1.01541819,0 2.268,0 C3.52058181,0 4.536,1.01541819 4.536,2.268 C4.536,3.52058181 3.52058181,4.536 2.268,4.536 Z M2.268,3.24 C2.80482078,3.24 3.24,2.80482078 3.24,2.268 C3.24,1.73117922 2.80482078,1.296 2.268,1.296 C1.73117922,1.296 1.296,1.73117922 1.296,2.268 C1.296,2.80482078 1.73117922,3.24 2.268,3.24 Z"></path>
                                </g>
                                <g id="list-bullet/dark" transform="translate(0.000000, 18.144000)" fill="#5C5C5C" fill-rule="nonzero">
                                    <path d="M2.268,4.536 C1.01541819,4.536 0,3.52058181 0,2.268 C0,1.01541819 1.01541819,0 2.268,0 C3.52058181,0 4.536,1.01541819 4.536,2.268 C4.536,3.52058181 3.52058181,4.536 2.268,4.536 Z M2.268,3.24 C2.80482078,3.24 3.24,2.80482078 3.24,2.268 C3.24,1.73117922 2.80482078,1.296 2.268,1.296 C1.73117922,1.296 1.296,1.73117922 1.296,2.268 C1.296,2.80482078 1.73117922,3.24 2.268,3.24 Z"></path>
                                </g>
                                <g id="list-bullet/dark" transform="translate(0.000000, 34.344000)" fill="#5C5C5C" fill-rule="nonzero">
                                    <path d="M2.268,4.536 C1.01541819,4.536 0,3.52058181 0,2.268 C0,1.01541819 1.01541819,0 2.268,0 C3.52058181,0 4.536,1.01541819 4.536,2.268 C4.536,3.52058181 3.52058181,4.536 2.268,4.536 Z M2.268,3.24 C2.80482078,3.24 3.24,2.80482078 3.24,2.268 C3.24,1.73117922 2.80482078,1.296 2.268,1.296 C1.73117922,1.296 1.296,1.73117922 1.296,2.268 C1.296,2.80482078 1.73117922,3.24 2.268,3.24 Z"></path>
                                </g>
                                <g id="list-bullet/dark" transform="translate(0.000000, 50.544000)" fill="#5C5C5C" fill-rule="nonzero">
                                    <path d="M2.268,4.536 C1.01541819,4.536 0,3.52058181 0,2.268 C0,1.01541819 1.01541819,0 2.268,0 C3.52058181,0 4.536,1.01541819 4.536,2.268 C4.536,3.52058181 3.52058181,4.536 2.268,4.536 Z M2.268,3.24 C2.80482078,3.24 3.24,2.80482078 3.24,2.268 C3.24,1.73117922 2.80482078,1.296 2.268,1.296 C1.73117922,1.296 1.296,1.73117922 1.296,2.268 C1.296,2.80482078 1.73117922,3.24 2.268,3.24 Z"></path>
                                </g>
                                <text id="Local/-global-shares" font-family="ProximaNova-Regular, Proxima Nova" font-size="7.776" font-weight="normal" fill="#333333">
                                    <tspan x="11.0176565" y="8">Local/ global shares, loans and other</tspan>
                                </text>
                                <text id="Some-ups-and-downs" font-family="ProximaNova-Regular, Proxima Nova" font-size="7.776" font-weight="normal" fill="#333333">
                                    <tspan x="11.0176565" y="24.2">Some ups and downs</tspan>
                                </text>
                            </g>
                        </g>
                    </g>
                </g>
            </g>
        </g>
    </g>
</svg>