<?xml version="1.0" encoding="UTF-8"?>
<svg width="48px" height="47px" viewBox="0 0 48 47" version="1.1" xmlns="http://www.w3.org/2000/svg" xmlns:xlink="http://www.w3.org/1999/xlink">
    <!-- Generator: Sketch 57.1 (83088) - https://sketch.com -->
    <title>Group 6</title>
    <desc>Created with Sketch.</desc>
    <g id="Page-1" stroke="none" stroke-width="1" fill="none" fill-rule="evenodd">
        <g id="invest-in-your-goals" transform="translate(-274.000000, -4542.000000)">
            <g id="Pros" transform="translate(160.000000, 4524.000000)">
                <g id="Content---Fees">
                    <g id="Content---Security-1">
                        <g id="icon/read-only" transform="translate(96.000000, 0.000000)">
                            <g id="Group-6" transform="translate(19.000000, 19.000000)">
                                <ellipse id="Oval" stroke="#F1692E" stroke-width="1.8" fill-rule="nonzero" cx="22.85" cy="22.5" rx="22.85" ry="22.5"></ellipse>
                                <path d="M32.4729153,15.8446159 L36.8236665,15.8446159 C37.3207228,15.8446159 37.7236665,15.4416722 37.7236665,14.9446159 L37.7236665,11.6253756 C37.7236665,10.1754207 36.5482459,9 35.0982909,9 C33.648336,9 32.4729153,10.1754207 32.4729153,11.6253756 L32.4729153,33.5246416 C32.4729153,34.9199657 31.3417817,36.0510993 29.9464577,36.0510993 L29.1570767,36.0510993 C28.1977157,36.0510993 27.42,35.2733835 27.42,34.3140226 L27.42,33.4769459 C27.42,32.9798896 27.0170563,32.5769459 26.52,32.5769459 L10.6770445,32.5769459 C10.1799882,32.5769459 9.77704445,32.9798896 9.77704445,33.4769459 L9.77704445,34.3140226 C9.77704445,35.2733835 10.5547602,36.0510993 11.5141212,36.0510993 L30.0757389,36.0510993 L30.0757389,36.0510993" id="Path-18" stroke="#F1692E" stroke-width="1.8" fill-rule="nonzero"></path>
                                <path d="M35.1204855,9 L16.1341463,9 C14.6429775,9 13.4341463,10.2088312 13.4341463,11.7 L13.4341463,32.4 L13.4341463,32.4" id="Path-19" stroke="#F1692E" stroke-width="1.8" fill-rule="nonzero"></path>
                                <path d="M17.366,22.05 L29.1515167,22.05" id="Path-20" stroke="#F1692E" stroke-width="1.8" stroke-linecap="round" fill-rule="nonzero"></path>
                                <path d="M17.366,24.75 L29.1515167,24.75" id="Path-20-Copy" stroke="#F1692E" stroke-width="1.8" stroke-linecap="round" fill-rule="nonzero"></path>
                                <path d="M17.366,27.45 L24.2773159,27.45" id="Path-20-Copy-2" stroke="#F1692E" stroke-width="1.8" stroke-linecap="round" fill-rule="nonzero"></path>
                                <path d="M6.398,6.3 L38.7243481,38.1311961" id="Path-21" stroke="#F1692E" stroke-width="1.8" fill-rule="nonzero"></path>
                                <path d="M8.36907945,6.3 L38.8094672,36.3136104" id="Path-21-Copy" stroke="#FFFFFF" stroke-width="1.35" fill-rule="nonzero"></path>
                                <path d="M24.1824,16.1976 C24.2976,16.2336 24.3912,16.32 24.4344,16.4424 C24.5064,16.6512 24.3912,16.8744 24.1824,16.9464 C24.1536,16.9536 24.096,16.968 24.024,16.968 L24.0168,16.968 C23.9448,16.968 23.8368,16.9536 23.736,16.8888 C23.6424,16.8312 23.5632,16.7376 23.5056,16.6368 C23.4048,16.428 23.3544,16.1688 23.3544,15.7728 C23.3472,15.636 23.3184,15.5424 23.268,15.4632 C23.2248,15.384 23.1384,15.312 23.052,15.2544 C22.9008,15.1536 22.7136,15.096 22.6488,15.0816 L21.7992,15.0816 L21.7992,16.644 C21.7992,16.86 21.6192,17.04 21.396,17.04 C21.1728,17.04 21,16.86 21,16.644 L21,12.396 C21,12.1728 21.1728,12 21.396,12 L22.6848,12 C23.5416,12 24.2256,12.6912 24.2256,13.548 C24.2256,14.0232 24.0096,14.4408 23.664,14.7288 C23.7576,14.8008 23.844,14.8872 23.916,14.9952 C24.06,15.204 24.1536,15.4704 24.1536,15.7728 C24.1464,15.9888 24.168,16.1256 24.1824,16.1976 Z M22.6848,14.2824 C23.0952,14.2824 23.4264,13.9512 23.4264,13.548 C23.4264,13.1304 23.0952,12.7992 22.6848,12.7992 L21.7992,12.7992 L21.7992,14.2824 L22.6848,14.2824 Z" id="R" stroke="#F1692E" stroke-width="0.5" fill="#F1692E"></path>
                            </g>
                        </g>
                    </g>
                </g>
            </g>
        </g>
    </g>
</svg>