<?xml version="1.0" encoding="UTF-8"?>
<svg width="445px" height="300px" viewBox="0 0 445 300" version="1.1" xmlns="http://www.w3.org/2000/svg" xmlns:xlink="http://www.w3.org/1999/xlink">
    <!-- Generator: Sketch 57.1 (83088) - https://sketch.com -->
    <title>Tax options</title>
    <desc>Created with Sketch.</desc>
    <defs>
        <rect id="path-1" x="0" y="2.7000624e-13" width="381" height="236.8348" rx="10"></rect>
        <filter x="-14.3%" y="-17.5%" width="128.6%" height="146.0%" filterUnits="objectBoundingBox" id="filter-2">
            <feOffset dx="0" dy="13" in="SourceAlpha" result="shadowOffsetOuter1"></feOffset>
            <feGaussianBlur stdDeviation="16" in="shadowOffsetOuter1" result="shadowBlurOuter1"></feGaussianBlur>
            <feColorMatrix values="0 0 0 0 0   0 0 0 0 0   0 0 0 0 0  0 0 0 0.07 0" type="matrix" in="shadowBlurOuter1"></feColorMatrix>
        </filter>
    </defs>
    <g id="Page-1" stroke="none" stroke-width="1" fill="none" fill-rule="evenodd">
        <g id="invest-in-your-goals" transform="translate(-366.000000, -4846.000000)">
            <g id="Tax-vs-Tax-Free" transform="translate(279.000000, 4865.000000)">
                <g id="Tax-options" transform="translate(119.000000, 0.000000)">
                    <g id="background" fill-rule="nonzero">
                        <use fill="black" fill-opacity="1" filter="url(#filter-2)" xlink:href="#path-1"></use>
                        <use fill="#FFFFFF" xlink:href="#path-1"></use>
                    </g>
                    <g id="Tax-free" transform="translate(224.000000, 25.000000)">
                        <g id="illustration/goals/taxfree" transform="translate(23.000000, 0.000000)">
                            <g id="cookies" fill-rule="nonzero">
                                <path d="M39.9116327,0 L36.0883673,0 C34.5086531,0 33.2280918,1.29023437 33.2280918,2.88144531 L33.2280918,10.3402344 L42.7719082,10.3402344 L42.7719082,2.88144531 C42.772102,1.29023437 41.4913469,0 39.9116327,0 Z" id="Shape" fill="#9A9B9D"></path>
                                <path d="M58.5318265,6.06914062 L17.4683673,6.06914062 C15.0842551,6.06914062 13.1514898,8.01621094 13.1514898,10.4179687 L13.1514898,13.3162109 L38.0001939,17.3796875 L62.848898,13.3162109 L62.848898,10.4181641 C62.848898,8.01621094 60.9159388,6.06914062 58.5318265,6.06914062 Z" id="Shape" fill="#B3B5B7"></path>
                                <path d="M21.140602,13.3162109 L21.140602,10.4181641 C21.140602,8.01640625 23.0733673,6.06933594 25.4574796,6.06933594 L17.4683673,6.06933594 C15.0842551,6.06933594 13.1514898,8.01640625 13.1514898,10.4181641 L13.1514898,13.3164062 L38.0001939,17.3798828 L41.9948469,16.7265625 L21.140602,13.3162109 Z" id="Shape" fill="#9A9B9D"></path>
                                <path d="M62.8487041,13.3162109 L13.1514898,13.3162109 C11.0442347,13.3162109 9.33578571,15.0371094 9.33578571,17.1601562 L9.33578571,21.4427734 L38,26.5402344 L66.6642143,21.4427734 L66.6642143,17.1601562 C66.6642143,15.0373047 64.9561531,13.3162109 62.8487041,13.3162109 Z" id="Shape" fill="#E3E6E8"></path>
                                <path d="M17.324898,21.4427734 L17.324898,17.1601562 C17.324898,15.0373047 19.0331531,13.3162109 21.140602,13.3162109 L13.1514898,13.3162109 C11.0442347,13.3162109 9.33578571,15.0371094 9.33578571,17.1601562 L9.33578571,21.4427734 L38,26.5402344 L41.9946531,25.8298828 L17.324898,21.4427734 Z" id="Shape" fill="#B3B5B7"></path>
                                <path d="M66.6644082,21.4427734 L66.6644082,21.4427734 L9.33578571,21.4427734 L9.33578571,21.4427734 C3.49347959,25.9992188 0.0736734694,33.0232422 0.0736734694,40.4664063 L0.0736734694,89.2474609 C0.0736734694,95.1859375 4.85236735,100 10.7472143,100 L65.2525918,100 C71.1474388,100 75.9261327,95.1859375 75.9261327,89.2474609 L75.9261327,40.4666016 C75.9261327,33.0232422 72.5067143,25.9994141 66.6644082,21.4427734 Z" id="Shape" fill="#FFD57A"></path>
                                <path d="M8.06297959,89.2474609 L8.06297959,40.4666016 C8.06297959,33.0236328 11.4827857,25.9994141 17.3250918,21.4429687 L17.3250918,21.4429687 L9.33597959,21.4429687 L9.33597959,21.4429687 C3.49367347,25.9994141 0.0738673469,33.0234375 0.0738673469,40.4666016 L0.0738673469,89.2474609 C0.0738673469,95.1859375 4.85256122,100 10.7474082,100 L18.7365204,100 C12.8416735,100 8.06297959,95.1859375 8.06297959,89.2474609 Z" id="Shape" fill="#ECC369"></path>
                                <g id="Group" transform="translate(20.744898, 32.226562)" fill="#3B484A">
                                    <path d="M1.51903061,5.90996094 C0.691755102,5.90996094 0.0211326531,5.234375 0.0211326531,4.40097656 L0.0211326531,1.53203125 C0.0211326531,0.698632812 0.691755102,0.023046875 1.51903061,0.023046875 C2.34630612,0.023046875 3.01692857,0.698632812 3.01692857,1.53203125 L3.01692857,4.40097656 C3.01692857,5.234375 2.34630612,5.90996094 1.51903061,5.90996094 Z" id="Shape"></path>
                                    <path d="M32.9913673,5.90996094 C32.1640918,5.90996094 31.4934694,5.234375 31.4934694,4.40097656 L31.4934694,1.53203125 C31.4934694,0.698632812 32.1640918,0.023046875 32.9913673,0.023046875 C33.8186429,0.023046875 34.4892653,0.698632812 34.4892653,1.53203125 L34.4892653,4.40097656 C34.4894592,5.234375 33.8186429,5.90996094 32.9913673,5.90996094 Z" id="Shape"></path>
                                    <path d="M17.2552959,8.03046875 C14.9632755,8.03046875 12.8127857,7.0671875 11.3552143,5.38769531 C10.8108061,4.76015625 10.8742041,3.80683594 11.4971327,3.25839844 C12.1200612,2.70996094 13.0663776,2.77402344 13.6107857,3.40136719 C14.4991327,4.42519531 15.8273878,5.0125 17.255102,5.0125 C18.6826224,5.0125 20.0106837,4.42539063 20.8992245,3.40136719 C21.4438265,2.77402344 22.3901429,2.70976563 23.0128776,3.25839844 C23.6358061,3.80683594 23.699398,4.76015625 23.1547959,5.38769531 C21.6978061,7.0671875 19.5473163,8.03046875 17.2552959,8.03046875 Z" id="Shape"></path>
                                </g>
                                <path d="M64.6178367,54.7740234 C64.1827755,54.184375 63.8169286,53.5460938 63.5274694,52.8716797 C62.3436531,50.1130859 59.9372449,48.0791016 57.0350918,47.3835938 C56.3256939,47.2136719 55.6380102,46.9615234 54.986,46.6322266 C52.3190204,45.2857422 49.1776224,45.2857422 46.5106429,46.6322266 C45.8586327,46.9613281 45.1711429,47.2134766 44.461551,47.3835938 C41.5592041,48.0789063 39.1529898,50.1130859 37.9691735,52.8716797 C37.6797143,53.5458984 37.3138673,54.184375 36.8788061,54.7740234 C35.099398,57.1861328 34.5538265,60.3025391 35.4070816,63.1822266 C35.6156939,63.8863281 35.7426837,64.6123047 35.7857245,65.3457031 C35.9617653,68.3457031 37.5323673,71.0863281 40.0233061,72.7398437 L40.0233061,72.7398437 C40.6322755,73.1441406 41.1927755,73.6179687 41.6935612,74.1519531 C43.7426531,76.3363281 46.6944388,77.4185547 49.6576633,77.0720703 L49.6576633,77.0720703 C50.3819898,76.9873047 51.1136837,76.9873047 51.8380102,77.0720703 L51.8380102,77.0720703 C54.8014286,77.4185547 57.7532143,76.3363281 59.8021122,74.1519531 C60.3030918,73.6179688 60.863398,73.1441406 61.4723673,72.7398437 L61.4723673,72.7398437 C63.9633061,71.0863281 65.534102,68.3458984 65.709949,65.3457031 L65.709949,65.3457031 C65.7527959,64.6123047 65.8799796,63.8863281 66.0885918,63.1822266 C66.9426224,60.3025391 66.3972449,57.1861328 64.6178367,54.7740234 Z" id="Shape" fill="#CE9964"></path>
                                <path d="M11.3823571,54.7740234 C11.8174184,54.184375 12.1832653,53.5460938 12.4727245,52.8716797 C13.6565408,50.1130859 16.062949,48.0791016 18.965102,47.3835938 C19.6745,47.2136719 20.3621837,46.9615234 21.0141939,46.6322266 C23.6811735,45.2857422 26.8225714,45.2857422 29.489551,46.6322266 C30.1415612,46.9613281 30.829051,47.2134766 31.5386429,47.3835938 C34.4409898,48.0789063 36.8472041,50.1130859 38.0310204,52.8716797 C38.3204796,53.5458984 38.6863265,54.184375 39.1213878,54.7740234 C40.9007959,57.1861328 41.4463673,60.3025391 40.5931122,63.1822266 C40.3845,63.8863281 40.2575102,64.6123047 40.2144694,65.3457031 C40.0384286,68.3457031 38.4678265,71.0863281 35.9768878,72.7398437 L35.9768878,72.7398437 C35.3679184,73.1441406 34.8074184,73.6179687 34.3066327,74.1519531 C32.2575408,76.3363281 29.3057551,77.4185547 26.3425306,77.0720703 L26.3425306,77.0720703 C25.6182041,76.9873047 24.8865102,76.9873047 24.1621837,77.0720703 L24.1621837,77.0720703 C21.1987653,77.4185547 18.2469796,76.3363281 16.1980816,74.1519531 C15.697102,73.6179687 15.1367959,73.1441406 14.5278265,72.7398437 L14.5278265,72.7398437 C12.0368878,71.0863281 10.4660918,68.3458984 10.2902449,65.3457031 L10.2902449,65.3457031 C10.247398,64.6123047 10.1202143,63.8863281 9.91160204,63.1822266 C9.05757143,60.3025391 9.60294898,57.1861328 11.3823571,54.7740234 Z" id="Shape" fill="#DDA46C"></path>
                                <path d="M33.941949,72.2320312 C33.5068878,71.6423828 33.1410408,71.0041016 32.8515816,70.3296875 C31.6677653,67.5710937 29.2613571,65.5371094 26.3592041,64.8416016 C25.6498061,64.6716797 24.9621224,64.4195312 24.3101122,64.0902344 C21.6431327,62.74375 18.5017347,62.74375 15.8347551,64.0902344 C15.1827449,64.4193359 14.4952551,64.6714844 13.7856633,64.8416016 C10.8833163,65.5369141 8.47710204,67.5710937 7.29328571,70.3296875 C7.00382653,71.0039062 6.63797959,71.6423828 6.20291837,72.2320312 C4.4235102,74.6441406 3.87793878,77.7605469 4.73119388,80.6402344 C4.93980612,81.3443359 5.0669898,82.0703125 5.10983673,82.8037109 C5.28587755,85.8037109 6.85647959,88.5443359 9.34741837,90.1978516 L9.34741837,90.1978516 C9.95638776,90.6021484 10.5168878,91.0759766 11.0176735,91.6099609 C13.0667653,93.7943359 16.018551,94.8765625 18.9817755,94.5300781 L18.9817755,94.5300781 C19.706102,94.4453125 20.4377959,94.4453125 21.1621224,94.5300781 L21.1621224,94.5300781 C24.1255408,94.8765625 27.0773265,93.7943359 29.1262245,91.6099609 C29.6272041,91.0759766 30.1875102,90.6021484 30.7964796,90.1978516 L30.7964796,90.1978516 C33.2874184,88.5443359 34.8582143,85.8039062 35.0340612,82.8037109 L35.0340612,82.8037109 C35.0769082,82.0703125 35.2040918,81.3443359 35.4127041,80.6402344 C36.2671224,77.7605469 35.721551,74.6441406 33.941949,72.2320312 Z" id="Shape" fill="#CE9964"></path>
                                <ellipse id="Oval" fill="#8B6C52" cx="13.8847347" cy="74.7162109" rx="2.6125" ry="2.09960938"></ellipse>
                                <path d="M42.0582449,72.2320312 C42.4933061,71.6423828 42.8591531,71.0041016 43.1486122,70.3296875 C44.3324286,67.5710937 46.7388367,65.5371094 49.6409898,64.8416016 C50.3503878,64.6716797 51.0380714,64.4195312 51.6900816,64.0902344 C54.3570612,62.74375 57.4984592,62.74375 60.1654388,64.0902344 C60.817449,64.4193359 61.5049388,64.6714844 62.2145306,64.8416016 C65.1168776,65.5369141 67.5230918,67.5710937 68.7069082,70.3296875 C68.9963673,71.0039062 69.3622143,71.6423828 69.7972755,72.2320312 C71.5766837,74.6441406 72.1222551,77.7605469 71.269,80.6402344 C71.0603878,81.3443359 70.933398,82.0703125 70.8903571,82.8037109 C70.7143163,85.8037109 69.1437143,88.5443359 66.6527755,90.1978516 L66.6527755,90.1978516 C66.0438061,90.6021484 65.4833061,91.0759766 64.9825204,91.6099609 C62.9334286,93.7943359 59.9816429,94.8765625 57.0184184,94.5300781 L57.0184184,94.5300781 C56.2940918,94.4453125 55.562398,94.4453125 54.8380714,94.5300781 L54.8380714,94.5300781 C51.8746531,94.8765625 48.9228673,93.7943359 46.8739694,91.6099609 C46.3729898,91.0759766 45.8126837,90.6021484 45.2037143,90.1978516 L45.2037143,90.1978516 C42.7127755,88.5443359 41.1419796,85.8039062 40.9661327,82.8037109 L40.9661327,82.8037109 C40.9232857,82.0703125 40.796102,81.3443359 40.5874898,80.6402344 C39.7330714,77.7605469 40.2786429,74.6441406 42.0582449,72.2320312 Z" id="Shape" fill="#DDA46C"></path>
                                <path d="M51.8694184,72.2320312 C51.4343571,71.6423828 51.0685102,71.0041016 50.779051,70.3296875 C49.5952347,67.5710937 47.1890204,65.5371094 44.2866735,64.8416016 C43.5772755,64.6716797 42.8895918,64.4195312 42.2375816,64.0902344 C39.570602,62.74375 36.4292041,62.74375 33.7622245,64.0902344 C33.1102143,64.4193359 32.4227245,64.6714844 31.7131327,64.8416016 C28.8107857,65.5369141 26.4045714,67.5710937 25.2207551,70.3296875 C24.9312959,71.0039062 24.565449,71.6423828 24.1303878,72.2320312 C22.3509796,74.6441406 21.8054082,77.7605469 22.6586633,80.6402344 C22.8672755,81.3443359 22.9942653,82.0703125 23.0373061,82.8037109 C23.2133469,85.8037109 24.783949,88.5443359 27.2748878,90.1978516 L27.2748878,90.1978516 C27.8838571,90.6021484 28.4443571,91.0759766 28.9451429,91.6099609 C30.9942347,93.7943359 33.9460204,94.8765625 36.9092449,94.5300781 L36.9092449,94.5300781 C37.6335714,94.4453125 38.3652653,94.4453125 39.0895918,94.5300781 L39.0895918,94.5300781 C42.0530102,94.8765625 45.0047959,93.7943359 47.0536939,91.6099609 C47.5546735,91.0759766 48.1149796,90.6021484 48.723949,90.1978516 L48.723949,90.1978516 C51.2148878,88.5443359 52.7856837,85.8039062 52.9615306,82.8037109 L52.9615306,82.8037109 C53.0043776,82.0703125 53.1315612,81.3443359 53.3401735,80.6402344 C54.194398,77.7605469 53.6488265,74.6441406 51.8694184,72.2320312 Z" id="Shape" fill="#F6B778"></path>
                                <g id="Group" transform="translate(28.306122, 74.609375)" fill="#654D3B">
                                    <ellipse id="Oval" cx="3.32054082" cy="2.66835937" rx="3.18715306" ry="2.56210937"></ellipse>
                                    <ellipse id="Oval" cx="12.8816122" cy="11.3564453" rx="3.18715306" ry="2.56210937"></ellipse>
                                    <ellipse id="Oval" cx="32.5568878" cy="8.79511719" rx="3.18715306" ry="2.56210937"></ellipse>
                                </g>
                                <g id="Group" transform="translate(17.448980, 51.953125)" fill="#8B6C52">
                                    <ellipse id="Oval" cx="25.6381735" cy="21.3888672" rx="2.6125" ry="2.09960937"></ellipse>
                                    <ellipse id="Oval" cx="2.62335714" cy="2.29433594" rx="2.6125" ry="2.09960938"></ellipse>
                                </g>
                                <ellipse id="Oval" fill="#654D3B" cx="31.6266633" cy="57.3783203" rx="2.6125" ry="2.09960937"></ellipse>
                                <ellipse id="Oval" fill="#8B6C52" cx="50.7488061" cy="56.3480469" rx="2.6125" ry="2.09960937"></ellipse>
                            </g>
                            <rect id="Rectangle-14" fill="#FFFFFF" fill-rule="nonzero" x="14" y="67" width="51" height="18" rx="1"></rect>
                            <path d="M25.682,77.816 L27.23,77.468 C27.266,78.188 27.818,78.776 28.646,78.776 C29.39,78.776 29.99,78.284 29.99,77.504 C29.99,76.616 29.33,76.196 28.61,76.196 C28.082,76.196 27.662,76.436 27.41,76.724 C27.254,76.664 26.066,76.256 25.898,76.208 L26.822,72.212 L31.214,72.212 L31.214,73.64 L27.95,73.64 L27.566,75.356 C27.902,75.044 28.454,74.876 28.97,74.876 C30.53,74.876 31.634,75.812 31.634,77.48 C31.634,78.932 30.518,80.192 28.646,80.192 C26.954,80.192 25.778,79.04 25.682,77.816 Z M34.13,76.112 C34.13,76.928 34.25,77.624 34.55,78.092 C34.79,78.476 35.162,78.728 35.726,78.728 C36.302,78.728 36.65,78.476 36.89,78.092 C37.202,77.624 37.322,76.928 37.322,76.112 C37.322,75.296 37.202,74.6 36.89,74.132 C36.65,73.748 36.302,73.496 35.726,73.496 C35.162,73.496 34.79,73.748 34.55,74.132 C34.25,74.6 34.13,75.296 34.13,76.112 Z M32.474,76.112 C32.474,75.116 32.63,74.144 33.158,73.34 C33.674,72.572 34.514,72.032 35.726,72.032 C36.938,72.032 37.778,72.572 38.282,73.34 C38.81,74.144 38.978,75.116 38.978,76.112 C38.978,77.108 38.81,78.08 38.282,78.884 C37.778,79.652 36.938,80.192 35.726,80.192 C34.514,80.192 33.674,79.652 33.158,78.884 C32.63,78.08 32.474,77.108 32.474,76.112 Z M41.618,76.112 C41.618,76.928 41.738,77.624 42.038,78.092 C42.278,78.476 42.65,78.728 43.214,78.728 C43.79,78.728 44.138,78.476 44.378,78.092 C44.69,77.624 44.81,76.928 44.81,76.112 C44.81,75.296 44.69,74.6 44.378,74.132 C44.138,73.748 43.79,73.496 43.214,73.496 C42.65,73.496 42.278,73.748 42.038,74.132 C41.738,74.6 41.618,75.296 41.618,76.112 Z M39.962,76.112 C39.962,75.116 40.118,74.144 40.646,73.34 C41.162,72.572 42.002,72.032 43.214,72.032 C44.426,72.032 45.266,72.572 45.77,73.34 C46.298,74.144 46.466,75.116 46.466,76.112 C46.466,77.108 46.298,78.08 45.77,78.884 C45.266,79.652 44.426,80.192 43.214,80.192 C42.002,80.192 41.162,79.652 40.646,78.884 C40.118,78.08 39.962,77.108 39.962,76.112 Z M53.534,74.096 L51.17,76.58 L53.582,80 L51.626,80 L50.066,77.744 L49.406,78.44 L49.406,80 L47.81,80 L47.81,71.312 L49.406,71.312 L49.406,76.292 L51.446,74.096 L53.534,74.096 Z" id="500k" fill="#333333"></path>
                        </g>
                        <path d="M39.3381868,129 L37.3361868,129 L37.3361868,121.412 L34.6061868,121.412 L34.6061868,119.662 L42.0541868,119.662 L42.0541868,121.412 L39.3381868,121.412 L39.3381868,129 Z M48.3053901,129 L46.5133901,129 L46.5133901,128.286 C46.0513901,128.846 45.2533901,129.168 44.3713901,129.168 C43.2933901,129.168 42.0333901,128.44 42.0333901,126.928 C42.0333901,125.332 43.2933901,124.744 44.3713901,124.744 C45.2813901,124.744 46.0653901,125.038 46.5133901,125.57 L46.5133901,124.716 C46.5133901,124.03 45.9253901,123.582 45.0293901,123.582 C44.3153901,123.582 43.6433901,123.862 43.0833901,124.38 L42.3833901,123.134 C43.2093901,122.392 44.2733901,122.07 45.3373901,122.07 C46.8913901,122.07 48.3053901,122.686 48.3053901,124.632 L48.3053901,129 Z M45.0853901,127.964 C45.6593901,127.964 46.2193901,127.768 46.5133901,127.376 L46.5133901,126.536 C46.2193901,126.144 45.6593901,125.934 45.0853901,125.934 C44.3853901,125.934 43.8113901,126.312 43.8113901,126.956 C43.8113901,127.6 44.3853901,127.964 45.0853901,127.964 Z M56.4885934,129 L54.5005934,129 L52.9605934,126.718 L51.4065934,129 L49.4325934,129 L51.8405934,125.528 L49.5725934,122.238 L51.5605934,122.238 L52.9605934,124.31 L54.3465934,122.238 L56.3345934,122.238 L54.0805934,125.528 L56.4885934,129 Z M63.671,129 L61.893,129 L61.893,123.792 L60.773,123.792 L60.773,122.238 L61.893,122.238 L61.893,121.958 C61.893,120.432 62.803,119.522 64.161,119.522 C64.819,119.522 65.519,119.704 65.925,120.166 L65.253,121.244 C65.071,121.076 64.833,120.978 64.511,120.978 C64.007,120.978 63.671,121.3 63.671,121.958 L63.671,122.238 L65.043,122.238 L65.043,123.792 L63.671,123.792 L63.671,129 Z M68.1022033,129 L66.3242033,129 L66.3242033,122.238 L68.1022033,122.238 L68.1022033,123.148 C68.5922033,122.56 69.4182033,122.07 70.2582033,122.07 L70.2582033,123.806 C70.1322033,123.778 69.9782033,123.764 69.7682033,123.764 C69.1802033,123.764 68.3962033,124.1 68.1022033,124.534 L68.1022033,129 Z M74.8014066,129.168 C72.7434066,129.168 71.1894066,127.782 71.1894066,125.612 C71.1894066,123.652 72.6454066,122.07 74.6894066,122.07 C76.7194066,122.07 78.0774066,123.582 78.0774066,125.78 L78.0774066,126.2 L73.0514066,126.2 C73.1774066,127.026 73.8494066,127.712 74.9974066,127.712 C75.5714066,127.712 76.3554066,127.474 76.7894066,127.054 L77.5874066,128.23 C76.9154066,128.846 75.8514066,129.168 74.8014066,129.168 Z M76.3694066,124.968 C76.3134066,124.324 75.8654066,123.526 74.6894066,123.526 C73.5834066,123.526 73.1074066,124.296 73.0374066,124.968 L76.3694066,124.968 Z M82.8026099,129.168 C80.7446099,129.168 79.1906099,127.782 79.1906099,125.612 C79.1906099,123.652 80.6466099,122.07 82.6906099,122.07 C84.7206099,122.07 86.0786099,123.582 86.0786099,125.78 L86.0786099,126.2 L81.0526099,126.2 C81.1786099,127.026 81.8506099,127.712 82.9986099,127.712 C83.5726099,127.712 84.3566099,127.474 84.7906099,127.054 L85.5886099,128.23 C84.9166099,128.846 83.8526099,129.168 82.8026099,129.168 Z M84.3706099,124.968 C84.3146099,124.324 83.8666099,123.526 82.6906099,123.526 C81.5846099,123.526 81.1086099,124.296 81.0386099,124.968 L84.3706099,124.968 Z" id="Taxfree" fill="#6A668F" fill-rule="nonzero"></path>
                        <path d="M8.6834564,148 L3.5744564,148 L3.5744564,139.329 L4.6534564,139.329 L4.6534564,147.038 L8.6834564,147.038 L8.6834564,148 Z M10.8221452,140.824 C10.4581452,140.824 10.1591452,140.538 10.1591452,140.174 C10.1591452,139.81 10.4581452,139.511 10.8221452,139.511 C11.1861452,139.511 11.4721452,139.81 11.4721452,140.174 C11.4721452,140.538 11.1861452,140.824 10.8221452,140.824 Z M11.3031452,148 L10.3281452,148 L10.3281452,141.721 L11.3031452,141.721 L11.3031452,148 Z M22.047834,148 L21.072834,148 L21.072834,143.736 C21.072834,142.943 20.734834,142.436 19.915834,142.436 C19.265834,142.436 18.576834,142.891 18.251834,143.398 L18.251834,148 L17.276834,148 L17.276834,143.736 C17.276834,142.943 16.951834,142.436 16.119834,142.436 C15.482834,142.436 14.806834,142.904 14.468834,143.411 L14.468834,148 L13.493834,148 L13.493834,141.721 L14.468834,141.721 L14.468834,142.631 C14.741834,142.228 15.573834,141.565 16.509834,141.565 C17.458834,141.565 18.004834,142.085 18.186834,142.735 C18.537834,142.163 19.382834,141.565 20.292834,141.565 C21.436834,141.565 22.047834,142.202 22.047834,143.463 L22.047834,148 Z M24.7325228,140.824 C24.3685228,140.824 24.0695228,140.538 24.0695228,140.174 C24.0695228,139.81 24.3685228,139.511 24.7325228,139.511 C25.0965228,139.511 25.3825228,139.81 25.3825228,140.174 C25.3825228,140.538 25.0965228,140.824 24.7325228,140.824 Z M25.2135228,148 L24.2385228,148 L24.2385228,141.721 L25.2135228,141.721 L25.2135228,148 Z M29.0032116,148.156 C28.0672116,148.156 27.5992116,147.623 27.5992116,146.687 L27.5992116,142.579 L26.5592116,142.579 L26.5592116,141.721 L27.5992116,141.721 L27.5992116,140.005 L28.5872116,140.005 L28.5872116,141.721 L29.8612116,141.721 L29.8612116,142.579 L28.5872116,142.579 L28.5872116,146.479 C28.5872116,146.947 28.7952116,147.285 29.2112116,147.285 C29.4972116,147.285 29.7442116,147.155 29.8742116,147.012 L30.1602116,147.753 C29.9132116,147.987 29.5622116,148.156 29.0032116,148.156 Z M34.3139004,148.156 C32.4419004,148.156 31.1029004,146.817 31.1029004,144.854 C31.1029004,143.034 32.4029004,141.565 34.1969004,141.565 C36.0949004,141.565 37.2129004,143.047 37.2129004,144.932 L37.2129004,145.179 L32.1429004,145.179 C32.2209004,146.362 33.0399004,147.35 34.3919004,147.35 C35.1199004,147.35 35.8349004,147.064 36.3419004,146.544 L36.8099004,147.181 C36.1729004,147.805 35.3279004,148.156 34.3139004,148.156 Z M36.2509004,144.451 C36.2379004,143.528 35.6139004,142.371 34.1839004,142.371 C32.8449004,142.371 32.1819004,143.502 32.1299004,144.451 L36.2509004,144.451 Z M44.5515892,148 L43.5765892,148 L43.5765892,147.064 C43.1085892,147.701 42.3415892,148.156 41.4575892,148.156 C39.8195892,148.156 38.6625892,146.908 38.6625892,144.867 C38.6625892,142.852 39.8195892,141.565 41.4575892,141.565 C42.3025892,141.565 43.0695892,141.981 43.5765892,142.67 L43.5765892,139.329 L44.5515892,139.329 L44.5515892,148 Z M41.7045892,147.285 C42.4715892,147.285 43.2385892,146.83 43.5765892,146.284 L43.5765892,143.45 C43.2385892,142.904 42.4715892,142.436 41.7045892,142.436 C40.4305892,142.436 39.6765892,143.476 39.6765892,144.867 C39.6765892,146.258 40.4305892,147.285 41.7045892,147.285 Z M51.9489668,148.156 C51.0129668,148.156 50.5449668,147.623 50.5449668,146.687 L50.5449668,142.579 L49.5049668,142.579 L49.5049668,141.721 L50.5449668,141.721 L50.5449668,140.005 L51.5329668,140.005 L51.5329668,141.721 L52.8069668,141.721 L52.8069668,142.579 L51.5329668,142.579 L51.5329668,146.479 C51.5329668,146.947 51.7409668,147.285 52.1569668,147.285 C52.4429668,147.285 52.6899668,147.155 52.8199668,147.012 L53.1059668,147.753 C52.8589668,147.987 52.5079668,148.156 51.9489668,148.156 Z M57.1556556,148.156 C55.2446556,148.156 54.0486556,146.674 54.0486556,144.854 C54.0486556,143.034 55.2446556,141.565 57.1556556,141.565 C59.0666556,141.565 60.2626556,143.034 60.2626556,144.854 C60.2626556,146.674 59.0666556,148.156 57.1556556,148.156 Z M57.1556556,147.285 C58.4946556,147.285 59.2356556,146.141 59.2356556,144.854 C59.2356556,143.58 58.4946556,142.436 57.1556556,142.436 C55.8166556,142.436 55.0756556,143.58 55.0756556,144.854 C55.0756556,146.141 55.8166556,147.285 57.1556556,147.285 Z M72.0280332,148 L70.7540332,148 L68.5570332,144.555 L66.8150332,144.555 L66.8150332,148 L65.7360332,148 L65.7360332,139.329 L69.2200332,139.329 C70.8060332,139.329 71.9500332,140.343 71.9500332,141.942 C71.9500332,143.502 70.8710332,144.36 69.6880332,144.464 L72.0280332,148 Z M69.0900332,143.606 C70.1170332,143.606 70.8320332,142.917 70.8320332,141.942 C70.8320332,140.954 70.1170332,140.291 69.0900332,140.291 L66.8150332,140.291 L66.8150332,143.606 L69.0900332,143.606 Z M76.792722,148.156 C75.336722,148.156 74.387722,147.623 73.737722,146.765 L74.400722,146.037 C74.972722,146.778 75.739722,147.194 76.792722,147.194 C77.975722,147.194 78.794722,146.388 78.794722,145.335 C78.794722,144.191 77.975722,143.463 76.805722,143.463 C76.051722,143.463 75.388722,143.71 74.803722,144.269 L74.010722,143.996 L74.010722,139.329 L79.314722,139.329 L79.314722,140.291 L75.089722,140.291 L75.089722,143.307 C75.518722,142.891 76.246722,142.527 77.117722,142.527 C78.573722,142.527 79.886722,143.502 79.886722,145.296 C79.886722,147.051 78.534722,148.156 76.792722,148.156 Z M84.7684108,148.156 C82.3894108,148.156 81.4534108,145.777 81.4534108,143.671 C81.4534108,141.552 82.3894108,139.199 84.7684108,139.199 C87.1344108,139.199 88.0834108,141.552 88.0834108,143.671 C88.0834108,145.777 87.1344108,148.156 84.7684108,148.156 Z M84.7684108,147.194 C86.4194108,147.194 86.9784108,145.4 86.9784108,143.671 C86.9784108,141.942 86.4194108,140.161 84.7684108,140.161 C83.1174108,140.161 82.5584108,141.942 82.5584108,143.671 C82.5584108,145.4 83.1174108,147.194 84.7684108,147.194 Z M92.9650996,148.156 C90.5860996,148.156 89.6500996,145.777 89.6500996,143.671 C89.6500996,141.552 90.5860996,139.199 92.9650996,139.199 C95.3310996,139.199 96.2800996,141.552 96.2800996,143.671 C96.2800996,145.777 95.3310996,148.156 92.9650996,148.156 Z M92.9650996,147.194 C94.6160996,147.194 95.1750996,145.4 95.1750996,143.671 C95.1750996,141.942 94.6160996,140.161 92.9650996,140.161 C91.3140996,140.161 90.7550996,141.942 90.7550996,143.671 C90.7550996,145.4 91.3140996,147.194 92.9650996,147.194 Z M103.683788,148 L102.435788,148 L100.186788,145.179 L99.1337884,146.206 L99.1337884,148 L98.1587884,148 L98.1587884,139.329 L99.1337884,139.329 L99.1337884,145.062 L102.435788,141.721 L103.670788,141.721 L100.888788,144.568 L103.683788,148 Z M109.183166,140.824 C108.819166,140.824 108.520166,140.538 108.520166,140.174 C108.520166,139.81 108.819166,139.511 109.183166,139.511 C109.547166,139.511 109.833166,139.81 109.833166,140.174 C109.833166,140.538 109.547166,140.824 109.183166,140.824 Z M109.664166,148 L108.689166,148 L108.689166,141.721 L109.664166,141.721 L109.664166,148 Z M117.067855,148 L116.105855,148 L116.105855,143.892 C116.105855,142.774 115.533855,142.436 114.688855,142.436 C113.921855,142.436 113.206855,142.904 112.829855,143.411 L112.829855,148 L111.854855,148 L111.854855,141.721 L112.829855,141.721 L112.829855,142.631 C113.271855,142.098 114.129855,141.565 115.078855,141.565 C116.378855,141.565 117.067855,142.228 117.067855,143.593 L117.067855,148 Z M13.4513008,164 L12.4763008,164 L12.4763008,163.285 C11.9693008,163.857 11.2413008,164.156 10.3963008,164.156 C9.3433008,164.156 8.2123008,163.441 8.2123008,162.076 C8.2123008,160.659 9.3303008,160.009 10.3963008,160.009 C11.2543008,160.009 11.9693008,160.282 12.4763008,160.854 L12.4763008,159.723 C12.4763008,158.891 11.8003008,158.41 10.8903008,158.41 C10.1363008,158.41 9.5253008,158.67 8.9663008,159.281 L8.5113008,158.605 C9.1873008,157.903 9.9933008,157.565 11.0203008,157.565 C12.3593008,157.565 13.4513008,158.163 13.4513008,159.684 L13.4513008,164 Z M10.7603008,163.454 C11.4363008,163.454 12.0993008,163.194 12.4763008,162.674 L12.4763008,161.478 C12.0993008,160.971 11.4363008,160.711 10.7603008,160.711 C9.8373008,160.711 9.2003008,161.283 9.2003008,162.076 C9.2003008,162.882 9.8373008,163.454 10.7603008,163.454 Z M20.2376784,164 L19.2626784,164 L19.2626784,155.329 L20.2376784,155.329 L20.2376784,164 Z M22.9223672,156.824 C22.5583672,156.824 22.2593672,156.538 22.2593672,156.174 C22.2593672,155.81 22.5583672,155.511 22.9223672,155.511 C23.2863672,155.511 23.5723672,155.81 23.5723672,156.174 C23.5723672,156.538 23.2863672,156.824 22.9223672,156.824 Z M23.4033672,164 L22.4283672,164 L22.4283672,157.721 L23.4033672,157.721 L23.4033672,164 Z M26.842056,164 L25.867056,164 L25.867056,158.579 L24.827056,158.579 L24.827056,157.721 L25.867056,157.721 L25.867056,157.24 C25.867056,155.953 26.582056,155.199 27.687056,155.199 C28.194056,155.199 28.623056,155.316 29.013056,155.68 L28.610056,156.304 C28.402056,156.122 28.155056,156.005 27.843056,156.005 C27.193056,156.005 26.842056,156.434 26.842056,157.24 L26.842056,157.721 L28.116056,157.721 L28.116056,158.579 L26.842056,158.579 L26.842056,164 Z M32.3737448,164.156 C30.5017448,164.156 29.1627448,162.817 29.1627448,160.854 C29.1627448,159.034 30.4627448,157.565 32.2567448,157.565 C34.1547448,157.565 35.2727448,159.047 35.2727448,160.932 L35.2727448,161.179 L30.2027448,161.179 C30.2807448,162.362 31.0997448,163.35 32.4517448,163.35 C33.1797448,163.35 33.8947448,163.064 34.4017448,162.544 L34.8697448,163.181 C34.2327448,163.805 33.3877448,164.156 32.3737448,164.156 Z M34.3107448,160.451 C34.2977448,159.528 33.6737448,158.371 32.2437448,158.371 C30.9047448,158.371 30.2417448,159.502 30.1897448,160.451 L34.3107448,160.451 Z M38.6854336,164.156 C37.7494336,164.156 37.2814336,163.623 37.2814336,162.687 L37.2814336,158.579 L36.2414336,158.579 L36.2414336,157.721 L37.2814336,157.721 L37.2814336,156.005 L38.2694336,156.005 L38.2694336,157.721 L39.5434336,157.721 L39.5434336,158.579 L38.2694336,158.579 L38.2694336,162.479 C38.2694336,162.947 38.4774336,163.285 38.8934336,163.285 C39.1794336,163.285 39.4264336,163.155 39.5564336,163.012 L39.8424336,163.753 C39.5954336,163.987 39.2444336,164.156 38.6854336,164.156 Z M41.6431224,156.824 C41.2791224,156.824 40.9801224,156.538 40.9801224,156.174 C40.9801224,155.81 41.2791224,155.511 41.6431224,155.511 C42.0071224,155.511 42.2931224,155.81 42.2931224,156.174 C42.2931224,156.538 42.0071224,156.824 41.6431224,156.824 Z M42.1241224,164 L41.1491224,164 L41.1491224,157.721 L42.1241224,157.721 L42.1241224,164 Z M52.8688112,164 L51.8938112,164 L51.8938112,159.736 C51.8938112,158.943 51.5558112,158.436 50.7368112,158.436 C50.0868112,158.436 49.3978112,158.891 49.0728112,159.398 L49.0728112,164 L48.0978112,164 L48.0978112,159.736 C48.0978112,158.943 47.7728112,158.436 46.9408112,158.436 C46.3038112,158.436 45.6278112,158.904 45.2898112,159.411 L45.2898112,164 L44.3148112,164 L44.3148112,157.721 L45.2898112,157.721 L45.2898112,158.631 C45.5628112,158.228 46.3948112,157.565 47.3308112,157.565 C48.2798112,157.565 48.8258112,158.085 49.0078112,158.735 C49.3588112,158.163 50.2038112,157.565 51.1138112,157.565 C52.2578112,157.565 52.8688112,158.202 52.8688112,159.463 L52.8688112,164 Z M57.9065,164.156 C56.0345,164.156 54.6955,162.817 54.6955,160.854 C54.6955,159.034 55.9955,157.565 57.7895,157.565 C59.6875,157.565 60.8055,159.047 60.8055,160.932 L60.8055,161.179 L55.7355,161.179 C55.8135,162.362 56.6325,163.35 57.9845,163.35 C58.7125,163.35 59.4275,163.064 59.9345,162.544 L60.4025,163.181 C59.7655,163.805 58.9205,164.156 57.9065,164.156 Z M59.8435,160.451 C59.8305,159.528 59.2065,158.371 57.7765,158.371 C56.4375,158.371 55.7745,159.502 55.7225,160.451 L59.8435,160.451 Z M71.1278776,164 L70.1528776,164 L70.1528776,163.285 C69.6458776,163.857 68.9178776,164.156 68.0728776,164.156 C67.0198776,164.156 65.8888776,163.441 65.8888776,162.076 C65.8888776,160.659 67.0068776,160.009 68.0728776,160.009 C68.9308776,160.009 69.6458776,160.282 70.1528776,160.854 L70.1528776,159.723 C70.1528776,158.891 69.4768776,158.41 68.5668776,158.41 C67.8128776,158.41 67.2018776,158.67 66.6428776,159.281 L66.1878776,158.605 C66.8638776,157.903 67.6698776,157.565 68.6968776,157.565 C70.0358776,157.565 71.1278776,158.163 71.1278776,159.684 L71.1278776,164 Z M68.4368776,163.454 C69.1128776,163.454 69.7758776,163.194 70.1528776,162.674 L70.1528776,161.478 C69.7758776,160.971 69.1128776,160.711 68.4368776,160.711 C67.5138776,160.711 66.8768776,161.283 66.8768776,162.076 C66.8768776,162.882 67.5138776,163.454 68.4368776,163.454 Z M78.5445664,164 L77.5825664,164 L77.5825664,159.892 C77.5825664,158.774 77.0105664,158.436 76.1655664,158.436 C75.3985664,158.436 74.6835664,158.904 74.3065664,159.411 L74.3065664,164 L73.3315664,164 L73.3315664,157.721 L74.3065664,157.721 L74.3065664,158.631 C74.7485664,158.098 75.6065664,157.565 76.5555664,157.565 C77.8555664,157.565 78.5445664,158.228 78.5445664,159.593 L78.5445664,164 Z M86.2732552,164 L85.2982552,164 L85.2982552,163.064 C84.8302552,163.701 84.0632552,164.156 83.1792552,164.156 C81.5412552,164.156 80.3842552,162.908 80.3842552,160.867 C80.3842552,158.852 81.5412552,157.565 83.1792552,157.565 C84.0242552,157.565 84.7912552,157.981 85.2982552,158.67 L85.2982552,155.329 L86.2732552,155.329 L86.2732552,164 Z M83.4262552,163.285 C84.1932552,163.285 84.9602552,162.83 85.2982552,162.284 L85.2982552,159.45 C84.9602552,158.904 84.1932552,158.436 83.4262552,158.436 C82.1522552,158.436 81.3982552,159.476 81.3982552,160.867 C81.3982552,162.258 82.1522552,163.285 83.4262552,163.285 Z M94.5546328,164.156 C93.0856328,164.156 92.0066328,163.506 91.4736328,162.726 L92.1106328,162.05 C92.6176328,162.726 93.5016328,163.194 94.5286328,163.194 C95.7896328,163.194 96.5566328,162.557 96.5566328,161.569 C96.5566328,160.49 95.6726328,160.035 94.3986328,160.035 C94.0346328,160.035 93.6316328,160.035 93.5016328,160.048 L93.5016328,159.06 C93.6446328,159.073 94.0476328,159.073 94.3986328,159.073 C95.4906328,159.073 96.4136328,158.644 96.4136328,157.643 C96.4136328,156.681 95.5296328,156.161 94.4766328,156.161 C93.5276328,156.161 92.8256328,156.525 92.1886328,157.214 L91.5906328,156.538 C92.2146328,155.771 93.2156328,155.199 94.5676328,155.199 C96.2316328,155.199 97.4926328,156.044 97.4926328,157.5 C97.4926328,158.761 96.4396328,159.385 95.6336328,159.515 C96.4136328,159.593 97.6356328,160.256 97.6356328,161.66 C97.6356328,163.103 96.4656328,164.156 94.5546328,164.156 Z M102.595322,164.156 C100.164322,164.156 99.2413216,162.037 99.2413216,159.671 C99.2413216,157.331 100.333322,155.199 102.777322,155.199 C103.882322,155.199 104.636322,155.615 105.169322,156.239 L104.623322,157.045 C104.181322,156.525 103.674322,156.161 102.777322,156.161 C101.087322,156.161 100.333322,157.864 100.333322,159.567 L100.333322,159.905 C100.710322,159.307 101.672322,158.553 102.790322,158.553 C104.350322,158.553 105.624322,159.476 105.624322,161.322 C105.624322,162.817 104.480322,164.156 102.595322,164.156 Z M102.543322,163.194 C103.882322,163.194 104.532322,162.18 104.532322,161.361 C104.532322,160.087 103.648322,159.489 102.543322,159.489 C101.672322,159.489 100.840322,160.022 100.372322,160.776 C100.463322,161.855 101.035322,163.194 102.543322,163.194 Z M113.00201,164 L111.75401,164 L109.50501,161.179 L108.45201,162.206 L108.45201,164 L107.47701,164 L107.47701,155.329 L108.45201,155.329 L108.45201,161.062 L111.75401,157.721 L112.98901,157.721 L110.20701,160.568 L113.00201,164 Z M38.8964004,180.156 C38.0384004,180.156 37.2974004,179.74 36.7774004,179.051 L36.7774004,182.392 L35.8024004,182.392 L35.8024004,173.721 L36.7774004,173.721 L36.7774004,174.657 C37.2324004,174.02 38.0124004,173.565 38.8964004,173.565 C40.5474004,173.565 41.6914004,174.813 41.6914004,176.854 C41.6914004,178.882 40.5474004,180.156 38.8964004,180.156 Z M38.6494004,179.285 C39.9104004,179.285 40.6644004,178.245 40.6644004,176.854 C40.6644004,175.463 39.9104004,174.436 38.6494004,174.436 C37.8824004,174.436 37.1154004,174.891 36.7774004,175.437 L36.7774004,178.271 C37.1154004,178.817 37.8824004,179.285 38.6494004,179.285 Z M46.3260892,180.156 C44.4540892,180.156 43.1150892,178.817 43.1150892,176.854 C43.1150892,175.034 44.4150892,173.565 46.2090892,173.565 C48.1070892,173.565 49.2250892,175.047 49.2250892,176.932 L49.2250892,177.179 L44.1550892,177.179 C44.2330892,178.362 45.0520892,179.35 46.4040892,179.35 C47.1320892,179.35 47.8470892,179.064 48.3540892,178.544 L48.8220892,179.181 C48.1850892,179.805 47.3400892,180.156 46.3260892,180.156 Z M48.2630892,176.451 C48.2500892,175.528 47.6260892,174.371 46.1960892,174.371 C44.8570892,174.371 44.1940892,175.502 44.1420892,176.451 L48.2630892,176.451 Z M52.013778,180 L51.038778,180 L51.038778,173.721 L52.013778,173.721 L52.013778,174.722 C52.520778,174.072 53.248778,173.578 54.106778,173.578 L54.106778,174.579 C53.989778,174.566 53.872778,174.553 53.729778,174.553 C53.118778,174.553 52.299778,175.047 52.013778,175.554 L52.013778,180 Z M58.8391556,182.457 L58.9821556,181.573 C59.1251556,181.638 59.3591556,181.677 59.5151556,181.677 C59.9441556,181.677 60.2301556,181.534 60.4511556,181.014 L60.8671556,180.065 L58.2411556,173.721 L59.3071556,173.721 L61.3871556,178.869 L63.4801556,173.721 L64.5331556,173.721 L61.3871556,181.274 C61.0101556,182.184 60.3731556,182.535 59.5411556,182.548 C59.3331556,182.548 59.0081556,182.509 58.8391556,182.457 Z M68.6348444,180.156 C66.7628444,180.156 65.4238444,178.817 65.4238444,176.854 C65.4238444,175.034 66.7238444,173.565 68.5178444,173.565 C70.4158444,173.565 71.5338444,175.047 71.5338444,176.932 L71.5338444,177.179 L66.4638444,177.179 C66.5418444,178.362 67.3608444,179.35 68.7128444,179.35 C69.4408444,179.35 70.1558444,179.064 70.6628444,178.544 L71.1308444,179.181 C70.4938444,179.805 69.6488444,180.156 68.6348444,180.156 Z M70.5718444,176.451 C70.5588444,175.528 69.9348444,174.371 68.5048444,174.371 C67.1658444,174.371 66.5028444,175.502 66.4508444,176.451 L70.5718444,176.451 Z M78.2485332,180 L77.2735332,180 L77.2735332,179.285 C76.7665332,179.857 76.0385332,180.156 75.1935332,180.156 C74.1405332,180.156 73.0095332,179.441 73.0095332,178.076 C73.0095332,176.659 74.1275332,176.009 75.1935332,176.009 C76.0515332,176.009 76.7665332,176.282 77.2735332,176.854 L77.2735332,175.723 C77.2735332,174.891 76.5975332,174.41 75.6875332,174.41 C74.9335332,174.41 74.3225332,174.67 73.7635332,175.281 L73.3085332,174.605 C73.9845332,173.903 74.7905332,173.565 75.8175332,173.565 C77.1565332,173.565 78.2485332,174.163 78.2485332,175.684 L78.2485332,180 Z M75.5575332,179.454 C76.2335332,179.454 76.8965332,179.194 77.2735332,178.674 L77.2735332,177.478 C76.8965332,176.971 76.2335332,176.711 75.5575332,176.711 C74.6345332,176.711 73.9975332,177.283 73.9975332,178.076 C73.9975332,178.882 74.6345332,179.454 75.5575332,179.454 Z M81.427222,180 L80.452222,180 L80.452222,173.721 L81.427222,173.721 L81.427222,174.722 C81.934222,174.072 82.662222,173.578 83.520222,173.578 L83.520222,174.579 C83.403222,174.566 83.286222,174.553 83.143222,174.553 C82.532222,174.553 81.713222,175.047 81.427222,175.554 L81.427222,180 Z M84.4239108,180.13 C84.0339108,180.13 83.7089108,179.805 83.7089108,179.415 C83.7089108,179.025 84.0339108,178.7 84.4239108,178.7 C84.8139108,178.7 85.1389108,179.025 85.1389108,179.415 C85.1389108,179.805 84.8139108,180.13 84.4239108,180.13 Z" id="LimitedtoR500kinalifetimeand36kperyear." fill="#6A668F" fill-rule="nonzero"></path>
                    </g>
                    <g id="Taxed" transform="translate(40.000000, 25.000000)">
                        <g id="illustration/goals/taxed" transform="translate(23.000000, 0.000000)">
                            <g id="cookies-copy" fill-rule="nonzero">
                                <path d="M39.9116327,0 L36.0883673,0 C34.5086531,0 33.2280918,1.29023437 33.2280918,2.88144531 L33.2280918,10.3402344 L42.7719082,10.3402344 L42.7719082,2.88144531 C42.772102,1.29023437 41.4913469,0 39.9116327,0 Z" id="Shape" fill="#9A9B9D"></path>
                                <path d="M58.5318265,6.06914062 L17.4683673,6.06914062 C15.0842551,6.06914062 13.1514898,8.01621094 13.1514898,10.4179687 L13.1514898,13.3162109 L38.0001939,17.3796875 L62.848898,13.3162109 L62.848898,10.4181641 C62.848898,8.01621094 60.9159388,6.06914062 58.5318265,6.06914062 Z" id="Shape" fill="#B3B5B7"></path>
                                <path d="M21.140602,13.3162109 L21.140602,10.4181641 C21.140602,8.01640625 23.0733673,6.06933594 25.4574796,6.06933594 L17.4683673,6.06933594 C15.0842551,6.06933594 13.1514898,8.01640625 13.1514898,10.4181641 L13.1514898,13.3164062 L38.0001939,17.3798828 L41.9948469,16.7265625 L21.140602,13.3162109 Z" id="Shape" fill="#9A9B9D"></path>
                                <path d="M62.8487041,13.3162109 L13.1514898,13.3162109 C11.0442347,13.3162109 9.33578571,15.0371094 9.33578571,17.1601562 L9.33578571,21.4427734 L38,26.5402344 L66.6642143,21.4427734 L66.6642143,17.1601562 C66.6642143,15.0373047 64.9561531,13.3162109 62.8487041,13.3162109 Z" id="Shape" fill="#E3E6E8"></path>
                                <path d="M17.324898,21.4427734 L17.324898,17.1601562 C17.324898,15.0373047 19.0331531,13.3162109 21.140602,13.3162109 L13.1514898,13.3162109 C11.0442347,13.3162109 9.33578571,15.0371094 9.33578571,17.1601562 L9.33578571,21.4427734 L38,26.5402344 L41.9946531,25.8298828 L17.324898,21.4427734 Z" id="Shape" fill="#B3B5B7"></path>
                                <path d="M66.6644082,21.4427734 L66.6644082,21.4427734 L9.33578571,21.4427734 L9.33578571,21.4427734 C3.49347959,25.9992188 0.0736734694,33.0232422 0.0736734694,40.4664063 L0.0736734694,89.2474609 C0.0736734694,95.1859375 4.85236735,100 10.7472143,100 L65.2525918,100 C71.1474388,100 75.9261327,95.1859375 75.9261327,89.2474609 L75.9261327,40.4666016 C75.9261327,33.0232422 72.5067143,25.9994141 66.6644082,21.4427734 Z" id="Shape" fill="#96D7E8"></path>
                                <path d="M8.06297959,89.2474609 L8.06297959,40.4666016 C8.06297959,33.0236328 11.4827857,25.9994141 17.3250918,21.4429687 L17.3250918,21.4429687 L9.33597959,21.4429687 L9.33597959,21.4429687 C3.49367347,25.9994141 0.0738673469,33.0234375 0.0738673469,40.4666016 L0.0738673469,89.2474609 C0.0738673469,95.1859375 4.85256122,100 10.7474082,100 L18.7365204,100 C12.8416735,100 8.06297959,95.1859375 8.06297959,89.2474609 Z" id="Shape" fill="#68C9E0"></path>
                                <g id="Group" transform="translate(20.744898, 32.226562)" fill="#3B484A">
                                    <path d="M1.51903061,5.90996094 C0.691755102,5.90996094 0.0211326531,5.234375 0.0211326531,4.40097656 L0.0211326531,1.53203125 C0.0211326531,0.698632812 0.691755102,0.023046875 1.51903061,0.023046875 C2.34630612,0.023046875 3.01692857,0.698632812 3.01692857,1.53203125 L3.01692857,4.40097656 C3.01692857,5.234375 2.34630612,5.90996094 1.51903061,5.90996094 Z" id="Shape"></path>
                                    <path d="M32.9913673,5.90996094 C32.1640918,5.90996094 31.4934694,5.234375 31.4934694,4.40097656 L31.4934694,1.53203125 C31.4934694,0.698632812 32.1640918,0.023046875 32.9913673,0.023046875 C33.8186429,0.023046875 34.4892653,0.698632812 34.4892653,1.53203125 L34.4892653,4.40097656 C34.4894592,5.234375 33.8186429,5.90996094 32.9913673,5.90996094 Z" id="Shape"></path>
                                    <path d="M17.2552959,8.03046875 C14.9632755,8.03046875 12.8127857,7.0671875 11.3552143,5.38769531 C10.8108061,4.76015625 10.8742041,3.80683594 11.4971327,3.25839844 C12.1200612,2.70996094 13.0663776,2.77402344 13.6107857,3.40136719 C14.4991327,4.42519531 15.8273878,5.0125 17.255102,5.0125 C18.6826224,5.0125 20.0106837,4.42539063 20.8992245,3.40136719 C21.4438265,2.77402344 22.3901429,2.70976563 23.0128776,3.25839844 C23.6358061,3.80683594 23.699398,4.76015625 23.1547959,5.38769531 C21.6978061,7.0671875 19.5473163,8.03046875 17.2552959,8.03046875 Z" id="Shape"></path>
                                </g>
                                <path d="M64.6178367,54.7740234 C64.1827755,54.184375 63.8169286,53.5460938 63.5274694,52.8716797 C62.3436531,50.1130859 59.9372449,48.0791016 57.0350918,47.3835938 C56.3256939,47.2136719 55.6380102,46.9615234 54.986,46.6322266 C52.3190204,45.2857422 49.1776224,45.2857422 46.5106429,46.6322266 C45.8586327,46.9613281 45.1711429,47.2134766 44.461551,47.3835938 C41.5592041,48.0789063 39.1529898,50.1130859 37.9691735,52.8716797 C37.6797143,53.5458984 37.3138673,54.184375 36.8788061,54.7740234 C35.099398,57.1861328 34.5538265,60.3025391 35.4070816,63.1822266 C35.6156939,63.8863281 35.7426837,64.6123047 35.7857245,65.3457031 C35.9617653,68.3457031 37.5323673,71.0863281 40.0233061,72.7398437 L40.0233061,72.7398437 C40.6322755,73.1441406 41.1927755,73.6179687 41.6935612,74.1519531 C43.7426531,76.3363281 46.6944388,77.4185547 49.6576633,77.0720703 L49.6576633,77.0720703 C50.3819898,76.9873047 51.1136837,76.9873047 51.8380102,77.0720703 L51.8380102,77.0720703 C54.8014286,77.4185547 57.7532143,76.3363281 59.8021122,74.1519531 C60.3030918,73.6179688 60.863398,73.1441406 61.4723673,72.7398437 L61.4723673,72.7398437 C63.9633061,71.0863281 65.534102,68.3458984 65.709949,65.3457031 L65.709949,65.3457031 C65.7527959,64.6123047 65.8799796,63.8863281 66.0885918,63.1822266 C66.9426224,60.3025391 66.3972449,57.1861328 64.6178367,54.7740234 Z" id="Shape" fill="#CE9964"></path>
                                <path d="M11.3823571,54.7740234 C11.8174184,54.184375 12.1832653,53.5460938 12.4727245,52.8716797 C13.6565408,50.1130859 16.062949,48.0791016 18.965102,47.3835938 C19.6745,47.2136719 20.3621837,46.9615234 21.0141939,46.6322266 C23.6811735,45.2857422 26.8225714,45.2857422 29.489551,46.6322266 C30.1415612,46.9613281 30.829051,47.2134766 31.5386429,47.3835938 C34.4409898,48.0789063 36.8472041,50.1130859 38.0310204,52.8716797 C38.3204796,53.5458984 38.6863265,54.184375 39.1213878,54.7740234 C40.9007959,57.1861328 41.4463673,60.3025391 40.5931122,63.1822266 C40.3845,63.8863281 40.2575102,64.6123047 40.2144694,65.3457031 C40.0384286,68.3457031 38.4678265,71.0863281 35.9768878,72.7398437 L35.9768878,72.7398437 C35.3679184,73.1441406 34.8074184,73.6179687 34.3066327,74.1519531 C32.2575408,76.3363281 29.3057551,77.4185547 26.3425306,77.0720703 L26.3425306,77.0720703 C25.6182041,76.9873047 24.8865102,76.9873047 24.1621837,77.0720703 L24.1621837,77.0720703 C21.1987653,77.4185547 18.2469796,76.3363281 16.1980816,74.1519531 C15.697102,73.6179687 15.1367959,73.1441406 14.5278265,72.7398437 L14.5278265,72.7398437 C12.0368878,71.0863281 10.4660918,68.3458984 10.2902449,65.3457031 L10.2902449,65.3457031 C10.247398,64.6123047 10.1202143,63.8863281 9.91160204,63.1822266 C9.05757143,60.3025391 9.60294898,57.1861328 11.3823571,54.7740234 Z" id="Shape" fill="#DDA46C"></path>
                                <path d="M33.941949,72.2320312 C33.5068878,71.6423828 33.1410408,71.0041016 32.8515816,70.3296875 C31.6677653,67.5710937 29.2613571,65.5371094 26.3592041,64.8416016 C25.6498061,64.6716797 24.9621224,64.4195312 24.3101122,64.0902344 C21.6431327,62.74375 18.5017347,62.74375 15.8347551,64.0902344 C15.1827449,64.4193359 14.4952551,64.6714844 13.7856633,64.8416016 C10.8833163,65.5369141 8.47710204,67.5710937 7.29328571,70.3296875 C7.00382653,71.0039062 6.63797959,71.6423828 6.20291837,72.2320312 C4.4235102,74.6441406 3.87793878,77.7605469 4.73119388,80.6402344 C4.93980612,81.3443359 5.0669898,82.0703125 5.10983673,82.8037109 C5.28587755,85.8037109 6.85647959,88.5443359 9.34741837,90.1978516 L9.34741837,90.1978516 C9.95638776,90.6021484 10.5168878,91.0759766 11.0176735,91.6099609 C13.0667653,93.7943359 16.018551,94.8765625 18.9817755,94.5300781 L18.9817755,94.5300781 C19.706102,94.4453125 20.4377959,94.4453125 21.1621224,94.5300781 L21.1621224,94.5300781 C24.1255408,94.8765625 27.0773265,93.7943359 29.1262245,91.6099609 C29.6272041,91.0759766 30.1875102,90.6021484 30.7964796,90.1978516 L30.7964796,90.1978516 C33.2874184,88.5443359 34.8582143,85.8039062 35.0340612,82.8037109 L35.0340612,82.8037109 C35.0769082,82.0703125 35.2040918,81.3443359 35.4127041,80.6402344 C36.2671224,77.7605469 35.721551,74.6441406 33.941949,72.2320312 Z" id="Shape" fill="#CE9964"></path>
                                <ellipse id="Oval" fill="#8B6C52" cx="13.8847347" cy="74.7162109" rx="2.6125" ry="2.09960938"></ellipse>
                                <path d="M42.0582449,72.2320312 C42.4933061,71.6423828 42.8591531,71.0041016 43.1486122,70.3296875 C44.3324286,67.5710937 46.7388367,65.5371094 49.6409898,64.8416016 C50.3503878,64.6716797 51.0380714,64.4195312 51.6900816,64.0902344 C54.3570612,62.74375 57.4984592,62.74375 60.1654388,64.0902344 C60.817449,64.4193359 61.5049388,64.6714844 62.2145306,64.8416016 C65.1168776,65.5369141 67.5230918,67.5710937 68.7069082,70.3296875 C68.9963673,71.0039062 69.3622143,71.6423828 69.7972755,72.2320312 C71.5766837,74.6441406 72.1222551,77.7605469 71.269,80.6402344 C71.0603878,81.3443359 70.933398,82.0703125 70.8903571,82.8037109 C70.7143163,85.8037109 69.1437143,88.5443359 66.6527755,90.1978516 L66.6527755,90.1978516 C66.0438061,90.6021484 65.4833061,91.0759766 64.9825204,91.6099609 C62.9334286,93.7943359 59.9816429,94.8765625 57.0184184,94.5300781 L57.0184184,94.5300781 C56.2940918,94.4453125 55.562398,94.4453125 54.8380714,94.5300781 L54.8380714,94.5300781 C51.8746531,94.8765625 48.9228673,93.7943359 46.8739694,91.6099609 C46.3729898,91.0759766 45.8126837,90.6021484 45.2037143,90.1978516 L45.2037143,90.1978516 C42.7127755,88.5443359 41.1419796,85.8039062 40.9661327,82.8037109 L40.9661327,82.8037109 C40.9232857,82.0703125 40.796102,81.3443359 40.5874898,80.6402344 C39.7330714,77.7605469 40.2786429,74.6441406 42.0582449,72.2320312 Z" id="Shape" fill="#DDA46C"></path>
                                <path d="M51.8694184,72.2320312 C51.4343571,71.6423828 51.0685102,71.0041016 50.779051,70.3296875 C49.5952347,67.5710937 47.1890204,65.5371094 44.2866735,64.8416016 C43.5772755,64.6716797 42.8895918,64.4195312 42.2375816,64.0902344 C39.570602,62.74375 36.4292041,62.74375 33.7622245,64.0902344 C33.1102143,64.4193359 32.4227245,64.6714844 31.7131327,64.8416016 C28.8107857,65.5369141 26.4045714,67.5710937 25.2207551,70.3296875 C24.9312959,71.0039062 24.565449,71.6423828 24.1303878,72.2320312 C22.3509796,74.6441406 21.8054082,77.7605469 22.6586633,80.6402344 C22.8672755,81.3443359 22.9942653,82.0703125 23.0373061,82.8037109 C23.2133469,85.8037109 24.783949,88.5443359 27.2748878,90.1978516 L27.2748878,90.1978516 C27.8838571,90.6021484 28.4443571,91.0759766 28.9451429,91.6099609 C30.9942347,93.7943359 33.9460204,94.8765625 36.9092449,94.5300781 L36.9092449,94.5300781 C37.6335714,94.4453125 38.3652653,94.4453125 39.0895918,94.5300781 L39.0895918,94.5300781 C42.0530102,94.8765625 45.0047959,93.7943359 47.0536939,91.6099609 C47.5546735,91.0759766 48.1149796,90.6021484 48.723949,90.1978516 L48.723949,90.1978516 C51.2148878,88.5443359 52.7856837,85.8039062 52.9615306,82.8037109 L52.9615306,82.8037109 C53.0043776,82.0703125 53.1315612,81.3443359 53.3401735,80.6402344 C54.194398,77.7605469 53.6488265,74.6441406 51.8694184,72.2320312 Z" id="Shape" fill="#F6B778"></path>
                                <g id="Group" transform="translate(28.306122, 74.609375)" fill="#654D3B">
                                    <ellipse id="Oval" cx="3.32054082" cy="2.66835937" rx="3.18715306" ry="2.56210937"></ellipse>
                                    <ellipse id="Oval" cx="12.8816122" cy="11.3564453" rx="3.18715306" ry="2.56210937"></ellipse>
                                    <ellipse id="Oval" cx="32.5568878" cy="8.79511719" rx="3.18715306" ry="2.56210937"></ellipse>
                                </g>
                                <g id="Group" transform="translate(17.448980, 51.953125)" fill="#8B6C52">
                                    <ellipse id="Oval" cx="25.6381735" cy="21.3888672" rx="2.6125" ry="2.09960937"></ellipse>
                                    <ellipse id="Oval" cx="2.62335714" cy="2.29433594" rx="2.6125" ry="2.09960938"></ellipse>
                                </g>
                                <ellipse id="Oval" fill="#654D3B" cx="31.6266633" cy="57.3783203" rx="2.6125" ry="2.09960937"></ellipse>
                                <ellipse id="Oval" fill="#8B6C52" cx="50.7488061" cy="56.3480469" rx="2.6125" ry="2.09960937"></ellipse>
                            </g>
                            <rect id="Rectangle-14-Copy" fill="#FFFFFF" fill-rule="nonzero" x="12" y="67" width="55" height="18" rx="1"></rect>
                            <path d="M25.64,80 L23.9,80 L20.036,73.964 L20.036,80 L18.38,80 L18.38,71.492 L20.444,71.492 L23.984,77.12 L23.984,71.492 L25.64,71.492 L25.64,80 Z M30.116,78.728 C30.896,78.728 31.616,78.164 31.616,77.048 C31.616,75.932 30.896,75.368 30.116,75.368 C29.336,75.368 28.616,75.932 28.616,77.048 C28.616,78.152 29.336,78.728 30.116,78.728 Z M30.116,73.916 C31.88,73.916 33.212,75.224 33.212,77.048 C33.212,78.86 31.88,80.18 30.116,80.18 C28.352,80.18 27.02,78.86 27.02,77.048 C27.02,75.224 28.352,73.916 30.116,73.916 Z M39.032,80 L37.436,80 L37.436,71.312 L39.032,71.312 L39.032,80 Z M42.332,80 L40.736,80 L40.736,74.096 L42.332,74.096 L42.332,80 Z M40.544,72.164 C40.544,71.612 40.988,71.168 41.528,71.168 C42.08,71.168 42.512,71.612 42.512,72.164 C42.512,72.692 42.08,73.136 41.528,73.136 C40.988,73.136 40.544,72.692 40.544,72.164 Z M45.632,80 L44.036,80 L44.036,74.096 L45.56,74.096 L45.56,74.816 C45.884,74.24 46.64,73.928 47.288,73.928 C48.092,73.928 48.74,74.276 49.04,74.912 C49.508,74.192 50.132,73.928 50.912,73.928 C52.004,73.928 53.048,74.588 53.048,76.172 L53.048,80 L51.5,80 L51.5,76.496 C51.5,75.86 51.188,75.38 50.456,75.38 C49.772,75.38 49.364,75.908 49.364,76.544 L49.364,80 L47.78,80 L47.78,76.496 C47.78,75.86 47.456,75.38 46.736,75.38 C46.04,75.38 45.632,75.896 45.632,76.544 L45.632,80 Z M56.264,80 L54.668,80 L54.668,74.096 L56.264,74.096 L56.264,80 Z M54.476,72.164 C54.476,71.612 54.92,71.168 55.46,71.168 C56.012,71.168 56.444,71.612 56.444,72.164 C56.444,72.692 56.012,73.136 55.46,73.136 C54.92,73.136 54.476,72.692 54.476,72.164 Z M59.936,72.332 L59.936,74.096 L61.124,74.096 L61.124,75.512 L59.936,75.512 L59.936,77.984 C59.936,78.5 60.176,78.668 60.632,78.668 C60.824,78.668 61.04,78.644 61.124,78.62 L61.124,79.94 C60.98,80 60.692,80.084 60.224,80.084 C59.072,80.084 58.352,79.4 58.352,78.26 L58.352,75.512 L57.284,75.512 L57.284,74.096 L57.584,74.096 C58.208,74.096 58.496,73.688 58.496,73.16 L58.496,72.332 L59.936,72.332 Z" id="No-limit" fill="#333333"></path>
                        </g>
                        <path d="M46.3419917,127 L44.3399917,127 L44.3399917,119.412 L41.6099917,119.412 L41.6099917,117.662 L49.0579917,117.662 L49.0579917,119.412 L46.3419917,119.412 L46.3419917,127 Z M55.309195,127 L53.517195,127 L53.517195,126.286 C53.055195,126.846 52.257195,127.168 51.375195,127.168 C50.297195,127.168 49.037195,126.44 49.037195,124.928 C49.037195,123.332 50.297195,122.744 51.375195,122.744 C52.285195,122.744 53.069195,123.038 53.517195,123.57 L53.517195,122.716 C53.517195,122.03 52.929195,121.582 52.033195,121.582 C51.319195,121.582 50.647195,121.862 50.087195,122.38 L49.387195,121.134 C50.213195,120.392 51.277195,120.07 52.341195,120.07 C53.895195,120.07 55.309195,120.686 55.309195,122.632 L55.309195,127 Z M52.089195,125.964 C52.663195,125.964 53.223195,125.768 53.517195,125.376 L53.517195,124.536 C53.223195,124.144 52.663195,123.934 52.089195,123.934 C51.389195,123.934 50.815195,124.312 50.815195,124.956 C50.815195,125.6 51.389195,125.964 52.089195,125.964 Z M63.4923983,127 L61.5043983,127 L59.9643983,124.718 L58.4103983,127 L56.4363983,127 L58.8443983,123.528 L56.5763983,120.238 L58.5643983,120.238 L59.9643983,122.31 L61.3503983,120.238 L63.3383983,120.238 L61.0843983,123.528 L63.4923983,127 Z M67.3356016,127.168 C65.2776016,127.168 63.7236016,125.782 63.7236016,123.612 C63.7236016,121.652 65.1796016,120.07 67.2236016,120.07 C69.2536016,120.07 70.6116016,121.582 70.6116016,123.78 L70.6116016,124.2 L65.5856016,124.2 C65.7116016,125.026 66.3836016,125.712 67.5316016,125.712 C68.1056016,125.712 68.8896016,125.474 69.3236016,125.054 L70.1216016,126.23 C69.4496016,126.846 68.3856016,127.168 67.3356016,127.168 Z M68.9036016,122.968 C68.8476016,122.324 68.3996016,121.526 67.2236016,121.526 C66.1176016,121.526 65.6416016,122.296 65.5716016,122.968 L68.9036016,122.968 Z M78.5988049,127 L76.8068049,127 L76.8068049,126.132 C76.2748049,126.804 75.5468049,127.168 74.7208049,127.168 C73.0268049,127.168 71.7248049,125.88 71.7248049,123.612 C71.7248049,121.414 72.9988049,120.07 74.7208049,120.07 C75.5188049,120.07 76.2748049,120.406 76.8068049,121.106 L76.8068049,117.662 L78.5988049,117.662 L78.5988049,127 Z M75.2808049,125.586 C75.8688049,125.586 76.5128049,125.264 76.8068049,124.816 L76.8068049,122.422 C76.5128049,121.974 75.8688049,121.652 75.2808049,121.652 C74.2588049,121.652 73.5588049,122.45 73.5588049,123.612 C73.5588049,124.788 74.2588049,125.586 75.2808049,125.586 Z" fill="#6A668F" fill-rule="nonzero"></path>
                        <path d="M17.3708008,146 L16.3308008,146 L11.2738008,139.084 L11.2738008,146 L10.1948008,146 L10.1948008,137.329 L11.2998008,137.329 L16.2918008,144.102 L16.2918008,137.329 L17.3708008,137.329 L17.3708008,146 Z M22.3434896,146.156 C20.4324896,146.156 19.2364896,144.674 19.2364896,142.854 C19.2364896,141.034 20.4324896,139.565 22.3434896,139.565 C24.2544896,139.565 25.4504896,141.034 25.4504896,142.854 C25.4504896,144.674 24.2544896,146.156 22.3434896,146.156 Z M22.3434896,145.285 C23.6824896,145.285 24.4234896,144.141 24.4234896,142.854 C24.4234896,141.58 23.6824896,140.436 22.3434896,140.436 C21.0044896,140.436 20.2634896,141.58 20.2634896,142.854 C20.2634896,144.141 21.0044896,145.285 22.3434896,145.285 Z M31.8598672,146 L30.8848672,146 L30.8848672,137.329 L31.8598672,137.329 L31.8598672,146 Z M34.544556,138.824 C34.180556,138.824 33.881556,138.538 33.881556,138.174 C33.881556,137.81 34.180556,137.511 34.544556,137.511 C34.908556,137.511 35.194556,137.81 35.194556,138.174 C35.194556,138.538 34.908556,138.824 34.544556,138.824 Z M35.025556,146 L34.050556,146 L34.050556,139.721 L35.025556,139.721 L35.025556,146 Z M45.7702448,146 L44.7952448,146 L44.7952448,141.736 C44.7952448,140.943 44.4572448,140.436 43.6382448,140.436 C42.9882448,140.436 42.2992448,140.891 41.9742448,141.398 L41.9742448,146 L40.9992448,146 L40.9992448,141.736 C40.9992448,140.943 40.6742448,140.436 39.8422448,140.436 C39.2052448,140.436 38.5292448,140.904 38.1912448,141.411 L38.1912448,146 L37.2162448,146 L37.2162448,139.721 L38.1912448,139.721 L38.1912448,140.631 C38.4642448,140.228 39.2962448,139.565 40.2322448,139.565 C41.1812448,139.565 41.7272448,140.085 41.9092448,140.735 C42.2602448,140.163 43.1052448,139.565 44.0152448,139.565 C45.1592448,139.565 45.7702448,140.202 45.7702448,141.463 L45.7702448,146 Z M48.4549336,138.824 C48.0909336,138.824 47.7919336,138.538 47.7919336,138.174 C47.7919336,137.81 48.0909336,137.511 48.4549336,137.511 C48.8189336,137.511 49.1049336,137.81 49.1049336,138.174 C49.1049336,138.538 48.8189336,138.824 48.4549336,138.824 Z M48.9359336,146 L47.9609336,146 L47.9609336,139.721 L48.9359336,139.721 L48.9359336,146 Z M52.7256224,146.156 C51.7896224,146.156 51.3216224,145.623 51.3216224,144.687 L51.3216224,140.579 L50.2816224,140.579 L50.2816224,139.721 L51.3216224,139.721 L51.3216224,138.005 L52.3096224,138.005 L52.3096224,139.721 L53.5836224,139.721 L53.5836224,140.579 L52.3096224,140.579 L52.3096224,144.479 C52.3096224,144.947 52.5176224,145.285 52.9336224,145.285 C53.2196224,145.285 53.4666224,145.155 53.5966224,145.012 L53.8826224,145.753 C53.6356224,145.987 53.2846224,146.156 52.7256224,146.156 Z M57.1913112,146.156 C56.1513112,146.156 55.2933112,145.831 54.6563112,145.168 L55.1503112,144.466 C55.5663112,144.947 56.3593112,145.363 57.2173112,145.363 C58.1793112,145.363 58.7123112,144.908 58.7123112,144.284 C58.7123112,142.763 54.8253112,143.699 54.8253112,141.372 C54.8253112,140.384 55.6573112,139.565 57.1523112,139.565 C58.2313112,139.565 58.9853112,139.968 59.4793112,140.475 L59.0243112,141.151 C58.6473112,140.696 57.9713112,140.358 57.1523112,140.358 C56.2943112,140.358 55.7613112,140.787 55.7613112,141.346 C55.7613112,142.711 59.6483112,141.814 59.6483112,144.258 C59.6483112,145.311 58.8033112,146.156 57.1913112,146.156 Z M62.788,145.688 C62.788,146.481 62.333,147.222 61.735,147.651 L61.241,147.248 C61.657,146.975 62.034,146.468 62.086,146.039 C62.06,146.052 61.969,146.065 61.904,146.065 C61.553,146.065 61.28,145.779 61.28,145.402 C61.28,145.025 61.579,144.7 61.969,144.7 C62.411,144.7 62.788,145.064 62.788,145.688 Z M69.2883776,144.297 C69.6263776,144.843 70.3933776,145.285 71.1733776,145.285 C72.4343776,145.285 73.1883776,144.258 73.1883776,142.867 C73.1883776,141.476 72.4343776,140.436 71.1733776,140.436 C70.3933776,140.436 69.6263776,140.904 69.2883776,141.45 L69.2883776,144.297 Z M69.2883776,146 L68.3133776,146 L68.3133776,137.329 L69.2883776,137.329 L69.2883776,140.67 C69.7953776,139.981 70.5623776,139.565 71.4073776,139.565 C73.0583776,139.565 74.2023776,140.852 74.2023776,142.867 C74.2023776,144.908 73.0453776,146.156 71.4073776,146.156 C70.5233776,146.156 69.7563776,145.701 69.2883776,145.064 L69.2883776,146 Z M81.2420664,146 L80.2670664,146 L80.2670664,145.116 C79.7860664,145.662 78.9670664,146.156 78.0310664,146.156 C76.7180664,146.156 76.0290664,145.506 76.0290664,144.154 L76.0290664,139.721 L77.0040664,139.721 L77.0040664,143.855 C77.0040664,144.96 77.5630664,145.285 78.4210664,145.285 C79.1750664,145.285 79.9030664,144.843 80.2670664,144.336 L80.2670664,139.721 L81.2420664,139.721 L81.2420664,146 Z M85.0317552,146.156 C84.0957552,146.156 83.6277552,145.623 83.6277552,144.687 L83.6277552,140.579 L82.5877552,140.579 L82.5877552,139.721 L83.6277552,139.721 L83.6277552,138.005 L84.6157552,138.005 L84.6157552,139.721 L85.8897552,139.721 L85.8897552,140.579 L84.6157552,140.579 L84.6157552,144.479 C84.6157552,144.947 84.8237552,145.285 85.2397552,145.285 C85.5257552,145.285 85.7727552,145.155 85.9027552,145.012 L86.1887552,145.753 C85.9417552,145.987 85.5907552,146.156 85.0317552,146.156 Z M90.7651328,148.457 L90.9081328,147.573 C91.0511328,147.638 91.2851328,147.677 91.4411328,147.677 C91.8701328,147.677 92.1561328,147.534 92.3771328,147.014 L92.7931328,146.065 L90.1671328,139.721 L91.2331328,139.721 L93.3131328,144.869 L95.4061328,139.721 L96.4591328,139.721 L93.3131328,147.274 C92.9361328,148.184 92.2991328,148.535 91.4671328,148.548 C91.2591328,148.548 90.9341328,148.509 90.7651328,148.457 Z M100.456822,146.156 C98.5458216,146.156 97.3498216,144.674 97.3498216,142.854 C97.3498216,141.034 98.5458216,139.565 100.456822,139.565 C102.367822,139.565 103.563822,141.034 103.563822,142.854 C103.563822,144.674 102.367822,146.156 100.456822,146.156 Z M100.456822,145.285 C101.795822,145.285 102.536822,144.141 102.536822,142.854 C102.536822,141.58 101.795822,140.436 100.456822,140.436 C99.1178216,140.436 98.3768216,141.58 98.3768216,142.854 C98.3768216,144.141 99.1178216,145.285 100.456822,145.285 Z M110.60351,146 L109.62851,146 L109.62851,145.116 C109.14751,145.662 108.32851,146.156 107.39251,146.156 C106.07951,146.156 105.39051,145.506 105.39051,144.154 L105.39051,139.721 L106.36551,139.721 L106.36551,143.855 C106.36551,144.96 106.92451,145.285 107.78251,145.285 C108.53651,145.285 109.26451,144.843 109.62851,144.336 L109.62851,139.721 L110.60351,139.721 L110.60351,146 Z M20.695834,162 L19.720834,162 L19.720834,157.736 C19.720834,156.943 19.382834,156.436 18.563834,156.436 C17.913834,156.436 17.224834,156.891 16.899834,157.398 L16.899834,162 L15.924834,162 L15.924834,157.736 C15.924834,156.943 15.599834,156.436 14.767834,156.436 C14.130834,156.436 13.454834,156.904 13.116834,157.411 L13.116834,162 L12.141834,162 L12.141834,155.721 L13.116834,155.721 L13.116834,156.631 C13.389834,156.228 14.221834,155.565 15.157834,155.565 C16.106834,155.565 16.652834,156.085 16.834834,156.735 C17.185834,156.163 18.030834,155.565 18.940834,155.565 C20.084834,155.565 20.695834,156.202 20.695834,157.463 L20.695834,162 Z M27.7875228,162 L26.8125228,162 L26.8125228,161.285 C26.3055228,161.857 25.5775228,162.156 24.7325228,162.156 C23.6795228,162.156 22.5485228,161.441 22.5485228,160.076 C22.5485228,158.659 23.6665228,158.009 24.7325228,158.009 C25.5905228,158.009 26.3055228,158.282 26.8125228,158.854 L26.8125228,157.723 C26.8125228,156.891 26.1365228,156.41 25.2265228,156.41 C24.4725228,156.41 23.8615228,156.67 23.3025228,157.281 L22.8475228,156.605 C23.5235228,155.903 24.3295228,155.565 25.3565228,155.565 C26.6955228,155.565 27.7875228,156.163 27.7875228,157.684 L27.7875228,162 Z M25.0965228,161.454 C25.7725228,161.454 26.4355228,161.194 26.8125228,160.674 L26.8125228,159.478 C26.4355228,158.971 25.7725228,158.711 25.0965228,158.711 C24.1735228,158.711 23.5365228,159.283 23.5365228,160.076 C23.5365228,160.882 24.1735228,161.454 25.0965228,161.454 Z M29.6532116,164.457 L29.7962116,163.573 C29.9392116,163.638 30.1732116,163.677 30.3292116,163.677 C30.7582116,163.677 31.0442116,163.534 31.2652116,163.014 L31.6812116,162.065 L29.0552116,155.721 L30.1212116,155.721 L32.2012116,160.869 L34.2942116,155.721 L35.3472116,155.721 L32.2012116,163.274 C31.8242116,164.184 31.1872116,164.535 30.3552116,164.548 C30.1472116,164.548 29.8222116,164.509 29.6532116,164.457 Z M45.4225892,162 L44.4605892,162 L44.4605892,157.892 C44.4605892,156.774 43.8885892,156.436 43.0435892,156.436 C42.2765892,156.436 41.5615892,156.904 41.1845892,157.411 L41.1845892,162 L40.2095892,162 L40.2095892,155.721 L41.1845892,155.721 L41.1845892,156.631 C41.6265892,156.098 42.4845892,155.565 43.4335892,155.565 C44.7335892,155.565 45.4225892,156.228 45.4225892,157.593 L45.4225892,162 Z M50.473278,162.156 C48.601278,162.156 47.262278,160.817 47.262278,158.854 C47.262278,157.034 48.562278,155.565 50.356278,155.565 C52.254278,155.565 53.372278,157.047 53.372278,158.932 L53.372278,159.179 L48.302278,159.179 C48.380278,160.362 49.199278,161.35 50.551278,161.35 C51.279278,161.35 51.994278,161.064 52.501278,160.544 L52.969278,161.181 C52.332278,161.805 51.487278,162.156 50.473278,162.156 Z M52.410278,158.451 C52.397278,157.528 51.773278,156.371 50.343278,156.371 C49.004278,156.371 48.341278,157.502 48.289278,158.451 L52.410278,158.451 Z M58.0329668,162.156 C56.1609668,162.156 54.8219668,160.817 54.8219668,158.854 C54.8219668,157.034 56.1219668,155.565 57.9159668,155.565 C59.8139668,155.565 60.9319668,157.047 60.9319668,158.932 L60.9319668,159.179 L55.8619668,159.179 C55.9399668,160.362 56.7589668,161.35 58.1109668,161.35 C58.8389668,161.35 59.5539668,161.064 60.0609668,160.544 L60.5289668,161.181 C59.8919668,161.805 59.0469668,162.156 58.0329668,162.156 Z M59.9699668,158.451 C59.9569668,157.528 59.3329668,156.371 57.9029668,156.371 C56.5639668,156.371 55.9009668,157.502 55.8489668,158.451 L59.9699668,158.451 Z M68.2706556,162 L67.2956556,162 L67.2956556,161.064 C66.8276556,161.701 66.0606556,162.156 65.1766556,162.156 C63.5386556,162.156 62.3816556,160.908 62.3816556,158.867 C62.3816556,156.852 63.5386556,155.565 65.1766556,155.565 C66.0216556,155.565 66.7886556,155.981 67.2956556,156.67 L67.2956556,153.329 L68.2706556,153.329 L68.2706556,162 Z M65.4236556,161.285 C66.1906556,161.285 66.9576556,160.83 67.2956556,160.284 L67.2956556,157.45 C66.9576556,156.904 66.1906556,156.436 65.4236556,156.436 C64.1496556,156.436 63.3956556,157.476 63.3956556,158.867 C63.3956556,160.258 64.1496556,161.285 65.4236556,161.285 Z M75.6680332,162.156 C74.7320332,162.156 74.2640332,161.623 74.2640332,160.687 L74.2640332,156.579 L73.2240332,156.579 L73.2240332,155.721 L74.2640332,155.721 L74.2640332,154.005 L75.2520332,154.005 L75.2520332,155.721 L76.5260332,155.721 L76.5260332,156.579 L75.2520332,156.579 L75.2520332,160.479 C75.2520332,160.947 75.4600332,161.285 75.8760332,161.285 C76.1620332,161.285 76.4090332,161.155 76.5390332,161.012 L76.8250332,161.753 C76.5780332,161.987 76.2270332,162.156 75.6680332,162.156 Z M80.874722,162.156 C78.963722,162.156 77.767722,160.674 77.767722,158.854 C77.767722,157.034 78.963722,155.565 80.874722,155.565 C82.785722,155.565 83.981722,157.034 83.981722,158.854 C83.981722,160.674 82.785722,162.156 80.874722,162.156 Z M80.874722,161.285 C82.213722,161.285 82.954722,160.141 82.954722,158.854 C82.954722,157.58 82.213722,156.436 80.874722,156.436 C79.535722,156.436 78.794722,157.58 78.794722,158.854 C78.794722,160.141 79.535722,161.285 80.874722,161.285 Z M92.5100996,162.156 C91.6520996,162.156 90.9110996,161.74 90.3910996,161.051 L90.3910996,164.392 L89.4160996,164.392 L89.4160996,155.721 L90.3910996,155.721 L90.3910996,156.657 C90.8460996,156.02 91.6260996,155.565 92.5100996,155.565 C94.1610996,155.565 95.3050996,156.813 95.3050996,158.854 C95.3050996,160.882 94.1610996,162.156 92.5100996,162.156 Z M92.2630996,161.285 C93.5240996,161.285 94.2780996,160.245 94.2780996,158.854 C94.2780996,157.463 93.5240996,156.436 92.2630996,156.436 C91.4960996,156.436 90.7290996,156.891 90.3910996,157.437 L90.3910996,160.271 C90.7290996,160.817 91.4960996,161.285 92.2630996,161.285 Z M101.993788,162 L101.018788,162 L101.018788,161.285 C100.511788,161.857 99.7837884,162.156 98.9387884,162.156 C97.8857884,162.156 96.7547884,161.441 96.7547884,160.076 C96.7547884,158.659 97.8727884,158.009 98.9387884,158.009 C99.7967884,158.009 100.511788,158.282 101.018788,158.854 L101.018788,157.723 C101.018788,156.891 100.342788,156.41 99.4327884,156.41 C98.6787884,156.41 98.0677884,156.67 97.5087884,157.281 L97.0537884,156.605 C97.7297884,155.903 98.5357884,155.565 99.5627884,155.565 C100.901788,155.565 101.993788,156.163 101.993788,157.684 L101.993788,162 Z M99.3027884,161.454 C99.9787884,161.454 100.641788,161.194 101.018788,160.674 L101.018788,159.478 C100.641788,158.971 99.9787884,158.711 99.3027884,158.711 C98.3797884,158.711 97.7427884,159.283 97.7427884,160.076 C97.7427884,160.882 98.3797884,161.454 99.3027884,161.454 Z M103.859477,164.457 L104.002477,163.573 C104.145477,163.638 104.379477,163.677 104.535477,163.677 C104.964477,163.677 105.250477,163.534 105.471477,163.014 L105.887477,162.065 L103.261477,155.721 L104.327477,155.721 L106.407477,160.869 L108.500477,155.721 L109.553477,155.721 L106.407477,163.274 C106.030477,164.184 105.393477,164.535 104.561477,164.548 C104.353477,164.548 104.028477,164.509 103.859477,164.457 Z M25.4896784,178.156 C23.6176784,178.156 22.3566784,176.713 22.3566784,174.854 C22.3566784,172.995 23.6176784,171.565 25.4896784,171.565 C26.6336784,171.565 27.3096784,172.033 27.7906784,172.657 L27.1406784,173.242 C26.7246784,172.67 26.1916784,172.436 25.5416784,172.436 C24.2156784,172.436 23.3706784,173.463 23.3706784,174.854 C23.3706784,176.245 24.2156784,177.285 25.5416784,177.285 C26.1916784,177.285 26.7246784,177.025 27.1406784,176.466 L27.7906784,177.064 C27.3096784,177.688 26.6336784,178.156 25.4896784,178.156 Z M34.3103672,178 L33.3353672,178 L33.3353672,177.285 C32.8283672,177.857 32.1003672,178.156 31.2553672,178.156 C30.2023672,178.156 29.0713672,177.441 29.0713672,176.076 C29.0713672,174.659 30.1893672,174.009 31.2553672,174.009 C32.1133672,174.009 32.8283672,174.282 33.3353672,174.854 L33.3353672,173.723 C33.3353672,172.891 32.6593672,172.41 31.7493672,172.41 C30.9953672,172.41 30.3843672,172.67 29.8253672,173.281 L29.3703672,172.605 C30.0463672,171.903 30.8523672,171.565 31.8793672,171.565 C33.2183672,171.565 34.3103672,172.163 34.3103672,173.684 L34.3103672,178 Z M31.6193672,177.454 C32.2953672,177.454 32.9583672,177.194 33.3353672,176.674 L33.3353672,175.478 C32.9583672,174.971 32.2953672,174.711 31.6193672,174.711 C30.6963672,174.711 30.0593672,175.283 30.0593672,176.076 C30.0593672,176.882 30.6963672,177.454 31.6193672,177.454 Z M39.608056,178.156 C38.750056,178.156 38.009056,177.74 37.489056,177.051 L37.489056,180.392 L36.514056,180.392 L36.514056,171.721 L37.489056,171.721 L37.489056,172.657 C37.944056,172.02 38.724056,171.565 39.608056,171.565 C41.259056,171.565 42.403056,172.813 42.403056,174.854 C42.403056,176.882 41.259056,178.156 39.608056,178.156 Z M39.361056,177.285 C40.622056,177.285 41.376056,176.245 41.376056,174.854 C41.376056,173.463 40.622056,172.436 39.361056,172.436 C38.594056,172.436 37.827056,172.891 37.489056,173.437 L37.489056,176.271 C37.827056,176.817 38.594056,177.285 39.361056,177.285 Z M44.6847448,170.824 C44.3207448,170.824 44.0217448,170.538 44.0217448,170.174 C44.0217448,169.81 44.3207448,169.511 44.6847448,169.511 C45.0487448,169.511 45.3347448,169.81 45.3347448,170.174 C45.3347448,170.538 45.0487448,170.824 44.6847448,170.824 Z M45.1657448,178 L44.1907448,178 L44.1907448,171.721 L45.1657448,171.721 L45.1657448,178 Z M48.9554336,178.156 C48.0194336,178.156 47.5514336,177.623 47.5514336,176.687 L47.5514336,172.579 L46.5114336,172.579 L46.5114336,171.721 L47.5514336,171.721 L47.5514336,170.005 L48.5394336,170.005 L48.5394336,171.721 L49.8134336,171.721 L49.8134336,172.579 L48.5394336,172.579 L48.5394336,176.479 C48.5394336,176.947 48.7474336,177.285 49.1634336,177.285 C49.4494336,177.285 49.6964336,177.155 49.8264336,177.012 L50.1124336,177.753 C49.8654336,177.987 49.5144336,178.156 48.9554336,178.156 Z M56.3201224,178 L55.3451224,178 L55.3451224,177.285 C54.8381224,177.857 54.1101224,178.156 53.2651224,178.156 C52.2121224,178.156 51.0811224,177.441 51.0811224,176.076 C51.0811224,174.659 52.1991224,174.009 53.2651224,174.009 C54.1231224,174.009 54.8381224,174.282 55.3451224,174.854 L55.3451224,173.723 C55.3451224,172.891 54.6691224,172.41 53.7591224,172.41 C53.0051224,172.41 52.3941224,172.67 51.8351224,173.281 L51.3801224,172.605 C52.0561224,171.903 52.8621224,171.565 53.8891224,171.565 C55.2281224,171.565 56.3201224,172.163 56.3201224,173.684 L56.3201224,178 Z M53.6291224,177.454 C54.3051224,177.454 54.9681224,177.194 55.3451224,176.674 L55.3451224,175.478 C54.9681224,174.971 54.3051224,174.711 53.6291224,174.711 C52.7061224,174.711 52.0691224,175.283 52.0691224,176.076 C52.0691224,176.882 52.7061224,177.454 53.6291224,177.454 Z M59.4988112,178 L58.5238112,178 L58.5238112,169.329 L59.4988112,169.329 L59.4988112,178 Z M67.8191888,180.548 C66.7661888,180.548 66.0381888,180.34 65.2841888,179.599 L65.7781888,178.897 C66.2981888,179.508 66.9221888,179.742 67.8191888,179.742 C68.8591888,179.742 69.8471888,179.235 69.8471888,177.909 L69.8471888,176.96 C69.3791888,177.597 68.6121888,178.078 67.7281888,178.078 C66.0901888,178.078 64.9331888,176.856 64.9331888,174.828 C64.9331888,172.813 66.0771888,171.565 67.7281888,171.565 C68.5731888,171.565 69.3401888,171.981 69.8471888,172.67 L69.8471888,171.721 L70.8221888,171.721 L70.8221888,177.909 C70.8221888,179.898 69.3531888,180.548 67.8191888,180.548 Z M67.9751888,177.207 C68.7421888,177.207 69.4961888,176.739 69.8471888,176.193 L69.8471888,173.437 C69.4961888,172.904 68.7421888,172.436 67.9751888,172.436 C66.7011888,172.436 65.9471888,173.437 65.9471888,174.828 C65.9471888,176.206 66.7011888,177.207 67.9751888,177.207 Z M77.9138776,178 L76.9388776,178 L76.9388776,177.285 C76.4318776,177.857 75.7038776,178.156 74.8588776,178.156 C73.8058776,178.156 72.6748776,177.441 72.6748776,176.076 C72.6748776,174.659 73.7928776,174.009 74.8588776,174.009 C75.7168776,174.009 76.4318776,174.282 76.9388776,174.854 L76.9388776,173.723 C76.9388776,172.891 76.2628776,172.41 75.3528776,172.41 C74.5988776,172.41 73.9878776,172.67 73.4288776,173.281 L72.9738776,172.605 C73.6498776,171.903 74.4558776,171.565 75.4828776,171.565 C76.8218776,171.565 77.9138776,172.163 77.9138776,173.684 L77.9138776,178 Z M75.2228776,177.454 C75.8988776,177.454 76.5618776,177.194 76.9388776,176.674 L76.9388776,175.478 C76.5618776,174.971 75.8988776,174.711 75.2228776,174.711 C74.2998776,174.711 73.6628776,175.283 73.6628776,176.076 C73.6628776,176.882 74.2998776,177.454 75.2228776,177.454 Z M80.6115664,170.824 C80.2475664,170.824 79.9485664,170.538 79.9485664,170.174 C79.9485664,169.81 80.2475664,169.511 80.6115664,169.511 C80.9755664,169.511 81.2615664,169.81 81.2615664,170.174 C81.2615664,170.538 80.9755664,170.824 80.6115664,170.824 Z M81.0925664,178 L80.1175664,178 L80.1175664,171.721 L81.0925664,171.721 L81.0925664,178 Z M88.4962552,178 L87.5342552,178 L87.5342552,173.892 C87.5342552,172.774 86.9622552,172.436 86.1172552,172.436 C85.3502552,172.436 84.6352552,172.904 84.2582552,173.411 L84.2582552,178 L83.2832552,178 L83.2832552,171.721 L84.2582552,171.721 L84.2582552,172.631 C84.7002552,172.098 85.5582552,171.565 86.5072552,171.565 C87.8072552,171.565 88.4962552,172.228 88.4962552,173.593 L88.4962552,178 Z M92.701944,178.156 C91.661944,178.156 90.803944,177.831 90.166944,177.168 L90.660944,176.466 C91.076944,176.947 91.869944,177.363 92.727944,177.363 C93.689944,177.363 94.222944,176.908 94.222944,176.284 C94.222944,174.763 90.335944,175.699 90.335944,173.372 C90.335944,172.384 91.167944,171.565 92.662944,171.565 C93.741944,171.565 94.495944,171.968 94.989944,172.475 L94.534944,173.151 C94.157944,172.696 93.481944,172.358 92.662944,172.358 C91.804944,172.358 91.271944,172.787 91.271944,173.346 C91.271944,174.711 95.158944,173.814 95.158944,176.258 C95.158944,177.311 94.313944,178.156 92.701944,178.156 Z M97.5056328,178.13 C97.1156328,178.13 96.7906328,177.805 96.7906328,177.415 C96.7906328,177.025 97.1156328,176.7 97.5056328,176.7 C97.8956328,176.7 98.2206328,177.025 98.2206328,177.415 C98.2206328,177.805 97.8956328,178.13 97.5056328,178.13 Z" id="Nolimits,butyoumayneedtopaycapitalgains." fill="#6A668F" fill-rule="nonzero"></path>
                    </g>
                    <path d="M189.286797,84 L186.794797,84 L183.196797,74.662 L185.450797,74.662 L188.040797,81.83 L190.630797,74.662 L192.884797,74.662 L189.286797,84 Z M197.344,84.168 C195.538,84.168 194.25,83.566 193.368,82.684 L194.46,81.13 C195.118,81.816 196.14,82.404 197.428,82.404 C198.534,82.404 199.052,81.914 199.052,81.368 C199.052,79.744 193.676,80.878 193.676,77.364 C193.676,75.81 195.02,74.522 197.218,74.522 C198.702,74.522 199.934,74.97 200.858,75.824 L199.752,77.308 C198.996,76.608 197.988,76.286 197.036,76.286 C196.196,76.286 195.72,76.65 195.72,77.21 C195.72,78.68 201.082,77.686 201.082,81.172 C201.082,82.88 199.85,84.168 197.344,84.168 Z" id="VS" fill="#6A668F" fill-rule="nonzero"></path>
                </g>
            </g>
        </g>
    </g>
</svg>