<?xml version="1.0" encoding="UTF-8"?>
<svg width="40px" height="40px" viewBox="0 0 40 40" version="1.1" xmlns="http://www.w3.org/2000/svg" xmlns:xlink="http://www.w3.org/1999/xlink">
    <!-- Generator: Sketch 57.1 (83088) - https://sketch.com -->
    <title>Shape</title>
    <desc>Created with Sketch.</desc>
    <g id="Page-1" stroke="none" stroke-width="1" fill="none" fill-rule="evenodd">
        <g id="invest-in-your-goals" transform="translate(-860.000000, -4545.000000)" fill="#BD4D9C" fill-rule="nonzero" stroke="#BF4A9D" stroke-width="0.6">
            <g id="Pros" transform="translate(160.000000, 4524.000000)">
                <g id="Content---Location" transform="translate(582.000000, 0.000000)">
                    <g id="Content---Security-1">
                        <g id="icon/read-only" transform="translate(96.000000, 0.000000)">
                            <g id="location" transform="translate(23.000000, 22.000000)">
                                <path d="M37.892298,17.5564453 C37.9142086,17.4970703 37.9268614,17.4349121 37.9296388,17.371517 C37.9296388,17.3047201 37.9188377,17.2382324 37.8981614,17.1748372 L37.8494023,17.0366048 C37.33342,12.039209 34.8578157,7.45187173 30.9666547,4.28396808 C30.6886045,4.05698244 30.3979015,3.85195312 30.1071985,3.64166667 C30.0926942,3.6296061 30.0849792,3.61259762 30.0692405,3.60115558 C30.0535018,3.58971354 30.0408491,3.59095052 30.0275793,3.58260089 C26.8104047,1.27161458 22.9534986,0.0256673375 18.9950624,0.0182454625 C18.8321206,0.0182454625 18.668253,0.0182454625 18.5463552,0.0309244792 C16.4349012,0.0720540167 14.3462838,0.474690775 12.370306,1.22151697 C10.6572571,-0.117513021 8.33194194,-0.360270163 6.38003504,0.596223958 C4.42812823,1.55271808 3.19156059,3.54116213 3.19464657,5.71824546 C3.23260462,6.44249673 3.40048404,7.15375975 3.69087838,7.81770833 C3.04590051,8.70122068 2.47807306,9.63854167 1.99387667,10.6197754 C1.98431007,10.6349284 1.9787552,10.6513184 1.97042293,10.6670899 C-2.51047624,19.9515462 1.2180516,31.1230143 10.3714917,35.8377604 C19.5246232,40.5528158 30.7602001,37.0895833 35.6867204,28.0345866 C37.0359278,25.5436198 37.8028034,22.7780436 37.9290215,19.9469076 C37.948772,19.6413737 37.9555613,19.3299642 37.9555613,19.0182455 C37.9555613,18.527474 37.930256,18.0410319 37.892298,17.5564453 Z M36.0558082,14.3062826 C35.9755717,14.234847 35.9015073,14.1522786 35.8175676,14.0864095 C34.991749,13.4580241 34.0557595,12.9895182 33.0580496,12.7053222 C32.1495257,12.4767903 31.1999578,12.4668945 30.2868049,12.6762533 C29.5100539,12.8525228 28.7046031,12.856543 27.9260005,12.6880045 C26.4150858,12.3574219 25.2211051,12.0967285 24.5878541,11.0833333 C23.6808732,9.6264811 24.1061265,7.57897135 25.063101,6.85843095 C25.3784921,6.64041339 25.767639,6.55722656 26.1444419,6.62711593 C26.8147252,6.68216146 27.488403,6.56835938 28.1037552,6.29653318 C28.7586084,5.9891439 29.3403229,5.5453776 29.8103236,4.99430343 C29.9297524,5.08676756 30.0559706,5.16995447 30.1729307,5.26551109 C33.0250293,7.5922689 35.0812435,10.7527507 36.0558082,14.3062826 Z M8.88279626,1.28491213 C11.3247628,1.28893229 13.3032095,3.27150067 13.3069127,5.71824546 C13.3069127,7.61267902 10.4674669,11.9498372 8.88279626,14.1485677 C7.38021377,12.113737 6.07451923,9.93974613 4.98392026,7.65628259 C4.68673664,7.0498535 4.50836472,6.39208988 4.45867983,5.71824546 C4.46145723,3.27088214 6.44052109,1.28769531 8.88279626,1.28491213 Z M1.29859667,19.0182455 C1.30106549,17.8381673 1.41987719,16.6608724 1.6531802,15.5039877 C1.72076403,16.3844076 1.83525535,17.1677246 1.93771117,17.8471354 C2.32932692,20.4438639 2.69934059,22.8918457 4.60927755,25.1304688 C5.40793919,26.0736653 6.74541966,27.6505045 8.81336086,27.8836751 C10.881302,28.1168457 13.4707803,26.924707 14.2188312,26.5536132 L14.5058309,26.4085775 C14.9033101,26.1577799 15.3575721,26.0121257 15.8263384,25.9849121 C16.6259258,26.0575847 17.3665703,26.4367187 17.8942795,27.0431478 C18.972843,28.2396159 19.2465729,30.2373372 18.4800059,31.3181478 C18.2343588,31.6391439 17.8952053,31.8754069 17.5091443,31.9941569 C16.8484278,32.2155762 16.2867723,32.6642903 15.9241651,33.2608236 C15.3899754,34.2299967 15.2906055,35.3806966 15.6510525,36.4274903 C7.32744283,34.8113769 1.31155791,27.5144368 1.29859667,19.0182455 Z M18.9950624,36.7515805 C18.3843392,36.7515805 17.7742334,36.7200358 17.1665963,36.6572591 C17.1147512,36.5907715 17.0666093,36.5215007 17.0224792,36.4494466 C16.5953742,35.6577799 16.5907452,34.7043783 17.0104437,33.9086914 C17.2385005,33.545638 17.5918496,33.2793783 18.0029073,33.1606283 C18.6056068,32.9525066 19.1314644,32.5656413 19.5101189,32.0516764 C20.6093588,30.5026693 20.2982881,27.819043 18.8339722,26.195817 C18.0723427,25.3231283 16.9947051,24.7912272 15.8402254,24.7182455 L15.8121427,24.7182455 C15.1464884,24.7383464 14.4978073,24.9319336 13.9293626,25.2801432 L13.6596446,25.4168295 C12.2786512,26.0990234 10.3137831,26.7734863 8.95377473,26.6201009 C7.38422557,26.4441406 6.29424376,25.1570638 5.57118956,24.3047851 C3.8948642,22.34139 3.56682047,20.1689453 3.18785729,17.6547851 C2.78112006,15.5039876 2.76507277,13.297526 3.13971548,11.1408528 C3.47825171,10.4540202 3.86060945,9.78976235 4.28493696,9.15209963 C4.30592189,9.19415692 4.32906705,9.23714197 4.34820032,9.27888995 C4.38862719,9.3592936 4.43028846,9.4390788 4.47441855,9.51948244 C4.53768191,9.63916012 4.60094528,9.75883787 4.66420864,9.87944338 C4.70772156,9.96046547 4.75185165,10.0414876 4.79690748,10.1231283 C4.86387407,10.2434245 4.9314579,10.3637207 4.99965889,10.484017 C5.04533197,10.5638021 5.09069647,10.6438965 5.13698679,10.7236816 C5.20734793,10.8439778 5.27770924,10.9636556 5.34868763,11.0833333 C5.39528653,11.1618815 5.44157677,11.2398112 5.48879284,11.3177409 C5.56347453,11.444222 5.63877339,11.5626628 5.71407225,11.6848144 C5.75696793,11.7540853 5.79924636,11.8242839 5.84029039,11.8926269 C5.93379678,12.0429199 6.02668592,12.1885743 6.11957514,12.336084 C6.14426329,12.3741211 6.16895144,12.4140137 6.19302235,12.4514323 C6.30874807,12.6311035 6.42354797,12.8064453 6.53618763,12.9774577 C6.57908331,13.0408528 6.62074458,13.1042481 6.66271444,13.1676432 C6.73214984,13.272168 6.80158524,13.3766927 6.86916907,13.4765788 L7.01914954,13.6964518 C7.07346347,13.7768555 7.12839464,13.8572591 7.18147416,13.9339518 L7.33299762,14.1522786 C7.37990511,14.2203125 7.42681259,14.2868001 7.47155992,14.3505045 C7.51630717,14.4145182 7.56691788,14.4868815 7.61382536,14.5521321 C7.66042427,14.6173828 7.69221028,14.6628418 7.72955109,14.7154134 L7.85576923,14.8901368 L7.9588423,15.033317 L8.05944647,15.172168 L8.1415346,15.2834961 L8.21868503,15.3886393 L8.26466669,15.4520345 C8.32114085,15.5287272 8.36403653,15.5862467 8.37607202,15.6020182 C8.49519231,15.7615885 8.68251366,15.855599 8.88156185,15.855599 C9.08061004,15.855599 9.26793139,15.7615885 9.38705168,15.6020182 C9.91753831,14.8972493 14.5709459,8.64555662 14.5709459,5.71824546 C14.5709459,5.53331704 14.5595277,5.34962567 14.5419373,5.1671712 C14.5363825,5.11088869 14.5274331,5.0546061 14.5203352,4.99832359 C14.5039794,4.87153318 14.4845374,4.74474286 14.4573805,4.61826176 C14.445345,4.55486652 14.4320751,4.49549152 14.418188,4.43457031 C14.3888708,4.30777991 14.3549246,4.18129881 14.3163494,4.05450848 C14.3006107,4.00379234 14.2873408,3.95245766 14.2706763,3.90266927 C14.2138936,3.7328939 14.150013,3.56497396 14.0774915,3.40169271 C14.0636045,3.370459 14.04694,3.33829755 14.0324357,3.30984702 C13.9691723,3.1781087 13.9062176,3.04760744 13.8333874,2.92019859 C13.8019101,2.86329755 13.7670381,2.80825193 13.7330918,2.75227865 C13.6722973,2.65239256 13.6090339,2.55405275 13.5433018,2.45725907 C13.5041093,2.40097656 13.4642997,2.34469405 13.4232556,2.28933921 C13.4016535,2.26150714 13.3834459,2.23181964 13.3599922,2.2046061 C14.6749448,1.76083988 16.0386564,1.47757157 17.4215014,1.36098631 C16.4361357,3.22480469 16.1142639,4.94884442 16.4821173,6.49104822 C16.7564644,7.52392574 17.2770757,8.4748535 17.9992041,9.26188155 C18.5938799,9.99973958 19.0216022,10.5316406 18.9950624,11.4 C18.9407484,13.2366048 16.8709557,14.7655111 16.0877242,15.3431804 C15.0603885,16.0844401 13.9120809,16.640153 12.6940294,16.9858887 C11.5460304,17.3616211 10.555727,17.6857097 10.1770725,18.8181641 C9.80273842,20.3136719 10.4174733,21.8827799 11.7074292,22.7233073 C12.4804768,23.1417155 13.3914696,23.2224284 14.225929,22.9462728 C15.1400078,22.7335124 16.0849467,22.6880534 17.0150728,22.812679 C18.2158427,22.9830729 19.251202,23.1293457 19.7421875,23.8183431 C20.0335076,24.2299479 20.0183862,24.6554687 19.9616034,25.4360026 C19.8319906,26.5409342 19.9440131,27.6610189 20.2893386,28.7183268 C20.5775728,29.5848307 21.01301,30.8932455 22.0591703,31.0441569 C22.1270627,31.0549805 22.195881,31.0605469 22.2643906,31.0605469 C23.0047265,31.0605469 23.457754,30.4055664 23.9342353,29.716569 C24.1447018,29.4119629 24.3767704,29.0832357 24.6548207,28.7532715 C25.9555776,30.8592285 27.2770108,32.6166667 27.3384226,32.7001628 C27.4578515,32.859733 27.6451729,32.9534342 27.8439124,32.9534342 C28.0429606,32.9534342 28.230282,32.859733 28.3497109,32.7001628 C29.720829,30.8601562 30.9706666,28.9317057 32.0905828,26.9281087 C32.8670251,27.1535482 33.6064352,27.4912434 34.2853593,27.9306804 C31.1231159,33.3931804 25.2970212,36.754362 18.9950624,36.7515805 L18.9950624,36.7515805 Z M30.7916775,19.5167481 C31.730753,20.3560384 32.2677202,21.5571452 32.2674118,22.8182455 C32.2674118,23.273763 32.0828677,24.1767578 31.2064384,25.8918295 C30.2059511,27.7500814 29.0826403,29.5387533 27.8432952,31.2460937 C27.2486194,30.4157715 26.2252956,28.9419108 25.3096739,27.3929036 C24.7992464,26.5437174 24.3434414,25.6632975 23.9444192,24.7562826 C23.6472356,24.1498535 23.4688637,23.4920899 23.4191788,22.8182455 C23.4219562,20.3708821 25.40102,18.3876953 27.8432952,18.3849121 C27.9800059,18.3849121 28.115482,18.391097 28.2503411,18.4034668 C29.19528,18.4891276 30.0871394,18.880013 30.7916775,19.5167481 L30.7916775,19.5167481 Z M36.6693087,19.8816569 C36.5603723,22.2906738 35.9545868,24.6508301 34.8896017,26.8133789 C34.1970991,26.3745606 33.4508998,26.0263509 32.6701371,25.7770996 C33.1583453,24.8614257 33.4518257,23.853597 33.5314449,22.8182455 C33.5261987,20.6448731 32.2930256,18.6619955 30.347908,17.6996257 L30.3080984,17.6819987 C30.1667587,17.6136556 30.0232588,17.549642 29.8766729,17.4921224 C29.7760688,17.4528483 29.6717613,17.422233 29.5686883,17.3894531 C29.5054249,17.3702799 29.4486421,17.3464681 29.3872304,17.326058 C29.2242886,17.2796712 29.0585693,17.2419434 28.8919244,17.2107097 L28.8835921,17.2107097 C28.7826793,17.1918457 28.6802235,17.1816406 28.5777677,17.1683431 C26.9526702,16.9429036 25.3099825,17.4367676 24.077118,18.5212891 C22.8439449,19.6061198 22.1424929,21.1743002 22.1551455,22.8182455 C22.2042132,23.6624837 22.4168399,24.4894043 22.7809901,25.2523112 C23.1352651,26.0606771 23.5349045,26.8483236 23.9780568,27.6112305 C23.5830464,28.0444824 23.221365,28.5068034 22.89579,28.9944824 C22.7220471,29.2929036 22.5026313,29.5619466 22.2455659,29.7920247 C22.1190391,29.7728516 21.8848103,29.5025716 21.4870225,28.3175455 C21.1969367,27.4179525 21.1058992,26.4654785 21.2210076,25.5272298 C21.3851838,24.6845378 21.2237851,23.8109212 20.7698318,23.082959 C19.9628378,21.9520507 18.5540703,21.7528972 17.1832608,21.5580729 C16.1176585,21.4121094 15.034466,21.4609701 13.986454,21.7018717 C13.1779171,21.8568034 12.8026573,21.9146321 12.373392,21.646517 C11.5892346,21.1078125 11.1973103,20.1550293 11.3747564,19.2189453 C11.5435616,18.7124024 12.04936,18.5293295 13.0813247,18.1897786 C14.4289891,17.8022949 15.6991944,17.1838054 16.8360837,16.3615234 C17.7569517,15.6845866 20.185957,13.8881836 20.2590956,11.4374186 C20.2995225,10.0965332 19.630165,9.26930343 18.9830269,8.46959635 C18.3849565,7.82760417 17.9498278,7.05109048 17.714056,6.20530595 C17.3782971,4.79422203 17.7942925,3.13945312 18.9225409,1.28491213 L18.9950624,1.28491213 C22.4745485,1.28986005 25.8759583,2.32026369 28.7755815,4.24778646 C28.4407484,4.62166339 28.0355542,4.92534182 27.5828352,5.14150387 C27.1421518,5.33261719 26.6604243,5.40807292 26.1823999,5.36106771 C25.5176715,5.27880863 24.846771,5.45167641 24.3039404,5.84503579 C22.8707933,6.92615558 22.2285928,9.68307292 23.516697,11.7534668 C24.4335532,13.2208333 25.9997076,13.562858 27.7099792,13.9364257 C28.6305386,14.13125 29.5819581,14.1272298 30.5009745,13.9243653 C31.238533,13.7480957 32.0075689,13.7502604 32.7438929,13.9314778 C33.5724889,14.1708333 34.3501657,14.5611003 35.0383479,15.0821778 C35.7530698,15.676237 36.2949747,16.4518229 36.6075884,17.3279134 C36.6594335,17.8873372 36.6915281,18.4483073 36.6915281,19.0182455 C36.6915281,19.3015137 36.6859733,19.5881836 36.6668399,19.8816569 L36.6693087,19.8816569 Z" id="Shape"></path>
                            </g>
                        </g>
                    </g>
                </g>
            </g>
        </g>
    </g>
</svg>