<?xml version="1.0" encoding="UTF-8"?>
<svg width="103px" height="30px" viewBox="0 0 103 30" version="1.1" xmlns="http://www.w3.org/2000/svg" xmlns:xlink="http://www.w3.org/1999/xlink">
    <!-- Generator: Sketch 52.6 (67491) - http://www.bohemiancoding.com/sketch -->
    <desc>Created with Sketch.</desc>
    <g id="Page-1" stroke="none" stroke-width="1" fill="none" fill-rule="evenodd">
        <g id="22seven-horizontal-logo-colour" fill="#FFFFFF">
            <path d="M5.33897318,21.8214403 L1.68189385,21.8214403 L1.68189385,24.2397238 L4.95135784,24.2397238 L4.95135784,24.9348898 L1.68189385,24.9348898 L1.68189385,27.8835909 L1,27.8835909 L1,21.1157514 L5.33897318,21.1157514 L5.33897318,21.8214403 L5.33897318,21.8214403 Z M11.6508014,27.8835909 L9.79595501,25.1183821 C10.7453748,24.9256823 11.4352944,24.2683328 11.4352944,23.1364683 C11.4352944,21.9187767 10.580995,21.1157514 9.25317464,21.1157514 L6.65638971,21.1157514 L6.65638971,27.8835909 L7.33828355,27.8835909 L7.33828355,25.2538639 L9.06352849,25.2538639 L10.8140398,27.8835909 L11.6508014,27.8835909 L11.6508014,27.8835909 Z M10.7453748,23.165735 C10.7453748,24.0447221 10.0982593,24.5682341 9.19223818,24.5682341 L7.33828355,24.5682341 L7.33828355,21.8214403 L9.20145296,21.8214403 C10.1758418,21.8214403 10.7453748,22.3248931 10.7453748,23.165735 L10.7453748,23.165735 L10.7453748,23.165735 Z M15.6946043,28 C13.8572957,28 12.6240012,26.3850707 12.6240012,24.5093719 C12.6240012,22.6353173 13.874239,21 15.7121421,21 C17.5491534,21 18.7836369,22.6142716 18.7836369,24.4912858 C18.7836369,26.3666557 17.5316156,28 15.6946043,28 L15.6946043,28 L15.6946043,28 Z M15.6946043,21.7060178 C14.3150623,21.7060178 13.3305669,22.9437685 13.3305669,24.4912858 C13.3305669,26.0374877 14.3317084,27.2952976 15.7121421,27.2952976 C17.0916841,27.2952976 18.0752877,26.0568892 18.0752877,24.5093719 C18.0752877,22.9625123 17.075038,21.7060178 15.6946043,21.7060178 L15.6946043,21.7060178 L15.6946043,21.7060178 Z M25.3184034,22.4018415 L25.3184034,27.8835909 L26,27.8835909 L26,21.1157514 L25.3109721,21.1157514 L23.1098283,24.8092733 L20.9101707,21.1157514 L20.2211429,21.1157514 L20.2211429,27.8835909 L20.8849044,27.8835909 L20.8849044,22.4117067 L23.084562,26.0276225 L23.1187458,26.0276225 L25.3184034,22.4018415 L25.3184034,22.4018415 Z" id="From"></path>
            <path d="M51.6582954,24.5179621 L51.6582954,24.4996734 C51.6582954,22.9640758 50.6181293,21.706401 49.1857192,21.706401 C47.7536153,21.706401 46.7351895,22.9412149 46.7351895,24.4800784 L46.7351895,24.4996734 C46.7351895,26.0398432 47.7750494,27.2916395 49.2025603,27.2916395 C50.6355827,27.2916395 51.6582954,26.0555193 51.6582954,24.5179621 L51.6582954,24.5179621 L51.6582954,24.5179621 Z M46,24.5179621 L46,24.4996734 C46,22.6348792 47.2958443,21 49.2025603,21 C51.1117259,21 52.3916477,22.6143044 52.3916477,24.4800784 C52.3986903,24.4918354 52.3986903,24.4918354 52.3916477,24.4996734 C52.3916477,26.3651208 51.0961096,28 49.1857192,28 C47.2808404,28 46,26.3863488 46,24.5179621 L46,24.5179621 L46,24.5179621 Z M53.5255114,27.887002 L57.7618076,27.887002 L57.7618076,27.1783148 L54.2358986,27.1783148 L54.2358986,21.116917 L53.5255114,21.116917 L53.5255114,27.887002 L53.5255114,27.887002 Z M61.1110383,27.1783148 C62.6928746,27.1783148 63.7054826,26.0202482 63.7054826,24.5179621 L63.7054826,24.4996734 C63.7054826,23.0029393 62.6928746,21.8203788 61.1110383,21.8203788 L59.6428027,21.8203788 L59.6428027,27.1783148 L61.1110383,27.1783148 L61.1110383,27.1783148 Z M58.933334,21.116917 L61.1110383,21.116917 C63.0820566,21.116917 64.4394473,22.5754409 64.4394473,24.4800784 L64.4394473,24.4996734 C64.4394473,26.4072502 63.0820566,27.887002 61.1110383,27.887002 L58.933334,27.887002 L58.933334,21.116917 L58.933334,21.116917 Z M65.7995939,27.887002 L67.1557598,27.887002 L67.1557598,23.4951012 L68.8980457,26.3572828 L68.9311154,26.3572828 L70.6960602,23.4663619 L70.6960602,27.887002 L72.064168,27.887002 L72.064168,21.116917 L70.5778665,21.116917 L68.9311154,23.9817113 L67.2874264,21.116917 L65.7995939,21.116917 L65.7995939,27.887002 L65.7995939,27.887002 L65.7995939,27.887002 Z M73.0694271,24.9826911 L73.0694271,21.116917 L74.4491706,21.116917 L74.4491706,24.9448073 C74.4491706,26.0489876 74.9559339,26.6214892 75.7979877,26.6214892 C76.6388167,26.6214892 77.1498668,26.0689092 77.1498668,24.996081 L77.1498668,21.116917 L78.5286916,21.116917 L78.5286916,24.93403 C78.5286916,26.9872632 77.4640294,27.9928152 75.7823714,27.9928152 C74.100101,27.9928152 73.0694271,26.9777923 73.0694271,24.9826911 L73.0694271,24.9826911 L73.0694271,24.9826911 Z M81.3016513,27.887002 L82.6804762,27.887002 L82.6804762,22.4856303 L84.5927038,22.4856303 L84.5927038,21.116917 L79.3946291,21.116917 L79.3946291,22.4856303 L81.3016513,22.4856303 L81.3016513,27.887002 L81.3016513,27.887002 Z M85.5030405,24.9826911 L85.5030405,21.116917 L86.8772723,21.116917 L86.8772723,24.9448073 C86.8772723,26.0489876 87.3926093,26.6214892 88.2331321,26.6214892 C89.0764107,26.6214892 89.5822554,26.0689092 89.5822554,24.996081 L89.5822554,21.116917 L90.963836,21.116917 L90.963836,24.93403 C90.963836,26.9872632 89.8967242,27.9928152 88.2144538,27.9928152 C86.5294276,27.9928152 85.5030405,26.9777923 85.5030405,24.9826911 L85.5030405,24.9826911 L85.5030405,24.9826911 Z M93.5386834,25.0558459 L94.372776,22.8569562 L95.2047252,25.0558459 L93.5386834,25.0558459 L93.5386834,25.0558459 Z M91.0697817,27.887002 L92.4749398,27.887002 L93.0463116,26.3651208 L95.6964846,26.3651208 L96.268775,27.887002 L97.7112897,27.887002 L95.0262098,21.0662965 L93.7536368,21.0662965 L91.0697817,27.887002 L91.0697817,27.887002 Z M98.5015955,21.116917 L99.8746025,21.116917 L99.8746025,26.5316786 L103,26.5316786 L103,27.887002 L98.5015955,27.887002 L98.5015955,21.116917 L98.5015955,21.116917 Z" id="OM"></path>
            <path d="M35.1364917,21.2070184 C35.1364917,21.5271656 35.2991971,21.8003436 35.5461796,21.9547485 C35.072154,21.9928098 35.3010581,22.6109693 35.6490668,22.6050307 C35.6820333,22.9294969 35.7009092,23.6742577 35.7009092,24.0829448 C35.7009092,25.6048589 35.4980592,27.4598773 34.9923964,27.9635828 C34.6268411,27.9948957 34.1966821,27.9417178 33.746052,27.8194356 C33.2637848,27.685816 32.8506407,27.4841718 32.5472962,27.2555337 C32.1793481,27.3043926 31.860318,27.4026503 31.612272,27.5343804 C32.1711065,28.0291779 32.7894933,28.495362 33.4746105,28.8991902 C34.2724517,29.3740123 35.0958154,29.7440982 35.9034934,30 L36.0531717,30 C36.8648376,29.7440982 37.6831499,29.3740123 38.4841814,28.8991902 C39.1692987,28.495362 39.7882172,28.0291779 40.3412027,27.5343804 C40.0990057,27.4056196 39.7799755,27.3043926 39.4133567,27.2555337 C39.1023023,27.4841718 38.6963365,27.685816 38.2100814,27.8194356 C37.7613123,27.9417178 37.3276971,27.9948957 36.9671931,27.9635828 C36.4594034,27.4598773 36.2552241,25.6048589 36.2552241,24.0829448 C36.2552241,23.6742577 36.2727708,22.9294969 36.3102568,22.6050307 C36.6518849,22.6109693 36.886638,21.9928098 36.4096879,21.9547485 C36.6595948,21.8003436 36.8270857,21.5271656 36.8270857,21.2070184 C36.8270857,20.7257178 36.4474398,20.3345767 35.977402,20.3345767 C35.5105546,20.3345767 35.1364917,20.7257178 35.1364917,21.2070184 L35.1364917,21.2070184 Z M35.5895145,21.2070184 C35.5895145,20.9832393 35.7609932,20.8023804 35.977402,20.8023804 C36.1956718,20.8023804 36.3684798,20.9832393 36.3684798,21.2070184 C36.3684798,21.4297178 36.1956718,21.6097669 35.977402,21.6097669 C35.7625884,21.6097669 35.5895145,21.4297178 35.5895145,21.2070184 L35.5895145,21.2070184 Z M33.4778008,19.972589 C32.6517786,20.4600982 31.9121604,21.0272393 31.2794172,21.6432393 C31.1411708,22.2433129 31.0473228,22.8838773 31,23.5433374 L31,25.2941595 C31.0353592,25.8043436 31.1010262,26.2975215 31.1898229,26.7742331 C31.4285638,26.6219877 31.6694316,26.3890307 31.8932844,26.0866994 C31.8531398,25.696638 31.8906258,25.2331534 32.0190355,24.7348466 C32.1392035,24.271092 32.3085553,23.8640245 32.5164566,23.5517055 C33.0742277,23.3870429 34.2974424,23.8640245 35.4260116,24.4584294 C35.4260116,24.3291288 35.4310629,24.2106258 35.4310629,24.0829448 C35.4310629,23.9814479 35.4310629,23.8597055 35.4260116,23.7271656 C34.4750359,23.0679755 33.6319987,22.3170061 33.5065135,21.789546 C33.6654969,21.4526626 33.922582,21.0920245 34.2522465,20.7546012 C34.6058383,20.3893742 34.9788377,20.1286135 35.3292391,19.9671902 C35.4674855,19.6168098 35.5461796,19.2837055 35.5557505,19 C34.8610624,19.2494233 34.1607912,19.5660613 33.4778008,19.972589 L33.4778008,19.972589 Z M36.5604296,25.1162699 C36.8629766,25.3027975 37.1875897,25.5168589 37.3582709,25.6472393 C37.1806774,25.947681 37.5847823,26.4675828 37.8532993,26.0613252 C37.8596799,26.3579877 38.0090924,26.6476319 38.2757484,26.8071656 C38.3789015,26.8649325 38.4916255,26.9056933 38.5992981,26.915411 L38.7994896,26.915411 C39.0533844,26.8832883 39.2931887,26.7340123 39.4346254,26.4867485 C39.6712394,26.0721227 39.5303344,25.5403436 39.1249003,25.2957791 C38.8545223,25.1365153 38.5402776,25.1446135 38.289573,25.2898405 C38.4934865,24.8479509 37.8570213,24.746454 37.6919232,25.0566135 C37.4271282,24.9386503 36.8890307,24.645227 36.5303876,24.4354847 C36.5362365,24.6622331 36.5474026,24.8897914 36.5604296,25.1162699 L36.5604296,25.1162699 Z M38.5078428,26.3976687 C38.3188175,26.2905031 38.253948,26.0426994 38.3640134,25.8515828 C38.4679641,25.6585767 38.7088318,25.5919018 38.8951986,25.7014969 C39.086085,25.8140613 39.1485617,26.057546 39.0414207,26.2551411 C38.9672462,26.3801227 38.8375073,26.4557055 38.7024512,26.4557055 C38.6325304,26.4557055 38.5679268,26.4346503 38.5078428,26.3976687 L38.5078428,26.3976687 Z M36.6407189,19.9671902 C36.9911203,20.1286135 37.3670442,20.3893742 37.7201042,20.7546012 C38.051098,21.0947239 38.3095124,21.4526626 38.4671665,21.789546 C38.3395544,22.3170061 37.4861488,23.0722945 36.5303876,23.7347239 C36.5282608,23.8640245 36.5282608,23.9857669 36.5282608,24.0829448 C36.5282608,24.2106258 36.5282608,24.3356074 36.5303876,24.4659877 C37.6642739,23.8640245 38.8933376,23.3870429 39.4527038,23.5517055 C39.6574148,23.8640245 39.8320838,24.271092 39.9527835,24.7348466 C40.0790663,25.2331534 40.1160206,25.696638 40.075876,26.0866994 C40.3018557,26.3890307 40.5488382,26.6219877 40.7798692,26.7742331 C40.9181156,26.0319018 41,25.2463804 41,24.4354847 C41,23.4537178 40.8936566,22.5121718 40.6942628,21.6432393 C40.0591269,21.0272393 39.3211038,20.4600982 38.4934865,19.972589 C37.8099644,19.5660613 37.106237,19.2494233 36.4166002,19 C36.4253735,19.2837055 36.5022066,19.6168098 36.6407189,19.9671902 L36.6407189,19.9671902 Z M34.2796299,25.0566135 C34.1140001,24.746454 33.4778008,24.8479509 33.684107,25.2898405 C33.4312756,25.1446135 33.1135747,25.1365153 32.8458553,25.2957791 C32.4430797,25.5368344 32.3032382,26.0721227 32.5340033,26.4867485 C32.771149,26.9056933 33.2879779,27.0425521 33.6910193,26.8071656 C33.9587388,26.6476319 34.1129367,26.3579877 34.1140001,26.0613252 C34.3854416,26.4675828 34.790344,25.947681 34.6132823,25.6472393 C34.7770511,25.5173988 35.1013984,25.3087362 35.3959696,25.1240982 C35.4111235,24.8989693 35.4212261,24.6692515 35.4260116,24.438454 C35.0694954,24.6463067 34.5383102,24.9424294 34.2796299,25.0566135 L34.2796299,25.0566135 Z M32.9280055,26.2551411 C32.8208646,26.057546 32.8844047,25.8140613 33.0742277,25.7014969 C33.2637848,25.5919018 33.4982719,25.6585767 33.6078056,25.8515828 C33.71601,26.0426994 33.650343,26.2905031 33.4645079,26.3976687 C33.4012336,26.4346503 33.3360983,26.4557055 33.2691019,26.4557055 C33.1345776,26.4557055 33.0045728,26.3801227 32.9280055,26.2551411 L32.9280055,26.2551411 Z" id="OM---icon"></path>
            <g id="Logo-22seven">
                <path d="M14.7720033,4.05766267 C15.8646516,2.22751507 17.501062,0.741362165 20.005864,0.580591797 C20.3404404,0.559634766 20.6777297,0.565023717 21.014416,0.595860491 C23.1496769,0.791958426 24.9358931,2.12901702 25.4151512,4.10795954 C25.5830423,4.70733064 25.6327766,5.36747712 25.5281838,6.04858064 C25.3120655,7.2628909 24.6591893,8.37690681 23.4851576,9.64211272 C22.9079378,10.37501 22.1619228,11.0366535 21.4825216,11.6740466 L18.9231626,14.1167383 L24.8722934,14.1167383 C26.6226406,14.1167383 26.6226406,16.7166077 24.8722934,16.7166077 L15.6696327,16.7166077 C14.1908652,16.7166077 13.6941246,15.4966091 14.7584394,14.4807919 L19.6721918,9.79090765 C20.2608655,9.23854018 20.9869868,8.63437891 21.464135,7.98351339 C22.4793183,6.89793917 22.8371041,6.16923326 22.9368742,5.62824247 C22.9805801,5.32616183 22.9477253,5.02138672 22.8723703,4.7579269 C22.7005607,4.02562835 21.9804678,3.29572489 20.7717728,3.18465262 C20.5719312,3.16609068 20.3729938,3.16279743 20.1740565,3.17507227 C18.8221868,3.26189425 17.8534222,4.00616825 17.032655,5.38065011 C16.1422596,6.87249135 13.8810052,5.54950391 14.7720033,4.05766267" id="Fill-1"></path>
                <path d="M3.65170727,5.38065011 C4.4721731,4.00646763 5.44093768,3.26189425 6.79280735,3.17537165 C6.9917447,3.16279743 7.19038062,3.16639007 7.39022222,3.18465262 C8.59921871,3.29572489 9.31931161,4.02592773 9.49081972,4.75822628 C9.56677761,5.0216861 9.59933099,5.3267606 9.55562506,5.62824247 C9.45555355,6.16953265 9.09776775,6.89823856 8.08258446,7.98351339 C7.60543626,8.63437891 6.87931495,9.23854018 6.29064127,9.79120703 L1.37688889,14.4807919 C0.312574102,15.4966091 0.80991746,16.7166077 2.28838363,16.7166077 L11.4907429,16.7166077 C13.2416929,16.7166077 13.2416929,14.1167383 11.4907429,14.1167383 L5.54191345,14.1167383 L8.10127251,11.6740466 C8.78037226,11.0366535 9.52668872,10.37501 10.103607,9.64241211 C11.2776388,8.37690681 11.9308164,7.2628909 12.1472361,6.04888002 C12.2518289,5.36717773 12.2011903,4.70703125 12.0336007,4.10825893 C11.5543425,2.12901702 9.76812632,0.792257812 7.63316692,0.596159877 C7.29648053,0.565023717 6.95949273,0.559634766 6.62461487,0.580891183 C4.11981287,0.741362165 2.48340251,2.22781445 1.39075422,4.05766267 C0.500057477,5.54980329 2.76101053,6.87279074 3.65170727,5.38065011" id="Fill-3"></path>
                <path d="M53.250404,7.46497656 L43.7604899,7.46497656 C44.2225671,4.89714146 46.1860184,3.198125 48.6248094,3.198125 C51.1636718,3.198125 52.8049049,5.06449833 53.250404,7.46497656 M56.0147288,8.65952734 L56.0147288,8.49546373 C55.9354553,4.72349749 53.5424802,0.602446987 48.6248094,0.602446987 C44.2888795,0.602446987 41.2035422,4.01006027 41.0229915,8.23679408 C41.0187716,8.3337952 41.0127432,8.58527958 41.0103318,8.80802288 C41.0091261,8.92418471 41.0091261,9.10561272 41.0091261,9.10561272 C41.1082934,13.8942944 44.6695733,17.0617999 48.9120628,17.0617999 C51.2679632,17.0617999 53.1877086,16.1148415 54.5844899,14.7789805 C55.8471392,13.5715561 54.0030503,11.7117693 52.740401,12.9191936 C51.7740478,13.8433987 50.4957246,14.4658225 48.9120628,14.4658225 C46.4048495,14.4658225 44.2144287,12.845844 43.7436104,10.060954 L54.6930012,10.060954 C55.596659,10.060954 56.0370339,9.37835352 56.0138246,8.71341685 L56.0147288,8.65952734" id="Fill-5"></path>
                <path d="M83.4108124,7.46497656 L73.9208982,7.46497656 C74.382674,4.89714146 76.3464267,3.198125 78.7852177,3.198125 C81.3240802,3.198125 82.9653133,5.06449833 83.4108124,7.46497656 M86.1751372,8.65952734 L86.1751372,8.49546373 C86.0958637,4.72349749 83.7028886,0.602446987 78.7852177,0.602446987 C74.4492879,0.602446987 71.3639505,4.01006027 71.1833998,8.23679408 C71.1791799,8.3337952 71.1743572,8.58527958 71.1716444,8.80802288 C71.1704388,8.92418471 71.1692331,9.10561272 71.1692331,9.10561272 C71.2687018,13.8942944 74.8299816,17.0617999 79.0724712,17.0617999 C81.4283716,17.0617999 83.348117,16.1148415 84.7448982,14.7789805 C86.0075475,13.5715561 84.1634586,11.7117693 82.9008094,12.9191936 C81.9344561,13.8433987 80.656133,14.4658225 79.0724712,14.4658225 C76.5652578,14.4658225 74.3748371,12.845844 73.9040187,10.060954 L84.8534095,10.060954 C85.7570673,10.060954 86.1974423,9.37835352 86.1742329,8.71341685 L86.1751372,8.65952734" id="Fill-6"></path>
                <path d="M90.4884605,1.89130441 L90.4884605,2.5664202 C91.6661093,1.37486328 93.1795402,0.605440848 94.9090894,0.602446987 C99.2564732,0.602446987 101.836027,3.63313309 101.836027,7.70538365 L101.836027,15.7307291 C101.836027,17.4611811 99.1925721,17.4611811 99.1925721,15.7307291 L99.1925721,7.70538365 C99.1925721,4.87289118 97.6092117,3.19842439 94.9111993,3.19842439 C92.3542516,3.20261579 90.5321664,4.98426283 90.4878576,7.68771987 L90.4878576,7.77304492 L90.4872548,15.7310285 C90.4869534,17.4614805 87.8437995,17.4611811 87.8437995,15.7307291 L87.8450052,1.89100502 C87.8453066,0.160553013 90.4884605,0.1608524 90.4884605,1.89130441" id="Fill-8"></path>
                <path d="M36.7316718,4.68517606 C35.8849825,3.64959933 34.6545851,3.21369308 33.3816876,3.21369308 C31.1243515,3.21369308 30.2987616,4.33579241 30.2987616,5.16359515 C30.2987616,6.60693583 32.9961711,7.14732785 34.0011061,7.42994838 C36.534543,8.11224944 39.6195789,9.08525446 39.6195789,12.2758128 C39.6195789,15.3651786 36.6297918,17.0459325 33.7087285,17.0459325 C31.7663766,17.0459325 29.7450526,16.3375848 28.3096896,14.8729877 C27.087732,13.6260444 28.9924063,11.8261348 30.2143639,13.0730781 C31.0854683,13.9619556 32.3842881,14.4499551 33.7087285,14.4499551 C35.9594332,14.4499551 36.9761236,13.2631883 36.9761236,12.2758128 C36.9761236,10.7390636 34.3814984,10.22382 33.2810132,9.92742773 C30.8096688,9.23285184 27.6553063,8.31972405 27.6553063,5.16359515 C27.6553063,2.30864872 30.3530172,0.617715681 33.3816876,0.617715681 C35.2628511,0.617715681 37.3348137,1.27696401 38.7927833,3.06010798 C39.8962827,4.40944141 37.8348698,6.03450949 36.7316718,4.68517606" id="Fill-9"></path>
                <path d="M71.0344982,2.43798354 L65.0139308,16.0355042 C64.9647993,16.2612414 64.8496568,16.4591356 64.6932197,16.6193072 C64.4273671,16.9339621 64.0632515,17.0638956 63.70215,17.0522196 C63.3407472,17.0638956 62.9766316,16.9339621 62.7107789,16.6193072 C62.5543419,16.459435 62.4388979,16.2612414 62.3897664,16.0355042 L56.3673905,2.43798354 C55.6644785,0.851236886 58.0884999,-0.184339844 58.7914119,1.40270619 L63.7018486,12.4892751 L68.6104769,1.40300558 C69.3130874,-0.184040458 71.7371088,0.8509375 71.0344982,2.43798354" id="Fill-10"></path>
            </g>
        </g>
    </g>
</svg>