<?xml version="1.0" encoding="UTF-8"?>
<svg width="32px" height="32px" viewBox="0 0 32 32" version="1.1" xmlns="http://www.w3.org/2000/svg" xmlns:xlink="http://www.w3.org/1999/xlink">
    <!-- Generator: Sketch 52.6 (67491) - http://www.bohemiancoding.com/sketch -->
    <desc>Created with Sketch.</desc>
    <g id="Page-1" stroke="none" stroke-width="1" fill="none" fill-rule="evenodd">
        <g id="icon/twitter">
            <g>
                <circle id="Oval" fill="#F1F5FB" fill-rule="nonzero" cx="16" cy="16" r="16"></circle>
                <path d="M24,11.3252118 C23.4076157,11.5710651 22.7703837,11.7373506 22.1021032,11.811614 C22.7844294,11.428996 23.3080636,10.823588 23.5552189,10.101019 C22.9167548,10.4554999 22.2092942,10.7126541 21.4569859,10.8512638 C20.8542521,10.2504683 19.995492,9.875 19.0445723,9.875 C17.2201076,9.875 15.7403789,11.259943 15.7403789,12.9675398 C15.7403789,13.2099336 15.7697024,13.4458698 15.8263781,13.6723501 C13.0803172,13.543427 10.6454797,12.3123153 9.01568366,10.4407394 C8.73131949,10.8973901 8.56819203,11.428996 8.56819203,11.995658 C8.56819203,13.0683258 9.15195176,14.0152994 10.038064,14.5697378 C9.49668788,14.5538242 8.98685298,14.4147534 8.54157909,14.1825073 C8.54133268,14.1956533 8.54133268,14.2087993 8.54133268,14.2217147 C8.54133268,15.7201285 9.6807607,16.9699214 11.1920306,17.253829 C10.9150589,17.3248635 10.622563,17.3624565 10.321689,17.3624565 C10.1082926,17.3624565 9.90154952,17.343314 9.69998116,17.3073355 C10.120367,18.5356797 11.3403731,19.4298386 12.7865892,19.4549774 C11.6555393,20.2845594 10.2310078,20.7788031 8.6825291,20.7788031 C8.41639972,20.7788031 8.15273449,20.7642733 7.89473684,20.7354443 C9.3562307,21.6132284 11.0934642,22.125 12.9593268,22.125 C19.0369334,22.125 22.3605937,17.4127342 22.3605937,13.3257107 C22.3605937,13.1917137 22.3573903,13.058178 22.3509835,12.9257954 C22.9970865,12.4899016 23.5571903,11.9453803 24,11.3252118 Z" id="Path" fill="#4E4B6B"></path>
            </g>
        </g>
    </g>
</svg>