<?xml version="1.0" encoding="UTF-8"?>
<svg width="33px" height="36px" viewBox="0 0 33 36" version="1.1" xmlns="http://www.w3.org/2000/svg" xmlns:xlink="http://www.w3.org/1999/xlink">
    <!-- Generator: Sketch 52.6 (67491) - http://www.bohemiancoding.com/sketch -->
    <desc>Created with Sketch.</desc>
    <g id="Page-1" stroke="none" stroke-width="1" fill="none" fill-rule="evenodd">
        <g id="icon_click" transform="translate(1.000000, 1.000000)" fill-rule="nonzero" stroke="#F1692E" stroke-width="1.98">
            <path d="M14.5839227,19.3407143 C14.7151786,19.2238041 14.7880975,19.0211278 14.8026794,18.7326852 L14.6051864,2.89984667 C14.5913673,1.61511288 15.6053689,0.584832961 16.8700223,0.598652073 C18.1346758,0.612471185 19.1710826,1.66515631 19.1849017,2.94989011 L19.3946709,20.4930288" id="Path" transform="translate(16.989297, 10.545772) rotate(27.000000) translate(-16.989297, -10.545772) "></path>
            <path d="M18.3816061,11.7210474 L18.3816061,11.7210474 C19.6542118,11.7349534 20.6824057,12.7633229 20.6960944,14.035931 L20.7802822,21.8626942 C20.7935935,23.1002219 19.8011702,24.1142272 18.5636425,24.1275385 C18.5474472,24.1277127 18.5312505,24.1277114 18.5150552,24.1275344 L18.5150552,24.1275344 C17.2424495,24.1136284 16.2142556,23.0852589 16.2005669,21.8126508 L16.1163791,13.9858875 C16.1030678,12.7483599 17.0954912,11.7343546 18.3330188,11.7210432 C18.3492141,11.720869 18.3654108,11.7208704 18.3816061,11.7210474 Z" id="Rectangle-Copy-19" transform="translate(18.448331, 17.924291) rotate(27.000000) translate(-18.448331, -17.924291) "></path>
            <path d="M22.5563049,13.6701853 L22.5563049,13.6701853 C23.8289106,13.6840913 24.8571045,14.7124608 24.8707932,15.9850689 L24.954981,23.8118322 C24.9682923,25.0493598 23.975869,26.0633651 22.7383413,26.0766765 C22.722146,26.0768507 22.7059493,26.0768493 22.689754,26.0766723 L22.689754,26.0766723 C21.4171483,26.0627663 20.3889544,25.0343968 20.3752657,23.7617887 L20.2910779,15.9350255 C20.2777666,14.6974978 21.27019,13.6834925 22.5077176,13.6701812 C22.5239129,13.670007 22.5401096,13.6700083 22.5563049,13.6701853 Z" id="Rectangle-Copy-20" transform="translate(22.623029, 19.873429) rotate(27.000000) translate(-22.623029, -19.873429) "></path>
            <path d="M26.5279535,16.4393422 L26.5279535,16.4393422 C27.8005592,16.4532482 28.8287531,17.4816177 28.8424418,18.7542258 L28.918289,25.8055836 C28.9316004,27.0431113 27.939177,28.0571166 26.7016494,28.0704279 C26.6854541,28.0706021 26.6692573,28.0706008 26.6530621,28.0704238 L26.6530621,28.0704238 C25.3804564,28.0565178 24.3522624,27.0281483 24.3385738,25.7555402 L24.2627265,18.7041824 C24.2494152,17.4666547 25.2418386,16.4526494 26.4793662,16.4393381 C26.4955615,16.4391639 26.5117582,16.4391652 26.5279535,16.4393422 Z" id="Rectangle-Copy-30" transform="translate(26.590508, 22.254883) rotate(27.000000) translate(-26.590508, -22.254883) "></path>
            <path d="M11.0284584,17.1590413 C10.8209368,17.2620782 10.6636355,17.3243319 10.5565545,17.3458025 C10.1306286,17.4312041 9.73364084,17.373989 9.44340177,17.2763536 C9.04371025,17.1418987 8.52337863,16.7562094 7.88240692,16.1192857 C6.49940152,14.568667 5.3932319,13.6764778 4.56389807,13.4427179 C3.31989732,13.0920781 1.49327377,14.4619251 1.84391669,16.1192857 C2.04360067,17.0631187 3.6907461,18.9227309 6.78535298,21.6981223 L6.78534826,21.6981276 C7.87413222,22.6746011 8.49619515,24.0680864 8.49619515,25.5306017 L8.49619515,28.1295292 C8.49619515,30.545929 10.4550742,32.5048081 12.871474,32.5048081 C13.0387828,32.5048081 13.2059539,32.4952114 13.3721635,32.4760653 C15.1826564,32.2675124 16.2218535,32.1632346 16.489755,32.1632346 C17.1701241,32.1632346 19.9550858,34.9706568 22.3969285,33.4773998 C24.0248237,32.4818951 25.2591809,30.5066526 26.1,27.5516721" id="Path-3"></path>
            <path d="M12.6,0.8925 L10.8,5.355" id="Path-4" stroke-linecap="round" stroke-linejoin="round"></path>
            <path d="M8.1,0 L9,5.355" id="Path-6" stroke-linecap="round" stroke-linejoin="round"></path>
            <path d="M2.7,2.6775 L6.3,7.14" id="Path-7" stroke-linecap="round" stroke-linejoin="round"></path>
            <path d="M0,7.14 L4.5,8.925" id="Path-8" stroke-linecap="round" stroke-linejoin="round"></path>
        </g>
    </g>
</svg>