<?xml version="1.0" encoding="UTF-8"?>
<svg width="20px" height="16px" viewBox="0 0 20 16" version="1.1" xmlns="http://www.w3.org/2000/svg" xmlns:xlink="http://www.w3.org/1999/xlink">
    <!-- Generator: Sketch 52.6 (67491) - http://www.bohemiancoding.com/sketch -->
    <desc>Created with Sketch.</desc>
    <defs>
        <linearGradient x1="10.9906944%" y1="17.7734393%" x2="82.0081345%" y2="90.9801566%" id="linearGradient-1">
            <stop stop-color="#13C6B9" offset="0%"></stop>
            <stop stop-color="#26B1C9" offset="100%"></stop>
        </linearGradient>
    </defs>
    <g id="Page-1" stroke="none" stroke-width="1" fill="none" fill-rule="evenodd">
        <g id="icon---email" transform="translate(1.000000, 1.000000)" fill="url(#linearGradient-1)" stroke="url(#linearGradient-1)">
            <g id="email">
                <path d="M17.1,0.0260456853 L0.9,0.0260456853 C0.402960938,0.0260456853 0,0.43328934 0,0.935690355 L0,13.0642741 C0,13.5666396 0.402925781,13.9739188 0.9,13.9739188 L17.1,13.9739188 C17.5970391,13.9739188 18,13.5666751 18,13.0642741 L18,0.935690355 C18,0.433324873 17.5970742,0.0260456853 17.1,0.0260456853 Z M17.3999883,13.0643096 C17.3999883,13.2317766 17.2656914,13.3675127 17.1,13.3675127 L0.9,13.3675127 C0.734308594,13.3675127 0.600011719,13.2317766 0.600011719,13.0643096 L0.600011719,0.935690355 C0.600011719,0.76822335 0.734308594,0.63248731 0.9,0.63248731 L17.1,0.63248731 C17.2656914,0.63248731 17.3999883,0.76822335 17.3999883,0.935690355 L17.3999883,13.0643096 Z" id="Shape" fill-rule="nonzero"></path>
                <path d="M16.5261094,1.24003046 C16.446832,1.23303046 16.3680469,1.25815228 16.3071211,1.30988832 L9.38608594,7.18615736 C9.16287891,7.37579695 8.83708594,7.37579695 8.61387891,7.18615736 L1.69291406,1.30985279 C1.61082422,1.24020812 1.49818359,1.22009645 1.39746094,1.25712183 C1.29673828,1.29414721 1.22319141,1.38269543 1.20455859,1.48940102 C1.18592578,1.5961066 1.22501953,1.70473096 1.30710937,1.77437563 L8.22810938,7.65036041 C8.67417188,8.02995939 9.32582813,8.02995939 9.77192578,7.65036041 L16.6928906,1.77441117 C16.7538516,1.72271066 16.7919609,1.6486599 16.7988867,1.56853299 C16.8058125,1.48840609 16.780957,1.40877665 16.7297695,1.34719797 C16.6786523,1.28554822 16.6053867,1.24703046 16.5261094,1.24003046 Z" id="Path"></path>
                <path d="M5.76998437,7.6086802 C5.66377734,7.58473096 5.55310547,7.62076142 5.48068359,7.70284264 L1.28067187,12.251066 C1.20466406,12.329736 1.17675,12.443868 1.20775781,12.5492589 C1.23876562,12.6546853 1.32380859,12.7348477 1.42998047,12.758797 C1.5361875,12.7827462 1.64685937,12.7467157 1.71928125,12.6646345 L5.91929297,8.11641117 C5.99530078,8.03774112 6.02321484,7.92360914 5.99220703,7.81821827 C5.96119922,7.71282741 5.87619141,7.63262944 5.76998437,7.6086802 Z" id="Path"></path>
                <path d="M12.5193164,7.70284264 C12.4469297,7.62076142 12.3362227,7.58473096 12.2300156,7.6086802 C12.1238086,7.63262944 12.0388008,7.71282741 12.007793,7.81821827 C11.9767852,7.92364467 12.0046992,8.03774112 12.080707,8.11641117 L16.2807187,12.6646345 C16.394625,12.782533 16.5808125,12.7869391 16.7000273,12.6745127 C16.8192422,12.5620863 16.8278203,12.3740457 16.7193281,12.2510305 L12.5193164,7.70284264 Z" id="Path"></path>
            </g>
        </g>
    </g>
</svg>