<?xml version="1.0" encoding="UTF-8"?>
<svg width="24.8px" height="24.8px" viewBox="0 0 24.8 24.8" version="1.1" xmlns="http://www.w3.org/2000/svg" xmlns:xlink="http://www.w3.org/1999/xlink">
    <!-- Generator: Sketch 52.6 (67491) - http://www.bohemiancoding.com/sketch -->
    <desc>Created with Sketch.</desc>
    <g id="Page-1" stroke="none" stroke-width="1" fill="none" fill-rule="evenodd">
        <g id="Icon---quote---green">
            <circle id="Oval" fill="#93B83F" fill-rule="nonzero" cx="12.4" cy="12.4" r="12.4"></circle>
            <path d="M7.2,13.840708 C7.2,11.4654867 8.62372881,9.2460177 10.4949153,8 L12,9.16814159 C10.6983051,9.98584071 9.55932203,11.5433628 9.39661017,12.7893805 C9.43728814,12.7893805 9.7220339,12.7115044 9.92542373,12.7115044 C11.0644068,12.7115044 11.9186441,13.5681416 11.9186441,14.6973451 C11.9186441,15.8654867 10.9423729,16.8 9.7220339,16.8 C8.37966102,16.8 7.2,15.7486726 7.2,13.840708 Z" id="Path" fill="#FFFFFF"></path>
            <path d="M12.8,13.840708 C12.8,11.4654867 14.2237288,9.2460177 16.0949153,8 L17.6,9.16814159 C16.2983051,9.98584071 15.159322,11.5433628 14.9966102,12.7893805 C15.0779661,12.7893805 15.3627119,12.7115044 15.5254237,12.7115044 C16.6644068,12.7115044 17.5186441,13.5681416 17.5186441,14.6973451 C17.5186441,15.8654867 16.5423729,16.8 15.3220339,16.8 C13.979661,16.8 12.8,15.7486726 12.8,13.840708 Z" id="Path" fill="#FFFFFF"></path>
        </g>
    </g>
</svg>