<?xml version="1.0" encoding="UTF-8"?>
<svg width="120px" height="13px" viewBox="0 0 120 13" version="1.1" xmlns="http://www.w3.org/2000/svg" xmlns:xlink="http://www.w3.org/1999/xlink">
    <!-- Generator: Sketch 52.6 (67491) - http://www.bohemiancoding.com/sketch -->
    <desc>Created with Sketch.</desc>
    <g id="Page-1" stroke="none" stroke-width="1" fill="none" fill-rule="evenodd">
        <g id="Stars-green" fill="#93B83F">
            <path d="M7.70514892,0.292366092 L9.6247877,3.91305764 L13.9170957,4.49354894 C14.3792377,4.55597466 14.5636571,5.0848969 14.229078,5.38820445 L11.1234691,8.20618271 L11.8567733,12.1858221 C11.9354978,12.6139811 11.4525812,12.9410376 11.0389131,12.7384933 L7.2,10.8599542 L3.3610869,12.7384933 C2.94741877,12.9410376 2.46450224,12.6139811 2.54359121,12.1858221 L3.27653094,8.20618271 L0.170922044,5.38820445 C-0.16365711,5.0848969 0.0207623363,4.55597466 0.482904349,4.49354894 L4.7752123,3.91305764 L6.69485108,0.292366092 C6.90150291,-0.0974553641 7.49849709,-0.0974553641 7.70514892,0.292366092" id="star1-green"></path>
            <path d="M34.1051489,0.292366092 L36.0247877,3.91305764 L40.3170957,4.49354894 C40.7792377,4.55597466 40.9636571,5.0848969 40.629078,5.38820445 L37.5234691,8.20618271 L38.2567733,12.1858221 C38.3354978,12.6139811 37.8525812,12.9410376 37.4389131,12.7384933 L33.6,10.8599542 L29.7610869,12.7384933 C29.3474188,12.9410376 28.8645022,12.6139811 28.9435912,12.1858221 L29.6765309,8.20618271 L26.570922,5.38820445 C26.2363429,5.0848969 26.4207623,4.55597466 26.8829043,4.49354894 L31.1752123,3.91305764 L33.0948511,0.292366092 C33.3015029,-0.0974553641 33.8984971,-0.0974553641 34.1051489,0.292366092" id="star2-green"></path>
            <path d="M60.5051489,0.292366092 L62.4247877,3.91305764 L66.7170957,4.49354894 C67.1792377,4.55597466 67.3636571,5.0848969 67.029078,5.38820445 L63.9234691,8.20618271 L64.6567733,12.1858221 C64.7354978,12.6139811 64.2525812,12.9410376 63.8389131,12.7384933 L60,10.8599542 L56.1610869,12.7384933 C55.7474188,12.9410376 55.2645022,12.6139811 55.3435912,12.1858221 L56.0765309,8.20618271 L52.970922,5.38820445 C52.6363429,5.0848969 52.8207623,4.55597466 53.2829043,4.49354894 L57.5752123,3.91305764 L59.4948511,0.292366092 C59.7015029,-0.0974553641 60.2984971,-0.0974553641 60.5051489,0.292366092" id="star3-green"></path>
            <path d="M86.9051489,0.292366092 L88.8247877,3.91305764 L93.1170957,4.49354894 C93.5792377,4.55597466 93.7636571,5.0848969 93.429078,5.38820445 L90.3234691,8.20618271 L91.0567733,12.1858221 C91.1354978,12.6139811 90.6525812,12.9410376 90.2389131,12.7384933 L86.4,10.8599542 L82.5610869,12.7384933 C82.1474188,12.9410376 81.6645022,12.6139811 81.7435912,12.1858221 L82.4765309,8.20618271 L79.370922,5.38820445 C79.0363429,5.0848969 79.2207623,4.55597466 79.6829043,4.49354894 L83.9752123,3.91305764 L85.8948511,0.292366092 C86.1015029,-0.0974553641 86.6984971,-0.0974553641 86.9051489,0.292366092" id="star4-green"></path>
            <path d="M113.305149,0.292366092 L115.224788,3.91305764 L119.517096,4.49354894 C119.979238,4.55597466 120.163657,5.0848969 119.829078,5.38820445 L116.723469,8.20618271 L117.456773,12.1858221 C117.535498,12.6139811 117.052581,12.9410376 116.638913,12.7384933 L112.8,10.8599542 L108.961087,12.7384933 C108.547419,12.9410376 108.064502,12.6139811 108.143591,12.1858221 L108.876531,8.20618271 L105.770922,5.38820445 C105.436343,5.0848969 105.620762,4.55597466 106.082904,4.49354894 L110.375212,3.91305764 L112.294851,0.292366092 C112.501503,-0.0974553641 113.098497,-0.0974553641 113.305149,0.292366092" id="star5-green"></path>
        </g>
    </g>
</svg>