<?xml version="1.0" encoding="UTF-8"?>
<svg width="32px" height="32px" viewBox="0 0 32 32" version="1.1" xmlns="http://www.w3.org/2000/svg" xmlns:xlink="http://www.w3.org/1999/xlink">
    <!-- Generator: Sketch 52.6 (67491) - http://www.bohemiancoding.com/sketch -->
    <desc>Created with Sketch.</desc>
    <g id="Page-1" stroke="none" stroke-width="1" fill="none" fill-rule="evenodd">
        <g id="icon/linkedin">
            <g>
                <circle id="Oval-Copy-15" fill="#F1F5FB" fill-rule="nonzero" cx="16" cy="16" r="16"></circle>
                <g id="linkedin" transform="translate(7.000000, 7.000000)" fill="#4E4B6B" fill-rule="nonzero">
                    <path d="M18,9.8088004 L18,16 L14.3555509,16 L14.3555509,10.2237243 C14.3555509,8.77336456 13.829363,7.78290112 12.5098165,7.78290112 C11.5028298,7.78290112 10.9046173,8.44972394 10.6404361,9.09539903 C10.5444938,9.32615024 10.5197608,9.64657855 10.5197608,9.97021917 L10.5197608,15.9997323 L6.87503997,15.9997323 C6.87503997,15.9997323 6.9239624,6.21663042 6.87503997,5.20394847 L10.5200326,5.20394847 L10.5200326,6.73381295 C10.5126943,6.74585913 10.5023662,6.75763761 10.4958432,6.7691484 L10.5200326,6.7691484 L10.5200326,6.73381295 C11.0043646,5.99979923 11.8681173,4.95044337 13.80463,4.95044337 C16.2023726,4.95044337 18,6.4934248 18,9.8088004 Z M3.06235211,0 C1.81564558,0 1,0.806023089 1,1.86501589 C1,2.9015225 1.79199974,3.73083487 3.01451685,3.73083487 L3.03816269,3.73083487 C4.30933043,3.73083487 5.09969943,2.9015225 5.09969943,1.86501589 C5.07551001,0.806023089 4.30933043,0 3.06235211,0 Z M1.21661764,16 L4.85997954,16 L4.85997954,5.20394847 L1.21661764,5.20394847 L1.21661764,16 Z" id="Shape"></path>
                </g>
            </g>
        </g>
    </g>
</svg>