<?xml version="1.0" encoding="UTF-8"?>
<svg width="32px" height="32px" viewBox="0 0 32 32" version="1.1" xmlns="http://www.w3.org/2000/svg" xmlns:xlink="http://www.w3.org/1999/xlink">
    <!-- Generator: Sketch 52.6 (67491) - http://www.bohemiancoding.com/sketch -->
    <desc>Created with Sketch.</desc>
    <g id="Page-1" stroke="none" stroke-width="1" fill="none" fill-rule="evenodd">
        <g id="icon/youtube">
            <g>
                <circle id="Oval-Copy-15" fill="#F1F5FB" fill-rule="nonzero" cx="16" cy="16" r="16"></circle>
                <path d="M17.7784145,18.7146535 C17.7779101,18.6289079 17.7526908,18.5396316 17.7209145,18.4594342 C17.6785461,18.3540175 17.5877566,18.3015614 17.4737654,18.2904649 C17.3401031,18.2773509 17.2331732,18.3313202 17.1363311,18.4170658 C17.0974934,18.4508596 17.0798399,18.5012982 17.0798399,18.5012982 L17.0818575,21.2234693 L17.0818575,21.2905526 C17.0818575,21.2905526 17.1050592,21.3218246 17.1085899,21.3258596 C17.1872741,21.4111009 17.2790724,21.4786886 17.3965943,21.5028991 C17.5902785,21.5427456 17.7269671,21.4620439 17.7647961,21.2824825 C17.7743794,21.2375921 17.7799276,21.1911886 17.7799276,21.1452895 C17.7809364,20.3347412 17.7824496,19.5246974 17.7784145,18.7146535 Z M17.7784145,18.7146535 C17.7779101,18.6289079 17.7526908,18.5396316 17.7209145,18.4594342 C17.6785461,18.3540175 17.5877566,18.3015614 17.4737654,18.2904649 C17.3401031,18.2773509 17.2331732,18.3313202 17.1363311,18.4170658 C17.0974934,18.4508596 17.0798399,18.5012982 17.0798399,18.5012982 L17.0818575,21.2234693 L17.0818575,21.2905526 C17.0818575,21.2905526 17.1050592,21.3218246 17.1085899,21.3258596 C17.1872741,21.4111009 17.2790724,21.4786886 17.3965943,21.5028991 C17.5902785,21.5427456 17.7269671,21.4620439 17.7647961,21.2824825 C17.7743794,21.2375921 17.7799276,21.1911886 17.7799276,21.1452895 C17.7809364,20.3347412 17.7824496,19.5246974 17.7784145,18.7146535 Z M20.8264189,14.6094561 C17.6049057,14.5403553 14.3818794,14.5403553 11.1598618,14.6094561 C10.0421425,14.6331623 9.14837061,15.5471096 9.14837061,16.6653333 L9.14837061,21.6970877 C9.14837061,22.8158158 10.0421425,23.7297632 11.1598618,23.7534693 C14.3818794,23.8225702 17.6049057,23.8225702 20.8264189,23.7534693 C21.9446425,23.7297632 22.8384145,22.8158158 22.8384145,21.6970877 L22.8384145,16.6653333 C22.8384145,15.5471601 21.9446425,14.6331623 20.8264189,14.6094561 Z M12.1060899,22.155625 L11.177011,22.155625 L11.177011,16.9034539 L10.2151469,16.9034539 L10.2151469,16.0248136 L13.0699715,16.0248136 L13.0699715,16.9014364 L12.1060899,16.9014364 L12.1060899,22.155625 Z M15.4310022,19.9756184 L15.4310022,22.1560789 L14.6083487,22.1560789 L14.6083487,21.6577456 C14.5785899,21.6895219 14.5619452,21.7066711 14.5463092,21.7243246 C14.3692697,21.9240614 14.1685241,22.0905088 13.9122961,22.1787763 C13.7872083,22.2216491 13.6585899,22.2362763 13.5269452,22.2135789 C13.3473838,22.1838202 13.2268355,22.0804211 13.1542039,21.917 C13.0866162,21.7661886 13.0694671,21.6047851 13.0689627,21.4423728 C13.0669452,20.8421535 13.0679539,17.6655307 13.0679539,17.6347632 L13.8885899,17.6347632 C13.8901031,17.6625044 13.8931294,19.9428333 13.8936338,21.0550044 C13.8936338,21.1155307 13.8941382,21.1775702 13.9062434,21.2365833 C13.9365066,21.3858816 14.0510022,21.4499386 14.1947522,21.3974825 C14.3601908,21.3369561 14.4862873,21.2229649 14.5922083,21.0862763 C14.6078443,21.0666053 14.6078443,21.0312982 14.6078443,21.0030526 L14.6078443,17.6297193 L15.4310022,17.6277018 C15.4310022,17.6277522 15.4310022,19.2200482 15.4310022,19.9756184 Z M18.5607171,21.7202895 C18.450761,22.0511667 18.2086557,22.2196316 17.8606294,22.2161009 C17.5776689,22.2135789 17.3481732,22.1011009 17.1590285,21.8958158 C17.1378443,21.8731184 17.0793355,21.8110789 17.0793355,21.8110789 L17.0793355,22.1550702 L16.2551689,22.1550702 L16.2551689,16.0242588 L17.0793355,16.0242588 C17.0793355,16.6769342 17.0793355,18.042307 17.0793355,18.042307 C17.0793355,18.042307 17.125739,17.9495 17.1681075,17.9015833 C17.2957171,17.7588421 17.451068,17.6483816 17.6427346,17.5999605 C17.9589846,17.5207719 18.3236557,17.6186228 18.4971645,17.9883377 C18.5995548,18.2067368 18.6283048,18.4397632 18.6283048,18.6768246 C18.629818,19.5337763 18.629818,20.3907281 18.6288092,21.2476798 C18.6283048,21.4080746 18.6116601,21.5665022 18.5607171,21.7202895 Z M21.6046864,21.5478399 C21.4619452,21.9659759 21.1668794,22.1979934 20.7341162,22.2615461 C20.4657829,22.3008882 20.1999715,22.2953399 19.9482829,22.1813487 C19.6037873,22.0259978 19.4085899,21.7450548 19.3248618,21.3874452 C19.2860241,21.2209978 19.2668575,21.0464803 19.2648399,20.8754934 C19.2582829,20.2041557 19.2613092,19.5323136 19.2628224,18.8609759 C19.2633268,18.5099232 19.3470548,18.1861075 19.5876469,17.9172697 C19.8620329,17.6100987 20.2130855,17.4956031 20.6140724,17.5213268 C20.7346206,17.5288925 20.8576908,17.5485636 20.9721864,17.5863925 C21.3620768,17.7145066 21.5703882,18.0065461 21.6520987,18.3939145 C21.6833706,18.5432127 21.6949715,18.6980592 21.6974934,18.8508882 C21.7040504,19.2090022 21.6949715,19.9983662 21.6949715,19.9983662 L20.1167478,19.9983662 L20.1167478,21.1297039 C20.1167478,21.3329715 20.2811776,21.4974013 20.4844452,21.4974013 C20.6872083,21.4974013 20.8516382,21.3329715 20.8516382,21.1297039 L20.8516382,20.5481469 L21.699511,20.5481469 C21.699511,20.5480965 21.7121206,21.2346162 21.6046864,21.5478399 Z M20.8516382,18.6617434 C20.8516382,18.4589803 20.6872083,18.2940461 20.4844452,18.2940461 C20.2811776,18.2940461 20.1167478,18.4589803 20.1167478,18.6617434 L20.1167478,19.2967654 L20.8516382,19.2967654 L20.8516382,18.6617434 Z M17.7209145,18.4594846 C17.6785461,18.354068 17.5877566,18.3016118 17.4737654,18.2905154 C17.3401031,18.2774013 17.2331732,18.3313706 17.1363311,18.4171162 C17.0974934,18.4509101 17.0798399,18.5013487 17.0798399,18.5013487 L17.0818575,21.2235197 L17.0818575,21.2906031 C17.0818575,21.2906031 17.1050592,21.321875 17.1085899,21.3259101 C17.1872741,21.4111513 17.2790724,21.478739 17.3965943,21.5029496 C17.5902785,21.5427961 17.7269671,21.4620943 17.7647961,21.2825329 C17.7743794,21.2376425 17.7799276,21.191239 17.7799276,21.1453399 C17.7809364,20.3347917 17.7824496,19.5247478 17.7784145,18.7147039 C17.7779101,18.6289079 17.7526908,18.5396316 17.7209145,18.4594846 Z" id="Shape" fill="#4E4B6B" fill-rule="nonzero"></path>
                <path d="M19.8276338,8.79116228 L19.8273816,13.342943 L18.9839474,13.342943 L18.9849561,12.8539408 C18.8916952,12.9457895 18.8121031,13.0315855 18.7246425,13.1086557 C18.5695943,13.2452434 18.3939671,13.3470789 18.1885307,13.3872785 C17.8731382,13.4489649 17.6045022,13.3492478 17.5039276,13.0226075 C17.4704364,12.9138114 17.4502105,12.7965417 17.4493531,12.6829539 L17.4493531,8.79116228 L18.286432,8.79116228 L18.286432,12.2623969 C18.286432,12.3083969 18.290114,12.3549013 18.2981842,12.3999934 C18.3236053,12.5430373 18.4293246,12.6103728 18.5670724,12.5626075 C18.7349825,12.5045022 18.8630965,12.3882412 18.9717917,12.25125 C18.9872259,12.2316798 18.9844518,12.1951623 18.9844518,12.1664627 L18.9844518,8.79116228 L19.8276338,8.79116228 Z" id="Path" fill="#4E4B6B"></path>
                <path d="M12.8515219,9.58214035 C12.6684298,8.81037939 12.2848443,7.18116228 12.2848443,7.18116228 L11.3250482,7.18116228 C11.3250482,7.18116228 12.0624605,9.62677851 12.3922281,10.7174627 C12.4040811,10.7569057 12.4095285,10.7997281 12.4095285,10.8410373 L12.4091754,13.3419846 L13.2942215,13.3419846 L13.2938684,10.8410373 C13.2938684,10.7997281 13.2993158,10.7569057 13.3111689,10.7174627 C13.6409364,9.62677851 14.3783487,7.18116228 14.3783487,7.18116228 L13.4185526,7.18116228 C13.4185526,7.18116228 13.0349167,8.81037939 12.851875,9.58214035 L12.8515219,9.58214035 Z" id="Path" fill="#4E4B6B"></path>
                <path d="M15.5335439,8.67722149 C14.8665439,8.67722149 14.3258421,9.21792325 14.3258421,9.88492325 L14.3258421,12.2484254 C14.3258421,12.9154254 14.8665439,13.4561272 15.5335439,13.4561272 C16.2005439,13.4561272 16.7412456,12.9154254 16.7412456,12.2484254 L16.7412456,9.88492325 C16.7412961,9.21792325 16.2005439,8.67722149 15.5335439,8.67722149 Z M15.8820746,12.2961404 C15.8820746,12.4883114 15.7257149,12.6446206 15.5335943,12.6446206 C15.3414737,12.6446206 15.185114,12.4883114 15.185114,12.2961404 L15.185114,9.83715789 C15.185114,9.64498684 15.3414737,9.48867763 15.5335943,9.48867763 C15.7257149,9.48867763 15.8820746,9.64503728 15.8820746,9.83715789 L15.8820746,12.2961404 Z" id="Shape" fill="#4E4B6B" fill-rule="nonzero"></path>
            </g>
        </g>
    </g>
</svg>