<?xml version="1.0" encoding="UTF-8"?>
<svg width="42px" height="31px" viewBox="0 0 42 31" version="1.1" xmlns="http://www.w3.org/2000/svg" xmlns:xlink="http://www.w3.org/1999/xlink">
    <!-- Generator: Sketch 52.6 (67491) - http://www.bohemiancoding.com/sketch -->
    <desc>Created with Sketch.</desc>
    <g id="Page-1" stroke="none" stroke-width="1" fill="none" fill-rule="evenodd">
        <g id="icon_mountain" transform="translate(1.000000, 1.000000)" fill="#BD4D9C" fill-rule="nonzero" stroke="#BD4D9C" stroke-width="0.7128">
            <path d="M39.0123355,27.2331095 L37.7797167,27.2331095 C37.7761419,27.2275686 37.7731887,27.2218758 37.7694585,27.2164108 L24.9044803,8.57275618 C24.6350465,8.18230997 24.2503631,7.89357409 23.8110469,7.7362267 L23.8110469,5.62057601 L27.6938623,3.23911221 C27.9371842,3.08988646 28.0763697,2.82172035 28.0556978,2.54178925 C28.0350259,2.26185814 27.8579938,2.01593168 27.5953211,1.90222864 L23.348572,0.0649909933 C23.1082808,-0.0389205267 22.8303762,-0.0172122033 22.6099799,0.122829254 C22.3896612,0.262946614 22.2567706,0.502269494 22.2567706,0.759050116 L22.2567706,5.18944567 C22.2566151,5.19756731 22.2566151,5.20576486 22.2567706,5.21388651 L22.2567706,7.7361508 C21.8174544,7.89349819 21.432771,8.18223407 21.1633372,8.57268028 L15.8937188,16.2093041 L14.6406612,14.3934712 C14.2207734,13.7848791 13.5215045,13.4216062 12.7700896,13.4216062 C12.0186748,13.4216062 11.3194058,13.7848791 10.8995181,14.3934712 L2.03967681,27.2331095 L0.777138158,27.2331095 C0.347924753,27.2331095 0,27.5730042 0,27.9921418 C0,28.4112794 0.347924753,28.7511741 0.777138158,28.7511741 L2.45132689,28.7511741 C2.45163775,28.7511741 2.45202632,28.75125 2.45233717,28.75125 C2.45272574,28.75125 2.45319202,28.7511741 2.45358059,28.7511741 L39.0123355,28.7511741 C39.4415489,28.7511741 39.7894737,28.4112794 39.7894737,27.9921418 C39.7894737,27.5730042 39.4415489,27.2331095 39.0123355,27.2331095 Z M23.8110469,1.92545503 L25.6300164,2.71241971 L23.8110469,3.82804536 L23.8110469,1.92545503 Z M3.91397862,27.2331095 L12.1884794,15.2419934 C12.3210592,15.0499582 12.5330625,14.9398226 12.7701674,14.9398226 C13.0072722,14.9398226 13.2192755,15.0499582 13.3518553,15.2419934 L14.9566456,17.5675165 L12.2015354,21.5601781 C11.9617105,21.9078149 12.0557442,22.3795535 12.4116735,22.6137908 C12.7677582,22.8483318 13.2506719,22.7561853 13.490419,22.4086244 L22.4522208,9.42120247 C22.5848006,9.2291673 22.7968039,9.11903172 23.0339087,9.11903172 C23.2710136,9.11903172 23.4830946,9.2291673 23.6155966,9.42120247 L35.9065806,27.2331095 L3.91397862,27.2331095 Z" id="Shape"></path>
        </g>
    </g>
</svg>