<?xml version="1.0" encoding="UTF-8"?>
<svg width="38.7px" height="38.7px" viewBox="0 0 38.7 38.7" version="1.1" xmlns="http://www.w3.org/2000/svg" xmlns:xlink="http://www.w3.org/1999/xlink">
    <!-- Generator: Sketch 52.6 (67491) - http://www.bohemiancoding.com/sketch -->
    <desc>Created with Sketch.</desc>
    <g id="Page-1" stroke="none" stroke-width="1" fill="none" fill-rule="evenodd">
        <g id="icon_no-touch" fill="#13C6B9">
            <path d="M19.35,0 C8.6800623,0 0,8.6800623 0,19.35 C0,30.0199377 8.6800623,38.7 19.35,38.7 C30.0199377,38.7 38.7,30.0199377 38.7,19.35 C38.7,8.6800623 30.0199377,0 19.35,0 Z M19.35,37.0875252 C9.5701623,37.0875252 1.6124748,29.1298377 1.6124748,19.35 C1.6124748,14.7495375 3.3878373,10.5666873 6.2694,7.41105 L14.5109127,15.6525627 L14.5109127,20.9593002 L13.167675,19.7257377 C11.6471127,18.2035125 8.9913252,18.2019252 7.4675127,19.7257377 C7.1643375,20.0289129 7.15148789,20.5158375 7.4384877,20.8351125 L13.941675,28.0639248 C15.6557373,29.7779871 17.9051748,30.6342246 20.1562752,30.6342246 C22.4073,30.6342246 24.6567375,29.7763998 26.3692125,28.0639248 C26.461125,27.970425 26.5336875,27.8591625 26.6191752,27.7607496 L31.28895,32.4305244 C28.1333127,35.3121627 23.9504625,37.0875252 19.35,37.0875252 Z M14.7704748,23.3877252 C15.005925,23.6038254 15.3461373,23.6618754 15.6412248,23.5328502 C15.934725,23.403825 16.1233875,23.113575 16.1233875,22.7943 L16.1233875,17.2650375 L25.4920377,26.6336877 C25.4082129,26.7336879 25.3211379,26.8320252 25.2292254,26.9239377 C22.4299002,29.7200127 17.8778127,29.7216 15.1107627,26.95455 L9.22995,20.41425 C10.1281377,19.9627752 11.2874748,20.1224127 12.0502125,20.888325 L14.7704748,23.3877252 Z M32.4290127,31.2905373 L27.138375,25.9998996 C27.1367877,25.9983123 27.1367877,25.9966494 27.1351248,25.9950621 L15.8879373,14.7478746 C15.88635,14.7462873 15.88635,14.7462873 15.8846871,14.7462873 L7.4094627,6.2709873 C10.5651,3.3878373 14.7495375,1.6124748 19.35,1.6124748 C29.1298377,1.6124748 37.0875252,9.5701623 37.0875252,19.35 C37.0875252,23.9504625 35.3121627,28.1349 32.4290127,31.2905373 Z" id="Shape" fill-rule="nonzero"></path>
            <path d="M26.60625,11.2858875 C26.286975,11.2858875 25.9854627,11.3520252 25.706475,11.4632877 C25.4274873,10.4360748 24.4955127,9.675 23.3812248,9.675 C23.0635371,9.675 22.7604375,9.7411377 22.4814498,9.8524002 C22.2024621,8.82526289 21.2704875,8.0625252 20.1561996,8.0625252 C19.0419117,8.0625252 18.1099371,8.82526289 17.8309494,9.8524002 C17.5520373,9.7411377 17.2489377,9.675 16.93125,9.675 C16.2007875,9.675 15.5138625,10.0200498 15.0430377,10.62315 C14.7705504,10.9747002 14.831775,11.4809748 15.1833252,11.755125 C15.5332125,12.0276123 16.04115,11.9663877 16.3153002,11.6148375 C16.4104629,11.4923127 16.6168125,11.2874748 16.93125,11.2874748 C17.3763,11.2874748 17.7375252,11.6487 17.7375252,12.09375 L17.7375252,13.9836252 L17.7375252,14.5125 C17.7375252,14.95755 18.0987504,15.3187752 18.5438004,15.3187752 C18.9888504,15.3187752 19.35,14.95755 19.35,14.5125 L19.35,13.9836252 L19.35,12.09375 L19.35,10.4812752 C19.35,10.0362252 19.7112252,9.675 20.1562752,9.675 C20.6013252,9.675 20.9625504,10.0362252 20.9625504,10.4812752 L20.9625504,12.09375 L20.9625504,16.93125 C20.9625504,17.3763 21.3237756,17.7375252 21.7688256,17.7375252 C22.2138756,17.7375252 22.5751008,17.3763 22.5751008,16.93125 L22.5751008,12.09375 C22.5751008,11.6487 22.936326,11.2874748 23.381376,11.2874748 C23.826426,11.2874748 24.1875,11.6487 24.1875,12.09375 L24.1875,13.7046375 L24.1875,16.93125 L24.1875,18.5421375 C24.1875,18.9871875 24.5487252,19.3484127 24.9937752,19.3484127 C25.4388252,19.3484127 25.8000504,18.9871875 25.8000504,18.5421375 L25.8000504,16.93125 L25.8000504,13.7046375 C25.8000504,13.2595875 26.1612756,12.8983623 26.6063256,12.8983623 C27.0513756,12.8983623 27.4126008,13.2595875 27.4126008,13.7046375 L27.4126008,21.7671627 C27.4126008,22.242825 27.3529635,22.73625 27.2303631,23.2764627 C27.1320258,23.7118377 27.4045131,24.1423752 27.8383008,24.2423754 C27.8979381,24.2553006 27.957651,24.2617254 28.0172883,24.2617254 C28.3849383,24.2617254 28.7187258,24.0085881 28.8025506,23.6328504 C28.9525131,22.9733631 29.0250756,22.3638381 29.0250756,21.7671627 L29.0250756,13.7046375 C29.025,12.3710748 27.9398127,11.2858875 26.60625,11.2858875 Z" id="Path"></path>
        </g>
    </g>
</svg>