<?xml version="1.0" encoding="UTF-8"?>
<svg width="30.6px" height="32.4px" viewBox="0 0 30.6 32.4" version="1.1" xmlns="http://www.w3.org/2000/svg" xmlns:xlink="http://www.w3.org/1999/xlink">
    <!-- Generator: Sketch 52.6 (67491) - http://www.bohemiancoding.com/sketch -->
    <desc>Created with Sketch.</desc>
    <defs>
        <linearGradient x1="50%" y1="0%" x2="50%" y2="100%" id="linearGradient-1">
            <stop stop-color="#039775" offset="0%"></stop>
            <stop stop-color="#50B848" offset="100%"></stop>
        </linearGradient>
    </defs>
    <g id="Page-1" stroke="none" stroke-width="1" fill="none" fill-rule="evenodd">
        <path d="M5.90051045,21.3696883 C5.57184559,20.787681 5.76627851,20.070508 6.3471367,19.7389546 C6.92718137,19.4161472 7.64471208,19.612535 7.97988515,20.1810258 C8.31099059,20.7439509 8.11004945,21.4738454 7.54139416,21.7894969 C7.34858829,21.8992196 7.14846068,21.9604417 6.94426543,21.9604417 C6.53180731,21.9604417 6.13399266,21.737816 5.90051045,21.3696883 M10.0364811,17.8394798 C9.52884033,16.925919 7.58207051,17.2248736 8.21418089,18.5272344 C7.44051683,18.0986798 6.46753868,18.074827 5.64831712,18.5439313 C4.41663742,19.2539485 3.98790876,20.830616 4.69405009,22.0518773 C5.41971606,23.2858601 7.00121231,23.6889718 8.23451906,22.9956515 C9.05374063,22.5265472 9.52558622,21.6726184 9.52884033,20.7988123 C10.3602648,21.9954258 11.5992662,20.4640785 11.0574573,19.5791411 C11.5585899,19.1967018 12.5510927,18.5820957 13.4524805,18.0390479 C13.4988515,17.375146 13.528952,16.6985227 13.544409,16.0195141 C12.4526559,16.6309399 10.8272292,17.5031558 10.0364811,17.8394798 M17.2614133,2.84881472 C18.3336417,3.32427975 19.4839687,4.09233865 20.5635189,5.16889325 C21.5763599,6.1707092 22.367108,7.22420613 22.8495294,8.21648098 C22.4598501,9.7700908 19.8476152,11.9947583 16.9237996,13.9459141 C16.9164779,14.3267632 16.9164779,14.6853497 16.9164779,14.9715828 C16.9164779,15.3476613 16.9164779,15.715789 16.9237996,16.0998184 C20.3934918,14.3267632 24.1544265,12.9226307 25.8652736,13.4076368 C26.4916893,14.3267632 27.0261764,15.5265571 27.3955176,16.8917301 C27.7827564,18.3594699 27.8950231,19.7246429 27.7729941,20.8735509 C28.4636784,21.7648491 29.2202584,22.4502184 29.9272133,22.8994454 C30.3494337,20.7121472 30.6,18.3992245 30.6,16.009973 C30.6,13.1182233 30.2745892,10.3449423 29.6644441,7.7855411 C27.7209284,5.9711411 25.4633913,4.30144785 22.9300686,2.86471656 C20.8393045,1.66730798 18.6850853,0.734665031 16.5747966,0 C16.601643,0.835641718 16.8375658,1.81758037 17.2614133,2.84881472 M22.973999,21.7894969 C22.3955814,21.4738454 22.1970809,20.7439509 22.533881,20.1810258 C22.85197,19.612535 23.5890254,19.4161472 24.1593077,19.7389546 C24.74342,20.070508 24.9354123,20.787681 24.6067475,21.3696883 C24.3797735,21.737816 23.9835859,21.9604417 23.5703142,21.9604417 C23.3555431,21.9604417 23.1586696,21.8992196 22.973999,21.7894969 M17.0157282,18.0151951 C17.9407082,18.5646037 18.9340246,19.1951117 19.4563088,19.5791411 C18.9128729,20.4640785 20.1494337,21.9954258 20.9719094,20.7988123 C20.9906205,21.6726184 21.4478226,22.5265472 22.2637901,22.9956515 C22.580252,23.1658012 22.9243739,23.2858601 23.2538523,23.3144834 L23.866438,23.3144834 C24.6441697,23.2198675 25.3771574,22.7809767 25.8099537,22.0518773 C26.5339927,20.830616 26.1028234,19.2650798 24.8621949,18.5439313 C24.0348381,18.074827 23.0740628,18.0986798 22.3060935,18.5272344 C22.9300686,17.2248736 20.9824852,16.925919 20.4780986,17.8394798 C19.6670123,17.4920245 18.0204339,16.6277595 16.9237996,16.009973 C16.9408837,16.6778503 16.9750518,17.3481129 17.0157282,18.0151951 M7.58207051,2.86471656 C5.05444249,4.30144785 2.79121072,5.9711411 0.855016749,7.7855411 C0.431982772,9.55382577 0.144807784,11.439784 0,13.3821939 L0,18.5391607 C0.108199075,20.0418847 0.309140214,21.4945178 0.581671718,22.8994454 C1.31140533,22.4502184 2.04846068,21.7648491 2.73345031,20.8735509 C2.61060775,19.7246429 2.72612857,18.3594699 3.11824852,16.8917301 C3.48596267,15.5265571 4.00499282,14.3267632 4.64035731,13.4076368 C6.3471367,12.9226307 10.0901739,14.3267632 13.544409,16.0775558 C13.544409,15.6967067 13.5590525,15.3476613 13.5590525,14.9715828 C13.5590525,14.6726282 13.5590525,14.3140417 13.544409,13.9236515 C10.6336098,11.9820368 8.05472962,9.7700908 7.66993141,8.21648098 C8.15642048,7.22420613 8.94310097,6.16275828 9.95268783,5.16889325 C11.0338651,4.09233865 12.1752433,3.32427975 13.2474717,2.84881472 C13.6705057,1.81758037 13.9121231,0.835641718 13.9405966,0 C11.8148509,0.734665031 9.67202106,1.66730798 7.58207051,2.86471656 M14.044728,6.50067239 C14.044728,5.8415411 14.5686393,5.30962454 15.2316637,5.30962454 C15.8995693,5.30962454 16.4283618,5.8415411 16.4283618,6.50067239 C16.4283618,7.15662331 15.8995693,7.68694969 15.2316637,7.68694969 C14.574334,7.68694969 14.044728,7.15662331 14.044728,6.50067239 M12.6576647,6.50067239 C12.6576647,7.44365153 13.1555431,8.24828466 13.9121231,8.7030773 C12.4607912,8.81518528 13.1612378,10.635946 14.2261445,10.618454 C14.3278354,11.5741546 14.3847823,13.7678135 14.3847823,14.9715828 C14.3847823,19.4543117 13.7640613,24.918184 12.2175467,26.4018258 C11.0989472,26.4940564 9.78184718,26.3374233 8.40291913,25.9772466 C6.92718137,25.5836761 5.66377413,24.9897423 4.73472643,24.3162994 C3.60880523,24.460211 2.63257298,24.7496245 1.8735524,25.1384245 C3.5835859,26.5950331 5.47584942,27.9681571 7.57230818,29.1576147 C10.0137023,30.5561816 12.5331951,31.6462528 15.0046897,32.4 L15.4627054,32.4 C17.9464029,31.6462528 20.4504387,30.5561816 22.9015952,29.1576147 C24.9980539,27.9681571 26.8919445,26.5950331 28.5840804,25.1384245 C27.8429574,24.7591656 26.8667252,24.460211 25.7448716,24.3162994 C24.7930451,24.9897423 23.5507896,25.5836761 22.0628489,25.9772466 C20.6896156,26.3374233 19.3635668,26.4940564 18.2596108,26.4018258 C16.7057744,24.918184 16.0809858,19.4543117 16.0809858,14.9715828 C16.0809858,13.7678135 16.1346786,11.5741546 16.2493859,10.618454 C17.2955814,10.635946 18.0131121,8.81518528 16.5544584,8.7030773 C17.3183602,8.24828466 17.8316956,7.44365153 17.8316956,6.50067239 C17.8316956,5.08302331 16.6691657,3.93173006 15.2316637,3.93173006 C13.802297,3.93173006 12.6576647,5.08302331 12.6576647,6.50067239" id="Fill-14" fill="url(#linearGradient-1)"></path>
    </g>
</svg>