<?xml version="1.0" encoding="UTF-8"?>
<svg width="22px" height="21px" viewBox="0 0 22 21" version="1.1" xmlns="http://www.w3.org/2000/svg" xmlns:xlink="http://www.w3.org/1999/xlink">
    <!-- Generator: Sketch 52.6 (67491) - http://www.bohemiancoding.com/sketch -->
    <desc>Created with Sketch.</desc>
    <defs>
        <linearGradient x1="10.9906944%" y1="17.7734393%" x2="82.0081345%" y2="90.9801566%" id="linearGradient-1">
            <stop stop-color="#13C6B9" offset="0%"></stop>
            <stop stop-color="#26B1C9" offset="100%"></stop>
        </linearGradient>
    </defs>
    <g id="Page-1" stroke="none" stroke-width="1" fill="none" fill-rule="evenodd">
        <g id="icon---phone-number" transform="translate(1.000000, 1.000000)" fill="url(#linearGradient-1)" stroke="url(#linearGradient-1)" stroke-width="0.95">
            <path d="M16.1042538,11.6595956 C15.6867011,11.2484027 15.1830551,11.028557 14.6492764,11.028557 C14.1198023,11.028557 13.6118516,11.2443315 13.1770802,11.6555244 L11.8168055,12.9379578 C11.7048841,12.8809607 11.5929628,12.8280349 11.4853461,12.7751091 C11.3303781,12.7018272 11.1840194,12.6326165 11.0591841,12.5593346 C9.78500261,11.7939458 8.62704717,10.7964976 7.51644307,9.50592177 C6.97835969,8.86266947 6.61676766,8.3211976 6.35418297,7.77158329 C6.70716567,7.46624201 7.03432036,7.14868708 7.35286573,6.8433458 C7.4733964,6.72935172 7.59392708,6.61128643 7.71445776,6.49729235 C8.61843784,5.64233676 8.61843784,4.53496572 7.71445776,3.68001013 L6.53928365,2.56856787 C6.40583897,2.44236014 6.26808963,2.31208119 6.13894962,2.18180224 C5.88066959,1.92938679 5.60947557,1.66882889 5.32967221,1.42455587 C4.91211951,1.03371903 4.41277813,0.826086957 3.88760875,0.826086957 C3.36243937,0.826086957 2.85448866,1.03371903 2.42402195,1.42455587 C2.41971728,1.42862708 2.41971728,1.42862708 2.41541262,1.4326983 L0.951825819,2.82912576 C0.400828436,3.35024155 0.086587741,3.98535141 0.0177130682,4.7222417 C-0.0855989411,5.91103709 0.284602425,7.01840813 0.568710451,7.74308477 C1.26606651,9.52220664 2.30779594,11.1710496 3.86178075,12.9379578 C5.74722492,15.0672043 8.01578445,16.748617 10.607194,17.9333411 C11.5972674,18.3771038 12.9188002,18.9022908 14.395301,18.9918576 C14.485699,18.9959288 14.5804017,19 14.666495,19 C15.6608731,19 16.4959785,18.662089 17.1502879,17.9903382 C17.1545926,17.9821957 17.1632019,17.9781245 17.1675066,17.9699821 C17.3913493,17.7134954 17.6496293,17.481436 17.9208233,17.2330918 C18.105924,17.0661719 18.2953294,16.8911096 18.4804301,16.7079048 C18.9065921,16.2885694 19.1304348,15.8000234 19.1304348,15.2992637 C19.1304348,14.7944328 18.9022874,14.3099579 18.4675161,13.9028362 L16.1042538,11.6595956 Z M17.6453246,15.9465872 C17.64102,15.9465872 17.64102,15.9506584 17.6453246,15.9465872 C17.4774426,16.1175783 17.305256,16.2722846 17.1201553,16.4432757 C16.8403519,16.6956911 16.5562439,16.9603202 16.2893545,17.2575191 C15.8545832,17.6972105 15.3423278,17.9048426 14.6707997,17.9048426 C14.6062297,17.9048426 14.537355,17.9048426 14.472785,17.9007714 C13.1942989,17.8234183 12.0062108,17.3511571 11.1151447,16.9481066 C8.67870318,15.8325931 6.53928365,14.2488897 4.76145616,12.2417796 C3.2935647,10.5685094 2.31210061,9.02144694 1.66209588,7.36039037 C1.26176185,6.34665732 1.11540317,5.5568412 1.17997317,4.81180848 C1.22301984,4.33547608 1.41672986,3.94056802 1.77401723,3.602657 L3.24190869,2.21437198 C3.45283738,2.027096 3.67668006,1.92531557 3.89621808,1.92531557 C4.16741211,1.92531557 4.38695013,2.08002182 4.52469947,2.21030076 C4.52900414,2.21437198 4.53330881,2.2184432 4.53761347,2.22251441 C4.80019816,2.45457379 5.04986885,2.6947756 5.31245354,2.95126227 C5.44589822,3.08154122 5.58364757,3.21182017 5.72139691,3.34617033 L6.89657102,4.45761259 C7.35286573,4.8891616 7.35286573,5.28814088 6.89657102,5.71968989 C6.77173567,5.83775518 6.651205,5.95582048 6.52636965,6.06981456 C6.16477762,6.41993922 5.82040426,6.74563659 5.44589822,7.06319152 C5.43728889,7.07133396 5.42867955,7.07540517 5.42437489,7.08354761 C5.05417352,7.43367228 5.12304819,7.77565451 5.2005322,8.00771388 C5.20483687,8.01992754 5.20914153,8.03214119 5.2134462,8.04435484 C5.51907756,8.74460418 5.94954427,9.40414134 6.60385366,10.1898862 L6.60815833,10.1939575 C7.79624643,11.5781713 9.04890454,12.6570438 10.4307027,13.4835009 C10.607194,13.5893525 10.78799,13.6748481 10.9601767,13.7562724 C11.1151447,13.8295543 11.2615034,13.898765 11.3863388,13.9720469 C11.4035574,13.9801893 11.4207761,13.992403 11.4379948,14.0005454 C11.5843534,14.0697561 11.7221028,14.1023259 11.8641568,14.1023259 C12.2214442,14.1023259 12.4452868,13.8906226 12.5184662,13.8214119 L13.9906623,12.4290556 C14.137021,12.2906343 14.369473,12.1237144 14.640667,12.1237144 C14.9075564,12.1237144 15.1270944,12.2824918 15.2605391,12.4209132 C15.2648438,12.4249844 15.2648438,12.4249844 15.2691484,12.4290556 L17.64102,14.6722962 C18.0844007,15.0875604 18.0844007,15.5150382 17.6453246,15.9465872 Z" id="Shape"></path>
            <path d="M10.9084733,4.38896561 C12.0253237,4.56716527 13.0398672,5.06936429 13.8497968,5.83886281 C14.6597265,6.60836132 15.1840494,7.57225945 15.3758748,8.6333574 C15.4227655,8.90065688 15.6657444,9.08695652 15.9428256,9.08695652 C15.9769279,9.08695652 16.0067674,9.08290653 16.0408697,9.07885654 C16.356316,9.03025663 16.5651926,8.74675718 16.5140391,8.44705776 C16.2838486,7.16321024 15.6444304,5.99276251 14.668252,5.0653143 C13.6920737,4.1378661 12.460128,3.53036727 11.1088243,3.31166769 C10.793378,3.26306779 10.4992457,3.4615174 10.4438295,3.75716683 C10.3884132,4.05281626 10.593027,4.3403657 10.9084733,4.38896561 Z" id="Path"></path>
            <path d="M19.9912382,8.45582183 C19.6123527,6.34394805 18.5650962,4.42222383 16.9558971,2.89293592 C15.3466981,1.36364802 13.3245564,0.368397155 11.1023292,0.00832672223 C10.7915579,-0.0442678354 10.4978153,0.158018925 10.4424724,0.453357595 C10.3913867,0.752742 10.5999866,1.03189773 10.915015,1.08449229 C12.8988424,1.40410537 14.708127,2.29821285 16.1470405,3.66162561 C17.5859539,5.02908411 18.5225248,6.74852157 18.8588388,8.63383418 C18.9056674,8.9008527 19.1483244,9.08695652 19.4250385,9.08695652 C19.4590956,9.08695652 19.4888956,9.08291079 19.5229527,9.07886505 C19.833724,9.03436196 20.046581,8.7511605 19.9912382,8.45582183 Z" id="Path"></path>
        </g>
    </g>
</svg>