<svg width="50" height="53" viewBox="0 0 50 53" fill="none" xmlns="http://www.w3.org/2000/svg">
<g id="logo-OM-mark">
<g id="logo-OM-mark_2">
<rect id="Rectangle" width="50" height="52.1127" rx="25" fill="url(#paint0_linear)"/>
<path id="Fill 14" fill-rule="evenodd" clip-rule="evenodd" d="M17.5215 30.2691C17.2696 29.826 17.4186 29.28 17.8637 29.0276C18.3082 28.7818 18.858 28.9314 19.1149 29.3642C19.3686 29.7927 19.2146 30.3484 18.7788 30.5887C18.6311 30.6722 18.4777 30.7189 18.3213 30.7189C18.0052 30.7189 17.7004 30.5494 17.5215 30.2691M20.6908 27.5815C20.3018 26.886 18.81 27.1136 19.2944 28.1051C18.7015 27.7788 17.956 27.7607 17.3282 28.1178C16.3844 28.6584 16.0559 29.8587 16.597 30.7885C17.153 31.7279 18.3649 32.0348 19.31 31.507C19.9377 31.1498 20.2993 30.4997 20.3018 29.8345C20.9389 30.7455 21.8883 29.5796 21.4731 28.9059C21.8572 28.6148 22.6177 28.1469 23.3084 27.7334C23.3439 27.228 23.367 26.7129 23.3789 26.1959C22.5423 26.6614 21.2967 27.3254 20.6908 27.5815M26.2271 16.1689C27.0488 16.5308 27.9302 17.1156 28.7575 17.9352C29.5336 18.6979 30.1395 19.4999 30.5092 20.2553C30.2106 21.4381 28.2089 23.1318 25.9684 24.6173C25.9628 24.9072 25.9628 25.1802 25.9628 25.3981C25.9628 25.6844 25.9628 25.9647 25.9684 26.2571C28.6272 24.9072 31.5091 23.8382 32.8201 24.2075C33.3001 24.9072 33.7097 25.8206 33.9927 26.86C34.2895 27.9774 34.3755 29.0167 34.282 29.8914C34.8112 30.5699 35.391 31.0917 35.9327 31.4337C36.2563 29.7685 36.4483 28.0076 36.4483 26.1887C36.4483 23.9871 36.1989 21.8758 35.7314 19.9273C34.2421 18.5459 32.5122 17.2748 30.5709 16.181C28.9688 15.2693 27.3181 14.5593 25.701 14C25.7216 14.6362 25.9023 15.3838 26.2271 16.1689M30.6046 30.5887C30.1614 30.3484 30.0093 29.7927 30.2673 29.3642C30.5111 28.9314 31.0759 28.7818 31.5129 29.0276C31.9605 29.28 32.1076 29.826 31.8557 30.2691C31.6818 30.5494 31.3782 30.7189 31.0615 30.7189C30.897 30.7189 30.7461 30.6722 30.6046 30.5887M26.0389 27.7153C26.7477 28.1335 27.5088 28.6136 27.909 28.9059C27.4926 29.5796 28.4402 30.7455 29.0704 29.8345C29.0848 30.4997 29.4351 31.1498 30.0604 31.507C30.3029 31.6365 30.5666 31.7279 30.819 31.7497H31.2885C31.8844 31.6777 32.4461 31.3435 32.7777 30.7885C33.3326 29.8587 33.0022 28.6668 32.0515 28.1178C31.4175 27.7607 30.6813 27.7788 30.0928 28.1051C30.5709 27.1136 29.0785 26.886 28.692 27.5815C28.0705 27.317 26.8088 26.659 25.9684 26.1887C25.9815 26.6971 26.0077 27.2074 26.0389 27.7153M18.81 16.181C16.8731 17.2748 15.1389 18.5459 13.6552 19.9273C13.331 21.2735 13.111 22.7093 13 24.1881V28.1142C13.0829 29.2582 13.2369 30.3641 13.4457 31.4337C14.0049 31.0917 14.5697 30.5699 15.0946 29.8914C15.0005 29.0167 15.089 27.9774 15.3895 26.86C15.6712 25.8206 16.069 24.9072 16.5558 24.2075C17.8637 23.8382 20.7319 24.9072 23.3789 26.2401C23.3789 25.9502 23.3901 25.6844 23.3901 25.3981C23.3901 25.1705 23.3901 24.8975 23.3789 24.6003C21.1484 23.1221 19.1722 21.4381 18.8773 20.2553C19.2501 19.4999 19.853 18.6918 20.6266 17.9352C21.4551 17.1156 22.3297 16.5308 23.1513 16.1689C23.4755 15.3838 23.6606 14.6362 23.6824 14C22.0535 14.5593 20.4115 15.2693 18.81 16.181M23.7622 18.9491C23.7622 18.4473 24.1637 18.0423 24.6718 18.0423C25.1836 18.0423 25.5888 18.4473 25.5888 18.9491C25.5888 19.4485 25.1836 19.8522 24.6718 19.8522C24.1681 19.8522 23.7622 19.4485 23.7622 18.9491M22.6994 18.9491C22.6994 19.667 23.0809 20.2796 23.6606 20.6258C22.5485 20.7111 23.0852 22.0973 23.9013 22.084C23.9792 22.8116 24.0228 24.4817 24.0228 25.3981C24.0228 28.8109 23.5472 32.9706 22.3621 34.1002C21.5049 34.1704 20.4957 34.0511 19.439 33.7769C18.3082 33.4773 17.3401 33.0251 16.6281 32.5124C15.7654 32.622 15.0173 32.8423 14.4357 33.1383C15.746 34.2472 17.1961 35.2926 18.8025 36.1982C20.6733 37.2629 22.604 38.0928 24.4978 38.6667H24.8488C26.752 38.0928 28.6708 37.2629 30.5491 36.1982C32.1556 35.2926 33.6069 34.2472 34.9035 33.1383C34.3356 32.8496 33.5875 32.622 32.7279 32.5124C31.9985 33.0251 31.0466 33.4773 29.9064 33.7769C28.8541 34.0511 27.838 34.1704 26.992 34.1002C25.8014 32.9706 25.3226 28.8109 25.3226 25.3981C25.3226 24.4817 25.3637 22.8116 25.4516 22.084C26.2533 22.0973 26.8032 20.7111 25.6854 20.6258C26.2708 20.2796 26.6641 19.667 26.6641 18.9491C26.6641 17.8698 25.7733 16.9933 24.6718 16.9933C23.5765 16.9933 22.6994 17.8698 22.6994 18.9491" fill="white"/>
</g>
</g>
<defs>
<linearGradient id="paint0_linear" x1="0" y1="0" x2="0" y2="52.1127" gradientUnits="userSpaceOnUse">
<stop stop-color="#20A364"/>
<stop offset="1" stop-color="#50B848"/>
</linearGradient>
</defs>
</svg>
