<?xml version="1.0" encoding="UTF-8"?>
<svg width="118px" height="14px" viewBox="0 0 118 14" version="1.1" xmlns="http://www.w3.org/2000/svg" xmlns:xlink="http://www.w3.org/1999/xlink">
    <!-- Generator: Sketch 52.6 (67491) - http://www.bohemiancoding.com/sketch -->
    <desc>Created with Sketch.</desc>
    <g id="Page-1" stroke="none" stroke-width="1" fill="none" fill-rule="evenodd">
        <g id="Stars-purple" fill="#BD4D9C">
            <path d="M7.91025143,0.349887224 L9.84928051,4.05286721 L14.1849451,4.6465515 C14.6517552,4.71039599 14.8380375,5.25133918 14.5000787,5.56154009 L11.3631001,8.44356331 L12.1038114,12.5136491 C12.1833311,12.9515389 11.6955366,13.2860285 11.27769,13.0788809 L7.4,11.1576478 L3.52231,13.0788809 C3.1044634,13.2860285 2.61666892,12.9515389 2.69655678,12.5136491 L3.43689994,8.44356331 L0.299921256,5.56154009 C-0.0380374851,5.25133918 0.148244784,4.71039599 0.615054898,4.6465515 L4.95071949,4.05286721 L6.88974857,0.349887224 C7.09848779,-0.0487938107 7.70151221,-0.0487938107 7.91025143,0.349887224" id="star1-purple"></path>
            <path d="M34.0920696,0.349887224 L36.0310987,4.05286721 L40.3667633,4.6465515 C40.8335734,4.71039599 41.0198557,5.25133918 40.6818969,5.56154009 L37.5449182,8.44356331 L38.2856296,12.5136491 C38.3651493,12.9515389 37.8773548,13.2860285 37.4595082,13.0788809 L33.5818182,11.1576478 L29.7041282,13.0788809 C29.2862816,13.2860285 28.7984871,12.9515389 28.878375,12.5136491 L29.6187181,8.44356331 L26.4817394,5.56154009 C26.1437807,5.25133918 26.330063,4.71039599 26.7968731,4.6465515 L31.1325377,4.05286721 L33.0715667,0.349887224 C33.280306,-0.0487938107 33.8833304,-0.0487938107 34.0920696,0.349887224" id="star2-purple"></path>
            <path d="M60.2738878,0.349887224 L62.2129169,4.05286721 L66.5485815,4.6465515 C67.0153916,4.71039599 67.2016738,5.25133918 66.8637151,5.56154009 L63.7267364,8.44356331 L64.4674477,12.5136491 C64.5469674,12.9515389 64.059173,13.2860285 63.6413264,13.0788809 L59.7636364,11.1576478 L55.8859464,13.0788809 C55.4680998,13.2860285 54.9803053,12.9515389 55.0601931,12.5136491 L55.8005363,8.44356331 L52.6635576,5.56154009 C52.3255989,5.25133918 52.5118811,4.71039599 52.9786913,4.6465515 L57.3143559,4.05286721 L59.2533849,0.349887224 C59.4621242,-0.0487938107 60.0651486,-0.0487938107 60.2738878,0.349887224" id="star3-purple"></path>
            <path d="M85.0011605,0.349887224 L86.9401896,4.05286721 L91.2758542,4.6465515 C91.7426643,4.71039599 91.9289466,5.25133918 91.5909878,5.56154009 L88.4540091,8.44356331 L89.1947205,12.5136491 C89.2742402,12.9515389 88.7864457,13.2860285 88.3685991,13.0788809 L84.4909091,11.1576478 L80.6132191,13.0788809 C80.1953725,13.2860285 79.707578,12.9515389 79.7874659,12.5136491 L80.527809,8.44356331 L77.3908303,5.56154009 C77.0528716,5.25133918 77.2391539,4.71039599 77.705964,4.6465515 L82.0416286,4.05286721 L83.9806577,0.349887224 C84.1893969,-0.0487938107 84.7924213,-0.0487938107 85.0011605,0.349887224" id="star4-purple"></path>
            <path d="M111.182979,0.349887224 L113.122008,4.05286721 L117.457672,4.6465515 C117.924482,4.71039599 118.110765,5.25133918 117.772806,5.56154009 L114.635827,8.44356331 L115.376539,12.5136491 C115.456058,12.9515389 114.968264,13.2860285 114.550417,13.0788809 L110.672727,11.1576478 L106.795037,13.0788809 C106.377191,13.2860285 105.889396,12.9515389 105.969284,12.5136491 L106.709627,8.44356331 L103.572649,5.56154009 C103.23469,5.25133918 103.420972,4.71039599 103.887782,4.6465515 L108.223447,4.05286721 L110.162476,0.349887224 C110.371215,-0.0487938107 110.974239,-0.0487938107 111.182979,0.349887224" id="star5-purple"></path>
        </g>
    </g>
</svg>