<?xml version="1.0" encoding="UTF-8"?>
<svg width="400px" height="306px" viewBox="0 0 400 306" version="1.1" xmlns="http://www.w3.org/2000/svg" xmlns:xlink="http://www.w3.org/1999/xlink">
    <!-- Generator: Sketch 52.6 (67491) - http://www.bohemiancoding.com/sketch -->
    <desc>Created with Sketch.</desc>
    <defs>
        <circle id="path-1" cx="192" cy="132" r="90"></circle>
        <filter x="-60.6%" y="-49.4%" width="221.1%" height="221.1%" filterUnits="objectBoundingBox" id="filter-2">
            <feOffset dx="0" dy="20" in="SourceAlpha" result="shadowOffsetOuter1"></feOffset>
            <feGaussianBlur stdDeviation="33" in="shadowOffsetOuter1" result="shadowBlurOuter1"></feGaussianBlur>
            <feColorMatrix values="0 0 0 0 0   0 0 0 0 0   0 0 0 0 0  0 0 0 0.07 0" type="matrix" in="shadowBlurOuter1"></feColorMatrix>
        </filter>
        <linearGradient x1="-20.0626299%" y1="-196.167906%" x2="101.999998%" y2="100.999999%" id="linearGradient-3">
            <stop stop-color="#FFC819" offset="0%"></stop>
            <stop stop-color="#FFF9F7" offset="100%"></stop>
        </linearGradient>
        <linearGradient x1="50%" y1="91.3885582%" x2="21.6957838%" y2="14.982453%" id="linearGradient-4">
            <stop stop-color="#13C6B9" offset="0%"></stop>
            <stop stop-color="#26B1C9" offset="100%"></stop>
        </linearGradient>
        <path d="M21.4004035,54.5213356 C40.5320535,54.5213356 42.7126663,48.3226633 42.7126663,34.8285994 C42.7126663,23.3835661 29.9919911,12.3143674 24.2438326,9.21661582 C23.6906178,8.91848174 34.2810311,4.70131046 30.7273849,1.88855414 C30.1058512,1.39660228 29.2386907,1.39660228 28.8765011,1.73266468 C27.9626451,2.5805979 26.4559064,2.9967499 25.2206008,2.77436329 C23.9852952,2.55197667 22.8342602,0.388562107 21.4004035,0.388562107 C19.8122662,0.388562107 19.0920877,2.18624096 17.6079745,2.46643941 C16.8650601,2.60670058 14.6209311,1.3222919 13.1218163,1.17742956 C11.6261632,1.03290174 10.8745917,2.027572 10.9338401,2.46643941 C11.0805355,3.5530469 12.2380591,6.99230131 15.4150986,8.362926 C17.3252921,9.18701344 17.9552798,9.21661582 17.943533,9.21661582 C17.0968904,9.21661582 17.8279454,8.95975946 15.4150986,10.8277699 C9.8280621,15.1532175 0.0881406105,25.0324867 0.0881406105,34.8285994 C0.0881406105,48.3226633 2.26875349,54.5213356 21.4004035,54.5213356 Z" id="path-5"></path>
        <filter x="-74.4%" y="-74.4%" width="248.9%" height="248.9%" filterUnits="objectBoundingBox" id="filter-7">
            <feOffset dx="0" dy="4" in="SourceAlpha" result="shadowOffsetOuter1"></feOffset>
            <feGaussianBlur stdDeviation="6.5" in="shadowOffsetOuter1" result="shadowBlurOuter1"></feGaussianBlur>
            <feColorMatrix values="0 0 0 0 0   0 0 0 0 0   0 0 0 0 0  0 0 0 0.115404212 0" type="matrix" in="shadowBlurOuter1" result="shadowMatrixOuter1"></feColorMatrix>
            <feMerge>
                <feMergeNode in="shadowMatrixOuter1"></feMergeNode>
                <feMergeNode in="SourceGraphic"></feMergeNode>
            </feMerge>
        </filter>
        <filter x="-75.6%" y="-75.6%" width="251.2%" height="251.2%" filterUnits="objectBoundingBox" id="filter-8">
            <feOffset dx="0" dy="4" in="SourceAlpha" result="shadowOffsetOuter1"></feOffset>
            <feGaussianBlur stdDeviation="6" in="shadowOffsetOuter1" result="shadowBlurOuter1"></feGaussianBlur>
            <feColorMatrix values="0 0 0 0 0   0 0 0 0 0   0 0 0 0 0  0 0 0 0.115404212 0" type="matrix" in="shadowBlurOuter1" result="shadowMatrixOuter1"></feColorMatrix>
            <feMerge>
                <feMergeNode in="shadowMatrixOuter1"></feMergeNode>
                <feMergeNode in="SourceGraphic"></feMergeNode>
            </feMerge>
        </filter>
        <filter x="-69.2%" y="-69.2%" width="238.5%" height="238.5%" filterUnits="objectBoundingBox" id="filter-9">
            <feOffset dx="0" dy="6" in="SourceAlpha" result="shadowOffsetOuter1"></feOffset>
            <feGaussianBlur stdDeviation="11" in="shadowOffsetOuter1" result="shadowBlurOuter1"></feGaussianBlur>
            <feColorMatrix values="0 0 0 0 0   0 0 0 0 0   0 0 0 0 0  0 0 0 0.115404212 0" type="matrix" in="shadowBlurOuter1" result="shadowMatrixOuter1"></feColorMatrix>
            <feMerge>
                <feMergeNode in="shadowMatrixOuter1"></feMergeNode>
                <feMergeNode in="SourceGraphic"></feMergeNode>
            </feMerge>
        </filter>
        <filter x="-178.3%" y="-178.3%" width="458.8%" height="458.8%" filterUnits="objectBoundingBox" id="filter-10">
            <feOffset dx="0" dy="10" in="SourceAlpha" result="shadowOffsetOuter1"></feOffset>
            <feGaussianBlur stdDeviation="15.5" in="shadowOffsetOuter1" result="shadowBlurOuter1"></feGaussianBlur>
            <feColorMatrix values="0 0 0 0 0   0 0 0 0 0   0 0 0 0 0  0 0 0 0.115404212 0" type="matrix" in="shadowBlurOuter1" result="shadowMatrixOuter1"></feColorMatrix>
            <feMerge>
                <feMergeNode in="shadowMatrixOuter1"></feMergeNode>
                <feMergeNode in="SourceGraphic"></feMergeNode>
            </feMerge>
        </filter>
        <linearGradient x1="-38.5860095%" y1="-21.511115%" x2="91.7174755%" y2="91.7507424%" id="linearGradient-11">
            <stop stop-color="#F6D365" offset="0%"></stop>
            <stop stop-color="#FDE885" offset="100%"></stop>
        </linearGradient>
        <path d="M22.0142501,44.0285003 C9.85636245,44.0285003 0,34.1723898 0,22.0142501 C0,9.85611051 9.85636245,0 22.0142501,0 C34.1723898,0 44.0285003,9.85611051 44.0285003,22.0142501 C44.0285003,34.1723898 34.1723898,44.0285003 22.0142501,44.0285003 Z" id="path-12"></path>
        <filter x="-137.0%" y="-137.5%" width="375.2%" height="375.2%" filterUnits="objectBoundingBox" id="filter-13">
            <feOffset dx="0" dy="11" in="SourceAlpha" result="shadowOffsetOuter1"></feOffset>
            <feGaussianBlur stdDeviation="17" in="shadowOffsetOuter1" result="shadowBlurOuter1"></feGaussianBlur>
            <feColorMatrix values="0 0 0 0 0   0 0 0 0 0   0 0 0 0 0  0 0 0 0.115404212 0" type="matrix" in="shadowBlurOuter1" result="shadowMatrixOuter1"></feColorMatrix>
            <feMerge>
                <feMergeNode in="shadowMatrixOuter1"></feMergeNode>
                <feMergeNode in="SourceGraphic"></feMergeNode>
            </feMerge>
        </filter>
    </defs>
    <g id="Page-1" stroke="none" stroke-width="1" fill="none" fill-rule="evenodd">
        <g id="Section-4---Right" transform="translate(0.000000, 1.000000)">
            <g id="Oval-Copy-16" fill-rule="nonzero">
                <use fill="black" fill-opacity="1" filter="url(#filter-2)" xlink:href="#path-1"></use>
                <use fill="#FFFFFF" xlink:href="#path-1"></use>
            </g>
            <g id="illustration/goals" transform="translate(162.000000, 75.000000)">
                <g transform="translate(0.684000, 0.513000)">
                    <path d="M47.869056,38.4958268 L47.869056,78.784488 L11.967264,78.784488 L11.967264,38.4958268 L2.99189333,38.4958268 C2.29346922,38.4958268 1.61705369,38.2514778 1.07987017,37.8051258 C-0.191000569,36.7491446 -0.365202937,34.8628583 0.690778295,33.5919876 L27.7054735,1.07987017 C27.8229431,0.938495874 27.9531911,0.80824784 28.0945654,0.690778295 C29.3654362,-0.365202937 31.2517224,-0.191000569 32.3077036,1.07987017 L59.3223988,33.5919876 C59.7687509,34.1291711 60.0130998,34.8055866 60.0130998,35.5040108 C60.0130998,37.1563451 58.6736182,38.4958268 57.0212838,38.4958268 L47.869056,38.4958268 Z" id="Rectangle-5" fill="url(#linearGradient-3)" fill-rule="nonzero"></path>
                    <g id="Group-10" transform="translate(17.313750, 17.313750)" fill="#96D187" fill-rule="nonzero">
                        <path d="M12.105774,10.609866 C13.767894,9.12155306 14.598954,7.45943306 14.598954,5.623506 C14.598954,3.78757894 13.767894,2.12545894 12.105774,0.637146 C10.443654,2.12545894 9.612594,3.78757894 9.612594,5.623506 C9.612594,7.45943306 10.443654,9.12155306 12.105774,10.609866 Z" id="Oval-4"></path>
                        <path d="M7.11585829,22.777066 C9.11040229,20.9910905 10.1076743,18.9965465 10.1076743,16.793434 C10.1076743,14.5903215 9.11040229,12.5957775 7.11585829,10.809802 C5.12131429,12.5957775 4.12404229,14.5903215 4.12404229,16.793434 C4.12404229,18.9965465 5.12131429,20.9910905 7.11585829,22.777066 Z" id="Oval-4-Copy" transform="translate(7.115858, 16.793434) rotate(-49.000000) translate(-7.115858, -16.793434) "></path>
                        <path d="M11.9507398,34.7525602 L11.9507398,8.50383177" id="Path-3" stroke="#96D187" stroke-width="0.997272"></path>
                        <path d="M16.1218522,27.6615559 C18.46001,25.7975761 19.6290889,23.7159182 19.6290889,21.4165825 C19.6290889,19.1172468 18.46001,17.035589 16.1218522,15.1716091 C13.7836944,17.035589 12.6146154,19.1172468 12.6146154,21.4165825 C12.6146154,23.7159182 13.7836944,25.7975761 16.1218522,27.6615559 Z" id="Oval-4-Copy-2" transform="translate(16.121852, 21.416583) scale(-1, 1) rotate(-49.000000) translate(-16.121852, -21.416583) "></path>
                    </g>
                    <g id="Rectangle-4" transform="translate(7.978176, 49.478850)">
                        <mask id="mask-6" fill="white">
                            <use xlink:href="#path-5"></use>
                        </mask>
                        <use id="Mask" fill="url(#linearGradient-4)" fill-rule="nonzero" xlink:href="#path-5"></use>
                    </g>
                    <text id="R" font-family="Helvetica" font-size="15.956352" font-weight="normal" fill="#FFD86F">
                        <tspan x="23.934528" y="87.800856">R</tspan>
                    </text>
                    <rect id="Rectangle" fill="#FFD86F" fill-rule="nonzero" x="20.942712" y="57.841776" width="15.956352" height="2.991816" rx="1.495908"></rect>
                </g>
            </g>
            <g id="icon/goals/holiday" transform="translate(217.000000, 0.000000)">
                <g filter="url(#filter-7)" transform="translate(26.000000, 26.000000)">
                    <path d="M22.5,45 C10.0738455,45 0,34.926412 0,22.5 C0,10.073588 10.0738455,0 22.5,0 C34.9264119,0 45,10.073588 45,22.5 C45,34.926412 34.9264119,45 22.5,45 Z" id="Fill-1-Copy-2" fill="#FFFFFF" fill-rule="nonzero"></path>
                    <g id="002-sun-umbrella" transform="translate(9.145497, 9.405312)" fill-rule="nonzero">
                        <path d="M13.2625289,20.0072806 L17.8685855,8.45059469 C18.0613164,7.96702656 18.6095785,7.73121824 19.0931467,7.92394919 C19.5767148,8.11668014 19.8125231,8.66494226 19.6197921,9.14851039 L15.2209642,20.185254 L13.2625289,20.0072806 Z" id="Shape" fill="#90A4AE"></path>
                        <path d="M15.0781697,9.96246478 C15.0804197,9.95721478 15.0826697,9.95196478 15.0849197,9.94671478 C15.0826697,9.94696478 15.0804197,9.94746478 15.0784197,9.94771478 L15.0781697,9.96246478 Z" id="Shape" fill="#FFF9C5"></path>
                        <path d="M19.0932506,7.92394919 C18.6096824,7.73121824 18.0614203,7.9669746 17.8686894,8.45059469 L16.6625751,11.4767667 C16.9698845,11.5258718 17.2755312,11.6097402 17.5764492,11.7297229 C17.8773672,11.8496536 18.1580716,11.9989434 18.4141455,12.1737471 L19.6198961,9.14856236 C19.8125751,8.6648903 19.5768187,8.11668014 19.0932506,7.92394919 Z" id="Shape" fill="#000000" opacity="0.1"></path>
                        <path d="M20.7611085,3.73931293 L17.285612,4.11287529 L15.0781697,6.68374711 L15.0785335,9.94614319 L15.0800924,9.94551963 C15.0799365,9.94588337 15.0797806,9.94629908 15.0795727,9.94666282 C16.0435912,9.76765012 17.11694,9.86154734 18.1558891,10.2756409 C19.188239,10.6870843 20.0274942,11.3514838 20.6038164,12.1378406 L20.6138972,12.1562356 L22.4295901,10.3585219 L22.632142,5.87265589 L20.7611085,3.73931293 Z" id="Shape" fill="#FFF9C5"></path>
                        <path d="M23.9867667,22.0395554 C22.7219861,20.0178291 18.4383603,18.5300231 13.3485797,18.5300231 C8.25895497,18.5300231 3.97548499,20.0177252 2.7105485,22.0393476 L3.42114319,22.0395554 L4.96325058,23.0285162 L6.58475751,23.2047748 L7.72752887,22.5445323 L9.54145497,21.8829388 L10.5148788,22.1472748 L12.5857621,23.2047748 L13.9516628,22.9844515 L15.7140935,22.3268591 L16.9918649,21.9270035 L18.6221016,22.3268591 L19.9439376,23.2047748 L22.0588857,22.9404388 L23.9867667,22.0395554 Z" id="Shape" fill="#FFCA28"></path>
                        <path d="M22.2073441,22.8710681 L23.9868187,22.0395554 C22.7220381,20.0178811 18.4384122,18.5300231 13.3486316,18.5300231 C12.1783718,18.5300231 11.0509815,18.608851 9.99290993,18.7545035 C15.2433603,19.3566513 19.6347575,20.8666455 22.2073441,22.8710681 Z" id="Shape" fill="#000000" opacity="0.1"></path>
                        <path d="M26.4333949,22.2566051 C25.1835277,21.4089319 23.5682564,21.4089319 22.3183891,22.2566051 C21.3353522,22.923291 20.0650115,22.923291 19.0818707,22.2566051 C17.8320035,21.4089319 16.2167321,21.4089319 14.9668649,22.2566051 C13.9838279,22.923291 12.7134353,22.923291 11.7303464,22.2566051 C10.4804792,21.4089319 8.86520785,21.4089319 7.61534065,22.2566051 C6.63225173,22.923291 5.36191109,22.923291 4.37882217,22.2566051 C3.12895497,21.4089319 1.5136836,21.4089319 0.263816397,22.2566051 C0.0849595843,22.3778868 0.0382967667,22.6212298 0.159578522,22.8000866 C0.280860277,22.9789434 0.524255196,23.0255543 0.703060046,22.9043245 C1.686097,22.2376386 2.95648961,22.2375866 3.93957852,22.9043245 C5.18949769,23.7519457 6.80476905,23.7519457 8.0545843,22.9043245 C9.03762125,22.2376386 10.3080139,22.2375866 11.2911028,22.9043245 C12.5410219,23.7519457 14.1562933,23.7519457 15.4061085,22.9043245 C16.3891455,22.2376386 17.6595381,22.2375866 18.642627,22.9043245 C19.2675866,23.3281351 19.9838972,23.5400404 20.7001559,23.5400404 C21.4164145,23.5400404 22.1327252,23.3281351 22.7576328,22.9043245 C23.7406697,22.2376386 25.0110624,22.2376386 25.9941513,22.9043245 C26.17306,23.0256582 26.416351,22.9789434 26.5376328,22.8000866 C26.6589145,22.6212818 26.6122517,22.3779388 26.4333949,22.2566051 Z" id="Shape" fill="#1EB8E8"></path>
                        <g id="Group" transform="translate(9.509238, 3.117783)" fill="#EF495B">
                            <path d="M5.56929561,6.82841224 C4.9926097,6.03550808 4.14893764,5.36534065 3.11004042,4.95124711 C2.07062356,4.53694573 0.99665127,4.44315242 0.0323729792,4.62247691 C0.0323729792,4.62247691 4.71143764,-1.9851963 11.2519226,0.621581986 C11.2519226,0.621581986 7.82199769,1.53898961 5.56898383,6.83225751 L5.56929561,6.82841224 Z" id="Shape"></path>
                            <path d="M11.1070497,9.03554273 C12.0710681,8.85663395 13.1444169,8.95053118 14.1833661,9.36462471 C15.2227829,9.7789261 16.0668707,10.4495092 16.6434007,11.242985 C16.6434007,11.242985 17.7923037,3.22830831 11.2518187,0.62147806 C11.2518187,0.62147806 13.1103811,3.64666282 11.1047113,9.03845266 L11.1070497,9.03554273 Z" id="Shape"></path>
                        </g>
                        <circle id="Oval" fill="#FFCA28" cx="4.45297344" cy="4.50441686" r="2.13178406"></circle>
                        <g id="Group" fill="#FF9800">
                            <path d="M4.4530254,1.62088337 C4.23691109,1.62088337 4.06174365,1.44566397 4.06174365,1.22960162 L4.06174365,0.442465358 C4.06174365,0.226351039 4.23696305,0.0511836028 4.4530254,0.0511836028 C4.66908776,0.0511836028 4.84430716,0.226403002 4.84430716,0.442465358 L4.84430716,1.22960162 C4.84430716,1.44571594 4.66908776,1.62088337 4.4530254,1.62088337 Z" id="Shape"></path>
                            <path d="M6.76844688,2.58001732 C6.66831409,2.58001732 6.56818129,2.54182448 6.49179561,2.46538684 C6.33897229,2.31256351 6.33897229,2.0648037 6.49179561,1.91198037 L7.04837182,1.35540416 C7.20119515,1.20258083 7.44895497,1.20258083 7.60172633,1.35540416 C7.75454965,1.50822748 7.75454965,1.7559873 7.60172633,1.90881062 L7.04515012,2.46538684 C6.96871247,2.54182448 6.86857968,2.58001732 6.76844688,2.58001732 Z" id="Shape"></path>
                            <path d="M8.51466513,4.89549076 L7.72758083,4.89549076 C7.51146651,4.89549076 7.33629908,4.72027136 7.33629908,4.50420901 C7.33629908,4.28814665 7.51151848,4.11292725 7.72758083,4.11292725 L8.51466513,4.11292725 C8.73077945,4.11292725 8.90594688,4.28814665 8.90594688,4.50420901 C8.90594688,4.72027136 8.73077945,4.89549076 8.51466513,4.89549076 Z" id="Shape"></path>
                            <path d="M7.32502309,7.76754042 C7.2248903,7.76754042 7.12470554,7.72934758 7.04837182,7.65290993 L6.49179561,7.09633372 C6.33897229,6.94351039 6.33897229,6.69575058 6.49179561,6.54292725 C6.64461894,6.39010393 6.89237875,6.39010393 7.04515012,6.54292725 L7.60172633,7.09950346 C7.75454965,7.25232679 7.75454965,7.50008661 7.60172633,7.65290993 C7.52528868,7.72929561 7.42520785,7.76754042 7.32502309,7.76754042 Z" id="Shape"></path>
                            <path d="M4.4530254,8.95713048 C4.23691109,8.95713048 4.06174365,8.78191109 4.06174365,8.56584873 L4.06174365,7.77871247 C4.06174365,7.56259815 4.23696305,7.38743072 4.4530254,7.38743072 C4.66908776,7.38743072 4.84430716,7.56265012 4.84430716,7.77871247 L4.84430716,8.56584873 C4.84430716,8.78201501 4.66908776,8.95713048 4.4530254,8.95713048 Z" id="Shape"></path>
                            <path d="M1.58092379,7.76754042 C1.48079099,7.76754042 1.3806582,7.72934758 1.30427252,7.65290993 C1.15144919,7.50008661 1.15144919,7.25232679 1.30427252,7.09950346 L1.86079677,6.54292725 C2.01362009,6.39010393 2.26137991,6.39010393 2.41415127,6.54292725 C2.5669746,6.69575058 2.5669746,6.94351039 2.41415127,7.09633372 L1.85762702,7.65290993 C1.78124134,7.72929561 1.68110855,7.76754042 1.58092379,7.76754042 Z" id="Shape"></path>
                            <path d="M1.17841801,4.89549076 L0.391281755,4.89549076 C0.175167436,4.89549076 0,4.72027136 0,4.50420901 C0,4.28814665 0.1752194,4.11292725 0.391281755,4.11292725 L1.17841801,4.11292725 C1.39453233,4.11292725 1.56969977,4.28814665 1.56969977,4.50420901 C1.56969977,4.72027136 1.39453233,4.89549076 1.17841801,4.89549076 Z" id="Shape"></path>
                            <path d="M2.1375,2.58001732 C2.03736721,2.58001732 1.93723441,2.54182448 1.86084873,2.46538684 L1.30427252,1.90886259 C1.15144919,1.75603926 1.15144919,1.50827945 1.30427252,1.35545612 C1.45709584,1.20263279 1.70485566,1.20263279 1.85762702,1.35545612 L2.41415127,1.91203233 C2.5669746,2.06485566 2.5669746,2.31261547 2.41415127,2.4654388 C2.33781755,2.54182448 2.23763279,2.58001732 2.1375,2.58001732 Z" id="Shape"></path>
                        </g>
                    </g>
                </g>
            </g>
            <g id="icon/goals/diamond" transform="translate(0.000000, 140.000000)">
                <g filter="url(#filter-8)" transform="translate(30.000000, 30.000000)">
                    <path d="M20.5,41 C9.17839258,41 0,31.821842 0,20.5 C0,9.17815797 9.17839258,0 20.5,0 C31.821842,0 41,9.17815797 41,20.5 C41,31.821842 31.821842,41 20.5,41 Z" id="Fill-1" fill="#FFFFFF" fill-rule="nonzero"></path>
                    <g id="diamond" transform="translate(6.432398, 13.073980)" fill-rule="nonzero">
                        <polygon id="Shape" fill="#39C4AD" points="17.8504273 5.61265944 13.3867092 19.000676 8.92429847 5.61265944"></polygon>
                        <g id="Group" transform="translate(0.000000, 5.595663)" fill="#4BD6C0">
                            <polygon id="Shape" points="8.92429847 0.0169961735 13.3867092 13.4050128 0 0.0169961735"></polygon>
                            <polygon id="Shape" points="17.8504273 0.0169961735 13.3867092 13.4050128 26.7755102 0.0169961735"></polygon>
                        </g>
                        <polygon id="Shape" fill="#39C4AD" points="0 5.61265944 5.57746429 0.0350382653 8.92429847 5.61265944"></polygon>
                        <polygon id="Shape" fill="#4BD6C0" points="8.92429847 5.61265944 13.3867092 0.0350382653 17.8504273 5.61265944"></polygon>
                        <g id="Group" transform="translate(5.543367, 0.000000)" fill="#2FB49E">
                            <polygon id="Shape" points="0.0340969388 0.0350382653 3.38093112 5.61265944 7.84334184 0.0350382653"></polygon>
                            <polygon id="Shape" points="15.6544171 0.0350382653 12.3070599 5.61265944 7.84334184 0.0350382653"></polygon>
                        </g>
                        <polygon id="Shape" fill="#39C4AD" points="26.7755102 5.61265944 21.1977844 0.0350382653 17.8504273 5.61265944"></polygon>
                    </g>
                </g>
            </g>
            <g id="icon/goals/rainyday" transform="translate(215.000000, 92.000000)">
                <g filter="url(#filter-9)" transform="translate(37.200000, 38.400000)">
                    <path d="M39,78 C17.4613322,78 0,60.5391141 0,39 C0,17.4608859 17.4613322,0 39,0 C60.539114,0 78,17.4608859 78,39 C78,60.5391141 60.539114,78 39,78 Z" id="Fill-1-Copy-3" fill="#FFFFFF" fill-rule="nonzero"></path>
                    <g id="protection" transform="translate(15.600000, 10.400000)" fill-rule="nonzero">
                        <g id="Group" transform="translate(14.357702, 8.248042)" fill="#415A6B">
                            <path d="M6.78447258,19.7705561 L6.78447258,39.072705 C6.78447258,40.1143003 5.93614621,40.9604883 4.8966893,40.9604883 C3.85509399,40.9604883 3.00676762,40.1144021 3.00676762,39.072705 L3.00676762,37.9040287 C3.00676762,37.1003029 2.35720888,36.4486057 1.55348303,36.4486057 C0.74975718,36.4486057 0.0980600522,37.1003029 0.0980600522,37.9040287 L0.0980600522,39.072705 C0.0980600522,41.7185953 2.24866057,43.8713342 4.8966893,43.8713342 C7.54257963,43.8713342 9.69318016,41.7185953 9.69318016,39.072705 L9.69318016,19.7705561 L6.78447258,19.7705561 Z" id="Shape"></path>
                            <path d="M9.69318016,4.41117493 L9.69318016,1.55348303 C9.69318016,0.74975718 9.04362141,0.099078329 8.23989556,0.099078329 C7.43616971,0.099078329 6.78447258,0.749655352 6.78447258,1.55348303 L6.78447258,4.41117493 L9.69318016,4.41117493 Z" id="Shape"></path>
                        </g>
                        <path d="M8.10385379,30.5732507 C11.0690757,30.5732507 12.4702245,31.1337102 14.2819426,32.5989086 C16.2359138,31.1325901 19.2392193,30.1952663 22.5975979,30.1952663 C25.9538381,30.1952663 28.959282,31.1325901 30.9111149,32.5989086 C32.7228329,31.1325901 34.1228616,30.5732507 37.0892037,30.5732507 C40.5811802,30.5732507 43.6083133,31.7354099 45.1246292,33.4353211 C44.1937206,20.3741906 34.4758982,10.0936684 22.5975979,10.0936684 C10.7192977,10.0936684 0.999234987,20.3741906 0.0705665796,33.4353211 C1.58474413,31.73653 4.61187728,30.5732507 8.10385379,30.5732507" id="Shape" fill="#F3705A"></path>
                        <path d="M22.5975979,10.0947885 C18.8514595,10.0947885 15.3724151,19.1859634 14.3156475,32.576201 C16.2674804,31.1250548 19.2587702,30.1963864 22.5975979,30.1963864 C25.9364256,30.1963864 28.925577,31.1250548 30.8774099,32.576201 C29.8205405,19.1859634 26.3437363,10.0947885 22.5975979,10.0947885" id="Shape" fill="#F05540"></path>
                        <path d="M8.16790339,13.7985666 C8.16790339,15.2865744 6.96338381,16.4933342 5.47425587,16.4933342 C3.98726632,16.4933342 2.78060836,15.2865744 2.78060836,13.7985666 C2.78060836,12.311577 5.47425587,8.82499739 5.47425587,8.82499739 C5.47425587,8.82499739 8.16790339,12.3116789 8.16790339,13.7985666" id="Shape" fill="#8AD7F8"></path>
                        <path d="M5.47313577,15.6342141 C4.46086684,15.6342141 3.63860836,14.8109373 3.63860836,13.7996867 C3.63860836,13.641141 3.76782768,13.5118198 3.92535509,13.5118198 C4.08288251,13.5118198 4.21210183,13.6410392 4.21210183,13.7996867 C4.21210183,14.4958825 4.77795822,15.0607206 5.47425587,15.0607206 C5.63178329,15.0607206 5.76100261,15.1899399 5.76100261,15.3485875 C5.76100261,15.507235 5.63066319,15.6342141 5.47313577,15.6342141" id="Shape" fill="#FFFFFF"></path>
                        <path d="M25.2912454,4.97458747 C25.2912454,6.4625953 24.0844856,7.66935509 22.5975979,7.66935509 C21.10847,7.66935509 19.9017102,6.4625953 19.9017102,4.97458747 C19.9017102,3.48657963 22.5975979,0 22.5975979,0 C22.5975979,0 25.2912454,3.48657963 25.2912454,4.97458747" id="Shape" fill="#8AD7F8"></path>
                        <path d="M22.5975979,6.81023499 C21.585329,6.81023499 20.7609321,5.98695822 20.7609321,4.97458747 C20.7609321,4.81706005 20.8901514,4.68784073 21.0476789,4.68784073 C21.2062245,4.68784073 21.336564,4.81706005 21.336564,4.97458747 C21.336564,5.67190339 21.9014021,6.23674151 22.598718,6.23674151 C22.7562454,6.23674151 22.8854648,6.36596084 22.8854648,6.52348825 C22.8843446,6.68203394 22.7551253,6.81023499 22.5975979,6.81023499" id="Shape" fill="#FFFFFF"></path>
                        <path d="M41.0688329,9.4865718 C41.0688329,10.9745796 39.8620731,12.1813394 38.3729452,12.1813394 C36.8859556,12.1813394 35.6792977,10.9745796 35.6792977,9.4865718 C35.6792977,7.99856397 38.3729452,4.51198433 38.3729452,4.51198433 C38.3729452,4.51198433 41.0688329,7.99846214 41.0688329,9.4865718" id="Shape" fill="#8AD7F8"></path>
                        <path d="M38.3719269,11.3232376 C37.359658,11.3232376 36.5373995,10.4999608 36.5373995,9.48759008 C36.5373995,9.33006266 36.6666188,9.20084334 36.8241462,9.20084334 C36.9816736,9.20084334 37.110893,9.33006266 37.110893,9.48759008 C37.110893,10.184906 37.6767493,10.7497441 38.373047,10.7497441 C38.5305744,10.7497441 38.6597937,10.8789634 38.6597937,11.0364909 C38.6586736,11.1940183 38.5294543,11.3232376 38.3719269,11.3232376" id="Shape" fill="#FFFFFF"></path>
                        <path d="M14.4557624,24.1768433 C14.4557624,25.6648512 13.2490026,26.871611 11.7621149,26.871611 C10.2729869,26.871611 9.06846736,25.6648512 9.06846736,24.1768433 C9.06846736,22.6888355 11.7621149,19.2022559 11.7621149,19.2022559 C11.7621149,19.2022559 14.4557624,22.6877154 14.4557624,24.1768433" id="Shape" fill="#8AD7F8"></path>
                        <path d="M11.7609948,26.0124909 C10.7487258,26.0124909 9.92432898,25.1892141 9.92432898,24.1768433 C9.92432898,24.0193159 10.0535483,23.8900966 10.2132141,23.8900966 C10.3707415,23.8900966 10.4999608,24.0193159 10.4999608,24.1768433 C10.4999608,24.8741593 11.064799,25.4389974 11.7621149,25.4389974 C11.9196423,25.4389974 12.0488616,25.5682167 12.0488616,25.7268642 C12.0487598,25.8854099 11.9184204,26.0124909 11.7609948,26.0124909" id="Shape" fill="#FFFFFF"></path>
                        <path d="M34.6170313,20.658799 C34.6170313,22.1468068 33.4102715,23.3535666 31.9233838,23.3535666 C30.4342559,23.3535666 29.2274961,22.1468068 29.2274961,20.658799 C29.2274961,19.1707911 31.9233838,15.6842115 31.9233838,15.6842115 C31.9233838,15.6842115 34.6170313,19.1707911 34.6170313,20.658799" id="Shape" fill="#8AD7F8"></path>
                        <path d="M31.9233838,22.4954648 C30.9111149,22.4954648 30.086718,21.672188 30.086718,20.6598172 C30.086718,20.5022898 30.2159373,20.3730705 30.3734648,20.3730705 C30.5320104,20.3730705 30.6623499,20.5022898 30.6623499,20.6598172 C30.6623499,21.3571332 31.227188,21.9219713 31.9245039,21.9219713 C32.0820313,21.9219713 32.2112507,22.0511906 32.2112507,22.2098381 C32.2112507,22.3684856 32.0797911,22.4954648 31.9233838,22.4954648" id="Shape" fill="#FFFFFF"></path>
                    </g>
                </g>
            </g>
            <g id="icon/goals/car" transform="translate(277.000000, 1.000000)">
                <g filter="url(#filter-10)" transform="translate(38.848677, 40.143633)">
                    <g id="Fill-1" fill-rule="nonzero">
                        <use fill="url(#linearGradient-11)" xlink:href="#path-12"></use>
                        <use fill="#FFFFFF" xlink:href="#path-12"></use>
                    </g>
                    <g id="car" transform="translate(6.948137, 13.329079)" fill-rule="nonzero">
                        <path d="M31.8733019,8.86312854 C31.3876414,7.72377588 30.3198971,6.87085663 29.001169,6.719841 L23.9999284,6.14839218 L21.3319856,1.81218755 C20.6499338,0.703321615 19.4410998,0.027650749 18.1393876,0.027650749 L9.52511583,0.027650749 C7.28044221,0.027650749 5.31156708,1.52717214 4.71601249,3.69172949 L4.6486581,3.93633227 C4.46006581,4.62334703 4.0977701,5.23520847 3.61210951,5.72370504 C3.12644892,6.2129106 2.51600546,6.57804228 1.83111768,6.77159753 C1.0909284,6.98004163 0.579035043,7.6557125 0.579035043,8.42426152 L0.579035043,13.2371225 L3.30227932,12.6002336 C3.3597078,12.4669428 3.42493521,12.337197 3.49725255,12.2109961 C4.17717738,11.0333578 5.44273089,10.3016765 6.80116256,10.3016765 C8.15959423,10.3016765 9.42443874,11.0333578 10.1036546,12.2109961 C10.1759719,12.337197 10.2419083,12.4669428 10.2986278,12.6002336 L21.8608948,12.6002336 C21.9169053,12.4683608 21.9814237,12.340033 22.0530321,12.2152501 C22.7322479,11.0347758 23.9992194,10.3016765 25.3597781,10.3016765 C26.7182097,10.3016765 27.9830543,11.0333578 28.6622701,12.2109961 C28.7345874,12.337197 28.8005238,12.4669428 28.8572433,12.6002336 L31.8931538,12.6002336 L31.9122966,12.6023606 L32.1335026,10.6597182 C32.1427195,10.580311 32.1491004,10.5016127 32.1526454,10.4229144 C32.1788782,9.87273537 32.0774921,9.34240819 31.8733019,8.86312854 Z" id="Shape" fill="#008DB3"></path>
                        <path d="M32.7696825,13.4561306 C32.7696825,13.927895 32.3872514,14.3103261 31.9154871,14.3103261 L29.1649465,14.3103261 C29.1684915,14.2450987 29.1706185,14.1791623 29.1706185,14.1132259 C29.1706185,13.5906976 29.0635605,13.0745503 28.8572433,12.6002336 L31.9159834,12.6019352 C32.387535,12.6021479 32.7696825,12.9845081 32.7696825,13.4561306 Z" id="Shape" fill="#CCCCCC"></path>
                        <path d="M28.3907256,14.1132259 C28.3907256,14.1791623 28.3885986,14.2450987 28.3843446,14.3103261 C28.2829585,15.8920907 26.9677755,17.1441734 25.3597781,17.1441734 C23.7510717,17.1441734 22.4358886,15.8920907 22.3345025,14.3103261 C22.3302486,14.2450987 22.3281216,14.1791623 22.3281216,14.1132259 C22.3281216,13.5637559 22.4741743,13.0483175 22.729412,12.6037786 C23.2526492,11.6941398 24.2346053,11.0815694 25.3597781,11.0815694 C26.4828239,11.0815694 27.463362,11.6927219 27.9865992,12.6002336 C28.2439639,13.0454816 28.3907256,13.5623379 28.3907256,14.1132259 Z M26.6026438,14.1132259 C26.6026438,13.4276291 26.0453749,12.8696512 25.3597781,12.8696512 C24.6734723,12.8696512 24.1162034,13.4276291 24.1162034,14.1132259 C24.1162034,14.7988227 24.6734723,15.3568006 25.3597781,15.3568006 C26.0453749,15.3568006 26.6026438,14.7988227 26.6026438,14.1132259 Z" id="Shape" fill="#666666"></path>
                        <path d="M25.3597781,12.8696512 C26.0453749,12.8696512 26.6026438,13.4276291 26.6026438,14.1132259 C26.6026438,14.7988227 26.0453749,15.3568006 25.3597781,15.3568006 C24.6734723,15.3568006 24.1162034,14.7988227 24.1162034,14.1132259 C24.1162034,13.4276291 24.6734723,12.8696512 25.3597781,12.8696512 Z" id="Shape" fill="#E6E6E6"></path>
                        <path d="M21.5482287,14.1132259 C21.5482287,14.1791623 21.5503557,14.2458077 21.5539006,14.3103261 L10.606331,14.3103261 C10.609876,14.2443897 10.612003,14.1784533 10.612003,14.1132259 C10.612003,13.5906976 10.5049449,13.0745503 10.2986278,12.6002336 L21.8608948,12.6002336 C21.6552867,13.0759683 21.5482287,13.5914066 21.5482287,14.1132259 Z" id="Shape" fill="#CCCCCC"></path>
                        <path d="M8.22198566,2.01283273 L8.22198566,6.14839218 L5.8489842,6.14839218 C5.8489842,6.14839218 6.12549169,5.02605537 6.3006131,4.39079714 L6.36796749,4.14619436 C6.40341717,4.01644854 6.44666578,3.89095668 6.49700432,3.76900978 C6.82455935,2.97351901 7.45130966,2.34818668 8.22198566,2.01283273 Z" id="Shape" fill="#76CDCE"></path>
                        <path d="M14.1817856,1.7405792 L14.1817856,6.14839218 L9.285476,6.14839218 L9.285476,1.74979612 C9.36488328,1.74341517 9.44499956,1.7405792 9.52511583,1.7405792 L14.1817856,1.7405792 Z" id="Shape" fill="#76CDCE"></path>
                        <path d="M21.9885137,6.14839218 L15.2452759,6.14839218 L15.2452759,1.7405792 L18.1393876,1.7405792 C18.8405823,1.7405792 19.5056182,2.11209183 19.8728769,2.7097734 L21.9885137,6.14839218 Z" id="Shape" fill="#76CDCE"></path>
                        <path d="M9.8257291,14.3103261 C9.72434302,15.8920907 8.40915996,17.1441734 6.80116256,17.1441734 C5.19245616,17.1441734 3.8772731,15.8920907 3.77588702,14.3103261 C3.77163306,14.2450987 3.76950608,14.1791623 3.76950608,14.1132259 C3.76950608,13.5623379 3.91626775,13.0454816 4.17292342,12.6002336 C4.69686966,11.6927219 5.67740776,11.0815694 6.80116256,11.0815694 C7.92420836,11.0815694 8.90474646,11.6927219 9.42798371,12.6002336 C9.68534837,13.0454816 9.83211004,13.5623379 9.83211004,14.1132259 C9.83211004,14.1791623 9.82998306,14.2450987 9.8257291,14.3103261 Z M8.04473727,14.1132259 C8.04473727,13.4276291 7.48675933,12.8696512 6.80116256,12.8696512 C6.11485679,12.8696512 5.55758785,13.4276291 5.55758785,14.1132259 C5.55758785,14.7988227 6.11485679,15.3568006 6.80116256,15.3568006 C7.48675933,15.3568006 8.04473727,14.7988227 8.04473727,14.1132259 Z" id="Shape" fill="#666666"></path>
                        <path d="M6.80116256,12.8696512 C7.48675933,12.8696512 8.04473727,13.4276291 8.04473727,14.1132259 C8.04473727,14.7988227 7.48675933,15.3568006 6.80116256,15.3568006 C6.11485679,15.3568006 5.55758785,14.7988227 5.55758785,14.1132259 C5.55758785,13.4276291 6.11485679,12.8696512 6.80116256,12.8696512 Z" id="Shape" fill="#E6E6E6"></path>
                        <path d="M2.98961316,14.1132259 C2.98961316,14.1791623 2.99174014,14.2450987 2.99528511,14.3103261 L0.855046238,14.3103261 C0.382785625,14.3103261 0,13.9275405 0,13.4552799 C0,12.9830192 0.382785625,12.6002336 0.855046238,12.6002336 L3.30227932,12.6002336 C3.09667119,13.0752593 2.98961316,13.5906976 2.98961316,14.1132259 Z" id="Shape" fill="#CCCCCC"></path>
                        <path d="M18.1669675,8.4817609 L17.0495936,8.4817609 C16.8147041,8.4817609 16.6241975,8.29132523 16.6241975,8.05636476 C16.6241975,7.8214043 16.8147041,7.63096862 17.0495936,7.63096862 L18.1669675,7.63096862 C18.401857,7.63096862 18.5923636,7.8214043 18.5923636,8.05636476 C18.5923636,8.29132523 18.4019279,8.4817609 18.1669675,8.4817609 Z" id="Shape" fill="#CCCCCC"></path>
                        <path d="M10.49431,8.4817609 L9.37693617,8.4817609 C9.14204661,8.4817609 8.95154004,8.29132523 8.95154004,8.05636476 C8.95154004,7.8214043 9.14204661,7.63096862 9.37693617,7.63096862 L10.49431,7.63096862 C10.7291996,7.63096862 10.9197062,7.8214043 10.9197062,8.05636476 C10.9197062,8.29132523 10.7291996,8.4817609 10.49431,8.4817609 Z" id="Shape" fill="#CCCCCC"></path>
                        <path d="M32.1526454,10.4229144 L31.2983082,10.4229144 C30.436881,10.4229144 29.7385223,9.72455572 29.7385223,8.86312854 L31.8733019,8.86312854 C32.1079788,9.37608538 32.2143279,9.8812433 32.1526454,10.4229144 Z" id="Shape" fill="#FFFFFF"></path>
                        <polygon id="Shape" fill="#96E0DE" points="14.1817856 1.74979612 14.1817856 6.14839218 13.6833631 6.14839218 9.285476 1.74979612"></polygon>
                        <path d="M21.9885137,6.14839218 L19.6530889,6.14839218 L15.2452759,1.7405792 L18.1393876,1.7405792 C18.8405823,1.7405792 19.5056182,2.11209183 19.8728769,2.7097734 L21.9885137,6.14839218 Z" id="Shape" fill="#96E0DE"></path>
                        <path d="M8.22198566,2.01283273 L8.22198566,5.49399112 L6.49700432,3.76900978 C6.82455935,2.97351901 7.45130966,2.34818668 8.22198566,2.01283273 Z" id="Shape" fill="#96E0DE"></path>
                    </g>
                </g>
            </g>
            <g id="icon/goals/home" transform="translate(38.000000, 9.000000)">
                <g filter="url(#filter-13)" transform="translate(34.350564, 33.108365)">
                    <path d="M31.5803571,62.9058935 C14.1393617,62.9058935 0,48.8239368 0,31.4529467 C0,14.0819568 14.1393617,0 31.5803571,0 C49.0217139,0 63.1607143,14.0819568 63.1607143,31.4529467 C63.1607143,48.8239368 49.0217139,62.9058935 31.5803571,62.9058935 Z" id="Fill-1" fill="#FFFFFF" fill-rule="nonzero"></path>
                    <g id="001-house" transform="translate(15.455995, 13.063790)" fill-rule="nonzero">
                        <polygon id="Rectangle-path" fill="#F05540" points="24.1193375 4.61705128 27.8145249 4.61705128 27.8145249 11.0407748 24.1193375 11.0407748"></polygon>
                        <polygon id="Rectangle-path" fill="#F3705A" points="22.7084558 1.33825482 29.2254066 1.33825482 29.2254066 4.81779264 22.7084558 4.81779264"></polygon>
                        <path d="M2.82176339,17.3306917 L2.82176339,32.1186176 L29.1582007,32.1186176 L29.1582007,17.3306917 C23.9849888,12.178351 21.0960196,9.30103726 15.9899506,4.21556856 C10.8839445,9.36790922 7.99497528,12.245223 2.82176339,17.3306917 Z" id="Shape" fill="#FFD15C"></path>
                        <path d="M29.2254066,17.3306917 C24.0521947,12.178351 21.1632254,9.30103726 16.0571564,4.21556856 C13.4369475,6.75827154 11.4214023,8.76568514 9.40585698,10.7730987 C7.3903117,12.7805123 5.37476642,14.7879259 2.82176339,17.3306289 L2.82176339,20.3417493 C7.99497528,15.1894087 10.8839445,12.3120949 15.9900136,7.22662623 C21.1632254,12.3789669 24.0521947,15.2562806 29.1582637,20.3417493 L29.1582637,20.743232 L29.1582637,17.3306289 L29.2254066,17.3306289 L29.2254066,17.3306917 Z" id="Shape" fill="#F7B64C"></path>
                        <path d="M13.6385021,32.1186176 L5.71073262,32.1186176 L5.71073262,24.3566393 C5.71073262,22.1484843 7.52472338,20.4087468 9.67461735,20.4087468 C11.8917172,20.4087468 13.6385021,22.215419 13.6385021,24.3566393 L13.6385021,32.1186176 Z" id="Shape" fill="#415A6B"></path>
                        <rect id="Rectangle-path" fill="#344A5E" x="15.9900136" y="20.408684" width="10.3464868" height="9.0333612"></rect>
                        <g id="Group" transform="translate(17.006163, 21.454233)" fill="#8AD7F8">
                            <polygon id="Rectangle-path" points="0.0587657421 0.02509267 3.61954141 0.02509267 3.61954141 6.91723361 0.0587657421 6.91723361"></polygon>
                            <polygon id="Rectangle-path" points="4.69451989 0.02509267 8.25529555 0.02509267 8.25529555 6.91723361 4.69451989 6.91723361"></polygon>
                        </g>
                        <path d="M31.6440609,14.5871846 L17.6024498,0.60222408 C16.7962317,-0.20074136 15.38535,-0.20074136 14.5791319,0.60222408 L0.604663584,14.5871846 C-0.201554528,15.39015 -0.201554528,16.7953395 0.604663584,17.598305 C1.4108817,18.4012704 2.82176339,18.4012704 3.62798151,17.598305 L16.1243622,5.15234066 L28.620743,17.598305 C29.4269611,18.4012704 30.8378428,18.4012704 31.6440609,17.598305 C32.450279,16.7284676 32.450279,15.39015 31.6440609,14.5871846 Z" id="Shape" fill="#F3705A"></path>
                    </g>
                </g>
            </g>
        </g>
    </g>
</svg>