<?xml version="1.0" encoding="UTF-8"?>
<svg width="56.7px" height="65.7px" viewBox="0 0 56.7 65.7" version="1.1" xmlns="http://www.w3.org/2000/svg" xmlns:xlink="http://www.w3.org/1999/xlink">
    <!-- Generator: Sketch 52.6 (67491) - http://www.bohemiancoding.com/sketch -->
    <desc>Created with Sketch.</desc>
    <defs>
        <linearGradient x1="10.9906944%" y1="17.7734393%" x2="82.0081345%" y2="90.9801566%" id="linearGradient-1">
            <stop stop-color="#13C6B9" offset="0%"></stop>
            <stop stop-color="#26B1C9" offset="100%"></stop>
        </linearGradient>
        <linearGradient x1="-6.94175595%" y1="-11.2058725%" x2="151.750106%" y2="153.426944%" id="linearGradient-2">
            <stop stop-color="#2FCCAE" offset="0%"></stop>
            <stop stop-color="#00C0E8" offset="100%"></stop>
        </linearGradient>
    </defs>
    <g id="Page-1" stroke="none" stroke-width="1" fill="none" fill-rule="evenodd">
        <g id="icon---security" fill-rule="nonzero">
            <path d="M53.6478743,43.8740181 C51.862315,48.6599647 49.1619288,52.8213524 45.620713,56.2413894 C41.5899001,60.1341064 36.3117804,63.2273278 29.9328277,65.4338356 C29.7235073,65.5060157 29.5050639,65.5651635 29.2856068,65.6087722 C28.9957004,65.6654137 28.7007258,65.69599 28.4082854,65.7 L28.3510136,65.7 C28.0393137,65.7 27.7260932,65.6689224 27.4154069,65.6087722 C27.1959499,65.5651635 26.9805473,65.5060157 26.7722406,65.4353394 C20.3856855,63.2323402 15.100977,60.1406227 11.0661094,56.2479058 C7.52337314,52.8278687 4.82349378,48.6689873 3.0404686,43.8830407 C-0.2017181,35.1813195 -0.0172321291,25.5953911 0.131268804,17.8921624 L0.133802918,17.7738671 C0.163705875,17.1377793 0.182965321,16.4696113 0.193608832,15.7317695 C0.247839463,12.1092271 3.1600803,9.11224597 6.823442,8.9102417 C14.4613585,8.48868945 20.3699738,6.02503967 25.4184997,1.1583916 L25.4625939,1.11829151 C26.3008894,0.357893307 27.3571215,-0.0150376008 28.4082854,0.000501251221 C29.4219439,0.013533815 30.4315477,0.385963376 31.2399404,1.11829151 L31.2830208,1.1583916 C36.3325605,6.02503967 42.2411756,8.48868945 49.8790922,8.9102417 C53.5424538,9.11224597 56.4546947,12.1092271 56.5089254,15.7317695 C56.5195688,16.4746239 56.5388282,17.1417893 56.5687312,17.7738671 L56.5702517,17.8239922 C56.7182459,25.5417572 56.9017181,35.1467332 53.6478743,43.8740181 Z" id="Shape" fill="url(#linearGradient-1)"></path>
            <path d="M44.9060837,32.85 C44.9060837,41.8589882 37.5099247,49.1922936 28.4082854,49.2243737 L28.35,49.2243737 C19.2214986,49.2243737 11.7934094,41.878537 11.7934094,32.85 C11.7934094,23.8219642 19.2214986,16.4761277 28.35,16.4761277 L28.4082854,16.4761277 C37.5099247,16.5082078 44.9060837,23.8415131 44.9060837,32.85 Z" id="Shape" fill="#FFFFFF"></path>
            <path d="M35.8647571,30.4921143 L28.4082854,37.8675247 L26.7970752,39.4610023 C26.4164464,39.837442 25.9172197,40.0254113 25.4184997,40.0254113 C24.919273,40.0254113 24.420553,39.837442 24.0394174,39.4610023 L20.5752396,36.0334465 C19.8139821,35.2805671 19.8139821,34.0610229 20.5752396,33.3076423 C21.3354834,32.5547631 22.5701194,32.5547631 23.3313769,33.3076423 L25.4184997,35.3717949 L33.1086196,27.7663101 C33.8698772,27.0129296 35.1045132,27.0129296 35.8647571,27.7663101 C36.6260145,28.5191895 36.6260145,29.7402374 35.8647571,30.4921143 Z" id="Shape" fill="url(#linearGradient-2)"></path>
        </g>
    </g>
</svg>