<?xml version="1.0" encoding="UTF-8"?>
<svg width="47px" height="19px" viewBox="0 0 47 19" version="1.1" xmlns="http://www.w3.org/2000/svg" xmlns:xlink="http://www.w3.org/1999/xlink">
    <!-- Generator: Sketch 52.6 (67491) - http://www.bohemiancoding.com/sketch -->
    <desc>Created with Sketch.</desc>
    <g id="Page-1" stroke="none" stroke-width="1" fill="none" fill-rule="evenodd">
        <g id="Goggles">
            <path d="M34.5663152,0.194809375 C39.6032476,0.194809375 43.6992363,4.37597708 43.6992363,9.51874271 C43.6992363,14.660499 39.602918,18.8416667 34.5663152,18.8416667 C29.5287237,18.8416667 25.4333941,14.660499 25.4333941,9.51874271 C25.4333941,4.37631354 29.5287237,0.194809375 34.5663152,0.194809375 M34.5663152,3.08767812 C31.093887,3.08767812 28.2671011,5.97381771 28.2671011,9.51874271 C28.2671011,13.0629948 31.093887,15.9487979 34.5663152,15.9487979 C38.0380842,15.9487979 40.8655293,13.0626583 40.8655293,9.51874271 C40.8655293,5.97381771 38.0380842,3.08767812 34.5663152,3.08767812" id="Right-Lens" fill="#FDC448"></path>
            <path d="M12.1454899,3.08764448 C8.67372085,3.08764448 5.84627577,5.97378406 5.84627577,9.51870906 C5.84627577,13.0626247 8.67339127,15.9487643 12.1454899,15.9487643 C15.617918,15.9487643 18.4447039,13.0629611 18.4447039,9.51870906 C18.4447039,5.9734476 15.617918,3.08764448 12.1454899,3.08764448 M12.1454899,0.194775729 C17.1830814,0.194775729 21.2780814,4.3762799 21.2780814,9.51870906 C21.2780814,14.6604653 17.1827518,18.841633 12.1454899,18.841633 C7.10888704,18.841633 3.01256873,14.6608018 3.01256873,9.51870906 C3.01256873,4.3762799 7.10855746,0.194775729 12.1454899,0.194775729" id="Left-Lens" fill="#FDC448"></path>
            <path d="M45.2949515,10.9067679 L43.7558248,10.9067679 C41.8666868,10.9067679 41.8666868,8.01389917 43.7558248,8.01389917 L45.2949515,8.01389917 C47.1840896,8.01389917 47.1840896,10.9067679 45.2949515,10.9067679" id="Right-Arm" fill="#FEC548"></path>
            <path d="M25.2866332,8.40469552 C25.2866332,8.40469552 25.1066839,8.27616844 24.8031431,8.14057573 C24.4448924,7.98075802 23.9518445,7.8283424 23.383653,7.8283424 C22.7719572,7.8283424 21.9931656,8.03896531 21.4810023,8.40469552 C19.9715375,9.56413094 18.267622,7.25266219 19.7770868,6.09322677 C19.7770868,6.09322677 20.1613741,5.78839552 20.8287685,5.49029344 C21.441453,5.21675281 22.3257093,4.93547365 23.383653,4.93547365 C24.5365149,4.93547365 26.0568558,5.35234552 26.9905487,6.09322677 C28.4996839,7.25266219 26.796098,9.56413094 25.2866332,8.40469552" id="Bridge" fill="#FDC448"></path>
            <path d="M2.95598028,10.9067679 L1.41685352,10.9067679 C-0.472284507,10.9067679 -0.472284507,8.01389917 1.41685352,8.01389917 L2.95598028,8.01389917 C4.84511831,8.01389917 4.84511831,10.9067679 2.95598028,10.9067679" id="Left-Arm" fill="#FDC448"></path>
        </g>
    </g>
</svg>