<?xml version="1.0" encoding="UTF-8"?>
<svg width="27px" height="20px" viewBox="0 0 27 20" version="1.1" xmlns="http://www.w3.org/2000/svg" xmlns:xlink="http://www.w3.org/1999/xlink">
    <!-- Generator: Sketch 52.6 (67491) - http://www.bohemiancoding.com/sketch -->
    <desc>Created with Sketch.</desc>
    <g id="Page-1" stroke="none" stroke-width="1" fill="none" fill-rule="evenodd">
        <g id="Email" transform="translate(0.000000, 1.000000)" fill="#93B83F" stroke="#93B83F" stroke-width="1.47857143">
            <g id="icon---email" transform="translate(1.218750, 0.000000)">
                <path d="M23.15625,0.0334873096 L1.21875,0.0334873096 C0.54567627,0.0334873096 0,0.557086294 0,1.20303046 L0,16.7969239 C0,17.4428223 0.545628662,17.966467 1.21875,17.966467 L23.15625,17.966467 C23.8293237,17.966467 24.375,17.442868 24.375,16.7969239 L24.375,1.20303046 C24.375,0.55713198 23.8293713,0.0334873096 23.15625,0.0334873096 Z M23.5624841,16.7969695 C23.5624841,17.0122843 23.3806238,17.186802 23.15625,17.186802 L1.21875,17.186802 C0.994376221,17.186802 0.812515869,17.0122843 0.812515869,16.7969695 L0.812515869,1.20303046 C0.812515869,0.987715736 0.994376221,0.81319797 1.21875,0.81319797 L23.15625,0.81319797 C23.3806238,0.81319797 23.5624841,0.987715736 23.5624841,1.20303046 L23.5624841,16.7969695 Z" id="Shape" fill-rule="nonzero"></path>
                <path d="M22.3791064,1.59432487 C22.2717517,1.58532487 22.1650635,1.61762437 22.0825598,1.68414213 L12.7103247,9.23934518 C12.4080652,9.48316751 11.9668872,9.48316751 11.6646277,9.23934518 L2.29248779,1.68409645 C2.18132446,1.5945533 2.02879028,1.56869543 1.89239502,1.61629949 C1.75599976,1.66390355 1.65640503,1.77775127 1.6311731,1.91494416 C1.60594116,2.05213706 1.65888062,2.19179695 1.77004395,2.2813401 L11.1422314,9.83617766 C11.7462744,10.3242335 12.6287256,10.3242335 13.2328162,9.83617766 L22.6049561,2.28138579 C22.6875073,2.21491371 22.7391138,2.11970558 22.7484924,2.01668528 C22.7578711,1.91366497 22.7242126,1.81128426 22.6548962,1.73211168 C22.585675,1.65284772 22.4864612,1.60332487 22.3791064,1.59432487 Z" id="Path"></path>
                <path d="M7.81352051,9.78258883 C7.66969849,9.75179695 7.51983032,9.79812183 7.42175903,9.90365482 L1.73424316,15.7513706 C1.63131592,15.8525178 1.59351562,15.9992589 1.63550537,16.1347614 C1.67749512,16.2703096 1.79265747,16.3733756 1.93643188,16.4041675 C2.08025391,16.4349594 2.23012207,16.3886345 2.32819336,16.2831015 L8.01570923,10.4353858 C8.11863647,10.3342386 8.15643677,10.1874975 8.11444702,10.0519949 C8.07245728,9.91649239 7.95734253,9.81338071 7.81352051,9.78258883 Z" id="Path"></path>
                <path d="M16.953241,9.90365482 C16.8552173,9.79812183 16.7053015,9.75179695 16.5614795,9.78258883 C16.4176575,9.81338071 16.3025427,9.91649239 16.260553,10.0519949 C16.2185632,10.1875431 16.2563635,10.3342386 16.3592908,10.4353858 L22.0468066,16.2831015 C22.2010547,16.4346853 22.4531836,16.4403503 22.6146204,16.295802 C22.7760571,16.1512538 22.7876733,15.9094873 22.6407568,15.7513249 L16.953241,9.90365482 Z" id="Path"></path>
            </g>
        </g>
    </g>
</svg>