<?xml version="1.0" encoding="UTF-8"?>
<svg width="144px" height="145px" viewBox="0 0 144 145" version="1.1" xmlns="http://www.w3.org/2000/svg" xmlns:xlink="http://www.w3.org/1999/xlink">
    <!-- Generator: Sketch 52.6 (67491) - http://www.bohemiancoding.com/sketch -->
    <desc>Created with Sketch.</desc>
    <defs>
        <circle id="path-1" cx="41.4" cy="41.4" r="41.4"></circle>
        <filter x="-65.8%" y="-50.1%" width="231.6%" height="231.6%" filterUnits="objectBoundingBox" id="filter-2">
            <feOffset dx="0" dy="13" in="SourceAlpha" result="shadowOffsetOuter1"></feOffset>
            <feGaussianBlur stdDeviation="16" in="shadowOffsetOuter1" result="shadowBlurOuter1"></feGaussianBlur>
            <feColorMatrix values="0 0 0 0 0   0 0 0 0 0   0 0 0 0 0  0 0 0 0.07 0" type="matrix" in="shadowBlurOuter1"></feColorMatrix>
        </filter>
    </defs>
    <g id="Page-1" stroke="none" stroke-width="1" fill="none" fill-rule="evenodd">
        <g id="icon/insured" transform="translate(30.000000, 18.000000)">
            <g id="Oval-Copy-10" fill-rule="nonzero">
                <use fill="black" fill-opacity="1" filter="url(#filter-2)" xlink:href="#path-1"></use>
                <use fill="#FFFFFF" xlink:href="#path-1"></use>
            </g>
            <g id="Email" transform="translate(29.000000, 33.000000)" fill="#93B83F" stroke="#93B83F" stroke-width="1.47857143">
                <g id="icon---email" transform="translate(0.365625, 0.000000)">
                    <path d="M24.046875,0.0334873096 L1.265625,0.0334873096 C0.566663818,0.0334873096 0,0.557086294 0,1.20303046 L0,16.7969239 C0,17.4428223 0.56661438,17.966467 1.265625,17.966467 L24.046875,17.966467 C24.7458362,17.966467 25.3125,17.442868 25.3125,16.7969239 L25.3125,1.20303046 C25.3125,0.55713198 24.7458856,0.0334873096 24.046875,0.0334873096 Z M24.4687335,16.7969695 C24.4687335,17.0122843 24.2798785,17.186802 24.046875,17.186802 L1.265625,17.186802 C1.03262146,17.186802 0.843766479,17.0122843 0.843766479,16.7969695 L0.843766479,1.20303046 C0.843766479,0.987715736 1.03262146,0.81319797 1.265625,0.81319797 L24.046875,0.81319797 C24.2798785,0.81319797 24.4687335,0.987715736 24.4687335,1.20303046 L24.4687335,16.7969695 Z" id="Shape" fill-rule="nonzero"></path>
                    <path d="M23.2398413,1.59432487 C23.1283575,1.58532487 23.0175659,1.61762437 22.931889,1.68414213 L13.1991833,9.23934518 C12.8852985,9.48316751 12.4271521,9.48316751 12.1132672,9.23934518 L2.3806604,1.68409645 C2.26522156,1.5945533 2.10682068,1.56869543 1.96517944,1.61629949 C1.82353821,1.66390355 1.72011292,1.77775127 1.69391052,1.91494416 C1.66770813,2.05213706 1.72268372,2.19179695 1.83812256,2.2813401 L11.5707788,9.83617766 C12.1980542,10.3242335 13.1144458,10.3242335 13.7417706,9.83617766 L23.4743774,2.28138579 C23.5601038,2.21491371 23.6136951,2.11970558 23.6234344,2.01668528 C23.6331738,1.91366497 23.5982208,1.81128426 23.5262384,1.73211168 C23.4543549,1.65284772 23.3513251,1.60332487 23.2398413,1.59432487 Z" id="Path"></path>
                    <path d="M8.11404053,9.78258883 C7.96468689,9.75179695 7.80905457,9.79812183 7.7072113,9.90365482 L1.80094482,15.7513706 C1.69405884,15.8525178 1.65480469,15.9992589 1.69840942,16.1347614 C1.74201416,16.2703096 1.86160583,16.3733756 2.01091003,16.4041675 C2.16026367,16.4349594 2.315896,16.3886345 2.41773926,16.2831015 L8.32400574,10.4353858 C8.43089172,10.3342386 8.47014587,10.1874975 8.42654114,10.0519949 C8.3829364,9.91649239 8.26339417,9.81338071 8.11404053,9.78258883 Z" id="Path"></path>
                    <path d="M17.6052887,9.90365482 C17.5034949,9.79812183 17.3478131,9.75179695 17.1984595,9.78258883 C17.0491058,9.81338071 16.9295636,9.91649239 16.8859589,10.0519949 C16.8423541,10.1875431 16.8816083,10.3342386 16.9884943,10.4353858 L22.8947607,16.2831015 C23.0549414,16.4346853 23.3167676,16.4403503 23.4844135,16.295802 C23.6520593,16.1512538 23.6641223,15.9094873 23.5115552,15.7513249 L17.6052887,9.90365482 Z" id="Path"></path>
                </g>
            </g>
        </g>
    </g>
</svg>