<?xml version="1.0" encoding="UTF-8"?>
<svg width="184px" height="184px" viewBox="0 0 184 184" version="1.1" xmlns="http://www.w3.org/2000/svg" xmlns:xlink="http://www.w3.org/1999/xlink">
    <!-- Generator: Sketch 52.6 (67491) - http://www.bohemiancoding.com/sketch -->
    <desc>Created with Sketch.</desc>
    <defs>
        <circle id="path-1" cx="61" cy="61" r="61"></circle>
        <filter x="-44.7%" y="-34.0%" width="189.3%" height="189.3%" filterUnits="objectBoundingBox" id="filter-2">
            <feOffset dx="0" dy="13" in="SourceAlpha" result="shadowOffsetOuter1"></feOffset>
            <feGaussianBlur stdDeviation="16" in="shadowOffsetOuter1" result="shadowBlurOuter1"></feGaussianBlur>
            <feColorMatrix values="0 0 0 0 0   0 0 0 0 0   0 0 0 0 0  0 0 0 0.07 0" type="matrix" in="shadowBlurOuter1"></feColorMatrix>
        </filter>
        <linearGradient x1="10.9906944%" y1="17.7734393%" x2="82.0081345%" y2="90.9801566%" id="linearGradient-3">
            <stop stop-color="#13C6B9" offset="0%"></stop>
            <stop stop-color="#26B1C9" offset="100%"></stop>
        </linearGradient>
    </defs>
    <g id="Page-1" stroke="none" stroke-width="1" fill="none" fill-rule="evenodd">
        <g id="Terms-contract" transform="translate(31.000000, 18.000000)" fill-rule="nonzero">
            <g id="Oval">
                <use fill="black" fill-opacity="1" filter="url(#filter-2)" xlink:href="#path-1"></use>
                <use fill="#FFFFFF" xlink:href="#path-1"></use>
            </g>
            <g id="deal" transform="translate(29.000000, 34.000000)" fill="url(#linearGradient-3)">
                <path d="M14.4077149,29.9638986 L7.77392575,36.6682197 C6.67480475,37.7791087 6.67480475,39.5804168 7.77392575,40.6913058 C8.87304688,41.8017014 10.6552735,41.8017014 11.7543945,40.6913058 L18.3876953,33.9864913 C19.4868164,32.8756022 19.4868164,31.0742941 18.3876953,29.9638986 C17.2885743,28.8530095 15.506836,28.8530095 14.4077149,29.9638986 Z" id="Path"></path>
                <path d="M21.0415039,36.6682197 L14.4077149,43.3730344 C13.3085938,44.4839233 13.3085938,46.2847381 14.4077149,47.3956271 C15.506836,48.506516 17.2885743,48.506516 18.3876953,47.3956271 L25.0214844,40.6913058 C26.1206055,39.5804168 26.1206055,37.7791087 25.0214844,36.6682197 C23.9223633,35.5573306 22.140625,35.5573306 21.0415039,36.6682197 Z" id="Path"></path>
                <path d="M27.6748047,43.3730344 L21.0415039,50.0778489 C19.9423828,51.188738 19.9423828,52.9895526 21.0415039,54.1004416 C22.140625,55.2113307 23.9223633,55.2113307 25.0214844,54.1004416 L31.6552735,47.3956271 C32.7543945,46.2847381 32.7543945,44.4839233 31.6552735,43.3730344 C30.5561524,42.2621453 28.7739258,42.2621453 27.6748047,43.3730344 Z" id="Path"></path>
                <path d="M30.328125,58.1230344 C31.4272461,59.2339233 33.2094726,59.2339233 34.3085938,58.1230344 L38.2885743,54.1004416 C39.3876953,52.9895526 39.3876953,51.188738 38.2885743,50.0778489 C37.1894531,48.96696 35.4077149,48.96696 34.3085938,50.0778489 L30.328125,54.1004416 C29.2294923,55.2113307 29.2294923,57.0121453 30.328125,58.1230344 Z" id="Path"></path>
                <path d="M50.8925781,17.2249482 L61.1879883,27.6305875 C65.274414,21.0333579 65.0932618,12.0534663 59.415039,6.31444897 L58.0883789,4.97358478 C51.4355469,-1.75047681 40.1855469,-1.45338427 33.6450195,5.15667656 L23.03125,15.8840839 C22.2885743,16.6347113 22.2885743,17.8146915 23.03125,18.5658124 C25.3398438,20.8991234 28.9750976,21.2480344 31.6816406,19.4240247 L42.9321289,11.8609977 C43.6748048,11.1103704 44.8422851,11.1103704 45.5854493,11.8609977 C46.1958008,12.4778841 46.9121094,12.9338865 47.7348633,13.1752124 C49.671875,13.8996838 51.9536133,13.4703309 53.5458985,11.8609977 C54.2885743,11.1103704 55.4560548,11.1103704 56.1992188,11.8609977 C56.9423828,12.6126121 56.9423828,13.7920989 56.1992188,14.5432197 C54.7133789,16.0449679 52.8032226,16.9564792 50.8925781,17.2249482 Z" id="Path"></path>
                <path d="M8.3125,6.37120255 L5.65917975,9.05293094 C-0.935546875,15.7182648 -2.262207,25.1837695 4.33203125,31.8486098 L5.78417975,33.3158124 L11.7543945,27.2816766 C14.3144531,24.6942084 18.480957,24.6942084 21.0415039,27.2816766 C22.3408203,28.5953979 22.9736328,30.3276147 22.9541015,32.0534161 C24.6616211,32.0331822 26.375,32.67277 27.6748048,33.9864913 C27.8911133,34.2051158 41.4736328,47.9330584 40.9418945,47.3956271 C42.0410156,48.506516 43.8232423,48.506516 44.9223633,47.3956271 C46.0214844,46.2847381 46.0214844,44.4834298 44.9223633,43.3730344 L32.3183594,30.6340839 C31.5854492,29.8938203 31.5854492,28.6931126 32.3183594,27.9523555 C33.0512695,27.2115983 34.2392578,27.2115983 34.9716798,27.9523555 L47.5756836,40.6913058 C48.6748047,41.8017014 50.4570313,41.8017014 51.555664,40.6913058 C52.6547851,39.5799233 52.6547851,37.7791087 51.555664,36.6682197 L38.9521485,23.9297627 C38.2192382,23.1890056 38.2192382,21.988298 38.9521485,21.2475409 C39.6850586,20.5067836 40.8730469,20.5072771 41.6054688,21.2475409 L54.2094726,33.9864913 C55.3085937,35.0973803 57.090332,35.0973803 58.1894531,33.9864913 C59.2885742,32.8756022 59.2885742,31.0742941 58.1894531,29.9638986 L44.0449219,15.6679269 L33.7602539,22.5819895 C29.4819336,25.4655631 23.7817382,24.6882862 20.3779297,21.2480344 C18.1757812,19.0218148 18.1757812,15.4280816 20.3779297,13.2023555 L29.53125,3.95103392 C22.9018555,-1.39959181 14.4526367,0.16532558 8.3125,6.37120255 Z" id="Path"></path>
            </g>
        </g>
    </g>
</svg>