<?xml version="1.0" encoding="UTF-8"?>
<svg width="561px" height="230px" viewBox="0 0 561 230" version="1.1" xmlns="http://www.w3.org/2000/svg" xmlns:xlink="http://www.w3.org/1999/xlink">
    <!-- Generator: Sketch 52.6 (67491) - http://www.bohemiancoding.com/sketch -->
    <desc>Created with Sketch.</desc>
    <defs>
        <linearGradient x1="10.9906944%" y1="17.7734393%" x2="82.0081345%" y2="90.9801566%" id="linearGradient-1">
            <stop stop-color="#13C6B9" offset="0%"></stop>
            <stop stop-color="#26B1C9" offset="100%"></stop>
        </linearGradient>
    </defs>
    <g id="Page-1" stroke="none" stroke-width="1" fill="none" fill-rule="evenodd">
        <g id="Goggles" fill="url(#linearGradient-1)" fill-rule="nonzero">
            <path d="M412.589422,2.3370351 C472.711104,2.3370351 521.601523,52.4965086 521.601523,114.191813 C521.601523,175.875009 472.707171,226.034483 412.589422,226.034483 C352.459872,226.034483 303.577321,175.875009 303.577321,114.191813 C303.577321,52.500545 352.459872,2.3370351 412.589422,2.3370351 M412.589422,37.0414009 C371.141928,37.0414009 337.40093,71.66504 337.40093,114.191813 C337.40093,156.710514 371.141928,191.330117 412.589422,191.330117 C454.029048,191.330117 487.777914,156.706478 487.777914,114.191813 C487.777914,71.66504 454.029048,37.0414009 412.589422,37.0414009" id="Right-Lens"></path>
            <path d="M144.970634,37.0409972 C103.531008,37.0409972 69.7821428,71.6646364 69.7821428,114.19141 C69.7821428,156.706074 103.527074,191.329713 144.970634,191.329713 C186.418128,191.329713 220.159126,156.710111 220.159126,114.19141 C220.159126,71.6606001 186.418128,37.0409972 144.970634,37.0409972 M144.970634,2.33663147 C205.100184,2.33663147 253.978801,52.5001413 253.978801,114.19141 C253.978801,175.874606 205.096251,226.034079 144.970634,226.034079 C84.8528858,226.034079 35.9585332,175.878642 35.9585332,114.19141 C35.9585332,52.5001413 84.8489519,2.33663147 144.970634,2.33663147" id="Left-Lens"></path>
            <path d="M540.648251,130.843289 L522.276972,130.843289 C499.727899,130.843289 499.727899,96.1389236 522.276972,96.1389236 L540.648251,96.1389236 C563.197325,96.1389236 563.197325,130.843289 540.648251,130.843289" id="Right-Arm"></path>
            <path d="M301.825558,100.827121 C301.825558,100.827121 299.677653,99.2852429 296.054538,97.6586019 C291.778396,95.7413451 285.893293,93.9128876 279.111262,93.9128876 C271.809957,93.9128876 262.514169,96.4396302 256.400899,100.827121 C238.383671,114.736314 218.045445,87.0067269 236.062674,73.0975336 C236.062674,73.0975336 240.649593,69.4406185 248.615726,65.8644301 C255.928832,62.5828938 266.483466,59.2085219 279.111262,59.2085219 C292.872019,59.2085219 311.019066,64.2095348 322.163784,73.0975336 C340.177079,87.0067269 319.842787,114.736314 301.825558,100.827121" id="Bridge"></path>
            <path d="M35.2830838,130.843289 L16.9118048,130.843289 C-5.63726826,130.843289 -5.63726826,96.1389236 16.9118048,96.1389236 L35.2830838,96.1389236 C57.8321568,96.1389236 57.8321568,130.843289 35.2830838,130.843289" id="Left-Arm"></path>
        </g>
    </g>
</svg>