<?xml version="1.0" encoding="UTF-8"?>
<svg width="40px" height="73px" viewBox="0 0 40 73" version="1.1" xmlns="http://www.w3.org/2000/svg" xmlns:xlink="http://www.w3.org/1999/xlink">
    <!-- Generator: Sketch 52.6 (67491) - http://www.bohemiancoding.com/sketch -->
    <desc>Created with Sketch.</desc>
    <defs>
        <linearGradient x1="50%" y1="0%" x2="50%" y2="100%" id="linearGradient-1">
            <stop stop-color="#20A364" offset="0%"></stop>
            <stop stop-color="#50B848" offset="100%"></stop>
        </linearGradient>
    </defs>
    <g id="Page-1" stroke="none" stroke-width="1" fill="none" fill-rule="evenodd">
        <g id="logo-OM-mark">
            <g>
                <rect id="Rectangle" fill="url(#linearGradient-1)" fill-rule="nonzero" x="-1.13686838e-13" y="0" width="40" height="73"></rect>
                <path d="M12.797326,56.6048071 C12.5454755,56.1677028 12.6944663,55.6290852 13.1395684,55.3800791 C13.584047,55.1376414 14.133879,55.2851343 14.3907166,55.7120873 C14.6444372,56.1348603 14.4904593,56.683032 14.0547082,56.9200954 C13.9069642,57.0025003 13.7536097,57.0484799 13.5971383,57.0484799 C13.2810784,57.0484799 12.9762396,56.8812815 12.797326,56.6048071 M15.9666522,53.9535187 C15.5776554,53.2674083 14.0858778,53.4919318 14.5702536,54.4700423 C13.9774075,54.1481854 13.2318304,54.1302713 12.6040744,54.4825821 C11.6602586,55.0158255 11.3317308,56.1999482 11.8728353,57.1171506 C12.4289012,58.0439073 13.6407757,58.3466558 14.5858384,57.8259523 C15.2135944,57.4736414 15.5751619,56.8323163 15.5776554,56.1760627 C16.2147623,57.0747539 17.1641887,55.924668 16.7490094,55.2600545 C17.1330191,54.9728316 17.8935576,54.5112447 18.5842762,54.1034001 C18.6198096,53.6047907 18.6428751,53.0966271 18.6547195,52.5866721 C17.8181271,53.0458705 16.5725894,53.7009298 15.9666522,53.9535187 M21.5029987,42.6950975 C22.3246297,43.0521854 23.2061063,43.6290198 24.0333478,44.4375433 C24.8094712,45.1899359 25.4154084,45.9811425 25.78508,46.7263695 C25.4864751,47.8931752 23.4847626,49.5639646 21.2442909,51.0293388 C21.2386804,51.3153674 21.2386804,51.5846762 21.2386804,51.7996455 C21.2386804,52.0820913 21.2386804,52.3585658 21.2442909,52.646983 C23.9030588,51.3153674 26.7850012,50.2608234 28.0959951,50.625077 C28.5760071,51.3153674 28.9855758,52.2164472 29.2685959,53.2417314 C29.5653306,54.3440464 29.6513587,55.3693306 29.5578499,56.2321936 C30.0871099,56.9015842 30.6668647,57.4163163 31.2085925,57.7536987 C31.5321331,56.1109748 31.7241379,54.3739032 31.7241379,52.5795065 C31.7241379,50.4077192 31.474781,48.3249052 31.0072369,46.4027212 C29.5179528,45.0400545 27.7880393,43.7860668 25.8467959,42.7070402 C24.2446778,41.8077519 22.5939351,41.1073102 20.9768556,40.5555556 C20.9974276,41.1831466 21.1782113,41.9206108 21.5029987,42.6950975 M25.880459,56.9200954 C25.4372272,56.683032 25.2851194,56.1348603 25.5432038,55.7120873 C25.7869502,55.2851343 26.3517436,55.1376414 26.7887415,55.3800791 C27.2363372,55.6290852 27.3834577,56.1677028 27.1316073,56.6048071 C26.9576808,56.8812815 26.6540888,57.0484799 26.3374056,57.0484799 C26.17283,57.0484799 26.0219691,57.0025003 25.880459,56.9200954 M21.3147342,54.085486 C22.0235312,54.4981077 22.7846932,54.9716374 23.184911,55.2600545 C22.768485,55.924668 23.7160412,57.0747539 24.3462907,56.1760627 C24.3606287,56.8323163 24.7109752,57.4736414 25.3362376,57.8259523 C25.5787372,57.9537396 25.8424321,58.0439073 26.094906,58.0654042 L26.5643203,58.0654042 C27.1602833,57.9943449 27.7219597,57.6647253 28.0536044,57.1171506 C28.6084235,56.1999482 28.2780256,55.0241854 27.3273524,54.4825821 C26.6933625,54.1302713 25.9571363,54.1481854 25.368654,54.4700423 C25.8467959,53.4919318 24.3543948,53.2674083 23.9678916,53.9535187 C23.3463696,53.6925699 22.0846237,53.0434819 21.2442909,52.5795065 C21.2573822,53.0811016 21.2835646,53.5844881 21.3147342,54.085486 M14.0858778,42.7070402 C12.1489981,43.7860668 10.4147209,45.0400545 8.93104732,46.4027212 C8.60688335,47.7307539 8.38682589,49.1471629 8.27586207,50.6059686 L8.27586207,54.4789993 C8.35877324,55.6075883 8.51275112,56.6985576 8.72158752,57.7536987 C9.28077037,57.4163163 9.84556374,56.9015842 10.37046,56.2321936 C10.2763278,55.3693306 10.3648495,54.3440464 10.6653245,53.2417314 C10.9470978,52.2164472 11.3448221,51.3153674 11.8316914,50.625077 C13.1395684,50.2608234 16.0077961,51.3153674 18.6547195,52.6302631 C18.6547195,52.3442345 18.6659406,52.0820913 18.6659406,51.7996455 C18.6659406,51.575122 18.6659406,51.3058132 18.6547195,51.012619 C16.4242221,49.5544104 14.4480687,47.8931752 14.1532041,46.7263695 C14.5259927,45.9811425 15.128813,45.1839646 15.9024428,44.4375433 C16.7309311,43.6290198 17.6055504,43.0521854 18.4271814,42.6950975 C18.7513453,41.9206108 18.9364928,41.1831466 18.9583116,40.5555556 C17.3293876,41.1073102 15.6873725,41.8077519 14.0858778,42.7070402 M19.0381058,45.4377478 C19.0381058,44.9427212 19.4395704,44.5432365 19.9476351,44.5432365 C20.4594401,44.5432365 20.864645,44.9427212 20.864645,45.4377478 C20.864645,45.9303858 20.4594401,46.3286762 19.9476351,46.3286762 C19.4439341,46.3286762 19.0381058,45.9303858 19.0381058,45.4377478 M17.975222,45.4377478 C17.975222,46.1459523 18.356738,46.7502549 18.9364928,47.0918173 C17.8243611,47.1760136 18.3611018,48.5434574 19.1771222,48.5303204 C19.2550463,49.2480791 19.2986837,50.8955801 19.2986837,51.7996455 C19.2986837,55.166304 18.8230354,59.2698296 17.6379668,60.3840873 C16.7808025,60.4533551 15.7715304,60.3357192 14.7148806,60.0652161 C13.584047,59.7696333 12.6159189,59.3235719 11.9040049,58.8177969 C11.0412301,58.9258787 10.2931594,59.1432365 9.71153441,59.4352365 C11.0219049,60.5291915 12.4719153,61.5604472 14.0783971,62.4537641 C15.9491972,63.5041282 17.879843,64.322803 19.7737086,64.8888889 L20.1246784,64.8888889 C22.027895,64.322803 23.9466963,63.5041282 25.8249771,62.4537641 C27.4314589,61.5604472 28.8827161,60.5291915 30.179372,59.4352365 C29.6114616,59.1504022 28.8633909,58.9258787 28.003733,58.8177969 C27.2743641,59.3235719 26.3224441,59.7696333 25.1822597,60.0652161 C24.1299736,60.3357192 23.1138443,60.4533551 22.267901,60.3840873 C21.0772218,59.2698296 20.5984566,55.166304 20.5984566,51.7996455 C20.5984566,50.8955801 20.6396004,49.2480791 20.7274987,48.5303204 C21.5291812,48.5434574 22.0790131,47.1760136 20.9612708,47.0918173 C21.5466362,46.7502549 21.9399967,46.1459523 21.9399967,45.4377478 C21.9399967,44.3730525 21.0491691,43.5083981 19.9476351,43.5083981 C18.8523349,43.5083981 17.975222,44.3730525 17.975222,45.4377478" id="Fill-14" fill="#FFFFFF"></path>
            </g>
        </g>
    </g>
</svg>