<?xml version="1.0" encoding="UTF-8"?>
<svg width="623px" height="255px" viewBox="0 0 623 255" version="1.1" xmlns="http://www.w3.org/2000/svg" xmlns:xlink="http://www.w3.org/1999/xlink">
    <!-- Generator: Sketch 52.6 (67491) - http://www.bohemiancoding.com/sketch -->
    <desc>Created with Sketch.</desc>
    <defs>
        <linearGradient x1="10.9906944%" y1="17.7734393%" x2="82.0081345%" y2="90.9801566%" id="linearGradient-1">
            <stop stop-color="#13C6B9" offset="0%"></stop>
            <stop stop-color="#26B1C9" offset="100%"></stop>
        </linearGradient>
    </defs>
    <g id="Page-1" stroke="none" stroke-width="1" fill="none" fill-rule="evenodd">
        <g id="Goggles" fill="url(#linearGradient-1)" fill-rule="nonzero">
            <path d="M458.18754,2.59106065 C524.953686,2.59106065 579.247324,58.2026509 579.247324,126.603967 C579.247324,194.991858 524.949318,250.603448 458.18754,250.603448 C391.412656,250.603448 337.127756,194.991858 337.127756,126.603967 C337.127756,58.2071259 391.412656,2.59106065 458.18754,2.59106065 M458.18754,41.0676401 C412.159396,41.0676401 374.689447,79.4547183 374.689447,126.603967 C374.689447,173.744266 412.159396,212.126869 458.18754,212.126869 C504.206946,212.126869 541.685633,173.739791 541.685633,126.603967 C541.685633,79.4547183 504.206946,41.0676401 458.18754,41.0676401" id="Right-Lens"></path>
            <path d="M160.992344,41.0671926 C114.972938,41.0671926 77.4942512,79.4542708 77.4942512,126.60352 C77.4942512,173.739343 114.968569,212.126421 160.992344,212.126421 C207.020488,212.126421 244.490437,173.743818 244.490437,126.60352 C244.490437,79.4497957 207.020488,41.0671926 160.992344,41.0671926 M160.992344,2.59061315 C227.767228,2.59061315 282.04776,58.2066784 282.04776,126.60352 C282.04776,194.991411 227.762859,250.603001 160.992344,250.603001 C94.2305665,250.603001 39.93256,194.995886 39.93256,126.60352 C39.93256,58.2066784 94.2261979,2.59061315 160.992344,2.59061315" id="Left-Lens"></path>
            <path d="M600.399039,145.065386 L579.997422,145.065386 C554.956295,145.065386 554.956295,106.588807 579.997422,106.588807 L600.399039,106.588807 C625.440166,106.588807 625.440166,145.065386 600.399039,145.065386" id="Right-Arm"></path>
            <path d="M335.182394,111.786591 C335.182394,111.786591 332.797108,110.077117 328.773578,108.273667 C324.02485,106.148013 317.489343,104.12081 309.957783,104.12081 C301.84956,104.12081 291.52643,106.922199 284.737541,111.786591 C264.729103,127.207653 242.143159,96.4639798 262.151597,81.0429176 C262.151597,81.0429176 267.245448,76.9885119 276.091973,73.0236073 C284.213302,69.3853822 295.934402,65.6442308 309.957783,65.6442308 C325.239336,65.6442308 345.391939,71.1888321 357.768337,81.0429176 C377.772406,96.4639798 355.190831,127.207653 335.182394,111.786591" id="Bridge"></path>
            <path d="M39.182462,145.065386 L18.7808456,145.065386 C-6.26028187,145.065386 -6.26028187,106.588807 18.7808456,106.588807 L39.182462,106.588807 C64.2235895,106.588807 64.2235895,145.065386 39.182462,145.065386" id="Left-Arm"></path>
        </g>
    </g>
</svg>