<?xml version="1.0" encoding="UTF-8"?>
<svg width="39.5755761px" height="17.7312353px" viewBox="0 0 39.5755761 17.7312353" version="1.1" xmlns="http://www.w3.org/2000/svg" xmlns:xlink="http://www.w3.org/1999/xlink">
    <!-- Generator: Sketch 52.6 (67491) - http://www.bohemiancoding.com/sketch -->
    <desc>Created with Sketch.</desc>
    <g id="Page-1" stroke="none" stroke-width="1" fill="none" fill-rule="evenodd">
        <g id="Group-11" fill="#BD4D9C">
            <g id="Group-5" transform="translate(19.787788, 8.865618) scale(-1, 1) translate(-19.787788, -8.865618) ">
                <g id="Group-2" transform="translate(19.787788, 8.865618) rotate(-90.000000) translate(-19.787788, -8.865618) translate(10.946436, -10.976479)">
                    <path d="M15.6951844,10.9752423 C15.1864086,10.976479 14.6776328,10.7798521 14.2884254,10.3865983 L8.84196215,4.86496939 L3.39427883,10.3865983 C2.61708415,11.1731059 1.35917564,11.1731059 0.58198095,10.3865983 C-0.19399365,9.59885419 -0.19399365,8.32387111 0.58198095,7.53612696 L7.43642326,0.58988063 C7.80854944,0.211466641 8.31488507,0 8.84196215,0 C9.36903924,0 9.87537487,0.211466641 10.2475011,0.58988063 L17.1007233,7.53612696 C17.8766979,8.32387111 17.8766979,9.59885419 17.1007233,10.3865983 C16.712736,10.7798521 16.2039602,10.9752423 15.6951844,10.9752423" id="Fill-240-Copy"></path>
                    <path d="M15.6951844,25.3290994 C15.1864086,25.3303361 14.6776328,25.1337092 14.2884254,24.7404555 L8.84196215,19.2188265 L3.39427883,24.7404555 C2.61708415,25.526963 1.35917564,25.526963 0.58198095,24.7404555 C-0.19399365,23.9527113 -0.19399365,22.6777282 0.58198095,21.8899841 L7.43642326,14.9437377 C7.80854944,14.5653238 8.31488507,14.3538571 8.84196215,14.3538571 C9.36903924,14.3538571 9.87537487,14.5653238 10.2475011,14.9437377 L17.1007233,21.8899841 C17.8766979,22.6777282 17.8766979,23.9527113 17.1007233,24.7404555 C16.712736,25.1337092 16.2039602,25.3290994 15.6951844,25.3290994" id="Fill-240-Copy-2"></path>
                    <path d="M15.6951844,39.6829566 C15.1864086,39.6841932 14.6776328,39.4875663 14.2884254,39.0943126 L8.84196215,33.5726836 L3.39427883,39.0943126 C2.61708415,39.8808201 1.35917564,39.8808201 0.58198095,39.0943126 C-0.19399365,38.3065684 -0.19399365,37.0315853 0.58198095,36.2438412 L7.43642326,29.2975949 C7.80854944,28.9191809 8.31488507,28.7077142 8.84196215,28.7077142 C9.36903924,28.7077142 9.87537487,28.9191809 10.2475011,29.2975949 L17.1007233,36.2438412 C17.8766979,37.0315853 17.8766979,38.3065684 17.1007233,39.0943126 C16.712736,39.4875663 16.2039602,39.6829566 15.6951844,39.6829566" id="Fill-240-Copy-3"></path>
                </g>
            </g>
        </g>
    </g>
</svg>