<?xml version="1.0" encoding="UTF-8"?>
<svg width="25.7413312px" height="26.9230769px" viewBox="0 0 25.7413312 26.9230769" version="1.1" xmlns="http://www.w3.org/2000/svg" xmlns:xlink="http://www.w3.org/1999/xlink">
    <!-- Generator: Sketch 52.6 (67491) - http://www.bohemiancoding.com/sketch -->
    <desc>Created with Sketch.</desc>
    <g id="Page-1" stroke="none" stroke-width="1" fill="none" fill-rule="evenodd">
        <g id="Group-6-Copy-5" fill="#13C6B9" fill-rule="nonzero">
            <path d="M12.8711719,10.7692308 C11.9598023,10.7692308 11.2205803,10.0337268 11.2205803,9.12569724 L11.2205803,1.64252461 C11.2205803,0.735503956 11.9598023,0 12.8711719,0 C13.7825416,0 14.520751,0.735503956 14.520751,1.64252461 L14.520751,9.12569724 C14.520751,10.0337268 13.7825416,10.7692308 12.8711719,10.7692308" id="Fill-265-Copy"></path>
            <path d="M12.8711719,26.9230769 C11.9598023,26.9230769 11.2205803,26.1876419 11.2205803,25.2796974 L11.2205803,17.7972257 C11.2205803,16.89029 11.9598023,16.1538462 12.8711719,16.1538462 C13.7825416,16.1538462 14.520751,16.89029 14.520751,17.7972257 L14.520751,25.2796974 C14.520751,26.1876419 13.7825416,26.9230769 12.8711719,26.9230769" id="Fill-266-Copy"></path>
            <path d="M24.1289586,15.4807692 L16.7921685,15.4807692 C15.9019014,15.4807692 15.1807851,14.7267082 15.1807851,13.7980769 C15.1807851,12.8684127 15.9019014,12.1153846 16.7921685,12.1153846 L24.1289586,12.1153846 C25.0192257,12.1153846 25.7413312,12.8684127 25.7413312,13.7980769 C25.7413312,14.7267082 25.0192257,15.4807692 24.1289586,15.4807692" id="Fill-267-Copy"></path>
            <path d="M8.94817352,15.4807692 L1.61237263,15.4807692 C0.722105535,15.4807692 0,14.7267082 0,13.7980769 C0,12.8684127 0.722105535,12.1153846 1.61237263,12.1153846 L8.94817352,12.1153846 C9.83844062,12.1153846 10.5605462,12.8684127 10.5605462,13.7980769 C10.5605462,14.7267082 9.83844062,15.4807692 8.94817352,15.4807692" id="Fill-268-Copy"></path>
        </g>
    </g>
</svg>