<?xml version="1.0" encoding="UTF-8"?>
<svg width="46px" height="50px" viewBox="0 0 46 50" version="1.1" xmlns="http://www.w3.org/2000/svg" xmlns:xlink="http://www.w3.org/1999/xlink">
    <!-- Generator: Sketch 52.6 (67491) - http://www.bohemiancoding.com/sketch -->
    <desc>Created with Sketch.</desc>
    <g id="Page-1" stroke="none" stroke-width="1" fill="none" fill-rule="evenodd">
        <g id="Jobs-icon">
            <g id="Group-4" transform="translate(2.000000, 9.000000)">
                <rect id="Rectangle" stroke="#F1692E" stroke-width="1.5" fill-rule="nonzero" x="0" y="12.2352941" width="42" height="19.7647059" rx="1.57248005"></rect>
                <path d="M9.994,24.415 C9.994,24.5890009 9.93100063,24.7389994 9.805,24.865 C9.67899937,24.9910006 9.5260009,25.054 9.346,25.054 C9.17199913,25.054 9.02200063,24.9910006 8.896,24.865 C8.76999937,24.7389994 8.707,24.5890009 8.707,24.415 L8.707,22.48 L5.872,22.48 L5.872,24.424 C5.872,24.5980009 5.80900063,24.7464994 5.683,24.8695 C5.55699937,24.9925006 5.4040009,25.054 5.224,25.054 C5.04999913,25.054 4.90150061,24.9925006 4.7785,24.8695 C4.65549938,24.7464994 4.594,24.5980009 4.594,24.424 L4.594,19.573 C4.594,19.3989991 4.65699937,19.2505006 4.783,19.1275 C4.90900063,19.0044994 5.0619991,18.943 5.242,18.943 C5.41600087,18.943 5.56449938,19.0044994 5.6875,19.1275 C5.81050061,19.2505006 5.872,19.3989991 5.872,19.573 L5.872,21.355 L8.707,21.355 L8.707,19.573 C8.707,19.3989991 8.76999937,19.2505006 8.896,19.1275 C9.02200063,19.0044994 9.17799907,18.943 9.364,18.943 C9.53800087,18.943 9.68649938,19.0044994 9.8095,19.1275 C9.93250061,19.2505006 9.994,19.3989991 9.994,19.573 L9.994,24.415 Z M13.151,24.424 C13.151,24.5980009 13.0880006,24.7464994 12.962,24.8695 C12.8359994,24.9925006 12.6830009,25.054 12.503,25.054 C12.3289991,25.054 12.1805006,24.9925006 12.0575,24.8695 C11.9344994,24.7464994 11.873,24.5980009 11.873,24.424 L11.873,19.573 C11.873,19.3989991 11.9359994,19.2505006 12.062,19.1275 C12.1880006,19.0044994 12.3409991,18.943 12.521,18.943 C12.6950009,18.943 12.8434994,19.0044994 12.9665,19.1275 C13.0895006,19.2505006 13.151,19.3989991 13.151,19.573 L13.151,24.424 Z M19.863,20.932 C19.863,21.1960013 19.8255004,21.429999 19.7505,21.634 C19.6754996,21.838001 19.5750006,22.0134993 19.449,22.1605 C19.3229993,22.3075007 19.1820008,22.4274995 19.026,22.5205 C18.8699992,22.6135005 18.7110008,22.6779998 18.549,22.714 L19.377,24.118 C19.4310002,24.2200005 19.458,24.3219995 19.458,24.424 C19.458,24.5800008 19.4010005,24.7239993 19.287,24.856 C19.1729994,24.9880007 19.0200009,25.054 18.828,25.054 C18.7139994,25.054 18.6090005,25.0255003 18.513,24.9685 C18.4169995,24.9114997 18.3390003,24.8320005 18.279,24.73 L17.253,22.867 L16.317,22.867 L16.317,24.424 C16.317,24.5980009 16.2540006,24.7464994 16.128,24.8695 C16.0019993,24.9925006 15.8490009,25.054 15.669,25.054 C15.4949991,25.054 15.3465006,24.9925006 15.2235,24.8695 C15.1004994,24.7464994 15.039,24.5980009 15.039,24.424 L15.039,19.717 C15.039,19.518999 15.1094993,19.3495007 15.2505,19.2085 C15.3915007,19.0674993 15.560999,18.997 15.759,18.997 L17.847,18.997 C18.1590015,18.997 18.4394987,19.0449995 18.6885,19.141 C18.9375012,19.2370005 19.1489991,19.3719991 19.323,19.546 C19.4970008,19.7200009 19.6304995,19.9254988 19.7235,20.1625 C19.8165004,20.3995012 19.863,20.6559986 19.863,20.932 Z M17.658,20.122 L16.317,20.122 L16.317,21.742 L17.658,21.742 C17.9160013,21.742 18.1304991,21.6700007 18.3015,21.526 C18.4725008,21.3819993 18.558,21.1840013 18.558,20.932 C18.558,20.6799987 18.4725008,20.4820007 18.3015,20.338 C18.1304991,20.1939993 17.9160013,20.122 17.658,20.122 Z M22.804,24.424 C22.804,24.5980009 22.7410006,24.7464994 22.615,24.8695 C22.4889993,24.9925006 22.3360009,25.054 22.156,25.054 C21.9819991,25.054 21.8335006,24.9925006 21.7105,24.8695 C21.5874993,24.7464994 21.526,24.5980009 21.526,24.424 L21.526,19.573 C21.526,19.3989991 21.5889993,19.2505006 21.715,19.1275 C21.8410006,19.0044994 21.9939991,18.943 22.174,18.943 C22.3480008,18.943 22.4964993,19.0044994 22.6195,19.1275 C22.7425006,19.2505006 22.804,19.3989991 22.804,19.573 L22.804,24.424 Z M30.065,24.28 C30.065,24.3820005 30.0455001,24.4794995 30.0065,24.5725 C29.9674998,24.6655005 29.9120003,24.7479996 29.84,24.82 C29.7679996,24.8920004 29.6840004,24.9489998 29.588,24.991 C29.4919995,25.0330002 29.3870005,25.054 29.273,25.054 C29.1529994,25.054 29.0360005,25.0255003 28.922,24.9685 C28.8079994,24.9114997 28.7120003,24.8320005 28.634,24.73 L25.97,21.085 L25.97,24.424 C25.97,24.5980009 25.9070006,24.7464994 25.781,24.8695 C25.6549993,24.9925006 25.5020009,25.054 25.322,25.054 C25.1479991,25.054 24.9995006,24.9925006 24.8765,24.8695 C24.7534993,24.7464994 24.692,24.5980009 24.692,24.424 L24.692,19.762 C24.692,19.6539995 24.7129997,19.5520005 24.755,19.456 C24.7970002,19.3599995 24.8554996,19.2730004 24.9305,19.195 C25.0055003,19.1169996 25.0939994,19.0555002 25.196,19.0105 C25.2980005,18.9654998 25.4089994,18.943 25.529,18.943 C25.6670006,18.943 25.7974993,18.9729997 25.9205,19.033 C26.0435006,19.0930003 26.1469995,19.1799994 26.231,19.294 L28.787,22.768 L28.787,19.573 C28.787,19.3989991 28.8499993,19.2505006 28.976,19.1275 C29.1020006,19.0044994 29.2549991,18.943 29.435,18.943 C29.6090008,18.943 29.7574993,19.0044994 29.8805,19.1275 C30.0035006,19.2505006 30.065,19.3989991 30.065,19.573 L30.065,24.28 Z M37.4159999,23.416 C37.4159999,23.6860014 37.3395007,23.9274989 37.1864999,24.1405 C37.0334992,24.3535011 36.8355012,24.5319993 36.5924999,24.676 C36.3494987,24.8200007 36.0765015,24.9294996 35.7734999,25.0045 C35.4704984,25.0795004 35.1660015,25.117 34.8599999,25.117 C34.4219978,25.117 34.0095019,25.0435007 33.6224999,24.8965 C33.235498,24.7494993 32.8965014,24.5410014 32.6054999,24.271 C32.3144985,24.0009987 32.0850008,23.6740019 31.9169999,23.29 C31.7489991,22.9059981 31.6649999,22.4770024 31.6649999,22.003 C31.6649999,21.5289976 31.7489991,21.1000019 31.9169999,20.716 C32.0850008,20.3319981 32.3144985,20.0050014 32.6054999,19.735 C32.8965014,19.4649987 33.235498,19.2580007 33.6224999,19.114 C34.0095019,18.9699993 34.4219978,18.898 34.8599999,18.898 C35.3460024,18.898 35.7644982,18.9819992 36.1154999,19.15 C36.4665017,19.3180008 36.7589988,19.5279987 36.9929999,19.78 C37.0410002,19.8340003 37.0784998,19.8954997 37.1054999,19.9645 C37.1325001,20.0335003 37.1459999,20.1009997 37.1459999,20.167 C37.1459999,20.3230008 37.0845006,20.4579994 36.9614999,20.572 C36.8384993,20.6860006 36.6990007,20.743 36.5429999,20.743 C36.3749991,20.743 36.2310005,20.6830006 36.1109999,20.563 C35.9369991,20.3949992 35.742001,20.2645005 35.5259999,20.1715 C35.3099989,20.0784995 35.0880011,20.032 34.8599999,20.032 C34.5899986,20.032 34.3395011,20.0814995 34.1084999,20.1805 C33.8774988,20.2795005 33.6780008,20.4174991 33.5099999,20.5945 C33.3419991,20.7715009 33.2115004,20.9799988 33.1184999,21.22 C33.0254995,21.4600012 32.9789999,21.7209986 32.9789999,22.003 C32.9789999,22.2850014 33.0254995,22.5474988 33.1184999,22.7905 C33.2115004,23.0335012 33.3419991,23.2419991 33.5099999,23.416 C33.6780008,23.5900009 33.8774988,23.7264995 34.1084999,23.8255 C34.3395011,23.9245005 34.5899986,23.974 34.8599999,23.974 C34.9920006,23.974 35.1209993,23.9605001 35.2469999,23.9335 C35.3730006,23.9064999 35.4929994,23.8720002 35.6069999,23.83 C35.7210005,23.7879998 35.8229995,23.7385003 35.9129999,23.6815 C36.0030004,23.6244997 36.0779996,23.5690003 36.1379999,23.515 L36.1379999,22.795 L35.0489999,22.795 C34.8929992,22.795 34.7625005,22.7410005 34.6574999,22.633 C34.5524994,22.5249995 34.4999999,22.3900008 34.4999999,22.228 C34.4999999,22.0719992 34.5524994,21.9415005 34.6574999,21.8365 C34.7625005,21.7314995 34.8929992,21.679 35.0489999,21.679 L36.6959999,21.679 C36.8940009,21.679 37.0634992,21.7494993 37.2044999,21.8905 C37.3455006,22.0315007 37.4159999,22.200999 37.4159999,22.399 L37.4159999,23.416 Z" id="HIRING" fill="#F1692E"></path>
                <path d="M9.5,12.2352941 L19,3" id="Path-26" stroke="#F1692E" stroke-width="1.5" fill-rule="nonzero"></path>
                <path d="M33.1844852,12.2352941 L23,3 L33.1844852,12.2352941 Z" id="Path-26-Copy" stroke="#F1692E" stroke-width="1.5" fill-rule="nonzero"></path>
                <circle id="Oval" stroke="#F1692E" stroke-width="1.5" fill-rule="nonzero" cx="21" cy="2" r="2"></circle>
            </g>
        </g>
    </g>
</svg>