<?xml version="1.0" encoding="UTF-8"?>
<svg width="32.8393078px" height="33.7737815px" viewBox="0 0 32.8393078 33.7737815" version="1.1" xmlns="http://www.w3.org/2000/svg" xmlns:xlink="http://www.w3.org/1999/xlink">
    <!-- Generator: Sketch 52.6 (67491) - http://www.bohemiancoding.com/sketch -->
    <desc>Created with Sketch.</desc>
    <g id="Page-1" stroke="none" stroke-width="1" fill="none" fill-rule="evenodd">
        <g id="Group-6-Copy-3" fill="#13C6B9" fill-rule="nonzero">
            <path d="M16.4202999,13.5095126 C15.257627,13.5095126 14.3145701,12.5868562 14.3145701,11.4477742 L14.3145701,2.06047278 C14.3145701,0.922656424 15.257627,0 16.4202999,0 C17.5829727,0 18.5247378,0.922656424 18.5247378,2.06047278 L18.5247378,11.4477742 C18.5247378,12.5868562 17.5829727,13.5095126 16.4202999,13.5095126" id="Fill-265-Copy"></path>
            <path d="M16.4202999,33.7737815 C15.257627,33.7737815 14.3145701,32.8512115 14.3145701,31.7122362 L14.3145701,22.3258142 C14.3145701,21.1881044 15.257627,20.2642689 16.4202999,20.2642689 C17.5829727,20.2642689 18.5247378,21.1881044 18.5247378,22.3258142 L18.5247378,31.7122362 C18.5247378,32.8512115 17.5829727,33.7737815 16.4202999,33.7737815" id="Fill-266-Copy"></path>
            <path d="M30.7823357,19.4199243 L21.4224815,19.4199243 C20.28673,19.4199243 19.3667713,18.4739889 19.3667713,17.309063 C19.3667713,16.1428413 20.28673,15.1982017 21.4224815,15.1982017 L30.7823357,15.1982017 C31.9180872,15.1982017 32.8393078,16.1428413 32.8393078,17.309063 C32.8393078,18.4739889 31.9180872,19.4199243 30.7823357,19.4199243" id="Fill-267-Copy"></path>
            <path d="M11.4155644,19.4199243 L2.05697214,19.4199243 C0.921220652,19.4199243 0,18.4739889 0,17.309063 C0,16.1428413 0.921220652,15.1982017 2.05697214,15.1982017 L11.4155644,15.1982017 C12.5513159,15.1982017 13.4725366,16.1428413 13.4725366,17.309063 C13.4725366,18.4739889 12.5513159,19.4199243 11.4155644,19.4199243" id="Fill-268-Copy"></path>
        </g>
    </g>
</svg>