<?xml version="1.0" encoding="UTF-8"?>
<svg width="449px" height="184px" viewBox="0 0 449 184" version="1.1" xmlns="http://www.w3.org/2000/svg" xmlns:xlink="http://www.w3.org/1999/xlink">
    <!-- Generator: Sketch 52.6 (67491) - http://www.bohemiancoding.com/sketch -->
    <desc>Created with Sketch.</desc>
    <defs>
        <linearGradient x1="10.9906944%" y1="17.7734393%" x2="82.0081345%" y2="90.9801566%" id="linearGradient-1">
            <stop stop-color="#13C6B9" offset="0%"></stop>
            <stop stop-color="#26B1C9" offset="100%"></stop>
        </linearGradient>
    </defs>
    <g id="Page-1" stroke="none" stroke-width="1" fill="none" fill-rule="evenodd">
        <g id="Goggles" fill="url(#linearGradient-1)" fill-rule="nonzero">
            <path d="M330.218628,1.86962808 C378.337408,1.86962808 417.467173,41.9972069 417.467173,91.3534507 C417.467173,140.700007 378.334259,180.827586 330.218628,180.827586 C282.093552,180.827586 242.970084,140.700007 242.970084,91.3534507 C242.970084,42.000436 282.093552,1.86962808 330.218628,1.86962808 M330.218628,29.6331207 C297.045857,29.6331207 270.04103,57.332032 270.04103,91.3534507 C270.04103,125.368411 297.045857,153.064094 330.218628,153.064094 C363.385102,153.064094 390.396227,125.365182 390.396227,91.3534507 C390.396227,57.332032 363.385102,29.6331207 330.218628,29.6331207" id="Right-Lens"></path>
            <path d="M116.02819,29.6327978 C82.8617162,29.6327978 55.850592,57.3317091 55.850592,91.3531278 C55.850592,125.364859 82.8585676,153.063771 116.02819,153.063771 C149.200962,153.063771 176.205789,125.368088 176.205789,91.3531278 C176.205789,57.32848 149.200962,29.6327978 116.02819,29.6327978 M116.02819,1.86930517 C164.153267,1.86930517 203.273586,42.0001131 203.273586,91.3531278 C203.273586,140.699684 164.150119,180.827263 116.02819,180.827263 C67.9125592,180.827263 28.779646,140.702914 28.779646,91.3531278 C28.779646,42.0001131 67.9094107,1.86930517 116.02819,1.86930517" id="Left-Lens"></path>
            <path d="M432.711346,104.674632 L418.007773,104.674632 C399.960476,104.674632 399.960476,76.9111389 418.007773,76.9111389 L432.711346,76.9111389 C450.758643,76.9111389 450.758643,104.674632 432.711346,104.674632" id="Right-Arm"></path>
            <path d="M241.568049,80.6616968 C241.568049,80.6616968 239.848959,79.4281943 236.949176,78.1268815 C233.526738,76.5930761 228.816557,75.1303101 223.388514,75.1303101 C217.544868,75.1303101 210.104923,77.1517042 205.212128,80.6616968 C190.791922,91.7890515 174.514091,69.6053815 188.934297,58.4780268 C188.934297,58.4780268 192.605467,55.5524948 198.981213,52.6915441 C204.834306,50.066315 213.281776,47.3668175 223.388514,47.3668175 C234.402026,47.3668175 248.926133,51.3676278 257.84588,58.4780268 C272.262938,69.6053815 255.988256,91.7890515 241.568049,80.6616968" id="Bridge"></path>
            <path d="M28.2390457,104.674632 L13.535473,104.674632 C-4.51182433,104.674632 -4.51182433,76.9111389 13.535473,76.9111389 L28.2390457,76.9111389 C46.286343,76.9111389 46.286343,104.674632 28.2390457,104.674632" id="Left-Arm"></path>
        </g>
    </g>
</svg>