<?xml version="1.0" encoding="UTF-8"?>
<svg width="57px" height="4px" viewBox="0 0 57 4" version="1.1" xmlns="http://www.w3.org/2000/svg" xmlns:xlink="http://www.w3.org/1999/xlink">
    <!-- Generator: Sketch 52.6 (67491) - http://www.bohemiancoding.com/sketch -->
    <desc>Created with Sketch.</desc>
    <g id="Page-1" stroke="none" stroke-width="1" fill="none" fill-rule="evenodd">
        <g id="Fill-271-Copy-3" fill="#BD4D9C">
            <path d="M2.40244015,4 L1.71648027,4 C0.768148627,4 0,3.10374463 0,2 C0,0.895027624 0.768148627,0 1.71648027,0 L2.40244015,0 C3.35077179,0 4.11997412,0.895027624 4.11997412,2 C4.11997412,3.10374463 3.35077179,4 2.40244015,4 Z M28.8429799,4 L28.1559664,4 C27.2076347,4 26.4394861,3.10374463 26.4394861,2 C26.4394861,0.895027624 27.2076347,0 28.1559664,0 L28.8429799,0 C29.7913116,0 30.5594602,0.895027624 30.5594602,2 C30.5594602,3.10374463 29.7913116,4 28.8429799,4 Z M55.282466,4 L54.5954524,4 C53.6481745,4 52.8789722,3.10374463 52.8789722,2 C52.8789722,0.895027624 53.6481745,0 54.5954524,0 L55.282466,0 C56.2307977,0 57,0.895027624 57,2 C57,3.10374463 56.2307977,4 55.282466,4 Z" id="Fill-270"></path>
        </g>
    </g>
</svg>