<?xml version="1.0" encoding="UTF-8"?>
<svg width="66.6934491px" height="5.85284281px" viewBox="0 0 66.6934491 5.85284281" version="1.1" xmlns="http://www.w3.org/2000/svg" xmlns:xlink="http://www.w3.org/1999/xlink">
    <!-- Generator: Sketch 52.6 (67491) - http://www.bohemiancoding.com/sketch -->
    <desc>Created with Sketch.</desc>
    <g id="Page-1" stroke="none" stroke-width="1" fill="none" fill-rule="evenodd">
        <g id="Fill-271-Copy-3" fill="#BD4D9C">
            <path d="M2.81100035,5.0108549 L2.00838578,5.0108549 C0.898780376,5.0108549 0,3.88810349 0,2.50542745 C0,1.12121339 0.898780376,0 2.00838578,0 L2.81100035,0 C3.92060575,0 4.82061903,1.12121339 4.82061903,2.50542745 C4.82061903,3.88810349 3.92060575,5.0108549 2.81100035,5.0108549 Z M33.7480319,5.0108549 L32.9441844,5.0108549 C31.834579,5.0108549 30.9357986,3.88810349 30.9357986,2.50542745 C30.9357986,1.12121339 31.834579,0 32.9441844,0 L33.7480319,0 C34.8576373,0 35.7564176,1.12121339 35.7564176,2.50542745 C35.7564176,3.88810349 34.8576373,5.0108549 33.7480319,5.0108549 Z M64.6838305,5.0108549 L63.879983,5.0108549 C62.7716105,5.0108549 61.8715972,3.88810349 61.8715972,2.50542745 C61.8715972,1.12121339 62.7716105,0 63.879983,0 L64.6838305,0 C65.7934359,0 66.6934491,1.12121339 66.6934491,2.50542745 C66.6934491,3.88810349 65.7934359,5.0108549 64.6838305,5.0108549 Z" id="Fill-270"></path>
        </g>
    </g>
</svg>