<?xml version="1.0" encoding="UTF-8"?>
<svg width="364px" height="149px" viewBox="0 0 364 149" version="1.1" xmlns="http://www.w3.org/2000/svg" xmlns:xlink="http://www.w3.org/1999/xlink">
    <!-- Generator: Sketch 52.6 (67491) - http://www.bohemiancoding.com/sketch -->
    <desc>Created with Sketch.</desc>
    <defs>
        <linearGradient x1="10.9906944%" y1="17.7734393%" x2="82.0081345%" y2="90.9801566%" id="linearGradient-1">
            <stop stop-color="#13C6B9" offset="0%"></stop>
            <stop stop-color="#26B1C9" offset="100%"></stop>
        </linearGradient>
    </defs>
    <g id="Page-1" stroke="none" stroke-width="1" fill="none" fill-rule="evenodd">
        <g id="Goggles" fill="url(#linearGradient-1)" fill-rule="nonzero">
            <path d="M267.70508,1.5139923 C306.714513,1.5139923 338.436639,34.0086078 338.436639,73.9764357 C338.436639,113.936419 306.711961,146.431034 267.70508,146.431034 C228.690541,146.431034 196.97352,113.936419 196.97352,73.9764357 C196.97352,34.0112226 228.690541,1.5139923 267.70508,1.5139923 M267.70508,23.9963858 C240.812232,23.9963858 218.919677,46.4264825 218.919677,73.9764357 C218.919677,101.521159 240.812232,123.948641 267.70508,123.948641 C294.592823,123.948641 316.490482,101.518544 316.490482,73.9764357 C316.490482,46.4264825 294.592823,23.9963858 267.70508,23.9963858" id="Right-Lens"></path>
            <path d="M94.0629427,23.9961243 C67.1751997,23.9961243 45.27754,46.426221 45.27754,73.9761742 C45.27754,101.518283 67.1726473,123.94838 94.0629427,123.94838 C120.955791,123.94838 142.848345,101.520898 142.848345,73.9761742 C142.848345,46.4236061 120.955791,23.9961243 94.0629427,23.9961243 M94.0629427,1.51373082 C133.077482,1.51373082 164.79195,34.0109611 164.79195,73.9761742 C164.79195,113.936158 133.074929,146.430773 94.0629427,146.430773 C55.0560613,146.430773 23.3313834,113.938772 23.3313834,73.9761742 C23.3313834,34.0109611 55.0535089,1.51373082 94.0629427,1.51373082" id="Left-Lens"></path>
            <path d="M350.794944,84.7636962 L338.874898,84.7636962 C324.244127,84.7636962 324.244127,62.2813027 338.874898,62.2813027 L350.794944,62.2813027 C365.425715,62.2813027 365.425715,84.7636962 350.794944,84.7636962" id="Right-Arm"></path>
            <path d="M195.836904,65.3184393 C195.836904,65.3184393 194.443254,64.3195704 192.092427,63.2657899 C189.31789,62.023741 185.499392,60.8392185 181.098929,60.8392185 C176.361541,60.8392185 170.330049,62.4761083 166.363507,65.3184393 C154.673184,74.3291776 141.476902,56.3652274 153.167225,47.3544891 C153.167225,47.3544891 156.143408,44.9854442 161.312164,42.668696 C166.05721,40.5428312 172.905493,38.356825 181.098929,38.356825 C190.027477,38.356825 201.802032,41.5966117 209.033186,47.3544891 C220.720956,56.3652274 207.527227,74.3291776 195.836904,65.3184393" id="Bridge"></path>
            <path d="M22.8931239,84.7636962 L10.9730783,84.7636962 C-3.65769278,84.7636962 -3.65769278,62.2813027 10.9730783,62.2813027 L22.8931239,62.2813027 C37.523895,62.2813027 37.523895,84.7636962 22.8931239,84.7636962" id="Left-Arm"></path>
        </g>
    </g>
</svg>