<?xml version="1.0" encoding="UTF-8"?>
<svg width="66.5206492px" height="4.22172268px" viewBox="0 0 66.5206492 4.22172268" version="1.1" xmlns="http://www.w3.org/2000/svg" xmlns:xlink="http://www.w3.org/1999/xlink">
    <!-- Generator: Sketch 52.6 (67491) - http://www.bohemiancoding.com/sketch -->
    <desc>Created with Sketch.</desc>
    <g id="Page-1" stroke="none" stroke-width="1" fill="none" fill-rule="evenodd">
        <g id="Fill-271-Copy" fill="#BD4D9C">
            <path d="M2.80371717,4.22172268 L2.00318213,4.22172268 C0.896451674,4.22172268 0,3.27578727 0,2.11086134 C0,0.944639606 0.896451674,0 2.00318213,0 L2.80371717,0 C3.91044763,0 4.808129,0.944639606 4.808129,2.11086134 C4.808129,3.27578727 3.91044763,4.22172268 2.80371717,4.22172268 Z M33.6605921,4.22172268 L32.8588274,4.22172268 C31.7520969,4.22172268 30.8556453,3.27578727 30.8556453,2.11086134 C30.8556453,0.944639606 31.7520969,0 32.8588274,0 L33.6605921,0 C34.7673226,0 35.6637743,0.944639606 35.6637743,2.11086134 C35.6637743,3.27578727 34.7673226,4.22172268 33.6605921,4.22172268 Z M64.5162374,4.22172268 L63.7144727,4.22172268 C62.6089719,4.22172268 61.7112905,3.27578727 61.7112905,2.11086134 C61.7112905,0.944639606 62.6089719,0 63.7144727,0 L64.5162374,0 C65.6229678,0 66.5206492,0.944639606 66.5206492,2.11086134 C66.5206492,3.27578727 65.6229678,4.22172268 64.5162374,4.22172268 Z" id="Fill-270"></path>
        </g>
    </g>
</svg>