<?xml version="1.0" encoding="UTF-8"?>
<svg width="50px" height="50px" viewBox="0 0 50 50" version="1.1" xmlns="http://www.w3.org/2000/svg" xmlns:xlink="http://www.w3.org/1999/xlink">
    <!-- Generator: Sketch 52.6 (67491) - http://www.bohemiancoding.com/sketch -->
    <desc>Created with Sketch.</desc>
    <defs>
        <rect id="path-1" x="0" y="0" width="50" height="50"></rect>
    </defs>
    <g id="Page-1" stroke="none" stroke-width="1" fill="none" fill-rule="evenodd">
        <g id="waving-hand">
            <mask id="mask-2" fill="white">
                <use xlink:href="#path-1"></use>
            </mask>
            <g id="Background"></g>
            <g stroke-width="1" fill-rule="evenodd" mask="url(#mask-2)">
                <g transform="translate(5.000000, 4.000000)">
                    <path d="M10.8611422,27.2999854 C7.59364118,27.2999854 4.29182176,30.5522466 4.29182176,33.7707044 C4.29182176,34.2156636 3.96098648,34.5753366 3.50924698,34.5753366 C3.05750749,34.5753366 2.65803537,34.2156636 2.65803537,33.7707044 C2.65803537,28.9429823 5.95985478,25.6907212 10.8611422,25.6907212 C11.3128817,25.6907212 11.6780354,26.0841975 11.6780354,26.5291566 C11.6780354,26.9741158 11.3128817,27.2999854 10.8611422,27.2999854" id="Path" fill="#FDC448" transform="translate(7.168035, 30.133029) scale(-1, 1) rotate(-188.000000) translate(-7.168035, -30.133029) "></path>
                    <path d="M6.39258841,30.9175936 C3.93260643,30.9175936 2.2925704,32.5330137 2.2925704,34.9560729 C2.2925704,35.4027341 1.92601989,35.7637829 1.47255238,35.7637829 C1.01908487,35.7637829 0.652534361,35.4027341 0.652534361,34.9560729 C0.652534361,31.7253037 3.11251634,29.3022445 6.39251634,29.3022445 C6.84598386,29.3022445 7.21253436,29.6632933 7.21253436,30.1099545 C7.21253436,30.5566158 6.84605593,30.9175936 6.39258841,30.9175936" id="Path" fill="#FDC448" transform="translate(3.932534, 32.533014) scale(-1, 1) rotate(-188.000000) translate(-3.932534, -32.533014) "></path>
                    <path d="M28.4376277,16.0611677 C27.9849557,16.0611677 27.6176146,15.6993401 27.6176146,15.2534624 C27.6176146,14.8075848 27.9849557,14.4457572 28.4376277,14.4457572 C31.717608,14.4457572 34.9975884,11.5469488 34.9975884,7.98425749 C34.9975884,7.5383798 35.3649294,7.17655228 35.8176015,7.17655228 C36.2702735,7.17655228 36.6376146,7.5383798 36.6376146,7.98425749 C36.6376146,12.4378523 33.3576342,16.0611677 28.4376277,16.0611677" id="Path" fill="#FDC448" transform="translate(32.127615, 11.618860) scale(-1, 1) rotate(-188.000000) translate(-32.127615, -11.618860) "></path>
                    <path d="M32.9074535,12.4496443 C32.4523941,12.4496443 32.0831156,12.1200199 32.0831156,11.6717906 C32.0831156,11.2227763 32.4523941,10.825714 32.9074535,10.825714 C35.3803949,10.825714 36.9944397,9.01909515 36.9944397,6.80007104 C36.9944397,6.35105673 37.3983493,5.98810589 37.8534088,5.98810589 C38.3084683,5.98810589 38.6431156,6.35105673 38.6431156,6.80007104 C38.6431156,9.91476879 36.2047329,12.4496443 32.9074535,12.4496443" id="Path" fill="#FDC448" transform="translate(35.363116, 9.218875) scale(-1, 1) rotate(-188.000000) translate(-35.363116, -9.218875) "></path>
                    <g id="high-five" stroke-width="1" fill="none" transform="translate(20.506634, 20.675901) scale(-1, 1) rotate(32.000000) translate(-20.506634, -20.675901) translate(7.796634, 4.118209)">
                        <path d="M24.558204,16.5576923 C24.1009752,16.5576923 23.730191,16.9228588 23.730191,17.3733422 L23.730191,19.7654801 C23.730191,22.448071 22.6681815,24.9686737 20.7397392,26.862939 L19.1707373,28.4041094 C19.0149052,28.5571253 18.9273842,28.7649529 18.9273842,28.9816711 L18.9273842,32.2997347 C18.9273842,32.7502182 19.2981685,33.1153846 19.7553973,33.1153846 C20.2126261,33.1153846 20.5834103,32.7502182 20.5834103,32.2997347 L20.5834103,29.3202473 L21.9090592,28.0181439 C24.1514012,25.8156446 25.3862999,22.8847699 25.3862999,19.7655617 L25.3862999,17.3733422 C25.3862171,16.9228588 25.0155156,16.5576923 24.558204,16.5576923 Z" id="Path" fill="#FDC448"></path>
                        <path d="M24.5582868,13.6621353 C24.3405194,13.6621353 24.1268921,13.7494098 23.9729644,13.9011207 C23.818954,14.0528316 23.7302738,14.2632692 23.7302738,14.4777851 C23.7302738,14.6923011 23.8188712,14.9027387 23.9729644,15.0544496 C24.1268921,15.2061605 24.3405194,15.293435 24.5582868,15.293435 C24.7760543,15.293435 24.9896816,15.2061605 25.1436921,15.0544496 C25.2977025,14.9027387 25.3862999,14.6923011 25.3862999,14.4777851 C25.3862999,14.2632692 24.7760543,13.6621353 24.5582868,13.6621353 Z" id="Path" fill="#FDC448"></path>
                        <path d="M22.3127155,4.44561804 C21.7954558,4.44561804 21.3080045,4.57269629 20.8799218,4.79593966 C20.6957717,3.29865119 19.3986064,2.13439257 17.8296874,2.13439257 C17.2995106,2.13439257 16.8003016,2.2673435 16.3645183,2.50119032 C16.0922676,1.10430836 14.8430444,0.0453501326 13.346742,0.0453501326 C11.8504397,0.0453501326 10.6011336,1.10430836 10.3289657,2.50119032 C9.89318248,2.2673435 9.39389062,2.13439257 8.86371388,2.13439257 C7.16901961,2.13439257 5.79029511,3.49253117 5.79029511,5.16200332 L5.79029511,13.0985212 C5.1350884,12.0517977 3.87510098,11.455313 2.58737511,11.6788011 C1.7541456,11.8234973 1.03186984,12.2818926 0.55352671,12.9694038 C0.0751835831,13.6569151 -0.0980367427,14.4858601 0.0655786319,15.3035491 L1.24135713,21.1769622 C1.69817192,23.4586611 2.82319322,25.5326141 4.49495153,27.1747619 L6.6791671,29.3202473 L6.6791671,32.2997347 C6.6791671,32.7502182 7.04995134,33.1153846 7.50718013,33.1153846 C7.96440893,33.1153846 8.33519316,32.7502182 8.33519316,32.2997347 L8.33519316,28.9816711 C8.33519316,28.7649529 8.24758938,28.5571253 8.09184013,28.4041094 L5.66435433,26.019557 C4.22659251,24.6072593 3.25897648,22.8235962 2.8661671,20.8613057 L1.6903886,14.9878926 C1.61354899,14.6038031 1.69494267,14.2144118 1.91958261,13.891496 C2.14430534,13.5685802 2.48362508,13.3532487 2.87494404,13.285305 C3.63340397,13.153496 4.37099798,13.6274702 4.55440287,14.3642467 L5.16183322,16.8051605 C5.30350625,17.3746472 5.83442821,17.7373667 6.42629192,17.6667314 C7.01732762,17.5964224 7.44623837,17.1197566 7.44623837,16.5333859 L7.44623837,5.16192175 C7.44623837,4.39202984 8.08215238,3.76561074 8.86371388,3.76561074 C9.59501498,3.76561074 10.1986365,4.31413528 10.2731577,5.0155126 L10.2731577,10.9930027 C10.2731577,11.4434861 10.6439419,11.8086525 11.1011707,11.8086525 C11.1024955,11.8086525 11.1038203,11.8084894 11.1051451,11.8084894 C11.10647,11.8084894 11.1077948,11.8086525 11.1091196,11.8086525 C11.5663484,11.8086525 11.9371326,11.4434861 11.9371326,10.9930027 L11.9371326,5.16184019 C11.9371326,5.09250995 11.9339034,5.02391379 11.9291837,4.95572546 L11.9291837,3.07279775 C11.9291837,2.30290584 12.5650977,1.67648674 13.3466592,1.67648674 C14.1282207,1.67648674 14.7641347,2.30282427 14.7641347,3.07279775 L14.7641347,4.95572546 C14.759415,5.02391379 14.7561858,5.09250995 14.7561858,5.16184019 L14.7561858,10.9930027 C14.7561858,11.4434861 15.12697,11.8086525 15.5841988,11.8086525 C15.5855236,11.8086525 15.5868485,11.8084894 15.5881733,11.8084894 C15.5894981,11.8084894 15.5908229,11.8086525 15.5921478,11.8086525 C16.0493765,11.8086525 16.4201608,11.4434861 16.4201608,10.9930027 L16.4201608,5.0155126 C16.494682,4.31413528 17.0982207,3.76561074 17.8296046,3.76561074 C18.6111661,3.76561074 19.2470801,4.39194828 19.2470801,5.16192175 L19.2392139,10.9930842 C19.2392139,11.4435676 19.6099982,11.8087341 20.067227,11.8087341 C20.0685518,11.8087341 20.0698766,11.808571 20.0712014,11.808571 C20.0725263,11.808571 20.0738511,11.8087341 20.0751759,11.8087341 C20.5324047,11.8087341 20.9031889,11.4435676 20.9031889,10.9930842 L20.9031889,7.32681963 C20.9777101,6.62544231 21.5813316,6.07691777 22.3127155,6.07691777 C23.094277,6.07691777 23.730191,6.70325531 23.730191,7.47322878 L23.730191,11.2832109 C23.730191,11.7336943 24.1009752,12.0988607 24.558204,12.0988607 C25.0154328,12.0988607 25.3862171,11.7336943 25.3862171,11.2832109 L25.3862171,7.47322878 C25.3862171,5.8038382 24.0074926,4.44561804 22.3127155,4.44561804 Z" id="Path" fill="#FDC448"></path>
                    </g>
                </g>
            </g>
        </g>
    </g>
</svg>