<?xml version="1.0" encoding="UTF-8"?>
<svg width="50px" height="50px" viewBox="0 0 50 50" version="1.1" xmlns="http://www.w3.org/2000/svg" xmlns:xlink="http://www.w3.org/1999/xlink">
    <!-- Generator: Sketch 52.6 (67491) - http://www.bohemiancoding.com/sketch -->
    <desc>Created with Sketch.</desc>
    <g id="Page-1" stroke="none" stroke-width="1" fill="none" fill-rule="evenodd">
        <g id="megaphone-(1)" fill="#93B83F" stroke="#92BA34">
            <g transform="translate(4.000000, 7.000000)">
                <path d="M42.3701172,15.9157183 L36.5034727,15.9157183 C36.1556094,15.9157183 35.8735898,16.1994085 35.8735898,16.5495211 C35.8735898,16.8995493 36.1555254,17.1833239 36.5034727,17.1833239 L42.3701172,17.1833239 C42.7179805,17.1833239 43,16.8995493 43,16.5495211 C43,16.1994085 42.7179805,15.9157183 42.3701172,15.9157183 Z" id="Path" stroke-width="0.3"></path>
                <path d="M41.3924551,0.211774648 C41.1464648,-0.0357464789 40.747623,-0.0357464789 40.5017168,0.211774648 L36.3533926,4.38591549 C36.1074023,4.63343662 36.1074023,5.03467606 36.3533926,5.28219718 C36.4763457,5.406 36.6375957,5.46794366 36.7987617,5.46794366 C36.9599277,5.46794366 37.1211777,5.40608451 37.2441309,5.28228169 L41.3924551,1.10805634 C41.6384453,0.860535211 41.6384453,0.459211268 41.3924551,0.211774648 Z" id="Path" stroke-width="0.3"></path>
                <path d="M41.3924551,31.9909014 L37.2441309,27.8166761 C36.9981406,27.5691549 36.5992988,27.5691549 36.3533926,27.8166761 C36.1074023,28.0641972 36.1074023,28.4655211 36.3533926,28.7130423 C36.3533926,28.7130423 40.5013809,32.8868451 40.5017168,32.8871831 C40.7411562,33.1280282 41.1478086,33.1333521 41.3924551,32.8871831 C41.6384453,32.639662 41.6384453,32.238338 41.3924551,31.9909014 Z" id="Path" stroke-width="0.3"></path>
                <path d="M31.4102402,1.33715493 C30.0049297,1.33715493 28.8456094,2.41715493 28.7088828,3.7956338 C27.793873,4.69504225 22.7591777,9.21388732 14.034377,9.21388732 C13.9337637,9.21388732 13.8339062,9.21388732 13.7349727,9.2148169 C13.7348887,9.2148169 13.7348047,9.2148169 13.7347207,9.2148169 C8.55918359,9.23239437 5.31730273,9.71983099 3.22306836,10.7953521 C1.02410547,11.9246197 0,13.7530141 0,16.5495211 C0,19.3459437 1.02410547,21.1744225 3.22298438,22.3036056 C3.71328516,22.5553521 4.26749805,22.7744789 4.89368555,22.9633521 C6.74915234,24.8143099 7.76973047,27.8753239 8.01118555,32.3152394 C8.12280078,34.3668169 9.80819922,35.9738873 11.8482637,35.9738873 L14.0799805,35.9738873 C15.2718867,35.9738873 16.2415703,34.998169 16.2415703,33.7987606 C16.2415703,32.5994366 15.2718867,31.6237183 14.0799805,31.6237183 C13.765459,31.6237183 13.5036797,31.3767887 13.4839434,31.061493 C13.4276738,30.1603944 13.3211816,28.9280282 13.1214668,27.635493 C13.5927031,27.5738873 14.2313203,27.4429859 14.8660742,27.1646197 C16.254168,26.5557465 17.0788105,25.5049859 17.2826406,24.1028451 C20.6975293,24.5661127 23.3340508,25.6883662 25.0846211,26.6664507 C27.073959,27.7779718 28.3010547,28.902 28.7088828,29.3034085 C28.8456094,30.6818873 30.0049297,31.7618028 31.4102402,31.7618028 C32.9072617,31.7618028 34.1252031,30.5362817 34.1252031,29.0299437 L34.1252031,4.06901408 C34.1252031,2.56267606 32.9072617,1.33715493 31.4102402,1.33715493 Z M14.0799805,32.8913239 C14.577252,32.8913239 14.9818047,33.2983944 14.9818047,33.7987606 C14.9818047,34.2991268 14.577252,34.7062817 14.0799805,34.7062817 L11.8482637,34.7062817 C10.4770508,34.7062817 9.34410156,33.6255211 9.26910352,32.2459437 C9.06023438,28.4058592 8.27926367,25.4959437 6.89259766,23.4210423 C8.01118555,23.6111831 9.30236133,23.7402254 10.7959395,23.8129014 C10.8046738,23.8133239 10.8129883,23.813831 10.8217227,23.814338 C11.2434922,24.7695211 11.9655898,26.9608732 12.2267812,31.1410141 C12.2880059,32.1224789 13.1020664,32.8913239 14.0799805,32.8913239 Z M14.3626719,26.0025634 C13.8278594,26.2371549 13.281457,26.3406761 12.899916,26.3863944 C12.8963887,26.3688169 12.8926094,26.352 12.888998,26.334507 C12.7343828,25.5789296 12.54525,24.8289296 12.2905254,24.1008169 C12.2848984,24.0848451 12.2178789,23.8636901 12.2048613,23.8633521 C12.6409922,23.8739155 13.0927441,23.880338 13.5602012,23.8828732 C14.3840879,23.8874366 15.2078066,23.8997746 16.0293418,23.9667887 C15.8771621,24.9102254 15.3279883,25.5791831 14.3626719,26.0025634 Z M28.6952773,27.594 C28.0211348,27.0368451 27.0374258,26.3122817 25.7477617,25.5871268 C22.2866816,23.6409296 18.3213594,22.6705352 14.3667031,22.6195775 L14.3667031,15.5606197 C14.3667031,15.2105915 14.0846836,14.9268169 13.7368203,14.9268169 C13.388957,14.9268169 13.1069375,15.2105915 13.1069375,15.5606197 L13.1069375,22.6092676 C12.4191055,22.5976056 11.615543,22.5757183 11.3747598,22.5687042 C7.7953457,22.428 5.35677539,21.9763099 3.79567383,21.1746761 C2.01814453,20.261662 1.25976562,18.8784507 1.25976562,16.5495211 C1.25976562,14.220507 2.01814453,12.8372958 3.79567383,11.9244507 C5.59671875,10.9995211 8.56481055,10.5401408 13.1069375,10.4872394 C13.1069375,10.4872394 13.1069375,13.0217746 13.1069375,13.0254085 C13.1069375,13.3649577 13.399959,13.6592113 13.7368203,13.6592113 C14.0748574,13.6592113 14.3667031,13.3647887 14.3667031,13.0254085 L14.3667031,10.4795493 C19.5169609,10.4141408 23.3888926,8.83842254 25.7477617,7.512 C27.0374258,6.78684507 28.0211348,6.06228169 28.6952773,5.50512676 L28.6952773,27.594 Z M32.8653535,29.0298592 C32.8653535,29.8372394 32.212543,30.4941127 31.4101562,30.4941127 C30.6077695,30.4941127 29.954959,29.8372394 29.954959,29.0298592 L29.954959,29.0295211 C29.954959,29.0292676 29.954959,29.0290141 29.954959,29.0287606 L29.954959,4.07019718 C29.954959,4.06994366 29.954959,4.06969014 29.954959,4.06943662 L29.954959,4.06901408 C29.954959,3.2616338 30.6077695,2.60476056 31.4101562,2.60476056 C32.212543,2.60476056 32.8653535,3.2616338 32.8653535,4.06901408 L32.8653535,29.0298592 Z" id="Shape" stroke-width="0.3" fill-rule="nonzero"></path>
            </g>
        </g>
    </g>
</svg>