<?xml version="1.0" encoding="UTF-8"?>
<svg width="16.8406707px" height="29.5520588px" viewBox="0 0 16.8406707 29.5520588" version="1.1" xmlns="http://www.w3.org/2000/svg" xmlns:xlink="http://www.w3.org/1999/xlink">
    <!-- Generator: Sketch 52.6 (67491) - http://www.bohemiancoding.com/sketch -->
    <desc>Created with Sketch.</desc>
    <g id="Page-1" stroke="none" stroke-width="1" fill="none" fill-rule="evenodd">
        <g id="Group-12" fill="#403669">
            <g id="Group-9">
                <path d="M8.41980702,29.5520588 C7.89817263,29.5520588 7.398273,29.3339007 7.02878197,28.9435124 L0.575971311,22.1257523 C-0.191990437,21.3130814 -0.191990437,19.9977538 0.575971311,19.185083 C1.34393306,18.3724121 2.59005967,18.3724121 3.3592289,19.185083 L8.41980702,24.5331463 L13.4815926,19.185083 C14.2507619,18.3724121 15.495681,18.3724121 16.2636427,19.185083 C17.032812,19.9977538 17.032812,21.3130814 16.2648502,22.1257523 L9.81203956,28.9435124 C9.44254853,29.3339007 8.94264891,29.5520588 8.41980702,29.5520588" id="Fill-244"></path>
                <path d="M8.41973161,10.976479 C7.91621403,10.976479 7.41269645,10.774865 7.02992649,10.3690849 L0.575966152,3.54993775 C-0.191988717,2.73710153 -0.191988717,1.42150634 0.575966152,0.608670131 C1.3451285,-0.202890044 2.59003647,-0.202890044 3.35799134,0.608670131 L8.41973161,5.95782147 L13.4814719,0.608670131 C14.2506342,-0.202890044 15.4955422,-0.202890044 16.2647045,0.608670131 C17.0326594,1.42150634 17.0326594,2.73710153 16.2647045,3.54993775 L9.81195168,10.3690849 C9.42676676,10.774865 8.92324919,10.976479 8.41973161,10.976479" id="Fill-245"></path>
            </g>
        </g>
    </g>
</svg>