<?xml version="1.0" encoding="UTF-8"?>
<svg width="20px" height="26px" viewBox="0 0 20 26" version="1.1" xmlns="http://www.w3.org/2000/svg" xmlns:xlink="http://www.w3.org/1999/xlink">
    <!-- Generator: Sketch 52.6 (67491) - http://www.bohemiancoding.com/sketch -->
    <desc>Created with Sketch.</desc>
    <g id="Page-1" stroke="none" stroke-width="1" fill="none" fill-rule="evenodd">
        <g id="Group-6-Copy-7" fill="#13C6B9" fill-rule="nonzero">
            <path d="M10.5004603,10 C9.67198527,10 9,9.31703204 9,8.47386172 L9,1.52520142 C9,0.68296796 9.67198527,0 10.5004603,0 C11.3289353,0 12,0.68296796 12,1.52520142 L12,8.47386172 C12,9.31703204 11.3289353,10 10.5004603,10" id="Fill-265-Copy"></path>
            <path d="M10.5004603,26 C9.67198527,26 9,25.317096 9,24.4740047 L9,17.5259953 C9,16.6838407 9.67198527,16 10.5004603,16 C11.3289353,16 12,16.6838407 12,17.5259953 L12,24.4740047 C12,25.317096 11.3289353,26 10.5004603,26" id="Fill-266-Copy"></path>
            <path d="M18.7785688,15 L13.2206819,15 C12.546272,15 12,14.3278085 12,13.5 C12,12.6712707 12.546272,12 13.2206819,12 L18.7785688,12 C19.4529786,12 20,12.6712707 20,13.5 C20,14.3278085 19.4529786,15 18.7785688,15" id="Fill-267-Copy"></path>
            <path d="M6.77856875,15 L1.22143125,15 C0.547021356,15 0,14.3278085 0,13.5 C0,12.6712707 0.547021356,12 1.22143125,12 L6.77856875,12 C7.45297864,12 8,12.6712707 8,13.5 C8,14.3278085 7.45297864,15 6.77856875,15" id="Fill-268-Copy"></path>
        </g>
    </g>
</svg>