<?xml version="1.0" encoding="UTF-8"?>
<svg width="354px" height="534px" viewBox="0 0 354 534" version="1.1" xmlns="http://www.w3.org/2000/svg" xmlns:xlink="http://www.w3.org/1999/xlink">
    <!-- Generator: Sketch 52.6 (67491) - http://www.bohemiancoding.com/sketch -->
    <desc>Created with Sketch.</desc>
    <defs>
        <linearGradient x1="50%" y1="85.3022013%" x2="44.6400934%" y2="5.21199315%" id="linearGradient-1">
            <stop stop-color="#FFFFFF" offset="0%"></stop>
            <stop stop-color="#F7C3F3" offset="100%"></stop>
        </linearGradient>
        <linearGradient x1="-38.530882%" y1="-10.8426575%" x2="87.2742415%" y2="83.8626528%" id="linearGradient-2">
            <stop stop-color="#FF9E7B" offset="0%"></stop>
            <stop stop-color="#E74CBA" offset="100%"></stop>
        </linearGradient>
        <path d="M102.559515,7.10542736e-14 C117.489897,7.10542736e-14 129.631151,12.1526452 129.631151,27.1001933 C129.631151,42.0448077 117.48892,54.1974529 102.559515,54.1974529 C87.6271794,54.1974529 75.4878792,42.0448077 75.4878792,27.1001933 C75.4878792,12.1536231 87.6271794,7.10542736e-14 102.559515,7.10542736e-14 M102.559515,8.40817921 C92.2666078,8.40817921 83.8875012,16.7968 83.8875012,27.1001933 C83.8875012,37.4016308 92.2666078,45.7892737 102.559515,45.7892737 C112.850469,45.7892737 121.231529,37.4006529 121.231529,27.1001933 C121.231529,16.7968 112.850469,8.40817921 102.559515,8.40817921" id="path-3"></path>
        <filter x="-19.4%" y="-13.8%" width="138.8%" height="138.7%" filterUnits="objectBoundingBox" id="filter-4">
            <feOffset dx="0" dy="3" in="SourceAlpha" result="shadowOffsetOuter1"></feOffset>
            <feGaussianBlur stdDeviation="3" in="shadowOffsetOuter1" result="shadowBlurOuter1"></feGaussianBlur>
            <feColorMatrix values="0 0 0 0 0   0 0 0 0 0   0 0 0 0 0  0 0 0 0.2 0" type="matrix" in="shadowBlurOuter1"></feColorMatrix>
        </filter>
        <linearGradient x1="10.9906944%" y1="17.7734393%" x2="82.0081345%" y2="90.9801566%" id="linearGradient-5">
            <stop stop-color="#13C6B9" offset="0%"></stop>
            <stop stop-color="#26B1C9" offset="100%"></stop>
        </linearGradient>
        <path d="M36.0426594,8.40783941 C25.7517058,8.40783941 17.3706454,16.7961212 17.3706454,27.0990981 C17.3706454,37.3991415 25.7507289,45.7874232 36.0426594,45.7874232 C46.3355668,45.7874232 54.7146734,37.4001194 54.7146734,27.0990981 C54.7146734,16.7951433 46.3355668,8.40783941 36.0426594,8.40783941 M36.0426594,4.97379915e-14 C50.9749952,4.97379915e-14 63.1133185,12.1531319 63.1133185,27.0990981 C63.1133185,42.0431086 50.9740182,54.1952626 36.0426594,54.1952626 C21.1132544,54.1952626 8.97102332,42.0440865 8.97102332,27.0990981 C8.97102332,12.1531319 21.1122774,4.97379915e-14 36.0426594,4.97379915e-14" id="path-6"></path>
        <filter x="-19.4%" y="-13.8%" width="138.8%" height="138.7%" filterUnits="objectBoundingBox" id="filter-7">
            <feOffset dx="0" dy="3" in="SourceAlpha" result="shadowOffsetOuter1"></feOffset>
            <feGaussianBlur stdDeviation="3" in="shadowOffsetOuter1" result="shadowBlurOuter1"></feGaussianBlur>
            <feColorMatrix values="0 0 0 0 0   0 0 0 0 0   0 0 0 0 0  0 0 0 0.099439538 0" type="matrix" in="shadowBlurOuter1"></feColorMatrix>
        </filter>
        <linearGradient x1="6.75737902%" y1="16.9313873%" x2="88.3098273%" y2="77.3114225%" id="linearGradient-8">
            <stop stop-color="#FFE06B" offset="0%"></stop>
            <stop stop-color="#FEC548" offset="100%"></stop>
        </linearGradient>
        <path d="M129.794138,31.1856125 C124.194389,31.1856125 124.194389,22.7784809 129.794138,22.7784809 L134.356389,22.7784809 C139.956137,22.7784809 139.956137,31.1856125 134.356389,31.1856125 L129.794138,31.1856125 Z" id="path-9"></path>
        <filter x="-81.0%" y="-89.2%" width="262.0%" height="349.8%" filterUnits="objectBoundingBox" id="filter-10">
            <feOffset dx="0" dy="3" in="SourceAlpha" result="shadowOffsetOuter1"></feOffset>
            <feGaussianBlur stdDeviation="3" in="shadowOffsetOuter1" result="shadowBlurOuter1"></feGaussianBlur>
            <feColorMatrix values="0 0 0 0 0   0 0 0 0 0   0 0 0 0 0  0 0 0 0.2 0" type="matrix" in="shadowBlurOuter1"></feColorMatrix>
        </filter>
        <linearGradient x1="15.5610712%" y1="35.4420638%" x2="69.9864575%" y2="100%" id="linearGradient-11">
            <stop stop-color="#73DD73" offset="0%"></stop>
            <stop stop-color="#B6ED32" offset="100%"></stop>
        </linearGradient>
        <path d="M74.9611165,23.8806073 C74.9611165,23.8806073 74.4277142,23.5070874 73.527964,23.1130336 C72.4660439,22.6485782 71.0045604,22.2056345 69.3203376,22.2056345 C67.5071602,22.2056345 65.1986807,22.8177378 63.6805355,23.8806073 C59.2062079,27.250109 54.155493,20.5326172 58.6298207,17.1631155 C58.6298207,17.1631155 59.7689181,16.277228 61.7471961,15.4108964 C63.5633042,14.6159444 66.1844005,13.7985029 69.3203376,13.7985029 C72.7376297,13.7985029 77.244196,15.0099981 80.0118314,17.1631155 C84.4851821,20.5326172 79.4354442,27.250109 74.9611165,23.8806073" id="path-12"></path>
        <filter x="-42.2%" y="-68.2%" width="184.5%" height="290.9%" filterUnits="objectBoundingBox" id="filter-13">
            <feOffset dx="0" dy="3" in="SourceAlpha" result="shadowOffsetOuter1"></feOffset>
            <feGaussianBlur stdDeviation="3" in="shadowOffsetOuter1" result="shadowBlurOuter1"></feGaussianBlur>
            <feColorMatrix values="0 0 0 0 0   0 0 0 0 0   0 0 0 0 0  0 0 0 0.2 0" type="matrix" in="shadowBlurOuter1"></feColorMatrix>
        </filter>
        <linearGradient x1="-39.7238229%" y1="-48.1591926%" x2="86.4850786%" y2="100%" id="linearGradient-14">
            <stop stop-color="#FAC35B" offset="0%"></stop>
            <stop stop-color="#F2692E" offset="100%"></stop>
        </linearGradient>
        <path d="M8.76206213,31.1856125 L4.19981103,31.1856125 C-1.39993701,31.1856125 -1.39993701,22.7784809 4.19981103,22.7784809 L8.76206213,22.7784809 C14.3618102,22.7784809 14.3618102,31.1856125 8.76206213,31.1856125" id="path-15"></path>
        <filter x="-81.0%" y="-89.2%" width="262.0%" height="349.8%" filterUnits="objectBoundingBox" id="filter-16">
            <feOffset dx="0" dy="3" in="SourceAlpha" result="shadowOffsetOuter1"></feOffset>
            <feGaussianBlur stdDeviation="3" in="shadowOffsetOuter1" result="shadowBlurOuter1"></feGaussianBlur>
            <feColorMatrix values="0 0 0 0 0   0 0 0 0 0   0 0 0 0 0  0 0 0 0.198596014 0" type="matrix" in="shadowBlurOuter1"></feColorMatrix>
        </filter>
    </defs>
    <g id="Page-1" stroke="none" stroke-width="1" fill="none" fill-rule="evenodd">
        <g id="llama-goggles">
            <path d="M-5.1159077e-13,503.646116 C35.0838702,464.72143 88.7813488,438.35106 161.092436,424.535005 C233.403522,410.718949 297.494476,417.010557 353.365295,443.409827 C310.734832,486.343181 257.452563,514.228962 193.518489,527.067168 C129.584415,539.905375 65.078252,532.098358 -5.1159077e-13,503.646116 Z" id="Path-9" fill="url(#linearGradient-1)" fill-rule="nonzero"></path>
            <g id="llama" transform="translate(26.991202, 0.000000)">
                <path d="M305.841009,226.896505 C308.199212,229.57964 309.628962,233.097066 309.628962,236.948052 C309.628962,245.366127 302.797055,252.190324 294.36947,252.190324 C288.628752,252.190324 283.628442,249.023836 281.023579,244.344031 C280.486043,244.401267 279.940165,244.430622 279.387424,244.430622 C270.959839,244.430622 264.127932,237.606424 264.127932,229.18835 C264.127932,220.770275 270.959839,213.946077 279.387424,213.946077 C280.635782,213.946077 281.849129,214.095813 283.010444,214.378283 C282.999663,214.143187 282.994213,213.906702 282.994213,213.668945 C282.994213,205.250871 289.82612,198.426673 298.253705,198.426673 C306.681289,198.426673 313.513196,205.250871 313.513196,213.668945 C313.513196,219.328219 310.425477,224.267132 305.841009,226.896505 Z" id="Combined-Shape" fill="#E4ECEF" fill-rule="nonzero"></path>
                <rect id="Rectangle-Copy-2" fill="#81A2AF" fill-rule="nonzero" x="74.9102328" y="374.128503" width="13.8722653" height="80.9226096"></rect>
                <rect id="Rectangle-Copy-4" fill="#81A2AF" fill-rule="nonzero" x="223.620917" y="374.128503" width="13.8722653" height="80.9226096"></rect>
                <path d="M67.8322744,383.77222 C66.8042348,383.990444 65.7379195,384.105263 64.6447564,384.105263 C56.2171718,384.105263 49.3852646,377.281065 49.3852646,368.862991 C49.3852646,366.925046 49.7473402,365.071573 50.4076055,363.366385 C47.068934,360.570363 44.9461397,356.373201 44.9461397,351.680793 C44.9461397,349.464351 45.4197588,347.358404 46.2714208,345.45842 C43.40135,342.686978 41.616796,338.800954 41.616796,334.498595 C41.616796,330.413749 43.2254694,326.704204 45.8445319,323.96757 C43.2254694,321.230937 41.616796,317.521392 41.616796,313.436546 C41.616796,305.018471 48.4487032,298.194274 56.8762879,298.194274 C57.9001639,298.194274 58.9004877,298.294999 59.8678694,298.487071 C66.1164965,289.731302 74.6533041,284.337662 84.0659279,284.337662 C94.0500995,284.337662 103.048864,290.406208 109.376637,300.118794 C111.574886,298.892887 114.108003,298.194274 116.804474,298.194274 C125.232059,298.194274 132.063966,305.018471 132.063966,313.436546 C132.063966,319.382761 128.655197,324.533713 123.683108,327.046036 C126.132791,329.750026 127.624841,333.335925 127.624841,337.269917 C127.624841,342.496089 124.991641,347.107939 120.978184,349.853936 C121.332061,351.141776 121.521044,352.497768 121.521044,353.897851 C121.521044,360.055546 117.865494,365.360405 112.603832,367.765302 C112.62966,368.12784 112.642794,368.493883 112.642794,368.862991 C112.642794,377.281065 105.810887,384.105263 97.3833026,384.105263 C96.8318931,384.105263 96.2873146,384.076049 95.7510338,384.019086 C93.3536686,389.300167 88.0294774,392.973494 81.8463655,392.973494 C75.5673595,392.973494 70.1741229,389.185345 67.8322744,383.77222 Z" id="Combined-Shape-Copy-19" fill="#CDD5D9" fill-rule="nonzero"></path>
                <path d="M216.542959,383.77222 C215.514919,383.990444 214.448604,384.105263 213.355441,384.105263 C204.927856,384.105263 198.095949,377.281065 198.095949,368.862991 C198.095949,366.925046 198.458025,365.071573 199.11829,363.366385 C195.779618,360.570363 193.656824,356.373201 193.656824,351.680793 C193.656824,349.464351 194.130443,347.358404 194.982105,345.45842 C192.112034,342.686978 190.32748,338.800954 190.32748,334.498595 C190.32748,330.413749 191.936154,326.704204 194.555216,323.96757 C191.936154,321.230937 190.32748,317.521392 190.32748,313.436546 C190.32748,305.018471 197.159388,298.194274 205.586972,298.194274 C206.610848,298.194274 207.611172,298.294999 208.578554,298.487071 C214.827181,289.731302 223.363988,284.337662 232.776612,284.337662 C242.760784,284.337662 251.759549,290.406208 258.087321,300.118794 C260.285571,298.892887 262.818687,298.194274 265.515158,298.194274 C273.942743,298.194274 280.77465,305.018471 280.77465,313.436546 C280.77465,319.382761 277.365881,324.533713 272.393792,327.046036 C274.843475,329.750026 276.335525,333.335925 276.335525,337.269917 C276.335525,342.496089 273.702325,347.107939 269.688869,349.853936 C270.042745,351.141776 270.231729,352.497768 270.231729,353.897851 C270.231729,360.055546 266.576178,365.360405 261.314516,367.765302 C261.340344,368.12784 261.353479,368.493883 261.353479,368.862991 C261.353479,377.281065 254.521572,384.105263 246.093987,384.105263 C245.542577,384.105263 244.997999,384.076049 244.461718,384.019086 C242.064353,389.300167 236.740162,392.973494 230.55705,392.973494 C224.278044,392.973494 218.884807,389.185345 216.542959,383.77222 Z" id="Combined-Shape-Copy-21" fill="#CDD5D9" fill-rule="nonzero"></path>
                <path d="M88.7824981,442.856631 L88.7824981,469.404716 L46.0559209,469.404716 C52.4302153,457.137482 58.3320221,449.317116 63.7613414,445.943618 C69.1906607,442.57012 77.5310463,441.541124 88.7824981,442.856631 Z" id="Rectangle-Copy-3" fill="#81A2AF" fill-rule="nonzero"></path>
                <path d="M237.493182,442.856631 L237.493182,469.404716 L194.766605,469.404716 C201.1409,457.137482 207.042706,449.317116 212.472026,445.943618 C217.901345,442.57012 226.241731,441.541124 237.493182,442.856631 Z" id="Rectangle-Copy-5" fill="#81A2AF" fill-rule="nonzero"></path>
                <path d="M68.8132886,469.363717 L45.5010303,469.363717 C51.8753247,457.32144 57.7771315,449.644484 63.2064508,446.332849 C63.2892851,446.282324 63.3727969,446.232335 63.4569864,446.182881 C68.0433845,449.456558 71.0259985,454.771939 71.0259985,460.772618 C71.0259985,463.883495 70.2243907,466.810191 68.8132886,469.363717 Z" id="Combined-Shape-Copy-20" fill="#4A4A4A" fill-rule="nonzero"></path>
                <path d="M217.523973,469.363717 L194.211715,469.363717 C200.586009,457.32144 206.487816,449.644484 211.917135,446.332849 C211.999969,446.282324 212.083481,446.232335 212.167671,446.182881 C216.754069,449.456558 219.736683,454.771939 219.736683,460.772618 C219.736683,463.883495 218.935075,466.810191 217.523973,469.363717 Z" id="Combined-Shape-Copy-22" fill="#4A4A4A" fill-rule="nonzero"></path>
                <g id="Group" transform="translate(82.123811, 0.000000)" fill-rule="nonzero">
                    <path d="M0.568290874,45.9568702 C7.4238524,39.9625416 11.9026877,34.3907133 14.023003,29.2839908 C16.1829424,24.0818347 18.1111378,14.7824086 19.767591,1.45940632 C19.959835,-0.0868295483 21.9844639,-0.543428865 22.8231542,0.770308149 C33.9970772,18.2733082 39.3739636,31.4620259 38.8862124,40.5194637 C38.3962504,49.6179546 31.6561846,61.0740202 18.7437276,75.0478549 C17.9879891,75.8657136 16.6568431,75.7254584 16.0885721,74.7680966 L0.232838426,48.0560573 C-0.176189264,47.3669713 -0.0351731686,46.4845238 0.568290874,45.9568702 Z" id="Path" fill="#E4ECEF"></path>
                    <path d="M34.8414232,22.7248424 C37.819237,29.8002218 39.1848027,35.7063238 38.9282869,40.4697682 C38.4383249,49.5682591 31.6982591,61.0243247 18.7858022,74.9981594 C18.0300637,75.8160181 16.6989176,75.6757629 16.1306467,74.7184011 L8.16425466,61.2974783 C15.9625071,58.267048 21.4642102,54.4246917 24.6693639,49.7704092 C27.8530697,45.1472716 31.2437561,36.1320827 34.8414232,22.7248424 Z" id="Combined-Shape" fill="#81A2AF"></path>
                </g>
                <g id="Group-Copy" transform="translate(37.098843, 38.000000) scale(-1, 1) translate(-37.098843, -38.000000) translate(17.598843, 0.000000)" fill-rule="nonzero">
                    <path d="M0.568290874,45.9568702 C7.4238524,39.9625416 11.9026877,34.3907133 14.023003,29.2839908 C16.1829424,24.0818347 18.1111378,14.7824086 19.767591,1.45940632 C19.959835,-0.0868295483 21.9844639,-0.543428865 22.8231542,0.770308149 C33.9970772,18.2733082 39.3739636,31.4620259 38.8862124,40.5194637 C38.3962504,49.6179546 31.6561846,61.0740202 18.7437276,75.0478549 C17.9879891,75.8657136 16.6568431,75.7254584 16.0885721,74.7680966 L0.232838426,48.0560573 C-0.176189264,47.3669713 -0.0351731686,46.4845238 0.568290874,45.9568702 Z" id="Path" fill="#E4ECEF"></path>
                    <path d="M34.8414232,22.7248424 C37.819237,29.8002218 39.1848027,35.7063238 38.9282869,40.4697682 C38.4383249,49.5682591 31.6982591,61.0243247 18.7858022,74.9981594 C18.0300637,75.8160181 16.6989176,75.6757629 16.1306467,74.7184011 L8.16425466,61.2974783 C15.9625071,58.267048 21.4642102,54.4246917 24.6693639,49.7704092 C27.8530697,45.1472716 31.2437561,36.1320827 34.8414232,22.7248424 Z" id="Combined-Shape" fill="#81A2AF"></path>
                </g>
                <path d="M108.98039,99.6380584 C113.495592,102.285131 116.527029,107.185358 116.527029,112.792815 C116.527029,117.947912 113.964964,122.505282 110.043352,125.263765 C113.964964,128.022249 116.527029,132.579619 116.527029,137.734716 C116.527029,142.558247 114.283939,146.858469 110.782848,149.651401 C114.283939,152.444334 116.527029,156.744555 116.527029,161.568087 C116.527029,166.554136 114.130241,170.981017 110.42472,173.761905 C114.130241,176.542793 116.527029,180.969674 116.527029,185.955723 C116.527029,190.622446 114.42741,194.79933 111.120278,197.595276 C114.42741,200.391222 116.527029,204.568106 116.527029,209.234829 C116.527029,210.891711 116.262362,212.486846 115.772955,213.980353 C116.113852,213.957624 116.457813,213.946077 116.804474,213.946077 C121.324531,213.946077 125.385573,215.909136 128.179732,219.028295 C130.97389,215.909136 135.034932,213.946077 139.554989,213.946077 C144.38397,213.946077 148.68905,216.186636 151.485137,219.683776 C154.281225,216.186636 158.586304,213.946077 163.415286,213.946077 C167.935343,213.946077 171.996385,215.909136 174.790543,219.028295 C177.584701,215.909136 181.645744,213.946077 186.165801,213.946077 C190.685858,213.946077 194.7469,215.909136 197.541058,219.028295 C200.335217,215.909136 204.396259,213.946077 208.916316,213.946077 C213.436373,213.946077 217.497415,215.909136 220.291573,219.028295 C223.085732,215.909136 227.146774,213.946077 231.666831,213.946077 C236.495812,213.946077 240.800892,216.186636 243.596979,219.683776 C246.393067,216.186636 250.698146,213.946077 255.527127,213.946077 C260.047184,213.946077 264.108227,215.909136 266.902385,219.028295 C269.696543,215.909136 273.757585,213.946077 278.277643,213.946077 C286.705227,213.946077 293.537134,220.770275 293.537134,229.18835 C293.537134,235.045262 290.229984,240.13062 285.379229,242.682868 C291.982371,244.360068 296.866478,250.338224 296.866478,257.455837 C296.866478,262.610933 294.304414,267.168303 290.382801,269.926787 C294.304414,272.685271 296.866478,277.24264 296.866478,282.397737 C296.866478,286.482583 295.257805,290.192128 292.638742,292.928761 C295.257805,295.665395 296.866478,299.374939 296.866478,303.459786 C296.866478,309.404609 293.459305,314.554541 288.489111,317.067511 C289.930641,319.394726 290.762681,322.138356 290.762681,325.076099 C290.762681,331.688044 286.547902,337.316684 280.655622,339.427608 C281.093707,340.848051 281.329541,342.357061 281.329541,343.921091 C281.329541,352.339165 274.497634,359.163363 266.070049,359.163363 C261.980588,359.163363 258.266853,357.556505 255.527127,354.940398 C252.787402,357.556505 249.073667,359.163363 244.984206,359.163363 C240.611589,359.163363 236.66853,357.326283 233.886393,354.382661 C231.104256,357.326283 227.161198,359.163363 222.788581,359.163363 C218.69912,359.163363 214.985385,357.556505 212.24566,354.940398 C209.505934,357.556505 205.792199,359.163363 201.702738,359.163363 C197.613277,359.163363 193.899542,357.556505 191.159816,354.940398 C188.420091,357.556505 184.706356,359.163363 180.616895,359.163363 C176.527434,359.163363 172.813698,357.556505 170.073973,354.940398 C167.334248,357.556505 163.620512,359.163363 159.531051,359.163363 C154.370131,359.163363 149.807613,356.60419 147.046013,352.687002 C144.284412,356.60419 139.721894,359.163363 134.560974,359.163363 C130.471513,359.163363 126.757777,357.556505 124.018052,354.940398 C121.278327,357.556505 117.564592,359.163363 113.47513,359.163363 C105.737535,359.163363 99.3450286,353.410853 98.3501507,345.953801 C97.1530282,346.255189 95.8996557,346.415281 94.6088496,346.415281 C87.6791468,346.415281 81.8283115,341.801313 79.9674168,335.481165 C78.3068682,336.100153 76.5093875,336.438521 74.6327875,336.438521 C66.2052028,336.438521 59.3732956,329.614323 59.3732956,321.196248 C59.3732956,319.52132 59.6437593,317.90949 60.143442,316.401957 C59.6167862,316.456858 59.0821632,316.485 58.5409597,316.485 C50.1133751,316.485 43.2814678,309.660803 43.2814678,301.242728 C43.2814678,298.741025 43.8848435,296.38009 44.9541631,294.297197 C38.5452211,292.490368 33.8483274,286.606282 33.8483274,279.626415 C33.8483274,276.419911 34.8395698,273.444663 36.53267,270.989729 C31.6408489,268.450659 28.2994213,263.343023 28.2994213,257.455837 C28.2994213,252.789113 30.3990404,248.612229 33.7061724,245.816283 C30.3990404,243.020337 28.2994213,238.843453 28.2994213,234.17673 C28.2994213,229.021633 30.8614856,224.464263 34.7830985,221.70578 C30.8614856,218.947296 28.2994213,214.389926 28.2994213,209.234829 C28.2994213,204.568106 30.3990404,200.391222 33.7061724,197.595276 C30.3990404,194.79933 28.2994213,190.622446 28.2994213,185.955723 C28.2994213,180.969674 30.6962086,176.542793 34.4017304,173.761905 C30.6962086,170.981017 28.2994213,166.554136 28.2994213,161.568087 C28.2994213,156.744555 30.5425114,152.444334 34.0436019,149.651401 C30.5425114,146.858469 28.2994213,142.558247 28.2994213,137.734716 C28.2994213,132.579619 30.8614856,128.022249 34.7830985,125.263765 C30.8614856,122.505282 28.2994213,117.947912 28.2994213,112.792815 C28.2994213,109.19391 29.5481187,105.886325 31.636355,103.278756 C29.88375,100.797318 28.8543119,97.7697865 28.8543119,94.5020886 C28.8543119,90.8172576 30.1633478,87.4378234 32.3422492,84.8024607 C30.1633478,82.167098 28.8543119,78.7876638 28.8543119,75.1028328 C28.8543119,67.3416779 34.6615433,60.9353439 42.1724587,59.9827477 C42.2556782,51.636039 49.0553611,44.8954204 57.4311785,44.8954204 C61.803795,44.8954204 65.7468537,46.7325007 68.5289907,49.6761228 C71.3111277,46.7325007 75.2541865,44.8954204 79.626803,44.8954204 C87.9625235,44.8954204 94.7371641,51.5716559 94.8838664,59.8629862 C103.184564,60.009523 109.868341,66.7765187 109.868341,75.1028328 C109.868341,78.7876638 108.559306,82.167098 106.380404,84.8024607 C108.559306,87.4378234 109.868341,90.8172576 109.868341,94.5020886 C109.868341,96.304232 109.555233,98.0333275 108.98039,99.6380584 Z" id="Combined-Shape" fill="#E4ECEF" fill-rule="nonzero"></path>
                <path d="M106.430383,88.0732306 C107.742695,87.7367993 108.787035,87.3873828 109.563403,87.0249811 C110.616717,86.5333036 111.960073,85.6077086 113.593471,84.2481962 C113.173314,86.1689462 112.667156,87.5623168 112.074998,88.4283082 C111.562054,89.178454 110.727256,89.9091986 109.570604,90.6205422 C109.762666,91.0987225 109.868341,91.6208235 109.868341,92.1675785 C109.868341,94.463417 108.005094,96.3245618 105.706662,96.3245618 C103.40823,96.3245618 101.544982,94.463417 101.544982,92.1675785 C101.544982,89.8717399 103.40823,88.0105951 105.706662,88.0105951 C105.953511,88.0105951 106.195341,88.0320626 106.430383,88.0732306 Z" id="Combined-Shape-Copy-15" fill="#000000" fill-rule="nonzero"></path>
                <path d="M29.855478,88.0732306 C31.1677901,87.7367993 32.2121303,87.3873828 32.9884986,87.0249811 C34.0418127,86.5333036 35.3851687,85.6077086 37.0185665,84.2481962 C36.5984093,86.1689462 36.0922516,87.5623168 35.5000934,88.4283082 C34.9871495,89.178454 34.1523516,89.9091986 32.9956997,90.6205422 C33.1877615,91.0987225 33.2934368,91.6208235 33.2934368,92.1675785 C33.2934368,94.463417 31.4301894,96.3245618 29.1317572,96.3245618 C26.833325,96.3245618 24.9700776,94.463417 24.9700776,92.1675785 C24.9700776,89.8717399 26.833325,88.0105951 29.1317572,88.0105951 C29.3786068,88.0105951 29.6204368,88.0320626 29.855478,88.0732306 Z" id="Combined-Shape-Copy-16" fill="#000000" fill-rule="nonzero" transform="translate(30.994322, 90.286379) scale(-1, 1) translate(-30.994322, -90.286379) "></path>
                <ellipse id="Oval" fill="#E0CBE1" fill-rule="nonzero" cx="69.0838813" cy="105.587378" rx="12.4850388" ry="16.9050657"></ellipse>
                <path d="M69.9825739,104.998755 C69.8918636,107.232329 69.8946409,108.831263 69.987917,109.775871 C70.0995624,110.906503 70.1132105,110.925128 70.7551061,111.085156 C71.5065002,111.272481 71.9938165,110.959821 72.1420064,109.756013 C72.1981078,109.300278 72.6134509,108.976259 73.0697011,109.032297 C73.5259513,109.088335 73.850336,109.50321 73.7942345,109.958945 C73.520976,112.178738 72.0508214,113.121983 70.3519939,112.698459 C69.5965188,112.510116 69.1158313,112.236199 68.8064812,111.73524 C68.4971311,112.236199 68.0164436,112.510116 67.2609685,112.698459 C65.5621411,113.121983 64.0919865,112.178738 63.8187279,109.958945 C63.7626265,109.50321 64.0870111,109.088335 64.5432613,109.032297 C64.9995115,108.976259 65.4148546,109.300278 65.470956,109.756013 C65.6191459,110.959821 66.1064622,111.272481 66.8578564,111.085156 C67.4997519,110.925128 67.5134001,110.906503 67.6250454,109.775871 C67.7183219,108.83126 67.7210989,107.232318 67.6303876,104.998732 C66.7617357,104.7526 65.7246609,104.261109 64.496421,103.530514 C64.1014617,103.29558 63.9719508,102.785311 64.2071502,102.390798 C64.4423497,101.996284 64.9531943,101.866919 65.3481536,102.101853 C66.949736,103.054524 68.1280291,103.520338 68.8065216,103.520338 C69.485014,103.520338 70.6633072,103.054524 72.2648896,102.101853 C72.6598489,101.866919 73.1706935,101.996284 73.4058929,102.390798 C73.6410924,102.785311 73.5115814,103.29558 73.1166221,103.530514 C71.8883438,104.261132 70.8512425,104.752631 69.9825739,104.998755 Z" id="Combined-Shape" fill="#4A4A4A" fill-rule="nonzero"></path>
                <path d="M50.3695639,46.5582137 C45.442307,49.085638 42.0712064,54.2124329 42.0712064,60.1257021 M41.7937611,60.4028344 C35.955977,60.4028344 31.0210725,64.7227072 29.4092025,70.6579497" id="Combined-Shape" stroke="#FFFFFF" stroke-width="1.66112591" stroke-linecap="round" fill-rule="nonzero"></path>
                <path d="M107.523297,46.5582137 C102.59604,49.085638 99.2249395,54.2124329 99.2249395,60.1257021 M98.9474942,60.4028344 C93.1097102,60.4028344 88.1748057,64.7227072 86.5629357,70.6579497" id="Combined-Shape-Copy-18" stroke="#FFFFFF" stroke-width="1.66112591" stroke-linecap="round" fill-rule="nonzero" transform="translate(97.043116, 58.608082) scale(-1, 1) translate(-97.043116, -58.608082) "></path>
                <g id="goggles-gradient-colour-copy" transform="translate(0.000000, 61.523354)">
                    <g id="Right-Lens">
                        <use fill="black" fill-opacity="1" filter="url(#filter-4)" xlink:href="#path-3"></use>
                        <use fill="url(#linearGradient-2)" fill-rule="evenodd" xlink:href="#path-3"></use>
                    </g>
                    <g id="Left-Lens" fill-rule="nonzero">
                        <use fill="black" fill-opacity="1" filter="url(#filter-7)" xlink:href="#path-6"></use>
                        <use fill="url(#linearGradient-5)" xlink:href="#path-6"></use>
                    </g>
                    <g id="Right-Arm">
                        <use fill="black" fill-opacity="1" filter="url(#filter-10)" xlink:href="#path-9"></use>
                        <use fill="url(#linearGradient-8)" fill-rule="evenodd" xlink:href="#path-9"></use>
                    </g>
                    <g id="Bridge">
                        <use fill="black" fill-opacity="1" filter="url(#filter-13)" xlink:href="#path-12"></use>
                        <use fill="url(#linearGradient-11)" fill-rule="evenodd" xlink:href="#path-12"></use>
                    </g>
                    <g id="Left-Arm">
                        <use fill="black" fill-opacity="1" filter="url(#filter-16)" xlink:href="#path-15"></use>
                        <use fill="url(#linearGradient-14)" fill-rule="evenodd" xlink:href="#path-15"></use>
                    </g>
                </g>
                <rect id="Rectangle" fill="#81A2AF" fill-rule="nonzero" x="92.1118418" y="374.128503" width="13.8722653" height="80.9226096"></rect>
                <rect id="Rectangle-Copy-6" fill="#81A2AF" fill-rule="nonzero" x="240.822526" y="374.128503" width="13.8722653" height="80.9226096"></rect>
                <path d="M85.0338834,383.77222 C84.0058438,383.990444 82.9395285,384.105263 81.8463655,384.105263 C73.4187808,384.105263 66.5868736,377.281065 66.5868736,368.862991 C66.5868736,366.925046 66.9489492,365.071573 67.6092146,363.366385 C64.270543,360.570363 62.1477487,356.373201 62.1477487,351.680793 C62.1477487,349.464351 62.6213678,347.358404 63.4730298,345.45842 C60.602959,342.686978 58.818405,338.800954 58.818405,334.498595 C58.818405,330.413749 60.4270784,326.704204 63.0461409,323.96757 C60.4270784,321.230937 58.818405,317.521392 58.818405,313.436546 C58.818405,305.018471 65.6503122,298.194274 74.0778969,298.194274 C75.1017729,298.194274 76.1020967,298.294999 77.0694784,298.487071 C83.3181055,289.731302 91.8549132,284.337662 101.267537,284.337662 C111.251709,284.337662 120.250473,290.406208 126.578246,300.118794 C128.776495,298.892887 131.309612,298.194274 134.006083,298.194274 C142.433668,298.194274 149.265575,305.018471 149.265575,313.436546 C149.265575,319.382761 145.856806,324.533713 140.884717,327.046036 C143.3344,329.750026 144.82645,333.335925 144.82645,337.269917 C144.82645,342.496089 142.19325,347.107939 138.179793,349.853936 C138.53367,351.141776 138.722653,352.497768 138.722653,353.897851 C138.722653,360.055546 135.067103,365.360405 129.805441,367.765302 C129.831269,368.12784 129.844403,368.493883 129.844403,368.862991 C129.844403,377.281065 123.012496,384.105263 114.584912,384.105263 C114.033502,384.105263 113.488924,384.076049 112.952643,384.019086 C110.555278,389.300167 105.231086,392.973494 99.0479745,392.973494 C92.7689685,392.973494 87.3757319,389.185345 85.0338834,383.77222 Z" id="Combined-Shape" fill="#E4ECEF" fill-rule="nonzero"></path>
                <path d="M233.744568,383.77222 C232.716528,383.990444 231.650213,384.105263 230.55705,384.105263 C222.129465,384.105263 215.297558,377.281065 215.297558,368.862991 C215.297558,366.925046 215.659634,365.071573 216.319899,363.366385 C212.981227,360.570363 210.858433,356.373201 210.858433,351.680793 C210.858433,349.464351 211.332052,347.358404 212.183714,345.45842 C209.313643,342.686978 207.529089,338.800954 207.529089,334.498595 C207.529089,330.413749 209.137763,326.704204 211.756825,323.96757 C209.137763,321.230937 207.529089,317.521392 207.529089,313.436546 C207.529089,305.018471 214.360997,298.194274 222.788581,298.194274 C223.812457,298.194274 224.812781,298.294999 225.780163,298.487071 C232.02879,289.731302 240.565598,284.337662 249.978221,284.337662 C259.962393,284.337662 268.961158,290.406208 275.28893,300.118794 C277.48718,298.892887 280.020296,298.194274 282.716767,298.194274 C291.144352,298.194274 297.976259,305.018471 297.976259,313.436546 C297.976259,319.382761 294.56749,324.533713 289.595401,327.046036 C292.045084,329.750026 293.537134,333.335925 293.537134,337.269917 C293.537134,342.496089 290.903934,347.107939 286.890478,349.853936 C287.244354,351.141776 287.433338,352.497768 287.433338,353.897851 C287.433338,360.055546 283.777787,365.360405 278.516125,367.765302 C278.541953,368.12784 278.555088,368.493883 278.555088,368.862991 C278.555088,377.281065 271.723181,384.105263 263.295596,384.105263 C262.744186,384.105263 262.199608,384.076049 261.663327,384.019086 C259.265962,389.300167 253.941771,392.973494 247.758659,392.973494 C241.479653,392.973494 236.086416,389.185345 233.744568,383.77222 Z" id="Combined-Shape-Copy-23" fill="#E4ECEF" fill-rule="nonzero"></path>
                <path d="M105.984107,442.856631 L105.984107,469.404716 L63.2575299,469.404716 C69.6318243,457.137482 75.5336311,449.317116 80.9629504,445.943618 C86.3922697,442.57012 94.7326553,441.541124 105.984107,442.856631 Z" id="Rectangle" fill="#81A2AF" fill-rule="nonzero"></path>
                <path d="M254.694791,442.856631 L254.694791,469.404716 L211.968214,469.404716 C218.342509,457.137482 224.244315,449.317116 229.673635,445.943618 C235.102954,442.57012 243.44334,441.541124 254.694791,442.856631 Z" id="Rectangle-Copy-7" fill="#81A2AF" fill-rule="nonzero"></path>
                <path d="M86.0148976,469.363717 L62.7026393,469.363717 C69.0769337,457.32144 74.9787405,449.644484 80.4080598,446.332849 C80.4908941,446.282324 80.5744059,446.232335 80.6585954,446.182881 C85.2449935,449.456558 88.2276075,454.771939 88.2276075,460.772618 C88.2276075,463.883495 87.4259997,466.810191 86.0148976,469.363717 Z" id="Combined-Shape" fill="#4A4A4A" fill-rule="nonzero"></path>
                <path d="M234.725582,469.363717 L211.413324,469.363717 C217.787618,457.32144 223.689425,449.644484 229.118744,446.332849 C229.201578,446.282324 229.28509,446.232335 229.36928,446.182881 C233.955678,449.456558 236.938292,454.771939 236.938292,460.772618 C236.938292,463.883495 236.136684,466.810191 234.725582,469.363717 Z" id="Combined-Shape-Copy-24" fill="#4A4A4A" fill-rule="nonzero"></path>
                <path d="M47.7205927,141.891699 C48.7671064,144.001234 50.593835,145.056002 53.2007787,145.056002 C55.8077224,145.056002 57.6138826,144.001234 58.6192594,141.891699" id="Line-2" stroke="#81A2AF" stroke-width="2.21483455" stroke-linecap="round" stroke-linejoin="round" fill-rule="nonzero"></path>
                <path d="M83.233592,162.399484 C84.2801056,164.509019 86.1068343,165.563787 88.7137779,165.563787 C91.3207216,165.563787 93.1268818,164.509019 94.1322587,162.399484" id="Line-2-Copy-3" stroke="#81A2AF" stroke-width="2.21483455" stroke-linecap="round" stroke-linejoin="round" fill-rule="nonzero"></path>
                <path d="M53.2694989,222.260044 C54.3160125,224.369579 56.1427411,225.424347 58.7496848,225.424347 C61.3566285,225.424347 63.1627887,224.369579 64.1681655,222.260044" id="Line-2-Copy-4" stroke="#81A2AF" stroke-width="2.21483455" stroke-linecap="round" stroke-linejoin="round" fill-rule="nonzero"></path>
                <path d="M107.648779,234.453862 C108.695293,236.563397 110.522021,237.618165 113.128965,237.618165 C115.735909,237.618165 117.542069,236.563397 118.547446,234.453862" id="Line-2-Copy-5" stroke="#81A2AF" stroke-width="2.21483455" stroke-linecap="round" stroke-linejoin="round" fill-rule="nonzero"></path>
                <path d="M194.211715,231.128275 C195.258228,233.237811 197.084957,234.292578 199.691901,234.292578 C202.298844,234.292578 204.105004,233.237811 205.110381,231.128275" id="Line-2-Copy-8" stroke="#81A2AF" stroke-width="2.21483455" stroke-linecap="round" stroke-linejoin="round" fill-rule="nonzero"></path>
                <path d="M251.920338,322.027645 C252.966852,324.13718 254.793581,325.191948 257.400524,325.191948 C260.007468,325.191948 261.813628,324.13718 262.819005,322.027645" id="Line-2-Copy-9" stroke="#81A2AF" stroke-width="2.21483455" stroke-linecap="round" stroke-linejoin="round" fill-rule="nonzero"></path>
                <path d="M159.808497,318.702058 C160.85501,320.811594 162.681739,321.866361 165.288683,321.866361 C167.895626,321.866361 169.701786,320.811594 170.707163,318.702058" id="Line-2-Copy-10" stroke="#81A2AF" stroke-width="2.21483455" stroke-linecap="round" stroke-linejoin="round" fill-rule="nonzero"></path>
                <path d="M83.233592,331.450141 C84.2801056,333.559676 86.1068343,334.614444 88.7137779,334.614444 C91.3207216,334.614444 93.1268818,333.559676 94.1322587,331.450141" id="Line-2-Copy-11" stroke="#81A2AF" stroke-width="2.21483455" stroke-linecap="round" stroke-linejoin="round" fill-rule="nonzero"></path>
                <path d="M138.167763,276.57796 C139.214276,278.687495 141.041005,279.742263 143.647949,279.742263 C146.254892,279.742263 148.061053,278.687495 149.066429,276.57796" id="Line-2-Copy-12" stroke="#81A2AF" stroke-width="2.21483455" stroke-linecap="round" stroke-linejoin="round" fill-rule="nonzero"></path>
                <path d="M240.822526,234.453862 C241.86904,236.563397 243.695768,237.618165 246.302712,237.618165 C248.909656,237.618165 250.715816,236.563397 251.721193,234.453862" id="Line-2-Copy-13" stroke="#81A2AF" stroke-width="2.21483455" stroke-linecap="round" stroke-linejoin="round" fill-rule="nonzero"></path>
                <path d="M108.20367,281.012076 C109.250183,283.121611 111.076912,284.176379 113.683856,284.176379 C116.290799,284.176379 118.096959,283.121611 119.102336,281.012076" id="Line-2-Copy-6" stroke="#81A2AF" stroke-width="2.21483455" stroke-linecap="round" stroke-linejoin="round" fill-rule="nonzero"></path>
                <path d="M195.876386,273.252373 C196.9229,275.361909 198.749629,276.416676 201.356572,276.416676 C203.963516,276.416676 205.769676,275.361909 206.775053,273.252373" id="Line-2-Copy-7" stroke="#81A2AF" stroke-width="2.21483455" stroke-linecap="round" stroke-linejoin="round" fill-rule="nonzero"></path>
                <g id="Group-2" transform="translate(46.055921, 164.062277)" fill-rule="nonzero" stroke="#81A2AF" stroke-linecap="round" stroke-linejoin="round" stroke-width="2.21483455">
                    <path d="M1.59872116e-14,-1.08357767e-13 C1.04651363,2.10953535 2.87324227,3.16430302 5.48018594,3.16430302 C8.08712961,3.16430302 9.89328985,2.10953535 10.8986667,-1.08357767e-13" id="Line-2-Copy"></path>
                    <path d="M11.0978123,-1.08357767e-13 C12.1443259,2.10953535 13.9710545,3.16430302 16.5779982,3.16430302 C19.1849419,3.16430302 20.9911021,2.10953535 21.9964789,-1.08357767e-13" id="Line-2-Copy-2"></path>
                </g>
                <g id="Group-2-Copy-3" transform="translate(146.491122, 252.190324)" fill-rule="nonzero" stroke="#81A2AF" stroke-linecap="round" stroke-linejoin="round" stroke-width="2.21483455">
                    <path d="M1.59872116e-14,-1.08357767e-13 C1.04651363,2.10953535 2.87324227,3.16430302 5.48018594,3.16430302 C8.08712961,3.16430302 9.89328985,2.10953535 10.8986667,-1.08357767e-13" id="Line-2-Copy"></path>
                    <path d="M11.0978123,-1.08357767e-13 C12.1443259,2.10953535 13.9710545,3.16430302 16.5779982,3.16430302 C19.1849419,3.16430302 20.9911021,2.10953535 21.9964789,-1.08357767e-13" id="Line-2-Copy-2"></path>
                </g>
                <g id="Group-2-Copy-4" transform="translate(64.367311, 299.302802)" fill-rule="nonzero" stroke="#81A2AF" stroke-linecap="round" stroke-linejoin="round" stroke-width="2.21483455">
                    <path d="M1.59872116e-14,-1.08357767e-13 C1.04651363,2.10953535 2.87324227,3.16430302 5.48018594,3.16430302 C8.08712961,3.16430302 9.89328985,2.10953535 10.8986667,-1.08357767e-13" id="Line-2-Copy"></path>
                    <path d="M11.0978123,-1.08357767e-13 C12.1443259,2.10953535 13.9710545,3.16430302 16.5779982,3.16430302 C19.1849419,3.16430302 20.9911021,2.10953535 21.9964789,-1.08357767e-13" id="Line-2-Copy-2"></path>
                </g>
                <g id="Group-2-Copy" transform="translate(75.465123, 200.643731)" fill-rule="nonzero" stroke="#81A2AF" stroke-linecap="round" stroke-linejoin="round" stroke-width="2.21483455">
                    <path d="M1.59872116e-14,-1.08357767e-13 C1.04651363,2.10953535 2.87324227,3.16430302 5.48018594,3.16430302 C8.08712961,3.16430302 9.89328985,2.10953535 10.8986667,-1.08357767e-13" id="Line-2-Copy"></path>
                    <path d="M11.0978123,-1.08357767e-13 C12.1443259,2.10953535 13.9710545,3.16430302 16.5779982,3.16430302 C19.1849419,3.16430302 20.9911021,2.10953535 21.9964789,-1.08357767e-13" id="Line-2-Copy-2"></path>
                </g>
                <g id="Group-2-Copy-2" transform="translate(62.702639, 256.070175)" fill-rule="nonzero" stroke="#81A2AF" stroke-linecap="round" stroke-linejoin="round" stroke-width="2.21483455">
                    <path d="M1.59872116e-14,-1.08357767e-13 C1.04651363,2.10953535 2.87324227,3.16430302 5.48018594,3.16430302 C8.08712961,3.16430302 9.89328985,2.10953535 10.8986667,-1.08357767e-13" id="Line-2-Copy"></path>
                    <path d="M11.0978123,-1.08357767e-13 C12.1443259,2.10953535 13.9710545,3.16430302 16.5779982,3.16430302 C19.1849419,3.16430302 20.9911021,2.10953535 21.9964789,-1.08357767e-13" id="Line-2-Copy-2"></path>
                </g>
                <g id="Group-2-Copy-5" transform="translate(113.752576, 331.450141)" fill-rule="nonzero" stroke="#81A2AF" stroke-linecap="round" stroke-linejoin="round" stroke-width="2.21483455">
                    <path d="M1.59872116e-14,-1.08357767e-13 C1.04651363,2.10953535 2.87324227,3.16430302 5.48018594,3.16430302 C8.08712961,3.16430302 9.89328985,2.10953535 10.8986667,-1.08357767e-13" id="Line-2-Copy"></path>
                    <path d="M11.0978123,-1.08357767e-13 C12.1443259,2.10953535 13.9710545,3.16430302 16.5779982,3.16430302 C19.1849419,3.16430302 20.9911021,2.10953535 21.9964789,-1.08357767e-13" id="Line-2-Copy-2"></path>
                </g>
                <g id="Group-2-Copy-6" transform="translate(159.808497, 297.640009)" fill-rule="nonzero" stroke="#81A2AF" stroke-linecap="round" stroke-linejoin="round" stroke-width="2.21483455">
                    <path d="M1.59872116e-14,-1.08357767e-13 C1.04651363,2.10953535 2.87324227,3.16430302 5.48018594,3.16430302 C8.08712961,3.16430302 9.89328985,2.10953535 10.8986667,-1.08357767e-13" id="Line-2-Copy"></path>
                    <path d="M11.0978123,-1.08357767e-13 C12.1443259,2.10953535 13.9710545,3.16430302 16.5779982,3.16430302 C19.1849419,3.16430302 20.9911021,2.10953535 21.9964789,-1.08357767e-13" id="Line-2-Copy-2"></path>
                </g>
                <g id="Group-2-Copy-7" transform="translate(194.211715, 320.364852)" fill-rule="nonzero" stroke="#81A2AF" stroke-linecap="round" stroke-linejoin="round" stroke-width="2.21483455">
                    <path d="M1.59872116e-14,-1.08357767e-13 C1.04651363,2.10953535 2.87324227,3.16430302 5.48018594,3.16430302 C8.08712961,3.16430302 9.89328985,2.10953535 10.8986667,-1.08357767e-13" id="Line-2-Copy"></path>
                    <path d="M11.0978123,-1.08357767e-13 C12.1443259,2.10953535 13.9710545,3.16430302 16.5779982,3.16430302 C19.1849419,3.16430302 20.9911021,2.10953535 21.9964789,-1.08357767e-13" id="Line-2-Copy-2"></path>
                </g>
                <g id="Group-2-Copy-8" transform="translate(240.822526, 259.395762)" fill-rule="nonzero" stroke="#81A2AF" stroke-linecap="round" stroke-linejoin="round" stroke-width="2.21483455">
                    <path d="M1.59872116e-14,-1.08357767e-13 C1.04651363,2.10953535 2.87324227,3.16430302 5.48018594,3.16430302 C8.08712961,3.16430302 9.89328985,2.10953535 10.8986667,-1.08357767e-13" id="Line-2-Copy"></path>
                    <path d="M11.0978123,-1.08357767e-13 C12.1443259,2.10953535 13.9710545,3.16430302 16.5779982,3.16430302 C19.1849419,3.16430302 20.9911021,2.10953535 21.9964789,-1.08357767e-13" id="Line-2-Copy-2"></path>
                </g>
                <g id="Group-2-Copy-9" transform="translate(258.579026, 300.965596)" fill-rule="nonzero" stroke="#81A2AF" stroke-linecap="round" stroke-linejoin="round" stroke-width="2.21483455">
                    <path d="M1.59872116e-14,-1.08357767e-13 C1.04651363,2.10953535 2.87324227,3.16430302 5.48018594,3.16430302 C8.08712961,3.16430302 9.89328985,2.10953535 10.8986667,-1.08357767e-13" id="Line-2-Copy"></path>
                    <path d="M11.0978123,-1.08357767e-13 C12.1443259,2.10953535 13.9710545,3.16430302 16.5779982,3.16430302 C19.1849419,3.16430302 20.9911021,2.10953535 21.9964789,-1.08357767e-13" id="Line-2-Copy-2"></path>
                </g>
            </g>
        </g>
    </g>
</svg>