<?xml version="1.0" encoding="UTF-8"?>
<svg width="56px" height="46px" viewBox="0 0 56 46" version="1.1" xmlns="http://www.w3.org/2000/svg" xmlns:xlink="http://www.w3.org/1999/xlink">
    <!-- Generator: Sketch 57.1 (83088) - https://sketch.com -->
    <title>Icon/entrust</title>
    <desc>Created with Sketch.</desc>
    <g id="Page-1" stroke="none" stroke-width="1" fill="none" fill-rule="evenodd">
        <g id="security" transform="translate(-362.000000, -531.000000)">
            <g id="Group-8" transform="translate(78.000000, 513.000000)">
                <g id="Encrypted" transform="translate(270.000000, 0.000000)">
                    <g id="icon/read-only">
                        <g id="Icon/entrust" transform="translate(14.000000, 17.000000)">
                            <path d="M11.4552807,36.3405448 C14.6869648,42.1040386 20.8618781,46 27.9482438,46 C35.0045478,46 41.1571162,42.1370232 44.39992,36.4137931 M45,12.7360474 C41.9604837,6.38644994 35.4674643,2 27.9482438,2 C20.5133097,2 14.0816994,6.28866158 11,12.523264" id="Shape" stroke="#6A668F" stroke-width="1.62" stroke-linecap="round" stroke-linejoin="round" fill-rule="nonzero"></path>
                            <path d="M1.5758,30 C1.0736,30 0.6848,29.595 0.6848,29.109 L0.6848,19.551 C0.6848,19.0488 1.0736,18.66 1.5758,18.66 L6.8732,18.66 C7.343,18.66 7.7642,19.0488 7.7642,19.551 C7.7642,20.0532 7.343,20.4582 6.8732,20.4582 L2.483,20.4582 L2.483,23.4228 L6.2576,23.4228 C6.7436,23.4228 7.1486,23.844 7.1486,24.3138 C7.1486,24.816 6.7436,25.221 6.2576,25.221 L2.483,25.221 L2.483,28.2018 L6.8732,28.2018 C7.343,28.2018 7.7642,28.6068 7.7642,29.109 C7.7642,29.595 7.343,30 6.8732,30 L1.6244,30 C1.592,30 1.592,29.9838 1.592,29.9838 L1.5758,30 Z M13.4828,21.9 C15.362,21.9 16.8686,23.439 16.8686,25.2696 L16.8686,29.1414 C16.8686,29.6112 16.496,30 16.0262,30 C15.5726,30 15.1676,29.6112 15.1676,29.1414 L15.1676,25.2696 C15.1676,24.3624 14.4062,23.6334 13.4828,23.6334 C12.5756,23.6334 11.8628,24.3624 11.8628,25.2696 L11.8628,29.1414 C11.8628,29.19 11.8628,29.2386 11.8304,29.3034 C11.7494,29.6922 11.393,30 10.9718,30 C10.4858,30 10.1132,29.6112 10.1132,29.1414 L10.1132,22.7586 C10.1132,22.2888 10.4858,21.9 10.9718,21.9 C11.312,21.9 11.6198,22.0944 11.7656,22.4022 C12.2516,22.0944 12.851,21.9 13.4828,21.9 Z M22.7816,21.9 C23.2676,21.9 23.6888,22.2888 23.6888,22.791 C23.6888,23.277 23.2676,23.682 22.7816,23.682 L22.3766,23.682 L22.3766,28.2018 C22.8788,28.2018 23.2676,28.6068 23.2676,29.109 C23.2676,29.6112 22.8788,30 22.3766,30 C21.3884,30 20.5784,29.19 20.5784,28.2018 L20.5784,23.682 L20.1086,23.682 C19.6064,23.682 19.2176,23.277 19.2176,22.791 C19.2176,22.2888 19.6064,21.9 20.1086,21.9 L20.5784,21.9 L20.5784,19.551 C20.5784,19.0488 20.9834,18.66 21.4856,18.66 C21.9878,18.66 22.3766,19.0488 22.3766,19.551 L22.3766,21.9 L22.7816,21.9 Z M30.6548,21.9162 C31.1408,21.9162 31.5134,22.2888 31.5134,22.7586 C31.5134,23.2122 31.1408,23.6172 30.6548,23.6172 C30.2822,23.6172 29.9582,23.7144 29.6828,23.925 C29.375,24.1194 29.132,24.3948 28.9376,24.7026 C28.5488,25.221 28.3544,25.8366 28.2734,26.0634 L28.2734,29.1414 C28.2734,29.6112 27.8684,30 27.3824,30 C26.9126,30 26.5238,29.6112 26.5238,29.1414 L26.5238,22.7586 C26.5238,22.2888 26.9126,21.9162 27.3824,21.9162 C27.8684,21.9162 28.2734,22.2888 28.2734,22.7586 L28.2734,22.872 C28.3706,22.7586 28.5002,22.629 28.6136,22.548 C29.1482,22.1916 29.8448,21.9 30.6548,21.9162 Z M40.2614,26.6304 C40.2614,28.4772 38.7062,30 36.8432,30 C34.9964,30 33.4736,28.4772 33.4736,26.6304 L33.4736,22.7586 C33.4736,22.305 33.8624,21.9 34.3322,21.9 C34.8182,21.9 35.1908,22.305 35.1908,22.7586 L35.1908,26.6304 C35.1908,27.5538 35.9198,28.2828 36.8432,28.2828 C37.7828,28.2828 38.528,27.5538 38.5442,26.6304 L38.5442,22.7586 C38.5442,22.305 38.9006,21.9 39.3866,21.9 C39.8402,21.9 40.2614,22.305 40.2614,22.7586 L40.2614,26.6304 Z M43.2908,28.8822 C42.9344,28.5906 42.8858,28.0398 43.1774,27.6834 C43.469,27.2946 44.036,27.246 44.3924,27.5538 C44.8136,27.9102 45.5426,28.2828 46.1744,28.2666 C46.6118,28.2666 47.0168,28.1208 47.276,27.9588 C47.5028,27.7644 47.5676,27.6024 47.5676,27.4728 C47.5676,27.3918 47.5514,27.3594 47.519,27.3108 C47.5028,27.2622 47.438,27.1974 47.3084,27.1164 C47.0816,26.9544 46.5956,26.7762 46.0124,26.6628 L45.9962,26.6628 C45.494,26.5656 45.008,26.436 44.5868,26.2416 C44.1494,26.031 43.7606,25.7394 43.469,25.302 C43.2908,25.0104 43.1936,24.654 43.1936,24.2814 C43.1936,23.5362 43.6148,22.9044 44.1494,22.4994 C44.7164,22.1106 45.3968,21.9 46.142,21.9 C47.2598,21.9 48.0536,22.4346 48.572,22.791 C48.9608,23.0502 49.0742,23.5848 48.8312,23.9898 C48.572,24.3786 48.0374,24.492 47.6324,24.2166 C47.114,23.8764 46.6604,23.6172 46.142,23.6172 C45.737,23.6172 45.3806,23.7468 45.17,23.9088 C44.9594,24.0546 44.9108,24.2004 44.9108,24.2814 C44.9108,24.3462 44.9108,24.3624 44.9432,24.411 C44.9594,24.4434 45.008,24.5082 45.1214,24.573 C45.332,24.7188 45.7532,24.8646 46.304,24.9618 L46.3202,24.978 L46.3364,24.978 C46.871,25.0752 47.3732,25.221 47.843,25.4478 C48.2804,25.6422 48.7178,25.95 48.9932,26.4036 C49.1876,26.7276 49.301,27.1002 49.301,27.4728 C49.301,28.2666 48.8636,28.9308 48.2804,29.352 C47.6972,29.757 46.9682,30 46.1744,30 C44.9108,29.9838 43.9388,29.4006 43.2908,28.8822 Z M54.2744,21.9 C54.7604,21.9 55.1816,22.2888 55.1816,22.791 C55.1816,23.277 54.7604,23.682 54.2744,23.682 L53.8694,23.682 L53.8694,28.2018 C54.3716,28.2018 54.7604,28.6068 54.7604,29.109 C54.7604,29.6112 54.3716,30 53.8694,30 C52.8812,30 52.0712,29.19 52.0712,28.2018 L52.0712,23.682 L51.6014,23.682 C51.0992,23.682 50.7104,23.277 50.7104,22.791 C50.7104,22.2888 51.0992,21.9 51.6014,21.9 L52.0712,21.9 L52.0712,19.551 C52.0712,19.0488 52.4762,18.66 52.9784,18.66 C53.4806,18.66 53.8694,19.0488 53.8694,19.551 L53.8694,21.9 L54.2744,21.9 Z" id="Entrust" fill="#6A668F"></path>
                        </g>
                    </g>
                </g>
            </g>
        </g>
    </g>
</svg>