<?xml version="1.0" encoding="UTF-8"?>
<svg width="255px" height="384px" viewBox="0 0 255 384" version="1.1" xmlns="http://www.w3.org/2000/svg" xmlns:xlink="http://www.w3.org/1999/xlink">
    <!-- Generator: Sketch 52.6 (67491) - http://www.bohemiancoding.com/sketch -->
    <desc>Created with Sketch.</desc>
    <defs>
        <linearGradient x1="50%" y1="85.3022013%" x2="44.6400934%" y2="5.21199315%" id="linearGradient-1">
            <stop stop-color="#FFFFFF" offset="0%"></stop>
            <stop stop-color="#F7C3F3" offset="100%"></stop>
        </linearGradient>
        <linearGradient x1="-38.530882%" y1="-10.8426575%" x2="87.2742415%" y2="83.8626528%" id="linearGradient-2">
            <stop stop-color="#FF9E7B" offset="0%"></stop>
            <stop stop-color="#E74CBA" offset="100%"></stop>
        </linearGradient>
        <path d="M73.8776169,7.10542736e-14 C84.632553,7.10542736e-14 93.3783717,8.73898078 93.3783717,19.4877795 C93.3783717,30.2344685 84.6318493,38.9734493 73.8776169,38.9734493 C63.1212733,38.9734493 54.3768621,30.2344685 54.3768621,19.4877795 C54.3768621,8.73968401 63.1212733,7.10542736e-14 73.8776169,7.10542736e-14 M73.8776169,6.04633112 C66.4632344,6.04633112 60.4274373,12.0785977 60.4274373,19.4877795 C60.4274373,26.8955548 66.4632344,32.9271181 73.8776169,32.9271181 C81.2905919,32.9271181 87.3277965,26.8948515 87.3277965,19.4877795 C87.3277965,12.0785977 81.2905919,6.04633112 73.8776169,6.04633112" id="path-3"></path>
        <filter x="-21.8%" y="-16.7%" width="143.6%" height="143.6%" filterUnits="objectBoundingBox" id="filter-4">
            <feOffset dx="0" dy="2" in="SourceAlpha" result="shadowOffsetOuter1"></feOffset>
            <feGaussianBlur stdDeviation="2.5" in="shadowOffsetOuter1" result="shadowBlurOuter1"></feGaussianBlur>
            <feColorMatrix values="0 0 0 0 0   0 0 0 0 0   0 0 0 0 0  0 0 0 0.2 0" type="matrix" in="shadowBlurOuter1"></feColorMatrix>
        </filter>
        <linearGradient x1="10.9906944%" y1="17.7734393%" x2="82.0081345%" y2="90.9801566%" id="linearGradient-5">
            <stop stop-color="#13C6B9" offset="0%"></stop>
            <stop stop-color="#26B1C9" offset="100%"></stop>
        </linearGradient>
        <path d="M25.9629326,6.04608677 C18.5499576,6.04608677 12.512753,12.0781096 12.512753,19.4869919 C12.512753,26.8937647 18.5492539,32.9257875 25.9629326,32.9257875 C33.3773151,32.9257875 39.4131122,26.8944679 39.4131122,19.4869919 C39.4131122,12.0774064 33.3773151,6.04608677 25.9629326,6.04608677 M25.9629326,4.97379915e-14 C36.7192762,4.97379915e-14 45.4629837,8.73933082 45.4629837,19.4869919 C45.4629837,30.2332466 36.7185725,38.9718743 25.9629326,38.9718743 C15.2087002,38.9718743 6.46217782,30.2339498 6.46217782,19.4869919 C6.46217782,8.73933082 15.2079965,4.97379915e-14 25.9629326,4.97379915e-14" id="path-6"></path>
        <filter x="-21.8%" y="-16.7%" width="143.6%" height="143.6%" filterUnits="objectBoundingBox" id="filter-7">
            <feOffset dx="0" dy="2" in="SourceAlpha" result="shadowOffsetOuter1"></feOffset>
            <feGaussianBlur stdDeviation="2.5" in="shadowOffsetOuter1" result="shadowBlurOuter1"></feGaussianBlur>
            <feColorMatrix values="0 0 0 0 0   0 0 0 0 0   0 0 0 0 0  0 0 0 0.099439538 0" type="matrix" in="shadowBlurOuter1"></feColorMatrix>
        </filter>
        <linearGradient x1="6.75737902%" y1="16.9313873%" x2="88.3098273%" y2="77.3114225%" id="linearGradient-8">
            <stop stop-color="#FFE06B" offset="0%"></stop>
            <stop stop-color="#FEC548" offset="100%"></stop>
        </linearGradient>
        <path d="M93.495777,22.425609 C89.4620602,22.425609 89.4620602,16.3800312 93.495777,16.3800312 L96.7821444,16.3800312 C100.815861,16.3800312 100.815861,22.425609 96.7821444,22.425609 L93.495777,22.425609 Z" id="path-9"></path>
        <filter x="-91.0%" y="-107.5%" width="282.1%" height="381.2%" filterUnits="objectBoundingBox" id="filter-10">
            <feOffset dx="0" dy="2" in="SourceAlpha" result="shadowOffsetOuter1"></feOffset>
            <feGaussianBlur stdDeviation="2.5" in="shadowOffsetOuter1" result="shadowBlurOuter1"></feGaussianBlur>
            <feColorMatrix values="0 0 0 0 0   0 0 0 0 0   0 0 0 0 0  0 0 0 0.2 0" type="matrix" in="shadowBlurOuter1"></feColorMatrix>
        </filter>
        <linearGradient x1="15.5610712%" y1="35.4420638%" x2="69.9864575%" y2="100%" id="linearGradient-11">
            <stop stop-color="#73DD73" offset="0%"></stop>
            <stop stop-color="#B6ED32" offset="100%"></stop>
        </linearGradient>
        <path d="M53.9974145,17.1725715 C53.9974145,17.1725715 53.6131839,16.9039729 52.9650588,16.6206085 C52.2001164,16.2866181 51.1473529,15.9680967 49.9341415,15.9680967 C48.6280392,15.9680967 46.9651514,16.4082609 45.8715722,17.1725715 C42.6485396,19.595584 39.0103128,14.7650281 42.2333454,12.3420157 C42.2333454,12.3420157 43.0538817,11.7049729 44.4789125,11.0819929 C45.7871259,10.510342 47.6752038,9.92251891 49.9341415,9.92251891 C52.3957502,9.92251891 55.6420056,10.7937065 57.6356412,12.3420157 C60.8579701,14.7650281 57.2204471,19.595584 53.9974145,17.1725715" id="path-12"></path>
        <filter x="-47.5%" y="-82.2%" width="194.9%" height="314.9%" filterUnits="objectBoundingBox" id="filter-13">
            <feOffset dx="0" dy="2" in="SourceAlpha" result="shadowOffsetOuter1"></feOffset>
            <feGaussianBlur stdDeviation="2.5" in="shadowOffsetOuter1" result="shadowBlurOuter1"></feGaussianBlur>
            <feColorMatrix values="0 0 0 0 0   0 0 0 0 0   0 0 0 0 0  0 0 0 0.2 0" type="matrix" in="shadowBlurOuter1"></feColorMatrix>
        </filter>
        <linearGradient x1="-39.7238229%" y1="-48.1591926%" x2="86.4850786%" y2="100%" id="linearGradient-14">
            <stop stop-color="#FAC35B" offset="0%"></stop>
            <stop stop-color="#F2692E" offset="100%"></stop>
        </linearGradient>
        <path d="M6.31165492,22.425609 L3.0252876,22.425609 C-1.0084292,22.425609 -1.0084292,16.3800312 3.0252876,16.3800312 L6.31165492,16.3800312 C10.3453717,16.3800312 10.3453717,22.425609 6.31165492,22.425609" id="path-15"></path>
        <filter x="-91.0%" y="-107.5%" width="282.1%" height="381.2%" filterUnits="objectBoundingBox" id="filter-16">
            <feOffset dx="0" dy="2" in="SourceAlpha" result="shadowOffsetOuter1"></feOffset>
            <feGaussianBlur stdDeviation="2.5" in="shadowOffsetOuter1" result="shadowBlurOuter1"></feGaussianBlur>
            <feColorMatrix values="0 0 0 0 0   0 0 0 0 0   0 0 0 0 0  0 0 0 0.198596014 0" type="matrix" in="shadowBlurOuter1"></feColorMatrix>
        </filter>
    </defs>
    <g id="Page-1" stroke="none" stroke-width="1" fill="none" fill-rule="evenodd">
        <g id="llama-goggles">
            <path d="M-5.1159077e-13,362.172488 C25.2722794,334.181703 63.9526665,315.21874 116.041161,305.283599 C168.129656,295.348458 214.296868,299.87276 254.542797,318.856505 C223.834413,349.729928 185.453117,369.782624 139.398912,379.014593 C93.3447057,388.246562 46.8784019,382.632527 -5.1159077e-13,362.172488 Z" id="Path-9" fill="url(#linearGradient-1)" fill-rule="nonzero"></path>
            <g id="llama" transform="translate(19.442815, 0.000000)">
                <path d="M220.309202,163.161532 C222.007907,165.090977 223.037812,167.620362 223.037812,170.38961 C223.037812,176.443057 218.116523,181.350346 212.045805,181.350346 C207.910542,181.350346 204.308623,179.073321 202.432239,175.708067 C202.045031,175.749225 201.651814,175.770335 201.253653,175.770335 C195.182935,175.770335 190.261646,170.863047 190.261646,164.8096 C190.261646,158.756153 195.182935,153.848865 201.253653,153.848865 C202.152894,153.848865 203.026915,153.956539 203.863456,154.159665 C203.855689,153.990607 203.851763,153.82055 203.851763,153.649578 C203.851763,147.596132 208.773053,142.688843 214.84377,142.688843 C220.914488,142.688843 225.835777,147.596132 225.835777,153.649578 C225.835777,157.719169 223.611572,161.270746 220.309202,163.161532 Z" id="Combined-Shape" fill="#E4ECEF" fill-rule="nonzero"></path>
                <rect id="Rectangle-Copy-2" fill="#81A2AF" fill-rule="nonzero" x="53.9607609" y="269.036227" width="9.9927335" height="58.1915395"></rect>
                <rect id="Rectangle-Copy-4" fill="#81A2AF" fill-rule="nonzero" x="161.082864" y="269.036227" width="9.9927335" height="58.1915395"></rect>
                <path d="M48.8622316,275.971035 C48.1216946,276.12796 47.3535861,276.210526 46.5661381,276.210526 C40.4954204,276.210526 35.5741313,271.303238 35.5741313,265.249791 C35.5741313,263.856213 35.8349484,262.523378 36.3105633,261.297176 C33.9055881,259.286553 32.3764565,256.268369 32.3764565,252.894053 C32.3764565,251.300207 32.7176228,249.785818 33.3311082,248.419538 C31.2636843,246.426591 29.9782005,243.632147 29.9782005,240.538315 C29.9782005,237.600898 31.1369907,234.93336 33.0236035,232.965444 C31.1369907,230.997528 29.9782005,228.32999 29.9782005,225.392572 C29.9782005,219.339125 34.8994896,214.431837 40.9702074,214.431837 C41.7077452,214.431837 42.4283174,214.504269 43.1251602,214.642388 C47.6262898,208.346105 53.7756852,204.467532 60.555965,204.467532 C67.7479531,204.467532 74.2301141,208.83143 78.7882551,215.815762 C80.3717401,214.934211 82.1964429,214.431837 84.1388161,214.431837 C90.2095338,214.431837 95.1308229,219.339125 95.1308229,225.392572 C95.1308229,229.668502 92.6753537,233.372558 89.0937643,235.179172 C90.8583662,237.123614 91.9331482,239.702238 91.9331482,242.531176 C91.9331482,246.289323 90.0363515,249.605709 87.1453024,251.580358 C87.4002134,252.506445 87.5363455,253.481541 87.5363455,254.488342 C87.5363455,258.916348 84.90311,262.731078 81.1129295,264.460442 C81.1315345,264.721143 81.140996,264.984365 81.140996,265.249791 C81.140996,271.303238 76.2197069,276.210526 70.1489892,276.210526 C69.7517874,276.210526 69.3595063,276.189518 68.9732023,276.148556 C67.2462867,279.946188 63.4110642,282.587681 58.9571277,282.587681 C54.4341149,282.587681 50.5491563,279.863619 48.8622316,275.971035 Z" id="Combined-Shape-Copy-19" fill="#CDD5D9" fill-rule="nonzero"></path>
                <path d="M155.984335,275.971035 C155.243798,276.12796 154.475689,276.210526 153.688241,276.210526 C147.617523,276.210526 142.696234,271.303238 142.696234,265.249791 C142.696234,263.856213 142.957052,262.523378 143.432666,261.297176 C141.027691,259.286553 139.49856,256.268369 139.49856,252.894053 C139.49856,251.300207 139.839726,249.785818 140.453211,248.419538 C138.385787,246.426591 137.100304,243.632147 137.100304,240.538315 C137.100304,237.600898 138.259094,234.93336 140.145707,232.965444 C138.259094,230.997528 137.100304,228.32999 137.100304,225.392572 C137.100304,219.339125 142.021593,214.431837 148.09231,214.431837 C148.829848,214.431837 149.550421,214.504269 150.247263,214.642388 C154.748393,208.346105 160.897788,204.467532 167.678068,204.467532 C174.870056,204.467532 181.352217,208.83143 185.910358,215.815762 C187.493843,214.934211 189.318546,214.431837 191.260919,214.431837 C197.331637,214.431837 202.252926,219.339125 202.252926,225.392572 C202.252926,229.668502 199.797457,233.372558 196.215867,235.179172 C197.980469,237.123614 199.055251,239.702238 199.055251,242.531176 C199.055251,246.289323 197.158455,249.605709 194.267406,251.580358 C194.522317,252.506445 194.658449,253.481541 194.658449,254.488342 C194.658449,258.916348 192.025213,262.731078 188.235033,264.460442 C188.253638,264.721143 188.263099,264.984365 188.263099,265.249791 C188.263099,271.303238 183.34181,276.210526 177.271092,276.210526 C176.873891,276.210526 176.481609,276.189518 176.095305,276.148556 C174.36839,279.946188 170.533167,282.587681 166.079231,282.587681 C161.556218,282.587681 157.671259,279.863619 155.984335,275.971035 Z" id="Combined-Shape-Copy-21" fill="#CDD5D9" fill-rule="nonzero"></path>
                <path d="M63.9534944,318.458701 L63.9534944,337.549458 L33.1758752,337.549458 C37.767528,328.728077 42.0188295,323.104443 45.9297798,320.678557 C49.8407302,318.25267 55.848635,317.512719 63.9534944,318.458701 Z" id="Rectangle-Copy-3" fill="#81A2AF" fill-rule="nonzero"></path>
                <path d="M171.075598,318.458701 L171.075598,337.549458 L140.297978,337.549458 C144.889631,328.728077 149.140933,323.104443 153.051883,320.678557 C156.962833,318.25267 162.970738,317.512719 171.075598,318.458701 Z" id="Rectangle-Copy-5" fill="#81A2AF" fill-rule="nonzero"></path>
                <path d="M49.5688943,337.519976 L32.7761659,337.519976 C37.3678186,328.860361 41.6191202,323.339854 45.5300705,320.958454 C45.5897392,320.922121 45.6498961,320.886174 45.710541,320.850611 C49.0143024,323.204716 51.1627955,327.027012 51.1627955,331.342107 C51.1627955,333.579142 50.5853661,335.683733 49.5688943,337.519976 Z" id="Combined-Shape-Copy-20" fill="#4A4A4A" fill-rule="nonzero"></path>
                <path d="M156.690997,337.519976 L139.898269,337.519976 C144.489922,328.860361 148.741223,323.339854 152.652174,320.958454 C152.711842,320.922121 152.771999,320.886174 152.832644,320.850611 C156.136405,323.204716 158.284899,327.027012 158.284899,331.342107 C158.284899,333.579142 157.707469,335.683733 156.690997,337.519976 Z" id="Combined-Shape-Copy-22" fill="#4A4A4A" fill-rule="nonzero"></path>
                <g id="Group" transform="translate(59.156982, 0.000000)" fill-rule="nonzero">
                    <path d="M0.40936207,33.047637 C5.34769029,28.7371085 8.57396995,24.7304006 10.1013157,21.0581507 C11.6572043,17.3172744 13.0461586,10.6300466 14.2393664,1.04946072 C14.3778472,-0.0624392257 15.8362664,-0.390780308 16.4404077,0.553929455 C24.48942,13.1403564 28.3626009,22.6243782 28.0112547,29.1375919 C27.658316,35.6803269 22.8031838,43.9183966 13.5018377,53.9669968 C12.9574498,54.5551199 11.9985734,54.4542622 11.5892257,53.7658223 L0.167722595,34.5571648 C-0.126915996,34.0616423 -0.0253366045,33.4270733 0.40936207,33.047637 Z" id="Path" fill="#E4ECEF"></path>
                    <path d="M25.0976353,16.3414597 C27.2426707,21.429373 28.2263409,25.6764576 28.0415626,29.1018558 C27.6886239,35.6445908 22.8334917,43.8826605 13.5321456,53.9312607 C12.9877577,54.5193838 12.0288813,54.4185261 11.6195336,53.7300862 L5.8810309,44.0790855 C11.4984162,41.8998997 15.4615074,39.1368569 17.7703045,35.7899572 C20.0636519,32.4654537 22.5060955,25.9826212 25.0976353,16.3414597 Z" id="Combined-Shape" fill="#81A2AF"></path>
                </g>
                <g id="Group-Copy" transform="translate(26.723743, 27.325843) scale(-1, 1) translate(-26.723743, -27.325843) translate(12.677132, 0.000000)" fill-rule="nonzero">
                    <path d="M0.40936207,33.047637 C5.34769029,28.7371085 8.57396995,24.7304006 10.1013157,21.0581507 C11.6572043,17.3172744 13.0461586,10.6300466 14.2393664,1.04946072 C14.3778472,-0.0624392257 15.8362664,-0.390780308 16.4404077,0.553929455 C24.48942,13.1403564 28.3626009,22.6243782 28.0112547,29.1375919 C27.658316,35.6803269 22.8031838,43.9183966 13.5018377,53.9669968 C12.9574498,54.5551199 11.9985734,54.4542622 11.5892257,53.7658223 L0.167722595,34.5571648 C-0.126915996,34.0616423 -0.0253366045,33.4270733 0.40936207,33.047637 Z" id="Path" fill="#E4ECEF"></path>
                    <path d="M25.0976353,16.3414597 C27.2426707,21.429373 28.2263409,25.6764576 28.0415626,29.1018558 C27.6886239,35.6445908 22.8334917,43.8826605 13.5321456,53.9312607 C12.9877577,54.5193838 12.0288813,54.4185261 11.6195336,53.7300862 L5.8810309,44.0790855 C11.4984162,41.8998997 15.4615074,39.1368569 17.7703045,35.7899572 C20.0636519,32.4654537 22.5060955,25.9826212 25.0976353,16.3414597 Z" id="Combined-Shape" fill="#81A2AF"></path>
                </g>
                <path d="M78.5028233,71.6498398 C81.7552996,73.5533523 83.9389614,77.077111 83.9389614,81.1094403 C83.9389614,84.816476 82.0934066,88.0936857 79.2685159,90.0773145 C82.0934066,92.0609433 83.9389614,95.338153 83.9389614,99.0451887 C83.9389614,102.513796 82.3231761,105.60609 79.8012042,107.614491 C82.3231761,109.622892 83.9389614,112.715186 83.9389614,116.183793 C83.9389614,119.769266 82.2124621,122.952641 79.5432303,124.952381 C82.2124621,126.952121 83.9389614,130.135496 83.9389614,133.720969 C83.9389614,137.076815 82.4265239,140.080417 80.0442678,142.090985 C82.4265239,144.101553 83.9389614,147.105155 83.9389614,150.461001 C83.9389614,151.652466 83.7483117,152.799529 83.3957725,153.873512 C83.6413338,153.857168 83.8891025,153.848865 84.1388161,153.848865 C87.3947894,153.848865 90.3201165,155.260502 92.3328576,157.503493 C94.3455986,155.260502 97.2709257,153.848865 100.526899,153.848865 C104.005402,153.848865 107.106519,155.460053 109.12065,157.97485 C111.134781,155.460053 114.235897,153.848865 117.714401,153.848865 C120.970374,153.848865 123.895701,155.260502 125.908442,157.503493 C127.921183,155.260502 130.84651,153.848865 134.102484,153.848865 C137.358457,153.848865 140.283784,155.260502 142.296525,157.503493 C144.309266,155.260502 147.234593,153.848865 150.490567,153.848865 C153.74654,153.848865 156.671867,155.260502 158.684608,157.503493 C160.697349,155.260502 163.622676,153.848865 166.878649,153.848865 C170.357153,153.848865 173.458269,155.460053 175.4724,157.97485 C177.486531,155.460053 180.587648,153.848865 184.066151,153.848865 C187.322124,153.848865 190.247451,155.260502 192.260193,157.503493 C194.272934,155.260502 197.198261,153.848865 200.454234,153.848865 C206.524952,153.848865 211.446241,158.756153 211.446241,164.8096 C211.446241,169.021312 209.063972,172.678199 205.569784,174.513523 C210.326284,175.719599 213.844497,180.018498 213.844497,185.136781 C213.844497,188.843817 211.998942,192.121027 209.174051,194.104656 C211.998942,196.088284 213.844497,199.365494 213.844497,203.07253 C213.844497,206.009947 212.685707,208.677485 210.799094,210.645401 C212.685707,212.613318 213.844497,215.280855 213.844497,218.218273 C213.844497,222.493202 211.390177,226.196524 207.809953,228.003604 C208.848343,229.677107 209.447694,231.650054 209.447694,233.762588 C209.447694,238.517245 206.411625,242.564807 202.167185,244.082774 C202.482755,245.104217 202.652635,246.189348 202.652635,247.314043 C202.652635,253.36749 197.731346,258.274778 191.660629,258.274778 C188.71483,258.274778 186.039682,257.119284 184.066151,255.238039 C182.09262,257.119284 179.417472,258.274778 176.471674,258.274778 C173.321907,258.274778 170.481569,256.953731 168.477487,254.836969 C166.473405,256.953731 163.633066,258.274778 160.4833,258.274778 C157.537502,258.274778 154.862353,257.119284 152.888823,255.238039 C150.915292,257.119284 148.240143,258.274778 145.294345,258.274778 C142.348547,258.274778 139.673399,257.119284 137.699868,255.238039 C135.726337,257.119284 133.051188,258.274778 130.10539,258.274778 C127.159592,258.274778 124.484444,257.119284 122.510913,255.238039 C120.537382,257.119284 117.862234,258.274778 114.916435,258.274778 C111.198823,258.274778 107.912263,256.434474 105.922975,253.61762 C103.933687,256.434474 100.647127,258.274778 96.929515,258.274778 C93.9837167,258.274778 91.3085684,257.119284 89.3350375,255.238039 C87.3615066,257.119284 84.6863583,258.274778 81.74056,258.274778 C76.1668686,258.274778 71.5620969,254.138142 70.8454475,248.775767 C69.9831125,248.992496 69.0802599,249.107618 68.1504425,249.107618 C63.1587075,249.107618 58.9441227,245.789708 57.6036477,241.244883 C56.4074898,241.689998 55.1126944,241.933318 53.7609062,241.933318 C47.6901885,241.933318 42.7688994,237.02603 42.7688994,230.972583 C42.7688994,229.76814 42.963725,228.609071 43.3236658,227.525003 C42.9442952,227.564482 42.5591854,227.584719 42.1693354,227.584719 C36.0986176,227.584719 31.1773285,222.677431 31.1773285,216.623984 C31.1773285,214.825007 31.6119636,213.127255 32.3822361,211.629445 C27.7656254,210.330153 24.3822697,206.098899 24.3822697,201.079669 C24.3822697,198.773869 25.0963003,196.634365 26.3159064,194.869019 C22.7921369,193.04317 20.3851763,189.370264 20.3851763,185.136781 C20.3851763,181.780935 21.8976138,178.777333 24.2798699,176.766765 C21.8976138,174.756198 20.3851763,171.752595 20.3851763,168.396749 C20.3851763,164.689714 22.2307312,161.412504 25.0556218,159.428875 C22.2307312,157.445246 20.3851763,154.168037 20.3851763,150.461001 C20.3851763,147.105155 21.8976138,144.101553 24.2798699,142.090985 C21.8976138,140.080417 20.3851763,137.076815 20.3851763,133.720969 C20.3851763,130.135496 22.1116757,126.952121 24.7809075,124.952381 C22.1116757,122.952641 20.3851763,119.769266 20.3851763,116.183793 C20.3851763,112.715186 22.0009616,109.622892 24.5229336,107.614491 C22.0009616,105.60609 20.3851763,102.513796 20.3851763,99.0451887 C20.3851763,95.338153 22.2307312,92.0609433 25.0556218,90.0773145 C22.2307312,88.0936857 20.3851763,84.816476 20.3851763,81.1094403 C20.3851763,78.5214636 21.2846618,76.1429753 22.7888998,74.2678697 C21.5264301,72.4834643 20.7848857,70.3063633 20.7848857,67.9565581 C20.7848857,65.306792 21.7278353,62.876637 23.2973829,60.9815448 C21.7278353,59.0864525 20.7848857,56.6562975 20.7848857,54.0065315 C20.7848857,48.4254762 24.9680609,43.8186743 30.378466,43.1336613 C30.4384122,37.1315337 35.3364889,32.2843472 41.3699167,32.2843472 C44.5196829,32.2843472 47.3600218,33.6053938 49.3641035,35.7221557 C51.3681852,33.6053938 54.2085241,32.2843472 57.3582903,32.2843472 C63.3628347,32.2843472 68.2428724,37.0852357 68.3485478,43.0475407 C74.3278636,43.1529154 79.1424493,48.0190697 79.1424493,54.0065315 C79.1424493,56.6562975 78.1994997,59.0864525 76.6299521,60.9815448 C78.1994997,62.876637 79.1424493,65.306792 79.1424493,67.9565581 C79.1424493,69.2524814 78.9169049,70.4958759 78.5028233,71.6498398 Z" id="Combined-Shape" fill="#E4ECEF" fill-rule="nonzero"></path>
                <path d="M76.6659536,63.333559 C77.6112632,63.091631 78.3635421,62.8403652 78.9227905,62.5797617 C79.6815337,62.2261958 80.6492053,61.5605995 81.8258055,60.5829726 C81.5231499,61.964186 81.1585448,62.9661604 80.7319901,63.5888958 C80.3624966,64.1283264 79.7611592,64.6538058 78.9279777,65.1653337 C79.0663273,65.5091937 79.1424493,65.8846371 79.1424493,66.2778092 C79.1424493,67.9287493 77.8002796,69.2671006 76.1446293,69.2671006 C74.488979,69.2671006 73.1468092,67.9287493 73.1468092,66.2778092 C73.1468092,64.6268692 74.488979,63.2885178 76.1446293,63.2885178 C76.3224447,63.2885178 76.4966443,63.3039551 76.6659536,63.333559 Z" id="Combined-Shape-Copy-15" fill="#000000" fill-rule="nonzero"></path>
                <path d="M21.5060647,63.333559 C22.4513742,63.091631 23.2036532,62.8403652 23.7629016,62.5797617 C24.5216447,62.2261958 25.4893164,61.5605995 26.6659166,60.5829726 C26.363261,61.964186 25.9986558,62.9661604 25.5721012,63.5888958 C25.2026077,64.1283264 24.6012702,64.6538058 23.7680887,65.1653337 C23.9064384,65.5091937 23.9825604,65.8846371 23.9825604,66.2778092 C23.9825604,67.9287493 22.6403906,69.2671006 20.9847404,69.2671006 C19.3290901,69.2671006 17.9869203,67.9287493 17.9869203,66.2778092 C17.9869203,64.6268692 19.3290901,63.2885178 20.9847404,63.2885178 C21.1625558,63.2885178 21.3367553,63.3039551 21.5060647,63.333559 Z" id="Combined-Shape-Copy-16" fill="#000000" fill-rule="nonzero" transform="translate(22.326418, 64.925037) scale(-1, 1) translate(-22.326418, -64.925037) "></path>
                <ellipse id="Oval" fill="#E0CBE1" fill-rule="nonzero" cx="49.7638128" cy="75.9280018" rx="8.99346015" ry="12.1564517"></ellipse>
                <path d="M50.4111761,75.504723 C50.3458339,77.1108883 50.3478346,78.2606835 50.415025,78.9399519 C50.4954475,79.7529912 50.5052788,79.7663845 50.9676612,79.8814601 C51.5089196,80.0161661 51.8599526,79.7913318 51.9666995,78.9256722 C52.0071116,78.5979524 52.3062994,78.3649502 52.6349542,78.4052473 C52.963609,78.4455444 53.1972759,78.743881 53.1568639,79.0716008 C52.9600251,80.6678567 51.9010154,81.3461454 50.6772838,81.0415887 C50.1330856,80.9061511 49.7868276,80.7091769 49.5639907,80.3489368 C49.3411538,80.7091769 48.9948958,80.9061511 48.4506977,81.0415887 C47.226966,81.3461454 46.1679564,80.6678567 45.9711176,79.0716008 C45.9307055,78.743881 46.1643724,78.4455444 46.4930272,78.4052473 C46.821682,78.3649502 47.1208698,78.5979524 47.1612819,78.9256722 C47.2680288,79.7913318 47.6190618,80.0161661 48.1603203,79.8814601 C48.6227027,79.7663845 48.6325339,79.7529912 48.7129564,78.9399519 C48.7801471,78.2606811 48.7821475,77.1108804 48.7168046,75.5047064 C48.0910808,75.3277124 47.3440354,74.9742805 46.4592863,74.4489087 C46.1747817,74.2799673 46.08149,73.9130329 46.2509133,73.6293378 C46.4203366,73.3456426 46.7883179,73.2526162 47.0728225,73.4215576 C48.2265047,74.1066243 49.0752752,74.4415915 49.5640198,74.4415915 C50.0527643,74.4415915 50.9015348,74.1066243 52.0552171,73.4215576 C52.3397216,73.2526162 52.7077029,73.3456426 52.8771263,73.6293378 C53.0465496,73.9130329 52.9532578,74.2799673 52.6687532,74.4489087 C51.7839765,74.974297 51.036912,75.3277345 50.4111761,75.504723 Z" id="Combined-Shape" fill="#4A4A4A" fill-rule="nonzero"></path>
                <path d="M36.2831605,33.4800638 C32.7338652,35.2975374 30.30553,38.9842214 30.30553,43.23646 M30.1056753,43.4357461 C25.9004919,43.4357461 22.3456878,46.5421715 21.184595,50.810211" id="Combined-Shape" stroke="#FFFFFF" stroke-width="1.19601065" stroke-linecap="round" fill-rule="nonzero"></path>
                <path d="M77.4532225,33.4800638 C73.9039273,35.2975374 71.475592,38.9842214 71.475592,43.23646 M71.2757374,43.4357461 C67.070554,43.4357461 63.5157499,46.5421715 62.354657,50.810211" id="Combined-Shape-Copy-18" stroke="#FFFFFF" stroke-width="1.19601065" stroke-linecap="round" fill-rule="nonzero" transform="translate(69.903940, 42.145137) scale(-1, 1) translate(-69.903940, -42.145137) "></path>
                <g id="goggles-gradient-colour-copy" transform="translate(0.000000, 44.241513)">
                    <g id="Right-Lens">
                        <use fill="black" fill-opacity="1" filter="url(#filter-4)" xlink:href="#path-3"></use>
                        <use fill="url(#linearGradient-2)" fill-rule="evenodd" xlink:href="#path-3"></use>
                    </g>
                    <g id="Left-Lens" fill-rule="nonzero">
                        <use fill="black" fill-opacity="1" filter="url(#filter-7)" xlink:href="#path-6"></use>
                        <use fill="url(#linearGradient-5)" xlink:href="#path-6"></use>
                    </g>
                    <g id="Right-Arm">
                        <use fill="black" fill-opacity="1" filter="url(#filter-10)" xlink:href="#path-9"></use>
                        <use fill="url(#linearGradient-8)" fill-rule="evenodd" xlink:href="#path-9"></use>
                    </g>
                    <g id="Bridge">
                        <use fill="black" fill-opacity="1" filter="url(#filter-13)" xlink:href="#path-12"></use>
                        <use fill="url(#linearGradient-11)" fill-rule="evenodd" xlink:href="#path-12"></use>
                    </g>
                    <g id="Left-Arm">
                        <use fill="black" fill-opacity="1" filter="url(#filter-16)" xlink:href="#path-15"></use>
                        <use fill="url(#linearGradient-14)" fill-rule="evenodd" xlink:href="#path-15"></use>
                    </g>
                </g>
                <rect id="Rectangle" fill="#81A2AF" fill-rule="nonzero" x="66.3517504" y="269.036227" width="9.9927335" height="58.1915395"></rect>
                <rect id="Rectangle-Copy-6" fill="#81A2AF" fill-rule="nonzero" x="173.473854" y="269.036227" width="9.9927335" height="58.1915395"></rect>
                <path d="M61.2532211,275.971035 C60.5126841,276.12796 59.7445756,276.210526 58.9571277,276.210526 C52.8864099,276.210526 47.9651208,271.303238 47.9651208,265.249791 C47.9651208,263.856213 48.225938,262.523378 48.7015529,261.297176 C46.2965776,259.286553 44.7674461,256.268369 44.7674461,252.894053 C44.7674461,251.300207 45.1086124,249.785818 45.7220977,248.419538 C43.6546739,246.426591 42.36919,243.632147 42.36919,240.538315 C42.36919,237.600898 43.5279802,234.93336 45.414593,232.965444 C43.5279802,230.997528 42.36919,228.32999 42.36919,225.392572 C42.36919,219.339125 47.2904791,214.431837 53.3611969,214.431837 C54.0987347,214.431837 54.8193069,214.504269 55.5161497,214.642388 C60.0172794,208.346105 66.1666747,204.467532 72.9469546,204.467532 C80.1389426,204.467532 86.6211036,208.83143 91.1792447,215.815762 C92.7627296,214.934211 94.5874324,214.431837 96.5298056,214.431837 C102.600523,214.431837 107.521812,219.339125 107.521812,225.392572 C107.521812,229.668502 105.066343,233.372558 101.484754,235.179172 C103.249356,237.123614 104.324138,239.702238 104.324138,242.531176 C104.324138,246.289323 102.427341,249.605709 99.5362919,251.580358 C99.7912029,252.506445 99.927335,253.481541 99.927335,254.488342 C99.927335,258.916348 97.2940995,262.731078 93.5039191,264.460442 C93.5225241,264.721143 93.5319856,264.984365 93.5319856,265.249791 C93.5319856,271.303238 88.6106965,276.210526 82.5399787,276.210526 C82.1427769,276.210526 81.7504958,276.189518 81.3641918,276.148556 C79.6372762,279.946188 75.8020537,282.587681 71.3481172,282.587681 C66.8251044,282.587681 62.9401459,279.863619 61.2532211,275.971035 Z" id="Combined-Shape" fill="#E4ECEF" fill-rule="nonzero"></path>
                <path d="M168.375324,275.971035 C167.634787,276.12796 166.866679,276.210526 166.079231,276.210526 C160.008513,276.210526 155.087224,271.303238 155.087224,265.249791 C155.087224,263.856213 155.348041,262.523378 155.823656,261.297176 C153.418681,259.286553 151.889549,256.268369 151.889549,252.894053 C151.889549,251.300207 152.230716,249.785818 152.844201,248.419538 C150.776777,246.426591 149.491293,243.632147 149.491293,240.538315 C149.491293,237.600898 150.650083,234.93336 152.536696,232.965444 C150.650083,230.997528 149.491293,228.32999 149.491293,225.392572 C149.491293,219.339125 154.412582,214.431837 160.4833,214.431837 C161.220838,214.431837 161.94141,214.504269 162.638253,214.642388 C167.139383,208.346105 173.288778,204.467532 180.069058,204.467532 C187.261046,204.467532 193.743207,208.83143 198.301348,215.815762 C199.884833,214.934211 201.709536,214.431837 203.651909,214.431837 C209.722627,214.431837 214.643916,219.339125 214.643916,225.392572 C214.643916,229.668502 212.188446,233.372558 208.606857,235.179172 C210.371459,237.123614 211.446241,239.702238 211.446241,242.531176 C211.446241,246.289323 209.549444,249.605709 206.658395,251.580358 C206.913306,252.506445 207.049438,253.481541 207.049438,254.488342 C207.049438,258.916348 204.416203,262.731078 200.626022,264.460442 C200.644627,264.721143 200.654089,264.984365 200.654089,265.249791 C200.654089,271.303238 195.7328,276.210526 189.662082,276.210526 C189.26488,276.210526 188.872599,276.189518 188.486295,276.148556 C186.759379,279.946188 182.924157,282.587681 178.47022,282.587681 C173.947208,282.587681 170.062249,279.863619 168.375324,275.971035 Z" id="Combined-Shape-Copy-23" fill="#E4ECEF" fill-rule="nonzero"></path>
                <path d="M76.3444839,318.458701 L76.3444839,337.549458 L45.5668648,337.549458 C50.1585175,328.728077 54.409819,323.104443 58.3207694,320.678557 C62.2317197,318.25267 68.2396246,317.512719 76.3444839,318.458701 Z" id="Rectangle" fill="#81A2AF" fill-rule="nonzero"></path>
                <path d="M183.466587,318.458701 L183.466587,337.549458 L152.688968,337.549458 C157.280621,328.728077 161.531922,323.104443 165.442873,320.678557 C169.353823,318.25267 175.361728,317.512719 183.466587,318.458701 Z" id="Rectangle-Copy-7" fill="#81A2AF" fill-rule="nonzero"></path>
                <path d="M61.9598838,337.519976 L45.1671554,337.519976 C49.7588082,328.860361 54.0101097,323.339854 57.92106,320.958454 C57.9807288,320.922121 58.0408856,320.886174 58.1015306,320.850611 C61.4052919,323.204716 63.5537851,327.027012 63.5537851,331.342107 C63.5537851,333.579142 62.9763557,335.683733 61.9598838,337.519976 Z" id="Combined-Shape" fill="#4A4A4A" fill-rule="nonzero"></path>
                <path d="M169.081987,337.519976 L152.289259,337.519976 C156.880911,328.860361 161.132213,323.339854 165.043163,320.958454 C165.102832,320.922121 165.162989,320.886174 165.223634,320.850611 C168.527395,323.204716 170.675888,327.027012 170.675888,331.342107 C170.675888,333.579142 170.098459,335.683733 169.081987,337.519976 Z" id="Combined-Shape-Copy-24" fill="#4A4A4A" fill-rule="nonzero"></path>
                <path d="M34.3750032,102.03448 C35.1288478,103.551449 36.4447117,104.309934 38.3225948,104.309934 C40.200478,104.309934 41.5015256,103.551449 42.2257377,102.03448" id="Line-2" stroke="#81A2AF" stroke-width="1.59468087" stroke-linecap="round" stroke-linejoin="round" fill-rule="nonzero"></path>
                <path d="M59.956401,116.781651 C60.7102456,118.29862 62.0261094,119.057105 63.9039926,119.057105 C65.7818757,119.057105 67.0829234,118.29862 67.8071355,116.781651" id="Line-2-Copy-3" stroke="#81A2AF" stroke-width="1.59468087" stroke-linecap="round" stroke-linejoin="round" fill-rule="nonzero"></path>
                <path d="M38.3720966,159.827447 C39.1259412,161.344417 40.4418051,162.102901 42.3196882,162.102901 C44.1975714,162.102901 45.498619,161.344417 46.2228311,159.827447" id="Line-2-Copy-4" stroke="#81A2AF" stroke-width="1.59468087" stroke-linecap="round" stroke-linejoin="round" fill-rule="nonzero"></path>
                <path d="M77.543612,168.596036 C78.2974565,170.113005 79.6133204,170.871489 81.4912035,170.871489 C83.3690867,170.871489 84.6701343,170.113005 85.3943464,168.596036" id="Line-2-Copy-5" stroke="#81A2AF" stroke-width="1.59468087" stroke-linecap="round" stroke-linejoin="round" fill-rule="nonzero"></path>
                <path d="M139.898269,166.204602 C140.652114,167.721572 141.967977,168.480056 143.845861,168.480056 C145.723744,168.480056 147.024791,167.721572 147.749003,166.204602" id="Line-2-Copy-8" stroke="#81A2AF" stroke-width="1.59468087" stroke-linecap="round" stroke-linejoin="round" fill-rule="nonzero"></path>
                <path d="M181.46804,231.570441 C182.221885,233.08741 183.537749,233.845895 185.415632,233.845895 C187.293515,233.845895 188.594563,233.08741 189.318775,231.570441" id="Line-2-Copy-9" stroke="#81A2AF" stroke-width="1.59468087" stroke-linecap="round" stroke-linejoin="round" fill-rule="nonzero"></path>
                <path d="M115.11629,229.179008 C115.870134,230.695977 117.185998,231.454462 119.063882,231.454462 C120.941765,231.454462 122.242812,230.695977 122.967024,229.179008" id="Line-2-Copy-10" stroke="#81A2AF" stroke-width="1.59468087" stroke-linecap="round" stroke-linejoin="round" fill-rule="nonzero"></path>
                <path d="M59.956401,238.346168 C60.7102456,239.863138 62.0261094,240.621622 63.9039926,240.621622 C65.7818757,240.621622 67.0829234,239.863138 67.8071355,238.346168" id="Line-2-Copy-11" stroke="#81A2AF" stroke-width="1.59468087" stroke-linecap="round" stroke-linejoin="round" fill-rule="nonzero"></path>
                <path d="M99.5276257,198.887522 C100.28147,200.404491 101.597334,201.162976 103.475217,201.162976 C105.3531,201.162976 106.654148,200.404491 107.37836,198.887522" id="Line-2-Copy-12" stroke="#81A2AF" stroke-width="1.59468087" stroke-linecap="round" stroke-linejoin="round" fill-rule="nonzero"></path>
                <path d="M173.473854,168.596036 C174.227698,170.113005 175.543562,170.871489 177.421445,170.871489 C179.299328,170.871489 180.600376,170.113005 181.324588,168.596036" id="Line-2-Copy-13" stroke="#81A2AF" stroke-width="1.59468087" stroke-linecap="round" stroke-linejoin="round" fill-rule="nonzero"></path>
                <path d="M77.9433213,202.076099 C78.6971659,203.593069 80.0130297,204.351553 81.8909129,204.351553 C83.768796,204.351553 85.0698437,203.593069 85.7940558,202.076099" id="Line-2-Copy-6" stroke="#81A2AF" stroke-width="1.59468087" stroke-linecap="round" stroke-linejoin="round" fill-rule="nonzero"></path>
                <path d="M141.097397,196.496089 C141.851242,198.013058 143.167105,198.771543 145.044989,198.771543 C146.922872,198.771543 148.223919,198.013058 148.948132,196.496089" id="Line-2-Copy-7" stroke="#81A2AF" stroke-width="1.59468087" stroke-linecap="round" stroke-linejoin="round" fill-rule="nonzero"></path>
                <g id="Group-2" transform="translate(33.175875, 117.977368)" fill-rule="nonzero" stroke="#81A2AF" stroke-linecap="round" stroke-linejoin="round" stroke-width="1.59468087">
                    <path d="M1.59872116e-14,-1.08357767e-13 C0.753844561,1.51696924 2.06970842,2.27545386 3.94759157,2.27545386 C5.82547472,2.27545386 7.12652235,1.51696924 7.85073447,-1.08357767e-13" id="Line-2-Copy"></path>
                    <path d="M7.9941868,-1.08357767e-13 C8.74803136,1.51696924 10.0638952,2.27545386 11.9417784,2.27545386 C13.8196615,2.27545386 15.1207092,1.51696924 15.8449213,-1.08357767e-13" id="Line-2-Copy-2"></path>
                </g>
                <g id="Group-2-Copy-3" transform="translate(105.523266, 181.350346)" fill-rule="nonzero" stroke="#81A2AF" stroke-linecap="round" stroke-linejoin="round" stroke-width="1.59468087">
                    <path d="M1.59872116e-14,-1.08357767e-13 C0.753844561,1.51696924 2.06970842,2.27545386 3.94759157,2.27545386 C5.82547472,2.27545386 7.12652235,1.51696924 7.85073447,-1.08357767e-13" id="Line-2-Copy"></path>
                    <path d="M7.9941868,-1.08357767e-13 C8.74803136,1.51696924 10.0638952,2.27545386 11.9417784,2.27545386 C13.8196615,2.27545386 15.1207092,1.51696924 15.8449213,-1.08357767e-13" id="Line-2-Copy-2"></path>
                </g>
                <g id="Group-2-Copy-4" transform="translate(46.366283, 215.228982)" fill-rule="nonzero" stroke="#81A2AF" stroke-linecap="round" stroke-linejoin="round" stroke-width="1.59468087">
                    <path d="M1.59872116e-14,-1.08357767e-13 C0.753844561,1.51696924 2.06970842,2.27545386 3.94759157,2.27545386 C5.82547472,2.27545386 7.12652235,1.51696924 7.85073447,-1.08357767e-13" id="Line-2-Copy"></path>
                    <path d="M7.9941868,-1.08357767e-13 C8.74803136,1.51696924 10.0638952,2.27545386 11.9417784,2.27545386 C13.8196615,2.27545386 15.1207092,1.51696924 15.8449213,-1.08357767e-13" id="Line-2-Copy-2"></path>
                </g>
                <g id="Group-2-Copy" transform="translate(54.360470, 144.283132)" fill-rule="nonzero" stroke="#81A2AF" stroke-linecap="round" stroke-linejoin="round" stroke-width="1.59468087">
                    <path d="M1.59872116e-14,-1.08357767e-13 C0.753844561,1.51696924 2.06970842,2.27545386 3.94759157,2.27545386 C5.82547472,2.27545386 7.12652235,1.51696924 7.85073447,-1.08357767e-13" id="Line-2-Copy"></path>
                    <path d="M7.9941868,-1.08357767e-13 C8.74803136,1.51696924 10.0638952,2.27545386 11.9417784,2.27545386 C13.8196615,2.27545386 15.1207092,1.51696924 15.8449213,-1.08357767e-13" id="Line-2-Copy-2"></path>
                </g>
                <g id="Group-2-Copy-2" transform="translate(45.167155, 184.140351)" fill-rule="nonzero" stroke="#81A2AF" stroke-linecap="round" stroke-linejoin="round" stroke-width="1.59468087">
                    <path d="M1.59872116e-14,-1.08357767e-13 C0.753844561,1.51696924 2.06970842,2.27545386 3.94759157,2.27545386 C5.82547472,2.27545386 7.12652235,1.51696924 7.85073447,-1.08357767e-13" id="Line-2-Copy"></path>
                    <path d="M7.9941868,-1.08357767e-13 C8.74803136,1.51696924 10.0638952,2.27545386 11.9417784,2.27545386 C13.8196615,2.27545386 15.1207092,1.51696924 15.8449213,-1.08357767e-13" id="Line-2-Copy-2"></path>
                </g>
                <g id="Group-2-Copy-5" transform="translate(81.940415, 238.346168)" fill-rule="nonzero" stroke="#81A2AF" stroke-linecap="round" stroke-linejoin="round" stroke-width="1.59468087">
                    <path d="M1.59872116e-14,-1.08357767e-13 C0.753844561,1.51696924 2.06970842,2.27545386 3.94759157,2.27545386 C5.82547472,2.27545386 7.12652235,1.51696924 7.85073447,-1.08357767e-13" id="Line-2-Copy"></path>
                    <path d="M7.9941868,-1.08357767e-13 C8.74803136,1.51696924 10.0638952,2.27545386 11.9417784,2.27545386 C13.8196615,2.27545386 15.1207092,1.51696924 15.8449213,-1.08357767e-13" id="Line-2-Copy-2"></path>
                </g>
                <g id="Group-2-Copy-6" transform="translate(115.116290, 214.033265)" fill-rule="nonzero" stroke="#81A2AF" stroke-linecap="round" stroke-linejoin="round" stroke-width="1.59468087">
                    <path d="M1.59872116e-14,-1.08357767e-13 C0.753844561,1.51696924 2.06970842,2.27545386 3.94759157,2.27545386 C5.82547472,2.27545386 7.12652235,1.51696924 7.85073447,-1.08357767e-13" id="Line-2-Copy"></path>
                    <path d="M7.9941868,-1.08357767e-13 C8.74803136,1.51696924 10.0638952,2.27545386 11.9417784,2.27545386 C13.8196615,2.27545386 15.1207092,1.51696924 15.8449213,-1.08357767e-13" id="Line-2-Copy-2"></path>
                </g>
                <g id="Group-2-Copy-7" transform="translate(139.898269, 230.374725)" fill-rule="nonzero" stroke="#81A2AF" stroke-linecap="round" stroke-linejoin="round" stroke-width="1.59468087">
                    <path d="M1.59872116e-14,-1.08357767e-13 C0.753844561,1.51696924 2.06970842,2.27545386 3.94759157,2.27545386 C5.82547472,2.27545386 7.12652235,1.51696924 7.85073447,-1.08357767e-13" id="Line-2-Copy"></path>
                    <path d="M7.9941868,-1.08357767e-13 C8.74803136,1.51696924 10.0638952,2.27545386 11.9417784,2.27545386 C13.8196615,2.27545386 15.1207092,1.51696924 15.8449213,-1.08357767e-13" id="Line-2-Copy-2"></path>
                </g>
                <g id="Group-2-Copy-8" transform="translate(173.473854, 186.531784)" fill-rule="nonzero" stroke="#81A2AF" stroke-linecap="round" stroke-linejoin="round" stroke-width="1.59468087">
                    <path d="M1.59872116e-14,-1.08357767e-13 C0.753844561,1.51696924 2.06970842,2.27545386 3.94759157,2.27545386 C5.82547472,2.27545386 7.12652235,1.51696924 7.85073447,-1.08357767e-13" id="Line-2-Copy"></path>
                    <path d="M7.9941868,-1.08357767e-13 C8.74803136,1.51696924 10.0638952,2.27545386 11.9417784,2.27545386 C13.8196615,2.27545386 15.1207092,1.51696924 15.8449213,-1.08357767e-13" id="Line-2-Copy-2"></path>
                </g>
                <g id="Group-2-Copy-9" transform="translate(186.264552, 216.424698)" fill-rule="nonzero" stroke="#81A2AF" stroke-linecap="round" stroke-linejoin="round" stroke-width="1.59468087">
                    <path d="M1.59872116e-14,-1.08357767e-13 C0.753844561,1.51696924 2.06970842,2.27545386 3.94759157,2.27545386 C5.82547472,2.27545386 7.12652235,1.51696924 7.85073447,-1.08357767e-13" id="Line-2-Copy"></path>
                    <path d="M7.9941868,-1.08357767e-13 C8.74803136,1.51696924 10.0638952,2.27545386 11.9417784,2.27545386 C13.8196615,2.27545386 15.1207092,1.51696924 15.8449213,-1.08357767e-13" id="Line-2-Copy-2"></path>
                </g>
            </g>
        </g>
    </g>
</svg>