<?xml version="1.0" encoding="UTF-8"?>
<svg width="210px" height="317px" viewBox="0 0 210 317" version="1.1" xmlns="http://www.w3.org/2000/svg" xmlns:xlink="http://www.w3.org/1999/xlink">
    <!-- Generator: Sketch 52.6 (67491) - http://www.bohemiancoding.com/sketch -->
    <desc>Created with Sketch.</desc>
    <defs>
        <linearGradient x1="50%" y1="85.3022013%" x2="44.6400934%" y2="5.21199315%" id="linearGradient-1">
            <stop stop-color="#FFFFFF" offset="0%"></stop>
            <stop stop-color="#F7C3F3" offset="100%"></stop>
        </linearGradient>
        <linearGradient x1="-38.530882%" y1="-10.8426575%" x2="87.2742415%" y2="83.8626528%" id="linearGradient-2">
            <stop stop-color="#FF9E7B" offset="0%"></stop>
            <stop stop-color="#E74CBA" offset="100%"></stop>
        </linearGradient>
        <path d="M60.8403904,7.10542736e-14 C69.6973966,7.10542736e-14 76.8998355,7.2142107 76.8998355,16.0875679 C76.8998355,24.9591836 69.6968171,32.1733943 60.8403904,32.1733943 C51.9822251,32.1733943 44.7809453,24.9591836 44.7809453,16.0875679 C44.7809453,7.21479123 51.9822251,7.10542736e-14 60.8403904,7.10542736e-14 M60.8403904,4.9913723 C54.7344284,4.9913723 49.7637719,9.97113406 49.7637719,16.0875679 C49.7637719,22.2028408 54.7344284,27.182022 60.8403904,27.182022 C66.9451933,27.182022 71.9170089,22.2022603 71.9170089,16.0875679 C71.9170089,9.97113406 66.9451933,4.9913723 60.8403904,4.9913723" id="path-3"></path>
        <filter x="-21.8%" y="-15.5%" width="143.6%" height="143.5%" filterUnits="objectBoundingBox" id="filter-4">
            <feOffset dx="0" dy="2" in="SourceAlpha" result="shadowOffsetOuter1"></feOffset>
            <feGaussianBlur stdDeviation="2" in="shadowOffsetOuter1" result="shadowBlurOuter1"></feGaussianBlur>
            <feColorMatrix values="0 0 0 0 0   0 0 0 0 0   0 0 0 0 0  0 0 0 0.2 0" type="matrix" in="shadowBlurOuter1"></feColorMatrix>
        </filter>
        <linearGradient x1="10.9906944%" y1="17.7734393%" x2="82.0081345%" y2="90.9801566%" id="linearGradient-5">
            <stop stop-color="#13C6B9" offset="0%"></stop>
            <stop stop-color="#26B1C9" offset="100%"></stop>
        </linearGradient>
        <path d="M21.3812386,4.99117059 C15.2764356,4.99117059 10.3046201,9.9707311 10.3046201,16.0869178 C10.3046201,22.201363 15.2758561,27.1809235 21.3812386,27.1809235 C27.4872006,27.1809235 32.4578571,22.2019435 32.4578571,16.0869178 C32.4578571,9.9701506 27.4872006,4.99117059 21.3812386,4.99117059 M21.3812386,4.97379915e-14 C30.2394039,4.97379915e-14 37.4401042,7.21449966 37.4401042,16.0869178 C37.4401042,24.958175 30.2388244,32.1720941 21.3812386,32.1720941 C12.5248119,32.1720941 5.3217935,24.9587555 5.3217935,16.0869178 C5.3217935,7.21449966 12.5242324,4.97379915e-14 21.3812386,4.97379915e-14" id="path-6"></path>
        <filter x="-21.8%" y="-15.5%" width="143.6%" height="143.5%" filterUnits="objectBoundingBox" id="filter-7">
            <feOffset dx="0" dy="2" in="SourceAlpha" result="shadowOffsetOuter1"></feOffset>
            <feGaussianBlur stdDeviation="2" in="shadowOffsetOuter1" result="shadowBlurOuter1"></feGaussianBlur>
            <feColorMatrix values="0 0 0 0 0   0 0 0 0 0   0 0 0 0 0  0 0 0 0.099439538 0" type="matrix" in="shadowBlurOuter1"></feColorMatrix>
        </filter>
        <linearGradient x1="6.75737902%" y1="16.9313873%" x2="88.3098273%" y2="77.3114225%" id="linearGradient-8">
            <stop stop-color="#FFE06B" offset="0%"></stop>
            <stop stop-color="#FEC548" offset="100%"></stop>
        </linearGradient>
        <path d="M76.9965223,18.5128074 C73.6746378,18.5128074 73.6746378,13.522057 76.9965223,13.522057 L79.7029424,13.522057 C83.0248268,13.522057 83.0248268,18.5128074 79.7029424,18.5128074 L76.9965223,18.5128074 Z" id="path-9"></path>
        <filter x="-91.0%" y="-100.2%" width="282.1%" height="380.5%" filterUnits="objectBoundingBox" id="filter-10">
            <feOffset dx="0" dy="2" in="SourceAlpha" result="shadowOffsetOuter1"></feOffset>
            <feGaussianBlur stdDeviation="2" in="shadowOffsetOuter1" result="shadowBlurOuter1"></feGaussianBlur>
            <feColorMatrix values="0 0 0 0 0   0 0 0 0 0   0 0 0 0 0  0 0 0 0.2 0" type="matrix" in="shadowBlurOuter1"></feColorMatrix>
        </filter>
        <linearGradient x1="15.5610712%" y1="35.4420638%" x2="69.9864575%" y2="100%" id="linearGradient-11">
            <stop stop-color="#73DD73" offset="0%"></stop>
            <stop stop-color="#B6ED32" offset="100%"></stop>
        </linearGradient>
        <path d="M44.468459,14.1763156 C44.468459,14.1763156 44.1520338,13.9545818 43.6182837,13.7206585 C42.9883311,13.4449425 42.1213494,13.1819965 41.1222341,13.1819965 C40.0466205,13.1819965 38.6771835,13.5453612 37.7765889,14.1763156 C35.1223267,16.1765628 32.1261399,12.1888383 34.7804021,10.1885911 C34.7804021,10.1885911 35.4561378,9.66269901 36.6296926,9.14841605 C37.7070449,8.67650629 39.2619325,8.19124608 41.1222341,8.19124608 C43.1494414,8.19124608 45.8228281,8.91042958 47.4646457,10.1885911 C50.1183283,12.1888383 47.1227211,16.1765628 44.468459,14.1763156" id="path-12"></path>
        <filter x="-47.5%" y="-76.6%" width="194.9%" height="314.3%" filterUnits="objectBoundingBox" id="filter-13">
            <feOffset dx="0" dy="2" in="SourceAlpha" result="shadowOffsetOuter1"></feOffset>
            <feGaussianBlur stdDeviation="2" in="shadowOffsetOuter1" result="shadowBlurOuter1"></feGaussianBlur>
            <feColorMatrix values="0 0 0 0 0   0 0 0 0 0   0 0 0 0 0  0 0 0 0.2 0" type="matrix" in="shadowBlurOuter1"></feColorMatrix>
        </filter>
        <linearGradient x1="-39.7238229%" y1="-48.1591926%" x2="86.4850786%" y2="100%" id="linearGradient-14">
            <stop stop-color="#FAC35B" offset="0%"></stop>
            <stop stop-color="#F2692E" offset="100%"></stop>
        </linearGradient>
        <path d="M5.19783347,18.5128074 L2.49141332,18.5128074 C-0.830471107,18.5128074 -0.830471107,13.522057 2.49141332,13.522057 L5.19783347,13.522057 C8.5197179,13.522057 8.5197179,18.5128074 5.19783347,18.5128074" id="path-15"></path>
        <filter x="-91.0%" y="-100.2%" width="282.1%" height="380.5%" filterUnits="objectBoundingBox" id="filter-16">
            <feOffset dx="0" dy="2" in="SourceAlpha" result="shadowOffsetOuter1"></feOffset>
            <feGaussianBlur stdDeviation="2" in="shadowOffsetOuter1" result="shadowBlurOuter1"></feGaussianBlur>
            <feColorMatrix values="0 0 0 0 0   0 0 0 0 0   0 0 0 0 0  0 0 0 0.198596014 0" type="matrix" in="shadowBlurOuter1"></feColorMatrix>
        </filter>
    </defs>
    <g id="Page-1" stroke="none" stroke-width="1" fill="none" fill-rule="evenodd">
        <g id="llama-goggles">
            <path d="M-5.1159077e-13,298.980934 C20.8124654,275.873958 52.6669018,260.219637 95.5633092,252.017971 C138.459717,243.816305 176.479774,247.551211 209.62348,263.222688 C184.334222,288.709342 152.726097,305.26326 114.799104,312.884443 C76.8721106,320.505625 38.6057427,315.871122 -5.1159077e-13,298.980934 Z" id="Path-9" fill="url(#linearGradient-1)" fill-rule="nonzero"></path>
            <g id="llama" transform="translate(16.011730, 0.000000)">
                <path d="M181.431107,134.693244 C182.830041,136.286041 183.678198,138.374101 183.678198,140.660173 C183.678198,145.65742 179.625372,149.708488 174.625957,149.708488 C171.220446,149.708488 168.254161,147.828757 166.708903,145.05067 C166.390025,145.084647 166.0662,145.102073 165.738302,145.102073 C160.738888,145.102073 156.686061,141.051005 156.686061,136.053758 C156.686061,131.056512 160.738888,127.005443 165.738302,127.005443 C166.478854,127.005443 167.198636,127.094331 167.887552,127.262015 C167.881156,127.122454 167.877923,126.982068 167.877923,126.840928 C167.877923,121.843682 171.930749,117.792613 176.930164,117.792613 C181.929578,117.792613 185.982405,121.843682 185.982405,126.840928 C185.982405,130.20046 184.150706,133.132361 181.431107,134.693244 Z" id="Combined-Shape" fill="#E4ECEF" fill-rule="nonzero"></path>
                <rect id="Rectangle-Copy-2" fill="#81A2AF" fill-rule="nonzero" x="44.4382737" y="222.09501" width="8.22930994" height="48.0383281"></rect>
                <rect id="Rectangle-Copy-4" fill="#81A2AF" fill-rule="nonzero" x="132.656476" y="222.09501" width="8.22930994" height="48.0383281"></rect>
                <path d="M40.2394848,227.819838 C39.6296308,227.949383 38.9970709,228.017544 38.3485843,228.017544 C33.3491697,228.017544 29.2963434,223.966475 29.2963434,218.969229 C29.2963434,217.818801 29.511134,216.718518 29.9028168,215.706263 C27.922249,214.046451 26.6629642,211.554878 26.6629642,208.76931 C26.6629642,207.453557 26.9439247,206.203397 27.4491479,205.075504 C25.7465636,203.430285 24.6879298,201.123413 24.6879298,198.569391 C24.6879298,196.144491 25.6422276,193.942383 27.1959088,192.317827 C25.6422276,190.693271 24.6879298,188.491164 24.6879298,186.066264 C24.6879298,181.069018 28.7407561,177.017949 33.7401708,177.017949 C34.3475549,177.017949 34.9409673,177.077743 35.5148378,177.191763 C39.2216505,171.99405 44.2858584,168.792208 49.8696182,168.792208 C55.7924319,168.792208 61.1306822,172.394696 64.8844454,178.160408 C66.1884918,177.432669 67.6911883,177.017949 69.2907897,177.017949 C74.2902043,177.017949 78.3430306,181.069018 78.3430306,186.066264 C78.3430306,189.596133 76.3208795,192.653908 73.3713353,194.145306 C74.8245369,195.750484 75.7096515,197.879191 75.7096515,200.214539 C75.7096515,203.316967 74.1475836,206.054713 71.7667196,207.684827 C71.9766463,208.449331 72.0887551,209.254293 72.0887551,210.085428 C72.0887551,213.740839 69.9202082,216.889978 66.7988831,218.317604 C66.8142049,218.532819 66.8219967,218.750114 66.8219967,218.969229 C66.8219967,223.966475 62.7691704,228.017544 57.7697558,228.017544 C57.4426484,228.017544 57.1195934,228.000201 56.8014607,227.966386 C55.3792949,231.10141 52.2208764,233.282018 48.5529287,233.282018 C44.8280946,233.282018 41.628717,231.033248 40.2394848,227.819838 Z" id="Combined-Shape-Copy-19" fill="#CDD5D9" fill-rule="nonzero"></path>
                <path d="M128.457687,227.819838 C127.847833,227.949383 127.215273,228.017544 126.566787,228.017544 C121.567372,228.017544 117.514546,223.966475 117.514546,218.969229 C117.514546,217.818801 117.729337,216.718518 118.121019,215.706263 C116.140452,214.046451 114.881167,211.554878 114.881167,208.76931 C114.881167,207.453557 115.162127,206.203397 115.66735,205.075504 C113.964766,203.430285 112.906132,201.123413 112.906132,198.569391 C112.906132,196.144491 113.86043,193.942383 115.414111,192.317827 C113.86043,190.693271 112.906132,188.491164 112.906132,186.066264 C112.906132,181.069018 116.958959,177.017949 121.958373,177.017949 C122.565757,177.017949 123.15917,177.077743 123.73304,177.191763 C127.439853,171.99405 132.504061,168.792208 138.087821,168.792208 C144.010635,168.792208 149.348885,172.394696 153.102648,178.160408 C154.406694,177.432669 155.909391,177.017949 157.508992,177.017949 C162.508407,177.017949 166.561233,181.069018 166.561233,186.066264 C166.561233,189.596133 164.539082,192.653908 161.589538,194.145306 C163.042739,195.750484 163.927854,197.879191 163.927854,200.214539 C163.927854,203.316967 162.365786,206.054713 159.984922,207.684827 C160.194849,208.449331 160.306958,209.254293 160.306958,210.085428 C160.306958,213.740839 158.138411,216.889978 155.017086,218.317604 C155.032407,218.532819 155.040199,218.750114 155.040199,218.969229 C155.040199,223.966475 150.987373,228.017544 145.987958,228.017544 C145.660851,228.017544 145.337796,228.000201 145.019663,227.966386 C143.597498,231.10141 140.439079,233.282018 136.771131,233.282018 C133.046297,233.282018 129.84692,231.033248 128.457687,227.819838 Z" id="Combined-Shape-Copy-21" fill="#CDD5D9" fill-rule="nonzero"></path>
                <path d="M52.6675836,262.894292 L52.6675836,278.65411 L27.321309,278.65411 C31.1026701,271.371876 34.6037419,266.729449 37.8245246,264.726829 C41.0453072,262.72421 45.9929936,262.113364 52.6675836,262.894292 Z" id="Rectangle-Copy-3" fill="#81A2AF" fill-rule="nonzero"></path>
                <path d="M140.885786,262.894292 L140.885786,278.65411 L115.539512,278.65411 C119.320873,271.371876 122.821945,266.729449 126.042727,264.726829 C129.26351,262.72421 134.211196,262.113364 140.885786,262.894292 Z" id="Rectangle-Copy-5" fill="#81A2AF" fill-rule="nonzero"></path>
                <path d="M40.8214424,278.629772 L26.9921366,278.629772 C30.7734977,271.48108 34.2745695,266.923786 37.4953522,264.95789 C37.5444911,264.927897 37.5940321,264.898221 37.643975,264.868864 C40.3647196,266.812227 42.1340669,269.967612 42.1340669,273.529812 C42.1340669,275.376531 41.6585368,277.113915 40.8214424,278.629772 Z" id="Combined-Shape-Copy-20" fill="#4A4A4A" fill-rule="nonzero"></path>
                <path d="M129.039645,278.629772 L115.210339,278.629772 C118.9917,271.48108 122.492772,266.923786 125.713555,264.95789 C125.762694,264.927897 125.812235,264.898221 125.862178,264.868864 C128.582922,266.812227 130.352269,269.967612 130.352269,273.529812 C130.352269,275.376531 129.876739,277.113915 129.039645,278.629772 Z" id="Combined-Shape-Copy-22" fill="#4A4A4A" fill-rule="nonzero"></path>
                <g id="Group" transform="translate(48.717515, 0.000000)" fill-rule="nonzero">
                    <path d="M0.337121705,27.2815128 C4.40398024,23.7230818 7.06091643,20.4154609 8.31873059,17.3839421 C9.60005056,14.2957708 10.7438953,8.77532494 11.726537,0.86635169 C11.8405801,-0.0515448816 13.0416311,-0.322597285 13.5391593,0.457280305 C20.1677576,10.847638 23.357436,18.6768955 23.0680921,24.0536892 C22.7774367,29.4548532 18.7790925,36.2555513 11.1191605,44.5508802 C10.670841,45.036388 9.88117808,44.953128 9.54406822,44.3848064 L0.13812449,28.5276595 C-0.104519055,28.1185953 -0.020865439,27.5947454 0.337121705,27.2815128 Z" id="Path" fill="#E4ECEF"></path>
                    <path d="M20.6686409,13.4902154 C22.4351406,17.6903938 23.245222,21.1964506 23.0930516,24.0241883 C22.8023961,29.4253523 18.804052,36.2260504 11.1441199,44.5213793 C10.6958005,45.0068871 9.90613756,44.9236271 9.5690277,44.3553055 L4.84320191,36.3882034 C9.4692839,34.5892401 12.7330061,32.3082907 14.6343684,29.5453553 C16.5230074,26.8009084 18.5344316,21.4491951 20.6686409,13.4902154 Z" id="Combined-Shape" fill="#81A2AF"></path>
                </g>
                <g id="Group-Copy" transform="translate(22.007788, 22.558052) scale(-1, 1) translate(-22.007788, -22.558052) translate(10.439991, 0.000000)" fill-rule="nonzero">
                    <path d="M0.337121705,27.2815128 C4.40398024,23.7230818 7.06091643,20.4154609 8.31873059,17.3839421 C9.60005056,14.2957708 10.7438953,8.77532494 11.726537,0.86635169 C11.8405801,-0.0515448816 13.0416311,-0.322597285 13.5391593,0.457280305 C20.1677576,10.847638 23.357436,18.6768955 23.0680921,24.0536892 C22.7774367,29.4548532 18.7790925,36.2555513 11.1191605,44.5508802 C10.670841,45.036388 9.88117808,44.953128 9.54406822,44.3848064 L0.13812449,28.5276595 C-0.104519055,28.1185953 -0.020865439,27.5947454 0.337121705,27.2815128 Z" id="Path" fill="#E4ECEF"></path>
                    <path d="M20.6686409,13.4902154 C22.4351406,17.6903938 23.245222,21.1964506 23.0930516,24.0241883 C22.8023961,29.4253523 18.804052,36.2260504 11.1441199,44.5213793 C10.6958005,45.0068871 9.90613756,44.9236271 9.5690277,44.3553055 L4.84320191,36.3882034 C9.4692839,34.5892401 12.7330061,32.3082907 14.6343684,29.5453553 C16.5230074,26.8009084 18.5344316,21.4491951 20.6686409,13.4902154 Z" id="Combined-Shape" fill="#81A2AF"></path>
                </g>
                <path d="M64.6493839,59.1484354 C67.3278938,60.7198247 69.1262035,63.6287609 69.1262035,66.9575327 C69.1262035,70.017768 67.6063348,72.7231728 65.2799543,74.3606997 C67.6063348,75.9982267 69.1262035,78.7036315 69.1262035,81.7638667 C69.1262035,84.6272742 67.7955568,87.1800273 65.7186388,88.8380041 C67.7955568,90.4959809 69.1262035,93.048734 69.1262035,95.9121415 C69.1262035,98.8720245 67.7043805,101.499967 65.5061896,103.150794 C67.7043805,104.80162 69.1262035,107.429563 69.1262035,110.389446 C69.1262035,113.159767 67.8806668,115.639303 65.9188088,117.299068 C67.8806668,118.958834 69.1262035,121.43837 69.1262035,124.208691 C69.1262035,125.19227 68.9691979,126.139195 68.6788714,127.02579 C68.8810984,127.012297 69.0851433,127.005443 69.2907897,127.005443 C71.9721795,127.005443 74.3812724,128.170779 76.0388239,130.022415 C77.6963753,128.170779 80.1054682,127.005443 82.786858,127.005443 C85.6515078,127.005443 88.2053685,128.335513 89.8640646,130.41153 C91.5227607,128.335513 94.0766213,127.005443 96.9412711,127.005443 C99.6226609,127.005443 102.031754,128.170779 103.689305,130.022415 C105.346857,128.170779 107.75595,127.005443 110.437339,127.005443 C113.118729,127.005443 115.527822,128.170779 117.185374,130.022415 C118.842925,128.170779 121.252018,127.005443 123.933408,127.005443 C126.614798,127.005443 129.02389,128.170779 130.681442,130.022415 C132.338993,128.170779 134.748086,127.005443 137.429476,127.005443 C140.294126,127.005443 142.847986,128.335513 144.506683,130.41153 C146.165379,128.335513 148.719239,127.005443 151.583889,127.005443 C154.265279,127.005443 156.674372,128.170779 158.331923,130.022415 C159.989475,128.170779 162.398568,127.005443 165.079957,127.005443 C170.079372,127.005443 174.132198,131.056512 174.132198,136.053758 C174.132198,139.530615 172.17033,142.549451 169.292763,144.064549 C173.209881,145.06019 176.107233,148.60902 176.107233,152.83427 C176.107233,155.894505 174.587364,158.59991 172.260984,160.237437 C174.587364,161.874964 176.107233,164.580369 176.107233,167.640604 C176.107233,170.065503 175.152935,172.267611 173.599254,173.892167 C175.152935,175.516723 176.107233,177.718831 176.107233,180.143731 C176.107233,183.672773 174.086028,186.729943 171.137608,188.221725 C171.992754,189.603239 172.486336,191.231946 172.486336,192.975887 C172.486336,196.900955 169.986044,200.242301 166.490623,201.495415 C166.750504,202.338638 166.890406,203.234435 166.890406,204.162895 C166.890406,209.160141 162.837579,213.21121 157.838165,213.21121 C155.412213,213.21121 153.20915,212.257326 151.583889,210.704319 C149.958628,212.257326 147.755565,213.21121 145.329614,213.21121 C142.735689,213.21121 140.396586,212.120658 138.746166,210.373227 C137.095745,212.120658 134.756643,213.21121 132.162718,213.21121 C129.736766,213.21121 127.533703,212.257326 125.908442,210.704319 C124.283181,212.257326 122.080118,213.21121 119.654167,213.21121 C117.228215,213.21121 115.025152,212.257326 113.399891,210.704319 C111.77463,212.257326 109.571567,213.21121 107.145615,213.21121 C104.719664,213.21121 102.516601,212.257326 100.89134,210.704319 C99.2660792,212.257326 97.0630158,213.21121 94.6370643,213.21121 C91.5755014,213.21121 88.8689228,211.692 87.2306854,209.366629 C85.592448,211.692 82.8858694,213.21121 79.8243064,213.21121 C77.3983549,213.21121 75.1952916,212.257326 73.5700309,210.704319 C71.9447701,212.257326 69.7417068,213.21121 67.3157553,213.21121 C62.7256565,213.21121 58.9334916,209.79633 58.3433097,205.369578 C57.6331515,205.548493 56.8896258,205.643528 56.1238938,205.643528 C52.0130532,205.643528 48.5422187,202.904525 47.4382981,199.152677 C46.4532269,199.520128 45.3869248,199.720994 44.2736875,199.720994 C39.2742729,199.720994 35.2214466,195.669926 35.2214466,190.672679 C35.2214466,189.678386 35.3818911,188.721551 35.6783131,187.82663 C35.3658901,187.859221 35.0487409,187.875927 34.727688,187.875927 C29.7282733,187.875927 25.675447,183.824858 25.675447,178.827612 C25.675447,177.342519 26.0333818,175.940989 26.6677238,174.704516 C22.8658091,173.631923 20.0795163,170.138935 20.0795163,165.995456 C20.0795163,164.09197 20.6675414,162.325764 21.6719229,160.868435 C18.7699951,159.361159 16.7877923,156.329098 16.7877923,152.83427 C16.7877923,150.063949 18.033329,147.584413 19.995187,145.924647 C18.033329,144.264882 16.7877923,141.785346 16.7877923,139.015025 C16.7877923,135.95479 18.307661,133.249385 20.6340415,131.611858 C18.307661,129.974331 16.7877923,127.268926 16.7877923,124.208691 C16.7877923,121.43837 18.033329,118.958834 19.995187,117.299068 C18.033329,115.639303 16.7877923,113.159767 16.7877923,110.389446 C16.7877923,107.429563 18.2096153,104.80162 20.4078061,103.150794 C18.2096153,101.499967 16.7877923,98.8720245 16.7877923,95.9121415 C16.7877923,93.048734 18.118439,90.4959809 20.195357,88.8380041 C18.118439,87.1800273 16.7877923,84.6272742 16.7877923,81.7638667 C16.7877923,78.7036315 18.307661,75.9982267 20.6340415,74.3606997 C18.307661,72.7231728 16.7877923,70.017768 16.7877923,66.9575327 C16.7877923,64.8211041 17.528545,62.8576124 18.7673292,61.3096737 C17.7276483,59.8366099 17.1169647,58.0393676 17.1169647,56.0995544 C17.1169647,53.9121173 17.8935114,51.9059738 19.18608,50.3415357 C17.8935114,48.7770975 17.1169647,46.770954 17.1169647,44.5835169 C17.1169647,39.9762395 20.5619325,36.1732285 25.0175603,35.607736 C25.0669277,30.6528546 29.1006379,26.6514012 34.0693432,26.6514012 C36.6632682,26.6514012 39.0023709,27.7419527 40.6527911,29.4893837 C42.3032114,27.7419527 44.642314,26.6514012 47.2362391,26.6514012 C52.181158,26.6514012 56.2000126,30.6146347 56.2870394,35.5366417 C61.2111818,35.6236307 65.1761347,39.6407424 65.1761347,44.5835169 C65.1761347,46.770954 64.399588,48.7770975 63.1070194,50.3415357 C64.399588,51.9059738 65.1761347,53.9121173 65.1761347,56.0995544 C65.1761347,57.1693662 64.9903923,58.1958143 64.6493839,59.1484354 Z" id="Combined-Shape" fill="#E4ECEF" fill-rule="nonzero"></path>
                <path d="M63.1366677,52.2831724 C63.9151579,52.0834558 64.5346818,51.8760306 64.9952392,51.660897 C65.6200865,51.369021 66.4169926,50.8195574 67.3859575,50.012506 C67.1367117,51.1527265 66.8364486,51.9798772 66.4851683,52.4939582 C66.1808796,52.9392695 65.6856605,53.3730636 64.999511,53.7953406 C65.113446,54.0792042 65.1761347,54.3891405 65.1761347,54.7137123 C65.1761347,56.0765977 64.0708185,57.1814346 62.7073418,57.1814346 C61.343865,57.1814346 60.2385488,56.0765977 60.2385488,54.7137123 C60.2385488,53.3508269 61.343865,52.24599 62.7073418,52.24599 C62.853778,52.24599 62.9972364,52.2587338 63.1366677,52.2831724 Z" id="Combined-Shape-Copy-15" fill="#000000" fill-rule="nonzero"></path>
                <path d="M17.7108768,52.2831724 C18.489367,52.0834558 19.1088909,51.8760306 19.5694484,51.660897 C20.1942957,51.369021 20.9912017,50.8195574 21.9601666,50.012506 C21.7109208,51.1527265 21.4106578,51.9798772 21.0593775,52.4939582 C20.7550887,52.9392695 20.2598696,53.3730636 19.5737201,53.7953406 C19.6876551,54.0792042 19.7503439,54.3891405 19.7503439,54.7137123 C19.7503439,56.0765977 18.6450276,57.1814346 17.2815509,57.1814346 C15.9180742,57.1814346 14.8127579,56.0765977 14.8127579,54.7137123 C14.8127579,53.3508269 15.9180742,52.24599 17.2815509,52.24599 C17.4279871,52.24599 17.5714456,52.2587338 17.7108768,52.2831724 Z" id="Combined-Shape-Copy-16" fill="#000000" fill-rule="nonzero" transform="translate(18.386462, 53.596970) scale(-1, 1) translate(-18.386462, -53.596970) "></path>
                <ellipse id="Oval" fill="#E0CBE1" fill-rule="nonzero" cx="40.9819635" cy="62.6801473" rx="7.40637895" ry="10.0354042"></ellipse>
                <path d="M41.5150862,62.3307219 C41.461275,63.6566448 41.4629226,64.6058246 41.5182559,65.1665748 C41.5844862,65.8377558 41.5925825,65.8488122 41.973368,65.9438095 C42.4191103,66.0550121 42.7081963,65.8694067 42.7961055,65.1547867 C42.829386,64.8842471 43.075776,64.691899 43.3464329,64.7251651 C43.6170898,64.7584312 43.8095213,65.0047143 43.7762408,65.2752538 C43.6141383,66.5929963 42.7420127,67.1529378 41.7342337,66.9015198 C41.2860705,66.7897133 41.0009169,66.627107 40.8174041,66.3297213 C40.6338913,66.627107 40.3487378,66.7897133 39.9005745,66.9015198 C38.8927956,67.1529378 38.02067,66.5929963 37.8585674,65.2752538 C37.8252869,65.0047143 38.0177185,64.7584312 38.2883754,64.7251651 C38.5590323,64.691899 38.8054222,64.8842471 38.8387027,65.1547867 C38.926612,65.8694067 39.2156979,66.0550121 39.6614402,65.9438095 C40.0422257,65.8488122 40.0503221,65.8377558 40.1165524,65.1665748 C40.1718858,64.6058227 40.1735332,63.6566382 40.1197215,62.3307081 C39.6044195,62.1845959 38.9892056,61.8928305 38.2605887,61.4591251 C38.0262909,61.3196605 37.9494623,61.0167485 38.0889874,60.7825523 C38.2285125,60.548356 38.5315559,60.4715608 38.7658538,60.6110254 C39.7159451,61.1765623 40.4149325,61.4530846 40.8174281,61.4530846 C41.2199236,61.4530846 41.918911,61.1765623 42.8690023,60.6110254 C43.1033002,60.4715608 43.4063436,60.548356 43.5458687,60.7825523 C43.6853938,61.0167485 43.6085653,61.3196605 43.3742674,61.4591251 C42.6456277,61.8928441 42.0303981,62.1846142 41.5150862,62.3307219 Z" id="Combined-Shape" fill="#4A4A4A" fill-rule="nonzero"></path>
                <path d="M29.8802498,27.6384902 C26.9573008,29.1388525 24.9574953,32.182287 24.9574953,35.6925985 M24.7929091,35.8571133 C21.3298169,35.8571133 18.4023312,38.4215322 17.4461371,41.9448878" id="Combined-Shape" stroke="#FFFFFF" stroke-width="0.98670879" stroke-linecap="round" fill-rule="nonzero"></path>
                <path d="M63.7850068,27.6384902 C60.8620578,29.1388525 58.8622523,32.182287 58.8622523,35.6925985 M58.6976661,35.8571133 C55.2345738,35.8571133 52.3070881,38.4215322 51.350894,41.9448878" id="Combined-Shape-Copy-18" stroke="#FFFFFF" stroke-width="0.98670879" stroke-linecap="round" fill-rule="nonzero" transform="translate(57.567950, 34.791689) scale(-1, 1) translate(-57.567950, -34.791689) "></path>
                <g id="goggles-gradient-colour-copy" transform="translate(0.000000, 36.522291)">
                    <g id="Right-Lens">
                        <use fill="black" fill-opacity="1" filter="url(#filter-4)" xlink:href="#path-3"></use>
                        <use fill="url(#linearGradient-2)" fill-rule="evenodd" xlink:href="#path-3"></use>
                    </g>
                    <g id="Left-Lens" fill-rule="nonzero">
                        <use fill="black" fill-opacity="1" filter="url(#filter-7)" xlink:href="#path-6"></use>
                        <use fill="url(#linearGradient-5)" xlink:href="#path-6"></use>
                    </g>
                    <g id="Right-Arm">
                        <use fill="black" fill-opacity="1" filter="url(#filter-10)" xlink:href="#path-9"></use>
                        <use fill="url(#linearGradient-8)" fill-rule="evenodd" xlink:href="#path-9"></use>
                    </g>
                    <g id="Bridge">
                        <use fill="black" fill-opacity="1" filter="url(#filter-13)" xlink:href="#path-12"></use>
                        <use fill="url(#linearGradient-11)" fill-rule="evenodd" xlink:href="#path-12"></use>
                    </g>
                    <g id="Left-Arm">
                        <use fill="black" fill-opacity="1" filter="url(#filter-16)" xlink:href="#path-15"></use>
                        <use fill="url(#linearGradient-14)" fill-rule="evenodd" xlink:href="#path-15"></use>
                    </g>
                </g>
                <rect id="Rectangle" fill="#81A2AF" fill-rule="nonzero" x="54.642618" y="222.09501" width="8.22930994" height="48.0383281"></rect>
                <rect id="Rectangle-Copy-6" fill="#81A2AF" fill-rule="nonzero" x="142.860821" y="222.09501" width="8.22930994" height="48.0383281"></rect>
                <path d="M50.4438292,227.819838 C49.8339751,227.949383 49.2014152,228.017544 48.5529287,228.017544 C43.553514,228.017544 39.5006877,223.966475 39.5006877,218.969229 C39.5006877,217.818801 39.7154783,216.718518 40.1071612,215.706263 C38.1265933,214.046451 36.8673085,211.554878 36.8673085,208.76931 C36.8673085,207.453557 37.148269,206.203397 37.6534922,205.075504 C35.9509079,203.430285 34.8922742,201.123413 34.8922742,198.569391 C34.8922742,196.144491 35.8465719,193.942383 37.4002531,192.317827 C35.8465719,190.693271 34.8922742,188.491164 34.8922742,186.066264 C34.8922742,181.069018 38.9451005,177.017949 43.9445151,177.017949 C44.5518992,177.017949 45.1453116,177.077743 45.7191821,177.191763 C49.4259948,171.99405 54.4902027,168.792208 60.0739626,168.792208 C65.9967763,168.792208 71.3350265,172.394696 75.0887897,178.160408 C76.3928362,177.432669 77.8955326,177.017949 79.495134,177.017949 C84.4945487,177.017949 88.547375,181.069018 88.547375,186.066264 C88.547375,189.596133 86.5252238,192.653908 83.5756796,194.145306 C85.0288812,195.750484 85.9139958,197.879191 85.9139958,200.214539 C85.9139958,203.316967 84.351928,206.054713 81.9710639,207.684827 C82.1809907,208.449331 82.2930994,209.254293 82.2930994,210.085428 C82.2930994,213.740839 80.1245525,216.889978 77.0032275,218.317604 C77.0185492,218.532819 77.0263411,218.750114 77.0263411,218.969229 C77.0263411,223.966475 72.9735147,228.017544 67.9741001,228.017544 C67.6469928,228.017544 67.3239377,228.000201 67.005805,227.966386 C65.5836393,231.10141 62.4252207,233.282018 58.757273,233.282018 C55.032439,233.282018 51.8330613,231.033248 50.4438292,227.819838 Z" id="Combined-Shape" fill="#E4ECEF" fill-rule="nonzero"></path>
                <path d="M138.662032,227.819838 C138.052178,227.949383 137.419618,228.017544 136.771131,228.017544 C131.771717,228.017544 127.71889,223.966475 127.71889,218.969229 C127.71889,217.818801 127.933681,216.718518 128.325364,215.706263 C126.344796,214.046451 125.085511,211.554878 125.085511,208.76931 C125.085511,207.453557 125.366472,206.203397 125.871695,205.075504 C124.16911,203.430285 123.110477,201.123413 123.110477,198.569391 C123.110477,196.144491 124.064775,193.942383 125.618456,192.317827 C124.064775,190.693271 123.110477,188.491164 123.110477,186.066264 C123.110477,181.069018 127.163303,177.017949 132.162718,177.017949 C132.770102,177.017949 133.363514,177.077743 133.937385,177.191763 C137.644197,171.99405 142.708405,168.792208 148.292165,168.792208 C154.214979,168.792208 159.553229,172.394696 163.306992,178.160408 C164.611039,177.432669 166.113735,177.017949 167.713337,177.017949 C172.712751,177.017949 176.765578,181.069018 176.765578,186.066264 C176.765578,189.596133 174.743426,192.653908 171.793882,194.145306 C173.247084,195.750484 174.132198,197.879191 174.132198,200.214539 C174.132198,203.316967 172.570131,206.054713 170.189267,207.684827 C170.399193,208.449331 170.511302,209.254293 170.511302,210.085428 C170.511302,213.740839 168.342755,216.889978 165.22143,218.317604 C165.236752,218.532819 165.244544,218.750114 165.244544,218.969229 C165.244544,223.966475 161.191717,228.017544 156.192303,228.017544 C155.865195,228.017544 155.54214,228.000201 155.224008,227.966386 C153.801842,231.10141 150.643423,233.282018 146.975476,233.282018 C143.250642,233.282018 140.051264,231.033248 138.662032,227.819838 Z" id="Combined-Shape-Copy-23" fill="#E4ECEF" fill-rule="nonzero"></path>
                <path d="M62.871928,262.894292 L62.871928,278.65411 L37.5256533,278.65411 C41.3070144,271.371876 44.8080863,266.729449 48.0288689,264.726829 C51.2496515,262.72421 56.1973379,262.113364 62.871928,262.894292 Z" id="Rectangle" fill="#81A2AF" fill-rule="nonzero"></path>
                <path d="M151.090131,262.894292 L151.090131,278.65411 L125.743856,278.65411 C129.525217,271.371876 133.026289,266.729449 136.247071,264.726829 C139.467854,262.72421 144.41554,262.113364 151.090131,262.894292 Z" id="Rectangle-Copy-7" fill="#81A2AF" fill-rule="nonzero"></path>
                <path d="M51.0257867,278.629772 L37.1964809,278.629772 C40.977842,271.48108 44.4789139,266.923786 47.6996965,264.95789 C47.7488355,264.927897 47.7983764,264.898221 47.8483193,264.868864 C50.5690639,266.812227 52.3384112,269.967612 52.3384112,273.529812 C52.3384112,275.376531 51.8628812,277.113915 51.0257867,278.629772 Z" id="Combined-Shape" fill="#4A4A4A" fill-rule="nonzero"></path>
                <path d="M139.243989,278.629772 L125.414684,278.629772 C129.196045,271.48108 132.697116,266.923786 135.917899,264.95789 C135.967038,264.927897 136.016579,264.898221 136.066522,264.868864 C138.787267,266.812227 140.556614,269.967612 140.556614,273.529812 C140.556614,275.376531 140.081084,277.113915 139.243989,278.629772 Z" id="Combined-Shape-Copy-24" fill="#4A4A4A" fill-rule="nonzero"></path>
                <path d="M28.3088262,84.2315891 C28.9296394,85.4838788 30.013292,86.1100236 31.559784,86.1100236 C33.106276,86.1100236 34.177727,85.4838788 34.7741369,84.2315891" id="Line-2" stroke="#81A2AF" stroke-width="1.31561172" stroke-linecap="round" stroke-linejoin="round" fill-rule="nonzero"></path>
                <path d="M49.3758597,96.4056859 C49.9966728,97.6579756 51.0803254,98.2841205 52.6268174,98.2841205 C54.1733094,98.2841205 55.2447604,97.6579756 55.8411704,96.4056859" id="Line-2-Copy-3" stroke="#81A2AF" stroke-width="1.31561172" stroke-linecap="round" stroke-linejoin="round" fill-rule="nonzero"></path>
                <path d="M31.6005502,131.940888 C32.2213633,133.193177 33.3050159,133.819322 34.8515079,133.819322 C36.3979999,133.819322 37.4694509,133.193177 38.0658609,131.940888" id="Line-2-Copy-4" stroke="#81A2AF" stroke-width="1.31561172" stroke-linecap="round" stroke-linejoin="round" fill-rule="nonzero"></path>
                <path d="M63.8594452,139.17954 C64.4802583,140.431829 65.5639109,141.057974 67.1104029,141.057974 C68.6568949,141.057974 69.7283459,140.431829 70.3247559,139.17954" id="Line-2-Copy-5" stroke="#81A2AF" stroke-width="1.31561172" stroke-linecap="round" stroke-linejoin="round" fill-rule="nonzero"></path>
                <path d="M115.210339,137.205362 C115.831152,138.457652 116.914805,139.083796 118.461297,139.083796 C120.007789,139.083796 121.07924,138.457652 121.67565,137.205362" id="Line-2-Copy-8" stroke="#81A2AF" stroke-width="1.31561172" stroke-linecap="round" stroke-linejoin="round" fill-rule="nonzero"></path>
                <path d="M149.444269,191.166224 C150.065082,192.418513 151.148734,193.044658 152.695226,193.044658 C154.241718,193.044658 155.313169,192.418513 155.909579,191.166224" id="Line-2-Copy-9" stroke="#81A2AF" stroke-width="1.31561172" stroke-linecap="round" stroke-linejoin="round" fill-rule="nonzero"></path>
                <path d="M94.8016505,189.192046 C95.4224637,190.444335 96.5061163,191.07048 98.0526083,191.07048 C99.5991003,191.07048 100.670551,190.444335 101.266961,189.192046" id="Line-2-Copy-10" stroke="#81A2AF" stroke-width="1.31561172" stroke-linecap="round" stroke-linejoin="round" fill-rule="nonzero"></path>
                <path d="M49.3758597,196.759728 C49.9966728,198.012017 51.0803254,198.638162 52.6268174,198.638162 C54.1733094,198.638162 55.2447604,198.012017 55.8411704,196.759728" id="Line-2-Copy-11" stroke="#81A2AF" stroke-width="1.31561172" stroke-linecap="round" stroke-linejoin="round" fill-rule="nonzero"></path>
                <path d="M81.963927,164.185793 C82.5847402,165.438082 83.6683928,166.064227 85.2148848,166.064227 C86.7613768,166.064227 87.8328278,165.438082 88.4292378,164.185793" id="Line-2-Copy-12" stroke="#81A2AF" stroke-width="1.31561172" stroke-linecap="round" stroke-linejoin="round" fill-rule="nonzero"></path>
                <path d="M142.860821,139.17954 C143.481634,140.431829 144.565286,141.057974 146.111778,141.057974 C147.65827,141.057974 148.729721,140.431829 149.326131,139.17954" id="Line-2-Copy-13" stroke="#81A2AF" stroke-width="1.31561172" stroke-linecap="round" stroke-linejoin="round" fill-rule="nonzero"></path>
                <path d="M64.1886175,166.81803 C64.8094307,168.07032 65.8930833,168.696464 67.4395753,168.696464 C68.9860673,168.696464 70.0575183,168.07032 70.6539283,166.81803" id="Line-2-Copy-6" stroke="#81A2AF" stroke-width="1.31561172" stroke-linecap="round" stroke-linejoin="round" fill-rule="nonzero"></path>
                <path d="M116.197856,162.211615 C116.81867,163.463905 117.902322,164.090049 119.448814,164.090049 C120.995306,164.090049 122.066757,163.463905 122.663167,162.211615" id="Line-2-Copy-7" stroke="#81A2AF" stroke-width="1.31561172" stroke-linecap="round" stroke-linejoin="round" fill-rule="nonzero"></path>
                <g id="Group-2" transform="translate(27.321309, 97.392775)" fill-rule="nonzero" stroke="#81A2AF" stroke-linecap="round" stroke-linejoin="round" stroke-width="1.31561172">
                    <path d="M1.59872116e-14,-1.08357767e-13 C0.620813168,1.25228971 1.70446576,1.87843456 3.25095776,1.87843456 C4.79744977,1.87843456 5.86890076,1.25228971 6.46531074,-1.08357767e-13" id="Line-2-Copy"></path>
                    <path d="M6.58344795,-1.08357767e-13 C7.20426112,1.25228971 8.28791371,1.87843456 9.83440572,1.87843456 C11.3808977,1.87843456 12.4523487,1.25228971 13.0487587,-1.08357767e-13" id="Line-2-Copy-2"></path>
                </g>
                <g id="Group-2-Copy-3" transform="translate(86.901513, 149.708488)" fill-rule="nonzero" stroke="#81A2AF" stroke-linecap="round" stroke-linejoin="round" stroke-width="1.31561172">
                    <path d="M1.59872116e-14,-1.08357767e-13 C0.620813168,1.25228971 1.70446576,1.87843456 3.25095776,1.87843456 C4.79744977,1.87843456 5.86890076,1.25228971 6.46531074,-1.08357767e-13" id="Line-2-Copy"></path>
                    <path d="M6.58344795,-1.08357767e-13 C7.20426112,1.25228971 8.28791371,1.87843456 9.83440572,1.87843456 C11.3808977,1.87843456 12.4523487,1.25228971 13.0487587,-1.08357767e-13" id="Line-2-Copy-2"></path>
                </g>
                <g id="Group-2-Copy-4" transform="translate(38.183998, 177.676008)" fill-rule="nonzero" stroke="#81A2AF" stroke-linecap="round" stroke-linejoin="round" stroke-width="1.31561172">
                    <path d="M1.59872116e-14,-1.08357767e-13 C0.620813168,1.25228971 1.70446576,1.87843456 3.25095776,1.87843456 C4.79744977,1.87843456 5.86890076,1.25228971 6.46531074,-1.08357767e-13" id="Line-2-Copy"></path>
                    <path d="M6.58344795,-1.08357767e-13 C7.20426112,1.25228971 8.28791371,1.87843456 9.83440572,1.87843456 C11.3808977,1.87843456 12.4523487,1.25228971 13.0487587,-1.08357767e-13" id="Line-2-Copy-2"></path>
                </g>
                <g id="Group-2-Copy" transform="translate(44.767446, 119.108731)" fill-rule="nonzero" stroke="#81A2AF" stroke-linecap="round" stroke-linejoin="round" stroke-width="1.31561172">
                    <path d="M1.59872116e-14,-1.08357767e-13 C0.620813168,1.25228971 1.70446576,1.87843456 3.25095776,1.87843456 C4.79744977,1.87843456 5.86890076,1.25228971 6.46531074,-1.08357767e-13" id="Line-2-Copy"></path>
                    <path d="M6.58344795,-1.08357767e-13 C7.20426112,1.25228971 8.28791371,1.87843456 9.83440572,1.87843456 C11.3808977,1.87843456 12.4523487,1.25228971 13.0487587,-1.08357767e-13" id="Line-2-Copy-2"></path>
                </g>
                <g id="Group-2-Copy-2" transform="translate(37.196481, 152.011696)" fill-rule="nonzero" stroke="#81A2AF" stroke-linecap="round" stroke-linejoin="round" stroke-width="1.31561172">
                    <path d="M1.59872116e-14,-1.08357767e-13 C0.620813168,1.25228971 1.70446576,1.87843456 3.25095776,1.87843456 C4.79744977,1.87843456 5.86890076,1.25228971 6.46531074,-1.08357767e-13" id="Line-2-Copy"></path>
                    <path d="M6.58344795,-1.08357767e-13 C7.20426112,1.25228971 8.28791371,1.87843456 9.83440572,1.87843456 C11.3808977,1.87843456 12.4523487,1.25228971 13.0487587,-1.08357767e-13" id="Line-2-Copy-2"></path>
                </g>
                <g id="Group-2-Copy-5" transform="translate(67.480342, 196.759728)" fill-rule="nonzero" stroke="#81A2AF" stroke-linecap="round" stroke-linejoin="round" stroke-width="1.31561172">
                    <path d="M1.59872116e-14,-1.08357767e-13 C0.620813168,1.25228971 1.70446576,1.87843456 3.25095776,1.87843456 C4.79744977,1.87843456 5.86890076,1.25228971 6.46531074,-1.08357767e-13" id="Line-2-Copy"></path>
                    <path d="M6.58344795,-1.08357767e-13 C7.20426112,1.25228971 8.28791371,1.87843456 9.83440572,1.87843456 C11.3808977,1.87843456 12.4523487,1.25228971 13.0487587,-1.08357767e-13" id="Line-2-Copy-2"></path>
                </g>
                <g id="Group-2-Copy-6" transform="translate(94.801651, 176.688919)" fill-rule="nonzero" stroke="#81A2AF" stroke-linecap="round" stroke-linejoin="round" stroke-width="1.31561172">
                    <path d="M1.59872116e-14,-1.08357767e-13 C0.620813168,1.25228971 1.70446576,1.87843456 3.25095776,1.87843456 C4.79744977,1.87843456 5.86890076,1.25228971 6.46531074,-1.08357767e-13" id="Line-2-Copy"></path>
                    <path d="M6.58344795,-1.08357767e-13 C7.20426112,1.25228971 8.28791371,1.87843456 9.83440572,1.87843456 C11.3808977,1.87843456 12.4523487,1.25228971 13.0487587,-1.08357767e-13" id="Line-2-Copy-2"></path>
                </g>
                <g id="Group-2-Copy-7" transform="translate(115.210339, 190.179135)" fill-rule="nonzero" stroke="#81A2AF" stroke-linecap="round" stroke-linejoin="round" stroke-width="1.31561172">
                    <path d="M1.59872116e-14,-1.08357767e-13 C0.620813168,1.25228971 1.70446576,1.87843456 3.25095776,1.87843456 C4.79744977,1.87843456 5.86890076,1.25228971 6.46531074,-1.08357767e-13" id="Line-2-Copy"></path>
                    <path d="M6.58344795,-1.08357767e-13 C7.20426112,1.25228971 8.28791371,1.87843456 9.83440572,1.87843456 C11.3808977,1.87843456 12.4523487,1.25228971 13.0487587,-1.08357767e-13" id="Line-2-Copy-2"></path>
                </g>
                <g id="Group-2-Copy-8" transform="translate(142.860821, 153.985874)" fill-rule="nonzero" stroke="#81A2AF" stroke-linecap="round" stroke-linejoin="round" stroke-width="1.31561172">
                    <path d="M1.59872116e-14,-1.08357767e-13 C0.620813168,1.25228971 1.70446576,1.87843456 3.25095776,1.87843456 C4.79744977,1.87843456 5.86890076,1.25228971 6.46531074,-1.08357767e-13" id="Line-2-Copy"></path>
                    <path d="M6.58344795,-1.08357767e-13 C7.20426112,1.25228971 8.28791371,1.87843456 9.83440572,1.87843456 C11.3808977,1.87843456 12.4523487,1.25228971 13.0487587,-1.08357767e-13" id="Line-2-Copy-2"></path>
                </g>
                <g id="Group-2-Copy-9" transform="translate(153.394337, 178.663097)" fill-rule="nonzero" stroke="#81A2AF" stroke-linecap="round" stroke-linejoin="round" stroke-width="1.31561172">
                    <path d="M1.59872116e-14,-1.08357767e-13 C0.620813168,1.25228971 1.70446576,1.87843456 3.25095776,1.87843456 C4.79744977,1.87843456 5.86890076,1.25228971 6.46531074,-1.08357767e-13" id="Line-2-Copy"></path>
                    <path d="M6.58344795,-1.08357767e-13 C7.20426112,1.25228971 8.28791371,1.87843456 9.83440572,1.87843456 C11.3808977,1.87843456 12.4523487,1.25228971 13.0487587,-1.08357767e-13" id="Line-2-Copy-2"></path>
                </g>
            </g>
        </g>
    </g>
</svg>