<?xml version="1.0" encoding="UTF-8"?>
<svg width="40px" height="74px" viewBox="0 0 40 74" version="1.1" xmlns="http://www.w3.org/2000/svg" xmlns:xlink="http://www.w3.org/1999/xlink">
    <!-- Generator: Sketch 52.6 (67491) - http://www.bohemiancoding.com/sketch -->
    <desc>Created with Sketch.</desc>
    <defs>
        <linearGradient x1="50%" y1="0%" x2="50%" y2="100%" id="linearGradient-1">
            <stop stop-color="#20A364" offset="0%"></stop>
            <stop stop-color="#50B848" offset="100%"></stop>
        </linearGradient>
    </defs>
    <g id="Page-1" stroke="none" stroke-width="1" fill="none" fill-rule="evenodd">
        <g id="logo-OM-mark">
            <g>
                <rect id="Rectangle" fill="url(#linearGradient-1)" fill-rule="nonzero" x="-1.13686838e-13" y="0" width="40" height="74"></rect>
                <path d="M12.797326,57.3802154 C12.5454755,56.9371234 12.6944663,56.3911275 13.1395684,56.1387103 C13.584047,55.8929516 14.133879,56.0424649 14.3907166,56.4752665 C14.6444372,56.9038309 14.4904593,57.4595119 14.0547082,57.6998228 C13.9069642,57.7833565 13.7536097,57.8299659 13.5971383,57.8299659 C13.2810784,57.8299659 12.9762396,57.6604772 12.797326,57.3802154 M15.9666522,54.692608 C15.5776554,53.9970988 14.0858778,54.224698 14.5702536,55.2162072 C13.9774075,54.8899414 13.2318304,54.8717819 12.6040744,55.2289189 C11.6602586,55.7694669 11.3317308,56.9698105 11.8728353,57.8995774 C12.4289012,58.8390293 13.6407757,59.145925 14.5858384,58.6180886 C15.2135944,58.2609516 15.5751619,57.6108412 15.5776554,56.9455978 C16.2147623,57.8565999 17.1641887,56.6907594 16.7490094,56.0170416 C17.1330191,55.7258841 17.8935576,55.2579741 18.5842762,54.8445426 C18.6198096,54.3391029 18.6428751,53.8239782 18.6547195,53.3070375 C17.8181271,53.7725262 16.5725894,54.436559 15.9666522,54.692608 M21.5029987,43.2799618 C22.3246297,43.6419414 23.2061063,44.2266776 24.0333478,45.0462768 C24.8094712,45.8089761 25.4154084,46.6110211 25.78508,47.3664567 C25.4864751,48.5492461 23.4847626,50.242923 21.2442909,51.7283708 C21.2386804,52.0183177 21.2386804,52.2913156 21.2386804,52.5092297 C21.2386804,52.7955446 21.2386804,53.0758064 21.2442909,53.3681745 C23.9030588,52.0183177 26.7850012,50.9493279 28.0959951,51.3185712 C28.5760071,52.0183177 28.9855758,52.931741 29.2685959,53.9710702 C29.5653306,55.0884853 29.6513587,56.1278146 29.5578499,57.0024976 C30.0871099,57.6810579 30.6668647,58.2028412 31.2085925,58.5448453 C31.5321331,56.8796183 31.7241379,55.1187512 31.7241379,53.2997737 C31.7241379,51.0982359 31.474781,48.9868903 31.0072369,47.0383749 C29.5179528,45.6570416 27.7880393,44.3858759 25.8467959,43.2920682 C24.2446778,42.3804608 22.5939351,41.670424 20.9768556,41.1111111 C20.9974276,41.7472993 21.1782113,42.4948657 21.5029987,43.2799618 M25.880459,57.6998228 C25.4372272,57.4595119 25.2851194,56.9038309 25.5432038,56.4752665 C25.7869502,56.0424649 26.3517436,55.8929516 26.7887415,56.1387103 C27.2363372,56.3911275 27.3834577,56.9371234 27.1316073,57.3802154 C26.9576808,57.6604772 26.6540888,57.8299659 26.3374056,57.8299659 C26.17283,57.8299659 26.0219691,57.7833565 25.880459,57.6998228 M21.3147342,54.8263831 C22.0235312,55.2446571 22.7846932,55.7246735 23.184911,56.0170416 C22.768485,56.6907594 23.7160412,57.8565999 24.3462907,56.9455978 C24.3606287,57.6108412 24.7109752,58.2609516 25.3362376,58.6180886 C25.5787372,58.7476264 25.8424321,58.8390293 26.094906,58.8608207 L26.5643203,58.8608207 C27.1602833,58.788788 27.7219597,58.454653 28.0536044,57.8995774 C28.6084235,56.9698105 28.2780256,55.7779414 27.3273524,55.2289189 C26.6933625,54.8717819 25.9571363,54.8899414 25.368654,55.2162072 C25.8467959,54.224698 24.3543948,53.9970988 23.9678916,54.692608 C23.3463696,54.4280845 22.0846237,53.770105 21.2442909,53.2997737 C21.2573822,53.8082399 21.2835646,54.3185222 21.3147342,54.8263831 M14.0858778,43.2920682 C12.1489981,44.3858759 10.4147209,45.6570416 8.93104732,47.0383749 C8.60688335,48.3845999 8.38682589,49.8204117 8.27586207,51.2992011 L8.27586207,55.225287 C8.35877324,56.3693361 8.51275112,57.4752502 8.72158752,58.5448453 C9.28077037,58.2028412 9.84556374,57.6810579 10.37046,57.0024976 C10.2763278,56.1278146 10.3648495,55.0884853 10.6653245,53.9710702 C10.9470978,52.931741 11.3448221,52.0183177 11.8316914,51.3185712 C13.1395684,50.9493279 16.0077961,52.0183177 18.6547195,53.3512256 C18.6547195,53.0612788 18.6659406,52.7955446 18.6659406,52.5092297 C18.6659406,52.2816305 18.6659406,52.0086326 18.6547195,51.7114219 C16.4242221,50.2332379 14.4480687,48.5492461 14.1532041,47.3664567 C14.5259927,46.6110211 15.128813,45.802923 15.9024428,45.0462768 C16.7309311,44.2266776 17.6055504,43.6419414 18.4271814,43.2799618 C18.7513453,42.4948657 18.9364928,41.7472993 18.9583116,41.1111111 C17.3293876,41.670424 15.6873725,42.3804608 14.0858778,43.2920682 M19.0381058,46.0601827 C19.0381058,45.5583749 19.4395704,45.1534179 19.9476351,45.1534179 C20.4594401,45.1534179 20.864645,45.5583749 20.864645,46.0601827 C20.864645,46.5595692 20.4594401,46.9633156 19.9476351,46.9633156 C19.4439341,46.9633156 19.0381058,46.5595692 19.0381058,46.0601827 M17.975222,46.0601827 C17.975222,46.7780886 18.356738,47.3906694 18.9364928,47.7369107 C17.8243611,47.8222604 18.3611018,49.2084363 19.1771222,49.1951193 C19.2550463,49.9227103 19.2986837,51.5927798 19.2986837,52.5092297 C19.2986837,55.9220068 18.8230354,60.0817451 17.6379668,61.2112665 C16.7808025,61.2814833 15.7715304,61.1622359 14.7148806,60.8880273 C13.584047,60.5883954 12.6159189,60.1362236 11.9040049,59.6235201 C11.0412301,59.7330825 10.2931594,59.9534179 9.71153441,60.2494179 C11.0219049,61.3583586 12.4719153,62.403741 14.0783971,63.3092952 C15.9491972,64.3740477 17.879843,65.2039373 19.7737086,65.7777778 L20.1246784,65.7777778 C22.027895,65.2039373 23.9466963,64.3740477 25.8249771,63.3092952 C27.4314589,62.403741 28.8827161,61.3583586 30.179372,60.2494179 C29.6114616,59.9606817 28.8633909,59.7330825 28.003733,59.6235201 C27.2743641,60.1362236 26.3224441,60.5883954 25.1822597,60.8880273 C24.1299736,61.1622359 23.1138443,61.2814833 22.267901,61.2112665 C21.0772218,60.0817451 20.5984566,55.9220068 20.5984566,52.5092297 C20.5984566,51.5927798 20.6396004,49.9227103 20.7274987,49.1951193 C21.5291812,49.2084363 22.0790131,47.8222604 20.9612708,47.7369107 C21.5466362,47.3906694 21.9399967,46.7780886 21.9399967,46.0601827 C21.9399967,44.9809025 21.0491691,44.1044035 19.9476351,44.1044035 C18.8523349,44.1044035 17.975222,44.9809025 17.975222,46.0601827" id="Fill-14" fill="#FFFFFF"></path>
            </g>
        </g>
    </g>
</svg>