<?xml version="1.0" encoding="UTF-8"?>
<svg width="144px" height="145px" viewBox="0 0 144 145" version="1.1" xmlns="http://www.w3.org/2000/svg" xmlns:xlink="http://www.w3.org/1999/xlink">
    <!-- Generator: Sketch 52.6 (67491) - http://www.bohemiancoding.com/sketch -->
    <desc>Created with Sketch.</desc>
    <defs>
        <circle id="path-1" cx="41.4" cy="41.4" r="41.4"></circle>
        <filter x="-65.8%" y="-50.1%" width="231.6%" height="231.6%" filterUnits="objectBoundingBox" id="filter-2">
            <feOffset dx="0" dy="13" in="SourceAlpha" result="shadowOffsetOuter1"></feOffset>
            <feGaussianBlur stdDeviation="16" in="shadowOffsetOuter1" result="shadowBlurOuter1"></feGaussianBlur>
            <feColorMatrix values="0 0 0 0 0   0 0 0 0 0   0 0 0 0 0  0 0 0 0.07 0" type="matrix" in="shadowBlurOuter1"></feColorMatrix>
        </filter>
    </defs>
    <g id="Page-1" stroke="none" stroke-width="1" fill="none" fill-rule="evenodd">
        <g id="icon/insured" transform="translate(30.000000, 18.000000)" fill-rule="nonzero">
            <g id="Oval-Copy-10">
                <use fill="black" fill-opacity="1" filter="url(#filter-2)" xlink:href="#path-1"></use>
                <use fill="#FFFFFF" xlink:href="#path-1"></use>
            </g>
            <g id="umbrella-(1)" transform="translate(24.000000, 24.000000)" fill="#FDC448">
                <path d="M33.7486523,16.0721055 C32.4164102,8.42084375 25.9704883,2.55305469 18.0625,2.088875 L18.0625,0.99609375 C18.0625,0.445984375 17.6165156,0 17.0664062,0 C16.5162969,0 16.0703125,0.445984375 16.0703125,0.99609375 L16.0703125,2.08874219 C8.18948437,2.54900391 1.59687109,8.38637891 0.251613281,16.071707 C0.05046875,16.428375 0,16.7592773 0,17 C0,17.5501094 0.445984375,17.9960938 0.99609375,17.9960938 C1.37281641,17.9960938 2.02964062,17.7319297 2.114375,17.0715859 C2.12247656,17.0083008 2.13197266,16.9455469 2.14087109,16.8825273 C2.58313672,16.5359531 3.893,16.0039062 5.9765625,16.0039062 C8.40855859,16.0039062 9.78755078,16.7289961 9.96166797,17.0375859 C9.97992969,17.5186328 10.3445664,17.9678047 10.9566328,17.9971562 C11.5045508,18.022457 11.9689961,17.6009766 11.9976172,17.0541211 C12.3613242,16.7316523 13.7552578,16.1637461 16.0703125,16.0320625 L16.0703125,30.015625 C16.0703125,32.2126094 17.8577031,34 20.0546875,34 C22.2516719,34 24.0390625,32.2126094 24.0390625,30.015625 L24.0390625,29.0195312 C24.0390625,28.4694219 23.5930781,28.0234375 23.0429688,28.0234375 C22.4928594,28.0234375 22.046875,28.4694219 22.046875,29.0195312 L22.046875,30.015625 C22.046875,31.1141172 21.1531797,32.0078125 20.0546875,32.0078125 C18.9561953,32.0078125 18.0625,31.1141172 18.0625,30.015625 L18.0625,16.0328594 C20.3129414,16.164875 21.6551445,16.721957 22.0013203,17.038582 C22.0014531,17.0419687 22.0016523,17.0452891 22.0018516,17.0486758 C22.0267539,17.5824492 22.467293,17.9983516 22.9960859,17.9983516 C23.6238242,17.9983516 24.0194062,17.5361641 24.038332,17.0376523 C24.2124492,16.7289961 25.5914414,16.0039062 28.0234375,16.0039062 C30.1070664,16.0039062 31.4169297,16.5359531 31.8591289,16.8825273 C31.8674297,16.9409648 31.8762617,16.9991367 31.8838984,17.0578398 C31.9651133,17.6871719 32.5982969,17.9960938 33.0039062,17.9960938 C33.5540156,17.9960938 34,17.5501094 34,17 C34,16.7593437 33.9495312,16.4286406 33.7486523,16.0721055 Z M10.1686562,14.7962422 C8.94087109,14.2264102 7.35110547,14.0117188 5.9765625,14.0117188 C4.78895313,14.0117188 3.64955469,14.1669766 2.69669141,14.453918 C4.26414453,9.56223437 8.30151172,5.81021484 13.2825117,4.52850781 C11.4092578,7.26909375 10.5079922,11.4860898 10.1686562,14.7962422 Z M17.0664062,14.0117188 C15.4935742,14.0117188 13.6420352,14.2094102 12.1772461,14.7438477 C12.911168,8.03814453 15.2588945,4.05078125 17.0664062,4.05078125 C18.9403906,4.05078125 21.128875,8.24925 21.8235508,14.7206055 C20.5176719,14.239293 18.7883203,14.0117188 17.0664062,14.0117188 Z M28.0234375,14.0117188 C26.6547383,14.0117188 25.0657031,14.2245508 23.8341992,14.7949141 C23.5068828,11.5153086 22.6451953,7.27447266 20.818625,4.53030078 C25.7480937,5.81380078 29.7483398,9.56528906 31.305832,14.4546484 C30.3524375,14.1673086 29.2121094,14.0117188 28.0234375,14.0117188 Z" id="Shape"></path>
            </g>
        </g>
    </g>
</svg>