<?xml version="1.0" encoding="UTF-8"?>
<svg width="56.8523154px" height="3.60655738px" viewBox="0 0 56.8523154 3.60655738" version="1.1" xmlns="http://www.w3.org/2000/svg" xmlns:xlink="http://www.w3.org/1999/xlink">
    <!-- Generator: Sketch 52.6 (67491) - http://www.bohemiancoding.com/sketch -->
    <desc>Created with Sketch.</desc>
    <g id="Page-1" stroke="none" stroke-width="1" fill="none" fill-rule="evenodd">
        <g id="Fill-271-Copy-3" fill="#BD4D9C">
            <path d="M2.39621553,3.60655738 L1.71203294,3.60655738 C0.766158387,3.60655738 0,2.79845827 0,1.80327869 C0,0.80699212 0.766158387,0 1.71203294,0 L2.39621553,0 C3.34209008,0 4.10929944,0.80699212 4.10929944,1.80327869 C4.10929944,2.79845827 3.34209008,3.60655738 2.39621553,3.60655738 Z M28.768249,3.60655738 L28.0830154,3.60655738 C27.1371409,3.60655738 26.3709825,2.79845827 26.3709825,1.80327869 C26.3709825,0.80699212 27.1371409,0 28.0830154,0 L28.768249,0 C29.7141235,0 30.4802819,0.80699212 30.4802819,1.80327869 C30.4802819,2.79845827 29.7141235,3.60655738 28.768249,3.60655738 Z M55.1392315,3.60655738 L54.4539979,3.60655738 C53.5091743,3.60655738 52.741965,2.79845827 52.741965,1.80327869 C52.741965,0.80699212 53.5091743,0 54.4539979,0 L55.1392315,0 C56.085106,0 56.8523154,0.80699212 56.8523154,1.80327869 C56.8523154,2.79845827 56.085106,3.60655738 55.1392315,3.60655738 Z" id="Fill-270"></path>
        </g>
    </g>
</svg>