<?xml version="1.0" encoding="UTF-8"?>
<svg width="28px" height="29px" viewBox="0 0 28 29" version="1.1" xmlns="http://www.w3.org/2000/svg" xmlns:xlink="http://www.w3.org/1999/xlink">
    <!-- Generator: Sketch 52.6 (67491) - http://www.bohemiancoding.com/sketch -->
    <desc>Created with Sketch.</desc>
    <g id="Page-1" stroke="none" stroke-width="1" fill="none" fill-rule="evenodd">
        <g id="Group-6-Copy-2" fill="#13C6B9" fill-rule="nonzero">
            <path d="M14.0005507,11.6 C13.0092131,11.6 12.2051282,10.8077572 12.2051282,9.8296796 L12.2051282,1.76923365 C12.2051282,0.792242833 13.0092131,0 14.0005507,0 C14.9918883,0 15.7948718,0.792242833 15.7948718,1.76923365 L15.7948718,9.8296796 C15.7948718,10.8077572 14.9918883,11.6 14.0005507,11.6" id="Fill-265-Copy"></path>
            <path d="M14.0005507,29 C13.0092131,29 12.2051282,28.2078314 12.2051282,27.2298454 L12.2051282,19.1701546 C12.2051282,18.1932553 13.0092131,17.4 14.0005507,17.4 C14.9918883,17.4 15.7948718,18.1932553 15.7948718,19.1701546 L15.7948718,27.2298454 C15.7948718,28.2078314 14.9918883,29 14.0005507,29" id="Fill-266-Copy"></path>
            <path d="M26.24615,16.675 L18.2655945,16.675 C17.2972111,16.675 16.5128205,15.8627686 16.5128205,14.8625 C16.5128205,13.8611188 17.2972111,13.05 18.2655945,13.05 L26.24615,13.05 C27.2145334,13.05 28,13.8611188 28,14.8625 C28,15.8627686 27.2145334,16.675 26.24615,16.675" id="Fill-267-Copy"></path>
            <path d="M9.73332949,16.675 L1.75385,16.675 C0.785466563,16.675 0,15.8627686 0,14.8625 C0,13.8611188 0.785466563,13.05 1.75385,13.05 L9.73332949,13.05 C10.7017129,13.05 11.4871795,13.8611188 11.4871795,14.8625 C11.4871795,15.8627686 10.7017129,16.675 9.73332949,16.675" id="Fill-268-Copy"></path>
        </g>
    </g>
</svg>