<?xml version="1.0" encoding="UTF-8"?>
<svg width="14.3929912px" height="25.2459016px" viewBox="0 0 14.3929912 25.2459016" version="1.1" xmlns="http://www.w3.org/2000/svg" xmlns:xlink="http://www.w3.org/1999/xlink">
    <!-- Generator: Sketch 52.6 (67491) - http://www.bohemiancoding.com/sketch -->
    <desc>Created with Sketch.</desc>
    <g id="Page-1" stroke="none" stroke-width="1" fill="none" fill-rule="evenodd">
        <g id="Group-12-Copy" fill="#403669">
            <g id="Group-9">
                <path d="M7.19604409,25.2459016 C6.75022578,25.2459016 6.32298324,25.0595323 6.00719527,24.7260292 L0.492257713,18.9017141 C-0.164085904,18.207461 -0.164085904,17.0837954 0.492257713,16.3895423 C1.14860133,15.6952892 2.21361173,15.6952892 2.87098733,16.3895423 L7.19604409,20.9583164 L11.5221328,16.3895423 C12.1795084,15.6952892 13.2434868,15.6952892 13.8998305,16.3895423 C14.5572061,17.0837954 14.5572061,18.207461 13.9008624,18.9017141 L8.38592489,24.7260292 C8.07013692,25.0595323 7.64289438,25.2459016 7.19604409,25.2459016" id="Fill-244"></path>
                <path d="M7.19597963,9.37704918 C6.76564498,9.37704918 6.33531033,9.20481322 6.00817344,8.85816108 L0.492253303,3.0326611 C-0.164084434,2.33826674 -0.164084434,1.21437256 0.492253303,0.519978198 C1.14962302,-0.173326066 2.2135919,-0.173326066 2.86992964,0.519978198 L7.19597963,5.08968177 L11.5220296,0.519978198 C12.1793993,-0.173326066 13.2433682,-0.173326066 13.9007379,0.519978198 C14.5570757,1.21437256 14.5570757,2.33826674 13.9007379,3.0326611 L8.38584977,8.85816108 C8.05664893,9.20481322 7.62631428,9.37704918 7.19597963,9.37704918" id="Fill-245"></path>
            </g>
        </g>
    </g>
</svg>