<?xml version="1.0" encoding="UTF-8"?>
<svg width="130px" height="131px" viewBox="0 0 130 131" version="1.1" xmlns="http://www.w3.org/2000/svg" xmlns:xlink="http://www.w3.org/1999/xlink">
    <!-- Generator: Sketch 52.6 (67491) - http://www.bohemiancoding.com/sketch -->
    <desc>Created with Sketch.</desc>
    <defs>
        <circle id="path-1" cx="37.26" cy="37.26" r="37.26"></circle>
        <filter x="-66.4%" y="-50.3%" width="232.9%" height="232.9%" filterUnits="objectBoundingBox" id="filter-2">
            <feOffset dx="0" dy="12" in="SourceAlpha" result="shadowOffsetOuter1"></feOffset>
            <feGaussianBlur stdDeviation="14.5" in="shadowOffsetOuter1" result="shadowBlurOuter1"></feGaussianBlur>
            <feColorMatrix values="0 0 0 0 0   0 0 0 0 0   0 0 0 0 0  0 0 0 0.07 0" type="matrix" in="shadowBlurOuter1"></feColorMatrix>
        </filter>
    </defs>
    <g id="Page-1" stroke="none" stroke-width="1" fill="none" fill-rule="evenodd">
        <g id="icon/read-only-copy" transform="translate(28.000000, 16.000000)">
            <g id="Oval-Copy-9" fill-rule="nonzero">
                <use fill="black" fill-opacity="1" filter="url(#filter-2)" xlink:href="#path-1"></use>
                <use fill="#FFFFFF" xlink:href="#path-1"></use>
            </g>
            <g id="no-touch" transform="translate(19.440000, 19.440000)" fill="#13C6B9">
                <path d="M17.415,0 C7.81205607,0 0,7.81205607 0,17.415 C0,27.0179439 7.81205607,34.83 17.415,34.83 C27.0179439,34.83 34.83,27.0179439 34.83,17.415 C34.83,7.81205607 27.0179439,0 17.415,0 Z M17.415,33.3787727 C8.61314607,33.3787727 1.45122732,26.2168539 1.45122732,17.415 C1.45122732,13.2745838 3.04905357,9.51001857 5.64246,6.669945 L13.0598214,14.0873064 L13.0598214,18.8633702 L11.8509075,17.7531639 C10.4824014,16.3831613 8.09219268,16.3817327 6.72076143,17.7531639 C6.44790375,18.0260216 6.4363391,18.4642538 6.69463893,18.7516013 L12.5475075,25.2575323 C14.0901636,26.8001884 16.1146573,27.5708021 18.1406477,27.5708021 C20.16657,27.5708021 22.1910637,26.7987598 23.7322912,25.2575323 C23.8150125,25.1733825 23.8803187,25.0732463 23.9572577,24.9846746 L28.160055,29.187472 C25.3199814,31.7809464 21.5554162,33.3787727 17.415,33.3787727 Z M13.2934273,21.0489527 C13.5053325,21.2434429 13.8115236,21.2956879 14.0771023,21.1795652 C14.3412525,21.0634425 14.5110488,20.8022175 14.5110488,20.51487 L14.5110488,15.5385337 L22.9428339,23.9703189 C22.8673916,24.0603191 22.7890241,24.1488227 22.7063029,24.2315439 C20.1869102,26.7480114 16.0900314,26.74944 13.5996864,24.259095 L8.306955,18.372825 C9.11532393,17.9664977 10.1587273,18.1101714 10.8451913,18.7994925 L13.2934273,21.0489527 Z M29.1861114,28.1614836 L24.4245375,23.3999096 C24.4231089,23.3984811 24.4231089,23.3969845 24.4216123,23.3955559 L14.2991436,13.2730871 C14.297715,13.2716586 14.297715,13.2716586 14.2962184,13.2716586 L6.66851643,5.64388857 C9.50859,3.04905357 13.2745838,1.45122732 17.415,1.45122732 C26.2168539,1.45122732 33.3787727,8.61314607 33.3787727,17.415 C33.3787727,21.5554163 31.7809464,25.32141 29.1861114,28.1614836 Z" id="Shape" fill-rule="nonzero"></path>
                <path d="M23.945625,10.1572988 C23.6582775,10.1572988 23.3869164,10.2168227 23.1358275,10.3169589 C22.8847386,9.39246732 22.0459614,8.7075 21.0431023,8.7075 C20.7571834,8.7075 20.4843937,8.76702393 20.2333048,8.86716018 C19.9822159,7.9427366 19.1434387,7.25627268 18.1405796,7.25627268 C17.1377205,7.25627268 16.2989434,7.9427366 16.0478545,8.86716018 C15.7968336,8.76702393 15.5240439,8.7075 15.238125,8.7075 C14.5807087,8.7075 13.9624762,9.01804482 13.5387339,9.560835 C13.2934954,9.87723018 13.3485975,10.3328773 13.6649927,10.5796125 C13.9798912,10.8248511 14.437035,10.7697489 14.6837702,10.4533537 C14.7694166,10.3430814 14.9551312,10.1587273 15.238125,10.1587273 C15.63867,10.1587273 15.9637727,10.48383 15.9637727,10.884375 L15.9637727,12.5852627 L15.9637727,13.06125 C15.9637727,13.461795 16.2888754,13.7868977 16.6894204,13.7868977 C17.0899654,13.7868977 17.415,13.461795 17.415,13.06125 L17.415,12.5852627 L17.415,10.884375 L17.415,9.43314768 C17.415,9.03260268 17.7401027,8.7075 18.1406477,8.7075 C18.5411927,8.7075 18.8662954,9.03260268 18.8662954,9.43314768 L18.8662954,10.884375 L18.8662954,15.238125 C18.8662954,15.63867 19.191398,15.9637727 19.591943,15.9637727 C19.992488,15.9637727 20.3175907,15.63867 20.3175907,15.238125 L20.3175907,10.884375 C20.3175907,10.48383 20.6426934,10.1587273 21.0432384,10.1587273 C21.4437834,10.1587273 21.76875,10.48383 21.76875,10.884375 L21.76875,12.3341737 L21.76875,15.238125 L21.76875,16.6879237 C21.76875,17.0884688 22.0938527,17.4135714 22.4943977,17.4135714 C22.8949427,17.4135714 23.2200454,17.0884688 23.2200454,16.6879237 L23.2200454,15.238125 L23.2200454,12.3341737 C23.2200454,11.9336287 23.545148,11.6085261 23.945693,11.6085261 C24.346238,11.6085261 24.6713407,11.9336287 24.6713407,12.3341737 L24.6713407,19.5904464 C24.6713407,20.0185425 24.6176671,20.462625 24.5073268,20.9488164 C24.4188232,21.3406539 24.6640618,21.7281377 25.0544707,21.8181379 C25.1081443,21.8297705 25.1618859,21.8355529 25.2155595,21.8355529 C25.5464445,21.8355529 25.8468532,21.6077293 25.9222955,21.2695654 C26.0572618,20.6760268 26.122568,20.1274543 26.122568,19.5904464 L26.122568,12.3341737 C26.1225,11.1339673 25.1458314,10.1572988 23.945625,10.1572988 Z" id="Path"></path>
            </g>
        </g>
    </g>
</svg>