<?xml version="1.0" encoding="UTF-8"?>
<svg width="130px" height="131px" viewBox="0 0 130 131" version="1.1" xmlns="http://www.w3.org/2000/svg" xmlns:xlink="http://www.w3.org/1999/xlink">
    <!-- Generator: Sketch 52.6 (67491) - http://www.bohemiancoding.com/sketch -->
    <desc>Created with Sketch.</desc>
    <defs>
        <circle id="path-1" cx="37.26" cy="37.26" r="37.26"></circle>
        <filter x="-66.4%" y="-50.3%" width="232.9%" height="232.9%" filterUnits="objectBoundingBox" id="filter-2">
            <feOffset dx="0" dy="12" in="SourceAlpha" result="shadowOffsetOuter1"></feOffset>
            <feGaussianBlur stdDeviation="14.5" in="shadowOffsetOuter1" result="shadowBlurOuter1"></feGaussianBlur>
            <feColorMatrix values="0 0 0 0 0   0 0 0 0 0   0 0 0 0 0  0 0 0 0.07 0" type="matrix" in="shadowBlurOuter1"></feColorMatrix>
        </filter>
    </defs>
    <g id="Page-1" stroke="none" stroke-width="1" fill="none" fill-rule="evenodd">
        <g id="icon/read-only" transform="translate(28.000000, 16.000000)">
            <g id="Oval-Copy-9" fill-rule="nonzero">
                <use fill="black" fill-opacity="1" filter="url(#filter-2)" xlink:href="#path-1"></use>
                <use fill="#FFFFFF" xlink:href="#path-1"></use>
            </g>
            <g id="Icon/entrust" transform="translate(12.600000, 15.300000)">
                <path d="M10.3097526,32.7064903 C13.2182683,37.8936347 18.7756903,41.4 25.1534194,41.4 C31.504093,41.4 37.0414046,37.9233209 39.959928,32.7724138 M40.5,11.4624427 C37.7644353,5.74780494 31.9207179,1.8 25.1534194,1.8 C18.4619787,1.8 12.6735294,5.65979542 9.9,11.2709376" id="Shape" stroke="#6A668F" stroke-width="1.458" stroke-linecap="round" stroke-linejoin="round" fill-rule="nonzero"></path>
                <path d="M1.41822,27 C0.96624,27 0.61632,26.6355 0.61632,26.1981 L0.61632,17.5959 C0.61632,17.14392 0.96624,16.794 1.41822,16.794 L6.18588,16.794 C6.6087,16.794 6.98778,17.14392 6.98778,17.5959 C6.98778,18.04788 6.6087,18.41238 6.18588,18.41238 L2.2347,18.41238 L2.2347,21.08052 L5.63184,21.08052 C6.06924,21.08052 6.43374,21.4596 6.43374,21.88242 C6.43374,22.3344 6.06924,22.6989 5.63184,22.6989 L2.2347,22.6989 L2.2347,25.38162 L6.18588,25.38162 C6.6087,25.38162 6.98778,25.74612 6.98778,26.1981 C6.98778,26.6355 6.6087,27 6.18588,27 L1.46196,27 C1.4328,27 1.4328,26.98542 1.4328,26.98542 L1.41822,27 Z M12.13452,19.71 C13.8258,19.71 15.18174,21.0951 15.18174,22.74264 L15.18174,26.22726 C15.18174,26.65008 14.8464,27 14.42358,27 C14.01534,27 13.65084,26.65008 13.65084,26.22726 L13.65084,22.74264 C13.65084,21.92616 12.96558,21.27006 12.13452,21.27006 C11.31804,21.27006 10.67652,21.92616 10.67652,22.74264 L10.67652,26.22726 C10.67652,26.271 10.67652,26.31474 10.64736,26.37306 C10.57446,26.72298 10.2537,27 9.87462,27 C9.43722,27 9.10188,26.65008 9.10188,26.22726 L9.10188,20.48274 C9.10188,20.05992 9.43722,19.71 9.87462,19.71 C10.1808,19.71 10.45782,19.88496 10.58904,20.16198 C11.02644,19.88496 11.5659,19.71 12.13452,19.71 Z M20.50344,19.71 C20.94084,19.71 21.31992,20.05992 21.31992,20.5119 C21.31992,20.9493 20.94084,21.3138 20.50344,21.3138 L20.13894,21.3138 L20.13894,25.38162 C20.59092,25.38162 20.94084,25.74612 20.94084,26.1981 C20.94084,26.65008 20.59092,27 20.13894,27 C19.24956,27 18.52056,26.271 18.52056,25.38162 L18.52056,21.3138 L18.09774,21.3138 C17.64576,21.3138 17.29584,20.9493 17.29584,20.5119 C17.29584,20.05992 17.64576,19.71 18.09774,19.71 L18.52056,19.71 L18.52056,17.5959 C18.52056,17.14392 18.88506,16.794 19.33704,16.794 C19.78902,16.794 20.13894,17.14392 20.13894,17.5959 L20.13894,19.71 L20.50344,19.71 Z M27.58932,19.72458 C28.02672,19.72458 28.36206,20.05992 28.36206,20.48274 C28.36206,20.89098 28.02672,21.25548 27.58932,21.25548 C27.25398,21.25548 26.96238,21.34296 26.71452,21.5325 C26.4375,21.70746 26.2188,21.95532 26.04384,22.23234 C25.69392,22.6989 25.51896,23.25294 25.44606,23.45706 L25.44606,26.22726 C25.44606,26.65008 25.08156,27 24.64416,27 C24.22134,27 23.87142,26.65008 23.87142,26.22726 L23.87142,20.48274 C23.87142,20.05992 24.22134,19.72458 24.64416,19.72458 C25.08156,19.72458 25.44606,20.05992 25.44606,20.48274 L25.44606,20.5848 C25.53354,20.48274 25.65018,20.3661 25.75224,20.2932 C26.23338,19.97244 26.86032,19.71 27.58932,19.72458 Z M36.23526,23.96736 C36.23526,25.62948 34.83558,27 33.15888,27 C31.49676,27 30.12624,25.62948 30.12624,23.96736 L30.12624,20.48274 C30.12624,20.0745 30.47616,19.71 30.89898,19.71 C31.33638,19.71 31.67172,20.0745 31.67172,20.48274 L31.67172,23.96736 C31.67172,24.79842 32.32782,25.45452 33.15888,25.45452 C34.00452,25.45452 34.6752,24.79842 34.68978,23.96736 L34.68978,20.48274 C34.68978,20.0745 35.01054,19.71 35.44794,19.71 C35.85618,19.71 36.23526,20.0745 36.23526,20.48274 L36.23526,23.96736 Z M38.96172,25.99398 C38.64096,25.73154 38.59722,25.23582 38.85966,24.91506 C39.1221,24.56514 39.6324,24.5214 39.95316,24.79842 C40.33224,25.11918 40.98834,25.45452 41.55696,25.43994 C41.95062,25.43994 42.31512,25.30872 42.5484,25.16292 C42.75252,24.98796 42.81084,24.84216 42.81084,24.72552 C42.81084,24.65262 42.79626,24.62346 42.7671,24.57972 C42.75252,24.53598 42.6942,24.47766 42.57756,24.40476 C42.37344,24.25896 41.93604,24.09858 41.41116,23.99652 L41.39658,23.99652 C40.9446,23.90904 40.5072,23.7924 40.12812,23.61744 C39.73446,23.4279 39.38454,23.16546 39.1221,22.7718 C38.96172,22.50936 38.87424,22.1886 38.87424,21.85326 C38.87424,21.18258 39.25332,20.61396 39.73446,20.24946 C40.24476,19.89954 40.85712,19.71 41.5278,19.71 C42.53382,19.71 43.24824,20.19114 43.7148,20.5119 C44.06472,20.74518 44.16678,21.22632 43.94808,21.59082 C43.7148,21.94074 43.23366,22.0428 42.86916,21.79494 C42.4026,21.48876 41.99436,21.25548 41.5278,21.25548 C41.1633,21.25548 40.84254,21.37212 40.653,21.51792 C40.46346,21.64914 40.41972,21.78036 40.41972,21.85326 C40.41972,21.91158 40.41972,21.92616 40.44888,21.9699 C40.46346,21.99906 40.5072,22.05738 40.60926,22.1157 C40.7988,22.24692 41.17788,22.37814 41.6736,22.46562 L41.68818,22.4802 L41.70276,22.4802 C42.1839,22.56768 42.63588,22.6989 43.0587,22.90302 C43.45236,23.07798 43.84602,23.355 44.09388,23.76324 C44.26884,24.05484 44.3709,24.39018 44.3709,24.72552 C44.3709,25.43994 43.97724,26.03772 43.45236,26.4168 C42.92748,26.7813 42.27138,27 41.55696,27 C40.41972,26.98542 39.54492,26.46054 38.96172,25.99398 Z M48.84696,19.71 C49.28436,19.71 49.66344,20.05992 49.66344,20.5119 C49.66344,20.9493 49.28436,21.3138 48.84696,21.3138 L48.48246,21.3138 L48.48246,25.38162 C48.93444,25.38162 49.28436,25.74612 49.28436,26.1981 C49.28436,26.65008 48.93444,27 48.48246,27 C47.59308,27 46.86408,26.271 46.86408,25.38162 L46.86408,21.3138 L46.44126,21.3138 C45.98928,21.3138 45.63936,20.9493 45.63936,20.5119 C45.63936,20.05992 45.98928,19.71 46.44126,19.71 L46.86408,19.71 L46.86408,17.5959 C46.86408,17.14392 47.22858,16.794 47.68056,16.794 C48.13254,16.794 48.48246,17.14392 48.48246,17.5959 L48.48246,19.71 L48.84696,19.71 Z" id="Entrust" fill="#6A668F"></path>
            </g>
        </g>
    </g>
</svg>