<?xml version="1.0" encoding="UTF-8"?>
<svg width="14px" height="25px" viewBox="0 0 14 25" version="1.1" xmlns="http://www.w3.org/2000/svg" xmlns:xlink="http://www.w3.org/1999/xlink">
    <!-- Generator: Sketch 52.6 (67491) - http://www.bohemiancoding.com/sketch -->
    <desc>Created with Sketch.</desc>
    <g id="Page-1" stroke="none" stroke-width="1" fill="none" fill-rule="evenodd">
        <g id="Group-12" fill="#403669">
            <g id="Group-9">
                <path d="M6.9995608,25 C6.56591527,25 6.1503383,24.8154459 5.84317272,24.4851913 L0.478816937,18.7176065 C-0.159605646,18.0301156 -0.159605646,16.9173948 0.478816937,16.2299039 C1.11723952,15.542413 2.1531705,15.542413 2.79259689,16.2299039 L6.9995608,20.754177 L11.2075285,16.2299039 C11.8469549,15.542413 12.8818821,15.542413 13.5203047,16.2299039 C14.159731,16.9173948 14.159731,18.0301156 13.5213085,18.7176065 L8.15695268,24.4851913 C7.8497871,24.8154459 7.43421013,25 6.9995608,25" id="Fill-244"></path>
                <path d="M6.9994981,9.28571429 C6.58091346,9.28571429 6.16232882,9.11515594 5.84412418,8.77188029 L0.478812648,3.0031222 C-0.159604216,2.31549141 -0.159604216,1.20254426 0.478812648,0.514913475 C1.11823331,-0.171637825 2.15315122,-0.171637825 2.79156808,0.514913475 L6.9994981,5.04010695 L11.2074281,0.514913475 C11.8468488,-0.171637825 12.8817667,-0.171637825 13.5211874,0.514913475 C14.1596042,1.20254426 14.1596042,2.31549141 13.5211874,3.0031222 L8.15687962,8.77188029 C7.83666738,9.11515594 7.41808274,9.28571429 6.9994981,9.28571429" id="Fill-245"></path>
            </g>
        </g>
    </g>
</svg>