<?xml version="1.0" encoding="UTF-8"?>
<svg width="130px" height="131px" viewBox="0 0 130 131" version="1.1" xmlns="http://www.w3.org/2000/svg" xmlns:xlink="http://www.w3.org/1999/xlink">
    <!-- Generator: Sketch 52.6 (67491) - http://www.bohemiancoding.com/sketch -->
    <desc>Created with Sketch.</desc>
    <defs>
        <circle id="path-1" cx="37.26" cy="37.26" r="37.26"></circle>
        <filter x="-66.4%" y="-50.3%" width="232.9%" height="232.9%" filterUnits="objectBoundingBox" id="filter-2">
            <feOffset dx="0" dy="12" in="SourceAlpha" result="shadowOffsetOuter1"></feOffset>
            <feGaussianBlur stdDeviation="14.5" in="shadowOffsetOuter1" result="shadowBlurOuter1"></feGaussianBlur>
            <feColorMatrix values="0 0 0 0 0   0 0 0 0 0   0 0 0 0 0  0 0 0 0.07 0" type="matrix" in="shadowBlurOuter1"></feColorMatrix>
        </filter>
    </defs>
    <g id="Page-1" stroke="none" stroke-width="1" fill="none" fill-rule="evenodd">
        <g id="icon/insured" transform="translate(28.000000, 16.000000)" fill-rule="nonzero">
            <g id="Oval-Copy-10">
                <use fill="black" fill-opacity="1" filter="url(#filter-2)" xlink:href="#path-1"></use>
                <use fill="#FFFFFF" xlink:href="#path-1"></use>
            </g>
            <g id="umbrella-(1)" transform="translate(21.000000, 22.000000)" fill="#FDC448">
                <path d="M30.7708301,14.6539785 C29.5561387,7.67782813 23.6789746,2.32778516 16.46875,1.9045625 L16.46875,0.908203125 C16.46875,0.406632812 16.0621172,0 15.5605469,0 C15.0589766,0 14.6523438,0.406632812 14.6523438,0.908203125 L14.6523438,1.90444141 C7.46688281,2.3240918 1.4559707,7.6464043 0.229412109,14.6536152 C0.046015625,14.9788125 0,15.2805176 0,15.5 C0,16.0015703 0.406632812,16.4082031 0.908203125,16.4082031 C1.25168555,16.4082031 1.85055469,16.1673477 1.9278125,15.5652695 C1.93519922,15.5075684 1.94385742,15.4503516 1.9519707,15.3928926 C2.35521289,15.0768984 3.5495,14.5917969 5.44921875,14.5917969 C7.66662695,14.5917969 8.92394336,15.2529082 9.08269727,15.5342695 C9.09934766,15.9728711 9.43181055,16.3824102 9.98987109,16.4091719 C10.4894434,16.4322402 10.9129082,16.0479492 10.9390039,15.5493457 C11.2706191,15.2553301 12.5415586,14.7375332 14.6523438,14.6174687 L14.6523438,27.3671875 C14.6523438,29.3703203 16.2820234,31 18.2851562,31 C20.2882891,31 21.9179688,29.3703203 21.9179688,27.3671875 L21.9179688,26.4589844 C21.9179688,25.9574141 21.5113359,25.5507812 21.0097656,25.5507812 C20.5081953,25.5507812 20.1015625,25.9574141 20.1015625,26.4589844 L20.1015625,27.3671875 C20.1015625,28.3687539 19.2867227,29.1835938 18.2851562,29.1835938 C17.2835898,29.1835938 16.46875,28.3687539 16.46875,27.3671875 L16.46875,14.6181953 C18.520623,14.7385625 19.7443965,15.2464902 20.0600273,15.5351777 C20.0601484,15.5382656 20.0603301,15.541293 20.0605117,15.5443809 C20.0832168,16.0310566 20.4848848,16.4102617 20.9670195,16.4102617 C21.5393691,16.4102617 21.9000469,15.9888555 21.9173027,15.5343301 C22.0760566,15.2529082 23.333373,14.5917969 25.5507812,14.5917969 C27.4505605,14.5917969 28.6448477,15.0768984 29.0480293,15.3928926 C29.0555977,15.4461738 29.0636504,15.4992129 29.0706133,15.5527363 C29.1446621,16.1265391 29.7219766,16.4082031 30.0917969,16.4082031 C30.5933672,16.4082031 31,16.0015703 31,15.5 C31,15.2805781 30.9539844,14.9790547 30.7708301,14.6539785 Z M9.27142187,13.4906914 C8.1519707,12.9711387 6.70247852,12.7753906 5.44921875,12.7753906 C4.36639844,12.7753906 3.32753516,12.9169492 2.45874805,13.1785723 C3.88789648,8.71850781 7.56902539,5.29754883 12.1105254,4.12893359 C10.4025586,6.62770313 9.58081641,10.4726113 9.27142187,13.4906914 Z M15.5605469,12.7753906 C14.1264941,12.7753906 12.4383262,12.9556387 11.1027832,13.4429199 C11.7719473,7.32889648 13.9125215,3.69335938 15.5605469,3.69335938 C17.2691797,3.69335938 19.2645625,7.521375 19.8979434,13.4217285 C18.7072891,12.9828848 17.1305273,12.7753906 15.5605469,12.7753906 Z M25.5507812,12.7753906 C24.3028496,12.7753906 22.8540234,12.9694434 21.7311816,13.4894805 C21.4327461,10.499252 20.6470898,6.63260742 18.9816875,4.13056836 C23.4762031,5.30081836 27.1234863,8.72129297 28.5435527,13.1792383 C27.6742812,12.917252 26.6345703,12.7753906 25.5507812,12.7753906 Z" id="Shape"></path>
            </g>
        </g>
    </g>
</svg>