<?xml version="1.0" encoding="UTF-8"?>
<svg width="28.0663329px" height="28.9489555px" viewBox="0 0 28.0663329 28.9489555" version="1.1" xmlns="http://www.w3.org/2000/svg" xmlns:xlink="http://www.w3.org/1999/xlink">
    <!-- Generator: Sketch 52.6 (67491) - http://www.bohemiancoding.com/sketch -->
    <desc>Created with Sketch.</desc>
    <g id="Page-1" stroke="none" stroke-width="1" fill="none" fill-rule="evenodd">
        <g id="Group-6" fill="#13C6B9" fill-rule="nonzero">
            <path d="M14.0337185,11.5795822 C13.0400324,11.5795822 12.2340426,10.7887339 12.2340426,9.81237785 L12.2340426,1.76611953 C12.2340426,0.790848364 13.0400324,0 14.0337185,0 C15.0274046,0 15.8322904,0.790848364 15.8322904,1.76611953 L15.8322904,9.81237785 C15.8322904,10.7887339 15.0274046,11.5795822 14.0337185,11.5795822" id="Fill-265-Copy"></path>
            <path d="M14.0337185,28.9489555 C13.0400324,28.9489555 12.2340426,28.1581813 12.2340426,27.1819167 L12.2340426,19.1364121 C12.2340426,18.1612323 13.0400324,17.3693733 14.0337185,17.3693733 C15.0274046,17.3693733 15.8322904,18.1612323 15.8322904,19.1364121 L15.8322904,27.1819167 C15.8322904,28.1581813 15.0274046,28.9489555 14.0337185,28.9489555" id="Fill-266-Copy"></path>
            <path d="M26.308328,16.6456494 L18.3088663,16.6456494 C17.3381888,16.6456494 16.5519399,15.8348477 16.5519399,14.8363397 C16.5519399,13.8367211 17.3381888,13.02703 18.3088663,13.02703 L26.308328,13.02703 C27.2790056,13.02703 28.0663329,13.8367211 28.0663329,14.8363397 C28.0663329,15.8348477 27.2790056,16.6456494 26.308328,16.6456494" id="Fill-267-Copy"></path>
            <path d="M9.75638807,16.6456494 L1.75800492,16.6456494 C0.787327359,16.6456494 0,15.8348477 0,14.8363397 C0,13.8367211 0.787327359,13.02703 1.75800492,13.02703 L9.75638807,13.02703 C10.7270656,13.02703 11.514393,13.8367211 11.514393,14.8363397 C11.514393,15.8348477 10.7270656,16.6456494 9.75638807,16.6456494" id="Fill-268-Copy"></path>
        </g>
    </g>
</svg>