<?xml version="1.0" encoding="UTF-8"?>
<svg width="36px" height="17px" viewBox="0 0 36 17" version="1.1" xmlns="http://www.w3.org/2000/svg" xmlns:xlink="http://www.w3.org/1999/xlink">
    <!-- Generator: Sketch 52.6 (67491) - http://www.bohemiancoding.com/sketch -->
    <desc>Created with Sketch.</desc>
    <g id="Page-1" stroke="none" stroke-width="1" fill="none" fill-rule="evenodd">
        <g id="Group-11-Copy" fill="#BD4D9C">
            <g id="Group-5" transform="translate(18.323529, 8.500000) scale(-1, 1) translate(-18.323529, -8.500000) translate(0.823529, 0.000000)">
                <g id="Group-2" transform="translate(17.960945, 8.130091) rotate(-90.000000) translate(-17.960945, -8.130091) translate(9.960945, -8.869909)">
                    <path d="M13.4139937,9.37599273 C12.9791651,9.37704918 12.5443365,9.20907365 12.2116978,8.87312259 L7.55684178,4.15607385 L2.90094299,8.87312259 C2.23670838,9.54502471 1.1616285,9.54502471 0.497393891,8.87312259 C-0.165797964,8.20016401 -0.165797964,7.11096418 0.497393891,6.4380056 L6.35558861,0.503926595 C6.67362873,0.18065293 7.10637184,0 7.55684178,0 C8.00731172,0 8.44005483,0.18065293 8.75809495,0.503926595 L14.6152469,6.4380056 C15.2784388,7.11096418 15.2784388,8.20016401 14.6152469,8.87312259 C14.283651,9.20907365 13.8488224,9.37599273 13.4139937,9.37599273" id="Fill-240-Copy"></path>
                    <path d="M13.4139937,21.6382878 C12.9791651,21.6393443 12.5443365,21.4713687 12.2116978,21.1354177 L7.55684178,16.4183689 L2.90094299,21.1354177 C2.23670838,21.8073198 1.1616285,21.8073198 0.497393891,21.1354177 C-0.165797964,20.4624591 -0.165797964,19.3732593 0.497393891,18.7003007 L6.35558861,12.7662217 C6.67362873,12.442948 7.10637184,12.2622951 7.55684178,12.2622951 C8.00731172,12.2622951 8.44005483,12.442948 8.75809495,12.7662217 L14.6152469,18.7003007 C15.2784388,19.3732593 15.2784388,20.4624591 14.6152469,21.1354177 C14.283651,21.4713687 13.8488224,21.6382878 13.4139937,21.6382878" id="Fill-240-Copy-2"></path>
                    <path d="M13.4139937,33.9005829 C12.9791651,33.9016393 12.5443365,33.7336638 12.2116978,33.3977127 L7.55684178,28.680664 L2.90094299,33.3977127 C2.23670838,34.0696149 1.1616285,34.0696149 0.497393891,33.3977127 C-0.165797964,32.7247542 -0.165797964,31.6355543 0.497393891,30.9625958 L6.35558861,25.0285168 C6.67362873,24.7052431 7.10637184,24.5245902 7.55684178,24.5245902 C8.00731172,24.5245902 8.44005483,24.7052431 8.75809495,25.0285168 L14.6152469,30.9625958 C15.2784388,31.6355543 15.2784388,32.7247542 14.6152469,33.3977127 C14.283651,33.7336638 13.8488224,33.9005829 13.4139937,33.9005829" id="Fill-240-Copy-3"></path>
                </g>
            </g>
        </g>
    </g>
</svg>