<?xml version="1.0" encoding="UTF-8"?>
<svg width="33.8235294px" height="15.1982017px" viewBox="0 0 33.8235294 15.1982017" version="1.1" xmlns="http://www.w3.org/2000/svg" xmlns:xlink="http://www.w3.org/1999/xlink">
    <!-- Generator: Sketch 52.6 (67491) - http://www.bohemiancoding.com/sketch -->
    <desc>Created with Sketch.</desc>
    <g id="Page-1" stroke="none" stroke-width="1" fill="none" fill-rule="evenodd">
        <g id="Group-11" fill="#BD4D9C">
            <g id="Group-5" transform="translate(16.911765, 7.599101) scale(-1, 1) translate(-16.911765, -7.599101) ">
                <g id="Group-2" transform="translate(16.911765, 7.599101) rotate(-90.000000) translate(-16.911765, -7.599101) translate(9.355444, -9.408411)">
                    <path d="M13.4139937,9.40735057 C12.9791651,9.40841055 12.5443365,9.23987323 12.2116978,8.90279858 L7.55684178,4.16997376 L2.90094299,8.90279858 C2.23670838,9.57694787 1.1616285,9.57694787 0.497393891,8.90279858 C-0.165797964,8.22758931 -0.165797964,7.13474667 0.497393891,6.45953739 L6.35558861,0.505611968 C6.67362873,0.181257121 7.10637184,0 7.55684178,0 C8.00731172,0 8.44005483,0.181257121 8.75809495,0.505611968 L14.6152469,6.45953739 C15.2784388,7.13474667 15.2784388,8.22758931 14.6152469,8.90279858 C14.283651,9.23987323 13.8488224,9.40735057 13.4139937,9.40735057" id="Fill-240-Copy"></path>
                    <path d="M13.4139937,21.7106567 C12.9791651,21.7117167 12.5443365,21.5431793 12.2116978,21.2061047 L7.55684178,16.4732799 L2.90094299,21.2061047 C2.23670838,21.880254 1.1616285,21.880254 0.497393891,21.2061047 C-0.165797964,20.5308954 -0.165797964,19.4380528 0.497393891,18.7628435 L6.35558861,12.8089181 C6.67362873,12.4845632 7.10637184,12.3033061 7.55684178,12.3033061 C8.00731172,12.3033061 8.44005483,12.4845632 8.75809495,12.8089181 L14.6152469,18.7628435 C15.2784388,19.4380528 15.2784388,20.5308954 14.6152469,21.2061047 C14.283651,21.5431793 13.8488224,21.7106567 13.4139937,21.7106567" id="Fill-240-Copy-2"></path>
                    <path d="M13.4139937,34.0139628 C12.9791651,34.0150228 12.5443365,33.8464854 12.2116978,33.5094108 L7.55684178,28.776586 L2.90094299,33.5094108 C2.23670838,34.1835601 1.1616285,34.1835601 0.497393891,33.5094108 C-0.165797964,32.8342015 -0.165797964,31.7413589 0.497393891,31.0661496 L6.35558861,25.1122242 C6.67362873,24.7878693 7.10637184,24.6066122 7.55684178,24.6066122 C8.00731172,24.6066122 8.44005483,24.7878693 8.75809495,25.1122242 L14.6152469,31.0661496 C15.2784388,31.7413589 15.2784388,32.8342015 14.6152469,33.5094108 C14.283651,33.8464854 13.8488224,34.0139628 13.4139937,34.0139628" id="Fill-240-Copy-3"></path>
                </g>
            </g>
        </g>
    </g>
</svg>