<?xml version="1.0" encoding="UTF-8"?>
<svg width="22px" height="23.0769231px" viewBox="0 0 22 23.0769231" version="1.1" xmlns="http://www.w3.org/2000/svg" xmlns:xlink="http://www.w3.org/1999/xlink">
    <!-- Generator: Sketch 52.6 (67491) - http://www.bohemiancoding.com/sketch -->
    <desc>Created with Sketch.</desc>
    <g id="Page-1" stroke="none" stroke-width="1" fill="none" fill-rule="evenodd">
        <g id="Group-6-Copy-5" fill="#13C6B9" fill-rule="nonzero">
            <path d="M11.0004327,9.23076923 C10.2215246,9.23076923 9.58974359,8.60033727 9.58974359,7.8220262 L9.58974359,1.40787824 C9.58974359,0.630431963 10.2215246,0 11.0004327,0 C11.7793408,0 12.4102564,0.630431963 12.4102564,1.40787824 L12.4102564,7.8220262 C12.4102564,8.60033727 11.7793408,9.23076923 11.0004327,9.23076923" id="Fill-265-Copy"></path>
            <path d="M11.0004327,23.0769231 C10.2215246,23.0769231 9.58974359,22.4465502 9.58974359,21.668312 L9.58974359,15.2547649 C9.58974359,14.4773915 10.2215246,13.8461538 11.0004327,13.8461538 C11.7793408,13.8461538 12.4102564,14.4773915 12.4102564,15.2547649 L12.4102564,21.668312 C12.4102564,22.4465502 11.7793408,23.0769231 11.0004327,23.0769231" id="Fill-266-Copy"></path>
            <path d="M20.621975,13.2692308 L14.3515386,13.2692308 C13.5906659,13.2692308 12.974359,12.6228928 12.974359,11.8269231 C12.974359,11.030068 13.5906659,10.3846154 14.3515386,10.3846154 L20.621975,10.3846154 C21.3828477,10.3846154 22,11.030068 22,11.8269231 C22,12.6228928 21.3828477,13.2692308 20.621975,13.2692308" id="Fill-267-Copy"></path>
            <path d="M7.64761603,13.2692308 L1.378025,13.2692308 C0.617152299,13.2692308 0,12.6228928 0,11.8269231 C0,11.030068 0.617152299,10.3846154 1.378025,10.3846154 L7.64761603,10.3846154 C8.40848873,10.3846154 9.02564103,11.030068 9.02564103,11.8269231 C9.02564103,12.6228928 8.40848873,13.2692308 7.64761603,13.2692308" id="Fill-268-Copy"></path>
        </g>
    </g>
</svg>