<?xml version="1.0" encoding="UTF-8"?>
<svg width="73px" height="16px" viewBox="0 0 73 16" version="1.1" xmlns="http://www.w3.org/2000/svg" xmlns:xlink="http://www.w3.org/1999/xlink">
    <!-- Generator: Sketch 52.6 (67491) - http://www.bohemiancoding.com/sketch -->
    <desc>Created with Sketch.</desc>
    <g id="Page-1" stroke="none" stroke-width="1" fill="none" fill-rule="evenodd">
        <g id="Uber_logo" fill="#FFFFFF">
            <path d="M11.475,0.385836066 L11.475,9.19422951 C11.475,12.1356066 10.234,13.3571148 7.32325,13.3571148 C4.41225,13.3571148 3.17125,12.1356066 3.17125,9.19422951 L3.17125,0 L0.36775,0 C0.12275,0 0,0.128786885 0,0.385836066 L0,9.3387541 C0,14.2575738 2.9875,15.9774426 7.32325,15.9774426 C11.65875,15.9774426 14.64625,14.2575738 14.64625,9.3387541 L14.64625,0 L11.8425,0 C11.5975,0 11.475,0.128786885 11.475,0.385836066" id="Fill-1"></path>
            <path d="M52.11725,2.55580328 C52.347,2.55580328 52.45425,2.47554098 52.53075,2.2984918 L53.343,0.192786885 C53.389,0.0645245902 53.343,0 53.22025,0 L41.92925,0 C40.872,0 40.474,0.33757377 40.474,1.09298361 L40.474,14.7716721 C40.474,15.4148197 40.78,15.7041311 41.59225,15.7041311 L52.11725,15.7041311 C52.347,15.7041311 52.45425,15.6236066 52.53075,15.447082 L53.343,13.3411148 C53.389,13.2125902 53.343,13.1483279 53.22025,13.1483279 L43.584,13.1483279 L43.584,10.3674754 C43.584,9.40301639 44.0895,8.96891803 45.45275,8.96891803 L49.6355,8.96891803 C49.86525,8.96891803 49.97225,8.88891803 50.049,8.71213115 L50.8305,6.68668852 C50.87625,6.55790164 50.8305,6.49390164 50.70775,6.49390164 L43.584,6.49390164 L43.584,2.55580328 L52.11725,2.55580328" id="Fill-2"></path>
            <path d="M29.299,13.1805902 L23.76675,13.1805902 L23.76675,10.3032131 C23.76675,9.3387541 24.27225,8.90491803 25.636,8.90491803 L29.299,8.90491803 C31.06075,8.90491803 31.551,9.61206557 31.551,11.0588852 C31.551,12.5054426 31.06075,13.1805902 29.299,13.1805902 Z M23.76675,2.52354098 L28.71675,2.52354098 C30.37125,2.52354098 30.831,3.17744262 30.831,4.53272131 C30.831,5.8882623 30.37125,6.54216393 28.71675,6.54216393 L23.76675,6.54216393 L23.76675,2.52354098 Z M32.2405,7.42609836 C33.466,6.75095082 33.9715,5.48118033 33.9715,3.98636066 C33.9715,0.514360656 31.27525,0 28.487,0 L22.11375,0 C21.0565,0 20.6585,0.33757377 20.6585,1.09298361 L20.6585,14.7716721 C20.6585,15.4148197 20.96475,15.7041311 21.77675,15.7041311 L29.62075,15.7041311 C32.5775,15.7041311 34.6915,14.498623 34.6915,11.3641967 C34.6915,9.48354098 33.9255,7.89219672 32.2405,7.42609836 Z" id="Fill-3" fill-rule="nonzero"></path>
            <path d="M67.0615,7.28131148 L61.8525,7.28131148 L61.8525,2.52380328 L67.0615,2.52380328 C69.007,2.52380328 69.436,3.31121311 69.436,4.90255738 C69.436,6.50990164 69.007,7.28131148 67.0615,7.28131148 Z M72.91375,15.4308197 L69.55875,9.38701639 C71.2285,8.93718033 72.57675,7.77993443 72.57675,4.83829508 C72.57675,1.02898361 70.3245,0 66.60175,0 L60.198,0 C59.141,0 58.7425,0.33757377 58.7425,1.09298361 L58.7425,15.3182951 C58.7425,15.5753443 58.86525,15.7041311 59.11025,15.7041311 L61.8525,15.7041311 L61.8525,11.1231475 C61.8525,10.1586885 62.358,9.72459016 63.72175,9.72459016 L66.47925,9.72459016 L69.5125,15.447082 C69.6045,15.6076066 69.6965,15.7041311 69.92625,15.7041311 L72.776,15.7041311 C72.97525,15.7041311 72.97525,15.527082 72.91375,15.4308197 Z" id="Fill-4" fill-rule="nonzero"></path>
        </g>
    </g>
</svg>