<?xml version="1.0" encoding="UTF-8"?>
<svg width="59px" height="13px" viewBox="0 0 59 13" version="1.1" xmlns="http://www.w3.org/2000/svg" xmlns:xlink="http://www.w3.org/1999/xlink">
    <!-- Generator: Sketch 52.6 (67491) - http://www.bohemiancoding.com/sketch -->
    <desc>Created with Sketch.</desc>
    <g id="Page-1" stroke="none" stroke-width="1" fill="none" fill-rule="evenodd">
        <g id="Uber_logo" fill="#FFFFFF">
            <path d="M9.18,0.308668852 L9.18,7.35538361 C9.18,9.70848525 8.1872,10.6856918 5.8586,10.6856918 C3.5298,10.6856918 2.537,9.70848525 2.537,7.35538361 L2.537,0 L0.2942,0 C0.0982,0 0,0.103029508 0,0.308668852 L0,7.47100328 C0,11.406059 2.39,12.7819541 5.8586,12.7819541 C9.327,12.7819541 11.717,11.406059 11.717,7.47100328 L11.717,0 L9.474,0 C9.278,0 9.18,0.103029508 9.18,0.308668852" id="Fill-1"></path>
            <path d="M41.6938,2.04464262 C41.8776,2.04464262 41.9634,1.98043279 42.0246,1.83879344 L42.6744,0.154229508 C42.7112,0.0516196721 42.6744,0 42.5762,0 L33.5434,0 C32.6976,0 32.3792,0.270059016 32.3792,0.874386885 L32.3792,11.8173377 C32.3792,12.3318557 32.624,12.5633049 33.2738,12.5633049 L41.6938,12.5633049 C41.8776,12.5633049 41.9634,12.4988852 42.0246,12.3576656 L42.6744,10.6728918 C42.7112,10.5700721 42.6744,10.5186623 42.5762,10.5186623 L34.8672,10.5186623 L34.8672,8.29398033 C34.8672,7.52241311 35.2716,7.17513443 36.3622,7.17513443 L39.7084,7.17513443 C39.8922,7.17513443 39.9778,7.11113443 40.0392,6.96970492 L40.6644,5.34935082 C40.701,5.24632131 40.6644,5.19512131 40.5662,5.19512131 L34.8672,5.19512131 L34.8672,2.04464262 L41.6938,2.04464262" id="Fill-2"></path>
            <path d="M23.4392,10.5444721 L19.0134,10.5444721 L19.0134,8.24257049 C19.0134,7.47100328 19.4178,7.12393443 20.5088,7.12393443 L23.4392,7.12393443 C24.8486,7.12393443 25.2408,7.68965246 25.2408,8.8471082 C25.2408,10.0043541 24.8486,10.5444721 23.4392,10.5444721 Z M19.0134,2.01883279 L22.9734,2.01883279 C24.297,2.01883279 24.6648,2.5419541 24.6648,3.62617705 C24.6648,4.71060984 24.297,5.23373115 22.9734,5.23373115 L19.0134,5.23373115 L19.0134,2.01883279 Z M25.7924,5.94087869 C26.7728,5.40076066 27.1772,4.38494426 27.1772,3.18908852 C27.1772,0.411488525 25.0202,0 22.7896,0 L17.691,0 C16.8452,0 16.5268,0.270059016 16.5268,0.874386885 L16.5268,11.8173377 C16.5268,12.3318557 16.7718,12.5633049 17.4214,12.5633049 L23.6966,12.5633049 C26.062,12.5633049 27.7532,11.5988984 27.7532,9.09135738 C27.7532,7.58683279 27.1404,6.31375738 25.7924,5.94087869 Z" id="Fill-3" fill-rule="nonzero"></path>
            <path d="M53.6492,5.82504918 L49.482,5.82504918 L49.482,2.01904262 L53.6492,2.01904262 C55.2056,2.01904262 55.5488,2.64897049 55.5488,3.9220459 C55.5488,5.20792131 55.2056,5.82504918 53.6492,5.82504918 Z M58.331,12.3446557 L55.647,7.50961311 C56.9828,7.14974426 58.0614,6.22394754 58.0614,3.87063607 C58.0614,0.823186885 56.2596,0 53.2814,0 L48.1584,0 C47.3128,0 46.994,0.270059016 46.994,0.874386885 L46.994,12.2546361 C46.994,12.4602754 47.0922,12.5633049 47.2882,12.5633049 L49.482,12.5633049 L49.482,8.89851803 C49.482,8.12695082 49.8864,7.77967213 50.9774,7.77967213 L53.1834,7.77967213 L55.61,12.3576656 C55.6836,12.4860852 55.7572,12.5633049 55.941,12.5633049 L58.2208,12.5633049 C58.3802,12.5633049 58.3802,12.4216656 58.331,12.3446557 Z" id="Fill-4" fill-rule="nonzero"></path>
        </g>
    </g>
</svg>